<?xml version="1.0" encoding="UTF-8"?>
<!--Generator: Apple Native CoreSVG 175-->
<!DOCTYPE svg
PUBLIC "-//W3C//DTD SVG 1.1//EN"
       "http://www.w3.org/Graphics/SVG/1.1/DTD/svg11.dtd">
<svg version="1.1" xmlns="http://www.w3.org/2000/svg" xmlns:xlink="http://www.w3.org/1999/xlink" width="3300" height="2200">
 <!--glyph: "uni10028E.medium", point size: 100.0, font version: "17.0d12e1", template writer version: "65.1"-->
 <g id="Notes">
  <rect height="2200" id="artboard" style="fill:white;opacity:1" width="3300" x="0" y="0"/>
  <line style="fill:none;stroke:black;opacity:1;stroke-width:0.5;" x1="263" x2="3036" y1="292" y2="292"/>
  <text style="stroke:none;fill:black;font-family:sans-serif;font-size:13;font-weight:bold;" transform="matrix(1 0 0 1 263 322)">Weight/Scale Variations</text>
  <text style="stroke:none;fill:black;font-family:sans-serif;font-size:13;text-anchor:middle;" transform="matrix(1 0 0 1 559.711 322)">Ultralight</text>
  <text style="stroke:none;fill:black;font-family:sans-serif;font-size:13;text-anchor:middle;" transform="matrix(1 0 0 1 856.422 322)">Thin</text>
  <text style="stroke:none;fill:black;font-family:sans-serif;font-size:13;text-anchor:middle;" transform="matrix(1 0 0 1 1153.13 322)">Light</text>
  <text style="stroke:none;fill:black;font-family:sans-serif;font-size:13;text-anchor:middle;" transform="matrix(1 0 0 1 1449.84 322)">Regular</text>
  <text style="stroke:none;fill:black;font-family:sans-serif;font-size:13;text-anchor:middle;" transform="matrix(1 0 0 1 1746.56 322)">Medium</text>
  <text style="stroke:none;fill:black;font-family:sans-serif;font-size:13;text-anchor:middle;" transform="matrix(1 0 0 1 2043.27 322)">Semibold</text>
  <text style="stroke:none;fill:black;font-family:sans-serif;font-size:13;text-anchor:middle;" transform="matrix(1 0 0 1 2339.98 322)">Bold</text>
  <text style="stroke:none;fill:black;font-family:sans-serif;font-size:13;text-anchor:middle;" transform="matrix(1 0 0 1 2636.69 322)">Heavy</text>
  <text style="stroke:none;fill:black;font-family:sans-serif;font-size:13;text-anchor:middle;" transform="matrix(1 0 0 1 2933.4 322)">Black</text>
  <line style="fill:none;stroke:black;opacity:1;stroke-width:0.5;" x1="263" x2="3036" y1="1903" y2="1903"/>
  <g transform="matrix(1 0 0 1 263 1933)">
   <path d="M9.24805 0.830078Q10.8691 0.830078 12.2949 0.214844Q13.7207-0.400391 14.8096-1.49414Q15.8984-2.58789 16.5186-4.01367Q17.1387-5.43945 17.1387-7.05078Q17.1387-8.66211 16.5186-10.0879Q15.8984-11.5137 14.8047-12.6074Q13.7109-13.7012 12.2852-14.3164Q10.8594-14.9316 9.23828-14.9316Q7.62695-14.9316 6.20117-14.3164Q4.77539-13.7012 3.69141-12.6074Q2.60742-11.5137 1.9873-10.0879Q1.36719-8.66211 1.36719-7.05078Q1.36719-5.43945 1.9873-4.01367Q2.60742-2.58789 3.69629-1.49414Q4.78516-0.400391 6.21094 0.214844Q7.63672 0.830078 9.24805 0.830078ZM9.24805-0.654297Q7.91992-0.654297 6.7627-1.14746Q5.60547-1.64062 4.73145-2.51953Q3.85742-3.39844 3.36426-4.56055Q2.87109-5.72266 2.87109-7.05078Q2.87109-8.37891 3.35938-9.54102Q3.84766-10.7031 4.72168-11.582Q5.5957-12.4609 6.75293-12.9541Q7.91016-13.4473 9.23828-13.4473Q10.5762-13.4473 11.7334-12.9541Q12.8906-12.4609 13.7695-11.582Q14.6484-10.7031 15.1465-9.54102Q15.6445-8.37891 15.6445-7.05078Q15.6445-5.72266 15.1514-4.56055Q14.6582-3.39844 13.7842-2.51953Q12.9102-1.64062 11.748-1.14746Q10.5859-0.654297 9.24805-0.654297ZM5.6543-7.05078Q5.6543-6.72852 5.85938-6.52832Q6.06445-6.32812 6.40625-6.32812L8.51562-6.32812L8.51562-4.20898Q8.51562-3.88672 8.71094-3.67676Q8.90625-3.4668 9.23828-3.4668Q9.56055-3.4668 9.77051-3.67676Q9.98047-3.88672 9.98047-4.20898L9.98047-6.32812L12.0898-6.32812Q12.4219-6.32812 12.627-6.52832Q12.832-6.72852 12.832-7.05078Q12.832-7.38281 12.627-7.58789Q12.4219-7.79297 12.0898-7.79297L9.98047-7.79297L9.98047-9.90234Q9.98047-10.2344 9.77051-10.4443Q9.56055-10.6543 9.23828-10.6543Q8.90625-10.6543 8.71094-10.4443Q8.51562-10.2344 8.51562-9.90234L8.51562-7.79297L6.40625-7.79297Q6.06445-7.79297 5.85938-7.58789Q5.6543-7.38281 5.6543-7.05078Z"/>
  </g>
  <g transform="matrix(1 0 0 1 281.867 1933)">
   <path d="M11.709 2.91016Q13.75 2.91016 15.5518 2.12891Q17.3535 1.34766 18.7305-0.0292969Q20.1074-1.40625 20.8887-3.20801Q21.6699-5.00977 21.6699-7.05078Q21.6699-9.0918 20.8887-10.8936Q20.1074-12.6953 18.7305-14.0723Q17.3535-15.4492 15.5469-16.2305Q13.7402-17.0117 11.6992-17.0117Q9.6582-17.0117 7.85645-16.2305Q6.05469-15.4492 4.68262-14.0723Q3.31055-12.6953 2.5293-10.8936Q1.74805-9.0918 1.74805-7.05078Q1.74805-5.00977 2.5293-3.20801Q3.31055-1.40625 4.6875-0.0292969Q6.06445 1.34766 7.86621 2.12891Q9.66797 2.91016 11.709 2.91016ZM11.709 1.25Q9.98047 1.25 8.47656 0.605469Q6.97266-0.0390625 5.83496-1.17676Q4.69727-2.31445 4.05762-3.81836Q3.41797-5.32227 3.41797-7.05078Q3.41797-8.7793 4.05762-10.2832Q4.69727-11.7871 5.83008-12.9297Q6.96289-14.0723 8.4668-14.7119Q9.9707-15.3516 11.6992-15.3516Q13.4277-15.3516 14.9316-14.7119Q16.4355-14.0723 17.5781-12.9297Q18.7207-11.7871 19.3652-10.2832Q20.0098-8.7793 20.0098-7.05078Q20.0098-5.32227 19.3701-3.81836Q18.7305-2.31445 17.5928-1.17676Q16.4551-0.0390625 14.9463 0.605469Q13.4375 1.25 11.709 1.25ZM7.17773-7.05078Q7.17773-6.69922 7.41211-6.47461Q7.64648-6.25 8.01758-6.25L10.8887-6.25L10.8887-3.36914Q10.8887-2.99805 11.1133-2.76855Q11.3379-2.53906 11.6895-2.53906Q12.0605-2.53906 12.29-2.76855Q12.5195-2.99805 12.5195-3.36914L12.5195-6.25L15.4004-6.25Q15.7715-6.25 16.001-6.47461Q16.2305-6.69922 16.2305-7.05078Q16.2305-7.42188 16.001-7.65137Q15.7715-7.88086 15.4004-7.88086L12.5195-7.88086L12.5195-10.752Q12.5195-11.1328 12.29-11.3623Q12.0605-11.5918 11.6895-11.5918Q11.3379-11.5918 11.1133-11.3574Q10.8887-11.123 10.8887-10.752L10.8887-7.88086L8.01758-7.88086Q7.63672-7.88086 7.40723-7.65137Q7.17773-7.42188 7.17773-7.05078Z"/>
  </g>
  <g transform="matrix(1 0 0 1 305.646 1933)">
   <path d="M14.9707 5.66406Q17.0605 5.66406 18.96 5.01465Q20.8594 4.36523 22.4512 3.19336Q24.043 2.02148 25.2197 0.429688Q26.3965-1.16211 27.0459-3.06641Q27.6953-4.9707 27.6953-7.05078Q27.6953-9.14062 27.0459-11.04Q26.3965-12.9395 25.2197-14.5312Q24.043-16.123 22.4512-17.2998Q20.8594-18.4766 18.9551-19.126Q17.0508-19.7754 14.9609-19.7754Q12.8711-19.7754 10.9717-19.126Q9.07227-18.4766 7.48535-17.2998Q5.89844-16.123 4.72168-14.5312Q3.54492-12.9395 2.90039-11.04Q2.25586-9.14062 2.25586-7.05078Q2.25586-4.9707 2.90527-3.06641Q3.55469-1.16211 4.72656 0.429688Q5.89844 2.02148 7.49023 3.19336Q9.08203 4.36523 10.9814 5.01465Q12.8809 5.66406 14.9707 5.66406ZM14.9707 3.84766Q13.1641 3.84766 11.5283 3.2959Q9.89258 2.74414 8.53516 1.74805Q7.17773 0.751953 6.17676-0.610352Q5.17578-1.97266 4.62891-3.6084Q4.08203-5.24414 4.08203-7.05078Q4.08203-8.86719 4.62891-10.5029Q5.17578-12.1387 6.17188-13.501Q7.16797-14.8633 8.52539-15.8594Q9.88281-16.8555 11.5186-17.4023Q13.1543-17.9492 14.9609-17.9492Q16.7773-17.9492 18.4131-17.4023Q20.0488-16.8555 21.4111-15.8594Q22.7734-14.8633 23.7695-13.501Q24.7656-12.1387 25.3174-10.5029Q25.8691-8.86719 25.8691-7.05078Q25.8789-5.24414 25.332-3.6084Q24.7852-1.97266 23.7842-0.610352Q22.7832 0.751953 21.4209 1.74805Q20.0586 2.74414 18.4229 3.2959Q16.7871 3.84766 14.9707 3.84766ZM9.19922-7.05078Q9.19922-6.66992 9.45801-6.4209Q9.7168-6.17188 10.1172-6.17188L14.0625-6.17188L14.0625-2.2168Q14.0625-1.81641 14.3115-1.55762Q14.5605-1.29883 14.9512-1.29883Q15.3516-1.29883 15.6104-1.55273Q15.8691-1.80664 15.8691-2.2168L15.8691-6.17188L19.8242-6.17188Q20.2246-6.17188 20.4785-6.4209Q20.7324-6.66992 20.7324-7.05078Q20.7324-7.46094 20.4785-7.71484Q20.2246-7.96875 19.8242-7.96875L15.8691-7.96875L15.8691-11.9141Q15.8691-12.3242 15.6104-12.583Q15.3516-12.8418 14.9512-12.8418Q14.5605-12.8418 14.3115-12.583Q14.0625-12.3242 14.0625-11.9141L14.0625-7.96875L10.1172-7.96875Q9.70703-7.96875 9.45312-7.71484Q9.19922-7.46094 9.19922-7.05078Z"/>
  </g>
  <text style="stroke:none;fill:black;font-family:sans-serif;font-size:13;font-weight:bold;" transform="matrix(1 0 0 1 263 1953)">Design Variations</text>
  <text style="stroke:none;fill:black;font-family:sans-serif;font-size:13;" transform="matrix(1 0 0 1 263 1971)">Symbols are supported in up to nine weights and three scales.</text>
  <text style="stroke:none;fill:black;font-family:sans-serif;font-size:13;" transform="matrix(1 0 0 1 263 1989)">For optimal layout with text and other symbols, vertically align</text>
  <text style="stroke:none;fill:black;font-family:sans-serif;font-size:13;" transform="matrix(1 0 0 1 263 2007)">symbols with the adjacent text.</text>
  <line style="fill:none;stroke:#00AEEF;stroke-width:0.5;opacity:1.0;" x1="776" x2="776" y1="1919" y2="1933"/>
  <g transform="matrix(1 0 0 1 776 1933)">
   <path d="M3.31055 0.15625Q3.70117 0.15625 3.91602-0.00976562Q4.13086-0.175781 4.26758-0.585938L5.52734-4.0332L11.2891-4.0332L12.5488-0.585938Q12.6855-0.175781 12.9004-0.00976562Q13.1152 0.15625 13.4961 0.15625Q13.8867 0.15625 14.1162-0.0585938Q14.3457-0.273438 14.3457-0.644531Q14.3457-0.869141 14.2383-1.17188L9.6582-13.3691Q9.48242-13.8184 9.17969-14.043Q8.87695-14.2676 8.4082-14.2676Q7.5-14.2676 7.17773-13.3789L2.59766-1.16211Q2.49023-0.859375 2.49023-0.634766Q2.49023-0.263672 2.70996-0.0537109Q2.92969 0.15625 3.31055 0.15625ZM6.00586-5.51758L8.37891-12.0898L8.42773-12.0898L10.8008-5.51758Z"/>
  </g>
  <line style="fill:none;stroke:#00AEEF;stroke-width:0.5;opacity:1.0;" x1="793.197" x2="793.197" y1="1919" y2="1933"/>
  <text style="stroke:none;fill:black;font-family:sans-serif;font-size:13;font-weight:bold;" transform="matrix(1 0 0 1 776 1953)">Margins</text>
  <text style="stroke:none;fill:black;font-family:sans-serif;font-size:13;" transform="matrix(1 0 0 1 776 1971)">Leading and trailing margins on the left and right side of each symbol</text>
  <text style="stroke:none;fill:black;font-family:sans-serif;font-size:13;" transform="matrix(1 0 0 1 776 1989)">can be adjusted by modifying the x-location of the margin guidelines.</text>
  <text style="stroke:none;fill:black;font-family:sans-serif;font-size:13;" transform="matrix(1 0 0 1 776 2007)">Modifications are automatically applied proportionally to all</text>
  <text style="stroke:none;fill:black;font-family:sans-serif;font-size:13;" transform="matrix(1 0 0 1 776 2025)">scales and weights.</text>
  <g transform="matrix(1 0 0 1 1289 1933)">
   <path d="M2.8418 1.86523L4.54102 3.57422Q5.18555 4.22852 5.90332 4.17969Q6.62109 4.13086 7.31445 3.35938L18.0078-8.42773L17.041-9.4043L6.42578 2.27539Q6.16211 2.57812 5.89355 2.61719Q5.625 2.65625 5.27344 2.30469L4.10156 1.14258Q3.75 0.791016 3.79395 0.522461Q3.83789 0.253906 4.14062-0.0195312L15.6152-10.8203L14.6387-11.7871L3.04688-0.898438Q2.30469-0.214844 2.25098 0.498047Q2.19727 1.21094 2.8418 1.86523ZM9.25781-16.3281Q8.94531-16.0254 8.90625-15.6348Q8.86719-15.2441 9.04297-14.9512Q9.21875-14.6777 9.55566-14.541Q9.89258-14.4043 10.3809-14.5215Q11.4746-14.7754 12.5977-14.7314Q13.7207-14.6875 14.7949-13.9844L14.209-12.5293Q13.9551-11.9043 14.0674-11.4404Q14.1797-10.9766 14.5801-10.5664L16.875-8.25195Q17.2363-7.88086 17.5781-7.82227Q17.9199-7.76367 18.3398-7.8418L19.4043-8.03711L20.0684-7.36328L20.0293-6.80664Q20-6.43555 20.1221-6.12305Q20.2441-5.81055 20.6055-5.44922L21.3672-4.70703Q21.7285-4.3457 22.1533-4.33105Q22.5781-4.31641 22.9297-4.66797L25.8398-7.58789Q26.1914-7.93945 26.1816-8.35449Q26.1719-8.76953 25.8105-9.13086L25.0391-9.89258Q24.6875-10.2539 24.3799-10.3857Q24.0723-10.5176 23.7109-10.4883L23.1348-10.4395L22.4902-11.0742L22.7344-12.1973Q22.832-12.6172 22.6953-12.9834Q22.5586-13.3496 22.1191-13.7891L19.9219-15.9766Q18.6719-17.2168 17.2607-17.8369Q15.8496-18.457 14.4189-18.4814Q12.9883-18.5059 11.665-17.959Q10.3418-17.4121 9.25781-16.3281ZM10.752-15.957Q11.6602-16.6211 12.7002-16.9043Q13.7402-17.1875 14.8047-17.085Q15.8691-16.9824 16.8701-16.5137Q17.8711-16.0449 18.7012-15.2051L21.1328-12.793Q21.3086-12.6172 21.3525-12.4512Q21.3965-12.2852 21.3379-12.0312L21.0156-10.5469L22.5195-9.0625L23.5059-9.12109Q23.6914-9.13086 23.7891-9.09668Q23.8867-9.0625 24.0332-8.91602L24.6094-8.33984L22.168-5.89844L21.5918-6.47461Q21.4453-6.62109 21.4062-6.71875Q21.3672-6.81641 21.377-7.01172L21.4453-7.98828L19.9512-9.47266L18.4277-9.21875Q18.1836-9.16992 18.042-9.2041Q17.9004-9.23828 17.7148-9.41406L15.7129-11.416Q15.5176-11.5918 15.4932-11.7529Q15.4688-11.9141 15.5859-12.1875L16.4648-14.2773Q15.293-15.3711 13.8281-15.791Q12.3633-16.2109 10.8398-15.7617Q10.7227-15.7324 10.6885-15.8057Q10.6543-15.8789 10.752-15.957Z"/>
  </g>
  <text style="stroke:none;fill:black;font-family:sans-serif;font-size:13;font-weight:bold;" transform="matrix(1 0 0 1 1289 1953)">Exporting</text>
  <text style="stroke:none;fill:black;font-family:sans-serif;font-size:13;" transform="matrix(1 0 0 1 1289 1971)">Symbols should be outlined when exporting to ensure the</text>
  <text style="stroke:none;fill:black;font-family:sans-serif;font-size:13;" transform="matrix(1 0 0 1 1289 1989)">design is preserved when submitting to Xcode.</text>
  <text id="template-version" style="stroke:none;fill:black;font-family:sans-serif;font-size:13;text-anchor:end;" transform="matrix(1 0 0 1 3036 1933)">Template v.3.0</text>
  <text style="stroke:none;fill:black;font-family:sans-serif;font-size:13;text-anchor:end;" transform="matrix(1 0 0 1 3036 1951)">Requires Xcode 13 or greater</text>
  <text id="descriptive-name" style="stroke:none;fill:black;font-family:sans-serif;font-size:13;text-anchor:end;" transform="matrix(1 0 0 1 3036 1969)">Generated from backward.end.fill</text>
  <text style="stroke:none;fill:black;font-family:sans-serif;font-size:13;text-anchor:end;" transform="matrix(1 0 0 1 3036 1987)">Typeset at 100 points</text>
  <text style="stroke:none;fill:black;font-family:sans-serif;font-size:13;" transform="matrix(1 0 0 1 263 726)">Small</text>
  <text style="stroke:none;fill:black;font-family:sans-serif;font-size:13;" transform="matrix(1 0 0 1 263 1156)">Medium</text>
  <text style="stroke:none;fill:black;font-family:sans-serif;font-size:13;" transform="matrix(1 0 0 1 263 1586)">Large</text>
 </g>
 <g id="Guides">
  <g id="H-reference" style="fill:#27AAE1;stroke:none;" transform="matrix(1 0 0 1 339 696)">
   <path d="M0.976562 0L3.66211 0L29.3457-67.1387L30.0293-67.1387L30.0293-70.459L28.125-70.459ZM11.6699-24.4629L46.9727-24.4629L46.2402-26.709L12.4512-26.709ZM55.127 0L57.7637 0L30.6152-70.459L29.4434-70.459L29.4434-67.1387Z"/>
  </g>
  <line id="Baseline-S" style="fill:none;stroke:#27AAE1;opacity:1;stroke-width:0.5;" x1="263" x2="3036" y1="696" y2="696"/>
  <line id="Capline-S" style="fill:none;stroke:#27AAE1;opacity:1;stroke-width:0.5;" x1="263" x2="3036" y1="625.541" y2="625.541"/>
  <g id="H-reference" style="fill:#27AAE1;stroke:none;" transform="matrix(1 0 0 1 339 1126)">
   <path d="M0.976562 0L3.66211 0L29.3457-67.1387L30.0293-67.1387L30.0293-70.459L28.125-70.459ZM11.6699-24.4629L46.9727-24.4629L46.2402-26.709L12.4512-26.709ZM55.127 0L57.7637 0L30.6152-70.459L29.4434-70.459L29.4434-67.1387Z"/>
  </g>
  <line id="Baseline-M" style="fill:none;stroke:#27AAE1;opacity:1;stroke-width:0.5;" x1="263" x2="3036" y1="1126" y2="1126"/>
  <line id="Capline-M" style="fill:none;stroke:#27AAE1;opacity:1;stroke-width:0.5;" x1="263" x2="3036" y1="1055.54" y2="1055.54"/>
  <g id="H-reference" style="fill:#27AAE1;stroke:none;" transform="matrix(1 0 0 1 339 1556)">
   <path d="M0.976562 0L3.66211 0L29.3457-67.1387L30.0293-67.1387L30.0293-70.459L28.125-70.459ZM11.6699-24.4629L46.9727-24.4629L46.2402-26.709L12.4512-26.709ZM55.127 0L57.7637 0L30.6152-70.459L29.4434-70.459L29.4434-67.1387Z"/>
  </g>
  <line id="Baseline-L" style="fill:none;stroke:#27AAE1;opacity:1;stroke-width:0.5;" x1="263" x2="3036" y1="1556" y2="1556"/>
  <line id="Capline-L" style="fill:none;stroke:#27AAE1;opacity:1;stroke-width:0.5;" x1="263" x2="3036" y1="1485.54" y2="1485.54"/>
  <line id="left-margin-Regular-M" style="fill:none;stroke:#00AEEF;stroke-width:0.5;opacity:1.0;" x1="1391.79" x2="1391.79" y1="1030.79" y2="1150.12"/>
  <line id="right-margin-Regular-M" style="fill:none;stroke:#00AEEF;stroke-width:0.5;opacity:1.0;" x1="1507.9" x2="1507.9" y1="1030.79" y2="1150.12"/>
 </g>
 <g id="Symbols">
  <g id="Black-L" transform="matrix(1 0 0 1 2848.61 1556)">
   <path d="M27.3438 20.752L43.6035 20.752Q49.2188 20.752 52.0508 17.9199Q54.8828 15.0879 54.8828 9.47266L54.8828-79.9316Q54.8828-85.4004 52.0508-88.208Q49.2188-91.0156 43.6035-91.2109L27.3438-91.2109Q21.7285-91.2109 18.8965-88.3789Q16.0645-85.5469 16.0645-79.9316L16.0645 9.47266Q15.918 15.0879 18.7744 17.9199Q21.6309 20.752 27.3438 20.752ZM139.746 19.4824Q145.361 19.4824 149.438 15.4541Q153.516 11.4258 153.516 4.15039L153.516-74.5605Q153.516-81.9336 149.487-85.9131Q145.459-89.8926 139.893-89.8926Q137.256-89.8926 134.814-89.2578Q132.373-88.623 129.834-87.1582L64.3066-48.877Q59.8633-46.2891 57.2021-43.1396Q54.541-39.9902 54.541-35.3516Q54.541-30.6641 57.2754-27.3438Q60.0098-24.0234 64.3066-21.5332L129.834 16.748Q132.324 18.1641 134.741 18.8232Q137.158 19.4824 139.746 19.4824Z"/>
  </g>
  <g id="Heavy-L" transform="matrix(1 0 0 1 2554.58 1556)">
   <path d="M26.5137 19.4824L42.2852 19.4824Q47.4609 19.4824 50.0977 16.8457Q52.7344 14.209 52.7344 9.0332L52.7344-79.4922Q52.7344-84.6191 50.0977-87.207Q47.4609-89.7949 42.2852-89.9414L26.5137-89.9414Q21.3379-89.9414 18.7012-87.3291Q16.0645-84.7168 16.0645-79.4922L16.0645 9.0332Q15.9668 14.209 18.6035 16.8457Q21.2402 19.4824 26.5137 19.4824ZM135.645 18.0176Q140.771 18.0176 144.458 14.3555Q148.145 10.6934 148.145 3.95508L148.145-74.4141Q148.145-81.2012 144.482-84.8389Q140.82-88.4766 135.791-88.4766Q133.35-88.4766 131.104-87.8662Q128.857-87.2559 126.514-85.8887L61.1816-47.6562Q57.0801-45.2637 54.7363-42.3584Q52.3926-39.4531 52.3926-35.3516Q52.3926-31.1523 54.8096-28.125Q57.2266-25.0977 61.1816-22.7539L126.514 15.4297Q128.809 16.748 131.03 17.3828Q133.252 18.0176 135.645 18.0176Z"/>
  </g>
  <g id="Bold-L" transform="matrix(1 0 0 1 2260.85 1556)">
   <path d="M25.6348 18.0664L40.7715 18.0664Q45.5566 18.0664 47.9492 15.6738Q50.3418 13.2812 50.3418 8.49609L50.3418-79.0039Q50.3418-83.7402 47.9492-86.084Q45.5566-88.4277 40.7715-88.5254L25.6348-88.5254Q20.8496-88.5254 18.457-86.1328Q16.0645-83.7402 16.0645-79.0039L16.0645 8.49609Q16.0156 13.2812 18.4082 15.6738Q20.8008 18.0664 25.6348 18.0664ZM131.104 16.4551Q135.596 16.4551 138.892 13.1592Q142.188 9.86328 142.188 3.71094L142.188-74.2188Q142.188-80.4199 138.916-83.667Q135.645-86.9141 131.152-86.9141Q128.955-86.9141 126.929-86.3037Q124.902-85.6934 122.754-84.4727L57.7148-46.3379Q54.0039-44.1406 52.002-41.5283Q50-38.916 50-35.3516Q50-31.7383 52.0508-29.0283Q54.1016-26.3184 57.7148-24.1699L122.754 13.9648Q124.854 15.1855 126.88 15.8203Q128.906 16.4551 131.104 16.4551Z"/>
  </g>
  <g id="Semibold-L" transform="matrix(1 0 0 1 1966.19 1556)">
   <path d="M25 17.041L39.7461 17.041Q44.1895 17.041 46.4111 14.8193Q48.6328 12.5977 48.6328 8.1543L48.6328-78.6133Q48.6328-83.1543 46.4111-85.3271Q44.1895-87.5 39.7461-87.5488L25-87.5488Q20.5078-87.5488 18.2861-85.3271Q16.0645-83.1055 16.0645-78.6133L16.0645 8.1543Q16.0156 12.5977 18.2617 14.8193Q20.5078 17.041 25 17.041ZM127.93 15.332Q132.031 15.332 135.059 12.3047Q138.086 9.27734 138.086 3.56445L138.086-74.0723Q138.086-79.834 135.083-82.8369Q132.08-85.8398 127.979-85.8398Q125.928-85.8398 124.048-85.2295Q122.168-84.6191 120.166-83.4473L55.3223-45.3613Q51.8555-43.3594 50.0732-40.918Q48.291-38.4766 48.291-35.3027Q48.291-32.0801 50.1221-29.5898Q51.9531-27.0996 55.3223-25.1465L120.166 12.9395Q122.119 14.1113 123.999 14.7217Q125.879 15.332 127.93 15.332Z"/>
  </g>
  <g id="Medium-L" transform="matrix(1 0 0 1 1671.04 1556)">
   <path d="M24.5117 16.3086L38.9648 16.3086Q43.1641 16.3086 45.2881 14.1846Q47.4121 12.0605 47.4121 7.86133L47.4121-78.3691Q47.4121-82.666 45.2881-84.7168Q43.1641-86.7676 38.9648-86.8164L24.5117-86.8164Q20.2637-86.8164 18.1641-84.6924Q16.0645-82.5684 16.0645-78.3691L16.0645 7.86133Q16.0156 12.0605 18.1396 14.1846Q20.2637 16.3086 24.5117 16.3086ZM125.537 14.4531Q129.346 14.4531 132.153 11.6455Q134.961 8.83789 134.961 3.41797L134.961-74.0234Q134.961-79.3945 132.153-82.2021Q129.346-85.0098 125.537-85.0098Q123.633-85.0098 121.875-84.4238Q120.117-83.8379 118.213-82.7148L53.5156-44.6777Q50.2441-42.7734 48.6572-40.4785Q47.0703-38.1836 47.0703-35.3027Q47.0703-32.373 48.7061-30.0537Q50.3418-27.7344 53.5156-25.8789L118.213 12.207Q120.068 13.2812 121.851 13.8672Q123.633 14.4531 125.537 14.4531Z"/>
  </g>
  <g id="Regular-L" transform="matrix(1 0 0 1 1376.38 1556)">
   <path d="M23.877 15.332L37.9395 15.332Q41.8457 15.332 43.7988 13.3789Q45.752 11.4258 45.752 7.51953L45.752-78.0273Q45.752-82.0801 43.7988-83.96Q41.8457-85.8398 37.9395-85.8398L23.877-85.8398Q19.9707-85.8398 18.0176-83.8867Q16.0645-81.9336 16.0645-78.0273L16.0645 7.51953Q16.0645 11.4258 18.0176 13.3789Q19.9707 15.332 23.877 15.332ZM122.412 13.3789Q125.83 13.3789 128.345 10.8154Q130.859 8.25195 130.859 3.27148L130.859-73.877Q130.859-78.8574 128.345-81.3965Q125.83-83.9355 122.412-83.9355Q120.654-83.9355 119.043-83.3496Q117.432-82.7637 115.674-81.7383L51.123-43.75Q48.1445-41.9922 46.7773-39.8926Q45.4102-37.793 45.4102-35.3027Q45.4102-32.7637 46.8018-30.6641Q48.1934-28.5645 51.123-26.8066L115.674 11.1816Q117.383 12.207 119.019 12.793Q120.654 13.3789 122.412 13.3789Z"/>
  </g>
  <g id="Light-L" transform="matrix(1 0 0 1 1081.65 1556)">
   <path d="M23.0469 14.3555L36.7676 14.3555Q40.3809 14.3555 42.0898 12.6221Q43.7988 10.8887 43.7988 7.32422L43.7988-77.8809Q43.7988-81.543 42.0898-83.2031Q40.3809-84.8633 36.7676-84.8633L23.0469-84.8633Q19.4824-84.8633 17.7734-83.1543Q16.0645-81.4453 16.0645-77.8809L16.0645 7.32422Q16.0645 10.8887 17.7734 12.6221Q19.4824 14.3555 23.0469 14.3555ZM119.336 12.207Q122.314 12.207 124.609 9.93652Q126.904 7.66602 126.904 3.125L126.904-73.7305Q126.904-78.2715 124.609-80.5176Q122.314-82.7637 119.336-82.7637Q117.773-82.7637 116.26-82.2021Q114.746-81.6406 113.232-80.7617L48.2422-42.5293Q45.8008-41.1133 44.6289-39.3311Q43.457-37.5488 43.457-35.3027Q43.457-33.0566 44.6533-31.25Q45.8496-29.4434 48.2422-28.0273L113.232 10.2051Q114.697 11.084 116.235 11.6455Q117.773 12.207 119.336 12.207Z"/>
  </g>
  <g id="Thin-L" transform="matrix(1 0 0 1 787.55 1556)">
   <path d="M21.9727 12.9883L35.2539 12.9883Q38.3789 12.9883 39.7949 11.6211Q41.2109 10.2539 41.2109 7.08008L41.2109-77.6367Q41.2109-80.7617 39.7949-82.1533Q38.3789-83.5449 35.2539-83.5449L21.9727-83.5449Q18.8477-83.5449 17.4561-82.1533Q16.0645-80.7617 16.0645-77.6367L16.0645 7.08008Q16.0645 10.2539 17.4561 11.6211Q18.8477 12.9883 21.9727 12.9883ZM115.234 10.6934Q117.725 10.6934 119.702 8.81348Q121.68 6.93359 121.68 2.88086L121.68-73.5352Q121.68-77.5391 119.702-79.3945Q117.725-81.25 115.234-81.25Q113.916-81.25 112.573-80.7129Q111.23-80.1758 110.059-79.541L44.3848-40.918Q42.7246-39.9414 41.7969-38.5742Q40.8691-37.207 40.8691-35.3516Q40.8691-33.4473 41.8213-32.0312Q42.7734-30.6152 44.3848-29.6875L110.059 8.88672Q111.182 9.57031 112.549 10.1318Q113.916 10.6934 115.234 10.6934Z"/>
  </g>
  <g id="Ultralight-L" transform="matrix(1 0 0 1 492.182 1556)">
   <path d="M21.4355 12.3535L34.4727 12.3535Q37.4023 12.3535 38.6475 11.1084Q39.8926 9.86328 39.8926 6.98242L39.8926-77.5391Q39.8926-80.4199 38.6475-81.665Q37.4023-82.9102 34.4727-82.9102L21.4355-82.9102Q18.5059-82.9102 17.2852-81.665Q16.0645-80.4199 16.0645-77.5391L16.0645 6.98242Q16.0645 9.86328 17.2852 11.1084Q18.5059 12.3535 21.4355 12.3535ZM113.135 9.86328Q115.332 9.86328 117.163 8.20312Q118.994 6.54297 118.994 2.7832L118.994-73.4375Q118.994-77.1484 117.163-78.8086Q115.332-80.4688 113.135-80.4688Q111.963-80.4688 110.669-79.9316Q109.375-79.3945 108.398-78.8574L42.4316-40.1367Q41.1621-39.3066 40.3564-38.1836Q39.5508-37.0605 39.5508-35.3516Q39.5508-33.6426 40.3809-32.4463Q41.2109-31.25 42.4316-30.5176L108.398 8.25195Q109.326 8.78906 110.645 9.32617Q111.963 9.86328 113.135 9.86328Z"/>
  </g>
  <g id="Black-M" transform="matrix(1 0 0 1 2866.07 1126)">
   <path d="M21.6309 8.88672L34.5703 8.88672Q39.1113 8.88672 41.4062 6.5918Q43.7012 4.29688 43.7012-0.244141L43.7012-70.2148Q43.7012-74.6094 41.4062-76.9043Q39.1113-79.1992 34.5703-79.3457L21.6309-79.3457Q17.041-79.3457 14.7461-77.0508Q12.4512-74.7559 12.4512-70.2148L12.4512-0.244141Q12.3535 4.29688 14.624 6.5918Q16.8945 8.88672 21.6309 8.88672ZM110.791 8.00781Q115.43 8.00781 118.823 4.6875Q122.217 1.36719 122.217-4.58984L122.217-65.8203Q122.217-71.8262 118.872-75.1221Q115.527-78.418 110.889-78.418Q108.74-78.418 106.714-77.9053Q104.688-77.3926 102.686-76.2207L51.5137-46.4355Q47.998-44.3848 45.7275-41.8213Q43.457-39.2578 43.457-35.3027Q43.457-31.3477 45.7764-28.6377Q48.0957-25.9277 51.5137-23.9746L102.686 5.81055Q104.639 6.98242 106.641 7.49512Q108.643 8.00781 110.791 8.00781Z"/>
  </g>
  <g id="Heavy-M" transform="matrix(1 0 0 1 2571.55 1126)">
   <path d="M20.9961 7.86133L33.4961 7.86133Q37.7441 7.86133 39.8926 5.71289Q42.041 3.56445 42.041-0.634766L42.041-69.8242Q42.041-73.9746 39.8926-76.0986Q37.7441-78.2227 33.4961-78.3203L20.9961-78.3203Q16.748-78.3203 14.5996-76.1719Q12.4512-74.0234 12.4512-69.8242L12.4512-0.634766Q12.3535 3.56445 14.4775 5.71289Q16.6016 7.86133 20.9961 7.86133ZM107.471 6.83594Q111.67 6.83594 114.746 3.80859Q117.822 0.78125 117.822-4.73633L117.822-65.6738Q117.822-71.2402 114.795-74.2676Q111.768-77.2949 107.52-77.2949Q105.518-77.2949 103.662-76.7822Q101.807-76.2695 99.9512-75.1953L49.0723-45.5078Q45.8008-43.5547 43.7988-41.1865Q41.7969-38.8184 41.7969-35.3027Q41.7969-31.7871 43.8232-29.2725Q45.8496-26.7578 49.0723-24.9023L99.9512 4.73633Q101.758 5.85938 103.613 6.34766Q105.469 6.83594 107.471 6.83594Z"/>
  </g>
  <g id="Bold-M" transform="matrix(1 0 0 1 2277.28 1126)">
   <path d="M20.3125 6.73828L32.3242 6.73828Q36.1816 6.73828 38.1592 4.76074Q40.1367 2.7832 40.1367-1.12305L40.1367-69.3848Q40.1367-73.2422 38.1592-75.1709Q36.1816-77.0996 32.3242-77.1973L20.3125-77.1973Q16.4062-77.1973 14.4287-75.2197Q12.4512-73.2422 12.4512-69.3848L12.4512-1.12305Q12.4023 2.7832 14.3555 4.76074Q16.3086 6.73828 20.3125 6.73828ZM103.711 5.56641Q107.471 5.56641 110.205 2.83203Q112.939 0.0976562 112.939-4.93164L112.939-65.5273Q112.939-70.6055 110.229-73.3154Q107.52-76.0254 103.76-76.0254Q101.953-76.0254 100.293-75.5371Q98.6328-75.0488 96.875-74.0234L46.3867-44.4824Q43.3594-42.6758 41.626-40.5029Q39.8926-38.3301 39.8926-35.3027Q39.8926-32.2754 41.6504-30.0049Q43.4082-27.7344 46.3867-25.9766L96.875 3.56445Q98.584 4.58984 100.244 5.07812Q101.904 5.56641 103.711 5.56641Z"/>
  </g>
  <g id="Semibold-M" transform="matrix(1 0 0 1 1982.26 1126)">
   <path d="M19.7754 5.9082L31.4941 5.9082Q35.1074 5.9082 36.9629 4.05273Q38.8184 2.19727 38.8184-1.46484L38.8184-69.043Q38.8184-72.7051 36.9629-74.5117Q35.1074-76.3184 31.4941-76.3672L19.7754-76.3672Q16.1621-76.3672 14.3066-74.5117Q12.4512-72.6562 12.4512-69.043L12.4512-1.46484Q12.4023 2.19727 14.2578 4.05273Q16.1133 5.9082 19.7754 5.9082ZM101.123 4.63867Q104.59 4.63867 107.08 2.14844Q109.57-0.341797 109.57-5.07812L109.57-65.4297Q109.57-70.1172 107.08-72.6318Q104.59-75.1465 101.172-75.1465Q99.4629-75.1465 97.9248-74.6826Q96.3867-74.2188 94.7266-73.2422L44.5312-43.75Q41.6504-42.041 40.1123-39.9902Q38.5742-37.9395 38.5742-35.2539Q38.5742-32.5684 40.1123-30.4688Q41.6504-28.3691 44.5312-26.709L94.7266 2.73438Q96.3867 3.66211 97.9248 4.15039Q99.4629 4.63867 101.123 4.63867Z"/>
  </g>
  <g id="Medium-M" transform="matrix(1 0 0 1 1686.84 1126)">
   <path d="M19.4336 5.32227L30.9082 5.32227Q34.3262 5.32227 36.084 3.54004Q37.8418 1.75781 37.8418-1.70898L37.8418-68.7988Q37.8418-72.3145 36.084-74.0234Q34.3262-75.7324 30.9082-75.7812L19.4336-75.7812Q15.9668-75.7812 14.209-73.999Q12.4512-72.2168 12.4512-68.7988L12.4512-1.70898Q12.4512 1.75781 14.1846 3.54004Q15.918 5.32227 19.4336 5.32227ZM99.1699 3.95508Q102.393 3.95508 104.688 1.61133Q106.982-0.732422 106.982-5.12695L106.982-65.332Q106.982-69.7754 104.688-72.1436Q102.393-74.5117 99.2188-74.5117Q97.6074-74.5117 96.167-74.0234Q94.7266-73.5352 93.1152-72.6074L43.1152-43.2129Q40.332-41.6016 38.9648-39.6484Q37.5977-37.6953 37.5977-35.2539Q37.5977-32.8125 38.9893-30.8594Q40.3809-28.9062 43.1152-27.2461L93.1152 2.09961Q94.7266 3.02734 96.167 3.49121Q97.6074 3.95508 99.1699 3.95508Z"/>
  </g>
  <g id="Regular-M" transform="matrix(1 0 0 1 1391.79 1126)">
   <path d="M18.9453 4.54102L30.0781 4.54102Q33.252 4.54102 34.9121 2.88086Q36.5723 1.2207 36.5723-2.00195L36.5723-68.5059Q36.5723-71.8262 34.9121-73.4131Q33.252-75 30.0781-75L18.9453-75Q15.7227-75 14.0869-73.3398Q12.4512-71.6797 12.4512-68.5059L12.4512-2.00195Q12.4512 1.2207 14.0869 2.88086Q15.7227 4.54102 18.9453 4.54102ZM96.6309 3.07617Q99.5117 3.07617 101.587 0.952148Q103.662-1.17188 103.662-5.27344L103.662-65.2344Q103.662-69.3359 101.587-71.4844Q99.5117-73.6328 96.6309-73.6328Q95.166-73.6328 93.8477-73.1689Q92.5293-72.7051 91.0156-71.8262L41.2598-42.5293Q38.6719-40.9668 37.5-39.1602Q36.3281-37.3535 36.3281-35.2539Q36.3281-33.1543 37.5-31.3477Q38.6719-29.541 41.2598-27.9785L91.0156 1.26953Q92.5293 2.14844 93.8477 2.6123Q95.166 3.07617 96.6309 3.07617Z"/>
  </g>
  <g id="Light-M" transform="matrix(1 0 0 1 1096.86 1126)">
   <path d="M18.2129 3.61328L29.0527 3.61328Q31.9336 3.61328 33.374 2.17285Q34.8145 0.732422 34.8145-2.14844L34.8145-68.3594Q34.8145-71.3379 33.374-72.7295Q31.9336-74.1211 29.0527-74.1211L18.2129-74.1211Q15.2832-74.1211 13.8672-72.6807Q12.4512-71.2402 12.4512-68.3594L12.4512-2.14844Q12.4512 0.732422 13.8672 2.17285Q15.2832 3.61328 18.2129 3.61328ZM93.8477 2.05078Q96.3867 2.05078 98.2422 0.170898Q100.098-1.70898 100.098-5.41992L100.098-65.1367Q100.098-68.8477 98.2422-70.7275Q96.3867-72.6074 93.8477-72.6074Q92.5781-72.6074 91.3574-72.168Q90.1367-71.7285 88.8672-70.9473L38.6719-41.4551Q36.5723-40.1855 35.5713-38.6719Q34.5703-37.1582 34.5703-35.3027Q34.5703-33.3984 35.5713-31.8848Q36.5723-30.3711 38.6719-29.1016L88.8672 0.390625Q90.0879 1.12305 91.333 1.58691Q92.5781 2.05078 93.8477 2.05078Z"/>
  </g>
  <g id="Thin-M" transform="matrix(1 0 0 1 802.467 1126)">
   <path d="M17.2363 2.44141L27.6855 2.44141Q30.1758 2.44141 31.3232 1.29395Q32.4707 0.146484 32.4707-2.39258L32.4707-68.1641Q32.4707-70.7031 31.3232-71.8262Q30.1758-72.9492 27.6855-72.9492L17.2363-72.9492Q14.7461-72.9492 13.5986-71.8018Q12.4512-70.6543 12.4512-68.1641L12.4512-2.39258Q12.4512 0.146484 13.5986 1.29395Q14.7461 2.44141 17.2363 2.44141ZM90.1855 0.634766Q92.2363 0.634766 93.8477-0.878906Q95.459-2.39258 95.459-5.61523L95.459-64.9414Q95.459-68.1641 93.8477-69.7021Q92.2363-71.2402 90.1855-71.2402Q89.1113-71.2402 88.0371-70.8008Q86.9629-70.3613 85.9863-69.8242L35.2539-39.9902Q33.7891-39.1113 33.0078-37.9883Q32.2266-36.8652 32.2266-35.3027Q32.2266-33.7402 33.0322-32.5928Q33.8379-31.4453 35.2539-30.5664L85.9863-0.78125Q86.9141-0.195312 88.0127 0.219727Q89.1113 0.634766 90.1855 0.634766Z"/>
  </g>
  <g id="Ultralight-M" transform="matrix(1 0 0 1 506.977 1126)">
   <path d="M16.748 1.80664L27.002 1.80664Q29.2969 1.80664 30.2979 0.805664Q31.2988-0.195312 31.2988-2.49023L31.2988-68.0664Q31.2988-70.3613 30.2979-71.3623Q29.2969-72.3633 27.002-72.3633L16.748-72.3633Q14.4531-72.3633 13.4521-71.3623Q12.4512-70.3613 12.4512-68.0664L12.4512-2.49023Q12.4512-0.195312 13.4521 0.805664Q14.4531 1.80664 16.748 1.80664ZM88.3301-0.0488281Q90.0879-0.0488281 91.5527-1.41602Q93.0176-2.7832 93.0176-5.71289L93.0176-64.8926Q93.0176-67.8223 91.5527-69.1895Q90.0879-70.5566 88.3301-70.5566Q87.3535-70.5566 86.3525-70.1416Q85.3516-69.7266 84.5215-69.2383L33.4961-39.2578Q32.373-38.5742 31.7139-37.6465Q31.0547-36.7188 31.0547-35.3516Q31.0547-33.9355 31.7383-32.959Q32.4219-31.9824 33.4961-31.3477L84.5215-1.36719Q85.2539-0.878906 86.3037-0.463867Q87.3535-0.0488281 88.3301-0.0488281Z"/>
  </g>
  <g id="Black-S" transform="matrix(1 0 0 1 2880.08 696)">
   <path d="M17.0898-0.390625L27.3438-0.390625Q34.668-0.390625 34.668-7.71484L34.668-62.7441Q34.668-69.7754 27.3438-70.0684L17.0898-70.0684Q9.76562-70.0684 9.76562-62.7441L9.76562-7.71484Q9.57031-0.390625 17.0898-0.390625ZM87.6465-1.07422Q91.4062-1.07422 94.1406-3.73535Q96.875-6.39648 96.875-11.1816L96.875-59.2285Q96.875-64.0625 94.1895-66.6992Q91.5039-69.3359 87.7441-69.3359Q86.0352-69.3359 84.3994-68.9453Q82.7637-68.5547 81.1523-67.627L40.9668-44.2383Q38.1348-42.5781 36.3037-40.5518Q34.4727-38.5254 34.4727-35.3027Q34.4727-32.0801 36.377-29.9072Q38.2812-27.7344 40.9668-26.1719L81.1523-2.7832Q82.7148-1.85547 84.3506-1.46484Q85.9863-1.07422 87.6465-1.07422Z"/>
  </g>
  <g id="Heavy-S" transform="matrix(1 0 0 1 2585 696)">
   <path d="M16.6504-1.17188L26.5625-1.17188Q33.4473-1.17188 33.4473-8.05664L33.4473-62.4023Q33.4473-69.0918 26.5625-69.2871L16.6504-69.2871Q9.76562-69.2871 9.76562-62.4023L9.76562-8.05664Q9.61914-1.17188 16.6504-1.17188ZM85.1562-1.9043Q88.5742-1.9043 91.0889-4.37012Q93.6035-6.83594 93.6035-11.2793L93.6035-59.1309Q93.6035-63.623 91.1377-66.0645Q88.6719-68.5059 85.2051-68.5059Q83.6426-68.5059 82.1289-68.1152Q80.6152-67.7246 79.1016-66.8457L39.209-43.6035Q36.5234-41.9922 34.8877-40.0879Q33.252-38.1836 33.252-35.3027Q33.252-32.4219 34.9365-30.3955Q36.6211-28.3691 39.209-26.8555L79.1016-3.61328Q80.5664-2.68555 82.0801-2.29492Q83.5938-1.9043 85.1562-1.9043Z"/>
  </g>
  <g id="Bold-S" transform="matrix(1 0 0 1 2290.12 696)">
   <path d="M16.1621-2.05078L25.7324-2.05078Q32.0801-2.05078 32.0801-8.44727L32.0801-62.0605Q32.0801-68.3105 25.7324-68.457L16.1621-68.457Q9.76562-68.457 9.76562-62.0605L9.76562-8.44727Q9.66797-2.05078 16.1621-2.05078ZM82.373-2.88086Q85.4492-2.88086 87.6953-5.12695Q89.9414-7.37305 89.9414-11.4258L89.9414-59.0332Q89.9414-63.1348 87.7197-65.3564Q85.498-67.5781 82.4219-67.5781Q80.957-67.5781 79.5898-67.2119Q78.2227-66.8457 76.7578-65.9668L37.3047-42.8711Q34.7168-41.3574 33.3008-39.5752Q31.8848-37.793 31.8848-35.3027Q31.8848-32.8125 33.3496-30.9326Q34.8145-29.0527 37.3047-27.6367L76.7578-4.49219Q78.1738-3.66211 79.541-3.27148Q80.9082-2.88086 82.373-2.88086Z"/>
  </g>
  <g id="Semibold-S" transform="matrix(1 0 0 1 1994.68 696)">
   <path d="M15.8203-2.63672L25.0977-2.63672Q31.1523-2.63672 31.1523-8.69141L31.1523-61.8164Q31.1523-67.7246 25.0977-67.8223L15.8203-67.8223Q9.76562-67.8223 9.76562-61.8164L9.76562-8.69141Q9.7168-2.63672 15.8203-2.63672ZM80.4199-3.51562Q83.3008-3.51562 85.3516-5.61523Q87.4023-7.71484 87.4023-11.5234L87.4023-58.9844Q87.4023-62.793 85.3516-64.8682Q83.3008-66.9434 80.4688-66.9434Q79.0527-66.9434 77.7832-66.5771Q76.5137-66.2109 75.1465-65.3809L35.9375-42.3828Q33.4961-40.918 32.2266-39.209Q30.957-37.5 30.957-35.2539Q30.957-33.0566 32.2266-31.2988Q33.4961-29.541 35.9375-28.125L75.1465-5.12695Q76.5137-4.29688 77.7832-3.90625Q79.0527-3.51562 80.4199-3.51562Z"/>
  </g>
  <g id="Medium-S" transform="matrix(1 0 0 1 1698.95 696)">
   <path d="M15.5762-3.07617L24.6582-3.07617Q30.4199-3.07617 30.4199-8.88672L30.4199-61.6211Q30.4199-67.334 24.6582-67.3828L15.5762-67.3828Q9.76562-67.3828 9.76562-61.6211L9.76562-8.88672Q9.7168-3.07617 15.5762-3.07617ZM78.9551-4.05273Q81.6406-4.05273 83.5449-6.00586Q85.4492-7.95898 85.4492-11.5723L85.4492-58.8867Q85.4492-62.5488 83.5449-64.502Q81.6406-66.4551 78.9551-66.4551Q77.6855-66.4551 76.4893-66.0889Q75.293-65.7227 73.9258-64.8926L34.9121-41.9922Q32.5195-40.5762 31.3721-38.9404Q30.2246-37.3047 30.2246-35.2539Q30.2246-33.252 31.3965-31.5674Q32.5684-29.8828 34.9121-28.5156L73.9258-5.56641Q75.2441-4.78516 76.4404-4.41895Q77.6367-4.05273 78.9551-4.05273Z"/>
  </g>
  <g id="Regular-S" transform="matrix(1 0 0 1 1403.48 696)">
   <path d="M15.2344-3.66211L24.0723-3.66211Q29.4922-3.66211 29.4922-9.13086L29.4922-61.377Q29.4922-66.7969 24.0723-66.7969L15.2344-66.7969Q9.76562-66.7969 9.76562-61.377L9.76562-9.13086Q9.76562-3.66211 15.2344-3.66211ZM77.0508-4.6875Q79.4922-4.6875 81.2256-6.49414Q82.959-8.30078 82.959-11.6699L82.959-58.8379Q82.959-62.207 81.2256-64.0137Q79.4922-65.8203 77.0508-65.8203Q75.8301-65.8203 74.7314-65.4541Q73.6328-65.0879 72.3633-64.3066L33.5938-41.5039Q31.2988-40.1367 30.2979-38.5742Q29.2969-37.0117 29.2969-35.2539Q29.2969-33.4961 30.2979-31.9336Q31.2988-30.3711 33.5938-29.0527L72.3633-6.20117Q73.6328-5.41992 74.7314-5.05371Q75.8301-4.6875 77.0508-4.6875Z"/>
  </g>
  <g id="Light-S" transform="matrix(1 0 0 1 1108.33 696)">
   <path d="M14.5996-4.44336L23.1445-4.44336Q27.9297-4.44336 27.9297-9.27734L27.9297-61.2305Q27.9297-66.0156 23.1445-66.0156L14.5996-66.0156Q9.76562-66.0156 9.76562-61.2305L9.76562-9.27734Q9.76562-4.44336 14.5996-4.44336ZM74.6094-5.61523Q76.709-5.61523 78.2715-7.20215Q79.834-8.78906 79.834-11.8164L79.834-58.7402Q79.834-61.7676 78.2715-63.3301Q76.709-64.8926 74.6094-64.8926Q73.5352-64.8926 72.5342-64.5508Q71.5332-64.209 70.459-63.5742L31.2988-40.5273Q29.4434-39.4043 28.5889-38.1104Q27.7344-36.8164 27.7344-35.2539Q27.7344-33.7402 28.5889-32.4219Q29.4434-31.1035 31.2988-30.0293L70.459-6.98242Q71.5332-6.34766 72.5342-5.98145Q73.5352-5.61523 74.6094-5.61523Z"/>
  </g>
  <g id="Thin-S" transform="matrix(1 0 0 1 813.722 696)">
   <path d="M13.7207-5.46875L21.9727-5.46875Q25.9277-5.46875 25.9277-9.42383L25.9277-61.084Q25.9277-64.9902 21.9727-64.9902L13.7207-64.9902Q9.76562-64.9902 9.76562-61.084L9.76562-9.42383Q9.76562-5.46875 13.7207-5.46875ZM71.3379-6.83594Q73.0469-6.83594 74.3408-8.10547Q75.6348-9.375 75.6348-11.9629L75.6348-58.5449Q75.6348-61.1328 74.3408-62.4268Q73.0469-63.7207 71.3379-63.7207Q70.5078-63.7207 69.6045-63.3789Q68.7012-63.0371 67.9199-62.5488L28.2715-39.2578Q27.002-38.4766 26.3672-37.5244Q25.7324-36.5723 25.7324-35.3027Q25.7324-34.0332 26.3672-33.0566Q27.002-32.0801 28.2715-31.2988L67.9199-8.00781Q68.7012-7.51953 69.6045-7.17773Q70.5078-6.83594 71.3379-6.83594Z"/>
  </g>
  <g id="Ultralight-S" transform="matrix(1 0 0 1 518.061 696)">
   <path d="M13.2812-6.00586L21.3379-6.00586Q24.8535-6.00586 24.8535-9.52148L24.8535-60.9863Q24.8535-64.502 21.3379-64.502L13.2812-64.502Q9.76562-64.502 9.76562-60.9863L9.76562-9.52148Q9.76562-6.00586 13.2812-6.00586ZM69.6777-7.4707Q71.1914-7.4707 72.3633-8.59375Q73.5352-9.7168 73.5352-12.0605L73.5352-58.4961Q73.5352-60.8398 72.3633-61.9629Q71.1914-63.0859 69.6777-63.0859Q68.9453-63.0859 68.1152-62.7441Q67.2852-62.4023 66.6016-62.0605L26.7578-38.5742Q25.7812-37.9883 25.2197-37.207Q24.6582-36.4258 24.6582-35.3027Q24.6582-34.1797 25.2197-33.374Q25.7812-32.5684 26.7578-31.9824L66.6016-8.49609Q67.2852-8.1543 68.1152-7.8125Q68.9453-7.4707 69.6777-7.4707Z"/>
  </g>
 </g>
</svg>
