<?xml version="1.0" encoding="UTF-8"?>
<!--Generator: Apple Native CoreSVG 149-->
<!DOCTYPE svg
PUBLIC "-//W3C//DTD SVG 1.1//EN"
       "http://www.w3.org/Graphics/SVG/1.1/DTD/svg11.dtd">
<svg version="1.1" xmlns="http://www.w3.org/2000/svg" xmlns:xlink="http://www.w3.org/1999/xlink" width="3300" height="2200">
 <!--glyph: "uni100394.medium", point size: 100.000000, font version: "Version 16.0d18e1", template writer version: "8"-->
 <g id="Notes">
  <rect height="2200" id="artboard" style="fill:white;opacity:1" width="3300" x="0" y="0"/>
  <line id="" style="fill:none;stroke:black;opacity:1;stroke-width:0.5;" x1="263" x2="3036" y1="292" y2="292"/>
  <text style="stroke:none;fill:black;font-family:-apple-system,&quot;SF Pro Display&quot;,&quot;SF Pro Text&quot;,Helvetica,sans-serif;font-weight:bold;" transform="matrix(1 0 0 1 263 322)">Weight/Scale Variations</text>
  <text style="stroke:none;fill:black;font-family:-apple-system,&quot;SF Pro Display&quot;,&quot;SF Pro Text&quot;,Helvetica,sans-serif;text-anchor:middle;" transform="matrix(1 0 0 1 559.711 322)">Ultralight</text>
  <text style="stroke:none;fill:black;font-family:-apple-system,&quot;SF Pro Display&quot;,&quot;SF Pro Text&quot;,Helvetica,sans-serif;text-anchor:middle;" transform="matrix(1 0 0 1 856.422 322)">Thin</text>
  <text style="stroke:none;fill:black;font-family:-apple-system,&quot;SF Pro Display&quot;,&quot;SF Pro Text&quot;,Helvetica,sans-serif;text-anchor:middle;" transform="matrix(1 0 0 1 1153.13 322)">Light</text>
  <text style="stroke:none;fill:black;font-family:-apple-system,&quot;SF Pro Display&quot;,&quot;SF Pro Text&quot;,Helvetica,sans-serif;text-anchor:middle;" transform="matrix(1 0 0 1 1449.84 322)">Regular</text>
  <text style="stroke:none;fill:black;font-family:-apple-system,&quot;SF Pro Display&quot;,&quot;SF Pro Text&quot;,Helvetica,sans-serif;text-anchor:middle;" transform="matrix(1 0 0 1 1746.56 322)">Medium</text>
  <text style="stroke:none;fill:black;font-family:-apple-system,&quot;SF Pro Display&quot;,&quot;SF Pro Text&quot;,Helvetica,sans-serif;text-anchor:middle;" transform="matrix(1 0 0 1 2043.27 322)">Semibold</text>
  <text style="stroke:none;fill:black;font-family:-apple-system,&quot;SF Pro Display&quot;,&quot;SF Pro Text&quot;,Helvetica,sans-serif;text-anchor:middle;" transform="matrix(1 0 0 1 2339.98 322)">Bold</text>
  <text style="stroke:none;fill:black;font-family:-apple-system,&quot;SF Pro Display&quot;,&quot;SF Pro Text&quot;,Helvetica,sans-serif;text-anchor:middle;" transform="matrix(1 0 0 1 2636.69 322)">Heavy</text>
  <text style="stroke:none;fill:black;font-family:-apple-system,&quot;SF Pro Display&quot;,&quot;SF Pro Text&quot;,Helvetica,sans-serif;text-anchor:middle;" transform="matrix(1 0 0 1 2933.4 322)">Black</text>
  <line id="" style="fill:none;stroke:black;opacity:1;stroke-width:0.5;" x1="263" x2="3036" y1="1903" y2="1903"/>
  <g id="" transform="matrix(1 0 0 1 263 1933)">
   <path d="M9.24805 0.830078C13.5547 0.830078 17.1387-2.74414 17.1387-7.05078C17.1387-11.3574 13.5449-14.9316 9.23828-14.9316C4.94141-14.9316 1.36719-11.3574 1.36719-7.05078C1.36719-2.74414 4.95117 0.830078 9.24805 0.830078ZM9.24805-0.654297C5.70312-0.654297 2.87109-3.49609 2.87109-7.05078C2.87109-10.6055 5.69336-13.4473 9.23828-13.4473C12.793-13.4473 15.6348-10.6055 15.6445-7.05078C15.6543-3.49609 12.8027-0.654297 9.24805-0.654297ZM6.39648-6.31836L8.50586-6.31836L8.50586-4.19922C8.50586-3.75977 8.79883-3.45703 9.22852-3.45703C9.67773-3.45703 9.9707-3.75977 9.9707-4.19922L9.9707-6.31836L12.0996-6.31836C12.5391-6.31836 12.8418-6.61133 12.8418-7.04102C12.8418-7.48047 12.5391-7.7832 12.0996-7.7832L9.9707-7.7832L9.9707-9.89258C9.9707-10.3418 9.67773-10.6445 9.22852-10.6445C8.79883-10.6445 8.50586-10.3418 8.50586-9.89258L8.50586-7.7832L6.39648-7.7832C5.94727-7.7832 5.64453-7.48047 5.64453-7.04102C5.64453-6.61133 5.94727-6.31836 6.39648-6.31836Z"/>
  </g>
  <g id="" transform="matrix(1 0 0 1 281.506 1933)">
   <path d="M11.709 2.91016C17.1582 2.91016 21.6699-1.61133 21.6699-7.05078C21.6699-12.5 17.1484-17.0117 11.6992-17.0117C6.25977-17.0117 1.74805-12.5 1.74805-7.05078C1.74805-1.61133 6.26953 2.91016 11.709 2.91016ZM11.709 1.25C7.09961 1.25 3.41797-2.44141 3.41797-7.05078C3.41797-11.6602 7.08984-15.3516 11.6992-15.3516C16.3086-15.3516 20-11.6602 20.0098-7.05078C20.0195-2.44141 16.3184 1.25 11.709 1.25ZM7.98828-6.23047L10.8789-6.23047L10.8789-3.32031C10.8789-2.83203 11.2109-2.5 11.6895-2.5C12.1777-2.5 12.5195-2.83203 12.5195-3.32031L12.5195-6.23047L15.4297-6.23047C15.918-6.23047 16.25-6.5625 16.25-7.04102C16.25-7.5293 15.918-7.87109 15.4297-7.87109L12.5195-7.87109L12.5195-10.7617C12.5195-11.2695 12.1777-11.6016 11.6895-11.6016C11.2109-11.6016 10.8789-11.2598 10.8789-10.7617L10.8789-7.87109L7.98828-7.87109C7.48047-7.87109 7.14844-7.5293 7.14844-7.04102C7.14844-6.5625 7.49023-6.23047 7.98828-6.23047Z"/>
  </g>
  <g id="" transform="matrix(1 0 0 1 304.924 1933)">
   <path d="M14.9707 5.66406C21.9336 5.66406 27.6953-0.0976562 27.6953-7.05078C27.6953-14.0137 21.9238-19.7754 14.9609-19.7754C8.00781-19.7754 2.25586-14.0137 2.25586-7.05078C2.25586-0.0976562 8.01758 5.66406 14.9707 5.66406ZM14.9707 3.84766C8.93555 3.84766 4.08203-1.01562 4.08203-7.05078C4.08203-13.0957 8.92578-17.9492 14.9609-17.9492C21.0059-17.9492 25.8594-13.0957 25.8691-7.05078C25.8789-1.01562 21.0156 3.84766 14.9707 3.84766ZM10.0586-6.14258L14.0625-6.14258L14.0625-2.12891C14.0625-1.5918 14.4336-1.2207 14.9512-1.2207C15.4883-1.2207 15.8594-1.5918 15.8594-2.12891L15.8594-6.14258L19.8828-6.14258C20.4102-6.14258 20.791-6.51367 20.791-7.03125C20.791-7.56836 20.4199-7.94922 19.8828-7.94922L15.8594-7.94922L15.8594-11.9531C15.8594-12.5098 15.4883-12.8809 14.9512-12.8809C14.4336-12.8809 14.0625-12.5 14.0625-11.9531L14.0625-7.94922L10.0586-7.94922C9.50195-7.94922 9.13086-7.56836 9.13086-7.03125C9.13086-6.51367 9.51172-6.14258 10.0586-6.14258Z"/>
  </g>
  <text style="stroke:none;fill:black;font-family:-apple-system,&quot;SF Pro Display&quot;,&quot;SF Pro Text&quot;,Helvetica,sans-serif;font-weight:bold;" transform="matrix(1 0 0 1 263 1953)">Design Variations</text>
  <text style="stroke:none;fill:black;font-family:-apple-system,&quot;SF Pro Display&quot;,&quot;SF Pro Text&quot;,Helvetica,sans-serif;" transform="matrix(1 0 0 1 263 1971)">Symbols are supported in up to nine weights and three scales.</text>
  <text style="stroke:none;fill:black;font-family:-apple-system,&quot;SF Pro Display&quot;,&quot;SF Pro Text&quot;,Helvetica,sans-serif;" transform="matrix(1 0 0 1 263 1989)">For optimal layout with text and other symbols, vertically align</text>
  <text style="stroke:none;fill:black;font-family:-apple-system,&quot;SF Pro Display&quot;,&quot;SF Pro Text&quot;,Helvetica,sans-serif;" transform="matrix(1 0 0 1 263 2007)">symbols with the adjacent text.</text>
  <line id="" style="fill:none;stroke:#00AEEF;stroke-width:0.5;opacity:1.0;" x1="776" x2="776" y1="1919" y2="1933"/>
  <g id="" transform="matrix(1 0 0 1 776 1933)">
   <path d="M3.31055 0.126953C3.82812 0.126953 4.08203-0.0683594 4.26758-0.605469L5.52734-4.0625L11.2891-4.0625L12.5488-0.605469C12.7344-0.0683594 12.9883 0.126953 13.4961 0.126953C14.0137 0.126953 14.3457-0.185547 14.3457-0.673828C14.3457-0.839844 14.3164-0.986328 14.2383-1.20117L9.6582-13.3887C9.43359-13.9941 9.0332-14.2871 8.4082-14.2871C7.80273-14.2871 7.39258-13.9941 7.17773-13.3984L2.59766-1.19141C2.51953-0.976562 2.49023-0.830078 2.49023-0.664062C2.49023-0.175781 2.80273 0.126953 3.31055 0.126953ZM6.00586-5.53711L8.37891-12.1094L8.42773-12.1094L10.8008-5.53711Z"/>
  </g>
  <line id="" style="fill:none;stroke:#00AEEF;stroke-width:0.5;opacity:1.0;" x1="792.836" x2="792.836" y1="1919" y2="1933"/>
  <text style="stroke:none;fill:black;font-family:-apple-system,&quot;SF Pro Display&quot;,&quot;SF Pro Text&quot;,Helvetica,sans-serif;font-weight:bold;" transform="matrix(1 0 0 1 776 1953)">Margins</text>
  <text style="stroke:none;fill:black;font-family:-apple-system,&quot;SF Pro Display&quot;,&quot;SF Pro Text&quot;,Helvetica,sans-serif;" transform="matrix(1 0 0 1 776 1971)">Leading and trailing margins on the left and right side of each symbol</text>
  <text style="stroke:none;fill:black;font-family:-apple-system,&quot;SF Pro Display&quot;,&quot;SF Pro Text&quot;,Helvetica,sans-serif;" transform="matrix(1 0 0 1 776 1989)">can be adjusted by modifying the x-location of the margin guidelines.</text>
  <text style="stroke:none;fill:black;font-family:-apple-system,&quot;SF Pro Display&quot;,&quot;SF Pro Text&quot;,Helvetica,sans-serif;" transform="matrix(1 0 0 1 776 2007)">Modifications are automatically applied proportionally to all</text>
  <text style="stroke:none;fill:black;font-family:-apple-system,&quot;SF Pro Display&quot;,&quot;SF Pro Text&quot;,Helvetica,sans-serif;" transform="matrix(1 0 0 1 776 2025)">scales and weights.</text>
  <g id="" transform="matrix(1 0 0 1 1289 1933)">
   <path d="M2.8418 1.86523L4.54102 3.57422C5.40039 4.44336 6.38672 4.38477 7.31445 3.35938L17.4902-7.85156C17.7539-7.76367 18.0273-7.7832 18.3398-7.8418L19.4043-8.03711L20.0684-7.36328L20.0293-6.80664C19.9902-6.30859 20.1172-5.92773 20.6055-5.44922L21.3672-4.70703C21.8457-4.22852 22.4609-4.19922 22.9297-4.66797L25.8398-7.58789C26.3086-8.05664 26.2891-8.65234 25.8105-9.13086L25.0391-9.89258C24.5605-10.3711 24.1895-10.5273 23.7109-10.4883L23.1348-10.4395L22.4902-11.0742L22.7344-12.1973C22.8613-12.7637 22.7051-13.2031 22.1191-13.7891L19.9219-15.9766C16.582-19.2969 12.1484-19.2188 9.25781-16.3281C8.83789-15.918 8.80859-15.3418 9.04297-14.9512C9.27734-14.5898 9.73633-14.3555 10.3809-14.5215C11.8457-14.8633 13.3691-14.9219 14.7949-13.9844L14.209-12.5293C14.0137-12.0508 13.9844-11.6504 14.1113-11.2891L3.04688-0.898438C2.06055 0.0195312 1.98242 0.996094 2.8418 1.86523ZM10.752-15.957C13.1836-17.7344 16.4746-17.4316 18.7012-15.2051L21.1328-12.793C21.3672-12.5586 21.4062-12.373 21.3379-12.0312L21.0156-10.5469L22.5195-9.0625L23.5059-9.12109C23.7598-9.13086 23.8379-9.11133 24.0332-8.91602L24.6094-8.33984L22.168-5.89844L21.5918-6.47461C21.3965-6.66992 21.3672-6.74805 21.377-7.01172L21.4453-7.98828L19.9512-9.47266L18.4277-9.21875C18.1055-9.15039 17.959-9.17969 17.7148-9.41406L15.7129-11.416C15.459-11.6504 15.4297-11.8164 15.5859-12.1875L16.4648-14.2773C14.9023-15.7324 12.8711-16.3574 10.8398-15.7617C10.6836-15.7227 10.625-15.8496 10.752-15.957ZM5.27344 2.30469L4.10156 1.14258C3.63281 0.683594 3.74023 0.341797 4.14062-0.0195312L14.9512-10.1953L16.416-8.71094L6.42578 2.27539C6.07422 2.67578 5.74219 2.77344 5.27344 2.30469Z"/>
  </g>
  <text style="stroke:none;fill:black;font-family:-apple-system,&quot;SF Pro Display&quot;,&quot;SF Pro Text&quot;,Helvetica,sans-serif;font-weight:bold;" transform="matrix(1 0 0 1 1289 1953)">Exporting</text>
  <text style="stroke:none;fill:black;font-family:-apple-system,&quot;SF Pro Display&quot;,&quot;SF Pro Text&quot;,Helvetica,sans-serif;" transform="matrix(1 0 0 1 1289 1971)">Symbols should be outlined when exporting to ensure the</text>
  <text style="stroke:none;fill:black;font-family:-apple-system,&quot;SF Pro Display&quot;,&quot;SF Pro Text&quot;,Helvetica,sans-serif;" transform="matrix(1 0 0 1 1289 1989)">design is preserved when submitting to Xcode.</text>
  <text id="template-version" style="stroke:none;fill:black;font-family:-apple-system,&quot;SF Pro Display&quot;,&quot;SF Pro Text&quot;,Helvetica,sans-serif;text-anchor:end;" transform="matrix(1 0 0 1 3036 1933)">Template v.2.0</text>
  <text style="stroke:none;fill:black;font-family:-apple-system,&quot;SF Pro Display&quot;,&quot;SF Pro Text&quot;,Helvetica,sans-serif;text-anchor:end;" transform="matrix(1 0 0 1 3036 1951)">Requires Xcode 12 or greater</text>
  <text style="stroke:none;fill:black;font-family:-apple-system,&quot;SF Pro Display&quot;,&quot;SF Pro Text&quot;,Helvetica,sans-serif;text-anchor:end;" transform="matrix(1 0 0 1 3036 1969)">Generated from bandage.fill</text>
  <text style="stroke:none;fill:black;font-family:-apple-system,&quot;SF Pro Display&quot;,&quot;SF Pro Text&quot;,Helvetica,sans-serif;text-anchor:end;" transform="matrix(1 0 0 1 3036 1987)">Typeset at 100 points</text>
  <text style="stroke:none;fill:black;font-family:-apple-system,&quot;SF Pro Display&quot;,&quot;SF Pro Text&quot;,Helvetica,sans-serif;" transform="matrix(1 0 0 1 263 726)">Small</text>
  <text style="stroke:none;fill:black;font-family:-apple-system,&quot;SF Pro Display&quot;,&quot;SF Pro Text&quot;,Helvetica,sans-serif;" transform="matrix(1 0 0 1 263 1156)">Medium</text>
  <text style="stroke:none;fill:black;font-family:-apple-system,&quot;SF Pro Display&quot;,&quot;SF Pro Text&quot;,Helvetica,sans-serif;" transform="matrix(1 0 0 1 263 1586)">Large</text>
 </g>
 <g id="Guides">
  <g id="H-reference" style="fill:#27AAE1;stroke:none;" transform="matrix(1 0 0 1 339 696)">
   <path d="M0.976562 0L3.66211 0L12.9883-24.4629L45.752-24.4629L55.127 0L57.7637 0L30.6152-70.459L28.125-70.459ZM29.3457-67.1387L29.4434-67.1387L44.873-26.709L13.8672-26.709Z"/>
  </g>
  <line id="Baseline-S" style="fill:none;stroke:#27AAE1;opacity:1;stroke-width:0.5;" x1="263" x2="3036" y1="696" y2="696"/>
  <line id="Capline-S" style="fill:none;stroke:#27AAE1;opacity:1;stroke-width:0.5;" x1="263" x2="3036" y1="625.541" y2="625.541"/>
  <g id="H-reference" style="fill:#27AAE1;stroke:none;" transform="matrix(1 0 0 1 339 1126)">
   <path d="M0.976562 0L3.66211 0L12.9883-24.4629L45.752-24.4629L55.127 0L57.7637 0L30.6152-70.459L28.125-70.459ZM29.3457-67.1387L29.4434-67.1387L44.873-26.709L13.8672-26.709Z"/>
  </g>
  <line id="Baseline-M" style="fill:none;stroke:#27AAE1;opacity:1;stroke-width:0.5;" x1="263" x2="3036" y1="1126" y2="1126"/>
  <line id="Capline-M" style="fill:none;stroke:#27AAE1;opacity:1;stroke-width:0.5;" x1="263" x2="3036" y1="1055.54" y2="1055.54"/>
  <g id="H-reference" style="fill:#27AAE1;stroke:none;" transform="matrix(1 0 0 1 339 1556)">
   <path d="M0.976562 0L3.66211 0L12.9883-24.4629L45.752-24.4629L55.127 0L57.7637 0L30.6152-70.459L28.125-70.459ZM29.3457-67.1387L29.4434-67.1387L44.873-26.709L13.8672-26.709Z"/>
  </g>
  <line id="Baseline-L" style="fill:none;stroke:#27AAE1;opacity:1;stroke-width:0.5;" x1="263" x2="3036" y1="1556" y2="1556"/>
  <line id="Capline-L" style="fill:none;stroke:#27AAE1;opacity:1;stroke-width:0.5;" x1="263" x2="3036" y1="1485.54" y2="1485.54"/>
  <line id="left-margin" style="fill:none;stroke:#00AEEF;stroke-width:0.5;opacity:1.0;" x1="1388.3" x2="1388.3" y1="1030.79" y2="1150.12"/>
  <line id="right-margin" style="fill:none;stroke:#00AEEF;stroke-width:0.5;opacity:1.0;" x1="1511.39" x2="1511.39" y1="1030.79" y2="1150.12"/>
 </g>
 <g id="Symbols">
  <g id="Black-L" transform="matrix(1 0 0 1 2850.56 1556)">
   <path d="M129.492-31.2012L139.893-42.5781C155.078-58.6914 154.59-78.6621 140.381-93.0664C126.172-107.52 106.055-107.91 89.8438-92.5781L78.5645-82.1777C86.5234-85.3027 93.3594-81.6406 99.9023-75.0977L122.656-52.3926C129.248-45.8008 132.617-39.2578 129.492-31.2012ZM73.877-3.90625C80.7129 2.88086 87.207 3.07617 94.1895-3.90625L114.404-24.1211C121.436-31.1523 121.289-37.5977 114.453-44.4336L91.6992-67.1875C84.9121-73.9746 78.4668-74.1699 71.3867-67.0898L51.2207-46.9238C44.2383-39.9414 44.3848-33.3984 51.2207-26.5625ZM78.1738-44.9707C75.4883-47.6562 75.4883-51.9043 78.0762-54.4922C80.7617-57.1289 84.9121-57.1289 87.5977-54.4922C90.1855-51.9043 90.2344-47.7539 87.4512-44.9707C84.9121-42.5293 80.6641-42.4805 78.1738-44.9707ZM63.8184-30.8105C61.1328-33.4473 61.1328-37.5488 63.8184-40.2832C66.4551-42.9688 70.6543-42.8711 73.291-40.1367C75.7812-37.6465 75.8789-33.4473 73.291-30.8594C70.5078-28.0762 66.4062-28.2227 63.8184-30.8105ZM101.758-30.8105C99.1699-28.2227 94.9707-28.2227 92.2852-30.8594C89.7949-33.3984 89.7949-37.6953 92.2852-40.1367C95.1172-42.8711 99.1699-42.8711 101.758-40.2832C104.443-37.5977 104.443-33.4473 101.758-30.8105ZM25.293 22.0215C39.4531 36.4258 59.6191 36.8164 75.8301 21.5332L87.1094 11.1328C79.1016 14.2578 72.2656 10.5957 65.7227 4.05273L43.0176-18.6523C36.4258-25.2441 33.0566-31.8359 36.1816-39.8438L25.7812-28.5156C10.5957-12.3535 11.084 7.61719 25.293 22.0215ZM78.0762-16.5039C75.4883-19.0918 75.3418-23.1934 78.1738-26.0254C80.7617-28.6133 85.0098-28.5156 87.4512-26.0254C90.0879-23.291 90.2344-19.0918 87.5977-16.5039C84.8145-13.8672 80.7617-13.8672 78.0762-16.5039Z"/>
  </g>
  <g id="Heavy-L" transform="matrix(1 0 0 1 2554.85 1556)">
   <path d="M127.539-31.6895L138.037-43.1152C152.979-58.7891 152.588-78.2715 138.721-92.334C124.854-106.396 105.225-106.641 89.502-91.6992L78.125-81.1523C85.4004-84.0332 92.0898-80.957 98.4375-74.6094L121.338-51.709C127.734-45.3125 130.42-39.0137 127.539-31.6895ZM72.7051-3.85742C79.3945 2.83203 85.791 3.02734 92.627-3.85742L113.428-24.6582C120.361-31.5918 120.215-37.8906 113.525-44.5801L90.9668-67.1387C84.2773-73.8281 77.9297-73.9746 71.0449-67.041L50.2441-46.2402C43.3594-39.4043 43.5547-33.0078 50.2441-26.3184ZM77.3438-44.873C74.7559-47.4609 74.7559-51.5137 77.2461-54.0527C79.834-56.6406 83.8379-56.6406 86.4258-54.0527C88.916-51.5137 89.0137-47.5586 86.3281-44.873C83.8867-42.4805 79.7852-42.4316 77.3438-44.873ZM63.2324-30.9082C60.6445-33.4961 60.6445-37.4023 63.2324-40.0391C65.7715-42.627 69.8242-42.5781 72.4121-39.9414C74.7559-37.5 74.9023-33.4961 72.4121-30.957C69.6777-28.2715 65.7227-28.3691 63.2324-30.9082ZM100.391-30.9082C97.9004-28.3691 93.8477-28.3691 91.2598-30.957C88.8184-33.3984 88.8184-37.5488 91.2598-39.9414C93.9453-42.5781 97.9004-42.5781 100.391-40.0391C102.979-37.4512 102.979-33.4961 100.391-30.9082ZM24.9512 21.4355C38.8184 35.498 58.4961 35.791 74.2188 20.752L85.5469 10.2051C78.2227 13.0859 71.6797 10.1074 65.332 3.75977L42.4316-19.1895C35.9863-25.5859 33.3008-31.8359 36.1816-39.209L25.6348-27.832C10.6934-12.1582 11.084 7.32422 24.9512 21.4355ZM77.2461-16.8457C74.7559-19.3848 74.6582-23.291 77.3438-26.0254C79.834-28.5156 83.9355-28.4668 86.3281-26.0254C88.8672-23.3887 89.0137-19.3848 86.4258-16.8457C83.7891-14.2578 79.834-14.2578 77.2461-16.8457Z"/>
  </g>
  <g id="Bold-L" transform="matrix(1 0 0 1 2259.24 1556)">
   <path d="M125.391-32.1777L136.035-43.7012C150.586-58.8867 150.342-77.8809 136.865-91.5039C123.389-105.176 104.248-105.273 89.0625-90.6738L77.5879-80.0293C84.1309-82.6172 90.5762-80.2246 96.7773-74.0723L119.922-50.9277C126.074-44.7266 127.979-38.7695 125.391-32.1777ZM71.3867-3.75977C77.9297 2.7832 84.1797 2.92969 90.8691-3.75977L112.354-25.2441C119.141-32.0312 118.994-38.2324 112.451-44.7754L90.0879-67.0898C83.5449-73.6328 77.3926-73.7793 70.6055-66.9922L49.1211-45.5078C42.4316-38.8184 42.5781-32.5684 49.1211-26.0254ZM76.416-44.7266C73.9258-47.2168 73.9258-51.123 76.3672-53.5156C78.8574-56.0059 82.666-56.0059 85.1562-53.5156C87.5488-51.123 87.6465-47.3145 85.0586-44.7266C82.7148-42.4316 78.7598-42.4316 76.416-44.7266ZM62.5977-31.0059C60.1074-33.4961 60.1074-37.3047 62.5977-39.7949C65.0391-42.2852 68.8965-42.1875 71.3867-39.6973C73.6816-37.3535 73.7793-33.4961 71.3867-31.1035C68.7988-28.4668 64.9902-28.6133 62.5977-31.0059ZM98.877-31.0059C96.4844-28.6133 92.5781-28.6133 90.0879-31.1035C87.7441-33.3984 87.7441-37.4023 90.0879-39.6973C92.6758-42.2363 96.4844-42.1875 98.877-39.7949C101.367-37.3047 101.367-33.4961 98.877-31.0059ZM24.6094 20.752C38.0859 34.4238 57.2754 34.5703 72.4121 19.873L83.7891 9.17969C77.2461 11.7676 71.0449 9.57031 64.8926 3.41797L41.748-19.7266C35.5469-25.9277 33.5449-31.8848 36.1816-38.4766L25.4883-27.0508C10.8398-11.9629 11.1328 7.03125 24.6094 20.752ZM76.3672-17.2363C73.9258-19.6289 73.8281-23.4375 76.416-26.0254C78.8574-28.418 82.7637-28.3691 85.0586-26.0254C87.5488-23.5352 87.6465-19.6289 85.1562-17.2363C82.5684-14.7461 78.8574-14.7461 76.3672-17.2363Z"/>
  </g>
  <g id="Semibold-L" transform="matrix(1 0 0 1 1963.29 1556)">
   <path d="M123.877-32.5684L134.619-44.1406C148.975-58.9844 148.828-77.5391 135.596-90.9668C122.363-104.346 103.613-104.346 88.7695-89.9414L77.1973-79.248C83.252-81.6406 89.5996-79.6875 95.6055-73.6816L118.896-50.3906C124.951-44.3359 126.318-38.623 123.877-32.5684ZM70.459-3.71094C76.9043 2.73438 83.0566 2.88086 89.6484-3.71094L111.621-25.6836C118.311-32.3242 118.164-38.4277 111.719-44.873L89.502-67.0898C83.0566-73.4863 77.002-73.6328 70.3125-66.9922L48.3398-45.0195C41.748-38.4277 41.8945-32.2266 48.3398-25.8301ZM75.7812-44.6289C73.3887-47.0703 73.3887-50.8301 75.7324-53.1738C78.125-55.6152 81.8359-55.6152 84.2773-53.1738C86.6211-50.8301 86.6699-47.168 84.1797-44.6289C81.8848-42.3828 78.0762-42.3828 75.7812-44.6289ZM62.1582-31.1035C59.7168-33.4961 59.7168-37.207 62.1582-39.6484C64.5508-42.041 68.2617-41.9434 70.7031-39.502C72.9004-37.2559 73.0469-33.4961 70.7031-31.1523C68.1641-28.6621 64.502-28.7598 62.1582-31.1035ZM97.8516-31.1035C95.5078-28.7598 91.6992-28.7598 89.3066-31.1523C87.0117-33.4473 87.0117-37.3047 89.3066-39.502C91.7969-42.041 95.5078-41.9434 97.8516-39.6484C100.244-37.207 100.244-33.4961 97.8516-31.1035ZM24.3652 20.2637C37.5977 33.6914 56.4453 33.7891 71.1914 19.2383L82.6172 8.49609C76.5625 10.8887 70.6055 9.17969 64.5508 3.17383L41.2598-20.166C35.2051-26.1719 33.7402-31.9336 36.1816-37.9883L25.3906-26.5625C10.9375-11.8164 11.1816 6.83594 24.3652 20.2637ZM75.7324-17.4805C73.3887-19.8242 73.291-23.5352 75.7812-26.0254C78.125-28.3691 81.9336-28.3203 84.1797-26.0254C86.5723-23.584 86.6699-19.8242 84.2773-17.4805C81.7871-15.0879 78.125-15.0879 75.7324-17.4805Z"/>
  </g>
  <g id="Medium-L" transform="matrix(1 0 0 1 1667.16 1556)">
   <path d="M122.754-32.8125L133.545-44.4824C147.754-59.0332 147.656-77.3438 134.619-90.5273C121.582-103.711 103.125-103.613 88.5742-89.4531L76.9531-78.6621C82.5684-80.9082 88.8184-79.2969 94.7266-73.3887L118.164-49.9512C124.072-44.043 125.049-38.4766 122.754-32.8125ZM69.7754-3.66211C76.123 2.68555 82.2266 2.88086 88.7695-3.66211L111.084-25.9766C117.627-32.5684 117.529-38.623 111.133-44.9707L89.0625-67.041C82.7148-73.3887 76.6602-73.5352 70.1172-66.9434L47.7539-44.6289C41.2598-38.1348 41.4062-32.0312 47.7539-25.6348ZM75.3418-44.5801C72.9492-46.9727 72.9492-50.6348 75.2441-52.9297C77.6367-55.3223 81.2012-55.3223 83.5938-52.9297C85.8887-50.6348 85.9863-47.0215 83.4961-44.5801C81.2988-42.3828 77.5391-42.3828 75.3418-44.5801ZM61.8164-31.1523C59.4238-33.4961 59.4238-37.1094 61.8164-39.502C64.1602-41.8457 67.7734-41.7969 70.166-39.4043C72.3633-37.207 72.4609-33.4961 70.166-31.2012C67.6758-28.7598 64.1113-28.8574 61.8164-31.1523ZM97.0215-31.1523C94.7266-28.8574 91.0645-28.8574 88.6719-31.2012C86.4746-33.4473 86.4746-37.207 88.6719-39.4043C91.1621-41.8457 94.7266-41.7969 97.0215-39.502C99.4141-37.1094 99.4141-33.4961 97.0215-31.1523ZM24.2188 19.9219C37.207 33.1055 55.8105 33.1543 70.2637 18.7988L81.6895 7.91016C76.0254 10.2051 70.2637 8.93555 64.3066 2.97852L40.918-20.459C34.9609-26.3672 33.8867-31.9336 36.1816-37.6465L25.293-26.1719C10.9863-11.7188 11.1816 6.68945 24.2188 19.9219ZM75.2441-17.6758C72.9492-19.9707 72.8516-23.584 75.3418-26.0254C77.6367-28.3203 81.2988-28.2715 83.4961-26.0254C85.8887-23.6816 85.9863-19.9707 83.5938-17.6758C81.1523-15.332 77.6367-15.332 75.2441-17.6758Z"/>
  </g>
  <g id="Regular-L" transform="matrix(1 0 0 1 1371.21 1556)">
   <path d="M121.289-33.2031L132.129-44.873C146.143-59.1309 146.143-77.0508 133.35-89.9414C120.605-102.832 102.441-102.686 88.2812-88.7207L76.5625-77.8809C81.6895-79.9805 87.8418-78.7598 93.6035-72.998L117.188-49.4141C122.949-43.6523 123.34-38.3301 121.289-33.2031ZM68.8477-3.61328C75.0977 2.68555 81.1523 2.83203 87.5488-3.61328L110.352-26.416C116.797-32.9102 116.699-38.8184 110.449-45.0684L88.4766-67.041C82.2266-73.291 76.2695-73.3887 69.8242-66.9434L47.0215-44.1406C40.5762-37.7441 40.7227-31.6895 47.0215-25.4395ZM74.707-44.4824C72.4121-46.7773 72.4121-50.3418 74.6094-52.5879C76.9531-54.8828 80.4199-54.8828 82.7148-52.5879C84.9609-50.3418 85.0098-46.875 82.666-44.4824C80.5176-42.334 76.8555-42.334 74.707-44.4824ZM61.377-31.2012C59.0332-33.5449 59.0332-37.0117 61.377-39.3066C63.6719-41.6504 67.1387-41.5527 69.4336-39.2578C71.582-37.1094 71.6797-33.5449 69.4336-31.2988C67.0898-28.9062 63.5742-29.0039 61.377-31.2012ZM95.9961-31.2012C93.75-29.0039 90.1855-29.0039 87.8906-31.2988C85.7422-33.4473 85.7422-37.1094 87.8906-39.2578C90.2832-41.6504 93.75-41.5527 95.9961-39.3066C98.291-37.0117 98.291-33.5449 95.9961-31.2012ZM23.9746 19.4336C36.7188 32.373 54.9805 32.373 69.043 18.2129L80.5176 7.22656C75.3418 9.32617 69.8242 8.54492 64.0137 2.7832L40.4297-20.8496C34.6191-26.6113 34.082-31.9824 36.1816-37.1582L25.1953-25.6348C11.084-11.5723 11.2305 6.49414 23.9746 19.4336ZM74.6094-17.9688C72.4121-20.166 72.3145-23.6816 74.707-26.0742C76.9531-28.2715 80.5176-28.1738 82.666-26.0742C84.9609-23.7305 85.0098-20.166 82.7148-17.9688C80.3223-15.625 76.9531-15.625 74.6094-17.9688Z"/>
  </g>
  <g id="Light-L" transform="matrix(1 0 0 1 1075.55 1556)">
   <path d="M118.359-32.373L130.225-45.0195C143.799-59.0332 144.043-76.6602 131.592-89.209C119.092-101.807 101.318-101.367 87.4023-87.8906L74.707-75.9766C79.3945-78.8086 85.8398-77.7344 91.1621-72.4121L115.527-48.0469C120.85-42.7246 121.143-37.0605 118.359-32.373ZM67.9199-3.90625C74.1211 2.29492 80.0781 2.49023 86.4258-3.90625L108.984-26.5137C115.381-32.9102 115.283-38.7695 109.082-44.9707L87.3535-66.748C81.1523-72.9492 75.2441-73.0469 68.8477-66.6504L46.2402-44.0918C39.8926-37.6953 40.0391-31.7383 46.2402-25.5371ZM73.877-44.7266C71.6797-46.9238 71.6797-50.2441 73.7793-52.3438C75.9766-54.541 79.248-54.541 81.4453-52.3438C83.5938-50.2441 83.6426-46.9727 81.3965-44.7266C79.3457-42.6758 75.9277-42.6758 73.877-44.7266ZM60.5469-31.4453C58.3496-33.6426 58.3496-36.9141 60.5469-39.1113C62.7441-41.3086 66.0156-41.2109 68.1641-39.0137C70.2148-36.9629 70.3125-33.6426 68.1641-31.543C65.918-29.248 62.6465-29.3457 60.5469-31.4453ZM94.7266-31.4453C92.627-29.3457 89.2578-29.3457 87.0605-31.543C85.0098-33.5449 85.0098-36.9629 87.0605-39.0137C89.3555-41.3086 92.627-41.2109 94.7266-39.1113C96.9238-36.9141 96.9238-33.6426 94.7266-31.4453ZM23.6328 18.75C36.0352 31.3965 54.0527 31.1523 67.8223 17.334L80.127 5.27344C75.3906 8.10547 69.873 7.66602 64.5508 2.39258L40.1367-22.0703C34.8145-27.3438 34.2285-33.1055 37.0605-37.8418L25.0488-25.4395C11.2305-11.7188 11.1816 6.10352 23.6328 18.75ZM73.7793-18.1641C71.6797-20.2637 71.582-23.5352 73.877-25.8301C75.9766-27.9297 79.3457-27.8809 81.3965-25.8301C83.5938-23.6328 83.6426-20.2637 81.4453-18.1641C79.1992-15.9668 75.9766-15.9668 73.7793-18.1641Z"/>
  </g>
  <g id="Thin-L" transform="matrix(1 0 0 1 780.226 1556)">
   <path d="M114.453-31.2988L127.686-45.2637C140.723-58.9355 141.357-76.123 129.248-88.2812C117.188-100.439 99.7559-99.6094 86.2305-86.7188L72.2656-73.4863C76.3672-77.2461 83.252-76.3184 87.9395-71.6797L113.379-46.1914C118.018-41.5527 118.213-35.4004 114.453-31.2988ZM66.6504-4.29688C72.7539 1.85547 78.6621 2.00195 84.9609-4.29688L107.227-26.6113C113.525-32.9102 113.428-38.7207 107.324-44.873L85.8398-66.3574C79.7363-72.4609 73.9258-72.5586 67.627-66.2598L45.2637-43.9941C38.9648-37.6953 39.1113-31.7871 45.2637-25.6836ZM72.8027-45.0195C70.752-47.0703 70.752-50.0977 72.7051-52.0508C74.7559-54.1016 77.7344-54.1016 79.7852-52.0508C81.7383-50.0977 81.8359-47.1191 79.6875-45.0195C77.832-43.1152 74.6582-43.1152 72.8027-45.0195ZM59.4238-31.7383C57.373-33.7891 57.373-36.7676 59.4238-38.8184C61.4746-40.8691 64.4531-40.7715 66.5039-38.7207C68.4082-36.8164 68.457-33.7891 66.5039-31.8359C64.4043-29.6875 61.4258-29.7852 59.4238-31.7383ZM93.0664-31.7383C91.0645-29.7852 88.0371-29.7852 85.9863-31.8359C84.082-33.6914 84.082-36.8164 85.9863-38.7207C88.0859-40.8691 91.0645-40.7715 93.0664-38.8184C95.1172-36.7676 95.1172-33.7891 93.0664-31.7383ZM23.1445 17.8223C35.1562 30.0781 52.8809 29.5898 66.1621 16.1621L79.6387 2.73438C75.4395 6.49414 69.9219 6.54297 65.2344 1.85547L39.6973-23.6816C35.0586-28.3203 34.4727-34.5703 38.2324-38.7207L24.8047-25.1953C11.4746-11.9141 11.1328 5.56641 23.1445 17.8223ZM72.7051-18.457C70.752-20.4102 70.6543-23.3887 72.8027-25.5371C74.7559-27.4902 77.832-27.4414 79.6875-25.5371C81.7383-23.4863 81.8359-20.4102 79.7852-18.457C77.6367-16.4062 74.7559-16.4062 72.7051-18.457Z"/>
  </g>
  <g id="Ultralight-L" transform="matrix(1 0 0 1 484.247 1556)">
   <path d="M112.5-30.7617C112.891-31.1035 113.232-31.4941 113.574-31.8848L126.416-45.3613C139.111-58.8867 139.941-75.8301 128.076-87.793C116.162-99.7559 98.9746-98.6816 85.6445-86.1328L71.9727-73.1445C71.6309-72.8516 71.2891-72.5586 70.9961-72.2168L71.9727-73.1445C75.9277-76.3184 82.2754-75.293 86.2793-71.2891L112.256-45.2637C116.162-41.3574 116.65-35.7422 113.574-31.8848ZM66.0156-4.49219C72.0703 1.61133 77.9297 1.75781 84.1797-4.49219L106.299-26.709C112.549-32.959 112.5-38.7207 106.396-44.8242L85.0586-66.1133C79.0039-72.2168 73.1934-72.3145 66.9434-66.0645L44.7754-43.9453C38.4766-37.6953 38.6719-31.8359 44.7754-25.7324ZM72.2168-45.166C70.2637-47.1191 70.2637-50.0488 72.168-51.9043C74.1211-53.9062 76.9531-53.9062 78.9062-51.9043C80.8105-50.0488 80.9082-47.2168 78.8574-45.166C77.0508-43.3594 74.0234-43.3594 72.2168-45.166ZM58.8867-31.8848C56.8848-33.8379 56.8848-36.6699 58.8867-38.6719C60.8398-40.625 63.6719-40.5273 65.6738-38.5742C67.4805-36.7676 67.5293-33.8379 65.6738-31.9824C63.623-29.9316 60.791-29.9805 58.8867-31.8848ZM92.1875-31.8848C90.2832-29.9805 87.4023-29.9805 85.4004-31.9824C83.5938-33.7891 83.5938-36.7676 85.4004-38.5742C87.5-40.625 90.2832-40.5273 92.1875-38.6719C94.1895-36.6699 94.1895-33.8379 92.1875-31.8848ZM22.9492 17.334C34.7168 29.3945 52.2461 28.7598 65.332 15.5762L78.6621 2.09961C78.9062 1.9043 79.1504 1.66016 79.3945 1.41602L78.6621 2.09961C74.8535 5.66406 69.6777 5.71289 65.5762 1.61133L39.502-24.5117C35.3516-28.6133 34.668-34.7168 38.2812-38.623L38.8672-39.209C38.6719-39.0137 38.4766-38.8184 38.2812-38.623L24.6582-25.0977C11.6211-12.0117 11.1328 5.27344 22.9492 17.334ZM72.168-18.6035C70.2637-20.5078 70.166-23.3398 72.2168-25.3906C74.1211-27.2949 77.0508-27.1973 78.8574-25.3906C80.8105-23.3887 80.9082-20.5078 78.9062-18.6035C76.8555-16.6504 74.1211-16.6504 72.168-18.6035Z"/>
  </g>
  <g id="Black-M" transform="matrix(1 0 0 1 2868.43 1126)">
   <path d="M101.416-31.0547L109.863-40.2344C121.777-53.2715 121.387-69.1895 110.107-80.6641C98.7793-92.1875 82.7148-92.4805 69.6777-80.4688L60.5469-72.0215C67.3828-75.0977 73.0957-71.582 78.125-66.5039L95.8984-48.7305C101.025-43.6523 104.541-37.9883 101.416-31.0547ZM58.3496-11.2305C63.7695-5.81055 68.9453-5.66406 74.5117-11.2305L89.209-25.9277C94.8242-31.543 94.7266-36.6699 89.2578-42.0898L71.4844-59.8633C66.0645-65.2832 60.9375-65.4297 55.3223-59.8145L40.625-45.1172C35.0586-39.5508 35.2051-34.375 40.625-28.9551ZM61.2305-43.0664C59.1309-45.2148 59.1309-48.584 61.1816-50.6348C63.2812-52.7344 66.6016-52.7344 68.75-50.6348C70.8008-48.584 70.8496-45.2637 68.6035-43.0664C66.6016-41.1621 63.2324-41.0645 61.2305-43.0664ZM49.8047-31.7871C47.7051-33.8867 47.7051-37.1582 49.8047-39.3066C51.8555-41.4551 55.2246-41.4062 57.373-39.209C59.2773-37.207 59.4238-33.8867 57.373-31.8359C55.127-29.5898 51.8555-29.6875 49.8047-31.7871ZM80.0293-31.7871C77.9785-29.6875 74.6094-29.6875 72.4609-31.8359C70.459-33.8379 70.459-37.2559 72.4609-39.209C74.707-41.4062 77.9785-41.4062 80.0293-39.3066C82.1777-37.207 82.1777-33.8867 80.0293-31.7871ZM19.8242 9.57031C31.1035 21.0938 47.168 21.3867 60.2539 9.32617L69.3848 0.927734C62.5488 4.00391 56.8359 0.488281 51.7578-4.58984L33.9844-22.3633C28.9062-27.4902 25.3906-33.1055 28.5156-40.0391L20.0684-30.8594C8.1543-17.8223 8.49609-1.9043 19.8242 9.57031ZM61.1816-20.4102C59.1309-22.4609 58.9844-25.7324 61.2305-27.9785C63.2812-30.0293 66.6504-29.9805 68.6035-27.9785C70.752-25.7812 70.8496-22.4609 68.75-20.4102C66.5527-18.2617 63.2812-18.2617 61.1816-20.4102Z"/>
  </g>
  <g id="Heavy-M" transform="matrix(1 0 0 1 2572.53 1126)">
   <path d="M100.049-31.7871L108.35-40.8203C120.068-53.3691 119.727-68.8965 108.74-80.0781C97.7051-91.2598 82.0801-91.5039 69.4824-79.6875L60.498-71.3867C66.748-74.0234 72.168-71.0938 77.1484-66.1133L94.9219-48.3398C99.9512-43.3105 102.686-38.0371 100.049-31.7871ZM57.2754-11.084C62.5977-5.76172 67.6758-5.61523 73.0957-11.084L88.5254-26.5137C93.9941-31.9824 93.8965-36.9629 88.5742-42.2852L70.9473-59.9121C65.6738-65.2344 60.6445-65.332 55.1758-59.8633L39.7461-44.4336C34.3262-39.0137 34.4238-33.9355 39.7461-28.6133ZM60.5469-42.8711C58.4961-44.9219 58.4961-48.1934 60.498-50.1953C62.5488-52.2461 65.7715-52.2461 67.8223-50.1953C69.8242-48.1934 69.873-45.0195 67.6758-42.8711C65.7715-41.0156 62.5-40.9668 60.5469-42.8711ZM49.3652-31.8359C47.3145-33.8867 47.3145-37.0117 49.3652-39.1602C51.3672-41.2109 54.6387-41.1133 56.6895-39.0137C58.5938-37.1094 58.6914-33.8867 56.6895-31.8848C54.541-29.7363 51.3672-29.834 49.3652-31.8359ZM78.8574-31.8359C76.8555-29.834 73.6328-29.834 71.5332-31.8848C69.6289-33.8379 69.6289-37.1582 71.5332-39.0137C73.7305-41.1621 76.8555-41.1133 78.8574-39.1602C80.9082-37.0605 80.9082-33.8867 78.8574-31.8359ZM19.5801 9.08203C30.5664 20.3125 46.1914 20.5566 58.8379 8.74023L67.7734 0.390625C61.5234 3.07617 56.1523 0.146484 51.1719-4.83398L33.3984-22.6074C28.3691-27.6367 25.5859-32.8613 28.2715-39.1602L19.9707-30.127C8.20312-17.5781 8.54492-2.09961 19.5801 9.08203ZM60.498-20.7031C58.4961-22.7051 58.3984-25.8789 60.5469-28.0273C62.5488-30.0293 65.8203-29.9805 67.6758-28.0273C69.7754-25.9277 69.873-22.7051 67.8223-20.7031C65.6738-18.6523 62.5488-18.6523 60.498-20.7031Z"/>
  </g>
  <g id="Bold-M" transform="matrix(1 0 0 1 2276.72 1126)">
   <path d="M98.5352-32.5684L106.689-41.4551C118.164-53.5156 117.92-68.5059 107.227-79.3457C96.5332-90.1855 81.3965-90.3809 69.2871-78.8086L60.4492-70.6543C66.0156-72.8516 71.1426-70.5566 76.0254-65.6738L93.7988-47.9004C98.7305-42.9688 100.684-38.1348 98.5352-32.5684ZM56.1035-10.8887C61.2793-5.71289 66.2109-5.61523 71.4844-10.8887L87.7441-27.1484C93.0664-32.4707 92.9688-37.3535 87.793-42.5293L70.3613-59.9609C65.1855-65.0879 60.3027-65.2344 54.9805-59.9121L38.7207-43.6523C33.4473-38.3789 33.5938-33.4473 38.7207-28.2715ZM59.8145-42.6758C57.8125-44.6777 57.8125-47.8027 59.7168-49.707C61.7188-51.709 64.7949-51.709 66.7969-49.707C68.7012-47.8027 68.75-44.7266 66.6992-42.6758C64.7949-40.8691 61.6699-40.8203 59.8145-42.6758ZM48.9258-31.8848C46.9238-33.8867 46.9238-36.9141 48.9258-38.916C50.8789-40.918 53.9551-40.8691 55.957-38.8184C57.7637-36.9629 57.8613-33.8867 55.957-31.9336C53.8574-29.8828 50.8301-29.9805 48.9258-31.8848ZM77.5879-31.8848C75.6348-29.9805 72.5098-29.9805 70.5078-31.9336C68.6523-33.7891 68.6523-37.0117 70.5078-38.8184C72.6074-40.8691 75.6348-40.8691 77.5879-38.916C79.541-36.9629 79.541-33.8867 77.5879-31.8848ZM19.2871 8.54492C29.9805 19.3848 45.1172 19.6289 57.2266 8.00781L65.9668-0.146484C60.4492 2.00195 55.4199-0.146484 50.5371-5.07812L32.7637-22.8516C27.832-27.7832 25.8301-32.6172 28.0273-38.1836L19.8242-29.3457C8.30078-17.334 8.59375-2.29492 19.2871 8.54492ZM59.7168-21.0449C57.8125-22.998 57.7148-26.0254 59.8145-28.0762C61.7188-30.0293 64.8438-29.9805 66.6992-28.0762C68.6523-26.0742 68.75-22.998 66.7969-21.0449C64.7461-19.0918 61.7188-19.0918 59.7168-21.0449Z"/>
  </g>
  <g id="Semibold-M" transform="matrix(1 0 0 1 1980.64 1126)">
   <path d="M97.4609-33.1543L105.518-41.8457C116.846-53.6133 116.65-68.3105 106.152-78.9062C95.7031-89.502 80.9082-89.5996 69.1406-78.2227L60.4492-70.166C65.4785-72.0215 70.4102-70.2148 75.2441-65.3809L93.0664-47.5586C97.9004-42.6758 99.2676-38.2324 97.4609-33.1543ZM55.3223-10.7422C60.3516-5.71289 65.2344-5.56641 70.4102-10.7422L87.207-27.5879C92.4316-32.8125 92.334-37.5977 87.2559-42.6758L69.9219-59.9609C64.8926-65.0391 60.1074-65.1367 54.834-59.9121L38.0371-43.1152C32.8613-37.9395 33.0078-33.1055 38.0371-28.0273ZM59.2773-42.5293C57.3242-44.4824 57.3242-47.5098 59.1797-49.3652C61.1328-51.3184 64.1113-51.3184 66.0645-49.3652C67.9199-47.5098 68.0176-44.5312 65.9668-42.5293C64.1602-40.7227 61.084-40.7227 59.2773-42.5293ZM48.584-31.9336C46.6309-33.8379 46.6309-36.8164 48.584-38.7695C50.4883-40.7227 53.5156-40.6738 55.4199-38.7207C57.2266-36.8652 57.3242-33.8379 55.4199-31.9824C53.418-29.9805 50.4395-30.0293 48.584-31.9336ZM76.6602-31.9336C74.8047-30.0293 71.7285-30.0293 69.8242-31.9824C68.0176-33.7891 68.0176-36.9141 69.8242-38.7207C71.8262-40.6738 74.8047-40.6738 76.6602-38.7695C78.6133-36.8652 78.6133-33.8379 76.6602-31.9336ZM19.0918 8.20312C29.541 18.7988 44.3848 18.9453 56.1035 7.51953L64.7461-0.537109C59.668 1.26953 54.9316-0.390625 50.0977-5.27344L32.2754-23.0469C27.4414-27.9297 26.0254-32.4219 27.832-37.5L19.7754-28.8086C8.34961-17.1387 8.64258-2.39258 19.0918 8.20312ZM59.1797-21.2891C57.3242-23.1934 57.2266-26.123 59.2773-28.1738C61.1328-30.0293 64.209-29.9805 65.9668-28.1738C67.9199-26.1719 68.0176-23.1934 66.0645-21.2891C64.0625-19.3359 61.1328-19.3359 59.1797-21.2891Z"/>
  </g>
  <g id="Medium-M" transform="matrix(1 0 0 1 1684.4 1126)">
   <path d="M96.6797-33.5449L104.639-42.1875C115.869-53.6621 115.674-68.1152 105.371-78.5156C95.0684-88.916 80.5176-89.0137 69.043-77.7832L60.4004-69.8242C65.1367-71.3867 69.873-69.9219 74.6582-65.1367L92.4805-47.3145C97.3145-42.5293 98.2422-38.2812 96.6797-33.5449ZM54.6875-10.6934C59.668-5.66406 64.4531-5.56641 69.5801-10.6934L86.8164-27.9297C91.9434-33.0566 91.8457-37.793 86.8652-42.7734L69.6289-60.0098C64.6484-64.9902 59.9121-65.0879 54.7852-59.9609L37.5-42.7246C32.4219-37.5977 32.5195-32.8125 37.5-27.832ZM58.8867-42.4316C56.9824-44.3359 56.9824-47.3145 58.7891-49.1211C60.6934-51.0254 63.623-51.0254 65.5273-49.1211C67.334-47.3145 67.4316-44.3848 65.4297-42.4316C63.6719-40.6738 60.6445-40.625 58.8867-42.4316ZM48.3398-31.9336C46.4355-33.8379 46.4355-36.7676 48.3398-38.6719C50.1953-40.5762 53.125-40.5273 55.0293-38.5742C56.7871-36.8164 56.8848-33.8379 55.0293-32.0312C53.0762-30.0293 50.1465-30.127 48.3398-31.9336ZM75.9766-31.9336C74.1699-30.127 71.1914-30.127 69.2871-32.0312C67.4805-33.7891 67.4805-36.8164 69.2871-38.5742C71.2402-40.5762 74.1699-40.5273 75.9766-38.6719C77.8809-36.7676 77.8809-33.8379 75.9766-31.9336ZM18.9453 7.91016C29.1992 18.3594 43.7988 18.457 55.2734 7.12891L63.8184-0.830078C59.1309 0.732422 54.541-0.585938 49.7559-5.37109L31.9336-23.1934C27.0996-28.0273 26.123-32.2754 27.6855-37.0117L19.6777-28.418C8.39844-16.9922 8.64258-2.53906 18.9453 7.91016ZM58.7891-21.4844C56.9824-23.291 56.8848-26.2207 58.8867-28.1738C60.6934-30.0293 63.6719-29.9805 65.4297-28.1738C67.334-26.2695 67.4316-23.291 65.5273-21.4844C63.5742-19.5801 60.6934-19.5801 58.7891-21.4844Z"/>
  </g>
  <g id="Regular-M" transform="matrix(1 0 0 1 1388.3 1126)">
   <path d="M95.6543-34.082L103.467-42.627C114.6-53.7598 114.404-67.8711 104.346-78.0273C94.2871-88.2324 80.0293-88.2812 68.8965-77.1973L60.4004-69.3359C64.5996-70.5566 69.1406-69.5801 73.9258-64.7949L91.6992-47.0215C96.4844-42.2852 96.8262-38.3301 95.6543-34.082ZM53.9062-10.5469C58.7891-5.66406 63.4766-5.51758 68.457-10.5469L86.2793-28.3691C91.3086-33.3984 91.2109-38.0371 86.3281-42.9199L69.1895-60.0586C64.3066-64.9414 59.7168-65.0391 54.6387-59.9609L36.8164-42.1875C31.8359-37.1582 31.9336-32.4707 36.8164-27.5879ZM58.3496-42.2852C56.4941-44.1406 56.4941-47.0215 58.3008-48.8281C60.1562-50.6836 62.9883-50.6836 64.7949-48.8281C66.6016-47.0215 66.6504-44.1895 64.7461-42.2852C63.0371-40.5762 60.0586-40.5762 58.3496-42.2852ZM47.998-31.9824C46.1426-33.8379 46.1426-36.6699 47.998-38.5254C49.8535-40.3809 52.6855-40.332 54.541-38.4766C56.25-36.7188 56.2988-33.8379 54.541-32.0801C52.6367-30.127 49.8047-30.2246 47.998-31.9824ZM75.0977-31.9824C73.291-30.2246 70.4102-30.2246 68.5547-32.0801C66.8457-33.7891 66.8457-36.7188 68.5547-38.4766C70.459-40.3809 73.291-40.332 75.0977-38.5254C76.9531-36.6699 76.9531-33.8379 75.0977-31.9824ZM18.75 7.51953C28.8086 17.7246 43.0664 17.8223 54.1992 6.68945L62.5977-1.2207C58.3496 0 54.0527-0.830078 49.3164-5.56641L31.4941-23.3887C26.709-28.125 26.3184-32.0801 27.4902-36.3281L19.6289-27.8809C8.44727-16.7969 8.69141-2.63672 18.75 7.51953ZM58.3008-21.7285C56.4941-23.4863 56.4453-26.3184 58.3496-28.2227C60.1562-30.0293 63.0371-29.9805 64.7461-28.2227C66.6016-26.416 66.6504-23.4863 64.7949-21.7285C62.8906-19.873 60.1562-19.873 58.3008-21.7285Z"/>
  </g>
  <g id="Light-M" transform="matrix(1 0 0 1 1092.54 1126)">
   <path d="M93.0176-33.3984L101.758-42.7734C112.5-53.7109 112.549-67.5293 102.783-77.3926C92.9688-87.3047 79.0039-87.0605 68.1152-76.416L58.7402-67.6758C62.5488-69.5312 67.4316-68.6523 71.7285-64.3066L90.2832-45.8008C94.5801-41.4551 94.873-37.207 93.0176-33.3984ZM53.0273-10.791C57.8613-5.95703 62.5488-5.85938 67.4805-10.791L85.0586-28.418C90.0879-33.3984 89.9902-37.9883 85.1562-42.8223L68.2129-59.7656C63.3789-64.5996 58.7891-64.6973 53.8086-59.7168L36.1816-42.1387C31.2012-37.1582 31.3477-32.5195 36.1816-27.6855ZM57.6172-42.4805C55.8594-44.2383 55.8594-46.9238 57.5684-48.6328C59.3262-50.3418 61.9629-50.3418 63.6719-48.6328C65.3809-46.9238 65.4297-44.2871 63.623-42.4805C62.0117-40.8691 59.2285-40.8691 57.6172-42.4805ZM47.2656-32.1777C45.5078-33.9355 45.5078-36.5723 47.2656-38.3301C49.0234-40.0879 51.6602-40.0391 53.418-38.2812C55.0293-36.6211 55.0781-33.9355 53.418-32.2754C51.6113-30.4199 48.9746-30.5176 47.2656-32.1777ZM73.9746-32.1777C72.2656-30.5176 69.5801-30.5176 67.8223-32.2754C66.2109-33.8867 66.2109-36.6211 67.8223-38.2812C69.6777-40.0879 72.2656-40.0391 73.9746-38.3301C75.7324-36.5723 75.7324-33.9355 73.9746-32.1777ZM18.457 6.93359C28.2227 16.8457 42.2852 16.748 53.0762 5.9082L62.2559-2.97852C58.3984-1.12305 54.1016-1.5625 49.8047-5.9082L31.25-24.4629C26.9043-28.8086 26.4648-33.0566 28.3203-36.9141L19.4824-27.7344C8.64258-16.9434 8.69141-3.02734 18.457 6.93359ZM57.5684-21.9238C55.8594-23.584 55.8105-26.2207 57.6172-28.0273C59.3262-29.7363 62.0117-29.6875 63.623-28.0273C65.3809-26.2695 65.4297-23.584 63.6719-21.9238C61.8652-20.166 59.3262-20.166 57.5684-21.9238Z"/>
  </g>
  <g id="Thin-M" transform="matrix(1 0 0 1 797.072 1126)">
   <path d="M89.5508-32.4219L99.5117-42.9688C109.717-53.6133 110.156-67.041 100.684-76.5625C91.2598-86.084 77.6855-85.498 67.0898-75.3906L56.543-65.4297C59.8633-68.1152 65.0879-67.3828 68.8477-63.623L88.3301-44.1406C92.0898-40.3809 92.2852-35.6934 89.5508-32.4219ZM51.9531-11.1816C56.6895-6.39648 61.2793-6.25 66.1621-11.1816L83.4961-28.5645C88.4277-33.4473 88.3301-37.9395 83.5449-42.7246L66.8945-59.4238C62.1094-64.209 57.5684-64.2578 52.6855-59.375L35.3027-42.041C30.4199-37.1582 30.5176-32.5684 35.3027-27.7832ZM56.6406-42.7246C55.0293-44.3848 55.0293-46.7773 56.5918-48.3398C58.2031-49.9512 60.5957-49.9512 62.207-48.3398C63.7695-46.7773 63.8184-44.4336 62.1582-42.7246C60.6445-41.2598 58.1543-41.2598 56.6406-42.7246ZM46.3379-32.4707C44.6777-34.082 44.6777-36.4258 46.3379-38.0859C47.9492-39.6973 50.293-39.5996 51.9043-37.9883C53.418-36.5234 53.4668-34.082 51.9043-32.5195C50.2441-30.8594 47.8516-30.9082 46.3379-32.4707ZM72.5098-32.4707C70.9473-30.9082 68.5059-30.9082 66.8945-32.5195C65.3809-34.0332 65.3809-36.5234 66.8945-37.9883C68.5547-39.6973 70.9473-39.5996 72.5098-38.0859C74.1211-36.4258 74.1211-34.082 72.5098-32.4707ZM18.0664 6.05469C27.4414 15.6738 41.2598 15.332 51.6602 4.88281L61.8164-5.27344C58.4961-2.53906 54.1992-2.63672 50.4395-6.39648L30.8594-25.9277C27.1484-29.6875 26.709-34.375 29.3945-37.7441L19.2871-27.4902C8.88672-17.0898 8.64258-3.51562 18.0664 6.05469ZM56.5918-22.168C55.0293-23.7305 54.9805-26.0742 56.6406-27.7832C58.2031-29.3457 60.6445-29.2969 62.1582-27.7832C63.7695-26.1719 63.8184-23.7305 62.207-22.168C60.5469-20.5566 58.2031-20.5566 56.5918-22.168Z"/>
  </g>
  <g id="Ultralight-M" transform="matrix(1 0 0 1 500.995 1126)">
   <path d="M87.793-31.9336C87.9395-32.0801 88.1348-32.2266 88.2812-32.4219L98.3887-43.0664C108.301-53.5645 108.887-66.7969 99.6094-76.123C90.332-85.4492 76.9531-84.668 66.5527-74.8535L55.8594-64.6484C55.7129-64.5508 55.5664-64.4043 55.4199-64.2578L55.8594-64.6484C58.9355-67.3828 64.0625-66.6016 67.3828-63.2812L87.3535-43.3105C90.625-39.9902 90.918-35.4492 88.2812-32.4219ZM51.3672-11.3281C56.1035-6.5918 60.6445-6.49414 65.5273-11.3281L82.7148-28.6133C87.5488-33.4473 87.5-37.9395 82.7637-42.6758L66.2109-59.2285C61.4746-63.9648 56.9824-64.0137 52.0996-59.1797L34.8633-41.9922C29.9805-37.1094 30.127-32.5684 34.8633-27.832ZM56.1523-42.8711C54.6387-44.4336 54.6387-46.7285 56.1035-48.1934C57.666-49.7559 59.9121-49.7559 61.4258-48.1934C62.9395-46.7285 62.9883-44.4824 61.377-42.8711C59.9609-41.4551 57.6172-41.4551 56.1523-42.8711ZM45.8008-32.5684C44.2871-34.1309 44.2871-36.377 45.8008-37.9395C47.3633-39.502 49.6094-39.4043 51.1719-37.8906C52.5879-36.4258 52.6367-34.1309 51.1719-32.666C49.5605-31.0547 47.3145-31.1035 45.8008-32.5684ZM71.7285-32.5684C70.2637-31.1035 67.9688-31.1035 66.4062-32.666C64.9414-34.082 64.9414-36.4258 66.4062-37.8906C68.0176-39.502 70.2637-39.4043 71.7285-37.9395C73.291-36.377 73.291-34.1309 71.7285-32.5684ZM17.8711 5.66406C27.0508 15.0391 40.7227 14.5996 50.9277 4.3457L61.6211-6.44531C58.4961-3.27148 54.1992-3.125 50.7324-6.5918L30.7129-26.6602C27.2461-30.127 26.8066-35.0586 29.9316-38.1836L19.1895-27.3926C8.98438-17.1875 8.64258-3.75977 17.8711 5.66406ZM56.1035-22.3145C54.6387-23.7793 54.541-26.0254 56.1523-27.6367C57.666-29.1504 59.9609-29.0527 61.377-27.6367C62.9395-26.0742 62.9883-23.7793 61.4258-22.3145C59.8145-20.752 57.666-20.752 56.1035-22.3145Z"/>
  </g>
  <g id="Black-S" transform="matrix(1 0 0 1 2882.57 696)">
   <path d="M79.3945-32.0312L85.9863-39.209C95.3125-49.3652 95.0195-61.8164 86.1816-70.8008C77.3438-79.7852 64.7949-80.0293 54.5898-70.6055L47.4609-64.0137C52.7832-66.4062 57.2266-63.6719 61.1816-59.7168L75.0977-45.8008C79.1016-41.7969 81.7871-37.4023 79.3945-32.0312ZM45.6543-16.4062C49.9023-12.1582 53.9551-12.0605 58.3008-16.4062L69.873-27.9785C74.2676-32.373 74.1699-36.377 69.9219-40.625L56.0059-54.541C51.7578-58.7891 47.7539-58.8867 43.3594-54.4922L31.7871-42.9199C27.4414-38.5742 27.5391-34.5215 31.7871-30.2734ZM47.9492-41.3574C46.2891-43.0176 46.2891-45.6543 47.9004-47.2656C49.5605-48.9258 52.1484-48.9258 53.8086-47.2656C55.4199-45.6543 55.4688-43.0664 53.7109-41.3574C52.1484-39.8438 49.5117-39.7949 47.9492-41.3574ZM39.0137-32.5195C37.3535-34.1797 37.3535-36.7188 39.0137-38.4277C40.625-40.0879 43.2617-40.0391 44.9219-38.3301C46.4355-36.7676 46.5332-34.1797 44.9219-32.5684C43.1641-30.8105 40.625-30.9082 39.0137-32.5195ZM62.6465-32.5195C61.0352-30.9082 58.3984-30.9082 56.7383-32.5684C55.1758-34.1309 55.1758-36.8164 56.7383-38.3301C58.4961-40.0391 61.0352-40.0391 62.6465-38.4277C64.3066-36.7676 64.3066-34.1797 62.6465-32.5195ZM15.5273-0.146484C24.3652 8.83789 36.9141 9.08203 47.1191-0.341797L54.248-6.93359C48.9258-4.54102 44.4824-7.27539 40.5273-11.2305L26.6113-25.1465C22.6074-29.1504 19.9219-33.5449 22.3145-38.916L15.7227-31.7383C6.39648-21.582 6.68945-9.13086 15.5273-0.146484ZM47.9004-23.6328C46.2891-25.2441 46.1914-27.7832 47.9492-29.541C49.5605-31.1523 52.1973-31.1035 53.7109-29.541C55.3711-27.832 55.4688-25.2441 53.8086-23.6328C52.0996-21.9727 49.5605-21.9727 47.9004-23.6328Z"/>
  </g>
  <g id="Heavy-S" transform="matrix(1 0 0 1 2586.37 696)">
   <path d="M78.6133-32.666L85.0098-39.5996C94.2383-49.4629 93.9453-61.6211 85.3027-70.4102C76.6602-79.1992 64.4043-79.3945 54.4922-70.1172L47.6074-63.7207C52.4902-65.7227 56.6895-63.4277 60.6445-59.4727L74.4629-45.6055C78.4668-41.6504 80.6152-37.5977 78.6133-32.666ZM44.9219-16.2598C49.0723-12.1094 53.0273-12.0117 57.2754-16.2598L69.4336-28.418C73.7305-32.7148 73.6328-36.6211 69.4824-40.7715L55.6641-54.5898C51.5137-58.7402 47.6074-58.8379 43.3105-54.541L31.1523-42.3828C26.9043-38.1348 27.002-34.1797 31.1523-30.0293ZM47.4609-41.2109C45.8496-42.8223 45.8496-45.3613 47.4121-46.9727C49.0723-48.584 51.5625-48.584 53.2227-46.9727C54.7852-45.3613 54.834-42.8711 53.125-41.2109C51.6113-39.6973 49.0234-39.6484 47.4609-41.2109ZM38.7207-32.5195C37.1094-34.1797 37.1094-36.6699 38.7207-38.2812C40.332-39.9414 42.8711-39.8926 44.5312-38.2324C45.9961-36.7188 46.0938-34.1797 44.5312-32.5684C42.8223-30.8594 40.332-30.957 38.7207-32.5195ZM61.8652-32.5195C60.3027-30.957 57.7148-30.957 56.1035-32.5684C54.541-34.1309 54.541-36.7188 56.1035-38.2324C57.8125-39.8926 60.3027-39.8926 61.8652-38.2812C63.4766-36.6699 63.4766-34.1797 61.8652-32.5195ZM15.332-0.439453C23.9746 8.34961 36.2305 8.54492 46.1426-0.732422L53.0273-7.12891C48.1445-5.12695 43.9453-7.42188 39.9902-11.377L26.1719-25.1953C22.168-29.1992 20.0195-33.252 22.0215-38.1836L15.625-31.2012C6.39648-21.3867 6.68945-9.22852 15.332-0.439453ZM47.4121-23.8281C45.8496-25.4395 45.752-27.9297 47.4609-29.6387C49.0723-31.2012 51.6113-31.1523 53.125-29.6387C54.7363-27.9785 54.834-25.4395 53.2227-23.8281C51.5137-22.2168 49.0723-22.2168 47.4121-23.8281Z"/>
  </g>
  <g id="Bold-S" transform="matrix(1 0 0 1 2290.22 696)">
   <path d="M77.7832-33.3496L83.9355-40.0879C93.0176-49.5605 92.7734-61.377 84.3262-69.9219C75.8789-78.5156 63.9648-78.7109 54.4434-69.5312L47.7539-63.3789C52.1973-64.8926 56.1035-63.1348 60.0586-59.1797L73.8281-45.459C77.7832-41.4551 79.2969-37.793 77.7832-33.3496ZM44.1406-16.0645C48.1934-12.0605 52.0508-11.9629 56.2012-16.0645L68.9941-28.9062C73.1934-33.1055 73.0957-36.9141 69.043-40.9668L55.3223-54.6875C51.2695-58.7402 47.4609-58.7891 43.2617-54.6387L30.4688-41.7969C26.3184-37.6465 26.416-33.7891 30.4688-29.7363ZM46.9727-41.0156C45.4102-42.5781 45.4102-45.0684 46.9238-46.6309C48.5352-48.1934 50.9766-48.1934 52.5391-46.6309C54.1016-45.0684 54.1504-42.627 52.4902-41.0156C50.9766-39.5508 48.4863-39.502 46.9727-41.0156ZM38.4766-32.5684C36.9141-34.1309 36.9141-36.5723 38.4766-38.1836C40.0391-39.7461 42.4805-39.6973 44.0918-38.0859C45.5566-36.6211 45.6055-34.1309 44.0918-32.6172C42.4316-30.957 39.9902-31.0059 38.4766-32.5684ZM60.9863-32.5684C59.4727-31.0059 56.9824-31.0059 55.3711-32.6172C53.9062-34.082 53.9062-36.6211 55.3711-38.0859C57.0312-39.7461 59.4727-39.6973 60.9863-38.1836C62.5977-36.5723 62.5977-34.1309 60.9863-32.5684ZM15.1855-0.78125C23.584 7.76367 35.498 7.95898 45.0195-1.17188L51.709-7.32422C47.3145-5.81055 43.4082-7.56836 39.4531-11.5234L25.6836-25.293C21.7285-29.248 20.2148-32.9102 21.7285-37.3535L15.5762-30.6641C6.44531-21.1426 6.73828-9.32617 15.1855-0.78125ZM46.9238-24.0723C45.4102-25.6348 45.3613-28.0273 46.9727-29.6875C48.5352-31.25 51.0254-31.2012 52.4902-29.6875C54.0527-28.0762 54.1504-25.6348 52.5391-24.0723C50.9277-22.5098 48.5352-22.5098 46.9238-24.0723Z"/>
  </g>
  <g id="Semibold-S" transform="matrix(1 0 0 1 1993.93 696)">
   <path d="M77.1973-33.8379L83.2031-40.3809C92.1875-49.6582 91.9434-61.2305 83.6426-69.6289C75.3906-78.0273 63.7207-78.2227 54.3945-69.1406L47.9004-63.1836C51.9531-64.3555 55.7129-62.9395 59.668-58.9844L73.3398-45.3125C77.2949-41.3574 78.3691-37.9395 77.1973-33.8379ZM43.5547-15.9668C47.5586-12.0117 51.3672-11.9141 55.4199-15.9668L68.7012-29.1992C72.8027-33.3496 72.7051-37.1094 68.75-41.0645L55.127-54.7363C51.123-58.6914 47.3633-58.7891 43.2617-54.6875L29.9805-41.4062C25.9277-37.3535 26.0254-33.5449 29.9805-29.541ZM46.6309-40.8691C45.1172-42.4316 45.1172-44.873 46.582-46.3867C48.1445-47.9492 50.5371-47.9492 52.0996-46.3867C53.6133-44.873 53.6621-42.4805 52.0508-40.8691C50.5859-39.4531 48.0957-39.4043 46.6309-40.8691ZM38.2812-32.5684C36.7188-34.1309 36.7188-36.5234 38.2812-38.0859C39.7949-39.5996 42.2363-39.5508 43.7988-37.9883C45.2148-36.5723 45.2637-34.1309 43.7988-32.6172C42.1875-31.0059 39.7949-31.0547 38.2812-32.5684ZM60.4004-32.5684C58.8867-31.0547 56.4453-31.0547 54.8828-32.6172C53.4668-34.082 53.4668-36.5723 54.8828-37.9883C56.543-39.5996 58.8867-39.5508 60.4004-38.0859C61.9629-36.5234 61.9629-34.1309 60.4004-32.5684ZM15.0391-1.02539C23.291 7.37305 35.0098 7.56836 44.2871-1.51367L50.7812-7.4707C46.7285-6.29883 43.0176-7.71484 39.0625-11.6211L25.3418-25.3418C21.3867-29.2969 20.3125-32.666 21.5332-36.7676L15.5273-30.2734C6.49414-20.9961 6.78711-9.42383 15.0391-1.02539ZM46.582-24.2676C45.1172-25.7324 45.0195-28.125 46.6309-29.7363C48.1445-31.25 50.5859-31.2012 52.0508-29.7363C53.5645-28.1738 53.6621-25.7324 52.0996-24.2676C50.4883-22.7051 48.1445-22.7051 46.582-24.2676Z"/>
  </g>
  <g id="Medium-S" transform="matrix(1 0 0 1 1697.51 696)">
   <path d="M76.7578-34.2285L82.6172-40.625C91.6016-49.707 91.3086-61.1328 83.1543-69.3848C75-77.6855 63.4766-77.832 54.3945-68.8477L47.998-62.9883C51.8066-63.9648 55.4199-62.793 59.375-58.8379L72.998-45.2148C76.9531-41.2598 77.6855-38.0371 76.7578-34.2285ZM43.1641-15.8691C47.0703-11.9629 50.8301-11.8652 54.8828-15.8691L68.457-29.4922C72.5098-33.5449 72.4121-37.2559 68.5059-41.1621L54.9316-54.7363C51.0254-58.6914 47.3145-58.7402 43.2129-54.6875L29.6387-41.1133C25.6348-37.1094 25.7324-33.3008 29.6387-29.3945ZM46.3867-40.7715C44.873-42.2852 44.873-44.7266 46.3379-46.1914C47.8516-47.7051 50.2441-47.7051 51.7578-46.1914C53.2227-44.7266 53.2715-42.334 51.709-40.7715C50.293-39.3555 47.8027-39.3555 46.3867-40.7715ZM38.1348-32.5684C36.6211-34.1309 36.6211-36.4746 38.1348-37.9883C39.6484-39.5508 42.041-39.502 43.5547-37.9395C44.9707-36.5234 45.0195-34.1309 43.5547-32.6172C41.9922-31.0547 39.5996-31.1035 38.1348-32.5684ZM59.9609-32.5684C58.4961-31.1035 56.0547-31.1035 54.541-32.6172C53.125-34.082 53.125-36.5234 54.541-37.9395C56.1035-39.502 58.4961-39.502 59.9609-37.9883C61.4746-36.4746 61.4746-34.1309 59.9609-32.5684ZM14.9414-1.17188C23.0957 7.08008 34.6191 7.27539 43.7012-1.70898L50.0977-7.61719C46.2891-6.64062 42.7246-7.76367 38.7695-11.7188L25.0977-25.3418C21.1426-29.2969 20.4102-32.5195 21.3379-36.3281L15.4785-29.9316C6.49414-20.8984 6.78711-9.47266 14.9414-1.17188ZM46.3379-24.3652C44.873-25.8789 44.8242-28.2227 46.3867-29.7852C47.8516-31.2988 50.293-31.25 51.709-29.7852C53.2227-28.2715 53.2715-25.8789 51.7578-24.3652C50.1953-22.8516 47.8516-22.8516 46.3379-24.3652Z"/>
  </g>
  <g id="Regular-S" transform="matrix(1 0 0 1 1401.19 696)">
   <path d="M76.1719-34.7168L81.8848-40.918C90.7715-49.8047 90.5273-60.9863 82.5195-69.0918C74.4629-77.1973 63.1836-77.3438 54.3457-68.5059L48.0957-62.793C51.6113-63.4277 55.0293-62.5977 58.9844-58.6426L72.5586-45.0684C76.5137-41.1133 76.8066-38.1836 76.1719-34.7168ZM42.627-15.7715C46.4844-11.9141 50.1953-11.8164 54.1016-15.7715L68.1641-29.7852C72.168-33.7891 72.0703-37.4512 68.2129-41.3086L54.6875-54.7852C50.8301-58.6426 47.2168-58.7402 43.2129-54.7363L29.1504-40.7227C25.2441-36.7676 25.3418-33.0566 29.1504-29.1992ZM46.0449-40.6738C44.5801-42.1387 44.5801-44.5312 45.9961-45.9473C47.5098-47.4609 49.8047-47.4609 51.3184-45.9473C52.7832-44.5312 52.832-42.1875 51.2695-40.6738C49.8535-39.2578 47.4609-39.2578 46.0449-40.6738ZM37.9395-32.6172C36.4746-34.082 36.4746-36.4258 37.9395-37.8906C39.4531-39.4043 41.748-39.3555 43.2617-37.8418C44.6777-36.4746 44.7266-34.082 43.2617-32.666C41.6992-31.1035 39.4043-31.1523 37.9395-32.6172ZM59.375-32.6172C57.9102-31.1523 55.5664-31.1523 54.0527-32.666C52.6855-34.0332 52.6855-36.4746 54.0527-37.8418C55.6152-39.4043 57.9102-39.3555 59.375-37.8906C60.8887-36.4258 60.8887-34.082 59.375-32.6172ZM14.8438-1.41602C22.8516 6.68945 34.1309 6.88477 42.9688-2.00195L49.1699-7.76367C45.7031-7.08008 42.334-7.86133 38.3789-11.8164L24.8047-25.3906C20.8496-29.3457 20.5078-32.2754 21.1426-35.791L15.4297-29.541C6.54297-20.7031 6.78711-9.52148 14.8438-1.41602ZM45.9961-24.5605C44.5801-25.9766 44.5312-28.3203 46.0449-29.834C47.5098-31.2988 49.8535-31.25 51.2695-29.834C52.7832-28.3691 52.832-25.9766 51.3184-24.5605C49.7559-23.0469 47.5098-23.0469 45.9961-24.5605Z"/>
  </g>
  <g id="Light-S" transform="matrix(1 0 0 1 1105.31 696)">
   <path d="M73.877-34.0332L80.3711-41.0645C88.916-49.7559 88.8672-60.6445 81.1035-68.5059C73.3398-76.3672 62.3047-76.3184 53.6621-67.7734L46.6309-61.2793C49.8047-62.5 53.4668-61.7676 57.0312-58.2031L71.2891-43.9941C74.8047-40.4297 75.0977-37.207 73.877-34.0332ZM41.8945-16.0156C45.7031-12.207 49.3164-12.1094 53.2227-16.0156L67.0898-29.8828C71.0449-33.7891 70.9473-37.4023 67.1387-41.2109L53.8086-54.541C50-58.3496 46.3867-58.4473 42.4805-54.4922L28.5645-40.6738C24.707-36.7676 24.8047-33.1055 28.5645-29.2969ZM45.4102-40.8203C43.9941-42.2363 43.9941-44.4336 45.3613-45.8008C46.7773-47.2168 48.9258-47.2168 50.3418-45.8008C51.6602-44.4336 51.709-42.2852 50.293-40.8203C48.9746-39.502 46.7285-39.502 45.4102-40.8203ZM58.3984-32.7637C57.0312-31.3965 54.834-31.3965 53.418-32.8125C52.0996-34.1309 52.0996-36.377 53.418-37.6953C54.8828-39.1602 57.0312-39.1113 58.3984-37.7441C59.7656-36.3281 59.7656-34.1797 58.3984-32.7637ZM37.3047-32.7637C35.8887-34.1797 35.8887-36.3281 37.3047-37.7441C38.7207-39.1602 40.8691-39.1113 42.2852-37.6953C43.5547-36.377 43.6035-34.1797 42.2852-32.8125C40.8203-31.3477 38.6719-31.3965 37.3047-32.7637ZM14.5508-1.95312C22.3145 5.9082 33.4473 5.9082 41.9922-2.73438L48.9258-9.27734C45.752-8.05664 42.3828-8.59375 38.8184-12.1094L24.5605-26.3672C20.9961-29.9316 20.6543-33.1543 21.875-36.3281L15.2832-29.3945C6.68945-20.8496 6.78711-9.86328 14.5508-1.95312ZM45.3613-24.707C43.9941-26.0742 43.9453-28.2227 45.4102-29.6875C46.7773-31.0547 48.9746-31.0059 50.293-29.6875C51.6602-28.2715 51.709-26.0742 50.3418-24.707C48.877-23.291 46.7773-23.291 45.3613-24.707Z"/>
  </g>
  <g id="Thin-S" transform="matrix(1 0 0 1 809.694 696)">
   <path d="M70.8008-33.2031L78.3691-41.2598C86.4746-49.6582 86.7188-60.2539 79.248-67.7734C71.7773-75.293 61.084-74.9023 52.7344-66.8945L44.7266-59.3262C47.4121-61.2793 51.416-60.6445 54.4922-57.6172L69.5801-42.5293C72.6074-39.4531 72.7539-35.8887 70.8008-33.2031ZM40.8691-16.3086C44.6289-12.5488 48.2422-12.4512 52.0996-16.3086L65.7227-29.9805C69.5801-33.8379 69.4824-37.4023 65.7715-41.1133L52.6367-54.248C48.877-58.0078 45.3125-58.0566 41.4551-54.1992L27.832-40.5762C23.9746-36.7188 24.0723-33.1055 27.832-29.3945ZM44.5801-41.0645C43.2617-42.334 43.2617-44.3359 44.5312-45.5566C45.8008-46.875 47.7051-46.875 49.0234-45.5566C50.2441-44.3359 50.293-42.3828 48.9746-41.0645C47.7539-39.8438 45.752-39.8438 44.5801-41.0645ZM57.0801-33.0078C55.8105-31.7383 53.8574-31.7383 52.5879-33.0566C51.3672-34.2285 51.3672-36.2793 52.5879-37.4512C53.9062-38.8184 55.8105-38.7695 57.0801-37.5C58.3496-36.2305 58.3496-34.2773 57.0801-33.0078ZM36.4746-33.0078C35.1562-34.2773 35.1562-36.2305 36.4746-37.5C37.7441-38.8184 39.6484-38.7695 40.9668-37.4512C42.1387-36.2793 42.1875-34.2773 40.9668-33.0566C39.5996-31.6895 37.6953-31.7383 36.4746-33.0078ZM14.209-2.68555C21.6309 4.88281 32.5195 4.63867 40.7227-3.61328L48.5352-11.3281C45.8008-9.32617 42.4316-9.47266 39.3555-12.5488L24.2676-27.6367C21.1914-30.7129 20.8496-34.3262 22.8027-37.0605L15.1367-29.248C6.88477-20.9961 6.78711-10.2539 14.209-2.68555ZM44.5312-24.9512C43.2617-26.1719 43.2129-28.125 44.5801-29.4434C45.8008-30.7129 47.7539-30.6641 48.9746-29.4434C50.2441-28.1738 50.293-26.1719 49.0234-24.9512C47.6562-23.6328 45.8008-23.6328 44.5312-24.9512Z"/>
  </g>
  <g id="Ultralight-S" transform="matrix(1 0 0 1 513.544 696)">
   <path d="M69.2383-32.7637L77.3926-41.3574C85.2539-49.6094 85.6445-60.0098 78.3203-67.3828C70.9961-74.7559 60.498-74.1699 52.2949-66.4062L43.7012-58.3008C46.1426-60.6445 50.3906-60.1074 53.1738-57.2754L68.7012-41.7969C71.4844-38.9648 71.582-35.2051 69.2383-32.7637ZM40.3809-16.4551C44.0918-12.7441 47.6562-12.6465 51.5137-16.4551L64.9902-30.0293C68.7988-33.8379 68.75-37.3535 65.0391-41.0645L52.0508-54.1016C48.291-57.8125 44.7754-57.8613 40.9668-54.0527L27.4414-40.5273C23.584-36.7188 23.6816-33.1543 27.4414-29.4434ZM44.1406-41.1621C42.8711-42.4316 42.8711-44.2383 44.0918-45.459C45.3125-46.6797 47.1191-46.6797 48.3398-45.459C49.5117-44.2383 49.5605-42.4805 48.291-41.1621C47.168-40.0391 45.2637-40.0391 44.1406-41.1621ZM36.0352-33.1055C34.7656-34.375 34.7656-36.1328 36.0352-37.4023C37.2559-38.623 39.0625-38.5742 40.2832-37.3535C41.4062-36.1816 41.4551-34.375 40.2832-33.1543C39.0137-31.8848 37.207-31.9336 36.0352-33.1055ZM56.3965-33.1055C55.2246-31.9336 53.3691-31.9336 52.1484-33.1543C50.9766-34.3262 50.9766-36.1816 52.1484-37.3535C53.418-38.623 55.2246-38.5742 56.3965-37.4023C57.6172-36.1328 57.6172-34.375 56.3965-33.1055ZM14.0625-3.07617C21.2891 4.3457 32.0312 4.00391 40.0879-4.10156L48.3398-12.3535C45.8496-10.0098 42.4805-9.96094 39.6484-12.7441L24.0723-28.3203C21.2891-31.1035 20.9473-34.9121 23.291-37.4023L15.0391-29.1016C6.98242-21.0938 6.78711-10.498 14.0625-3.07617ZM44.0918-25.0488C42.8711-26.2695 42.8223-28.0273 44.1406-29.3457C45.3125-30.5176 47.168-30.4688 48.291-29.3457C49.5117-28.0762 49.5605-26.2695 48.3398-25.0488C47.0703-23.8281 45.3125-23.8281 44.0918-25.0488Z"/>
  </g>
 </g>
</svg>
