<?xml version="1.0" encoding="UTF-8"?>
<!--Generator: Apple Native CoreSVG 149-->
<!DOCTYPE svg
PUBLIC "-//W3C//DTD SVG 1.1//EN"
       "http://www.w3.org/Graphics/SVG/1.1/DTD/svg11.dtd">
<svg version="1.1" xmlns="http://www.w3.org/2000/svg" xmlns:xlink="http://www.w3.org/1999/xlink" width="3300" height="2200">
 <!--glyph: "uni10043F.medium", point size: 100.000000, font version: "Version 16.0d18e1", template writer version: "8"-->
 <g id="Notes">
  <rect height="2200" id="artboard" style="fill:white;opacity:1" width="3300" x="0" y="0"/>
  <line id="" style="fill:none;stroke:black;opacity:1;stroke-width:0.5;" x1="263" x2="3036" y1="292" y2="292"/>
  <text style="stroke:none;fill:black;font-family:-apple-system,&quot;SF Pro Display&quot;,&quot;SF Pro Text&quot;,Helvetica,sans-serif;font-weight:bold;" transform="matrix(1 0 0 1 263 322)">Weight/Scale Variations</text>
  <text style="stroke:none;fill:black;font-family:-apple-system,&quot;SF Pro Display&quot;,&quot;SF Pro Text&quot;,Helvetica,sans-serif;text-anchor:middle;" transform="matrix(1 0 0 1 559.711 322)">Ultralight</text>
  <text style="stroke:none;fill:black;font-family:-apple-system,&quot;SF Pro Display&quot;,&quot;SF Pro Text&quot;,Helvetica,sans-serif;text-anchor:middle;" transform="matrix(1 0 0 1 856.422 322)">Thin</text>
  <text style="stroke:none;fill:black;font-family:-apple-system,&quot;SF Pro Display&quot;,&quot;SF Pro Text&quot;,Helvetica,sans-serif;text-anchor:middle;" transform="matrix(1 0 0 1 1153.13 322)">Light</text>
  <text style="stroke:none;fill:black;font-family:-apple-system,&quot;SF Pro Display&quot;,&quot;SF Pro Text&quot;,Helvetica,sans-serif;text-anchor:middle;" transform="matrix(1 0 0 1 1449.84 322)">Regular</text>
  <text style="stroke:none;fill:black;font-family:-apple-system,&quot;SF Pro Display&quot;,&quot;SF Pro Text&quot;,Helvetica,sans-serif;text-anchor:middle;" transform="matrix(1 0 0 1 1746.56 322)">Medium</text>
  <text style="stroke:none;fill:black;font-family:-apple-system,&quot;SF Pro Display&quot;,&quot;SF Pro Text&quot;,Helvetica,sans-serif;text-anchor:middle;" transform="matrix(1 0 0 1 2043.27 322)">Semibold</text>
  <text style="stroke:none;fill:black;font-family:-apple-system,&quot;SF Pro Display&quot;,&quot;SF Pro Text&quot;,Helvetica,sans-serif;text-anchor:middle;" transform="matrix(1 0 0 1 2339.98 322)">Bold</text>
  <text style="stroke:none;fill:black;font-family:-apple-system,&quot;SF Pro Display&quot;,&quot;SF Pro Text&quot;,Helvetica,sans-serif;text-anchor:middle;" transform="matrix(1 0 0 1 2636.69 322)">Heavy</text>
  <text style="stroke:none;fill:black;font-family:-apple-system,&quot;SF Pro Display&quot;,&quot;SF Pro Text&quot;,Helvetica,sans-serif;text-anchor:middle;" transform="matrix(1 0 0 1 2933.4 322)">Black</text>
  <line id="" style="fill:none;stroke:black;opacity:1;stroke-width:0.5;" x1="263" x2="3036" y1="1903" y2="1903"/>
  <g id="" transform="matrix(1 0 0 1 263 1933)">
   <path d="M9.24805 0.830078C13.5547 0.830078 17.1387-2.74414 17.1387-7.05078C17.1387-11.3574 13.5449-14.9316 9.23828-14.9316C4.94141-14.9316 1.36719-11.3574 1.36719-7.05078C1.36719-2.74414 4.95117 0.830078 9.24805 0.830078ZM9.24805-0.654297C5.70312-0.654297 2.87109-3.49609 2.87109-7.05078C2.87109-10.6055 5.69336-13.4473 9.23828-13.4473C12.793-13.4473 15.6348-10.6055 15.6445-7.05078C15.6543-3.49609 12.8027-0.654297 9.24805-0.654297ZM6.39648-6.31836L8.50586-6.31836L8.50586-4.19922C8.50586-3.75977 8.79883-3.45703 9.22852-3.45703C9.67773-3.45703 9.9707-3.75977 9.9707-4.19922L9.9707-6.31836L12.0996-6.31836C12.5391-6.31836 12.8418-6.61133 12.8418-7.04102C12.8418-7.48047 12.5391-7.7832 12.0996-7.7832L9.9707-7.7832L9.9707-9.89258C9.9707-10.3418 9.67773-10.6445 9.22852-10.6445C8.79883-10.6445 8.50586-10.3418 8.50586-9.89258L8.50586-7.7832L6.39648-7.7832C5.94727-7.7832 5.64453-7.48047 5.64453-7.04102C5.64453-6.61133 5.94727-6.31836 6.39648-6.31836Z"/>
  </g>
  <g id="" transform="matrix(1 0 0 1 281.506 1933)">
   <path d="M11.709 2.91016C17.1582 2.91016 21.6699-1.61133 21.6699-7.05078C21.6699-12.5 17.1484-17.0117 11.6992-17.0117C6.25977-17.0117 1.74805-12.5 1.74805-7.05078C1.74805-1.61133 6.26953 2.91016 11.709 2.91016ZM11.709 1.25C7.09961 1.25 3.41797-2.44141 3.41797-7.05078C3.41797-11.6602 7.08984-15.3516 11.6992-15.3516C16.3086-15.3516 20-11.6602 20.0098-7.05078C20.0195-2.44141 16.3184 1.25 11.709 1.25ZM7.98828-6.23047L10.8789-6.23047L10.8789-3.32031C10.8789-2.83203 11.2109-2.5 11.6895-2.5C12.1777-2.5 12.5195-2.83203 12.5195-3.32031L12.5195-6.23047L15.4297-6.23047C15.918-6.23047 16.25-6.5625 16.25-7.04102C16.25-7.5293 15.918-7.87109 15.4297-7.87109L12.5195-7.87109L12.5195-10.7617C12.5195-11.2695 12.1777-11.6016 11.6895-11.6016C11.2109-11.6016 10.8789-11.2598 10.8789-10.7617L10.8789-7.87109L7.98828-7.87109C7.48047-7.87109 7.14844-7.5293 7.14844-7.04102C7.14844-6.5625 7.49023-6.23047 7.98828-6.23047Z"/>
  </g>
  <g id="" transform="matrix(1 0 0 1 304.924 1933)">
   <path d="M14.9707 5.66406C21.9336 5.66406 27.6953-0.0976562 27.6953-7.05078C27.6953-14.0137 21.9238-19.7754 14.9609-19.7754C8.00781-19.7754 2.25586-14.0137 2.25586-7.05078C2.25586-0.0976562 8.01758 5.66406 14.9707 5.66406ZM14.9707 3.84766C8.93555 3.84766 4.08203-1.01562 4.08203-7.05078C4.08203-13.0957 8.92578-17.9492 14.9609-17.9492C21.0059-17.9492 25.8594-13.0957 25.8691-7.05078C25.8789-1.01562 21.0156 3.84766 14.9707 3.84766ZM10.0586-6.14258L14.0625-6.14258L14.0625-2.12891C14.0625-1.5918 14.4336-1.2207 14.9512-1.2207C15.4883-1.2207 15.8594-1.5918 15.8594-2.12891L15.8594-6.14258L19.8828-6.14258C20.4102-6.14258 20.791-6.51367 20.791-7.03125C20.791-7.56836 20.4199-7.94922 19.8828-7.94922L15.8594-7.94922L15.8594-11.9531C15.8594-12.5098 15.4883-12.8809 14.9512-12.8809C14.4336-12.8809 14.0625-12.5 14.0625-11.9531L14.0625-7.94922L10.0586-7.94922C9.50195-7.94922 9.13086-7.56836 9.13086-7.03125C9.13086-6.51367 9.51172-6.14258 10.0586-6.14258Z"/>
  </g>
  <text style="stroke:none;fill:black;font-family:-apple-system,&quot;SF Pro Display&quot;,&quot;SF Pro Text&quot;,Helvetica,sans-serif;font-weight:bold;" transform="matrix(1 0 0 1 263 1953)">Design Variations</text>
  <text style="stroke:none;fill:black;font-family:-apple-system,&quot;SF Pro Display&quot;,&quot;SF Pro Text&quot;,Helvetica,sans-serif;" transform="matrix(1 0 0 1 263 1971)">Symbols are supported in up to nine weights and three scales.</text>
  <text style="stroke:none;fill:black;font-family:-apple-system,&quot;SF Pro Display&quot;,&quot;SF Pro Text&quot;,Helvetica,sans-serif;" transform="matrix(1 0 0 1 263 1989)">For optimal layout with text and other symbols, vertically align</text>
  <text style="stroke:none;fill:black;font-family:-apple-system,&quot;SF Pro Display&quot;,&quot;SF Pro Text&quot;,Helvetica,sans-serif;" transform="matrix(1 0 0 1 263 2007)">symbols with the adjacent text.</text>
  <line id="" style="fill:none;stroke:#00AEEF;stroke-width:0.5;opacity:1.0;" x1="776" x2="776" y1="1919" y2="1933"/>
  <g id="" transform="matrix(1 0 0 1 776 1933)">
   <path d="M3.31055 0.126953C3.82812 0.126953 4.08203-0.0683594 4.26758-0.605469L5.52734-4.0625L11.2891-4.0625L12.5488-0.605469C12.7344-0.0683594 12.9883 0.126953 13.4961 0.126953C14.0137 0.126953 14.3457-0.185547 14.3457-0.673828C14.3457-0.839844 14.3164-0.986328 14.2383-1.20117L9.6582-13.3887C9.43359-13.9941 9.0332-14.2871 8.4082-14.2871C7.80273-14.2871 7.39258-13.9941 7.17773-13.3984L2.59766-1.19141C2.51953-0.976562 2.49023-0.830078 2.49023-0.664062C2.49023-0.175781 2.80273 0.126953 3.31055 0.126953ZM6.00586-5.53711L8.37891-12.1094L8.42773-12.1094L10.8008-5.53711Z"/>
  </g>
  <line id="" style="fill:none;stroke:#00AEEF;stroke-width:0.5;opacity:1.0;" x1="792.836" x2="792.836" y1="1919" y2="1933"/>
  <text style="stroke:none;fill:black;font-family:-apple-system,&quot;SF Pro Display&quot;,&quot;SF Pro Text&quot;,Helvetica,sans-serif;font-weight:bold;" transform="matrix(1 0 0 1 776 1953)">Margins</text>
  <text style="stroke:none;fill:black;font-family:-apple-system,&quot;SF Pro Display&quot;,&quot;SF Pro Text&quot;,Helvetica,sans-serif;" transform="matrix(1 0 0 1 776 1971)">Leading and trailing margins on the left and right side of each symbol</text>
  <text style="stroke:none;fill:black;font-family:-apple-system,&quot;SF Pro Display&quot;,&quot;SF Pro Text&quot;,Helvetica,sans-serif;" transform="matrix(1 0 0 1 776 1989)">can be adjusted by modifying the x-location of the margin guidelines.</text>
  <text style="stroke:none;fill:black;font-family:-apple-system,&quot;SF Pro Display&quot;,&quot;SF Pro Text&quot;,Helvetica,sans-serif;" transform="matrix(1 0 0 1 776 2007)">Modifications are automatically applied proportionally to all</text>
  <text style="stroke:none;fill:black;font-family:-apple-system,&quot;SF Pro Display&quot;,&quot;SF Pro Text&quot;,Helvetica,sans-serif;" transform="matrix(1 0 0 1 776 2025)">scales and weights.</text>
  <g id="" transform="matrix(1 0 0 1 1289 1933)">
   <path d="M2.8418 1.86523L4.54102 3.57422C5.40039 4.44336 6.38672 4.38477 7.31445 3.35938L17.4902-7.85156C17.7539-7.76367 18.0273-7.7832 18.3398-7.8418L19.4043-8.03711L20.0684-7.36328L20.0293-6.80664C19.9902-6.30859 20.1172-5.92773 20.6055-5.44922L21.3672-4.70703C21.8457-4.22852 22.4609-4.19922 22.9297-4.66797L25.8398-7.58789C26.3086-8.05664 26.2891-8.65234 25.8105-9.13086L25.0391-9.89258C24.5605-10.3711 24.1895-10.5273 23.7109-10.4883L23.1348-10.4395L22.4902-11.0742L22.7344-12.1973C22.8613-12.7637 22.7051-13.2031 22.1191-13.7891L19.9219-15.9766C16.582-19.2969 12.1484-19.2188 9.25781-16.3281C8.83789-15.918 8.80859-15.3418 9.04297-14.9512C9.27734-14.5898 9.73633-14.3555 10.3809-14.5215C11.8457-14.8633 13.3691-14.9219 14.7949-13.9844L14.209-12.5293C14.0137-12.0508 13.9844-11.6504 14.1113-11.2891L3.04688-0.898438C2.06055 0.0195312 1.98242 0.996094 2.8418 1.86523ZM10.752-15.957C13.1836-17.7344 16.4746-17.4316 18.7012-15.2051L21.1328-12.793C21.3672-12.5586 21.4062-12.373 21.3379-12.0312L21.0156-10.5469L22.5195-9.0625L23.5059-9.12109C23.7598-9.13086 23.8379-9.11133 24.0332-8.91602L24.6094-8.33984L22.168-5.89844L21.5918-6.47461C21.3965-6.66992 21.3672-6.74805 21.377-7.01172L21.4453-7.98828L19.9512-9.47266L18.4277-9.21875C18.1055-9.15039 17.959-9.17969 17.7148-9.41406L15.7129-11.416C15.459-11.6504 15.4297-11.8164 15.5859-12.1875L16.4648-14.2773C14.9023-15.7324 12.8711-16.3574 10.8398-15.7617C10.6836-15.7227 10.625-15.8496 10.752-15.957ZM5.27344 2.30469L4.10156 1.14258C3.63281 0.683594 3.74023 0.341797 4.14062-0.0195312L14.9512-10.1953L16.416-8.71094L6.42578 2.27539C6.07422 2.67578 5.74219 2.77344 5.27344 2.30469Z"/>
  </g>
  <text style="stroke:none;fill:black;font-family:-apple-system,&quot;SF Pro Display&quot;,&quot;SF Pro Text&quot;,Helvetica,sans-serif;font-weight:bold;" transform="matrix(1 0 0 1 1289 1953)">Exporting</text>
  <text style="stroke:none;fill:black;font-family:-apple-system,&quot;SF Pro Display&quot;,&quot;SF Pro Text&quot;,Helvetica,sans-serif;" transform="matrix(1 0 0 1 1289 1971)">Symbols should be outlined when exporting to ensure the</text>
  <text style="stroke:none;fill:black;font-family:-apple-system,&quot;SF Pro Display&quot;,&quot;SF Pro Text&quot;,Helvetica,sans-serif;" transform="matrix(1 0 0 1 1289 1989)">design is preserved when submitting to Xcode.</text>
  <text id="template-version" style="stroke:none;fill:black;font-family:-apple-system,&quot;SF Pro Display&quot;,&quot;SF Pro Text&quot;,Helvetica,sans-serif;text-anchor:end;" transform="matrix(1 0 0 1 3036 1933)">Template v.2.0</text>
  <text style="stroke:none;fill:black;font-family:-apple-system,&quot;SF Pro Display&quot;,&quot;SF Pro Text&quot;,Helvetica,sans-serif;text-anchor:end;" transform="matrix(1 0 0 1 3036 1951)">Requires Xcode 12 or greater</text>
  <text style="stroke:none;fill:black;font-family:-apple-system,&quot;SF Pro Display&quot;,&quot;SF Pro Text&quot;,Helvetica,sans-serif;text-anchor:end;" transform="matrix(1 0 0 1 3036 1969)">Generated from chart.bar.fill</text>
  <text style="stroke:none;fill:black;font-family:-apple-system,&quot;SF Pro Display&quot;,&quot;SF Pro Text&quot;,Helvetica,sans-serif;text-anchor:end;" transform="matrix(1 0 0 1 3036 1987)">Typeset at 100 points</text>
  <text style="stroke:none;fill:black;font-family:-apple-system,&quot;SF Pro Display&quot;,&quot;SF Pro Text&quot;,Helvetica,sans-serif;" transform="matrix(1 0 0 1 263 726)">Small</text>
  <text style="stroke:none;fill:black;font-family:-apple-system,&quot;SF Pro Display&quot;,&quot;SF Pro Text&quot;,Helvetica,sans-serif;" transform="matrix(1 0 0 1 263 1156)">Medium</text>
  <text style="stroke:none;fill:black;font-family:-apple-system,&quot;SF Pro Display&quot;,&quot;SF Pro Text&quot;,Helvetica,sans-serif;" transform="matrix(1 0 0 1 263 1586)">Large</text>
 </g>
 <g id="Guides">
  <g id="H-reference" style="fill:#27AAE1;stroke:none;" transform="matrix(1 0 0 1 339 696)">
   <path d="M0.976562 0L3.66211 0L12.9883-24.4629L45.752-24.4629L55.127 0L57.7637 0L30.6152-70.459L28.125-70.459ZM29.3457-67.1387L29.4434-67.1387L44.873-26.709L13.8672-26.709Z"/>
  </g>
  <line id="Baseline-S" style="fill:none;stroke:#27AAE1;opacity:1;stroke-width:0.5;" x1="263" x2="3036" y1="696" y2="696"/>
  <line id="Capline-S" style="fill:none;stroke:#27AAE1;opacity:1;stroke-width:0.5;" x1="263" x2="3036" y1="625.541" y2="625.541"/>
  <g id="H-reference" style="fill:#27AAE1;stroke:none;" transform="matrix(1 0 0 1 339 1126)">
   <path d="M0.976562 0L3.66211 0L12.9883-24.4629L45.752-24.4629L55.127 0L57.7637 0L30.6152-70.459L28.125-70.459ZM29.3457-67.1387L29.4434-67.1387L44.873-26.709L13.8672-26.709Z"/>
  </g>
  <line id="Baseline-M" style="fill:none;stroke:#27AAE1;opacity:1;stroke-width:0.5;" x1="263" x2="3036" y1="1126" y2="1126"/>
  <line id="Capline-M" style="fill:none;stroke:#27AAE1;opacity:1;stroke-width:0.5;" x1="263" x2="3036" y1="1055.54" y2="1055.54"/>
  <g id="H-reference" style="fill:#27AAE1;stroke:none;" transform="matrix(1 0 0 1 339 1556)">
   <path d="M0.976562 0L3.66211 0L12.9883-24.4629L45.752-24.4629L55.127 0L57.7637 0L30.6152-70.459L28.125-70.459ZM29.3457-67.1387L29.4434-67.1387L44.873-26.709L13.8672-26.709Z"/>
  </g>
  <line id="Baseline-L" style="fill:none;stroke:#27AAE1;opacity:1;stroke-width:0.5;" x1="263" x2="3036" y1="1556" y2="1556"/>
  <line id="Capline-L" style="fill:none;stroke:#27AAE1;opacity:1;stroke-width:0.5;" x1="263" x2="3036" y1="1485.54" y2="1485.54"/>
  <line id="left-margin" style="fill:none;stroke:#00AEEF;stroke-width:0.5;opacity:1.0;" x1="1376.04" x2="1376.04" y1="1030.79" y2="1150.12"/>
  <line id="right-margin" style="fill:none;stroke:#00AEEF;stroke-width:0.5;opacity:1.0;" x1="1523.65" x2="1523.65" y1="1030.79" y2="1150.12"/>
 </g>
 <g id="Symbols">
  <g id="Black-L" transform="matrix(1 0 0 1 2827.27 1556)">
   <path d="M162.158 25.5371L177.148 25.5371C189.111 25.5371 196.191 18.3105 196.191 6.88477L196.191-77.1484C196.191-88.5742 189.111-95.8008 177.148-95.8008L162.158-95.8008C150.244-95.8008 143.164-88.5742 143.164-77.0996L143.164 6.88477C143.164 18.3105 150.244 25.5371 162.158 25.5371ZM98.584 25.5371L113.623 25.5371C125.537 25.5371 132.617 18.3105 132.617 6.88477L132.617-58.8379C132.617-70.2637 125.537-77.4902 113.623-77.4902L98.584-77.4902C86.6699-77.4902 79.5898-70.2637 79.5898-58.7891L79.5898 6.88477C79.5898 18.3105 86.6699 25.5371 98.584 25.5371ZM35.0586 25.5371L50.0488 25.5371C62.0117 25.5371 69.0918 18.3105 69.0918 6.88477L69.0918-40.1855C69.0918-51.5625 62.0117-58.7891 50.0488-58.7891L35.0586-58.7891C23.1445-58.7891 16.0645-51.5625 16.0645-40.0879L16.0645 6.88477C16.0645 18.3105 23.1445 25.5371 35.0586 25.5371Z"/>
  </g>
  <g id="Heavy-L" transform="matrix(1 0 0 1 2533.37 1556)">
   <path d="M157.178 24.9512L173.096 24.9512C184.18 24.9512 190.576 18.5059 190.576 7.91016L190.576-78.418C190.576-89.0137 184.18-95.459 173.096-95.459L157.178-95.459C146.143-95.459 139.746-89.0137 139.746-78.3691L139.746 7.91016C139.746 18.5059 146.143 24.9512 157.178 24.9512ZM95.3613 24.9512L111.279 24.9512C122.363 24.9512 128.76 18.5059 128.76 7.91016L128.76-60.0586C128.76-70.6543 122.363-77.1484 111.279-77.1484L95.3613-77.1484C84.2773-77.1484 77.8809-70.6543 77.8809-60.0098L77.8809 7.91016C77.8809 18.5059 84.2773 24.9512 95.3613 24.9512ZM33.4961 24.9512L49.4629 24.9512C60.498 24.9512 66.8945 18.5059 66.8945 7.91016L66.8945-41.5039C66.8945-52.0996 60.498-58.5938 49.4629-58.5938L33.4961-58.5938C22.4609-58.5938 16.0645-52.0996 16.0645-41.4551L16.0645 7.91016C16.0645 18.5059 22.4609 24.9512 33.4961 24.9512Z"/>
  </g>
  <g id="Bold-L" transform="matrix(1 0 0 1 2239.78 1556)">
   <path d="M151.611 24.3164L168.555 24.3164C178.662 24.3164 184.326 18.7012 184.326 8.98438L184.326-79.7852C184.326-89.4531 178.662-95.1172 168.555-95.1172L151.611-95.1172C141.553-95.1172 135.889-89.4531 135.889-79.7363L135.889 8.98438C135.889 18.7012 141.553 24.3164 151.611 24.3164ZM91.6992 24.3164L108.643 24.3164C118.75 24.3164 124.414 18.7012 124.414 8.98438L124.414-61.4258C124.414-71.1426 118.75-76.7578 108.643-76.7578L91.6992-76.7578C81.6406-76.7578 75.9766-71.1426 75.9766-61.4258L75.9766 8.98438C75.9766 18.7012 81.6406 24.3164 91.6992 24.3164ZM31.7871 24.3164L48.7305 24.3164C58.8379 24.3164 64.502 18.7012 64.502 8.98438L64.502-43.0176C64.502-52.7344 58.8379-58.3496 48.7305-58.3496L31.7871-58.3496C21.7285-58.3496 16.0645-52.7344 16.0645-42.9688L16.0645 8.98438C16.0645 18.7012 21.7285 24.3164 31.7871 24.3164Z"/>
  </g>
  <g id="Semibold-L" transform="matrix(1 0 0 1 1945.24 1556)">
   <path d="M147.754 23.877L165.43 23.877C174.854 23.877 179.98 18.8477 179.98 9.76562L179.98-80.7129C179.98-89.7949 174.854-94.8242 165.43-94.8242L147.754-94.8242C138.379-94.8242 133.252-89.7949 133.252-80.7129L133.252 9.76562C133.252 18.8477 138.379 23.877 147.754 23.877ZM89.1602 23.877L106.836 23.877C116.26 23.877 121.387 18.8477 121.387 9.76562L121.387-62.4023C121.387-71.4844 116.26-76.5137 106.836-76.5137L89.1602-76.5137C79.7852-76.5137 74.6582-71.4844 74.6582-62.3535L74.6582 9.76562C74.6582 18.8477 79.7852 23.877 89.1602 23.877ZM30.5664 23.877L48.2422 23.877C57.666 23.877 62.793 18.8477 62.793 9.76562L62.793-44.043C62.793-53.125 57.666-58.1543 48.2422-58.1543L30.5664-58.1543C21.1914-58.1543 16.0645-53.125 16.0645-44.043L16.0645 9.76562C16.0645 18.8477 21.1914 23.877 30.5664 23.877Z"/>
  </g>
  <g id="Medium-L" transform="matrix(1 0 0 1 1650.17 1556)">
   <path d="M144.824 23.584L163.037 23.584C171.973 23.584 176.709 18.9941 176.709 10.3516L176.709-81.4453C176.709-90.0391 171.973-94.6289 163.037-94.6289L144.824-94.6289C135.986-94.6289 131.25-90.0391 131.25-81.4453L131.25 10.3516C131.25 18.9941 135.986 23.584 144.824 23.584ZM87.2559 23.584L105.469 23.584C114.404 23.584 119.141 18.9941 119.141 10.3516L119.141-63.1348C119.141-71.7285 114.404-76.3184 105.469-76.3184L87.2559-76.3184C78.3691-76.3184 73.6328-71.7285 73.6328-63.0859L73.6328 10.3516C73.6328 18.9941 78.3691 23.584 87.2559 23.584ZM29.6875 23.584L47.9004 23.584C56.7871 23.584 61.5234 18.9941 61.5234 10.3516L61.5234-44.8242C61.5234-53.418 56.7871-58.0566 47.9004-58.0566L29.6875-58.0566C20.8008-58.0566 16.0645-53.418 16.0645-44.8242L16.0645 10.3516C16.0645 18.9941 20.8008 23.584 29.6875 23.584Z"/>
  </g>
  <g id="Regular-L" transform="matrix(1 0 0 1 1355.58 1556)">
   <path d="M141.064 23.1445L159.961 23.1445C168.213 23.1445 172.461 19.1406 172.461 11.1328L172.461-82.373C172.461-90.3809 168.213-94.3848 159.961-94.3848L141.064-94.3848C132.861-94.3848 128.613-90.3809 128.613-82.373L128.613 11.1328C128.613 19.1406 132.861 23.1445 141.064 23.1445ZM84.7656 23.1445L103.662 23.1445C111.963 23.1445 116.162 19.1406 116.162 11.1328L116.162-64.0625C116.162-72.0215 111.963-76.0742 103.662-76.0742L84.7656-76.0742C76.5625-76.0742 72.3633-72.0215 72.3633-64.0625L72.3633 11.1328C72.3633 19.1406 76.5625 23.1445 84.7656 23.1445ZM28.4668 23.1445L47.4121 23.1445C55.6641 23.1445 59.8633 19.1406 59.8633 11.1328L59.8633-45.8496C59.8633-53.8574 55.6641-57.8613 47.4121-57.8613L28.4668-57.8613C20.2637-57.8613 16.0645-53.8574 16.0645-45.8496L16.0645 11.1328C16.0645 19.1406 20.2637 23.1445 28.4668 23.1445Z"/>
  </g>
  <g id="Light-L" transform="matrix(1 0 0 1 1060.21 1556)">
   <path d="M139.111 22.998L158.203 22.998C165.869 22.998 169.775 19.2383 169.775 11.6211L169.775-82.7148C169.775-90.332 165.869-94.1406 158.203-94.1406L139.111-94.1406C131.445-94.1406 127.539-90.332 127.539-82.7148L127.539 11.6211C127.539 19.2383 131.445 22.998 139.111 22.998ZM83.3496 22.998L102.441 22.998C110.107 22.998 114.014 19.2383 114.014 11.6211L114.014-64.4531C114.014-72.0703 110.107-75.8789 102.441-75.8789L83.3496-75.8789C75.7324-75.8789 71.8262-72.0703 71.8262-64.4531L71.8262 11.6211C71.8262 19.2383 75.7324 22.998 83.3496 22.998ZM27.5879 22.998L46.7285 22.998C54.3945 22.998 58.3008 19.2383 58.3008 11.6211L58.3008-46.4844C58.3008-54.1016 54.3945-57.8613 46.7285-57.8613L27.5879-57.8613C19.9707-57.8613 16.0645-54.1016 16.0645-46.4844L16.0645 11.6211C16.0645 19.2383 19.9707 22.998 27.5879 22.998Z"/>
  </g>
  <g id="Thin-L" transform="matrix(1 0 0 1 765.26 1556)">
   <path d="M136.475 22.8516L155.908 22.8516C162.793 22.8516 166.26 19.3848 166.26 12.2559L166.26-83.1543C166.26-90.2832 162.793-93.75 155.908-93.75L136.475-93.75C129.639-93.75 126.123-90.2832 126.123-83.1543L126.123 12.2559C126.123 19.3848 129.639 22.8516 136.475 22.8516ZM81.4453 22.8516L100.83 22.8516C107.715 22.8516 111.23 19.3848 111.23 12.2559L111.23-65.0391C111.23-72.168 107.715-75.6348 100.83-75.6348L81.4453-75.6348C74.6094-75.6348 71.0938-72.168 71.0938-65.0391L71.0938 12.2559C71.0938 19.3848 74.6094 22.8516 81.4453 22.8516ZM26.416 22.8516L45.8008 22.8516C52.6855 22.8516 56.2012 19.3848 56.2012 12.2559L56.2012-47.2656C56.2012-54.3945 52.6855-57.8613 45.8008-57.8613L26.416-57.8613C19.5312-57.8613 16.0645-54.3945 16.0645-47.2656L16.0645 12.2559C16.0645 19.3848 19.5312 22.8516 26.416 22.8516Z"/>
  </g>
  <g id="Ultralight-L" transform="matrix(1 0 0 1 469.452 1556)">
   <path d="M135.156 22.7539L154.688 22.7539C161.182 22.7539 164.453 19.4336 164.453 12.5977L164.453-83.3984C164.453-90.2832 161.182-93.5547 154.688-93.5547L135.156-93.5547C128.662-93.5547 125.391-90.2832 125.391-83.3984L125.391 12.5977C125.391 19.4336 128.662 22.7539 135.156 22.7539ZM80.5176 22.7539L100.049 22.7539C106.494 22.7539 109.766 19.4336 109.766 12.5977L109.766-65.332C109.766-72.2168 106.494-75.4883 100.049-75.4883L80.5176-75.4883C74.0234-75.4883 70.752-72.2168 70.752-65.332L70.752 12.5977C70.752 19.4336 74.0234 22.7539 80.5176 22.7539ZM25.8301 22.7539L45.3613 22.7539C51.8555 22.7539 55.127 19.4336 55.127 12.5977L55.127-47.7051C55.127-54.5898 51.8555-57.8613 45.3613-57.8613L25.8301-57.8613C19.3359-57.8613 16.0645-54.5898 16.0645-47.7051L16.0645 12.5977C16.0645 19.4336 19.3359 22.7539 25.8301 22.7539Z"/>
  </g>
  <g id="Black-M" transform="matrix(1 0 0 1 2848.1 1126)">
   <path d="M131.348 12.5488L141.846 12.5488C151.953 12.5488 158.154 6.05469 158.154-3.71094L158.154-66.2598C158.154-75.9766 151.953-82.4707 141.846-82.4707L131.348-82.4707C121.24-82.4707 114.99-75.9766 114.99-66.1621L114.99-3.71094C114.99 6.05469 121.24 12.5488 131.348 12.5488ZM80.0781 12.5488L90.5762 12.5488C100.684 12.5488 106.885 6.05469 106.885-3.71094L106.885-52.0996C106.885-61.8164 100.684-68.3105 90.5762-68.3105L80.0781-68.3105C69.9707-68.3105 63.7207-61.8164 63.7207-52.0508L63.7207-3.71094C63.7207 6.05469 69.9707 12.5488 80.0781 12.5488ZM28.8086 12.5488L39.3066 12.5488C49.4141 12.5488 55.6152 6.05469 55.6152-3.71094L55.6152-37.5488C55.6152-47.3145 49.4141-53.8086 39.3066-53.8086L28.8086-53.8086C18.7012-53.8086 12.4512-47.3145 12.4512-37.5L12.4512-3.71094C12.4512 6.05469 18.7012 12.5488 28.8086 12.5488Z"/>
  </g>
  <g id="Heavy-M" transform="matrix(1 0 0 1 2554.1 1126)">
   <path d="M126.416 11.9629L137.842 11.9629C147.168 11.9629 152.734 6.25 152.734-2.73438L152.734-67.4805C152.734-76.4648 147.168-82.1777 137.842-82.1777L126.416-82.1777C117.09-82.1777 111.523-76.4648 111.523-67.4316L111.523-2.73438C111.523 6.25 117.09 11.9629 126.416 11.9629ZM76.8555 11.9629L88.3301 11.9629C97.6074 11.9629 103.223 6.25 103.223-2.73438L103.223-53.3203C103.223-62.2559 97.6074-68.0176 88.3301-68.0176L76.8555-68.0176C67.5781-68.0176 62.0117-62.2559 62.0117-53.2715L62.0117-2.73438C62.0117 6.25 67.5781 11.9629 76.8555 11.9629ZM27.3438 11.9629L38.7695 11.9629C48.0957 11.9629 53.6621 6.25 53.6621-2.73438L53.6621-38.8672C53.6621-47.8027 48.0957-53.5645 38.7695-53.5645L27.3438-53.5645C18.0176-53.5645 12.4512-47.8027 12.4512-38.8184L12.4512-2.73438C12.4512 6.25 18.0176 11.9629 27.3438 11.9629Z"/>
  </g>
  <g id="Bold-M" transform="matrix(1 0 0 1 2260.41 1126)">
   <path d="M120.898 11.3281L133.398 11.3281C141.846 11.3281 146.68 6.44531 146.68-1.61133L146.68-68.8965C146.68-77.002 141.846-81.8359 133.398-81.8359L120.898-81.8359C112.5-81.8359 107.666-77.002 107.666-68.8965L107.666-1.61133C107.666 6.44531 112.5 11.3281 120.898 11.3281ZM73.291 11.3281L85.791 11.3281C94.2383 11.3281 99.0723 6.44531 99.0723-1.61133L99.0723-54.6875C99.0723-62.793 94.2383-67.627 85.791-67.627L73.291-67.627C64.8926-67.627 60.0586-62.793 60.0586-54.6875L60.0586-1.61133C60.0586 6.44531 64.8926 11.3281 73.291 11.3281ZM25.6836 11.3281L38.2324 11.3281C46.6309 11.3281 51.4648 6.44531 51.4648-1.61133L51.4648-40.332C51.4648-48.3887 46.6309-53.2715 38.2324-53.2715L25.6836-53.2715C17.2852-53.2715 12.4512-48.3887 12.4512-40.332L12.4512-1.61133C12.4512 6.44531 17.2852 11.3281 25.6836 11.3281Z"/>
  </g>
  <g id="Semibold-M" transform="matrix(1 0 0 1 1965.8 1126)">
   <path d="M117.09 10.8398L130.322 10.8398C138.135 10.8398 142.48 6.5918 142.48-0.878906L142.48-69.873C142.48-77.3438 138.135-81.6406 130.322-81.6406L117.09-81.6406C109.277-81.6406 104.98-77.3438 104.98-69.873L104.98-0.878906C104.98 6.5918 109.277 10.8398 117.09 10.8398ZM70.8008 10.8398L84.082 10.8398C91.8945 10.8398 96.1914 6.5918 96.1914-0.878906L96.1914-55.6641C96.1914-63.1348 91.8945-67.3828 84.082-67.3828L70.8008-67.3828C63.0371-67.3828 58.6914-63.1348 58.6914-55.6641L58.6914-0.878906C58.6914 6.5918 63.0371 10.8398 70.8008 10.8398ZM24.5605 10.8398L37.793 10.8398C45.6055 10.8398 49.9512 6.5918 49.9512-0.878906L49.9512-41.3574C49.9512-48.8281 45.6055-53.0762 37.793-53.0762L24.5605-53.0762C16.7969-53.0762 12.4512-48.8281 12.4512-41.3574L12.4512-0.878906C12.4512 6.5918 16.7969 10.8398 24.5605 10.8398Z"/>
  </g>
  <g id="Medium-M" transform="matrix(1 0 0 1 1670.68 1126)">
   <path d="M114.209 10.498L128.027 10.498C135.352 10.498 139.307 6.68945 139.307-0.292969L139.307-70.6055C139.307-77.6367 135.352-81.4453 128.027-81.4453L114.209-81.4453C106.885-81.4453 102.93-77.6367 102.93-70.6055L102.93-0.292969C102.93 6.68945 106.885 10.498 114.209 10.498ZM68.9453 10.498L82.7637 10.498C90.0879 10.498 94.043 6.68945 94.043-0.292969L94.043-56.3965C94.043-63.3789 90.0879-67.2363 82.7637-67.2363L68.9453-67.2363C61.6211-67.2363 57.7148-63.3789 57.7148-56.3477L57.7148-0.292969C57.7148 6.68945 61.6211 10.498 68.9453 10.498ZM23.6816 10.498L37.5 10.498C44.873 10.498 48.8281 6.68945 48.8281-0.292969L48.8281-42.1387C48.8281-49.1211 44.873-52.9785 37.5-52.9785L23.6816-52.9785C16.4062-52.9785 12.4512-49.1211 12.4512-42.0898L12.4512-0.292969C12.4512 6.68945 16.4062 10.498 23.6816 10.498Z"/>
  </g>
  <g id="Regular-M" transform="matrix(1 0 0 1 1376.04 1126)">
   <path d="M110.4 10.0586L124.951 10.0586C131.689 10.0586 135.156 6.83594 135.156 0.439453L135.156-71.582C135.156-77.9785 131.689-81.25 124.951-81.25L110.4-81.25C103.76-81.25 100.293-77.9785 100.293-71.582L100.293 0.439453C100.293 6.83594 103.76 10.0586 110.4 10.0586ZM66.5039 10.0586L81.0547 10.0586C87.793 10.0586 91.2109 6.83594 91.2109 0.439453L91.2109-57.3242C91.2109-63.7207 87.793-66.9922 81.0547-66.9922L66.5039-66.9922C59.8145-66.9922 56.3477-63.7207 56.3477-57.3242L56.3477 0.439453C56.3477 6.83594 59.8145 10.0586 66.5039 10.0586ZM22.6074 10.0586L37.1094 10.0586C43.8477 10.0586 47.3145 6.83594 47.3145 0.439453L47.3145-43.1152C47.3145-49.5117 43.8477-52.7832 37.1094-52.7832L22.6074-52.7832C15.918-52.7832 12.4512-49.5117 12.4512-43.1152L12.4512 0.439453C12.4512 6.83594 15.918 10.0586 22.6074 10.0586Z"/>
  </g>
  <g id="Light-M" transform="matrix(1 0 0 1 1080.53 1126)">
   <path d="M108.691 9.96094L123.389 9.96094C129.59 9.96094 132.764 6.93359 132.764 0.878906L132.764-71.875C132.764-77.9785 129.59-81.0059 123.389-81.0059L108.691-81.0059C102.49-81.0059 99.3164-77.9785 99.3164-71.875L99.3164 0.878906C99.3164 6.93359 102.49 9.96094 108.691 9.96094ZM65.2344 9.96094L79.9805 9.96094C86.1816 9.96094 89.3066 6.93359 89.3066 0.878906L89.3066-57.7148C89.3066-63.7695 86.1816-66.7969 79.9805-66.7969L65.2344-66.7969C59.0332-66.7969 55.9082-63.7695 55.9082-57.7148L55.9082 0.878906C55.9082 6.93359 59.0332 9.96094 65.2344 9.96094ZM21.7773 9.96094L36.5234 9.96094C42.7246 9.96094 45.8984 6.93359 45.8984 0.878906L45.8984-43.6523C45.8984-49.7559 42.7246-52.7832 36.5234-52.7832L21.7773-52.7832C15.625-52.7832 12.4512-49.7559 12.4512-43.6523L12.4512 0.878906C12.4512 6.93359 15.625 9.96094 21.7773 9.96094Z"/>
  </g>
  <g id="Thin-M" transform="matrix(1 0 0 1 785.402 1126)">
   <path d="M106.348 9.81445L121.338 9.81445C126.807 9.81445 129.59 7.08008 129.59 1.41602L129.59-72.2656C129.59-77.9297 126.807-80.6641 121.338-80.6641L106.348-80.6641C100.83-80.6641 98.0469-77.9297 98.0469-72.2656L98.0469 1.41602C98.0469 7.08008 100.83 9.81445 106.348 9.81445ZM63.5254 9.81445L78.5156 9.81445C84.0332 9.81445 86.8164 7.08008 86.8164 1.41602L86.8164-58.2031C86.8164-63.8184 84.0332-66.6016 78.5156-66.6016L63.5254-66.6016C58.0566-66.6016 55.2734-63.8184 55.2734-58.2031L55.2734 1.41602C55.2734 7.08008 58.0566 9.81445 63.5254 9.81445ZM20.752 9.81445L35.6934 9.81445C41.2109 9.81445 43.9941 7.08008 43.9941 1.41602L43.9941-44.3848C43.9941-50 41.2109-52.7832 35.6934-52.7832L20.752-52.7832C15.2344-52.7832 12.4512-50 12.4512-44.3848L12.4512 1.41602C12.4512 7.08008 15.2344 9.81445 20.752 9.81445Z"/>
  </g>
  <g id="Ultralight-M" transform="matrix(1 0 0 1 489.496 1126)">
   <path d="M105.176 9.7168L120.264 9.7168C125.391 9.7168 127.979 7.12891 127.979 1.70898L127.979-72.4609C127.979-77.8809 125.391-80.5176 120.264-80.5176L105.176-80.5176C100-80.5176 97.4121-77.8809 97.4121-72.4609L97.4121 1.70898C97.4121 7.12891 100 9.7168 105.176 9.7168ZM62.6953 9.7168L77.7832 9.7168C82.9102 9.7168 85.498 7.12891 85.498 1.70898L85.498-58.4473C85.498-63.8672 82.9102-66.4551 77.7832-66.4551L62.6953-66.4551C57.5195-66.4551 54.9316-63.8672 54.9316-58.4473L54.9316 1.70898C54.9316 7.12891 57.5195 9.7168 62.6953 9.7168ZM20.2148 9.7168L35.3027 9.7168C40.4297 9.7168 43.0176 7.12891 43.0176 1.70898L43.0176-44.7754C43.0176-50.1465 40.4297-52.7832 35.3027-52.7832L20.2148-52.7832C15.0391-52.7832 12.4512-50.1465 12.4512-44.7754L12.4512 1.70898C12.4512 7.12891 15.0391 9.7168 20.2148 9.7168Z"/>
  </g>
  <g id="Black-S" transform="matrix(1 0 0 1 2866.75 696)">
   <path d="M102.539 2.14844L110.84 2.14844C118.701 2.14844 123.535-2.88086 123.535-10.4492L123.535-59.6191C123.535-67.1875 118.701-72.2168 110.84-72.2168L102.539-72.2168C94.6777-72.2168 89.8438-67.1875 89.8438-59.5703L89.8438-10.4492C89.8438-2.88086 94.6777 2.14844 102.539 2.14844ZM62.5 2.14844L70.8008 2.14844C78.6621 2.14844 83.4961-2.88086 83.4961-10.4492L83.4961-48.5352C83.4961-56.1035 78.6621-61.1328 70.8008-61.1328L62.5-61.1328C54.6387-61.1328 49.8047-56.1035 49.8047-48.4863L49.8047-10.4492C49.8047-2.88086 54.6387 2.14844 62.5 2.14844ZM22.4609 2.14844L30.7617 2.14844C38.623 2.14844 43.457-2.88086 43.457-10.4492L43.457-37.1582C43.457-44.7266 38.623-49.7559 30.7617-49.7559L22.4609-49.7559C14.5996-49.7559 9.76562-44.7266 9.76562-37.1094L9.76562-10.4492C9.76562-2.88086 14.5996 2.14844 22.4609 2.14844Z"/>
  </g>
  <g id="Heavy-S" transform="matrix(1 0 0 1 2571.99 696)">
   <path d="M98.9746 1.70898L107.959 1.70898C115.283 1.70898 119.629-2.73438 119.629-9.76562L119.629-60.5469C119.629-67.5781 115.283-72.0215 107.959-72.0215L98.9746-72.0215C91.6504-72.0215 87.3047-67.5781 87.3047-60.498L87.3047-9.76562C87.3047-2.73438 91.6504 1.70898 98.9746 1.70898ZM60.2051 1.70898L69.1895 1.70898C76.5137 1.70898 80.8594-2.73438 80.8594-9.76562L80.8594-49.4141C80.8594-56.4453 76.5137-60.8887 69.1895-60.8887L60.2051-60.8887C52.8809-60.8887 48.5352-56.4453 48.5352-49.4141L48.5352-9.76562C48.5352-2.73438 52.8809 1.70898 60.2051 1.70898ZM21.4355 1.70898L30.4199 1.70898C37.7441 1.70898 42.0898-2.73438 42.0898-9.76562L42.0898-38.0859C42.0898-45.1172 37.7441-49.5605 30.4199-49.5605L21.4355-49.5605C14.1113-49.5605 9.76562-45.1172 9.76562-38.0859L9.76562-9.76562C9.76562-2.73438 14.1113 1.70898 21.4355 1.70898Z"/>
  </g>
  <g id="Bold-S" transform="matrix(1 0 0 1 2277.45 696)">
   <path d="M94.9707 1.2207L104.785 1.2207C111.475 1.2207 115.283-2.58789 115.283-8.98438L115.283-61.5723C115.283-67.9688 111.475-71.8262 104.785-71.8262L94.9707-71.8262C88.2812-71.8262 84.4238-67.9688 84.4238-61.5723L84.4238-8.98438C84.4238-2.58789 88.2812 1.2207 94.9707 1.2207ZM57.6172 1.2207L67.4316 1.2207C74.1211 1.2207 77.9297-2.58789 77.9297-8.98438L77.9297-50.4395C77.9297-56.8359 74.1211-60.6445 67.4316-60.6445L57.6172-60.6445C50.9277-60.6445 47.1191-56.8359 47.1191-50.4395L47.1191-8.98438C47.1191-2.58789 50.9277 1.2207 57.6172 1.2207ZM20.2637 1.2207L30.0781 1.2207C36.7676 1.2207 40.625-2.58789 40.625-8.98438L40.625-39.1602C40.625-45.5078 36.7676-49.3652 30.0781-49.3652L20.2637-49.3652C13.623-49.3652 9.76562-45.5078 9.76562-39.1113L9.76562-8.98438C9.76562-2.58789 13.623 1.2207 20.2637 1.2207Z"/>
  </g>
  <g id="Semibold-S" transform="matrix(1 0 0 1 1982.23 696)">
   <path d="M92.1875 0.927734L102.539 0.927734C108.838 0.927734 112.305-2.49023 112.305-8.44727L112.305-62.3047C112.305-68.2617 108.838-71.6797 102.539-71.6797L92.1875-71.6797C85.9375-71.6797 82.4707-68.2617 82.4707-62.3047L82.4707-8.44727C82.4707-2.49023 85.9375 0.927734 92.1875 0.927734ZM55.8594 0.927734L66.2109 0.927734C72.4609 0.927734 75.9277-2.49023 75.9277-8.44727L75.9277-51.123C75.9277-57.0801 72.4609-60.498 66.2109-60.498L55.8594-60.498C49.6094-60.498 46.1426-57.0801 46.1426-51.123L46.1426-8.44727C46.1426-2.49023 49.6094 0.927734 55.8594 0.927734ZM19.4824 0.927734L29.834 0.927734C36.084 0.927734 39.5996-2.49023 39.5996-8.44727L39.5996-39.8926C39.5996-45.8008 36.084-49.2188 29.834-49.2188L19.4824-49.2188C13.2324-49.2188 9.76562-45.8008 9.76562-39.8438L9.76562-8.44727C9.76562-2.49023 13.2324 0.927734 19.4824 0.927734Z"/>
  </g>
  <g id="Medium-S" transform="matrix(1 0 0 1 1686.67 696)">
   <path d="M90.0879 0.634766L100.879 0.634766C106.836 0.634766 110.01-2.44141 110.01-8.00781L110.01-62.8418C110.01-68.457 106.836-71.5332 100.879-71.5332L90.0879-71.5332C84.1797-71.5332 81.0059-68.457 81.0059-62.8418L81.0059-8.00781C81.0059-2.44141 84.1797 0.634766 90.0879 0.634766ZM54.4922 0.634766L65.2344 0.634766C71.1914 0.634766 74.4141-2.44141 74.4141-8.00781L74.4141-51.6602C74.4141-57.2754 71.1914-60.3516 65.2344-60.3516L54.4922-60.3516C48.584-60.3516 45.3613-57.2754 45.3613-51.6602L45.3613-8.00781C45.3613-2.44141 48.584 0.634766 54.4922 0.634766ZM18.8965 0.634766L29.6387 0.634766C35.5957 0.634766 38.7695-2.44141 38.7695-8.00781L38.7695-40.4297C38.7695-46.0449 35.5957-49.1211 29.6387-49.1211L18.8965-49.1211C12.9395-49.1211 9.76562-46.0449 9.76562-40.4297L9.76562-8.00781C9.76562-2.44141 12.9395 0.634766 18.8965 0.634766Z"/>
  </g>
  <g id="Regular-S" transform="matrix(1 0 0 1 1391.45 696)">
   <path d="M87.3535 0.341797L98.6816 0.341797C104.199 0.341797 107.031-2.34375 107.031-7.51953L107.031-63.5742C107.031-68.75 104.199-71.3867 98.6816-71.3867L87.3535-71.3867C81.8848-71.3867 79.0527-68.75 79.0527-63.5742L79.0527-7.51953C79.0527-2.34375 81.8848 0.341797 87.3535 0.341797ZM52.7344 0.341797L64.0625 0.341797C69.5801 0.341797 72.4121-2.34375 72.4121-7.51953L72.4121-52.3438C72.4121-57.5195 69.5801-60.1562 64.0625-60.1562L52.7344-60.1562C47.2656-60.1562 44.3848-57.5195 44.3848-52.3438L44.3848-7.51953C44.3848-2.34375 47.2656 0.341797 52.7344 0.341797ZM18.0664 0.341797L29.3945 0.341797C34.9121 0.341797 37.7441-2.34375 37.7441-7.51953L37.7441-41.1621C37.7441-46.3379 34.9121-48.9746 29.3945-48.9746L18.0664-48.9746C12.5977-48.9746 9.76562-46.3379 9.76562-41.1621L9.76562-7.51953C9.76562-2.34375 12.5977 0.341797 18.0664 0.341797Z"/>
  </g>
  <g id="Light-S" transform="matrix(1 0 0 1 1095.78 696)">
   <path d="M85.8398 0.244141L97.2656 0.244141C102.344 0.244141 104.932-2.24609 104.932-7.12891L104.932-63.8184C104.932-68.7012 102.344-71.1914 97.2656-71.1914L85.8398-71.1914C80.8105-71.1914 78.2227-68.7012 78.2227-63.8184L78.2227-7.12891C78.2227-2.24609 80.8105 0.244141 85.8398 0.244141ZM51.6113 0.244141L63.0859 0.244141C68.1152 0.244141 70.7031-2.24609 70.7031-7.12891L70.7031-52.6855C70.7031-57.5684 68.1152-60.0098 63.0859-60.0098L51.6113-60.0098C46.582-60.0098 43.9941-57.5684 43.9941-52.6855L43.9941-7.12891C43.9941-2.24609 46.582 0.244141 51.6113 0.244141ZM17.3828 0.244141L28.8574 0.244141C33.9355 0.244141 36.5234-2.24609 36.5234-7.12891L36.5234-41.6504C36.5234-46.5332 33.9355-48.9746 28.8574-48.9746L17.3828-48.9746C12.3535-48.9746 9.76562-46.5332 9.76562-41.6504L9.76562-7.12891C9.76562-2.24609 12.3535 0.244141 17.3828 0.244141Z"/>
  </g>
  <g id="Thin-S" transform="matrix(1 0 0 1 800.465 696)">
   <path d="M83.7891 0.0976562L95.459 0.0976562C99.9023 0.0976562 102.148-2.14844 102.148-6.64062L102.148-64.1602C102.148-68.7012 99.9023-70.8984 95.459-70.8984L83.7891-70.8984C79.3457-70.8984 77.0996-68.7012 77.0996-64.1602L77.0996-6.64062C77.0996-2.14844 79.3457 0.0976562 83.7891 0.0976562ZM50.0977 0.0976562L61.8164 0.0976562C66.2598 0.0976562 68.5059-2.14844 68.5059-6.64062L68.5059-53.125C68.5059-57.6172 66.2598-59.8633 61.8164-59.8633L50.0977-59.8633C45.7031-59.8633 43.4082-57.6172 43.4082-53.125L43.4082-6.64062C43.4082-2.14844 45.7031 0.0976562 50.0977 0.0976562ZM16.4551 0.0976562L28.125 0.0976562C32.5684 0.0976562 34.8633-2.14844 34.8633-6.64062L34.8633-42.2852C34.8633-46.7773 32.5684-48.9746 28.125-48.9746L16.4551-48.9746C12.0117-48.9746 9.76562-46.7773 9.76562-42.2852L9.76562-6.64062C9.76562-2.14844 12.0117 0.0976562 16.4551 0.0976562Z"/>
  </g>
  <g id="Ultralight-S" transform="matrix(1 0 0 1 504.462 696)">
   <path d="M82.7148 0L94.4824 0C98.6328 0 100.732-2.05078 100.732-6.34766L100.732-64.3555C100.732-68.6523 98.6328-70.752 94.4824-70.752L82.7148-70.752C78.6133-70.752 76.5137-68.6523 76.5137-64.3555L76.5137-6.34766C76.5137-2.05078 78.6133 0 82.7148 0ZM49.3652 0L61.1328 0C65.2832 0 67.334-2.05078 67.334-6.34766L67.334-53.3691C67.334-57.666 65.2832-59.7168 61.1328-59.7168L49.3652-59.7168C45.2148-59.7168 43.1152-57.666 43.1152-53.3691L43.1152-6.34766C43.1152-2.05078 45.2148 0 49.3652 0ZM15.9668 0L27.7832 0C31.8848 0 33.9844-2.05078 33.9844-6.34766L33.9844-42.5781C33.9844-46.875 31.8848-48.9746 27.7832-48.9746L15.9668-48.9746C11.8652-48.9746 9.76562-46.875 9.76562-42.5781L9.76562-6.34766C9.76562-2.05078 11.8652 0 15.9668 0Z"/>
  </g>
 </g>
</svg>
