<?xml version="1.0" encoding="UTF-8"?>
<!--Generator: Apple Native CoreSVG 149-->
<!DOCTYPE svg
PUBLIC "-//W3C//DTD SVG 1.1//EN"
       "http://www.w3.org/Graphics/SVG/1.1/DTD/svg11.dtd">
<svg version="1.1" xmlns="http://www.w3.org/2000/svg" xmlns:xlink="http://www.w3.org/1999/xlink" width="3300" height="2200">
 <!--glyph: "uni100986.medium", point size: 100.000000, font version: "Version 16.0d18e1", template writer version: "8"-->
 <g id="Notes">
  <rect height="2200" id="artboard" style="fill:white;opacity:1" width="3300" x="0" y="0"/>
  <line id="" style="fill:none;stroke:black;opacity:1;stroke-width:0.5;" x1="263" x2="3036" y1="292" y2="292"/>
  <text style="stroke:none;fill:black;font-family:-apple-system,&quot;SF Pro Display&quot;,&quot;SF Pro Text&quot;,Helvetica,sans-serif;font-weight:bold;" transform="matrix(1 0 0 1 263 322)">Weight/Scale Variations</text>
  <text style="stroke:none;fill:black;font-family:-apple-system,&quot;SF Pro Display&quot;,&quot;SF Pro Text&quot;,Helvetica,sans-serif;text-anchor:middle;" transform="matrix(1 0 0 1 559.711 322)">Ultralight</text>
  <text style="stroke:none;fill:black;font-family:-apple-system,&quot;SF Pro Display&quot;,&quot;SF Pro Text&quot;,Helvetica,sans-serif;text-anchor:middle;" transform="matrix(1 0 0 1 856.422 322)">Thin</text>
  <text style="stroke:none;fill:black;font-family:-apple-system,&quot;SF Pro Display&quot;,&quot;SF Pro Text&quot;,Helvetica,sans-serif;text-anchor:middle;" transform="matrix(1 0 0 1 1153.13 322)">Light</text>
  <text style="stroke:none;fill:black;font-family:-apple-system,&quot;SF Pro Display&quot;,&quot;SF Pro Text&quot;,Helvetica,sans-serif;text-anchor:middle;" transform="matrix(1 0 0 1 1449.84 322)">Regular</text>
  <text style="stroke:none;fill:black;font-family:-apple-system,&quot;SF Pro Display&quot;,&quot;SF Pro Text&quot;,Helvetica,sans-serif;text-anchor:middle;" transform="matrix(1 0 0 1 1746.56 322)">Medium</text>
  <text style="stroke:none;fill:black;font-family:-apple-system,&quot;SF Pro Display&quot;,&quot;SF Pro Text&quot;,Helvetica,sans-serif;text-anchor:middle;" transform="matrix(1 0 0 1 2043.27 322)">Semibold</text>
  <text style="stroke:none;fill:black;font-family:-apple-system,&quot;SF Pro Display&quot;,&quot;SF Pro Text&quot;,Helvetica,sans-serif;text-anchor:middle;" transform="matrix(1 0 0 1 2339.98 322)">Bold</text>
  <text style="stroke:none;fill:black;font-family:-apple-system,&quot;SF Pro Display&quot;,&quot;SF Pro Text&quot;,Helvetica,sans-serif;text-anchor:middle;" transform="matrix(1 0 0 1 2636.69 322)">Heavy</text>
  <text style="stroke:none;fill:black;font-family:-apple-system,&quot;SF Pro Display&quot;,&quot;SF Pro Text&quot;,Helvetica,sans-serif;text-anchor:middle;" transform="matrix(1 0 0 1 2933.4 322)">Black</text>
  <line id="" style="fill:none;stroke:black;opacity:1;stroke-width:0.5;" x1="263" x2="3036" y1="1903" y2="1903"/>
  <g id="" transform="matrix(1 0 0 1 263 1933)">
   <path d="M9.24805 0.830078C13.5547 0.830078 17.1387-2.74414 17.1387-7.05078C17.1387-11.3574 13.5449-14.9316 9.23828-14.9316C4.94141-14.9316 1.36719-11.3574 1.36719-7.05078C1.36719-2.74414 4.95117 0.830078 9.24805 0.830078ZM9.24805-0.654297C5.70312-0.654297 2.87109-3.49609 2.87109-7.05078C2.87109-10.6055 5.69336-13.4473 9.23828-13.4473C12.793-13.4473 15.6348-10.6055 15.6445-7.05078C15.6543-3.49609 12.8027-0.654297 9.24805-0.654297ZM6.39648-6.31836L8.50586-6.31836L8.50586-4.19922C8.50586-3.75977 8.79883-3.45703 9.22852-3.45703C9.67773-3.45703 9.9707-3.75977 9.9707-4.19922L9.9707-6.31836L12.0996-6.31836C12.5391-6.31836 12.8418-6.61133 12.8418-7.04102C12.8418-7.48047 12.5391-7.7832 12.0996-7.7832L9.9707-7.7832L9.9707-9.89258C9.9707-10.3418 9.67773-10.6445 9.22852-10.6445C8.79883-10.6445 8.50586-10.3418 8.50586-9.89258L8.50586-7.7832L6.39648-7.7832C5.94727-7.7832 5.64453-7.48047 5.64453-7.04102C5.64453-6.61133 5.94727-6.31836 6.39648-6.31836Z"/>
  </g>
  <g id="" transform="matrix(1 0 0 1 281.506 1933)">
   <path d="M11.709 2.91016C17.1582 2.91016 21.6699-1.61133 21.6699-7.05078C21.6699-12.5 17.1484-17.0117 11.6992-17.0117C6.25977-17.0117 1.74805-12.5 1.74805-7.05078C1.74805-1.61133 6.26953 2.91016 11.709 2.91016ZM11.709 1.25C7.09961 1.25 3.41797-2.44141 3.41797-7.05078C3.41797-11.6602 7.08984-15.3516 11.6992-15.3516C16.3086-15.3516 20-11.6602 20.0098-7.05078C20.0195-2.44141 16.3184 1.25 11.709 1.25ZM7.98828-6.23047L10.8789-6.23047L10.8789-3.32031C10.8789-2.83203 11.2109-2.5 11.6895-2.5C12.1777-2.5 12.5195-2.83203 12.5195-3.32031L12.5195-6.23047L15.4297-6.23047C15.918-6.23047 16.25-6.5625 16.25-7.04102C16.25-7.5293 15.918-7.87109 15.4297-7.87109L12.5195-7.87109L12.5195-10.7617C12.5195-11.2695 12.1777-11.6016 11.6895-11.6016C11.2109-11.6016 10.8789-11.2598 10.8789-10.7617L10.8789-7.87109L7.98828-7.87109C7.48047-7.87109 7.14844-7.5293 7.14844-7.04102C7.14844-6.5625 7.49023-6.23047 7.98828-6.23047Z"/>
  </g>
  <g id="" transform="matrix(1 0 0 1 304.924 1933)">
   <path d="M14.9707 5.66406C21.9336 5.66406 27.6953-0.0976562 27.6953-7.05078C27.6953-14.0137 21.9238-19.7754 14.9609-19.7754C8.00781-19.7754 2.25586-14.0137 2.25586-7.05078C2.25586-0.0976562 8.01758 5.66406 14.9707 5.66406ZM14.9707 3.84766C8.93555 3.84766 4.08203-1.01562 4.08203-7.05078C4.08203-13.0957 8.92578-17.9492 14.9609-17.9492C21.0059-17.9492 25.8594-13.0957 25.8691-7.05078C25.8789-1.01562 21.0156 3.84766 14.9707 3.84766ZM10.0586-6.14258L14.0625-6.14258L14.0625-2.12891C14.0625-1.5918 14.4336-1.2207 14.9512-1.2207C15.4883-1.2207 15.8594-1.5918 15.8594-2.12891L15.8594-6.14258L19.8828-6.14258C20.4102-6.14258 20.791-6.51367 20.791-7.03125C20.791-7.56836 20.4199-7.94922 19.8828-7.94922L15.8594-7.94922L15.8594-11.9531C15.8594-12.5098 15.4883-12.8809 14.9512-12.8809C14.4336-12.8809 14.0625-12.5 14.0625-11.9531L14.0625-7.94922L10.0586-7.94922C9.50195-7.94922 9.13086-7.56836 9.13086-7.03125C9.13086-6.51367 9.51172-6.14258 10.0586-6.14258Z"/>
  </g>
  <text style="stroke:none;fill:black;font-family:-apple-system,&quot;SF Pro Display&quot;,&quot;SF Pro Text&quot;,Helvetica,sans-serif;font-weight:bold;" transform="matrix(1 0 0 1 263 1953)">Design Variations</text>
  <text style="stroke:none;fill:black;font-family:-apple-system,&quot;SF Pro Display&quot;,&quot;SF Pro Text&quot;,Helvetica,sans-serif;" transform="matrix(1 0 0 1 263 1971)">Symbols are supported in up to nine weights and three scales.</text>
  <text style="stroke:none;fill:black;font-family:-apple-system,&quot;SF Pro Display&quot;,&quot;SF Pro Text&quot;,Helvetica,sans-serif;" transform="matrix(1 0 0 1 263 1989)">For optimal layout with text and other symbols, vertically align</text>
  <text style="stroke:none;fill:black;font-family:-apple-system,&quot;SF Pro Display&quot;,&quot;SF Pro Text&quot;,Helvetica,sans-serif;" transform="matrix(1 0 0 1 263 2007)">symbols with the adjacent text.</text>
  <line id="" style="fill:none;stroke:#00AEEF;stroke-width:0.5;opacity:1.0;" x1="776" x2="776" y1="1919" y2="1933"/>
  <g id="" transform="matrix(1 0 0 1 776 1933)">
   <path d="M3.31055 0.126953C3.82812 0.126953 4.08203-0.0683594 4.26758-0.605469L5.52734-4.0625L11.2891-4.0625L12.5488-0.605469C12.7344-0.0683594 12.9883 0.126953 13.4961 0.126953C14.0137 0.126953 14.3457-0.185547 14.3457-0.673828C14.3457-0.839844 14.3164-0.986328 14.2383-1.20117L9.6582-13.3887C9.43359-13.9941 9.0332-14.2871 8.4082-14.2871C7.80273-14.2871 7.39258-13.9941 7.17773-13.3984L2.59766-1.19141C2.51953-0.976562 2.49023-0.830078 2.49023-0.664062C2.49023-0.175781 2.80273 0.126953 3.31055 0.126953ZM6.00586-5.53711L8.37891-12.1094L8.42773-12.1094L10.8008-5.53711Z"/>
  </g>
  <line id="" style="fill:none;stroke:#00AEEF;stroke-width:0.5;opacity:1.0;" x1="792.836" x2="792.836" y1="1919" y2="1933"/>
  <text style="stroke:none;fill:black;font-family:-apple-system,&quot;SF Pro Display&quot;,&quot;SF Pro Text&quot;,Helvetica,sans-serif;font-weight:bold;" transform="matrix(1 0 0 1 776 1953)">Margins</text>
  <text style="stroke:none;fill:black;font-family:-apple-system,&quot;SF Pro Display&quot;,&quot;SF Pro Text&quot;,Helvetica,sans-serif;" transform="matrix(1 0 0 1 776 1971)">Leading and trailing margins on the left and right side of each symbol</text>
  <text style="stroke:none;fill:black;font-family:-apple-system,&quot;SF Pro Display&quot;,&quot;SF Pro Text&quot;,Helvetica,sans-serif;" transform="matrix(1 0 0 1 776 1989)">can be adjusted by modifying the x-location of the margin guidelines.</text>
  <text style="stroke:none;fill:black;font-family:-apple-system,&quot;SF Pro Display&quot;,&quot;SF Pro Text&quot;,Helvetica,sans-serif;" transform="matrix(1 0 0 1 776 2007)">Modifications are automatically applied proportionally to all</text>
  <text style="stroke:none;fill:black;font-family:-apple-system,&quot;SF Pro Display&quot;,&quot;SF Pro Text&quot;,Helvetica,sans-serif;" transform="matrix(1 0 0 1 776 2025)">scales and weights.</text>
  <g id="" transform="matrix(1 0 0 1 1289 1933)">
   <path d="M2.8418 1.86523L4.54102 3.57422C5.40039 4.44336 6.38672 4.38477 7.31445 3.35938L17.4902-7.85156C17.7539-7.76367 18.0273-7.7832 18.3398-7.8418L19.4043-8.03711L20.0684-7.36328L20.0293-6.80664C19.9902-6.30859 20.1172-5.92773 20.6055-5.44922L21.3672-4.70703C21.8457-4.22852 22.4609-4.19922 22.9297-4.66797L25.8398-7.58789C26.3086-8.05664 26.2891-8.65234 25.8105-9.13086L25.0391-9.89258C24.5605-10.3711 24.1895-10.5273 23.7109-10.4883L23.1348-10.4395L22.4902-11.0742L22.7344-12.1973C22.8613-12.7637 22.7051-13.2031 22.1191-13.7891L19.9219-15.9766C16.582-19.2969 12.1484-19.2188 9.25781-16.3281C8.83789-15.918 8.80859-15.3418 9.04297-14.9512C9.27734-14.5898 9.73633-14.3555 10.3809-14.5215C11.8457-14.8633 13.3691-14.9219 14.7949-13.9844L14.209-12.5293C14.0137-12.0508 13.9844-11.6504 14.1113-11.2891L3.04688-0.898438C2.06055 0.0195312 1.98242 0.996094 2.8418 1.86523ZM10.752-15.957C13.1836-17.7344 16.4746-17.4316 18.7012-15.2051L21.1328-12.793C21.3672-12.5586 21.4062-12.373 21.3379-12.0312L21.0156-10.5469L22.5195-9.0625L23.5059-9.12109C23.7598-9.13086 23.8379-9.11133 24.0332-8.91602L24.6094-8.33984L22.168-5.89844L21.5918-6.47461C21.3965-6.66992 21.3672-6.74805 21.377-7.01172L21.4453-7.98828L19.9512-9.47266L18.4277-9.21875C18.1055-9.15039 17.959-9.17969 17.7148-9.41406L15.7129-11.416C15.459-11.6504 15.4297-11.8164 15.5859-12.1875L16.4648-14.2773C14.9023-15.7324 12.8711-16.3574 10.8398-15.7617C10.6836-15.7227 10.625-15.8496 10.752-15.957ZM5.27344 2.30469L4.10156 1.14258C3.63281 0.683594 3.74023 0.341797 4.14062-0.0195312L14.9512-10.1953L16.416-8.71094L6.42578 2.27539C6.07422 2.67578 5.74219 2.77344 5.27344 2.30469Z"/>
  </g>
  <text style="stroke:none;fill:black;font-family:-apple-system,&quot;SF Pro Display&quot;,&quot;SF Pro Text&quot;,Helvetica,sans-serif;font-weight:bold;" transform="matrix(1 0 0 1 1289 1953)">Exporting</text>
  <text style="stroke:none;fill:black;font-family:-apple-system,&quot;SF Pro Display&quot;,&quot;SF Pro Text&quot;,Helvetica,sans-serif;" transform="matrix(1 0 0 1 1289 1971)">Symbols should be outlined when exporting to ensure the</text>
  <text style="stroke:none;fill:black;font-family:-apple-system,&quot;SF Pro Display&quot;,&quot;SF Pro Text&quot;,Helvetica,sans-serif;" transform="matrix(1 0 0 1 1289 1989)">design is preserved when submitting to Xcode.</text>
  <text id="template-version" style="stroke:none;fill:black;font-family:-apple-system,&quot;SF Pro Display&quot;,&quot;SF Pro Text&quot;,Helvetica,sans-serif;text-anchor:end;" transform="matrix(1 0 0 1 3036 1933)">Template v.2.0</text>
  <text style="stroke:none;fill:black;font-family:-apple-system,&quot;SF Pro Display&quot;,&quot;SF Pro Text&quot;,Helvetica,sans-serif;text-anchor:end;" transform="matrix(1 0 0 1 3036 1951)">Requires Xcode 12 or greater</text>
  <text style="stroke:none;fill:black;font-family:-apple-system,&quot;SF Pro Display&quot;,&quot;SF Pro Text&quot;,Helvetica,sans-serif;text-anchor:end;" transform="matrix(1 0 0 1 3036 1969)">Generated from crown.fill</text>
  <text style="stroke:none;fill:black;font-family:-apple-system,&quot;SF Pro Display&quot;,&quot;SF Pro Text&quot;,Helvetica,sans-serif;text-anchor:end;" transform="matrix(1 0 0 1 3036 1987)">Typeset at 100 points</text>
  <text style="stroke:none;fill:black;font-family:-apple-system,&quot;SF Pro Display&quot;,&quot;SF Pro Text&quot;,Helvetica,sans-serif;" transform="matrix(1 0 0 1 263 726)">Small</text>
  <text style="stroke:none;fill:black;font-family:-apple-system,&quot;SF Pro Display&quot;,&quot;SF Pro Text&quot;,Helvetica,sans-serif;" transform="matrix(1 0 0 1 263 1156)">Medium</text>
  <text style="stroke:none;fill:black;font-family:-apple-system,&quot;SF Pro Display&quot;,&quot;SF Pro Text&quot;,Helvetica,sans-serif;" transform="matrix(1 0 0 1 263 1586)">Large</text>
 </g>
 <g id="Guides">
  <g id="H-reference" style="fill:#27AAE1;stroke:none;" transform="matrix(1 0 0 1 339 696)">
   <path d="M0.976562 0L3.66211 0L12.9883-24.4629L45.752-24.4629L55.127 0L57.7637 0L30.6152-70.459L28.125-70.459ZM29.3457-67.1387L29.4434-67.1387L44.873-26.709L13.8672-26.709Z"/>
  </g>
  <line id="Baseline-S" style="fill:none;stroke:#27AAE1;opacity:1;stroke-width:0.5;" x1="263" x2="3036" y1="696" y2="696"/>
  <line id="Capline-S" style="fill:none;stroke:#27AAE1;opacity:1;stroke-width:0.5;" x1="263" x2="3036" y1="625.541" y2="625.541"/>
  <g id="H-reference" style="fill:#27AAE1;stroke:none;" transform="matrix(1 0 0 1 339 1126)">
   <path d="M0.976562 0L3.66211 0L12.9883-24.4629L45.752-24.4629L55.127 0L57.7637 0L30.6152-70.459L28.125-70.459ZM29.3457-67.1387L29.4434-67.1387L44.873-26.709L13.8672-26.709Z"/>
  </g>
  <line id="Baseline-M" style="fill:none;stroke:#27AAE1;opacity:1;stroke-width:0.5;" x1="263" x2="3036" y1="1126" y2="1126"/>
  <line id="Capline-M" style="fill:none;stroke:#27AAE1;opacity:1;stroke-width:0.5;" x1="263" x2="3036" y1="1055.54" y2="1055.54"/>
  <g id="H-reference" style="fill:#27AAE1;stroke:none;" transform="matrix(1 0 0 1 339 1556)">
   <path d="M0.976562 0L3.66211 0L12.9883-24.4629L45.752-24.4629L55.127 0L57.7637 0L30.6152-70.459L28.125-70.459ZM29.3457-67.1387L29.4434-67.1387L44.873-26.709L13.8672-26.709Z"/>
  </g>
  <line id="Baseline-L" style="fill:none;stroke:#27AAE1;opacity:1;stroke-width:0.5;" x1="263" x2="3036" y1="1556" y2="1556"/>
  <line id="Capline-L" style="fill:none;stroke:#27AAE1;opacity:1;stroke-width:0.5;" x1="263" x2="3036" y1="1485.54" y2="1485.54"/>
  <line id="left-margin" style="fill:none;stroke:#00AEEF;stroke-width:0.5;opacity:1.0;" x1="1374.77" x2="1374.77" y1="1030.79" y2="1150.12"/>
  <line id="right-margin" style="fill:none;stroke:#00AEEF;stroke-width:0.5;opacity:1.0;" x1="1524.92" x2="1524.92" y1="1030.79" y2="1150.12"/>
 </g>
 <g id="Symbols">
  <g id="Black-L" transform="matrix(1 0 0 1 2828.61 1556)">
   <path d="M41.3574-13.623L168.604-13.623L176.221-44.5801C185.84-45.4102 193.506-53.5156 193.506-63.4277C193.506-73.7793 185.01-82.2266 174.658-82.2266C164.209-82.2266 155.762-73.7305 155.762-63.4277C155.762-61.4258 156.104-59.5215 156.641-57.7148L139.404-45.7031C138.379-44.9707 137.646-45.166 137.061-45.9961L115.186-76.6113C120.361-79.9805 123.779-85.8398 123.779-92.4805C123.779-102.832 115.332-111.279 104.98-111.279C94.5312-111.279 86.084-102.832 86.084-92.4805C86.084-85.8398 89.5508-79.9805 94.7754-76.6113L73.291-46.582C72.7539-45.752 72.0215-45.5078 70.9473-46.2891L53.1738-58.6914C53.5645-60.2051 53.7598-61.7676 53.7598-63.4277C53.7598-73.7305 45.3125-82.2266 34.9609-82.2266C24.5117-82.2266 16.0645-73.7793 16.0645-63.4277C16.0645-53.3691 23.9258-45.166 33.7402-44.5312ZM44.873 0.78125L47.5586 11.6699C50.4883 23.7305 57.666 29.8828 69.8242 29.8828L140.137 29.8828C152.295 29.8828 159.375 23.7793 162.402 11.6699L165.088 0.78125Z"/>
  </g>
  <g id="Heavy-L" transform="matrix(1 0 0 1 2534.2 1556)">
   <path d="M41.2598-12.3047L164.062-12.3047L171.973-44.5801C181.396-45.0684 188.916-52.8809 188.916-62.4512C188.916-72.2168 180.908-80.2246 171.094-80.2246C161.23-80.2246 153.223-72.2168 153.223-62.4512C153.223-60.2539 153.613-58.2031 154.346-56.25L136.865-44.0918C135.547-43.1152 134.521-43.4082 133.74-44.5312L112.012-75.293C117.09-78.4668 120.459-84.082 120.459-90.5273C120.459-100.293 112.451-108.301 102.637-108.301C92.7734-108.301 84.7656-100.293 84.7656-90.5273C84.7656-84.082 88.1836-78.418 93.2617-75.293L71.7773-44.873C71.0449-43.8477 70.1172-43.5547 68.7988-44.4824L50.9277-56.9824C51.4648-58.6914 51.7578-60.5469 51.7578-62.4512C51.7578-72.2168 43.75-80.2246 33.9355-80.2246C24.0723-80.2246 16.0645-72.2168 16.0645-62.4512C16.0645-52.7344 23.7793-44.873 33.3496-44.5801ZM44.3848 0.537109L46.875 10.5957C49.707 22.1191 56.3477 27.9297 68.0176 27.9297L137.305 27.9297C148.926 27.9297 155.566 22.168 158.398 10.5957L160.889 0.537109Z"/>
  </g>
  <g id="Bold-L" transform="matrix(1 0 0 1 2240.03 1556)">
   <path d="M41.2109-10.8398L158.984-10.8398L167.236-44.5801C176.27-44.5801 183.838-52.0996 183.838-61.3281C183.838-70.5078 176.318-78.0273 167.09-78.0273C157.861-78.0273 150.391-70.5078 150.391-61.3281C150.391-58.9844 150.879-56.7383 151.758-54.6875L134.082-42.2852C132.324-41.0645 131.055-41.4551 130.078-42.8711L108.447-73.8281C113.428-76.7578 116.748-82.1289 116.748-88.2812C116.748-97.4609 109.229-104.98 100.049-104.98C90.8203-104.98 83.3008-97.4609 83.3008-88.2812C83.3008-82.1289 86.6699-76.709 91.6504-73.8281L70.0684-42.9688C69.1406-41.6504 68.0176-41.3086 66.3574-42.4805L48.3398-55.1758C49.0723-57.0801 49.5117-59.1797 49.5117-61.3281C49.5117-70.5078 41.9922-78.0273 32.8125-78.0273C23.5352-78.0273 16.0645-70.5078 16.0645-61.3281C16.0645-52.0996 23.584-44.5801 32.8125-44.5801L32.8613-44.5801ZM43.8965 0.292969L46.1426 9.42383C48.8281 20.3125 54.8828 25.7324 65.9668 25.7324L134.131 25.7324C145.215 25.7324 151.27 20.3613 153.955 9.42383L156.25 0.292969Z"/>
  </g>
  <g id="Semibold-L" transform="matrix(1 0 0 1 1945.1 1556)">
   <path d="M41.1133-9.81445L155.469-9.81445L163.965-44.6289C164.111-44.6289 164.209-44.6289 164.355-44.6289C173.096-44.6289 180.273-51.7578 180.273-60.5957C180.273-69.3359 173.145-76.5137 164.355-76.5137C155.566-76.5137 148.438-69.2871 148.438-60.5957C148.438-58.1055 149.023-55.7129 150-53.6133L132.129-41.0156C130.127-39.6484 128.711-40.0879 127.49-41.6992L106.006-72.8027C110.889-75.5371 114.16-80.7617 114.16-86.7676C114.16-95.5078 107.031-102.686 98.291-102.686C89.4531-102.686 82.3242-95.5078 82.3242-86.7676C82.3242-80.7617 85.6445-75.5371 90.5273-72.8027L68.8965-41.6504C67.8711-40.1855 66.5527-39.7949 64.6973-41.0645L46.4844-53.9551C47.4121-55.957 47.9492-58.2031 47.9492-60.5957C47.9492-69.2871 40.7715-76.5137 32.0312-76.5137C23.1934-76.5137 16.0645-69.3359 16.0645-60.5957C16.0645-51.7578 23.2422-44.6289 32.0312-44.6289C32.2266-44.6289 32.373-44.6289 32.5684-44.6289ZM43.5547 0.0976562L45.6543 8.64258C48.1934 19.043 53.9062 24.2188 64.5996 24.2188L131.934 24.2188C142.627 24.2188 148.291 19.1406 150.879 8.64258L152.979 0.0976562Z"/>
  </g>
  <g id="Medium-L" transform="matrix(1 0 0 1 1649.7 1556)">
   <path d="M41.0645-9.0332L152.783-9.0332L161.523-44.6777C161.768-44.6289 162.012-44.6289 162.256-44.6289C170.703-44.6289 177.637-51.5137 177.637-60.0098C177.637-68.457 170.752-75.3418 162.256-75.3418C153.809-75.3418 146.924-68.4082 146.924-60.0098C146.924-57.4219 147.607-54.9805 148.73-52.832L130.664-40.0879C128.467-38.5742 126.855-39.0625 125.586-40.8691L104.15-72.0703C108.936-74.6582 112.207-79.7363 112.207-85.5957C112.207-93.9941 105.322-100.928 96.9238-100.928C88.4277-100.928 81.543-94.043 81.543-85.5957C81.543-79.7363 84.8145-74.6582 89.6484-72.0703L68.0176-40.6738C66.8457-39.0625 65.4297-38.623 63.4277-40.0391L45.0684-53.0273C46.1426-55.127 46.7285-57.4707 46.7285-60.0098C46.7285-68.4082 39.8926-75.3418 31.4453-75.3418C22.9492-75.3418 16.0645-68.457 16.0645-60.0098C16.0645-51.5137 22.998-44.6289 31.4453-44.6289C31.7383-44.6289 32.0312-44.6777 32.3242-44.6777ZM43.2617 0L45.2637 8.00781C47.7539 18.1152 53.125 23.0469 63.5254 23.0469L130.273 23.0469C140.674 23.0469 146.094 18.1641 148.535 8.00781L150.537 0Z"/>
  </g>
  <g id="Regular-L" transform="matrix(1 0 0 1 1354.73 1556)">
   <path d="M41.0156-8.00781L149.316-8.00781L158.301-44.7266C158.691-44.6777 159.131-44.6777 159.57-44.6777C167.578-44.6777 174.17-51.2207 174.17-59.2773C174.17-67.2852 167.627-73.8281 159.57-73.8281C151.514-73.8281 145.02-67.2363 145.02-59.2773C145.02-56.543 145.752-54.0039 147.021-51.8066L128.76-38.8184C126.318-37.1582 124.512-37.6953 123.047-39.7461L101.709-71.0938C106.445-73.4863 109.668-78.418 109.668-84.082C109.668-92.0898 103.174-98.6328 95.1172-98.6328C87.0605-98.6328 80.5176-92.1387 80.5176-84.082C80.5176-78.418 83.7891-73.4863 88.5254-71.0938L66.8945-39.4043C65.5762-37.5488 64.0137-37.1094 61.7676-38.6719L43.1641-51.8555C44.4824-54.0039 45.2148-56.543 45.2148-59.2773C45.2148-67.2363 38.6719-73.8281 30.6641-73.8281C22.6074-73.8281 16.0645-67.2852 16.0645-59.2773C16.0645-51.2207 22.6562-44.6777 30.6641-44.6777C31.1035-44.6777 31.543-44.6777 31.9824-44.7266ZM42.9199-0.195312L44.7754 7.22656C47.1191 16.8457 52.1484 21.582 62.1094 21.582L128.125 21.582C138.135 21.582 143.164 16.9434 145.508 7.22656L147.363-0.195312Z"/>
  </g>
  <g id="Light-L" transform="matrix(1 0 0 1 1060.43 1556)">
   <path d="M41.1133-7.12891L144.385-7.12891L153.711-44.873C154.248-44.8242 154.834-44.7754 155.371-44.7754C163.037-44.7754 169.336-51.0254 169.336-58.6914C169.336-66.3574 163.086-72.6562 155.371-72.6562C147.705-72.6562 141.455-66.3574 141.455-58.6914C141.455-55.7129 142.432-52.9785 144.043-50.6836L126.27-38.623C123.438-36.7676 121.191-37.2559 119.336-39.7461L98.4863-68.9941C103.271-71.1914 106.689-76.0742 106.689-81.7383C106.689-89.3555 100.439-95.6543 92.7734-95.6543C85.0586-95.6543 78.8086-89.4043 78.8086-81.7383C78.8086-76.0742 82.1777-71.1914 87.0117-68.9941L65.625-39.209C64.0137-37.0605 62.0605-36.7188 59.6191-38.3301L41.4062-50.6836C42.9688-52.9785 43.9453-55.7129 43.9453-58.6914C43.9453-66.3574 37.6953-72.6562 30.0293-72.6562C22.3145-72.6562 16.0645-66.3574 16.0645-58.6914C16.0645-51.0254 22.3633-44.7754 30.0293-44.7754C30.6152-44.7754 31.2012-44.8242 31.7871-44.873ZM42.7734-0.390625L44.5312 6.83594C46.8262 16.1621 51.5625 20.459 61.0352 20.459L124.463 20.459C133.936 20.459 138.672 16.2598 140.967 6.83594L142.725-0.390625Z"/>
  </g>
  <g id="Thin-L" transform="matrix(1 0 0 1 766.896 1556)">
   <path d="M41.2598-5.9082L137.939-5.9082L147.607-45.0684C148.34-44.9707 149.121-44.873 149.902-44.873C157.08-44.873 162.988-50.7812 162.988-57.959C162.988-65.1855 157.08-71.0449 149.902-71.0449C142.676-71.0449 136.816-65.1855 136.816-57.959C136.816-54.5898 138.086-51.5137 140.234-49.1699L122.998-38.3301C119.629-36.2305 116.797-36.7188 114.453-39.7461L93.9941-66.2598C99.0723-68.0664 102.686-72.9004 102.686-78.5645C102.686-85.7422 96.7773-91.6504 89.5996-91.6504C82.373-91.6504 76.5137-85.791 76.5137-78.5645C76.5137-72.9004 80.127-68.0664 85.2051-66.2598L63.9648-38.9648C61.9629-36.4258 59.4727-36.2305 56.7871-37.8906L38.8184-49.1699C40.9668-51.5137 42.2363-54.5898 42.2363-57.959C42.2363-65.1855 36.377-71.0449 29.1504-71.0449C21.9727-71.0449 16.0645-65.1855 16.0645-57.959C16.0645-50.7812 21.9727-44.873 29.1504-44.873C29.9805-44.873 30.8105-44.9707 31.5918-45.1172ZM42.5781-0.634766L44.2871 6.29883C46.4844 15.2832 50.8301 18.9941 59.5703 18.9941L119.629 18.9941C128.369 18.9941 132.715 15.332 134.912 6.29883L136.621-0.634766Z"/>
  </g>
  <g id="Ultralight-L" transform="matrix(1 0 0 1 471.82 1556)">
   <path d="M41.3574-5.32227L134.619-5.32227L144.482-45.2148C145.312-45.0195 146.191-44.9707 147.07-44.9707C154.053-44.9707 159.717-50.6348 159.717-57.6172C159.717-64.5508 154.053-70.2637 147.07-70.2637C140.137-70.2637 134.424-64.5508 134.424-57.6172C134.424-53.9551 135.986-50.6836 138.428-48.3398L121.338-38.1836C117.676-35.9375 114.551-36.4258 111.914-39.7949L91.6016-64.8438C96.8262-66.4062 100.635-71.2402 100.635-76.9531C100.635-83.9355 94.9707-89.5996 87.9883-89.5996C81.0059-89.5996 75.3418-83.9355 75.3418-76.9531C75.3418-71.2402 79.1504-66.4062 84.375-64.8438L63.0859-38.8184C60.9375-36.084 58.1055-35.9375 55.3223-37.6465L37.3535-48.3887C39.8438-50.6836 41.3574-53.9551 41.3574-57.6172C41.3574-64.5508 35.6934-70.2637 28.7109-70.2637C21.7773-70.2637 16.0645-64.5508 16.0645-57.6172C16.0645-50.6348 21.7773-44.9707 28.7109-44.9707C29.6387-44.9707 30.5664-45.0684 31.4453-45.2637ZM42.4805-0.732422L44.1406 6.00586C46.2891 14.8438 50.4395 18.2617 58.7891 18.2617L117.139 18.2617C125.488 18.2617 129.688 14.8438 131.836 6.00586L133.496-0.732422Z"/>
  </g>
  <g id="Black-M" transform="matrix(1 0 0 1 2850.42 1126)">
   <path d="M32.2266-19.7754L134.229-19.7754L139.795-42.5293C147.51-43.457 153.516-50.0977 153.516-58.1055C153.516-66.6992 146.533-73.6816 137.939-73.6816C129.297-73.6816 122.266-66.6992 122.266-58.1055C122.266-56.6406 122.461-55.2246 122.852-53.8574L110.107-45.4102C109.57-45.0684 109.082-45.1172 108.691-45.6055L91.7969-67.9199C95.9961-70.7031 98.8281-75.5371 98.8281-81.0059C98.8281-89.5996 91.7969-96.582 83.2031-96.582C74.5605-96.582 67.5293-89.5996 67.5293-81.0059C67.5293-75.5371 70.3613-70.7031 74.6094-67.8711L58.2031-46.2402C57.8125-45.752 57.3242-45.7031 56.7871-46.0449L43.4082-54.9316C43.6035-55.957 43.7012-57.0312 43.7012-58.1055C43.7012-66.6992 36.7188-73.6816 28.125-73.6816C19.4824-73.6816 12.4512-66.6992 12.4512-58.1055C12.4512-49.9512 18.7012-43.2129 26.6602-42.4805ZM35.3027-7.12891L37.6465 2.29492C40.0879 12.3047 46.1426 17.2363 55.957 17.2363L110.449 17.2363C120.264 17.2363 126.318 12.3047 128.809 2.29492L131.104-7.12891Z"/>
  </g>
  <g id="Heavy-M" transform="matrix(1 0 0 1 2555.56 1126)">
   <path d="M32.1289-18.5547L130.518-18.5547L136.377-42.4805C143.848-43.1641 149.805-49.4629 149.805-57.1777C149.805-65.2344 143.213-71.8262 135.107-71.8262C127.002-71.8262 120.41-65.2344 120.41-57.1777C120.41-55.6152 120.654-54.0527 121.094-52.6367L108.008-43.7012C107.178-43.1152 106.543-43.2617 106.055-43.9453L89.1602-67.041C93.2617-69.6777 95.9473-74.2188 95.9473-79.4434C95.9473-87.5 89.3555-94.1406 81.2988-94.1406C73.1445-94.1406 66.5527-87.5488 66.5527-79.4434C66.5527-74.2188 69.2871-69.6289 73.3887-67.041L56.8359-44.4336C56.3965-43.75 55.7617-43.6035 54.9805-44.1406L41.3574-53.4668C41.6992-54.6387 41.8457-55.8594 41.8457-57.1777C41.8457-65.2344 35.2539-71.8262 27.1973-71.8262C19.043-71.8262 12.4512-65.2344 12.4512-57.1777C12.4512-49.3652 18.5547-42.9688 26.2207-42.4805ZM34.8633-7.32422L36.9629 1.26953C39.2578 10.6934 44.873 15.4297 54.2969 15.4297L108.301 15.4297C117.725 15.4297 123.291 10.7422 125.635 1.26953L127.734-7.32422Z"/>
  </g>
  <g id="Bold-M" transform="matrix(1 0 0 1 2260.95 1126)">
   <path d="M31.9824-17.2363L126.367-17.2363L132.568-42.4805C139.795-42.7734 145.605-48.7793 145.605-56.1523C145.605-63.623 139.502-69.7266 131.982-69.7266C124.463-69.7266 118.311-63.623 118.311-56.1523C118.311-54.4434 118.652-52.7832 119.189-51.2695L105.664-41.7969C104.541-41.0156 103.711-41.2598 103.076-42.1387L86.2305-66.0645C90.1367-68.457 92.7734-72.8027 92.7734-77.7344C92.7734-85.2051 86.6699-91.3574 79.1504-91.3574C71.582-91.3574 65.4785-85.2051 65.4785-77.7344C65.4785-72.8027 68.1152-68.457 72.0215-66.0645L55.3711-42.3828C54.7363-41.5527 54.0039-41.3086 52.9297-42.041L39.0625-51.8066C39.502-53.1738 39.7461-54.6387 39.7461-56.1523C39.7461-63.623 33.6426-69.7266 26.123-69.7266C18.5547-69.7266 12.4512-63.623 12.4512-56.1523C12.4512-48.6816 18.4082-42.6758 25.7812-42.4805ZM34.3262-7.56836L36.2305 0.0976562C38.3789 8.93555 43.457 13.3301 52.3926 13.3301L105.908 13.3301C114.844 13.3301 119.873 8.98438 122.07 0.0976562L123.975-7.56836Z"/>
  </g>
  <g id="Semibold-M" transform="matrix(1 0 0 1 1965.68 1126)">
   <path d="M31.8848-16.3086L123.486-16.3086L129.883-42.4805C136.914-42.4805 142.725-48.2422 142.725-55.4199C142.725-62.5 136.963-68.3105 129.785-68.3105C122.705-68.3105 116.895-62.5 116.895-55.4199C116.895-53.6133 117.236-51.9043 117.92-50.3418L104.004-40.4785C102.734-39.5508 101.807-39.8438 101.074-40.8691L84.2285-65.3809C87.9883-67.627 90.5762-71.7773 90.5762-76.5625C90.5762-83.5938 84.7656-89.4531 77.6855-89.4531C70.5078-89.4531 64.7461-83.6426 64.7461-76.5625C64.7461-71.7773 67.2852-67.627 71.0938-65.3809L54.3457-41.0156C53.6621-39.9902 52.832-39.6973 51.5137-40.625L37.4023-50.6836C37.9883-52.1484 38.2812-53.7598 38.2812-55.4199C38.2812-62.5 32.5195-68.3105 25.3906-68.3105C18.2617-68.3105 12.4512-62.5 12.4512-55.4199C12.4512-48.2422 18.2617-42.4805 25.3906-42.4805L25.4395-42.4805ZM33.9844-7.71484L35.6934-0.683594C37.7441 7.66602 42.4316 11.9141 51.0742 11.9141L104.248 11.9141C112.891 11.9141 117.578 7.76367 119.629-0.683594L121.387-7.71484Z"/>
  </g>
  <g id="Medium-M" transform="matrix(1 0 0 1 1670.07 1126)">
   <path d="M31.8359-15.5762L121.338-15.5762L127.93-42.4805C127.979-42.4805 128.076-42.4805 128.174-42.4805C134.961-42.4805 140.527-48.0469 140.527-54.8828C140.527-61.6699 135.01-67.2363 128.174-67.2363C121.338-67.2363 115.82-61.6211 115.82-54.8828C115.82-53.0273 116.211-51.2207 116.943-49.6582L102.783-39.4531C101.318-38.4277 100.293-38.7695 99.5117-39.9414L82.666-64.8438C86.377-66.9922 88.916-71.0449 88.916-75.6348C88.916-82.4219 83.3496-87.9883 76.5625-87.9883C69.6777-87.9883 64.1602-82.4219 64.1602-75.6348C64.1602-71.0449 66.6992-66.9922 70.4102-64.8438L53.5645-39.9414C52.7832-38.8184 51.9043-38.4766 50.4883-39.502L36.1328-49.8535C36.8164-51.3672 37.207-53.0762 37.207-54.8828C37.207-61.6211 31.6406-67.2363 24.8535-67.2363C18.0176-67.2363 12.4512-61.6699 12.4512-54.8828C12.4512-48.0469 18.0176-42.4805 24.8535-42.4805C24.9512-42.4805 25.0977-42.4805 25.1953-42.4805ZM33.6914-7.8125L35.3027-1.31836C37.3047 6.73828 41.6992 10.8398 50.0977 10.8398L103.027 10.8398C111.426 10.8398 115.82 6.83594 117.773-1.31836L119.385-7.8125Z"/>
  </g>
  <g id="Regular-M" transform="matrix(1 0 0 1 1374.77 1126)">
   <path d="M31.7383-14.6484L118.506-14.6484L125.293-42.5293C125.537-42.4805 125.781-42.4805 126.025-42.4805C132.422-42.4805 137.695-47.7051 137.695-54.1992C137.695-60.5957 132.471-65.8203 126.025-65.8203C119.629-65.8203 114.404-60.5469 114.404-54.1992C114.404-52.1973 114.893-50.3418 115.723-48.7305L101.172-38.1348C99.5117-36.9629 98.3887-37.4023 97.4609-38.7207L80.6152-64.209C84.2285-66.1621 86.7188-70.0195 86.7188-74.4629C86.7188-80.8105 81.4941-86.084 75.0977-86.084C68.6035-86.084 63.4277-80.8594 63.4277-74.4629C63.4277-70.0195 65.918-66.1621 69.5312-64.209L52.5391-38.5742C51.709-37.3047 50.7324-36.9141 49.0723-38.0859L34.4238-48.7793C35.3027-50.3906 35.7422-52.1973 35.7422-54.1992C35.7422-60.5469 30.5664-65.8203 24.1211-65.8203C17.6758-65.8203 12.4512-60.5957 12.4512-54.1992C12.4512-47.7051 17.7246-42.4805 24.1211-42.4805C24.3652-42.4805 24.6094-42.4805 24.8535-42.5293ZM33.3496-7.95898L34.8145-2.09961C36.6699 5.51758 40.7227 9.42383 48.7793 9.42383L101.367 9.42383C109.473 9.42383 113.477 5.61523 115.381-2.09961L116.846-7.95898Z"/>
  </g>
  <g id="Light-M" transform="matrix(1 0 0 1 1080.21 1126)">
   <path d="M31.8359-13.8184L114.111-13.8184L121.191-42.627C121.533-42.5781 121.924-42.5781 122.266-42.5781C128.369-42.5781 133.398-47.5586 133.398-53.6621C133.398-59.7656 128.418-64.7461 122.266-64.7461C116.211-64.7461 111.23-59.7656 111.23-53.6621C111.23-51.4648 111.865-49.4141 112.939-47.7051L98.9746-37.9395C96.9238-36.5723 95.4102-37.0117 94.1406-38.7207L77.7832-62.3535C81.4453-64.1113 84.0332-67.9199 84.0332-72.3145C84.0332-78.3691 79.0527-83.3984 72.9492-83.3984C66.7969-83.3984 61.8652-78.418 61.8652-72.3145C61.8652-67.9199 64.4043-64.1602 68.1152-62.3535L51.416-38.3789C50.293-36.8652 48.9746-36.5723 47.168-37.793L32.9102-47.7539C33.9844-49.4629 34.6191-51.5137 34.6191-53.6621C34.6191-59.7656 29.6387-64.7461 23.5352-64.7461C17.4316-64.7461 12.4512-59.7656 12.4512-53.6621C12.4512-47.5586 17.4316-42.5781 23.5352-42.5781C23.9258-42.5781 24.3652-42.5781 24.707-42.627ZM33.2031-8.1543L34.6191-2.44141C36.4258 4.93164 40.2344 8.44727 47.8027 8.44727L98.0957 8.44727C105.664 8.44727 109.473 4.98047 111.279-2.44141L112.695-8.1543Z"/>
  </g>
  <g id="Thin-M" transform="matrix(1 0 0 1 786.354 1126)">
   <path d="M31.9824-12.7441L108.301-12.7441L115.723-42.8223C116.26-42.7246 116.797-42.6758 117.334-42.6758C123.047-42.6758 127.686-47.3145 127.686-53.0273C127.686-58.6914 123.047-63.3301 117.334-63.3301C111.67-63.3301 107.031-58.6914 107.031-53.0273C107.031-50.4883 107.959-48.1445 109.473-46.3379L96.0449-37.6953C93.5059-36.1328 91.4551-36.4746 89.7461-38.7207L73.8281-59.8633C77.6855-61.377 80.4688-65.1367 80.4688-69.4824C80.4688-75.1465 75.7812-79.834 70.1172-79.834C64.4531-79.834 59.7656-75.1953 59.7656-69.4824C59.7656-65.1367 62.5488-61.377 66.4062-59.8633L49.9023-38.1836C48.4863-36.2793 46.6309-36.084 44.6289-37.4023L30.6641-46.3867C32.1777-48.1445 33.1055-50.4883 33.1055-53.0273C33.1055-58.6914 28.4668-63.3301 22.8027-63.3301C17.0898-63.3301 12.4512-58.6914 12.4512-53.0273C12.4512-47.3145 17.0898-42.6758 22.8027-42.6758C23.3887-42.6758 23.9746-42.7246 24.5117-42.8223ZM33.0566-8.34961L34.375-2.92969C36.084 4.10156 39.5508 7.12891 46.4844 7.12891L93.75 7.12891C100.684 7.12891 104.15 4.15039 105.859-2.92969L107.227-8.34961Z"/>
  </g>
  <g id="Ultralight-M" transform="matrix(1 0 0 1 491.108 1126)">
   <path d="M32.0312-12.207L105.322-12.207L112.939-42.9199C113.525-42.8223 114.16-42.7246 114.844-42.7246C120.312-42.7246 124.756-47.2168 124.756-52.6855C124.756-58.1543 120.312-62.6465 114.844-62.6465C109.375-62.6465 104.883-58.1543 104.883-52.6855C104.883-49.9512 106.006-47.4609 107.812-45.6543L94.5312-37.5488C91.748-35.8398 89.4531-36.2305 87.5-38.7695L71.7285-58.5938C75.7324-59.8633 78.6133-63.623 78.6133-68.0664C78.6133-73.5352 74.1211-77.9785 68.6523-77.9785C63.2324-77.9785 58.7402-73.5352 58.7402-68.0664C58.7402-63.6719 61.6211-59.9121 65.625-58.5938L49.1699-38.0371C47.5098-35.9863 45.459-35.8887 43.3105-37.1582L29.3945-45.6543C31.2012-47.4609 32.3242-49.9512 32.3242-52.6855C32.3242-58.1543 27.8809-62.6465 22.4121-62.6465C16.9434-62.6465 12.4512-58.1543 12.4512-52.6855C12.4512-47.2168 16.9434-42.7246 22.4121-42.7246C23.0957-42.7246 23.7793-42.8223 24.4141-42.9688ZM32.959-8.44727L34.2773-3.17383C35.9375 3.71094 39.209 6.44531 45.8008 6.44531L91.5527 6.44531C98.1445 6.44531 101.416 3.71094 103.076-3.17383L104.395-8.44727Z"/>
  </g>
  <g id="Black-S" transform="matrix(1 0 0 1 2868.48 696)">
   <path d="M25.2441-23.0469L104.932-23.0469L109.326-40.9668C115.381-41.6504 120.068-46.8262 120.068-53.0762C120.068-59.7656 114.6-65.2344 107.91-65.2344C101.172-65.2344 95.7031-59.7656 95.7031-53.0762C95.7031-51.9043 95.8496-50.8301 96.1426-49.7559L86.1328-43.0664C85.6934-42.7734 85.3027-42.8223 85.0098-43.2129L71.7773-60.791C75.0488-62.9883 77.2461-66.748 77.2461-70.9961C77.2461-77.6855 71.7773-83.1543 65.0879-83.1543C58.3496-83.1543 52.8809-77.6855 52.8809-70.9961C52.8809-66.748 55.0781-62.9395 58.3984-60.791L45.5078-43.7012C45.2148-43.3105 44.8242-43.2617 44.3848-43.5547L33.8867-50.5859C34.0332-51.3672 34.1309-52.1973 34.1309-53.0762C34.1309-59.7656 28.6621-65.2344 21.9727-65.2344C15.2344-65.2344 9.76562-59.7656 9.76562-53.0762C9.76562-46.7285 14.6484-41.5039 20.8496-40.918ZM27.6367-13.2324L29.4434-5.9082C31.3477 1.9043 36.084 5.76172 43.75 5.76172L86.4258 5.76172C94.0918 5.76172 98.7793 1.9043 100.732-5.9082L102.539-13.2324Z"/>
  </g>
  <g id="Heavy-S" transform="matrix(1 0 0 1 2572.97 696)">
   <path d="M25.1465-22.2168L102.588-22.2168L107.178-40.918C113.037-41.4062 117.676-46.3867 117.676-52.4414C117.676-58.7402 112.5-63.916 106.152-63.916C99.8047-63.916 94.6289-58.7402 94.6289-52.4414C94.6289-51.2207 94.8242-50.0488 95.166-48.9746L84.7656-41.7969C84.1797-41.3574 83.6914-41.4551 83.3496-41.9922L70.0684-60.3516C73.2422-62.4023 75.3418-65.9668 75.3418-70.0684C75.3418-76.3672 70.166-81.543 63.8672-81.543C57.4707-81.543 52.2949-76.3672 52.2949-70.0684C52.2949-65.9668 54.4434-62.4023 57.6172-60.3516L44.6289-42.334C44.2871-41.8457 43.8477-41.6992 43.2129-42.1387L32.4707-49.5605C32.7148-50.4883 32.8125-51.416 32.8125-52.4414C32.8125-58.7402 27.6367-63.916 21.3379-63.916C14.9414-63.916 9.76562-58.7402 9.76562-52.4414C9.76562-46.2891 14.5508-41.3086 20.5566-40.918ZM27.2949-13.3789L28.9551-6.64062C30.7617 0.732422 35.1562 4.44336 42.5781 4.44336L85.1562 4.44336C92.5781 4.44336 96.9238 0.78125 98.7793-6.64062L100.439-13.3789Z"/>
  </g>
  <g id="Bold-S" transform="matrix(1 0 0 1 2277.58 696)">
   <path d="M25.0488-21.2891L99.9512-21.2891L104.736-40.8691C110.449-41.1621 115.039-45.8984 115.039-51.709C115.039-57.6172 110.205-62.4512 104.248-62.4512C98.291-62.4512 93.4082-57.6172 93.4082-51.709C93.4082-50.3906 93.6523-49.1699 94.043-48.0469L83.252-40.332C82.4707-39.7461 81.9336-39.9414 81.4941-40.5762L68.2129-59.8145C71.2402-61.7188 73.2422-65.1367 73.2422-68.9941C73.2422-74.9023 68.4082-79.7852 62.5-79.7852C56.4941-79.7852 51.6602-74.9512 51.6602-68.9941C51.6602-65.1367 53.7109-61.7188 56.7383-59.8145L43.6035-40.8203C43.2129-40.1855 42.7246-39.9902 41.8945-40.5762L30.8594-48.4375C31.2012-49.4629 31.3477-50.5859 31.3477-51.709C31.3477-57.6172 26.5137-62.4512 20.6055-62.4512C14.5996-62.4512 9.76562-57.6172 9.76562-51.709C9.76562-45.8496 14.4043-41.0645 20.2148-40.8691ZM26.9043-13.5254L28.418-7.51953C30.127-0.537109 34.1309 2.97852 41.2109 2.97852L83.7402 2.97852C90.8691 2.97852 94.8242-0.488281 96.582-7.51953L98.0469-13.5254Z"/>
  </g>
  <g id="Semibold-S" transform="matrix(1 0 0 1 1981.79 696)">
   <path d="M24.9512-20.6543L98.1445-20.6543L103.076-40.8691C108.545-40.8691 113.184-45.5078 113.184-51.1719C113.184-56.8359 108.594-61.4746 102.881-61.4746C97.2168-61.4746 92.627-56.8359 92.627-51.1719C92.627-49.8535 92.8711-48.584 93.3105-47.4121L82.1777-39.3555C81.2988-38.6719 80.7129-38.916 80.2246-39.5996L66.8945-59.4727C69.8242-61.2793 71.7773-64.5508 71.7773-68.2617C71.7773-73.877 67.1875-78.5156 61.5234-78.5156C55.8105-78.5156 51.2207-73.9258 51.2207-68.2617C51.2207-64.5508 53.2227-61.2793 56.2012-59.4727L42.9199-39.7461C42.4805-39.0625 41.9434-38.8184 40.9668-39.502L29.7363-47.6562C30.127-48.7793 30.3711-49.9512 30.3711-51.1719C30.3711-56.8359 25.7324-61.4746 20.0684-61.4746C14.3555-61.4746 9.76562-56.8359 9.76562-51.1719C9.76562-45.5078 14.3555-40.918 19.9707-40.8691ZM26.6602-13.623L28.0273-8.05664C29.6387-1.46484 33.3984 2.00195 40.332 2.00195L82.7637 2.00195C89.6484 2.00195 93.4082-1.41602 95.0195-8.05664L96.3867-13.623Z"/>
  </g>
  <g id="Medium-S" transform="matrix(1 0 0 1 1685.76 696)">
   <path d="M24.9023-20.1172L96.7773-20.1172L101.807-40.8691C101.855-40.8691 101.855-40.8691 101.855-40.8691C107.324-40.8691 111.816-45.3125 111.816-50.8301C111.816-56.25 107.373-60.6934 101.855-60.6934C96.4355-60.6934 91.9922-56.2012 91.9922-50.8301C91.9922-49.4141 92.2363-48.0957 92.7734-46.9238L81.3965-38.5742C80.4199-37.8418 79.7363-38.1348 79.248-38.8672L65.8691-59.1797C68.75-60.9375 70.7031-64.0625 70.7031-67.7246C70.7031-73.1445 66.2598-77.5879 60.791-77.5879C55.3223-77.5879 50.8789-73.1934 50.8789-67.7246C50.8789-64.0625 52.832-60.8887 55.7617-59.1797L42.3828-38.9648C41.8945-38.2324 41.3574-37.8906 40.2832-38.6719L28.8574-47.0703C29.3457-48.2422 29.5898-49.5117 29.5898-50.8301C29.5898-56.2012 25.1465-60.6934 19.6777-60.6934C14.209-60.6934 9.76562-56.25 9.76562-50.8301C9.76562-45.3125 14.2578-40.8691 19.6777-40.8691L19.7754-40.8691ZM26.4648-13.6719L27.7344-8.49609C29.2969-2.14844 32.8613 1.2207 39.5996 1.2207L81.9824 1.2207C88.7695 1.2207 92.2852-2.05078 93.8965-8.49609L95.166-13.6719Z"/>
  </g>
  <g id="Regular-S" transform="matrix(1 0 0 1 1389.98 696)">
   <path d="M24.8047-19.4824L94.9707-19.4824L100.195-40.8691C100.293-40.8691 100.439-40.8691 100.537-40.8691C105.713-40.8691 109.961-45.0684 109.961-50.293C109.961-55.4688 105.762-59.7168 100.537-59.7168C95.3613-59.7168 91.1621-55.4199 91.1621-50.293C91.1621-48.877 91.4551-47.5098 92.041-46.2891L80.3711-37.5977C79.248-36.7676 78.5645-37.1094 77.9785-37.9395L64.5508-58.8379C67.334-60.4492 69.2383-63.4766 69.2383-66.9922C69.2383-72.1191 65.0391-76.3672 59.8633-76.3672C54.6387-76.3672 50.4395-72.168 50.4395-66.9922C50.4395-63.4766 52.3438-60.4492 55.1758-58.8379L41.6992-37.8906C41.2109-37.1094 40.5762-36.7188 39.4043-37.5977L27.6855-46.3379C28.2715-47.5586 28.5645-48.877 28.5645-50.293C28.5645-55.4199 24.3652-59.7168 19.1895-59.7168C13.9648-59.7168 9.76562-55.4688 9.76562-50.293C9.76562-45.0684 14.0137-40.8691 19.1895-40.8691C19.3359-40.8691 19.4336-40.8691 19.5801-40.8691ZM26.2207-13.8184L27.3438-9.08203C28.8574-3.02734 32.1289 0.244141 38.7207 0.244141L81.0547 0.244141C87.5977 0.244141 90.8691-2.92969 92.3828-9.08203L93.5547-13.8184Z"/>
  </g>
  <g id="Light-S" transform="matrix(1 0 0 1 1095.17 696)">
   <path d="M24.9023-18.7988L91.0645-18.7988L96.5332-40.9668C96.7773-40.9668 97.0215-40.9668 97.2656-40.9668C102.148-40.9668 106.152-44.9219 106.152-49.8535C106.152-54.7852 102.197-58.7402 97.2656-58.7402C92.334-58.7402 88.3789-54.7363 88.3789-49.8535C88.3789-48.2422 88.8184-46.7285 89.5508-45.4102L78.418-37.4512C76.9531-36.4258 75.8789-36.7676 75.0488-37.9395L62.0605-57.1777C64.8926-58.6426 66.8457-61.6699 66.8457-65.0879C66.8457-69.9707 62.8906-73.9746 57.959-73.9746C53.0762-73.9746 49.0723-70.0195 49.0723-65.0879C49.0723-61.6699 51.0254-58.6426 53.9062-57.1777L40.7227-37.7441C39.9414-36.6699 39.0625-36.4258 37.6953-37.3535L26.3672-45.4102C27.1484-46.7285 27.5879-48.2422 27.5879-49.8535C27.5879-54.7363 23.584-58.7402 18.7012-58.7402C13.7695-58.7402 9.76562-54.7852 9.76562-49.8535C9.76562-44.9219 13.7695-40.9668 18.7012-40.9668C18.9453-40.9668 19.1895-40.9668 19.4336-40.9668ZM26.0742-13.9648L27.1973-9.42383C28.6621-3.56445 31.6895-0.634766 37.8418-0.634766L78.125-0.634766C84.2773-0.634766 87.3047-3.4668 88.7695-9.42383L89.8926-13.9648Z"/>
  </g>
  <g id="Thin-S" transform="matrix(1 0 0 1 800.978 696)">
   <path d="M25-17.8223L85.9375-17.8223L91.6992-41.1621C92.0898-41.0645 92.4805-41.0645 92.8711-41.0645C97.4121-41.0645 101.123-44.7754 101.123-49.3164C101.123-53.8086 97.4121-57.5195 92.8711-57.5195C88.3789-57.5195 84.668-53.8086 84.668-49.3164C84.668-47.3633 85.3027-45.6055 86.4258-44.1895L75.8301-37.207C73.9258-36.0352 72.4121-36.3281 71.1426-37.9883L58.5938-54.9805C61.6211-56.25 63.7207-59.1797 63.7207-62.5977C63.7207-67.1387 60.0098-70.8496 55.4688-70.8496C50.9277-70.8496 47.2656-67.1387 47.2656-62.5977C47.2656-59.1797 49.3652-56.25 52.3438-54.9805L39.4043-37.5977C38.3301-36.1816 37.0117-35.9863 35.4492-37.0117L24.4629-44.1895C25.5859-45.6055 26.2207-47.3633 26.2207-49.3164C26.2207-53.8086 22.5586-57.5195 18.0176-57.5195C13.4766-57.5195 9.76562-53.8086 9.76562-49.3164C9.76562-44.7754 13.4766-41.0645 18.0176-41.0645C18.457-41.0645 18.8477-41.0645 19.2871-41.1621ZM25.9277-14.1113L27.002-9.81445C28.3691-4.24805 31.1523-1.80664 36.6699-1.80664L74.3164-1.80664C79.834-1.80664 82.6172-4.19922 83.9844-9.81445L85.0586-14.1113Z"/>
  </g>
  <g id="Ultralight-S" transform="matrix(1 0 0 1 505.561 696)">
   <path d="M25.0977-17.334L83.3008-17.334L89.209-41.2109C89.6973-41.1621 90.1855-41.1133 90.6738-41.1133C94.9707-41.1133 98.5352-44.6289 98.5352-48.9746C98.5352-53.3203 94.9707-56.8848 90.6738-56.8848C86.3281-56.8848 82.7637-53.3203 82.7637-48.9746C82.7637-46.9238 83.5938-45.0195 84.9121-43.6035L74.4629-37.1094C72.3633-35.791 70.6055-36.084 69.1406-37.9883L56.7871-53.8574C59.8633-54.9316 62.1094-57.9102 62.1094-61.3281C62.1094-65.6738 58.5449-69.2383 54.1992-69.2383C49.8535-69.2383 46.2891-65.6738 46.2891-61.3281C46.2891-57.9102 48.5352-54.9316 51.6113-53.8574L38.7207-37.4512C37.5-35.8887 35.9375-35.791 34.2773-36.8164L23.3887-43.6035C24.707-45.0195 25.5371-46.9238 25.5371-48.9746C25.5371-53.3203 22.0215-56.8848 17.6758-56.8848C13.3301-56.8848 9.76562-53.3203 9.76562-48.9746C9.76562-44.6289 13.3301-41.1133 17.6758-41.1133C18.1641-41.1133 18.7012-41.1621 19.1895-41.2598ZM25.8301-14.2578L26.9043-10.0586C28.2227-4.58984 30.8105-2.39258 36.084-2.39258L72.3145-2.39258C77.5879-2.39258 80.1758-4.58984 81.543-10.0586L82.5684-14.2578Z"/>
  </g>
 </g>
</svg>
