<?xml version="1.0" encoding="UTF-8"?>
<!--Generator: Apple Native CoreSVG 175-->
<!DOCTYPE svg
PUBLIC "-//W3C//DTD SVG 1.1//EN"
       "http://www.w3.org/Graphics/SVG/1.1/DTD/svg11.dtd">
<svg version="1.1" xmlns="http://www.w3.org/2000/svg" xmlns:xlink="http://www.w3.org/1999/xlink" width="3300" height="2200">
 <!--glyph: "uni100290.medium", point size: 100.0, font version: "17.0d12e1", template writer version: "65.1"-->
 <g id="Notes">
  <rect height="2200" id="artboard" style="fill:white;opacity:1" width="3300" x="0" y="0"/>
  <line style="fill:none;stroke:black;opacity:1;stroke-width:0.5;" x1="263" x2="3036" y1="292" y2="292"/>
  <text style="stroke:none;fill:black;font-family:sans-serif;font-size:13;font-weight:bold;" transform="matrix(1 0 0 1 263 322)">Weight/Scale Variations</text>
  <text style="stroke:none;fill:black;font-family:sans-serif;font-size:13;text-anchor:middle;" transform="matrix(1 0 0 1 559.711 322)">Ultralight</text>
  <text style="stroke:none;fill:black;font-family:sans-serif;font-size:13;text-anchor:middle;" transform="matrix(1 0 0 1 856.422 322)">Thin</text>
  <text style="stroke:none;fill:black;font-family:sans-serif;font-size:13;text-anchor:middle;" transform="matrix(1 0 0 1 1153.13 322)">Light</text>
  <text style="stroke:none;fill:black;font-family:sans-serif;font-size:13;text-anchor:middle;" transform="matrix(1 0 0 1 1449.84 322)">Regular</text>
  <text style="stroke:none;fill:black;font-family:sans-serif;font-size:13;text-anchor:middle;" transform="matrix(1 0 0 1 1746.56 322)">Medium</text>
  <text style="stroke:none;fill:black;font-family:sans-serif;font-size:13;text-anchor:middle;" transform="matrix(1 0 0 1 2043.27 322)">Semibold</text>
  <text style="stroke:none;fill:black;font-family:sans-serif;font-size:13;text-anchor:middle;" transform="matrix(1 0 0 1 2339.98 322)">Bold</text>
  <text style="stroke:none;fill:black;font-family:sans-serif;font-size:13;text-anchor:middle;" transform="matrix(1 0 0 1 2636.69 322)">Heavy</text>
  <text style="stroke:none;fill:black;font-family:sans-serif;font-size:13;text-anchor:middle;" transform="matrix(1 0 0 1 2933.4 322)">Black</text>
  <line style="fill:none;stroke:black;opacity:1;stroke-width:0.5;" x1="263" x2="3036" y1="1903" y2="1903"/>
  <g transform="matrix(1 0 0 1 263 1933)">
   <path d="M9.24805 0.830078Q10.8691 0.830078 12.2949 0.214844Q13.7207-0.400391 14.8096-1.49414Q15.8984-2.58789 16.5186-4.01367Q17.1387-5.43945 17.1387-7.05078Q17.1387-8.66211 16.5186-10.0879Q15.8984-11.5137 14.8047-12.6074Q13.7109-13.7012 12.2852-14.3164Q10.8594-14.9316 9.23828-14.9316Q7.62695-14.9316 6.20117-14.3164Q4.77539-13.7012 3.69141-12.6074Q2.60742-11.5137 1.9873-10.0879Q1.36719-8.66211 1.36719-7.05078Q1.36719-5.43945 1.9873-4.01367Q2.60742-2.58789 3.69629-1.49414Q4.78516-0.400391 6.21094 0.214844Q7.63672 0.830078 9.24805 0.830078ZM9.24805-0.654297Q7.91992-0.654297 6.7627-1.14746Q5.60547-1.64062 4.73145-2.51953Q3.85742-3.39844 3.36426-4.56055Q2.87109-5.72266 2.87109-7.05078Q2.87109-8.37891 3.35938-9.54102Q3.84766-10.7031 4.72168-11.582Q5.5957-12.4609 6.75293-12.9541Q7.91016-13.4473 9.23828-13.4473Q10.5762-13.4473 11.7334-12.9541Q12.8906-12.4609 13.7695-11.582Q14.6484-10.7031 15.1465-9.54102Q15.6445-8.37891 15.6445-7.05078Q15.6445-5.72266 15.1514-4.56055Q14.6582-3.39844 13.7842-2.51953Q12.9102-1.64062 11.748-1.14746Q10.5859-0.654297 9.24805-0.654297ZM5.6543-7.05078Q5.6543-6.72852 5.85938-6.52832Q6.06445-6.32812 6.40625-6.32812L8.51562-6.32812L8.51562-4.20898Q8.51562-3.88672 8.71094-3.67676Q8.90625-3.4668 9.23828-3.4668Q9.56055-3.4668 9.77051-3.67676Q9.98047-3.88672 9.98047-4.20898L9.98047-6.32812L12.0898-6.32812Q12.4219-6.32812 12.627-6.52832Q12.832-6.72852 12.832-7.05078Q12.832-7.38281 12.627-7.58789Q12.4219-7.79297 12.0898-7.79297L9.98047-7.79297L9.98047-9.90234Q9.98047-10.2344 9.77051-10.4443Q9.56055-10.6543 9.23828-10.6543Q8.90625-10.6543 8.71094-10.4443Q8.51562-10.2344 8.51562-9.90234L8.51562-7.79297L6.40625-7.79297Q6.06445-7.79297 5.85938-7.58789Q5.6543-7.38281 5.6543-7.05078Z"/>
  </g>
  <g transform="matrix(1 0 0 1 281.867 1933)">
   <path d="M11.709 2.91016Q13.75 2.91016 15.5518 2.12891Q17.3535 1.34766 18.7305-0.0292969Q20.1074-1.40625 20.8887-3.20801Q21.6699-5.00977 21.6699-7.05078Q21.6699-9.0918 20.8887-10.8936Q20.1074-12.6953 18.7305-14.0723Q17.3535-15.4492 15.5469-16.2305Q13.7402-17.0117 11.6992-17.0117Q9.6582-17.0117 7.85645-16.2305Q6.05469-15.4492 4.68262-14.0723Q3.31055-12.6953 2.5293-10.8936Q1.74805-9.0918 1.74805-7.05078Q1.74805-5.00977 2.5293-3.20801Q3.31055-1.40625 4.6875-0.0292969Q6.06445 1.34766 7.86621 2.12891Q9.66797 2.91016 11.709 2.91016ZM11.709 1.25Q9.98047 1.25 8.47656 0.605469Q6.97266-0.0390625 5.83496-1.17676Q4.69727-2.31445 4.05762-3.81836Q3.41797-5.32227 3.41797-7.05078Q3.41797-8.7793 4.05762-10.2832Q4.69727-11.7871 5.83008-12.9297Q6.96289-14.0723 8.4668-14.7119Q9.9707-15.3516 11.6992-15.3516Q13.4277-15.3516 14.9316-14.7119Q16.4355-14.0723 17.5781-12.9297Q18.7207-11.7871 19.3652-10.2832Q20.0098-8.7793 20.0098-7.05078Q20.0098-5.32227 19.3701-3.81836Q18.7305-2.31445 17.5928-1.17676Q16.4551-0.0390625 14.9463 0.605469Q13.4375 1.25 11.709 1.25ZM7.17773-7.05078Q7.17773-6.69922 7.41211-6.47461Q7.64648-6.25 8.01758-6.25L10.8887-6.25L10.8887-3.36914Q10.8887-2.99805 11.1133-2.76855Q11.3379-2.53906 11.6895-2.53906Q12.0605-2.53906 12.29-2.76855Q12.5195-2.99805 12.5195-3.36914L12.5195-6.25L15.4004-6.25Q15.7715-6.25 16.001-6.47461Q16.2305-6.69922 16.2305-7.05078Q16.2305-7.42188 16.001-7.65137Q15.7715-7.88086 15.4004-7.88086L12.5195-7.88086L12.5195-10.752Q12.5195-11.1328 12.29-11.3623Q12.0605-11.5918 11.6895-11.5918Q11.3379-11.5918 11.1133-11.3574Q10.8887-11.123 10.8887-10.752L10.8887-7.88086L8.01758-7.88086Q7.63672-7.88086 7.40723-7.65137Q7.17773-7.42188 7.17773-7.05078Z"/>
  </g>
  <g transform="matrix(1 0 0 1 305.646 1933)">
   <path d="M14.9707 5.66406Q17.0605 5.66406 18.96 5.01465Q20.8594 4.36523 22.4512 3.19336Q24.043 2.02148 25.2197 0.429688Q26.3965-1.16211 27.0459-3.06641Q27.6953-4.9707 27.6953-7.05078Q27.6953-9.14062 27.0459-11.04Q26.3965-12.9395 25.2197-14.5312Q24.043-16.123 22.4512-17.2998Q20.8594-18.4766 18.9551-19.126Q17.0508-19.7754 14.9609-19.7754Q12.8711-19.7754 10.9717-19.126Q9.07227-18.4766 7.48535-17.2998Q5.89844-16.123 4.72168-14.5312Q3.54492-12.9395 2.90039-11.04Q2.25586-9.14062 2.25586-7.05078Q2.25586-4.9707 2.90527-3.06641Q3.55469-1.16211 4.72656 0.429688Q5.89844 2.02148 7.49023 3.19336Q9.08203 4.36523 10.9814 5.01465Q12.8809 5.66406 14.9707 5.66406ZM14.9707 3.84766Q13.1641 3.84766 11.5283 3.2959Q9.89258 2.74414 8.53516 1.74805Q7.17773 0.751953 6.17676-0.610352Q5.17578-1.97266 4.62891-3.6084Q4.08203-5.24414 4.08203-7.05078Q4.08203-8.86719 4.62891-10.5029Q5.17578-12.1387 6.17188-13.501Q7.16797-14.8633 8.52539-15.8594Q9.88281-16.8555 11.5186-17.4023Q13.1543-17.9492 14.9609-17.9492Q16.7773-17.9492 18.4131-17.4023Q20.0488-16.8555 21.4111-15.8594Q22.7734-14.8633 23.7695-13.501Q24.7656-12.1387 25.3174-10.5029Q25.8691-8.86719 25.8691-7.05078Q25.8789-5.24414 25.332-3.6084Q24.7852-1.97266 23.7842-0.610352Q22.7832 0.751953 21.4209 1.74805Q20.0586 2.74414 18.4229 3.2959Q16.7871 3.84766 14.9707 3.84766ZM9.19922-7.05078Q9.19922-6.66992 9.45801-6.4209Q9.7168-6.17188 10.1172-6.17188L14.0625-6.17188L14.0625-2.2168Q14.0625-1.81641 14.3115-1.55762Q14.5605-1.29883 14.9512-1.29883Q15.3516-1.29883 15.6104-1.55273Q15.8691-1.80664 15.8691-2.2168L15.8691-6.17188L19.8242-6.17188Q20.2246-6.17188 20.4785-6.4209Q20.7324-6.66992 20.7324-7.05078Q20.7324-7.46094 20.4785-7.71484Q20.2246-7.96875 19.8242-7.96875L15.8691-7.96875L15.8691-11.9141Q15.8691-12.3242 15.6104-12.583Q15.3516-12.8418 14.9512-12.8418Q14.5605-12.8418 14.3115-12.583Q14.0625-12.3242 14.0625-11.9141L14.0625-7.96875L10.1172-7.96875Q9.70703-7.96875 9.45312-7.71484Q9.19922-7.46094 9.19922-7.05078Z"/>
  </g>
  <text style="stroke:none;fill:black;font-family:sans-serif;font-size:13;font-weight:bold;" transform="matrix(1 0 0 1 263 1953)">Design Variations</text>
  <text style="stroke:none;fill:black;font-family:sans-serif;font-size:13;" transform="matrix(1 0 0 1 263 1971)">Symbols are supported in up to nine weights and three scales.</text>
  <text style="stroke:none;fill:black;font-family:sans-serif;font-size:13;" transform="matrix(1 0 0 1 263 1989)">For optimal layout with text and other symbols, vertically align</text>
  <text style="stroke:none;fill:black;font-family:sans-serif;font-size:13;" transform="matrix(1 0 0 1 263 2007)">symbols with the adjacent text.</text>
  <line style="fill:none;stroke:#00AEEF;stroke-width:0.5;opacity:1.0;" x1="776" x2="776" y1="1919" y2="1933"/>
  <g transform="matrix(1 0 0 1 776 1933)">
   <path d="M3.31055 0.15625Q3.70117 0.15625 3.91602-0.00976562Q4.13086-0.175781 4.26758-0.585938L5.52734-4.0332L11.2891-4.0332L12.5488-0.585938Q12.6855-0.175781 12.9004-0.00976562Q13.1152 0.15625 13.4961 0.15625Q13.8867 0.15625 14.1162-0.0585938Q14.3457-0.273438 14.3457-0.644531Q14.3457-0.869141 14.2383-1.17188L9.6582-13.3691Q9.48242-13.8184 9.17969-14.043Q8.87695-14.2676 8.4082-14.2676Q7.5-14.2676 7.17773-13.3789L2.59766-1.16211Q2.49023-0.859375 2.49023-0.634766Q2.49023-0.263672 2.70996-0.0537109Q2.92969 0.15625 3.31055 0.15625ZM6.00586-5.51758L8.37891-12.0898L8.42773-12.0898L10.8008-5.51758Z"/>
  </g>
  <line style="fill:none;stroke:#00AEEF;stroke-width:0.5;opacity:1.0;" x1="793.197" x2="793.197" y1="1919" y2="1933"/>
  <text style="stroke:none;fill:black;font-family:sans-serif;font-size:13;font-weight:bold;" transform="matrix(1 0 0 1 776 1953)">Margins</text>
  <text style="stroke:none;fill:black;font-family:sans-serif;font-size:13;" transform="matrix(1 0 0 1 776 1971)">Leading and trailing margins on the left and right side of each symbol</text>
  <text style="stroke:none;fill:black;font-family:sans-serif;font-size:13;" transform="matrix(1 0 0 1 776 1989)">can be adjusted by modifying the x-location of the margin guidelines.</text>
  <text style="stroke:none;fill:black;font-family:sans-serif;font-size:13;" transform="matrix(1 0 0 1 776 2007)">Modifications are automatically applied proportionally to all</text>
  <text style="stroke:none;fill:black;font-family:sans-serif;font-size:13;" transform="matrix(1 0 0 1 776 2025)">scales and weights.</text>
  <g transform="matrix(1 0 0 1 1289 1933)">
   <path d="M2.8418 1.86523L4.54102 3.57422Q5.18555 4.22852 5.90332 4.17969Q6.62109 4.13086 7.31445 3.35938L18.0078-8.42773L17.041-9.4043L6.42578 2.27539Q6.16211 2.57812 5.89355 2.61719Q5.625 2.65625 5.27344 2.30469L4.10156 1.14258Q3.75 0.791016 3.79395 0.522461Q3.83789 0.253906 4.14062-0.0195312L15.6152-10.8203L14.6387-11.7871L3.04688-0.898438Q2.30469-0.214844 2.25098 0.498047Q2.19727 1.21094 2.8418 1.86523ZM9.25781-16.3281Q8.94531-16.0254 8.90625-15.6348Q8.86719-15.2441 9.04297-14.9512Q9.21875-14.6777 9.55566-14.541Q9.89258-14.4043 10.3809-14.5215Q11.4746-14.7754 12.5977-14.7314Q13.7207-14.6875 14.7949-13.9844L14.209-12.5293Q13.9551-11.9043 14.0674-11.4404Q14.1797-10.9766 14.5801-10.5664L16.875-8.25195Q17.2363-7.88086 17.5781-7.82227Q17.9199-7.76367 18.3398-7.8418L19.4043-8.03711L20.0684-7.36328L20.0293-6.80664Q20-6.43555 20.1221-6.12305Q20.2441-5.81055 20.6055-5.44922L21.3672-4.70703Q21.7285-4.3457 22.1533-4.33105Q22.5781-4.31641 22.9297-4.66797L25.8398-7.58789Q26.1914-7.93945 26.1816-8.35449Q26.1719-8.76953 25.8105-9.13086L25.0391-9.89258Q24.6875-10.2539 24.3799-10.3857Q24.0723-10.5176 23.7109-10.4883L23.1348-10.4395L22.4902-11.0742L22.7344-12.1973Q22.832-12.6172 22.6953-12.9834Q22.5586-13.3496 22.1191-13.7891L19.9219-15.9766Q18.6719-17.2168 17.2607-17.8369Q15.8496-18.457 14.4189-18.4814Q12.9883-18.5059 11.665-17.959Q10.3418-17.4121 9.25781-16.3281ZM10.752-15.957Q11.6602-16.6211 12.7002-16.9043Q13.7402-17.1875 14.8047-17.085Q15.8691-16.9824 16.8701-16.5137Q17.8711-16.0449 18.7012-15.2051L21.1328-12.793Q21.3086-12.6172 21.3525-12.4512Q21.3965-12.2852 21.3379-12.0312L21.0156-10.5469L22.5195-9.0625L23.5059-9.12109Q23.6914-9.13086 23.7891-9.09668Q23.8867-9.0625 24.0332-8.91602L24.6094-8.33984L22.168-5.89844L21.5918-6.47461Q21.4453-6.62109 21.4062-6.71875Q21.3672-6.81641 21.377-7.01172L21.4453-7.98828L19.9512-9.47266L18.4277-9.21875Q18.1836-9.16992 18.042-9.2041Q17.9004-9.23828 17.7148-9.41406L15.7129-11.416Q15.5176-11.5918 15.4932-11.7529Q15.4688-11.9141 15.5859-12.1875L16.4648-14.2773Q15.293-15.3711 13.8281-15.791Q12.3633-16.2109 10.8398-15.7617Q10.7227-15.7324 10.6885-15.8057Q10.6543-15.8789 10.752-15.957Z"/>
  </g>
  <text style="stroke:none;fill:black;font-family:sans-serif;font-size:13;font-weight:bold;" transform="matrix(1 0 0 1 1289 1953)">Exporting</text>
  <text style="stroke:none;fill:black;font-family:sans-serif;font-size:13;" transform="matrix(1 0 0 1 1289 1971)">Symbols should be outlined when exporting to ensure the</text>
  <text style="stroke:none;fill:black;font-family:sans-serif;font-size:13;" transform="matrix(1 0 0 1 1289 1989)">design is preserved when submitting to Xcode.</text>
  <text id="template-version" style="stroke:none;fill:black;font-family:sans-serif;font-size:13;text-anchor:end;" transform="matrix(1 0 0 1 3036 1933)">Template v.3.0</text>
  <text style="stroke:none;fill:black;font-family:sans-serif;font-size:13;text-anchor:end;" transform="matrix(1 0 0 1 3036 1951)">Requires Xcode 13 or greater</text>
  <text id="descriptive-name" style="stroke:none;fill:black;font-family:sans-serif;font-size:13;text-anchor:end;" transform="matrix(1 0 0 1 3036 1969)">Generated from forward.end.fill</text>
  <text style="stroke:none;fill:black;font-family:sans-serif;font-size:13;text-anchor:end;" transform="matrix(1 0 0 1 3036 1987)">Typeset at 100 points</text>
  <text style="stroke:none;fill:black;font-family:sans-serif;font-size:13;" transform="matrix(1 0 0 1 263 726)">Small</text>
  <text style="stroke:none;fill:black;font-family:sans-serif;font-size:13;" transform="matrix(1 0 0 1 263 1156)">Medium</text>
  <text style="stroke:none;fill:black;font-family:sans-serif;font-size:13;" transform="matrix(1 0 0 1 263 1586)">Large</text>
 </g>
 <g id="Guides">
  <g id="H-reference" style="fill:#27AAE1;stroke:none;" transform="matrix(1 0 0 1 339 696)">
   <path d="M0.976562 0L3.66211 0L29.3457-67.1387L30.0293-67.1387L30.0293-70.459L28.125-70.459ZM11.6699-24.4629L46.9727-24.4629L46.2402-26.709L12.4512-26.709ZM55.127 0L57.7637 0L30.6152-70.459L29.4434-70.459L29.4434-67.1387Z"/>
  </g>
  <line id="Baseline-S" style="fill:none;stroke:#27AAE1;opacity:1;stroke-width:0.5;" x1="263" x2="3036" y1="696" y2="696"/>
  <line id="Capline-S" style="fill:none;stroke:#27AAE1;opacity:1;stroke-width:0.5;" x1="263" x2="3036" y1="625.541" y2="625.541"/>
  <g id="H-reference" style="fill:#27AAE1;stroke:none;" transform="matrix(1 0 0 1 339 1126)">
   <path d="M0.976562 0L3.66211 0L29.3457-67.1387L30.0293-67.1387L30.0293-70.459L28.125-70.459ZM11.6699-24.4629L46.9727-24.4629L46.2402-26.709L12.4512-26.709ZM55.127 0L57.7637 0L30.6152-70.459L29.4434-70.459L29.4434-67.1387Z"/>
  </g>
  <line id="Baseline-M" style="fill:none;stroke:#27AAE1;opacity:1;stroke-width:0.5;" x1="263" x2="3036" y1="1126" y2="1126"/>
  <line id="Capline-M" style="fill:none;stroke:#27AAE1;opacity:1;stroke-width:0.5;" x1="263" x2="3036" y1="1055.54" y2="1055.54"/>
  <g id="H-reference" style="fill:#27AAE1;stroke:none;" transform="matrix(1 0 0 1 339 1556)">
   <path d="M0.976562 0L3.66211 0L29.3457-67.1387L30.0293-67.1387L30.0293-70.459L28.125-70.459ZM11.6699-24.4629L46.9727-24.4629L46.2402-26.709L12.4512-26.709ZM55.127 0L57.7637 0L30.6152-70.459L29.4434-70.459L29.4434-67.1387Z"/>
  </g>
  <line id="Baseline-L" style="fill:none;stroke:#27AAE1;opacity:1;stroke-width:0.5;" x1="263" x2="3036" y1="1556" y2="1556"/>
  <line id="Capline-L" style="fill:none;stroke:#27AAE1;opacity:1;stroke-width:0.5;" x1="263" x2="3036" y1="1485.54" y2="1485.54"/>
  <line id="left-margin-Regular-M" style="fill:none;stroke:#00AEEF;stroke-width:0.5;opacity:1.0;" x1="1391.79" x2="1391.79" y1="1030.79" y2="1150.12"/>
  <line id="right-margin-Regular-M" style="fill:none;stroke:#00AEEF;stroke-width:0.5;opacity:1.0;" x1="1507.9" x2="1507.9" y1="1030.79" y2="1150.12"/>
 </g>
 <g id="Symbols">
  <g id="Black-L" transform="matrix(1 0 0 1 2848.61 1556)">
   <path d="M125.977 20.752L142.236 20.752Q147.852 20.752 150.684 17.9199Q153.516 15.0879 153.516 9.47266L153.516-79.9316Q153.516-85.4004 150.684-88.3057Q147.852-91.2109 142.236-91.2109L125.977-91.2109Q120.361-91.2109 117.529-88.3789Q114.697-85.5469 114.697-79.9316L114.697 9.47266Q114.697 15.0879 117.456 17.9199Q120.215 20.752 125.977 20.752ZM29.834 19.4824Q32.4219 19.4824 34.8389 18.8232Q37.2559 18.1641 39.7461 16.748L105.273-21.5332Q109.57-24.0234 112.28-27.3438Q114.99-30.6641 114.99-35.3516Q114.99-39.9902 112.329-43.1396Q109.668-46.2891 105.273-48.877L39.7461-87.1582Q37.207-88.623 34.7656-89.2578Q32.3242-89.8926 29.6875-89.8926Q24.1211-89.8926 20.0928-85.9131Q16.0645-81.9336 16.0645-74.5605L16.0645 4.15039Q16.0645 11.4258 20.1416 15.4541Q24.2188 19.4824 29.834 19.4824Z"/>
  </g>
  <g id="Heavy-L" transform="matrix(1 0 0 1 2554.58 1556)">
   <path d="M121.973 19.4824L137.695 19.4824Q142.92 19.4824 145.532 16.8457Q148.145 14.209 148.145 9.0332L148.145-79.4922Q148.145-84.6191 145.532-87.2803Q142.92-89.9414 137.695-89.9414L121.973-89.9414Q116.748-89.9414 114.136-87.3291Q111.523-84.7168 111.523-79.4922L111.523 9.0332Q111.523 14.209 114.087 16.8457Q116.65 19.4824 121.973 19.4824ZM28.5645 18.0176Q30.957 18.0176 33.2031 17.3828Q35.4492 16.748 37.7441 15.4297L103.027-22.7539Q107.031-25.0977 109.424-28.125Q111.816-31.1523 111.816-35.3516Q111.816-39.4531 109.448-42.3584Q107.08-45.2637 103.027-47.6562L37.7441-85.8887Q35.4004-87.2559 33.1543-87.8662Q30.9082-88.4766 28.4668-88.4766Q23.3887-88.4766 19.7266-84.8389Q16.0645-81.2012 16.0645-74.4141L16.0645 3.95508Q16.0645 10.6934 19.7754 14.3555Q23.4863 18.0176 28.5645 18.0176Z"/>
  </g>
  <g id="Bold-L" transform="matrix(1 0 0 1 2260.85 1556)">
   <path d="M117.48 18.0664L132.666 18.0664Q137.402 18.0664 139.795 15.6738Q142.188 13.2812 142.188 8.49609L142.188-79.0039Q142.188-83.7402 139.795-86.1328Q137.402-88.5254 132.666-88.5254L117.48-88.5254Q112.744-88.5254 110.352-86.1328Q107.959-83.7402 107.959-79.0039L107.959 8.49609Q107.959 13.2812 110.303 15.6738Q112.646 18.0664 117.48 18.0664ZM27.1973 16.4551Q29.3457 16.4551 31.3721 15.8203Q33.3984 15.1855 35.498 13.9648L100.537-24.1699Q104.15-26.3184 106.201-29.0283Q108.252-31.7383 108.252-35.3516Q108.252-38.916 106.25-41.5283Q104.248-44.1406 100.537-46.3379L35.498-84.4727Q33.3496-85.6934 31.3232-86.3037Q29.2969-86.9141 27.0996-86.9141Q22.6074-86.9141 19.3359-83.667Q16.0645-80.4199 16.0645-74.2188L16.0645 3.71094Q16.0645 9.86328 19.3604 13.1592Q22.6562 16.4551 27.1973 16.4551Z"/>
  </g>
  <g id="Semibold-L" transform="matrix(1 0 0 1 1966.19 1556)">
   <path d="M114.404 17.041L129.15 17.041Q133.594 17.041 135.84 14.8193Q138.086 12.5977 138.086 8.1543L138.086-78.6133Q138.086-83.1543 135.84-85.3516Q133.594-87.5488 129.15-87.5488L114.404-87.5488Q109.961-87.5488 107.715-85.3271Q105.469-83.1055 105.469-78.6133L105.469 8.1543Q105.469 12.5977 107.69 14.8193Q109.912 17.041 114.404 17.041ZM26.2207 15.332Q28.2227 15.332 30.1025 14.7217Q31.9824 14.1113 33.9355 12.9395L98.8281-25.1465Q102.197-27.0996 104.004-29.5898Q105.811-32.0801 105.811-35.3027Q105.811-38.4766 104.028-40.918Q102.246-43.3594 98.8281-45.3613L33.9355-83.4473Q31.9336-84.6191 30.0537-85.2295Q28.1738-85.8398 26.1719-85.8398Q22.0703-85.8398 19.0674-82.8369Q16.0645-79.834 16.0645-74.0723L16.0645 3.56445Q16.0645 9.27734 19.0674 12.3047Q22.0703 15.332 26.2207 15.332Z"/>
  </g>
  <g id="Medium-L" transform="matrix(1 0 0 1 1671.04 1556)">
   <path d="M112.061 16.3086L126.514 16.3086Q130.713 16.3086 132.837 14.1846Q134.961 12.0605 134.961 7.86133L134.961-78.3691Q134.961-82.666 132.837-84.7412Q130.713-86.8164 126.514-86.8164L112.061-86.8164Q107.812-86.8164 105.713-84.6924Q103.613-82.5684 103.613-78.3691L103.613 7.86133Q103.613 12.0605 105.713 14.1846Q107.812 16.3086 112.061 16.3086ZM25.4883 14.4531Q27.3926 14.4531 29.1504 13.8672Q30.9082 13.2812 32.7637 12.207L97.5098-25.8789Q100.684-27.7344 102.319-30.0537Q103.955-32.373 103.955-35.3027Q103.955-38.1836 102.344-40.4785Q100.732-42.7734 97.5098-44.6777L32.7637-82.7148Q30.8594-83.8379 29.1016-84.4238Q27.3438-85.0098 25.4395-85.0098Q21.6309-85.0098 18.8477-82.2021Q16.0645-79.3945 16.0645-74.0234L16.0645 3.41797Q16.0645 8.83789 18.8721 11.6455Q21.6797 14.4531 25.4883 14.4531Z"/>
  </g>
  <g id="Regular-L" transform="matrix(1 0 0 1 1376.38 1556)">
   <path d="M108.984 15.332L123.047 15.332Q126.953 15.332 128.906 13.3789Q130.859 11.4258 130.859 7.51953L130.859-78.0273Q130.859-82.0801 128.906-83.96Q126.953-85.8398 123.047-85.8398L108.984-85.8398Q105.078-85.8398 103.125-83.8867Q101.172-81.9336 101.172-78.0273L101.172 7.51953Q101.172 11.4258 103.125 13.3789Q105.078 15.332 108.984 15.332ZM24.5117 13.3789Q26.2695 13.3789 27.9053 12.793Q29.541 12.207 31.25 11.1816L95.8008-26.8066Q98.7305-28.5645 100.122-30.6641Q101.514-32.7637 101.514-35.3027Q101.514-37.793 100.146-39.8926Q98.7793-41.9922 95.8008-43.75L31.25-81.7383Q29.4922-82.7637 27.8809-83.3496Q26.2695-83.9355 24.5117-83.9355Q21.0938-83.9355 18.5791-81.3965Q16.0645-78.8574 16.0645-73.877L16.0645 3.27148Q16.0645 8.25195 18.5791 10.8154Q21.0938 13.3789 24.5117 13.3789Z"/>
  </g>
  <g id="Light-L" transform="matrix(1 0 0 1 1081.65 1556)">
   <path d="M106.152 14.3555L119.922 14.3555Q123.486 14.3555 125.195 12.6221Q126.904 10.8887 126.904 7.32422L126.904-77.8809Q126.904-81.543 125.195-83.2031Q123.486-84.8633 119.922-84.8633L106.152-84.8633Q102.588-84.8633 100.879-83.1543Q99.1699-81.4453 99.1699-77.8809L99.1699 7.32422Q99.1699 10.8887 100.879 12.6221Q102.588 14.3555 106.152 14.3555ZM23.6328 12.207Q25.1953 12.207 26.7334 11.6455Q28.2715 11.084 29.7363 10.2051L94.7266-28.0273Q97.1191-29.4434 98.3154-31.25Q99.5117-33.0566 99.5117-35.3027Q99.5117-37.5488 98.3398-39.3311Q97.168-41.1133 94.7266-42.5293L29.7363-80.7617Q28.2227-81.6406 26.709-82.2021Q25.1953-82.7637 23.6328-82.7637Q20.6543-82.7637 18.3594-80.5176Q16.0645-78.2715 16.0645-73.7305L16.0645 3.125Q16.0645 7.66602 18.3594 9.93652Q20.6543 12.207 23.6328 12.207Z"/>
  </g>
  <g id="Thin-L" transform="matrix(1 0 0 1 787.55 1556)">
   <path d="M102.441 12.9883L115.771 12.9883Q118.896 12.9883 120.288 11.6211Q121.68 10.2539 121.68 7.08008L121.68-77.6367Q121.68-80.7617 120.288-82.1533Q118.896-83.5449 115.771-83.5449L102.441-83.5449Q99.3164-83.5449 97.9248-82.1533Q96.5332-80.7617 96.5332-77.6367L96.5332 7.08008Q96.5332 10.2539 97.9248 11.6211Q99.3164 12.9883 102.441 12.9883ZM22.4609 10.6934Q23.8281 10.6934 25.2197 10.1318Q26.6113 9.57031 27.6855 8.88672L93.3105-29.6875Q94.9707-30.6152 95.9229-32.0312Q96.875-33.4473 96.875-35.3516Q96.875-37.207 95.9473-38.5742Q95.0195-39.9414 93.3105-40.918L27.6855-79.541Q26.5625-80.1758 25.1953-80.7129Q23.8281-81.25 22.4609-81.25Q20.0195-81.25 18.042-79.3945Q16.0645-77.5391 16.0645-73.5352L16.0645 2.88086Q16.0645 6.93359 18.042 8.81348Q20.0195 10.6934 22.4609 10.6934Z"/>
  </g>
  <g id="Ultralight-L" transform="matrix(1 0 0 1 492.182 1556)">
   <path d="M100.537 12.3535L113.623 12.3535Q116.553 12.3535 117.773 11.1084Q118.994 9.86328 118.994 6.98242L118.994-77.5391Q118.994-80.4199 117.773-81.665Q116.553-82.9102 113.623-82.9102L100.537-82.9102Q97.6074-82.9102 96.3867-81.665Q95.166-80.4199 95.166-77.5391L95.166 6.98242Q95.166 9.86328 96.3867 11.1084Q97.6074 12.3535 100.537 12.3535ZM21.875 9.86328Q23.0957 9.86328 24.4141 9.32617Q25.7324 8.78906 26.6602 8.25195L92.5781-30.5176Q93.8477-31.25 94.6777-32.4463Q95.5078-33.6426 95.5078-35.3516Q95.5078-37.0605 94.7021-38.1836Q93.8965-39.3066 92.5781-40.1367L26.6602-78.8574Q25.6836-79.3945 24.3896-79.9316Q23.0957-80.4688 21.875-80.4688Q19.7266-80.4688 17.8955-78.8086Q16.0645-77.1484 16.0645-73.4375L16.0645 2.7832Q16.0645 6.54297 17.8955 8.20312Q19.7266 9.86328 21.875 9.86328Z"/>
  </g>
  <g id="Black-M" transform="matrix(1 0 0 1 2866.07 1126)">
   <path d="M100.098 8.88672L113.037 8.88672Q117.627 8.88672 119.922 6.5918Q122.217 4.29688 122.217-0.244141L122.217-70.2148Q122.217-74.6094 119.922-76.9775Q117.627-79.3457 113.037-79.3457L100.098-79.3457Q95.5078-79.3457 93.2129-77.0508Q90.918-74.7559 90.918-70.2148L90.918-0.244141Q90.918 4.29688 93.1641 6.5918Q95.4102 8.88672 100.098 8.88672ZM23.877 8.00781Q25.9766 8.00781 28.0029 7.49512Q30.0293 6.98242 31.9824 5.81055L83.1055-23.9746Q86.5234-25.9277 88.8672-28.6377Q91.2109-31.3477 91.2109-35.3027Q91.2109-39.2578 88.9404-41.8213Q86.6699-44.3848 83.1055-46.4355L31.9824-76.2207Q29.9805-77.3926 27.9541-77.9053Q25.9277-78.418 23.7793-78.418Q19.1406-78.418 15.7959-75.1221Q12.4512-71.8262 12.4512-65.8203L12.4512-4.58984Q12.4512 1.36719 15.8447 4.6875Q19.2383 8.00781 23.877 8.00781Z"/>
  </g>
  <g id="Heavy-M" transform="matrix(1 0 0 1 2571.55 1126)">
   <path d="M96.7773 7.86133L109.277 7.86133Q113.574 7.86133 115.698 5.71289Q117.822 3.56445 117.822-0.634766L117.822-69.8242Q117.822-73.9746 115.698-76.1475Q113.574-78.3203 109.277-78.3203L96.7773-78.3203Q92.5293-78.3203 90.3809-76.1719Q88.2324-74.0234 88.2324-69.8242L88.2324-0.634766Q88.2324 3.56445 90.332 5.71289Q92.4316 7.86133 96.7773 7.86133ZM22.8516 6.83594Q24.8047 6.83594 26.6602 6.34766Q28.5156 5.85938 30.3711 4.73633L81.1523-24.9023Q84.375-26.7578 86.4502-29.2725Q88.5254-31.7871 88.5254-35.3027Q88.5254-38.8184 86.499-41.1865Q84.4727-43.5547 81.1523-45.5078L30.3711-75.1953Q28.4668-76.2695 26.6113-76.7822Q24.7559-77.2949 22.7539-77.2949Q18.5547-77.2949 15.5029-74.2676Q12.4512-71.2402 12.4512-65.6738L12.4512-4.73633Q12.4512 0.78125 15.5273 3.80859Q18.6035 6.83594 22.8516 6.83594Z"/>
  </g>
  <g id="Bold-M" transform="matrix(1 0 0 1 2277.28 1126)">
   <path d="M93.0664 6.73828L105.127 6.73828Q109.033 6.73828 110.986 4.76074Q112.939 2.7832 112.939-1.12305L112.939-69.3848Q112.939-73.2422 110.986-75.2197Q109.033-77.1973 105.127-77.1973L93.0664-77.1973Q89.209-77.1973 87.2314-75.2197Q85.2539-73.2422 85.2539-69.3848L85.2539-1.12305Q85.2539 2.7832 87.207 4.76074Q89.1602 6.73828 93.0664 6.73828ZM21.6797 5.56641Q23.4863 5.56641 25.1709 5.07812Q26.8555 4.58984 28.5645 3.56445L79.0039-25.9766Q81.9824-27.7344 83.7402-30.0049Q85.498-32.2754 85.498-35.3027Q85.498-38.3301 83.7891-40.5029Q82.0801-42.6758 79.0039-44.4824L28.5645-74.0234Q26.8066-75.0488 25.1465-75.5371Q23.4863-76.0254 21.6309-76.0254Q17.8711-76.0254 15.1611-73.3154Q12.4512-70.6055 12.4512-65.5273L12.4512-4.93164Q12.4512 0.0976562 15.1855 2.83203Q17.9199 5.56641 21.6797 5.56641Z"/>
  </g>
  <g id="Semibold-M" transform="matrix(1 0 0 1 1982.26 1126)">
   <path d="M90.5273 5.9082L102.197 5.9082Q105.859 5.9082 107.715 4.05273Q109.57 2.19727 109.57-1.46484L109.57-69.043Q109.57-72.7051 107.715-74.5361Q105.859-76.3672 102.197-76.3672L90.5273-76.3672Q86.8652-76.3672 85.0098-74.5117Q83.1543-72.6562 83.1543-69.043L83.1543-1.46484Q83.1543 2.19727 85.0098 4.05273Q86.8652 5.9082 90.5273 5.9082ZM20.8984 4.63867Q22.5586 4.63867 24.1211 4.15039Q25.6836 3.66211 27.2949 2.73438L77.4902-26.709Q80.3223-28.3691 81.8604-30.4688Q83.3984-32.5684 83.3984-35.2539Q83.3984-37.9395 81.8848-39.9902Q80.3711-42.041 77.4902-43.75L27.2949-73.2422Q25.6348-74.2188 24.0967-74.6826Q22.5586-75.1465 20.8496-75.1465Q17.4316-75.1465 14.9414-72.6318Q12.4512-70.1172 12.4512-65.4297L12.4512-5.07812Q12.4512-0.341797 14.9414 2.14844Q17.4316 4.63867 20.8984 4.63867Z"/>
  </g>
  <g id="Medium-M" transform="matrix(1 0 0 1 1686.84 1126)">
   <path d="M88.5742 5.32227L100 5.32227Q103.516 5.32227 105.249 3.54004Q106.982 1.75781 106.982-1.70898L106.982-68.7988Q106.982-72.3145 105.249-74.0479Q103.516-75.7812 100-75.7812L88.5742-75.7812Q85.1562-75.7812 83.374-73.999Q81.5918-72.2168 81.5918-68.7988L81.5918-1.70898Q81.5918 1.75781 83.3496 3.54004Q85.1074 5.32227 88.5742 5.32227ZM20.2637 3.95508Q21.875 3.95508 23.3398 3.49121Q24.8047 3.02734 26.3184 2.09961L76.3184-27.2461Q79.0527-28.9062 80.4443-30.8594Q81.8359-32.8125 81.8359-35.2539Q81.8359-37.6953 80.4688-39.6484Q79.1016-41.6016 76.3184-43.2129L26.3184-72.6074Q24.7559-73.5352 23.3154-74.0234Q21.875-74.5117 20.2637-74.5117Q17.041-74.5117 14.7461-72.1436Q12.4512-69.7754 12.4512-65.332L12.4512-5.12695Q12.4512-0.732422 14.7705 1.61133Q17.0898 3.95508 20.2637 3.95508Z"/>
  </g>
  <g id="Regular-M" transform="matrix(1 0 0 1 1391.79 1126)">
   <path d="M86.0352 4.54102L97.168 4.54102Q100.391 4.54102 102.026 2.88086Q103.662 1.2207 103.662-2.00195L103.662-68.5059Q103.662-71.8262 102.026-73.4131Q100.391-75 97.168-75L86.0352-75Q82.8613-75 81.2012-73.3398Q79.541-71.6797 79.541-68.5059L79.541-2.00195Q79.541 1.2207 81.2012 2.88086Q82.8613 4.54102 86.0352 4.54102ZM19.4824 3.07617Q20.9961 3.07617 22.3145 2.6123Q23.6328 2.14844 25.0977 1.26953L74.8535-27.9785Q77.4414-29.541 78.6133-31.3477Q79.7852-33.1543 79.7852-35.2539Q79.7852-37.3535 78.6133-39.1602Q77.4414-40.9668 74.8535-42.5293L25.0977-71.8262Q23.584-72.7051 22.29-73.1689Q20.9961-73.6328 19.4824-73.6328Q16.6016-73.6328 14.5264-71.4844Q12.4512-69.3359 12.4512-65.2344L12.4512-5.27344Q12.4512-1.17188 14.5264 0.952148Q16.6016 3.07617 19.4824 3.07617Z"/>
  </g>
  <g id="Light-M" transform="matrix(1 0 0 1 1096.86 1126)">
   <path d="M83.5449 3.61328L94.3359 3.61328Q97.2656 3.61328 98.6816 2.17285Q100.098 0.732422 100.098-2.14844L100.098-68.3594Q100.098-71.3379 98.6816-72.7295Q97.2656-74.1211 94.3359-74.1211L83.5449-74.1211Q80.6152-74.1211 79.1748-72.6807Q77.7344-71.2402 77.7344-68.3594L77.7344-2.14844Q77.7344 0.732422 79.1748 2.17285Q80.6152 3.61328 83.5449 3.61328ZM18.7012 2.05078Q20.0195 2.05078 21.2402 1.58691Q22.4609 1.12305 23.7305 0.390625L73.877-29.1016Q75.9766-30.3711 76.9775-31.8848Q77.9785-33.3984 77.9785-35.3027Q77.9785-37.1582 77.002-38.6719Q76.0254-40.1855 73.877-41.4551L23.7305-70.9473Q22.4121-71.7285 21.2158-72.168Q20.0195-72.6074 18.7012-72.6074Q16.2109-72.6074 14.3311-70.7275Q12.4512-68.8477 12.4512-65.1367L12.4512-5.41992Q12.4512-1.70898 14.3311 0.170898Q16.2109 2.05078 18.7012 2.05078Z"/>
  </g>
  <g id="Thin-M" transform="matrix(1 0 0 1 802.467 1126)">
   <path d="M80.1758 2.44141L90.625 2.44141Q93.1641 2.44141 94.3115 1.29395Q95.459 0.146484 95.459-2.39258L95.459-68.1641Q95.459-70.7031 94.3115-71.8262Q93.1641-72.9492 90.625-72.9492L80.1758-72.9492Q77.6855-72.9492 76.5381-71.8018Q75.3906-70.6543 75.3906-68.1641L75.3906-2.39258Q75.3906 0.146484 76.5381 1.29395Q77.6855 2.44141 80.1758 2.44141ZM17.6758 0.634766Q18.7988 0.634766 19.873 0.219727Q20.9473-0.195312 21.875-0.78125L72.6562-30.5664Q74.0723-31.4453 74.8535-32.5928Q75.6348-33.7402 75.6348-35.3027Q75.6348-36.8652 74.8779-37.9883Q74.1211-39.1113 72.6562-39.9902L21.875-69.8242Q20.8984-70.3613 19.8486-70.8008Q18.7988-71.2402 17.6758-71.2402Q15.6738-71.2402 14.0625-69.7021Q12.4512-68.1641 12.4512-64.9414L12.4512-5.61523Q12.4512-2.39258 14.0625-0.878906Q15.6738 0.634766 17.6758 0.634766Z"/>
  </g>
  <g id="Ultralight-M" transform="matrix(1 0 0 1 506.977 1126)">
   <path d="M78.5156 1.80664L88.7207 1.80664Q91.0156 1.80664 92.0166 0.805664Q93.0176-0.195312 93.0176-2.49023L93.0176-68.0664Q93.0176-70.3613 92.0166-71.3623Q91.0156-72.3633 88.7207-72.3633L78.5156-72.3633Q76.1719-72.3633 75.1709-71.3623Q74.1699-70.3613 74.1699-68.0664L74.1699-2.49023Q74.1699-0.195312 75.1709 0.805664Q76.1719 1.80664 78.5156 1.80664ZM17.1875-0.0488281Q18.1152-0.0488281 19.1406-0.463867Q20.166-0.878906 20.9473-1.36719L71.9727-31.3477Q73.0957-31.9824 73.7549-32.959Q74.4141-33.9355 74.4141-35.3516Q74.4141-36.7188 73.7793-37.6465Q73.1445-38.5742 71.9727-39.2578L20.9473-69.2383Q20.1172-69.7266 19.1162-70.1416Q18.1152-70.5566 17.1875-70.5566Q15.3809-70.5566 13.916-69.1895Q12.4512-67.8223 12.4512-64.8926L12.4512-5.71289Q12.4512-2.7832 13.916-1.41602Q15.3809-0.0488281 17.1875-0.0488281Z"/>
  </g>
  <g id="Black-S" transform="matrix(1 0 0 1 2880.08 696)">
   <path d="M79.2969-0.390625L89.5508-0.390625Q96.875-0.390625 96.875-7.71484L96.875-62.7441Q96.875-70.0684 89.5508-70.0684L79.2969-70.0684Q71.9727-70.0684 71.9727-62.7441L71.9727-7.71484Q71.9727-0.390625 79.2969-0.390625ZM18.9941-1.07422Q20.7031-1.07422 22.3145-1.46484Q23.9258-1.85547 25.4883-2.7832L65.6738-26.1719Q68.4082-27.7344 70.2881-29.9072Q72.168-32.0801 72.168-35.3027Q72.168-38.5254 70.3369-40.5518Q68.5059-42.5781 65.6738-44.2383L25.4883-67.627Q23.877-68.5547 22.2412-68.9453Q20.6055-69.3359 18.8965-69.3359Q15.1855-69.3359 12.4756-66.6992Q9.76562-64.0625 9.76562-59.2285L9.76562-11.1816Q9.76562-6.39648 12.5244-3.73535Q15.2832-1.07422 18.9941-1.07422Z"/>
  </g>
  <g id="Heavy-S" transform="matrix(1 0 0 1 2585 696)">
   <path d="M76.8066-1.17188L86.7188-1.17188Q93.6035-1.17188 93.6035-8.05664L93.6035-62.4023Q93.6035-69.2871 86.7188-69.2871L76.8066-69.2871Q69.9219-69.2871 69.9219-62.4023L69.9219-8.05664Q69.9219-1.17188 76.8066-1.17188ZM18.2129-1.9043Q19.8242-1.9043 21.2891-2.29492Q22.7539-2.68555 24.2676-3.61328L64.1113-26.8555Q66.748-28.3691 68.4326-30.3955Q70.1172-32.4219 70.1172-35.3027Q70.1172-38.1836 68.4814-40.0879Q66.8457-41.9922 64.1113-43.6035L24.2676-66.8457Q22.7539-67.7246 21.2402-68.1152Q19.7266-68.5059 18.1152-68.5059Q14.7461-68.5059 12.2559-66.0645Q9.76562-63.623 9.76562-59.1309L9.76562-11.2793Q9.76562-6.83594 12.2803-4.37012Q14.7949-1.9043 18.2129-1.9043Z"/>
  </g>
  <g id="Bold-S" transform="matrix(1 0 0 1 2290.12 696)">
   <path d="M73.9746-2.05078L83.5449-2.05078Q89.9414-2.05078 89.9414-8.44727L89.9414-62.0605Q89.9414-68.457 83.5449-68.457L73.9746-68.457Q67.5781-68.457 67.5781-62.0605L67.5781-8.44727Q67.5781-2.05078 73.9746-2.05078ZM17.334-2.88086Q18.7988-2.88086 20.1416-3.27148Q21.4844-3.66211 22.9492-4.49219L62.4023-27.6367Q64.8926-29.0527 66.333-30.9326Q67.7734-32.8125 67.7734-35.3027Q67.7734-37.793 66.3574-39.5752Q64.9414-41.3574 62.4023-42.8711L22.9492-65.9668Q21.4844-66.8457 20.1172-67.2119Q18.75-67.5781 17.2852-67.5781Q14.209-67.5781 11.9873-65.3564Q9.76562-63.1348 9.76562-59.0332L9.76562-11.4258Q9.76562-7.37305 12.0117-5.12695Q14.2578-2.88086 17.334-2.88086Z"/>
  </g>
  <g id="Semibold-S" transform="matrix(1 0 0 1 1994.68 696)">
   <path d="M72.0215-2.63672L81.3477-2.63672Q87.4023-2.63672 87.4023-8.69141L87.4023-61.8164Q87.4023-67.8223 81.3477-67.8223L72.0215-67.8223Q65.9668-67.8223 65.9668-61.8164L65.9668-8.69141Q65.9668-2.63672 72.0215-2.63672ZM16.748-3.51562Q18.1152-3.51562 19.3604-3.90625Q20.6055-4.29688 21.9727-5.12695L61.2305-28.125Q63.623-29.541 64.8926-31.2988Q66.1621-33.0566 66.1621-35.2539Q66.1621-37.5 64.8926-39.209Q63.623-40.918 61.2305-42.3828L21.9727-65.3809Q20.5566-66.2109 19.3115-66.5771Q18.0664-66.9434 16.6992-66.9434Q13.8672-66.9434 11.8164-64.8682Q9.76562-62.793 9.76562-58.9844L9.76562-11.5234Q9.76562-7.71484 11.8164-5.61523Q13.8672-3.51562 16.748-3.51562Z"/>
  </g>
  <g id="Medium-S" transform="matrix(1 0 0 1 1698.95 696)">
   <path d="M70.5566-3.07617L79.6387-3.07617Q85.4492-3.07617 85.4492-8.88672L85.4492-61.6211Q85.4492-67.3828 79.6387-67.3828L70.5566-67.3828Q64.7461-67.3828 64.7461-61.6211L64.7461-8.88672Q64.7461-3.07617 70.5566-3.07617ZM16.2598-4.05273Q17.5781-4.05273 18.75-4.41895Q19.9219-4.78516 21.2891-5.56641L60.3027-28.5156Q62.6465-29.8828 63.7939-31.5674Q64.9414-33.252 64.9414-35.2539Q64.9414-37.3047 63.7939-38.9404Q62.6465-40.5762 60.3027-41.9922L21.2891-64.8926Q19.9219-65.7227 18.75-66.0889Q17.5781-66.4551 16.2598-66.4551Q13.5742-66.4551 11.6699-64.502Q9.76562-62.5488 9.76562-58.8867L9.76562-11.5723Q9.76562-7.95898 11.6943-6.00586Q13.623-4.05273 16.2598-4.05273Z"/>
  </g>
  <g id="Regular-S" transform="matrix(1 0 0 1 1403.48 696)">
   <path d="M68.6523-3.66211L77.4902-3.66211Q82.959-3.66211 82.959-9.13086L82.959-61.377Q82.959-66.7969 77.4902-66.7969L68.6523-66.7969Q63.1836-66.7969 63.1836-61.377L63.1836-9.13086Q63.1836-3.66211 68.6523-3.66211ZM15.6738-4.6875Q16.8945-4.6875 17.9688-5.05371Q19.043-5.41992 20.3613-6.20117L59.1309-29.0527Q61.377-30.3711 62.3779-31.9336Q63.3789-33.4961 63.3789-35.2539Q63.3789-37.0117 62.3779-38.5742Q61.377-40.1367 59.1309-41.5039L20.3613-64.3066Q19.043-65.0879 17.9688-65.4541Q16.8945-65.8203 15.6738-65.8203Q13.2324-65.8203 11.499-64.0137Q9.76562-62.207 9.76562-58.8379L9.76562-11.6699Q9.76562-8.30078 11.499-6.49414Q13.2324-4.6875 15.6738-4.6875Z"/>
  </g>
  <g id="Light-S" transform="matrix(1 0 0 1 1108.33 696)">
   <path d="M66.4062-4.44336L75-4.44336Q79.834-4.44336 79.834-9.27734L79.834-61.2305Q79.834-66.0156 75-66.0156L66.4062-66.0156Q61.6211-66.0156 61.6211-61.2305L61.6211-9.27734Q61.6211-4.44336 66.4062-4.44336ZM14.9902-5.61523Q16.0645-5.61523 17.0654-5.98145Q18.0664-6.34766 19.1406-6.98242L58.3008-30.0293Q60.1074-31.1035 60.9619-32.4219Q61.8164-33.7402 61.8164-35.2539Q61.8164-36.8164 60.9619-38.1104Q60.1074-39.4043 58.3008-40.5273L19.1406-63.5742Q18.0176-64.209 17.041-64.5508Q16.0645-64.8926 14.9902-64.8926Q12.8906-64.8926 11.3281-63.3301Q9.76562-61.7676 9.76562-58.7402L9.76562-11.8164Q9.76562-8.78906 11.3281-7.20215Q12.8906-5.61523 14.9902-5.61523Z"/>
  </g>
  <g id="Thin-S" transform="matrix(1 0 0 1 813.722 696)">
   <path d="M63.4766-5.46875L71.6797-5.46875Q75.6348-5.46875 75.6348-9.42383L75.6348-61.084Q75.6348-64.9902 71.6797-64.9902L63.4766-64.9902Q59.5215-64.9902 59.5215-61.084L59.5215-9.42383Q59.5215-5.46875 63.4766-5.46875ZM14.0625-6.83594Q14.9414-6.83594 15.8203-7.17773Q16.6992-7.51953 17.5293-8.00781L57.1777-31.2988Q58.3984-32.0801 59.0576-33.0566Q59.7168-34.0332 59.7168-35.3027Q59.7168-36.5723 59.082-37.5244Q58.4473-38.4766 57.1777-39.2578L17.5293-62.5488Q16.6992-63.0371 15.8203-63.3789Q14.9414-63.7207 14.0625-63.7207Q12.4023-63.7207 11.084-62.4268Q9.76562-61.1328 9.76562-58.5449L9.76562-11.9629Q9.76562-9.375 11.084-8.10547Q12.4023-6.83594 14.0625-6.83594Z"/>
  </g>
  <g id="Ultralight-S" transform="matrix(1 0 0 1 518.061 696)">
   <path d="M61.9629-6.00586L70.0195-6.00586Q73.5352-6.00586 73.5352-9.52148L73.5352-60.9863Q73.5352-64.502 70.0195-64.502L61.9629-64.502Q58.4473-64.502 58.4473-60.9863L58.4473-9.52148Q58.4473-6.00586 61.9629-6.00586ZM13.5742-7.4707Q14.4043-7.4707 15.2344-7.8125Q16.0645-8.1543 16.6992-8.49609L56.5918-31.9824Q57.5195-32.5684 58.0811-33.374Q58.6426-34.1797 58.6426-35.3027Q58.6426-36.4258 58.1055-37.207Q57.5684-37.9883 56.5918-38.5742L16.6992-62.0605Q16.0156-62.4023 15.21-62.7441Q14.4043-63.0859 13.5742-63.0859Q12.1582-63.0859 10.9619-61.9629Q9.76562-60.8398 9.76562-58.4961L9.76562-12.0605Q9.76562-9.7168 10.9619-8.59375Q12.1582-7.4707 13.5742-7.4707Z"/>
  </g>
 </g>
</svg>
