<?xml version="1.0" encoding="UTF-8"?>
<!--Generator: Apple Native CoreSVG 149-->
<!DOCTYPE svg
PUBLIC "-//W3C//DTD SVG 1.1//EN"
       "http://www.w3.org/Graphics/SVG/1.1/DTD/svg11.dtd">
<svg version="1.1" xmlns="http://www.w3.org/2000/svg" xmlns:xlink="http://www.w3.org/1999/xlink" width="3300" height="2200">
 <!--glyph: "uni1006F9.medium", point size: 100.000000, font version: "Version 16.0d18e1", template writer version: "8"-->
 <g id="Notes">
  <rect height="2200" id="artboard" style="fill:white;opacity:1" width="3300" x="0" y="0"/>
  <line id="" style="fill:none;stroke:black;opacity:1;stroke-width:0.5;" x1="263" x2="3036" y1="292" y2="292"/>
  <text style="stroke:none;fill:black;font-family:-apple-system,&quot;SF Pro Display&quot;,&quot;SF Pro Text&quot;,Helvetica,sans-serif;font-weight:bold;" transform="matrix(1 0 0 1 263 322)">Weight/Scale Variations</text>
  <text style="stroke:none;fill:black;font-family:-apple-system,&quot;SF Pro Display&quot;,&quot;SF Pro Text&quot;,Helvetica,sans-serif;text-anchor:middle;" transform="matrix(1 0 0 1 559.711 322)">Ultralight</text>
  <text style="stroke:none;fill:black;font-family:-apple-system,&quot;SF Pro Display&quot;,&quot;SF Pro Text&quot;,Helvetica,sans-serif;text-anchor:middle;" transform="matrix(1 0 0 1 856.422 322)">Thin</text>
  <text style="stroke:none;fill:black;font-family:-apple-system,&quot;SF Pro Display&quot;,&quot;SF Pro Text&quot;,Helvetica,sans-serif;text-anchor:middle;" transform="matrix(1 0 0 1 1153.13 322)">Light</text>
  <text style="stroke:none;fill:black;font-family:-apple-system,&quot;SF Pro Display&quot;,&quot;SF Pro Text&quot;,Helvetica,sans-serif;text-anchor:middle;" transform="matrix(1 0 0 1 1449.84 322)">Regular</text>
  <text style="stroke:none;fill:black;font-family:-apple-system,&quot;SF Pro Display&quot;,&quot;SF Pro Text&quot;,Helvetica,sans-serif;text-anchor:middle;" transform="matrix(1 0 0 1 1746.56 322)">Medium</text>
  <text style="stroke:none;fill:black;font-family:-apple-system,&quot;SF Pro Display&quot;,&quot;SF Pro Text&quot;,Helvetica,sans-serif;text-anchor:middle;" transform="matrix(1 0 0 1 2043.27 322)">Semibold</text>
  <text style="stroke:none;fill:black;font-family:-apple-system,&quot;SF Pro Display&quot;,&quot;SF Pro Text&quot;,Helvetica,sans-serif;text-anchor:middle;" transform="matrix(1 0 0 1 2339.98 322)">Bold</text>
  <text style="stroke:none;fill:black;font-family:-apple-system,&quot;SF Pro Display&quot;,&quot;SF Pro Text&quot;,Helvetica,sans-serif;text-anchor:middle;" transform="matrix(1 0 0 1 2636.69 322)">Heavy</text>
  <text style="stroke:none;fill:black;font-family:-apple-system,&quot;SF Pro Display&quot;,&quot;SF Pro Text&quot;,Helvetica,sans-serif;text-anchor:middle;" transform="matrix(1 0 0 1 2933.4 322)">Black</text>
  <line id="" style="fill:none;stroke:black;opacity:1;stroke-width:0.5;" x1="263" x2="3036" y1="1903" y2="1903"/>
  <g id="" transform="matrix(1 0 0 1 263 1933)">
   <path d="M9.24805 0.830078C13.5547 0.830078 17.1387-2.74414 17.1387-7.05078C17.1387-11.3574 13.5449-14.9316 9.23828-14.9316C4.94141-14.9316 1.36719-11.3574 1.36719-7.05078C1.36719-2.74414 4.95117 0.830078 9.24805 0.830078ZM9.24805-0.654297C5.70312-0.654297 2.87109-3.49609 2.87109-7.05078C2.87109-10.6055 5.69336-13.4473 9.23828-13.4473C12.793-13.4473 15.6348-10.6055 15.6445-7.05078C15.6543-3.49609 12.8027-0.654297 9.24805-0.654297ZM6.39648-6.31836L8.50586-6.31836L8.50586-4.19922C8.50586-3.75977 8.79883-3.45703 9.22852-3.45703C9.67773-3.45703 9.9707-3.75977 9.9707-4.19922L9.9707-6.31836L12.0996-6.31836C12.5391-6.31836 12.8418-6.61133 12.8418-7.04102C12.8418-7.48047 12.5391-7.7832 12.0996-7.7832L9.9707-7.7832L9.9707-9.89258C9.9707-10.3418 9.67773-10.6445 9.22852-10.6445C8.79883-10.6445 8.50586-10.3418 8.50586-9.89258L8.50586-7.7832L6.39648-7.7832C5.94727-7.7832 5.64453-7.48047 5.64453-7.04102C5.64453-6.61133 5.94727-6.31836 6.39648-6.31836Z"/>
  </g>
  <g id="" transform="matrix(1 0 0 1 281.506 1933)">
   <path d="M11.709 2.91016C17.1582 2.91016 21.6699-1.61133 21.6699-7.05078C21.6699-12.5 17.1484-17.0117 11.6992-17.0117C6.25977-17.0117 1.74805-12.5 1.74805-7.05078C1.74805-1.61133 6.26953 2.91016 11.709 2.91016ZM11.709 1.25C7.09961 1.25 3.41797-2.44141 3.41797-7.05078C3.41797-11.6602 7.08984-15.3516 11.6992-15.3516C16.3086-15.3516 20-11.6602 20.0098-7.05078C20.0195-2.44141 16.3184 1.25 11.709 1.25ZM7.98828-6.23047L10.8789-6.23047L10.8789-3.32031C10.8789-2.83203 11.2109-2.5 11.6895-2.5C12.1777-2.5 12.5195-2.83203 12.5195-3.32031L12.5195-6.23047L15.4297-6.23047C15.918-6.23047 16.25-6.5625 16.25-7.04102C16.25-7.5293 15.918-7.87109 15.4297-7.87109L12.5195-7.87109L12.5195-10.7617C12.5195-11.2695 12.1777-11.6016 11.6895-11.6016C11.2109-11.6016 10.8789-11.2598 10.8789-10.7617L10.8789-7.87109L7.98828-7.87109C7.48047-7.87109 7.14844-7.5293 7.14844-7.04102C7.14844-6.5625 7.49023-6.23047 7.98828-6.23047Z"/>
  </g>
  <g id="" transform="matrix(1 0 0 1 304.924 1933)">
   <path d="M14.9707 5.66406C21.9336 5.66406 27.6953-0.0976562 27.6953-7.05078C27.6953-14.0137 21.9238-19.7754 14.9609-19.7754C8.00781-19.7754 2.25586-14.0137 2.25586-7.05078C2.25586-0.0976562 8.01758 5.66406 14.9707 5.66406ZM14.9707 3.84766C8.93555 3.84766 4.08203-1.01562 4.08203-7.05078C4.08203-13.0957 8.92578-17.9492 14.9609-17.9492C21.0059-17.9492 25.8594-13.0957 25.8691-7.05078C25.8789-1.01562 21.0156 3.84766 14.9707 3.84766ZM10.0586-6.14258L14.0625-6.14258L14.0625-2.12891C14.0625-1.5918 14.4336-1.2207 14.9512-1.2207C15.4883-1.2207 15.8594-1.5918 15.8594-2.12891L15.8594-6.14258L19.8828-6.14258C20.4102-6.14258 20.791-6.51367 20.791-7.03125C20.791-7.56836 20.4199-7.94922 19.8828-7.94922L15.8594-7.94922L15.8594-11.9531C15.8594-12.5098 15.4883-12.8809 14.9512-12.8809C14.4336-12.8809 14.0625-12.5 14.0625-11.9531L14.0625-7.94922L10.0586-7.94922C9.50195-7.94922 9.13086-7.56836 9.13086-7.03125C9.13086-6.51367 9.51172-6.14258 10.0586-6.14258Z"/>
  </g>
  <text style="stroke:none;fill:black;font-family:-apple-system,&quot;SF Pro Display&quot;,&quot;SF Pro Text&quot;,Helvetica,sans-serif;font-weight:bold;" transform="matrix(1 0 0 1 263 1953)">Design Variations</text>
  <text style="stroke:none;fill:black;font-family:-apple-system,&quot;SF Pro Display&quot;,&quot;SF Pro Text&quot;,Helvetica,sans-serif;" transform="matrix(1 0 0 1 263 1971)">Symbols are supported in up to nine weights and three scales.</text>
  <text style="stroke:none;fill:black;font-family:-apple-system,&quot;SF Pro Display&quot;,&quot;SF Pro Text&quot;,Helvetica,sans-serif;" transform="matrix(1 0 0 1 263 1989)">For optimal layout with text and other symbols, vertically align</text>
  <text style="stroke:none;fill:black;font-family:-apple-system,&quot;SF Pro Display&quot;,&quot;SF Pro Text&quot;,Helvetica,sans-serif;" transform="matrix(1 0 0 1 263 2007)">symbols with the adjacent text.</text>
  <line id="" style="fill:none;stroke:#00AEEF;stroke-width:0.5;opacity:1.0;" x1="776" x2="776" y1="1919" y2="1933"/>
  <g id="" transform="matrix(1 0 0 1 776 1933)">
   <path d="M3.31055 0.126953C3.82812 0.126953 4.08203-0.0683594 4.26758-0.605469L5.52734-4.0625L11.2891-4.0625L12.5488-0.605469C12.7344-0.0683594 12.9883 0.126953 13.4961 0.126953C14.0137 0.126953 14.3457-0.185547 14.3457-0.673828C14.3457-0.839844 14.3164-0.986328 14.2383-1.20117L9.6582-13.3887C9.43359-13.9941 9.0332-14.2871 8.4082-14.2871C7.80273-14.2871 7.39258-13.9941 7.17773-13.3984L2.59766-1.19141C2.51953-0.976562 2.49023-0.830078 2.49023-0.664062C2.49023-0.175781 2.80273 0.126953 3.31055 0.126953ZM6.00586-5.53711L8.37891-12.1094L8.42773-12.1094L10.8008-5.53711Z"/>
  </g>
  <line id="" style="fill:none;stroke:#00AEEF;stroke-width:0.5;opacity:1.0;" x1="792.836" x2="792.836" y1="1919" y2="1933"/>
  <text style="stroke:none;fill:black;font-family:-apple-system,&quot;SF Pro Display&quot;,&quot;SF Pro Text&quot;,Helvetica,sans-serif;font-weight:bold;" transform="matrix(1 0 0 1 776 1953)">Margins</text>
  <text style="stroke:none;fill:black;font-family:-apple-system,&quot;SF Pro Display&quot;,&quot;SF Pro Text&quot;,Helvetica,sans-serif;" transform="matrix(1 0 0 1 776 1971)">Leading and trailing margins on the left and right side of each symbol</text>
  <text style="stroke:none;fill:black;font-family:-apple-system,&quot;SF Pro Display&quot;,&quot;SF Pro Text&quot;,Helvetica,sans-serif;" transform="matrix(1 0 0 1 776 1989)">can be adjusted by modifying the x-location of the margin guidelines.</text>
  <text style="stroke:none;fill:black;font-family:-apple-system,&quot;SF Pro Display&quot;,&quot;SF Pro Text&quot;,Helvetica,sans-serif;" transform="matrix(1 0 0 1 776 2007)">Modifications are automatically applied proportionally to all</text>
  <text style="stroke:none;fill:black;font-family:-apple-system,&quot;SF Pro Display&quot;,&quot;SF Pro Text&quot;,Helvetica,sans-serif;" transform="matrix(1 0 0 1 776 2025)">scales and weights.</text>
  <g id="" transform="matrix(1 0 0 1 1289 1933)">
   <path d="M2.8418 1.86523L4.54102 3.57422C5.40039 4.44336 6.38672 4.38477 7.31445 3.35938L17.4902-7.85156C17.7539-7.76367 18.0273-7.7832 18.3398-7.8418L19.4043-8.03711L20.0684-7.36328L20.0293-6.80664C19.9902-6.30859 20.1172-5.92773 20.6055-5.44922L21.3672-4.70703C21.8457-4.22852 22.4609-4.19922 22.9297-4.66797L25.8398-7.58789C26.3086-8.05664 26.2891-8.65234 25.8105-9.13086L25.0391-9.89258C24.5605-10.3711 24.1895-10.5273 23.7109-10.4883L23.1348-10.4395L22.4902-11.0742L22.7344-12.1973C22.8613-12.7637 22.7051-13.2031 22.1191-13.7891L19.9219-15.9766C16.582-19.2969 12.1484-19.2188 9.25781-16.3281C8.83789-15.918 8.80859-15.3418 9.04297-14.9512C9.27734-14.5898 9.73633-14.3555 10.3809-14.5215C11.8457-14.8633 13.3691-14.9219 14.7949-13.9844L14.209-12.5293C14.0137-12.0508 13.9844-11.6504 14.1113-11.2891L3.04688-0.898438C2.06055 0.0195312 1.98242 0.996094 2.8418 1.86523ZM10.752-15.957C13.1836-17.7344 16.4746-17.4316 18.7012-15.2051L21.1328-12.793C21.3672-12.5586 21.4062-12.373 21.3379-12.0312L21.0156-10.5469L22.5195-9.0625L23.5059-9.12109C23.7598-9.13086 23.8379-9.11133 24.0332-8.91602L24.6094-8.33984L22.168-5.89844L21.5918-6.47461C21.3965-6.66992 21.3672-6.74805 21.377-7.01172L21.4453-7.98828L19.9512-9.47266L18.4277-9.21875C18.1055-9.15039 17.959-9.17969 17.7148-9.41406L15.7129-11.416C15.459-11.6504 15.4297-11.8164 15.5859-12.1875L16.4648-14.2773C14.9023-15.7324 12.8711-16.3574 10.8398-15.7617C10.6836-15.7227 10.625-15.8496 10.752-15.957ZM5.27344 2.30469L4.10156 1.14258C3.63281 0.683594 3.74023 0.341797 4.14062-0.0195312L14.9512-10.1953L16.416-8.71094L6.42578 2.27539C6.07422 2.67578 5.74219 2.77344 5.27344 2.30469Z"/>
  </g>
  <text style="stroke:none;fill:black;font-family:-apple-system,&quot;SF Pro Display&quot;,&quot;SF Pro Text&quot;,Helvetica,sans-serif;font-weight:bold;" transform="matrix(1 0 0 1 1289 1953)">Exporting</text>
  <text style="stroke:none;fill:black;font-family:-apple-system,&quot;SF Pro Display&quot;,&quot;SF Pro Text&quot;,Helvetica,sans-serif;" transform="matrix(1 0 0 1 1289 1971)">Symbols should be outlined when exporting to ensure the</text>
  <text style="stroke:none;fill:black;font-family:-apple-system,&quot;SF Pro Display&quot;,&quot;SF Pro Text&quot;,Helvetica,sans-serif;" transform="matrix(1 0 0 1 1289 1989)">design is preserved when submitting to Xcode.</text>
  <text id="template-version" style="stroke:none;fill:black;font-family:-apple-system,&quot;SF Pro Display&quot;,&quot;SF Pro Text&quot;,Helvetica,sans-serif;text-anchor:end;" transform="matrix(1 0 0 1 3036 1933)">Template v.2.0</text>
  <text style="stroke:none;fill:black;font-family:-apple-system,&quot;SF Pro Display&quot;,&quot;SF Pro Text&quot;,Helvetica,sans-serif;text-anchor:end;" transform="matrix(1 0 0 1 3036 1951)">Requires Xcode 12 or greater</text>
  <text style="stroke:none;fill:black;font-family:-apple-system,&quot;SF Pro Display&quot;,&quot;SF Pro Text&quot;,Helvetica,sans-serif;text-anchor:end;" transform="matrix(1 0 0 1 3036 1969)">Generated from gamecontroller.fill</text>
  <text style="stroke:none;fill:black;font-family:-apple-system,&quot;SF Pro Display&quot;,&quot;SF Pro Text&quot;,Helvetica,sans-serif;text-anchor:end;" transform="matrix(1 0 0 1 3036 1987)">Typeset at 100 points</text>
  <text style="stroke:none;fill:black;font-family:-apple-system,&quot;SF Pro Display&quot;,&quot;SF Pro Text&quot;,Helvetica,sans-serif;" transform="matrix(1 0 0 1 263 726)">Small</text>
  <text style="stroke:none;fill:black;font-family:-apple-system,&quot;SF Pro Display&quot;,&quot;SF Pro Text&quot;,Helvetica,sans-serif;" transform="matrix(1 0 0 1 263 1156)">Medium</text>
  <text style="stroke:none;fill:black;font-family:-apple-system,&quot;SF Pro Display&quot;,&quot;SF Pro Text&quot;,Helvetica,sans-serif;" transform="matrix(1 0 0 1 263 1586)">Large</text>
 </g>
 <g id="Guides">
  <g id="H-reference" style="fill:#27AAE1;stroke:none;" transform="matrix(1 0 0 1 339 696)">
   <path d="M0.976562 0L3.66211 0L12.9883-24.4629L45.752-24.4629L55.127 0L57.7637 0L30.6152-70.459L28.125-70.459ZM29.3457-67.1387L29.4434-67.1387L44.873-26.709L13.8672-26.709Z"/>
  </g>
  <line id="Baseline-S" style="fill:none;stroke:#27AAE1;opacity:1;stroke-width:0.5;" x1="263" x2="3036" y1="696" y2="696"/>
  <line id="Capline-S" style="fill:none;stroke:#27AAE1;opacity:1;stroke-width:0.5;" x1="263" x2="3036" y1="625.541" y2="625.541"/>
  <g id="H-reference" style="fill:#27AAE1;stroke:none;" transform="matrix(1 0 0 1 339 1126)">
   <path d="M0.976562 0L3.66211 0L12.9883-24.4629L45.752-24.4629L55.127 0L57.7637 0L30.6152-70.459L28.125-70.459ZM29.3457-67.1387L29.4434-67.1387L44.873-26.709L13.8672-26.709Z"/>
  </g>
  <line id="Baseline-M" style="fill:none;stroke:#27AAE1;opacity:1;stroke-width:0.5;" x1="263" x2="3036" y1="1126" y2="1126"/>
  <line id="Capline-M" style="fill:none;stroke:#27AAE1;opacity:1;stroke-width:0.5;" x1="263" x2="3036" y1="1055.54" y2="1055.54"/>
  <g id="H-reference" style="fill:#27AAE1;stroke:none;" transform="matrix(1 0 0 1 339 1556)">
   <path d="M0.976562 0L3.66211 0L12.9883-24.4629L45.752-24.4629L55.127 0L57.7637 0L30.6152-70.459L28.125-70.459ZM29.3457-67.1387L29.4434-67.1387L44.873-26.709L13.8672-26.709Z"/>
  </g>
  <line id="Baseline-L" style="fill:none;stroke:#27AAE1;opacity:1;stroke-width:0.5;" x1="263" x2="3036" y1="1556" y2="1556"/>
  <line id="Capline-L" style="fill:none;stroke:#27AAE1;opacity:1;stroke-width:0.5;" x1="263" x2="3036" y1="1485.54" y2="1485.54"/>
  <line id="left-margin" style="fill:none;stroke:#00AEEF;stroke-width:0.5;opacity:1.0;" x1="1366.91" x2="1366.91" y1="1030.79" y2="1150.12"/>
  <line id="right-margin" style="fill:none;stroke:#00AEEF;stroke-width:0.5;opacity:1.0;" x1="1532.78" x2="1532.78" y1="1030.79" y2="1150.12"/>
 </g>
 <g id="Symbols">
  <g id="Black-L" transform="matrix(1 0 0 1 2820.66 1556)">
   <path d="M42.9199 26.4648C54.6875 26.4648 62.5977 21.8262 69.2871 15.1367L79.7852 4.58984C81.2988 3.125 82.1777 2.44141 84.2773 2.44141L141.211 2.44141C143.311 2.44141 144.189 3.125 145.752 4.58984L156.201 15.1367C162.988 21.7773 170.801 26.4648 182.568 26.4648C197.9 26.4648 209.424 16.6504 209.424-0.683594C209.424-8.30078 208.057-16.6504 205.42-25.4883C201.416-38.7207 194.629-56.543 188.281-69.9219C182.666-81.6406 178.955-88.7207 163.477-92.2363C150.537-95.166 133.301-96.9238 112.744-96.9238C92.1875-96.9238 75-95.166 62.0117-92.2363C46.582-88.7207 42.8711-81.6406 37.2559-69.9219C30.9082-56.543 24.0723-38.7207 20.1172-25.4883C17.4316-16.6504 16.0645-8.30078 16.0645-0.683594C16.0645 16.6504 27.6367 26.4648 42.9199 26.4648ZM59.9121-46.3379C59.9121-50.7812 62.8418-53.6133 67.4316-53.6133L75.4395-53.6133L75.4395-61.0352C75.4395-65.7227 78.418-68.7988 83.0078-68.7988C87.5977-68.7988 90.5762-65.7227 90.5762-61.0352L90.5762-53.6133L97.998-53.6133C102.93-53.6133 106.055-50.7812 106.055-46.3379C106.055-41.8945 102.93-39.0137 97.998-39.0137L90.5762-39.0137L90.5762-31.5918C90.5762-26.9043 87.5977-23.8281 83.0078-23.8281C78.418-23.8281 75.4395-26.9043 75.4395-31.5918L75.4395-39.0137L67.4316-39.0137C62.8418-39.0137 59.9121-41.8945 59.9121-46.3379ZM142.236-56.3477C142.236-62.1582 146.777-66.6504 152.49-66.6504C158.301-66.6504 162.744-62.1582 162.744-56.3477C162.744-50.5859 158.301-46.1914 152.49-46.1914C146.777-46.1914 142.236-50.5859 142.236-56.3477ZM123.047-36.6211C123.047-42.4316 127.588-46.9238 133.301-46.9238C139.111-46.9238 143.555-42.4316 143.555-36.6211C143.555-30.9082 139.111-26.4648 133.301-26.4648C127.588-26.4648 123.047-30.9082 123.047-36.6211Z"/>
  </g>
  <g id="Heavy-L" transform="matrix(1 0 0 1 2525.46 1556)">
   <path d="M42.0898 25.2441C52.9785 25.2441 60.4492 20.9473 66.7969 14.3555L77.5391 2.97852C79.1016 1.36719 80.1758 0.585938 82.2754 0.585938L140.186 0.585938C142.285 0.585938 143.359 1.36719 144.971 2.97852L155.664 14.3555C162.061 20.8984 169.482 25.2441 180.371 25.2441C195.361 25.2441 206.396 15.5273 206.396-1.12305C206.396-8.34961 204.98-16.4062 202.393-25.0977C198.438-38.2812 191.65-56.0059 185.254-69.4824C179.736-81.0547 176.27-87.6465 161.377-91.0156C148.633-93.8965 131.592-95.6543 111.23-95.6543C90.8691-95.6543 73.8281-93.8965 61.084-91.0156C46.1914-87.6465 42.7246-81.0547 37.207-69.4824C30.8105-56.0059 24.0234-38.2812 20.0684-25.0977C17.4805-16.4062 16.0645-8.34961 16.0645-1.12305C16.0645 15.5273 27.0996 25.2441 42.0898 25.2441ZM58.8867-46.7285C58.8867-50.7324 61.5234-53.3203 65.7227-53.3203L74.7559-53.3203L74.7559-61.9141C74.7559-66.1133 77.4414-68.8965 81.5918-68.8965C85.6934-68.8965 88.3301-66.1133 88.3301-61.9141L88.3301-53.3203L96.875-53.3203C101.318-53.3203 104.102-50.7324 104.102-46.7285C104.102-42.627 101.318-40.0391 96.875-40.0391L88.3301-40.0391L88.3301-31.4453C88.3301-27.2461 85.6934-24.4629 81.5918-24.4629C77.4414-24.4629 74.7559-27.2461 74.7559-31.4453L74.7559-40.0391L65.7227-40.0391C61.5234-40.0391 58.8867-42.627 58.8867-46.7285ZM140.82-56.6895C140.82-62.2559 145.166-66.6016 150.684-66.6016C156.299-66.6016 160.596-62.2559 160.596-56.6895C160.596-51.0742 156.299-46.8262 150.684-46.8262C145.166-46.8262 140.82-51.0742 140.82-56.6895ZM121.68-37.1582C121.68-42.7734 126.074-47.0703 131.592-47.0703C137.158-47.0703 141.455-42.7734 141.455-37.1582C141.455-31.6406 137.158-27.3438 131.592-27.3438C126.074-27.3438 121.68-31.6406 121.68-37.1582Z"/>
  </g>
  <g id="Bold-L" transform="matrix(1 0 0 1 2230.43 1556)">
   <path d="M41.1133 23.8281C51.0742 23.8281 58.0078 19.9707 63.9648 13.4277L75 1.12305C76.6113-0.634766 77.9785-1.41602 80.0293-1.41602L139.014-1.41602C141.064-1.41602 142.48-0.634766 144.043 1.12305L155.078 13.4277C161.084 19.9219 167.969 23.8281 177.93 23.8281C192.578 23.8281 203.027 14.2578 203.027-1.5625C203.027-8.44727 201.562-16.1621 199.023-24.707C195.117-37.793 188.33-55.4199 181.934-68.9941C176.465-80.4199 173.242-86.4258 159.033-89.6484C146.582-92.4805 129.688-94.2383 109.521-94.2383C89.3555-94.2383 72.5098-92.4805 60.0098-89.6484C45.8008-86.4258 42.627-80.4199 37.1582-68.9941C30.7129-55.4199 23.9746-37.793 20.0195-24.707C17.4805-16.1621 16.0645-8.44727 16.0645-1.5625C16.0645 14.2578 26.5137 23.8281 41.1133 23.8281ZM57.7637-47.1191C57.7637-50.6348 60.0586-52.9297 63.7695-52.9297L74.0234-52.9297L74.0234-62.8418C74.0234-66.5527 76.3184-68.9453 79.9316-68.9453C83.5449-68.9453 85.8398-66.5527 85.8398-62.8418L85.8398-52.9297L95.5566-52.9297C99.5117-52.9297 101.953-50.6348 101.953-47.1191C101.953-43.5059 99.5117-41.2109 95.5566-41.2109L85.8398-41.2109L85.8398-31.2988C85.8398-27.5879 83.5449-25.1465 79.9316-25.1465C76.3184-25.1465 74.0234-27.5879 74.0234-31.2988L74.0234-41.2109L63.7695-41.2109C60.0586-41.2109 57.7637-43.5059 57.7637-47.1191ZM139.209-57.0312C139.209-62.4023 143.408-66.5527 148.682-66.5527C154.053-66.5527 158.154-62.4023 158.154-57.0312C158.154-51.6602 154.053-47.6074 148.682-47.6074C143.408-47.6074 139.209-51.6602 139.209-57.0312ZM120.166-37.793C120.166-43.1641 124.316-47.2656 129.639-47.2656C134.961-47.2656 139.111-43.1641 139.111-37.793C139.111-32.4219 134.961-28.3203 129.639-28.3203C124.316-28.3203 120.166-32.4219 120.166-37.793Z"/>
  </g>
  <g id="Semibold-L" transform="matrix(1 0 0 1 1934.89 1556)">
   <path d="M40.4785 22.9004C49.7559 22.9004 56.3477 19.2871 62.0605 12.8418L73.291-0.0976562C74.9023-2.00195 76.4648-2.83203 78.5156-2.83203L138.232-2.83203C140.283-2.83203 141.846-2.00195 143.457-0.0976562L154.688 12.8418C160.4 19.2871 166.943 22.9004 176.27 22.9004C190.625 22.9004 200.684 13.3789 200.684-1.9043C200.684-8.49609 199.219-16.0156 196.729-24.4141C192.822-37.4512 186.084-55.0293 179.59-68.6523C174.219-79.9805 171.191-85.5469 157.422-88.6719C145.117-91.5039 128.369-93.2617 108.35-93.2617C88.3301-93.2617 71.6309-91.5039 59.2773-88.6719C45.5566-85.5469 42.5293-79.9805 37.1094-68.6523C30.6641-55.0293 23.9258-37.4512 20.0195-24.4141C17.5293-16.0156 16.0645-8.49609 16.0645-1.9043C16.0645 13.3789 26.0742 22.9004 40.4785 22.9004ZM56.9824-47.4121C56.9824-50.6348 59.082-52.6855 62.4512-52.6855L73.4863-52.6855L73.4863-63.5254C73.4863-66.8457 75.5371-68.9941 78.8086-68.9941C82.0801-68.9941 84.1309-66.8457 84.1309-63.5254L84.1309-52.6855L94.6289-52.6855C98.2422-52.6855 100.439-50.6348 100.439-47.4121C100.439-44.0918 98.2422-41.9922 94.6289-41.9922L84.1309-41.9922L84.1309-31.1523C84.1309-27.7832 82.0801-25.6348 78.8086-25.6348C75.5371-25.6348 73.4863-27.7832 73.4863-31.1523L73.4863-41.9922L62.4512-41.9922C59.082-41.9922 56.9824-44.0918 56.9824-47.4121ZM138.086-57.2754C138.086-62.5 142.139-66.5039 147.314-66.5039C152.49-66.5039 156.494-62.5 156.494-57.2754C156.494-52.0996 152.49-48.0957 147.314-48.0957C142.139-48.0957 138.086-52.0996 138.086-57.2754ZM119.092-38.1836C119.092-43.4082 123.145-47.4121 128.271-47.4121C133.496-47.4121 137.5-43.4082 137.5-38.1836C137.5-33.0078 133.496-29.0039 128.271-29.0039C123.145-29.0039 119.092-33.0078 119.092-38.1836Z"/>
  </g>
  <g id="Medium-L" transform="matrix(1 0 0 1 1639.08 1556)">
   <path d="M39.9902 22.168C48.7793 22.168 55.0781 18.75 60.5957 12.3535L71.9727-1.07422C73.6328-3.02734 75.293-3.90625 77.2949-3.90625L137.646-3.90625C139.648-3.90625 141.357-3.02734 143.018-1.07422L154.395 12.3535C159.863 18.75 166.211 22.168 174.951 22.168C189.16 22.168 198.877 12.7441 198.877-2.14844C198.877-8.54492 197.412-15.8691 194.971-24.2188C191.064-37.1582 184.326-54.7363 177.832-68.4082C172.51-79.6387 169.629-84.9121 156.201-87.9395C143.994-90.7227 127.393-92.5293 107.471-92.5293C87.5488-92.5293 70.9473-90.7227 58.7402-87.9395C45.3125-84.9121 42.4805-79.6387 37.1094-68.4082C30.6152-54.7363 23.877-37.1582 20.0195-24.2188C17.5293-15.8691 16.0645-8.54492 16.0645-2.14844C16.0645 12.7441 25.7812 22.168 39.9902 22.168ZM56.3965-47.6074C56.3965-50.5859 58.3008-52.4902 61.4258-52.4902L73.0957-52.4902L73.0957-64.0137C73.0957-67.0898 74.9512-69.043 77.9785-69.043C80.957-69.043 82.8125-67.0898 82.8125-64.0137L82.8125-52.4902L93.9453-52.4902C97.3145-52.4902 99.3164-50.5859 99.3164-47.6074C99.3164-44.5312 97.3145-42.627 93.9453-42.627L82.8125-42.627L82.8125-31.0547C82.8125-27.9785 80.957-26.0254 77.9785-26.0254C74.9512-26.0254 73.0957-27.9785 73.0957-31.0547L73.0957-42.627L61.4258-42.627C58.3008-42.627 56.3965-44.5312 56.3965-47.6074ZM137.256-57.4707C137.256-62.5488 141.211-66.5039 146.24-66.5039C151.318-66.5039 155.225-62.5488 155.225-57.4707C155.225-52.3926 151.318-48.4863 146.24-48.4863C141.211-48.4863 137.256-52.3926 137.256-57.4707ZM118.262-38.4766C118.262-43.6035 122.217-47.5098 127.246-47.5098C132.324-47.5098 136.23-43.6035 136.23-38.4766C136.23-33.4473 132.324-29.541 127.246-29.541C122.217-29.541 118.262-33.4473 118.262-38.4766Z"/>
  </g>
  <g id="Regular-L" transform="matrix(1 0 0 1 1343.52 1556)">
   <path d="M39.3555 21.1914C47.4609 21.1914 53.4668 18.1152 58.6426 11.7188L70.2637-2.34375C71.9238-4.3457 73.7793-5.27344 75.7812-5.27344L136.865-5.27344C138.867-5.27344 140.723-4.3457 142.383-2.34375L153.955 11.7188C159.18 18.1152 165.186 21.1914 173.291 21.1914C187.256 21.1914 196.582 11.8652 196.582-2.44141C196.582-8.59375 195.117-15.7227 192.676-23.9258C188.818-36.8164 182.08-54.3457 175.586-68.0664C170.264-79.1992 167.578-84.082 154.639-87.0117C142.578-89.7949 126.074-91.5527 106.299-91.5527C86.5723-91.5527 70.0684-89.7949 58.0078-87.0117C45.0684-84.082 42.3828-79.1992 37.0605-68.0664C30.5664-54.3457 23.8281-36.8164 19.9707-23.9258C17.5293-15.7227 16.0645-8.59375 16.0645-2.44141C16.0645 11.8652 25.3906 21.1914 39.3555 21.1914ZM55.6641-47.9004C55.6641-50.5371 57.3242-52.2461 60.1074-52.2461L72.5586-52.2461L72.5586-64.6484C72.5586-67.3828 74.1699-69.0918 76.8555-69.0918C79.4922-69.0918 81.1035-67.3828 81.1035-64.6484L81.1035-52.2461L93.0664-52.2461C96.0449-52.2461 97.8027-50.5371 97.8027-47.9004C97.8027-45.1172 96.0449-43.4082 93.0664-43.4082L81.1035-43.4082L81.1035-30.957C81.1035-28.2227 79.4922-26.5137 76.8555-26.5137C74.1699-26.5137 72.5586-28.2227 72.5586-30.957L72.5586-43.4082L60.1074-43.4082C57.3242-43.4082 55.6641-45.1172 55.6641-47.9004ZM136.182-57.7148C136.182-62.6465 139.99-66.4551 144.873-66.4551C149.805-66.4551 153.564-62.6465 153.564-57.7148C153.564-52.7832 149.805-49.0234 144.873-49.0234C139.99-49.0234 136.182-52.7832 136.182-57.7148ZM117.236-38.916C117.236-43.8477 121.045-47.6562 125.928-47.6562C130.859-47.6562 134.668-43.8477 134.668-38.916C134.668-33.9844 130.859-30.2246 125.928-30.2246C121.045-30.2246 117.236-33.9844 117.236-38.916Z"/>
  </g>
  <g id="Light-L" transform="matrix(1 0 0 1 1047.76 1556)">
   <path d="M38.3789 20.2637C45.752 20.2637 51.8555 17.2852 56.9336 11.084L68.75-3.22266C70.5078-5.37109 72.3633-6.29883 74.4629-6.29883L136.279-6.29883C138.379-6.29883 140.234-5.37109 141.992-3.22266L153.809 11.084C158.887 17.2852 164.99 20.2637 172.412 20.2637C185.742 20.2637 194.678 11.2793 194.678-2.44141C194.678-8.39844 193.213-15.332 190.723-23.6328C186.865-36.5234 180.176-54.0039 173.584-67.9199C168.408-78.7598 165.869-83.2031 153.418-86.0352C141.162-88.8672 124.609-90.5273 105.371-90.5273C86.1328-90.5273 69.5801-88.8672 57.3242-86.0352C44.873-83.2031 42.334-78.7598 37.207-67.9199C30.5664-54.0039 23.877-36.5234 20.0195-23.6328C17.5781-15.332 16.0645-8.39844 16.0645-2.44141C16.0645 11.2793 25 20.2637 38.3789 20.2637ZM55.127-47.9004C55.127-49.9023 56.4453-51.2695 58.5449-51.2695L72.6074-51.2695L72.6074-65.5762C72.6074-67.627 73.877-68.9941 75.8789-68.9941C77.8809-68.9941 79.1504-67.627 79.1504-65.5762L79.1504-51.2695L92.9199-51.2695C95.1172-51.2695 96.4844-49.9023 96.4844-47.9004C96.4844-45.8496 95.1172-44.5312 92.9199-44.5312L79.1504-44.5312L79.1504-30.1758C79.1504-28.0762 77.8809-26.7578 75.8789-26.7578C73.877-26.7578 72.6074-28.0762 72.6074-30.1758L72.6074-44.5312L58.5449-44.5312C56.4453-44.5312 55.127-45.8496 55.127-47.9004ZM135.693-57.7148C135.693-62.4023 139.355-65.9668 143.945-65.9668C148.584-65.9668 152.197-62.4023 152.197-57.7148C152.197-53.0762 148.584-49.5117 143.945-49.5117C139.355-49.5117 135.693-53.0762 135.693-57.7148ZM116.211-38.7207C116.211-43.4082 119.824-47.0215 124.463-47.0215C129.102-47.0215 132.715-43.4082 132.715-38.7207C132.715-34.082 129.102-30.5176 124.463-30.5176C119.824-30.5176 116.211-34.082 116.211-38.7207Z"/>
  </g>
  <g id="Thin-L" transform="matrix(1 0 0 1 752.296 1556)">
   <path d="M37.0605 19.043C43.5059 19.043 49.7559 16.1621 54.6387 10.2539L66.748-4.44336C68.6523-6.73828 70.459-7.66602 72.7539-7.66602L135.547-7.66602C137.793-7.66602 139.6-6.73828 141.504-4.44336L153.613 10.2539C158.496 16.1621 164.746 19.043 171.191 19.043C183.789 19.043 192.188 10.4492 192.188-2.44141C192.188-8.1543 190.674-14.8926 188.184-23.2422C184.326-36.1816 177.637-53.5645 170.947-67.7246C165.967-78.125 163.574-82.0801 151.855-84.7656C139.307-87.6465 122.656-89.209 104.15-89.209C85.5957-89.209 68.9941-87.6465 56.4453-84.7656C44.6777-82.0801 42.2852-78.125 37.3535-67.7246C30.6152-53.5645 23.9258-36.1816 20.0684-23.2422C17.5781-14.8926 16.0645-8.1543 16.0645-2.44141C16.0645 10.4492 24.4629 19.043 37.0605 19.043ZM54.4434-47.9492C54.4434-49.0723 55.2734-49.9512 56.4941-49.9512L72.6562-49.9512L72.6562-66.7969C72.6562-67.9688 73.4863-68.8477 74.6094-68.8477C75.7324-68.8477 76.5625-67.9688 76.5625-66.7969L76.5625-49.9512L92.6758-49.9512C93.8965-49.9512 94.7754-49.0723 94.7754-47.9492C94.7754-46.8262 93.8965-45.9961 92.6758-45.9961L76.5625-45.9961L76.5625-29.1016C76.5625-27.9297 75.7324-27.0508 74.6094-27.0508C73.4863-27.0508 72.6562-27.9297 72.6562-29.1016L72.6562-45.9961L56.4941-45.9961C55.2734-45.9961 54.4434-46.8262 54.4434-47.9492ZM135.107-57.7148C135.107-62.0605 138.477-65.332 142.725-65.332C147.021-65.332 150.391-62.0605 150.391-57.7148C150.391-53.418 147.021-50.1465 142.725-50.1465C138.477-50.1465 135.107-53.418 135.107-57.7148ZM114.844-38.4766C114.844-42.8223 118.213-46.1426 122.51-46.1426C126.758-46.1426 130.127-42.8223 130.127-38.4766C130.127-34.1797 126.758-30.9082 122.51-30.9082C118.213-30.9082 114.844-34.1797 114.844-38.4766Z"/>
  </g>
  <g id="Ultralight-L" transform="matrix(1 0 0 1 456.22 1556)">
   <path d="M36.4258 18.4082C42.3828 18.4082 48.6816 15.625 53.4668 9.81445L65.7715-5.07812C67.7246-7.4707 69.4824-8.34961 71.8262-8.34961L135.156-8.34961C137.5-8.34961 139.258-7.4707 141.211-5.07812L153.516 9.81445C158.301 15.625 164.6 18.4082 170.557 18.4082C182.764 18.4082 190.918 10.0586 190.918-2.44141C190.918-8.00781 189.404-14.6484 186.914-23.0469C183.008-35.9863 176.367-53.3203 169.58-67.627C164.697-77.832 162.451-81.4453 151.025-84.082C138.33-87.0117 121.631-88.4766 103.516-88.4766C85.3516-88.4766 68.6523-87.0117 55.957-84.082C44.5801-81.4453 42.2852-77.832 37.4023-67.627C30.6152-53.3203 23.9746-35.9863 20.1172-23.0469C17.5781-14.6484 16.0645-8.00781 16.0645-2.44141C16.0645 10.0586 24.2188 18.4082 36.4258 18.4082ZM54.1016-47.998C54.1016-48.6328 54.6875-49.2676 55.4688-49.2676L72.7051-49.2676L72.7051-67.4316C72.7051-68.1641 73.291-68.75 73.9746-68.75C74.6582-68.75 75.2441-68.1641 75.2441-67.4316L75.2441-49.2676L92.5781-49.2676C93.3105-49.2676 93.8965-48.6328 93.8965-47.998C93.8965-47.3145 93.3105-46.7285 92.5781-46.7285L75.2441-46.7285L75.2441-28.5645C75.2441-27.832 74.6582-27.2461 73.9746-27.2461C73.291-27.2461 72.7051-27.832 72.7051-28.5645L72.7051-46.7285L55.4688-46.7285C54.6875-46.7285 54.1016-47.3145 54.1016-47.998ZM134.766-57.7148C134.766-61.8652 137.988-65.0391 142.09-65.0391C146.191-65.0391 149.414-61.8652 149.414-57.7148C149.414-53.6133 146.191-50.4883 142.09-50.4883C137.988-50.4883 134.766-53.6133 134.766-57.7148ZM114.16-38.3301C114.16-42.5293 117.383-45.6543 121.484-45.6543C125.586-45.6543 128.809-42.5293 128.809-38.3301C128.809-34.2773 125.586-31.1035 121.484-31.1035C117.383-31.1035 114.16-34.2773 114.16-38.3301Z"/>
  </g>
  <g id="Black-M" transform="matrix(1 0 0 1 2844.48 1126)">
   <path d="M33.8867 13.7695C43.7988 13.7695 50.5859 9.7168 56.1523 4.54102L64.0625-2.63672C65.2344-3.71094 65.5762-4.15039 67.334-4.15039L110.498-4.15039C112.256-4.15039 112.598-3.71094 113.818-2.63672L121.68 4.54102C127.344 9.66797 134.082 13.7695 143.994 13.7695C155.957 13.7695 165.381 6.15234 165.381-7.91016C165.381-14.1602 164.355-20.9473 162.207-27.9785C159.082-38.4277 153.809-52.2461 148.877-62.5977C144.531-71.6797 141.357-77.7344 128.857-80.5176C118.408-82.9102 104.834-84.2285 88.916-84.2285C73.0469-84.2285 59.4238-82.9102 48.9746-80.5176C36.4746-77.7344 33.3496-71.6797 28.9551-62.5977C24.0723-52.2461 18.75-38.4277 15.625-27.9785C13.5254-20.9473 12.4512-14.1602 12.4512-7.91016C12.4512 6.15234 21.9238 13.7695 33.8867 13.7695ZM47.5098-43.4082C47.5098-47.0215 50-49.4141 53.7598-49.4141L59.375-49.4141L59.375-54.5898C59.375-58.4961 61.9629-61.1328 65.7715-61.1328C69.6289-61.1328 72.2168-58.4961 72.2168-54.5898L72.2168-49.4141L77.4414-49.4141C81.4453-49.4141 84.082-47.0215 84.082-43.4082C84.082-39.7461 81.4453-37.3535 77.4414-37.3535L72.2168-37.3535L72.2168-32.1777C72.2168-28.3203 69.6289-25.6836 65.7715-25.6836C61.9629-25.6836 59.375-28.3203 59.375-32.1777L59.375-37.3535L53.7598-37.3535C50-37.3535 47.5098-39.7461 47.5098-43.4082ZM111.914-51.1719C111.914-55.8105 115.576-59.375 120.117-59.375C124.756-59.375 128.32-55.8105 128.32-51.1719C128.32-46.582 124.756-43.0664 120.117-43.0664C115.576-43.0664 111.914-46.582 111.914-51.1719ZM96.6797-35.498C96.6797-40.1367 100.342-43.7012 104.883-43.7012C109.521-43.7012 113.086-40.1367 113.086-35.498C113.086-30.957 109.521-27.3926 104.883-27.3926C100.342-27.3926 96.6797-30.957 96.6797-35.498Z"/>
  </g>
  <g id="Heavy-M" transform="matrix(1 0 0 1 2549.19 1126)">
   <path d="M33.2031 12.6465C42.3828 12.6465 48.6328 8.98438 53.8574 3.85742L61.9629-4.19922C63.1836-5.37109 63.8184-5.85938 65.4785-5.85938L109.521-5.85938C111.23-5.85938 111.816-5.37109 113.037-4.19922L121.143 3.85742C126.465 8.93555 132.666 12.6465 141.797 12.6465C153.613 12.6465 162.549 5.07812 162.549-8.34961C162.549-14.3066 161.475-20.8008 159.424-27.6855C156.348-37.9883 151.074-51.7578 146.094-62.1582C141.797-71.1914 138.867-76.7578 126.904-79.4434C116.748-81.7383 103.32-83.1055 87.5-83.1055C71.6797-83.1055 58.3008-81.7383 48.1445-79.4434C36.1328-76.7578 33.252-71.1914 28.9062-62.1582C23.9746-51.7578 18.7012-37.9883 15.5762-27.6855C13.5254-20.8008 12.4512-14.3066 12.4512-8.34961C12.4512 5.07812 21.4355 12.6465 33.2031 12.6465ZM46.5332-43.75C46.5332-47.1191 48.8281-49.3164 52.2949-49.3164L58.6426-49.3164L58.6426-55.2734C58.6426-58.8379 60.9375-61.2305 64.4531-61.2305C67.9199-61.2305 70.2637-58.8379 70.2637-55.2734L70.2637-49.3164L76.2207-49.3164C79.9316-49.3164 82.3242-47.1191 82.3242-43.75C82.3242-40.3809 79.9316-38.2324 76.2207-38.2324L70.2637-38.2324L70.2637-32.2266C70.2637-28.6621 67.9199-26.3184 64.4531-26.3184C60.9375-26.3184 58.6426-28.6621 58.6426-32.2266L58.6426-38.2324L52.2949-38.2324C48.8281-38.2324 46.5332-40.3809 46.5332-43.75ZM110.498-51.5137C110.498-56.0059 113.965-59.4238 118.408-59.4238C122.852-59.4238 126.318-56.0059 126.318-51.5137C126.318-47.0703 122.852-43.6523 118.408-43.6523C113.965-43.6523 110.498-47.0703 110.498-51.5137ZM95.459-36.1328C95.459-40.625 98.9258-44.043 103.369-44.043C107.812-44.043 111.279-40.625 111.279-36.1328C111.279-31.7383 107.812-28.2715 103.369-28.2715C98.9258-28.2715 95.459-31.7383 95.459-36.1328Z"/>
  </g>
  <g id="Bold-M" transform="matrix(1 0 0 1 2254.04 1126)">
   <path d="M32.4707 11.4258C40.7715 11.4258 46.4355 8.1543 51.3184 3.02734L59.668-5.9082C60.8887-7.22656 61.8164-7.8125 63.4277-7.8125L108.447-7.8125C110.059-7.8125 110.986-7.22656 112.207-5.9082L120.557 3.02734C125.439 8.10547 131.104 11.4258 139.404 11.4258C150.977 11.4258 159.424 3.90625 159.424-8.88672C159.424-14.4531 158.301-20.6055 156.299-27.2949C153.271-37.5 147.998-51.2207 143.018-61.6699C138.77-70.6543 136.133-75.6348 124.707-78.2227C114.893-80.4688 101.709-81.8359 85.9375-81.8359C70.166-81.8359 56.9824-80.4688 47.168-78.2227C35.7422-75.6348 33.1055-70.6543 28.8086-61.6699C23.877-51.2207 18.6035-37.5 15.5762-27.2949C13.5254-20.6055 12.4512-14.4531 12.4512-8.88672C12.4512 3.90625 20.8984 11.4258 32.4707 11.4258ZM45.459-44.1895C45.459-47.2168 47.4609-49.2188 50.6348-49.2188L57.8125-49.2188L57.8125-56.0547C57.8125-59.2285 59.8145-61.3281 62.9395-61.3281C66.0645-61.3281 68.0664-59.2285 68.0664-56.0547L68.0664-49.2188L74.8535-49.2188C78.2227-49.2188 80.3223-47.2168 80.3223-44.1895C80.3223-41.1133 78.2227-39.1602 74.8535-39.1602L68.0664-39.1602L68.0664-32.2754C68.0664-29.1016 66.0645-27.002 62.9395-27.002C59.8145-27.002 57.8125-29.1016 57.8125-32.2754L57.8125-39.1602L50.6348-39.1602C47.4609-39.1602 45.459-41.1133 45.459-44.1895ZM108.838-51.9043C108.838-56.2012 112.207-59.5215 116.455-59.5215C120.752-59.5215 124.072-56.2012 124.072-51.9043C124.072-47.6074 120.752-44.3359 116.455-44.3359C112.207-44.3359 108.838-47.6074 108.838-51.9043ZM94.043-36.8652C94.043-41.1621 97.4121-44.4824 101.66-44.4824C105.957-44.4824 109.277-41.1621 109.277-36.8652C109.277-32.5684 105.957-29.2969 101.66-29.2969C97.4121-29.2969 94.043-32.5684 94.043-36.8652Z"/>
  </g>
  <g id="Semibold-M" transform="matrix(1 0 0 1 1958.43 1126)">
   <path d="M31.9336 10.5469C39.6973 10.5469 44.9707 7.56836 49.5605 2.49023L58.0566-7.12891C59.3262-8.49609 60.4004-9.13086 61.9629-9.13086L107.715-9.13086C109.277-9.13086 110.352-8.49609 111.621-7.12891L120.117 2.49023C124.756 7.56836 130.029 10.5469 137.744 10.5469C149.17 10.5469 157.227 3.07617 157.227-9.22852C157.227-14.502 156.104-20.5078 154.15-27.0508C151.123-37.207 145.898-50.8789 140.918-61.3281C136.67-70.2637 134.18-74.9023 123.193-77.3926C113.574-79.5898 100.537-80.957 84.8633-80.957C69.1406-80.957 56.1035-79.5898 46.5332-77.3926C35.498-74.9023 33.0078-70.2637 28.7598-61.3281C23.7793-50.8789 18.5547-37.207 15.5273-27.0508C13.5742-20.5078 12.4512-14.502 12.4512-9.22852C12.4512 3.07617 20.5566 10.5469 31.9336 10.5469ZM44.7266-44.4824C44.7266-47.3145 46.5332-49.1211 49.4629-49.1211L57.2266-49.1211L57.2266-56.5918C57.2266-59.5215 59.0332-61.4258 61.9141-61.4258C64.7461-61.4258 66.5527-59.5215 66.5527-56.5918L66.5527-49.1211L73.877-49.1211C77.0508-49.1211 78.9551-47.3145 78.9551-44.4824C78.9551-41.6016 77.0508-39.7949 73.877-39.7949L66.5527-39.7949L66.5527-32.3242C66.5527-29.3945 64.7461-27.4902 61.9141-27.4902C59.0332-27.4902 57.2266-29.3945 57.2266-32.3242L57.2266-39.7949L49.4629-39.7949C46.5332-39.7949 44.7266-41.6016 44.7266-44.4824ZM107.764-52.1973C107.764-56.3477 110.986-59.6191 115.137-59.6191C119.287-59.6191 122.51-56.3477 122.51-52.1973C122.51-47.998 119.287-44.8242 115.137-44.8242C110.986-44.8242 107.764-47.998 107.764-52.1973ZM93.1152-37.3047C93.1152-41.5039 96.3379-44.7266 100.488-44.7266C104.688-44.7266 107.861-41.5039 107.861-37.3047C107.861-33.1543 104.688-29.9805 100.488-29.9805C96.3379-29.9805 93.1152-33.1543 93.1152-37.3047Z"/>
  </g>
  <g id="Medium-M" transform="matrix(1 0 0 1 1662.55 1126)">
   <path d="M31.543 9.91211C38.8672 9.91211 43.7988 7.12891 48.1934 2.09961L56.8848-8.00781C58.1055-9.47266 59.375-10.1074 60.8887-10.1074L107.129-10.1074C108.643-10.1074 109.912-9.47266 111.133-8.00781L119.824 2.09961C124.219 7.12891 129.199 9.91211 136.475 9.91211C147.754 9.91211 155.566 2.44141 155.566-9.47266C155.566-14.5996 154.443-20.4102 152.539-26.8555C149.512-36.9629 144.287-50.5859 139.307-61.084C135.059-69.9707 132.764-74.3164 122.021-76.7578C112.598-78.9062 99.707-80.3223 84.0332-80.3223C68.3594-80.3223 55.4199-78.9062 45.9961-76.7578C35.3027-74.3164 32.959-69.9707 28.7109-61.084C23.7305-50.5859 18.5059-36.9629 15.4785-26.8555C13.5742-20.4102 12.4512-14.5996 12.4512-9.47266C12.4512 2.44141 20.2637 9.91211 31.543 9.91211ZM44.1406-44.7266C44.1406-47.3633 45.8496-49.0723 48.584-49.0723L56.7871-49.0723L56.7871-56.9824C56.7871-59.7168 58.4473-61.4746 61.1328-61.4746C63.7695-61.4746 65.4297-59.7168 65.4297-56.9824L65.4297-49.0723L73.1445-49.0723C76.123-49.0723 77.9297-47.3633 77.9297-44.7266C77.9297-41.9922 76.123-40.2832 73.1445-40.2832L65.4297-40.2832L65.4297-32.3242C65.4297-29.5898 63.7695-27.832 61.1328-27.832C58.4473-27.832 56.7871-29.5898 56.7871-32.3242L56.7871-40.2832L48.584-40.2832C45.8496-40.2832 44.1406-41.9922 44.1406-44.7266ZM106.885-52.3926C106.885-56.4941 110.059-59.668 114.111-59.668C118.213-59.668 121.338-56.4941 121.338-52.3926C121.338-48.291 118.213-45.166 114.111-45.166C110.059-45.166 106.885-48.291 106.885-52.3926ZM92.3828-37.6953C92.3828-41.7969 95.5566-44.9707 99.6094-44.9707C103.662-44.9707 106.836-41.7969 106.836-37.6953C106.836-33.6426 103.662-30.5176 99.6094-30.5176C95.5566-30.5176 92.3828-33.6426 92.3828-37.6953Z"/>
  </g>
  <g id="Regular-M" transform="matrix(1 0 0 1 1366.91 1126)">
   <path d="M31.0547 9.0332C37.7441 9.0332 42.334 6.5918 46.4355 1.51367L55.2734-9.17969C56.543-10.6934 58.0078-11.4258 59.4727-11.4258L106.396-11.4258C107.861-11.4258 109.326-10.6934 110.596-9.17969L119.434 1.51367C123.535 6.5918 128.125 9.0332 134.814 9.0332C145.996 9.0332 153.418 1.61133 153.418-9.81445C153.418-14.6973 152.295-20.3125 150.391-26.6113C147.412-36.6211 142.188-50.2441 137.207-60.791C133.008-69.5801 130.859-73.584 120.508-75.9277C111.328-78.0273 98.584-79.4434 82.959-79.4434C67.334-79.4434 54.541-78.0273 45.3613-75.9277C35.0098-73.584 32.8613-69.5801 28.6621-60.791C23.6816-50.2441 18.457-36.6211 15.4785-26.6113C13.5742-20.3125 12.4512-14.6973 12.4512-9.81445C12.4512 1.61133 19.873 9.0332 31.0547 9.0332ZM43.4082-45.0195C43.4082-47.4609 44.9219-48.9746 47.4609-48.9746L56.25-48.9746L56.25-57.5195C56.25-60.0098 57.666-61.5234 60.1074-61.5234C62.5-61.5234 63.9648-60.0098 63.9648-57.5195L63.9648-48.9746L72.2168-48.9746C74.9512-48.9746 76.5625-47.4609 76.5625-45.0195C76.5625-42.4805 74.9512-40.918 72.2168-40.918L63.9648-40.918L63.9648-32.373C63.9648-29.8828 62.5-28.3203 60.1074-28.3203C57.666-28.3203 56.25-29.8828 56.25-32.373L56.25-40.918L47.4609-40.918C44.9219-40.918 43.4082-42.4805 43.4082-45.0195ZM105.811-52.6367C105.811-56.6406 108.887-59.7168 112.793-59.7168C116.797-59.7168 119.824-56.6406 119.824-52.6367C119.824-48.6816 116.797-45.6543 112.793-45.6543C108.887-45.6543 105.811-48.6816 105.811-52.6367ZM91.4062-38.1836C91.4062-42.1875 94.5312-45.2637 98.4375-45.2637C102.393-45.2637 105.469-42.1875 105.469-38.1836C105.469-34.2285 102.393-31.1523 98.4375-31.1523C94.5312-31.1523 91.4062-34.2285 91.4062-38.1836Z"/>
  </g>
  <g id="Light-M" transform="matrix(1 0 0 1 1071.05 1126)">
   <path d="M30.1758 8.20312C36.2305 8.20312 40.918 5.81055 44.9219 0.976562L53.9551-10.0098C55.2734-11.6211 56.7383-12.3535 58.3008-12.3535L105.859-12.3535C107.471-12.3535 108.887-11.6211 110.205-10.0098L119.287 0.976562C123.291 5.81055 127.93 8.20312 133.984 8.20312C144.629 8.20312 151.709 1.07422 151.709-9.81445C151.709-14.502 150.586-19.9707 148.682-26.3672C145.703-36.377 140.479-49.9023 135.4-60.6445C131.348-69.1406 129.297-72.8027 119.434-75.0488C110.059-77.1973 97.2168-78.5645 82.0801-78.5645C66.9434-78.5645 54.1504-77.1973 44.7266-75.0488C34.8633-72.8027 32.8125-69.1406 28.7598-60.6445C23.6816-49.9023 18.5059-36.377 15.4785-26.3672C13.623-19.9707 12.4512-14.502 12.4512-9.81445C12.4512 1.07422 19.5312 8.20312 30.1758 8.20312ZM42.9688-45.0195C42.9688-46.875 44.1406-48.0957 46.0938-48.0957L56.25-48.0957L56.25-58.3496C56.25-60.2539 57.4219-61.4258 59.2285-61.4258C61.084-61.4258 62.207-60.2539 62.207-58.3496L62.207-48.0957L72.0703-48.0957C74.1211-48.0957 75.3906-46.875 75.3906-45.0195C75.3906-43.1152 74.1211-41.9434 72.0703-41.9434L62.207-41.9434L62.207-31.6406C62.207-29.7363 61.084-28.5645 59.2285-28.5645C57.4219-28.5645 56.25-29.7363 56.25-31.6406L56.25-41.9434L46.0938-41.9434C44.1406-41.9434 42.9688-43.1152 42.9688-45.0195ZM105.371-52.6367C105.371-56.3965 108.301-59.2773 111.963-59.2773C115.674-59.2773 118.555-56.3965 118.555-52.6367C118.555-48.9258 115.674-46.0938 111.963-46.0938C108.301-46.0938 105.371-48.9258 105.371-52.6367ZM90.5273-38.0371C90.5273-41.748 93.4082-44.6289 97.1191-44.6289C100.83-44.6289 103.711-41.748 103.711-38.0371C103.711-34.2773 100.83-31.4453 97.1191-31.4453C93.4082-31.4453 90.5273-34.2773 90.5273-38.0371Z"/>
  </g>
  <g id="Thin-M" transform="matrix(1 0 0 1 775.441 1126)">
   <path d="M29.0039 7.08008C34.2285 7.08008 39.0137 4.83398 42.8223 0.195312L52.1973-11.1328C53.6133-12.8906 55.0293-13.5742 56.7383-13.5742L105.176-13.5742C106.934-13.5742 108.301-12.8906 109.766-11.1328L119.092 0.195312C122.949 4.83398 127.734 7.08008 132.91 7.08008C142.871 7.08008 149.512 0.341797 149.512-9.81445C149.512-14.3066 148.34-19.5801 146.387-26.0254C143.408-36.0352 138.232-49.5117 133.057-60.4492C129.15-68.6035 127.295-71.7773 118.018-73.877C108.35-76.123 95.459-77.3438 80.957-77.3438C66.4551-77.3438 53.6133-76.123 43.9453-73.877C34.668-71.7773 32.8125-68.6035 28.9062-60.4492C23.7305-49.5117 18.5547-36.0352 15.5273-26.0254C13.623-19.5801 12.4512-14.3066 12.4512-9.81445C12.4512 0.341797 19.0918 7.08008 29.0039 7.08008ZM42.334-45.0684C42.334-46.1426 43.1152-46.9238 44.2383-46.9238L56.2988-46.9238L56.2988-59.4238C56.2988-60.5469 57.0312-61.3281 58.1055-61.3281C59.1797-61.3281 59.9121-60.5469 59.9121-59.4238L59.9121-46.9238L71.875-46.9238C73.0469-46.9238 73.8281-46.1426 73.8281-45.0684C73.8281-43.9941 73.0469-43.2617 71.875-43.2617L59.9121-43.2617L59.9121-30.7129C59.9121-29.5898 59.1797-28.8086 58.1055-28.8086C57.0312-28.8086 56.2988-29.5898 56.2988-30.7129L56.2988-43.2617L44.2383-43.2617C43.1152-43.2617 42.334-43.9941 42.334-45.0684ZM104.834-52.6367C104.834-56.1035 107.471-58.6914 110.889-58.6914C114.258-58.6914 116.943-56.1035 116.943-52.6367C116.943-49.2676 114.258-46.6309 110.889-46.6309C107.471-46.6309 104.834-49.2676 104.834-52.6367ZM89.3066-37.793C89.3066-41.2598 91.9922-43.8477 95.3613-43.8477C98.7305-43.8477 101.416-41.2598 101.416-37.793C101.416-34.375 98.7305-31.7871 95.3613-31.7871C91.9922-31.7871 89.3066-34.375 89.3066-37.793Z"/>
  </g>
  <g id="Ultralight-M" transform="matrix(1 0 0 1 479.316 1126)">
   <path d="M28.418 6.49414C33.2031 6.49414 38.0371 4.3457 41.7969-0.195312L51.2695-11.6699C52.7832-13.4766 54.1504-14.1602 55.957-14.1602L104.834-14.1602C106.641-14.1602 108.057-13.4766 109.521-11.6699L118.994-0.195312C122.754 4.3457 127.637 6.49414 132.373 6.49414C141.943 6.49414 148.34 0 148.34-9.81445C148.34-14.209 147.168-19.3359 145.215-25.8301C142.236-35.8887 137.061-49.3164 131.836-60.3516C128.027-68.3105 126.221-71.2402 117.285-73.291C107.471-75.5371 94.5801-76.709 80.4199-76.709C66.2109-76.709 53.3203-75.5371 43.5059-73.291C34.5703-71.2402 32.7637-68.3105 28.9551-60.3516C23.7305-49.3164 18.5547-35.8887 15.5762-25.8301C13.623-19.3359 12.4512-14.209 12.4512-9.81445C12.4512 0 18.8477 6.49414 28.418 6.49414ZM42.041-45.1172C42.041-45.752 42.5781-46.2891 43.3105-46.2891L56.3477-46.2891L56.3477-60.0098C56.3477-60.6934 56.8848-61.2305 57.5195-61.2305C58.2031-61.2305 58.7402-60.6934 58.7402-60.0098L58.7402-46.2891L71.7773-46.2891C72.5098-46.2891 73.0469-45.752 73.0469-45.1172C73.0469-44.4824 72.5098-43.8965 71.7773-43.8965L58.7402-43.8965L58.7402-30.2246C58.7402-29.541 58.2031-28.9551 57.5195-28.9551C56.8848-28.9551 56.3477-29.541 56.3477-30.2246L56.3477-43.8965L43.3105-43.8965C42.5781-43.8965 42.041-44.4824 42.041-45.1172ZM104.541-52.6367C104.541-55.957 107.08-58.3984 110.303-58.3984C113.525-58.3984 116.113-55.957 116.113-52.6367C116.113-49.4141 113.525-46.9238 110.303-46.9238C107.08-46.9238 104.541-49.4141 104.541-52.6367ZM88.6719-37.6953C88.6719-40.9668 91.2109-43.457 94.4824-43.457C97.7051-43.457 100.244-40.9668 100.244-37.6953C100.244-34.4727 97.7051-31.9824 94.4824-31.9824C91.2109-31.9824 88.6719-34.4727 88.6719-37.6953Z"/>
  </g>
  <g id="Black-S" transform="matrix(1 0 0 1 2863.82 696)">
   <path d="M26.5137 3.07617C34.2285 3.07617 39.502-0.0488281 43.8477-4.10156L50.0488-9.81445C50.9766-10.6445 51.2695-10.9863 52.6367-10.9863L86.5234-10.9863C87.8906-10.9863 88.1836-10.6445 89.1113-9.81445L95.3125-4.10156C99.707-0.0976562 104.932 3.07617 112.646 3.07617C122.021 3.07617 129.395-2.88086 129.395-13.8672C129.395-18.75 128.564-24.0234 126.904-29.541C124.463-37.6953 120.312-48.5352 116.455-56.6406C113.037-63.7695 110.596-68.457 100.83-70.6543C92.6758-72.5098 82.0312-73.5352 69.5801-73.5352C57.1289-73.5352 46.4844-72.5098 38.3301-70.6543C28.5645-68.457 26.123-63.7695 22.7051-56.6406C18.8477-48.5352 14.6973-37.6953 12.2559-29.541C10.5957-24.0234 9.76562-18.75 9.76562-13.8672C9.76562-2.88086 17.1387 3.07617 26.5137 3.07617ZM37.1582-41.6504C37.1582-44.4824 39.1113-46.3379 42.041-46.3379L46.4844-46.3379L46.4844-50.4395C46.4844-53.4668 48.4863-55.5176 51.4648-55.5176C54.4434-55.5176 56.4453-53.4668 56.4453-50.4395L56.4453-46.3379L60.5957-46.3379C63.7207-46.3379 65.7715-44.4824 65.7715-41.6504C65.7715-38.8184 63.7207-36.9629 60.5957-36.9629L56.4453-36.9629L56.4453-32.8613C56.4453-29.834 54.4434-27.7832 51.4648-27.7832C48.4863-27.7832 46.4844-29.834 46.4844-32.8613L46.4844-36.9629L42.041-36.9629C39.1113-36.9629 37.1582-38.8184 37.1582-41.6504ZM87.5977-47.7539C87.5977-51.3672 90.4297-54.1504 93.9941-54.1504C97.6074-54.1504 100.391-51.3672 100.391-47.7539C100.391-44.1406 97.6074-41.4062 93.9941-41.4062C90.4297-41.4062 87.5977-44.1406 87.5977-47.7539ZM75.6836-35.498C75.6836-39.1113 78.5156-41.8945 82.0801-41.8945C85.6934-41.8945 88.4766-39.1113 88.4766-35.498C88.4766-31.9336 85.6934-29.1504 82.0801-29.1504C78.5156-29.1504 75.6836-31.9336 75.6836-35.498Z"/>
  </g>
  <g id="Heavy-S" transform="matrix(1 0 0 1 2568.09 696)">
   <path d="M26.123 2.29492C33.3008 2.29492 38.1836-0.537109 42.2852-4.58984L48.6328-10.8887C49.5605-11.8164 50.0488-12.207 51.3672-12.207L85.8398-12.207C87.1582-12.207 87.6465-11.8164 88.5742-10.8887L94.9219-4.58984C99.0723-0.585938 103.857 2.29492 111.084 2.29492C120.361 2.29492 127.441-3.66211 127.441-14.209C127.441-18.8477 126.562-23.9258 124.951-29.3457C122.559-37.4023 118.408-48.1934 114.551-56.3477C111.133-63.4277 108.887-67.7734 99.4629-69.9219C91.5527-71.7285 81.0547-72.7539 68.6035-72.7539C56.1523-72.7539 45.6543-71.7285 37.7441-69.9219C28.3203-67.7734 26.0254-63.4277 22.6562-56.3477C18.7988-48.1934 14.6484-37.4023 12.207-29.3457C10.5957-23.9258 9.76562-18.8477 9.76562-14.209C9.76562-3.66211 16.7969 2.29492 26.123 2.29492ZM36.4746-41.9434C36.4746-44.6289 38.2812-46.3867 41.0645-46.3867L45.8984-46.3867L45.8984-50.8789C45.8984-53.7109 47.7539-55.6152 50.5371-55.6152C53.3203-55.6152 55.127-53.7109 55.127-50.8789L55.127-46.3867L59.668-46.3867C62.6465-46.3867 64.5508-44.6289 64.5508-41.9434C64.5508-39.2578 62.6465-37.5 59.668-37.5L55.127-37.5L55.127-32.959C55.127-30.127 53.3203-28.2227 50.5371-28.2227C47.7539-28.2227 45.8984-30.127 45.8984-32.959L45.8984-37.5L41.0645-37.5C38.2812-37.5 36.4746-39.2578 36.4746-41.9434ZM86.5234-47.998C86.5234-51.5625 89.3066-54.248 92.7734-54.248C96.2891-54.248 98.9746-51.5625 98.9746-47.998C98.9746-44.4824 96.2891-41.8457 92.7734-41.8457C89.3066-41.8457 86.5234-44.4824 86.5234-47.998ZM74.8535-35.9863C74.8535-39.502 77.5879-42.2363 81.0547-42.2363C84.5703-42.2363 87.3047-39.502 87.3047-35.9863C87.3047-32.5195 84.5703-29.7852 81.0547-29.7852C77.5879-29.7852 74.8535-32.5195 74.8535-35.9863Z"/>
  </g>
  <g id="Bold-S" transform="matrix(1 0 0 1 2272.5 696)">
   <path d="M25.6348 1.46484C32.2754 1.46484 36.6699-1.07422 40.5273-5.12695L47.0215-12.1094C47.9492-13.0859 48.6816-13.5742 49.9023-13.5742L85.0586-13.5742C86.2793-13.5742 87.0117-13.0859 87.9395-12.1094L94.4824-5.12695C98.3398-1.12305 102.686 1.46484 109.326 1.46484C118.506 1.46484 125.195-4.49219 125.195-14.5996C125.195-18.9941 124.365-23.877 122.803-29.1016C120.41-37.0605 116.26-47.8516 112.402-55.957C109.033-63.0371 106.934-67.041 97.9004-69.0918C90.2344-70.8496 79.9316-71.9238 67.4805-71.9238C55.0293-71.9238 44.7266-70.8496 37.1094-69.0918C28.0273-67.041 25.9277-63.0371 22.5586-55.957C18.7012-47.8516 14.5996-37.0605 12.207-29.1016C10.6445-23.877 9.76562-18.9941 9.76562-14.5996C9.76562-4.49219 16.4551 1.46484 25.6348 1.46484ZM35.6934-42.2852C35.6934-44.7754 37.3535-46.3867 39.9414-46.3867L45.2637-46.3867L45.2637-51.3672C45.2637-54.0039 46.9238-55.7129 49.5117-55.7129C52.0508-55.7129 53.7109-54.0039 53.7109-51.3672L53.7109-46.3867L58.6426-46.3867C61.4258-46.3867 63.1836-44.7754 63.1836-42.2852C63.1836-39.6973 61.4258-38.0859 58.6426-38.0859L53.7109-38.0859L53.7109-33.1055C53.7109-30.4688 52.0508-28.7598 49.5117-28.7598C46.9238-28.7598 45.2637-30.4688 45.2637-33.1055L45.2637-38.0859L39.9414-38.0859C37.3535-38.0859 35.6934-39.6973 35.6934-42.2852ZM85.3516-48.3398C85.3516-51.7578 88.0371-54.3945 91.4062-54.3945C94.8242-54.3945 97.4609-51.7578 97.4609-48.3398C97.4609-44.873 94.8242-42.2852 91.4062-42.2852C88.0371-42.2852 85.3516-44.873 85.3516-48.3398ZM73.877-36.5723C73.877-39.9902 76.5625-42.627 79.9316-42.627C83.3496-42.627 85.9863-39.9902 85.9863-36.5723C85.9863-33.1543 83.3496-30.5176 79.9316-30.5176C76.5625-30.5176 73.877-33.1543 73.877-36.5723Z"/>
  </g>
  <g id="Semibold-S" transform="matrix(1 0 0 1 1976.54 696)">
   <path d="M25.3418 0.878906C31.5918 0.878906 35.6445-1.46484 39.3066-5.51758L45.8984-12.9883C46.8262-14.0137 47.7539-14.502 48.9258-14.502L84.5215-14.502C85.6934-14.502 86.6211-14.0137 87.5488-12.9883L94.1895-5.51758C97.8027-1.46484 101.904 0.878906 108.154 0.878906C117.236 0.878906 123.682-5.07812 123.682-14.8438C123.682-19.043 122.803-23.7793 121.289-28.9062C118.896-36.8164 114.795-47.5586 110.938-55.7129C107.568-62.793 105.615-66.5527 96.8262-68.5059C89.3555-70.2148 79.1992-71.3379 66.748-71.3379C54.248-71.3379 44.0918-70.2148 36.6211-68.5059C27.832-66.5527 25.8789-62.793 22.5098-55.7129C18.6523-47.5586 14.5508-36.8164 12.1582-28.9062C10.6445-23.7793 9.76562-19.043 9.76562-14.8438C9.76562-5.07812 16.2109 0.878906 25.3418 0.878906ZM35.1562-42.4805C35.1562-44.873 36.7188-46.3867 39.209-46.3867L44.8242-46.3867L44.8242-51.709C44.8242-54.1992 46.3379-55.7617 48.7793-55.7617C51.1719-55.7617 52.6855-54.1992 52.6855-51.709L52.6855-46.3867L57.9102-46.3867C60.5957-46.3867 62.207-44.873 62.207-42.4805C62.207-40.0391 60.5957-38.4766 57.9102-38.4766L52.6855-38.4766L52.6855-33.2031C52.6855-30.6641 51.1719-29.1016 48.7793-29.1016C46.3379-29.1016 44.8242-30.6641 44.8242-33.2031L44.8242-38.4766L39.209-38.4766C36.7188-38.4766 35.1562-40.0391 35.1562-42.4805ZM84.5215-48.5352C84.5215-51.8555 87.1582-54.4922 90.4297-54.4922C93.7988-54.4922 96.3867-51.8555 96.3867-48.5352C96.3867-45.166 93.7988-42.627 90.4297-42.627C87.1582-42.627 84.5215-45.166 84.5215-48.5352ZM73.2422-36.9629C73.2422-40.2832 75.8301-42.9199 79.1504-42.9199C82.5195-42.9199 85.0586-40.2832 85.0586-36.9629C85.0586-33.5938 82.5195-31.0547 79.1504-31.0547C75.8301-31.0547 73.2422-33.5938 73.2422-36.9629Z"/>
  </g>
  <g id="Medium-S" transform="matrix(1 0 0 1 1680.42 696)">
   <path d="M25.0977 0.439453C31.0547 0.439453 34.8633-1.75781 38.3789-5.76172L45.0684-13.623C45.9961-14.6973 47.0215-15.2344 48.1445-15.2344L84.1309-15.2344C85.2539-15.2344 86.2793-14.6973 87.207-13.623L93.9453-5.76172C97.4121-1.75781 101.27 0.439453 107.227 0.439453C116.309 0.439453 122.51-5.51758 122.51-15.0879C122.51-19.1406 121.68-23.7305 120.166-28.8086C117.773-36.6699 113.672-47.3633 109.814-55.5664C106.445-62.5977 104.59-66.1621 95.9961-68.1152C88.7207-69.7754 78.6133-70.8984 66.1621-70.8984C53.6621-70.8984 43.6035-69.7754 36.2793-68.1152C27.6855-66.1621 25.8301-62.5977 22.4609-55.5664C18.6035-47.3633 14.502-36.6699 12.1582-28.8086C10.6445-23.7305 9.76562-19.1406 9.76562-15.0879C9.76562-5.51758 16.0156 0.439453 25.0977 0.439453ZM34.7656-42.6758C34.7656-44.9707 36.2305-46.4355 38.623-46.4355L44.4824-46.4355L44.4824-51.9531C44.4824-54.3457 45.8984-55.8105 48.2422-55.8105C50.5371-55.8105 51.9531-54.3457 51.9531-51.9531L51.9531-46.4355L57.373-46.4355C59.9609-46.4355 61.4746-44.9707 61.4746-42.6758C61.4746-40.2832 59.9609-38.8184 57.373-38.8184L51.9531-38.8184L51.9531-33.252C51.9531-30.8594 50.5371-29.3945 48.2422-29.3945C45.8984-29.3945 44.4824-30.8594 44.4824-33.252L44.4824-38.8184L38.623-38.8184C36.2305-38.8184 34.7656-40.2832 34.7656-42.6758ZM83.8867-48.6816C83.8867-52.002 86.4746-54.541 89.7461-54.541C93.0176-54.541 95.5566-52.002 95.5566-48.6816C95.5566-45.3613 93.0176-42.8711 89.7461-42.8711C86.4746-42.8711 83.8867-45.3613 83.8867-48.6816ZM72.7051-37.2559C72.7051-40.5273 75.293-43.1152 78.5645-43.1152C81.8359-43.1152 84.375-40.5273 84.375-37.2559C84.375-33.9355 81.8359-31.4453 78.5645-31.4453C75.293-31.4453 72.7051-33.9355 72.7051-37.2559Z"/>
  </g>
  <g id="Regular-S" transform="matrix(1 0 0 1 1384.44 696)">
   <path d="M24.7559-0.146484C30.3223-0.146484 33.8379-2.09961 37.1582-6.15234L43.9941-14.4531C44.9219-15.5762 46.0938-16.1621 47.168-16.1621L83.5938-16.1621C84.7168-16.1621 85.8887-15.5762 86.8164-14.4531L93.6523-6.15234C96.9238-2.09961 100.439-0.146484 106.006-0.146484C115.039-0.146484 121.045-6.10352 121.045-15.332C121.045-19.1895 120.166-23.6816 118.701-28.6133C116.357-36.4258 112.256-47.1191 108.35-55.3223C105.029-62.3535 103.271-65.6738 94.9707-67.5293C87.8418-69.1406 77.8809-70.3125 65.3809-70.3125C52.9297-70.3125 42.9688-69.1406 35.8398-67.5293C27.5391-65.6738 25.7812-62.3535 22.4121-55.3223C18.5547-47.1191 14.4531-36.4258 12.1094-28.6133C10.6445-23.6816 9.76562-19.1895 9.76562-15.332C9.76562-6.10352 15.7715-0.146484 24.7559-0.146484ZM34.2773-42.8711C34.2773-45.0684 35.5957-46.4355 37.8906-46.4355L44.043-46.4355L44.043-52.2949C44.043-54.541 45.3125-55.9082 47.5098-55.9082C49.6582-55.9082 50.9277-54.541 50.9277-52.2949L50.9277-46.4355L56.6895-46.4355C59.1309-46.4355 60.5469-45.0684 60.5469-42.8711C60.5469-40.5762 59.1309-39.209 56.6895-39.209L50.9277-39.209L50.9277-33.3496C50.9277-31.1035 49.6582-29.7363 47.5098-29.7363C45.3125-29.7363 44.043-31.1035 44.043-33.3496L44.043-39.209L37.8906-39.209C35.5957-39.209 34.2773-40.5762 34.2773-42.8711ZM83.1055-48.877C83.1055-52.0996 85.5957-54.6387 88.7695-54.6387C92.041-54.6387 94.4824-52.0996 94.4824-48.877C94.4824-45.6543 92.041-43.1641 88.7695-43.1641C85.5957-43.1641 83.1055-45.6543 83.1055-48.877ZM72.0703-37.5977C72.0703-40.8691 74.6094-43.3594 77.7832-43.3594C81.0059-43.3594 83.4473-40.8691 83.4473-37.5977C83.4473-34.375 81.0059-31.9336 77.7832-31.9336C74.6094-31.9336 72.0703-34.375 72.0703-37.5977Z"/>
  </g>
  <g id="Light-S" transform="matrix(1 0 0 1 1088.48 696)">
   <path d="M23.9746-0.878906C29.0039-0.878906 32.6172-2.7832 35.791-6.64062L42.7734-15.1855C43.7988-16.4062 44.9219-16.9434 46.1426-16.9434L83.1543-16.9434C84.375-16.9434 85.498-16.4062 86.5234-15.1855L93.5059-6.64062C96.6797-2.7832 100.293-0.878906 105.322-0.878906C113.818-0.878906 119.531-6.5918 119.531-15.332C119.531-19.043 118.652-23.3887 117.139-28.3691C114.795-36.2305 110.742-46.875 106.787-55.1758C103.564-61.9629 101.904-64.9414 93.9941-66.748C86.7188-68.4082 76.709-69.5312 64.6484-69.5312C52.5879-69.5312 42.5781-68.4082 35.3027-66.748C27.3926-64.9414 25.7324-61.9629 22.5098-55.1758C18.5547-46.875 14.502-36.2305 12.1582-28.3691C10.6445-23.3887 9.76562-19.043 9.76562-15.332C9.76562-6.5918 15.4785-0.878906 23.9746-0.878906ZM33.8379-42.9199C33.8379-44.5801 34.8633-45.6543 36.6211-45.6543L44.0918-45.6543L44.0918-53.0273C44.0918-54.7363 45.0684-55.8105 46.7773-55.8105C48.3887-55.8105 49.4141-54.7363 49.4141-53.0273L49.4141-45.6543L56.543-45.6543C58.3984-45.6543 59.5215-44.5801 59.5215-42.9199C59.5215-41.1621 58.3984-40.0879 56.543-40.0879L49.4141-40.0879L49.4141-32.7148C49.4141-31.0059 48.3887-29.9316 46.7773-29.9316C45.0684-29.9316 44.0918-31.0059 44.0918-32.7148L44.0918-40.0879L36.6211-40.0879C34.8633-40.0879 33.8379-41.1621 33.8379-42.9199ZM82.7148-48.877C82.7148-51.9043 85.0586-54.248 88.0371-54.248C91.0645-54.248 93.4082-51.9043 93.4082-48.877C93.4082-45.8496 91.0645-43.5547 88.0371-43.5547C85.0586-43.5547 82.7148-45.8496 82.7148-48.877ZM71.2891-37.4512C71.2891-40.5273 73.6328-42.8223 76.6113-42.8223C79.5898-42.8223 81.9336-40.5273 81.9336-37.4512C81.9336-34.4727 79.5898-32.1777 76.6113-32.1777C73.6328-32.1777 71.2891-34.4727 71.2891-37.4512Z"/>
  </g>
  <g id="Thin-S" transform="matrix(1 0 0 1 792.75 696)">
   <path d="M22.9492-1.85547C27.1973-1.85547 30.957-3.66211 33.9844-7.32422L41.2109-16.1133C42.334-17.4805 43.457-18.0176 44.7754-18.0176L82.5684-18.0176C83.8867-18.0176 85.0098-17.4805 86.084-16.1133L93.3594-7.32422C96.3867-3.66211 100.146-1.85547 104.346-1.85547C112.256-1.85547 117.578-7.22656 117.578-15.332C117.578-18.8965 116.65-23.0469 115.137-28.0762C112.793-35.9375 108.74-46.5332 104.688-55.0293C101.611-61.4746 100.098-64.0625 92.7246-65.7227C85.2051-67.4805 75.1465-68.457 63.6719-68.457C52.1973-68.457 42.0898-67.4805 34.5703-65.7227C27.1973-64.0625 25.7324-61.4746 22.6074-55.0293C18.6035-46.5332 14.502-35.9375 12.1582-28.0762C10.6934-23.0469 9.76562-18.8965 9.76562-15.332C9.76562-7.22656 15.0391-1.85547 22.9492-1.85547ZM33.3008-42.9199C33.3008-43.9453 33.9844-44.6289 35.0098-44.6289L44.0918-44.6289L44.0918-53.9551C44.0918-54.9805 44.7754-55.7129 45.752-55.7129C46.7285-55.7129 47.3633-54.9805 47.3633-53.9551L47.3633-44.6289L56.3477-44.6289C57.4707-44.6289 58.1543-43.9453 58.1543-42.9199C58.1543-41.9434 57.4707-41.2598 56.3477-41.2598L47.3633-41.2598L47.3633-31.8848C47.3633-30.8594 46.7285-30.1758 45.752-30.1758C44.7754-30.1758 44.0918-30.8594 44.0918-31.8848L44.0918-41.2598L35.0098-41.2598C33.9844-41.2598 33.3008-41.9434 33.3008-42.9199ZM82.2266-48.877C82.2266-51.6602 84.375-53.7598 87.1094-53.7598C89.7949-53.7598 91.9434-51.6602 91.9434-48.877C91.9434-46.1426 89.7949-44.043 87.1094-44.043C84.375-44.043 82.2266-46.1426 82.2266-48.877ZM70.2148-37.3047C70.2148-40.0391 72.3633-42.1387 75.0488-42.1387C77.7832-42.1387 79.8828-40.0391 79.8828-37.3047C79.8828-34.5703 77.7832-32.4707 75.0488-32.4707C72.3633-32.4707 70.2148-34.5703 70.2148-37.3047Z"/>
  </g>
  <g id="Ultralight-S" transform="matrix(1 0 0 1 496.552 696)">
   <path d="M22.4121-2.39258C26.2695-2.39258 30.0781-4.10156 33.0078-7.66602L40.4297-16.6504C41.6016-18.0176 42.6758-18.5547 44.043-18.5547L82.2266-18.5547C83.6426-18.5547 84.7168-18.0176 85.8887-16.6504L93.2617-7.66602C96.2402-4.10156 100-2.39258 103.857-2.39258C111.475-2.39258 116.553-7.51953 116.553-15.332C116.553-18.75 115.625-22.8516 114.111-27.9297C111.768-35.791 107.715-46.3379 103.613-54.9316C100.635-61.2305 99.1699-63.5742 92.0898-65.1855C84.4727-66.9434 74.3652-67.9199 63.1348-67.9199C51.9531-67.9199 41.8457-66.9434 34.2285-65.1855C27.0996-63.5742 25.6836-61.2305 22.7051-54.9316C18.6035-46.3379 14.5508-35.791 12.207-27.9297C10.6934-22.8516 9.76562-18.75 9.76562-15.332C9.76562-7.51953 14.8438-2.39258 22.4121-2.39258ZM33.0078-42.9688C33.0078-43.6035 33.4961-44.0918 34.1797-44.0918L44.1406-44.0918L44.1406-54.4922C44.1406-55.127 44.6289-55.6152 45.2148-55.6152C45.8496-55.6152 46.3379-55.127 46.3379-54.4922L46.3379-44.0918L56.25-44.0918C56.9336-44.0918 57.4219-43.6035 57.4219-42.9688C57.4219-42.334 56.9336-41.8457 56.25-41.8457L46.3379-41.8457L46.3379-31.4453C46.3379-30.7617 45.8496-30.2734 45.2148-30.2734C44.6289-30.2734 44.1406-30.7617 44.1406-31.4453L44.1406-41.8457L34.1797-41.8457C33.4961-41.8457 33.0078-42.334 33.0078-42.9688ZM81.9824-48.877C81.9824-51.5137 84.0332-53.4668 86.5723-53.4668C89.1602-53.4668 91.2109-51.5137 91.2109-48.877C91.2109-46.2891 89.1602-44.3359 86.5723-44.3359C84.0332-44.3359 81.9824-46.2891 81.9824-48.877ZM69.6777-37.1582C69.6777-39.7949 71.6797-41.7969 74.2676-41.7969C76.8066-41.7969 78.8574-39.7949 78.8574-37.1582C78.8574-34.6191 76.8066-32.6172 74.2676-32.6172C71.6797-32.6172 69.6777-34.6191 69.6777-37.1582Z"/>
  </g>
 </g>
</svg>
