<?xml version="1.0" encoding="UTF-8"?>
<!--Generator: Apple Native CoreSVG 175-->
<!DOCTYPE svg
PUBLIC "-//W3C//DTD SVG 1.1//EN"
       "http://www.w3.org/Graphics/SVG/1.1/DTD/svg11.dtd">
<svg version="1.1" xmlns="http://www.w3.org/2000/svg" xmlns:xlink="http://www.w3.org/1999/xlink" width="3300" height="2200">
 <!--glyph: "uni1004BF.medium", point size: 100.0, font version: "17.0d12e1", template writer version: "65.1"-->
 <g id="Notes">
  <rect height="2200" id="artboard" style="fill:white;opacity:1" width="3300" x="0" y="0"/>
  <line style="fill:none;stroke:black;opacity:1;stroke-width:0.5;" x1="263" x2="3036" y1="292" y2="292"/>
  <text style="stroke:none;fill:black;font-family:sans-serif;font-size:13;font-weight:bold;" transform="matrix(1 0 0 1 263 322)">Weight/Scale Variations</text>
  <text style="stroke:none;fill:black;font-family:sans-serif;font-size:13;text-anchor:middle;" transform="matrix(1 0 0 1 559.711 322)">Ultralight</text>
  <text style="stroke:none;fill:black;font-family:sans-serif;font-size:13;text-anchor:middle;" transform="matrix(1 0 0 1 856.422 322)">Thin</text>
  <text style="stroke:none;fill:black;font-family:sans-serif;font-size:13;text-anchor:middle;" transform="matrix(1 0 0 1 1153.13 322)">Light</text>
  <text style="stroke:none;fill:black;font-family:sans-serif;font-size:13;text-anchor:middle;" transform="matrix(1 0 0 1 1449.84 322)">Regular</text>
  <text style="stroke:none;fill:black;font-family:sans-serif;font-size:13;text-anchor:middle;" transform="matrix(1 0 0 1 1746.56 322)">Medium</text>
  <text style="stroke:none;fill:black;font-family:sans-serif;font-size:13;text-anchor:middle;" transform="matrix(1 0 0 1 2043.27 322)">Semibold</text>
  <text style="stroke:none;fill:black;font-family:sans-serif;font-size:13;text-anchor:middle;" transform="matrix(1 0 0 1 2339.98 322)">Bold</text>
  <text style="stroke:none;fill:black;font-family:sans-serif;font-size:13;text-anchor:middle;" transform="matrix(1 0 0 1 2636.69 322)">Heavy</text>
  <text style="stroke:none;fill:black;font-family:sans-serif;font-size:13;text-anchor:middle;" transform="matrix(1 0 0 1 2933.4 322)">Black</text>
  <line style="fill:none;stroke:black;opacity:1;stroke-width:0.5;" x1="263" x2="3036" y1="1903" y2="1903"/>
  <g transform="matrix(1 0 0 1 263 1933)">
   <path d="M9.24805 0.830078Q10.8691 0.830078 12.2949 0.214844Q13.7207-0.400391 14.8096-1.49414Q15.8984-2.58789 16.5186-4.01367Q17.1387-5.43945 17.1387-7.05078Q17.1387-8.66211 16.5186-10.0879Q15.8984-11.5137 14.8047-12.6074Q13.7109-13.7012 12.2852-14.3164Q10.8594-14.9316 9.23828-14.9316Q7.62695-14.9316 6.20117-14.3164Q4.77539-13.7012 3.69141-12.6074Q2.60742-11.5137 1.9873-10.0879Q1.36719-8.66211 1.36719-7.05078Q1.36719-5.43945 1.9873-4.01367Q2.60742-2.58789 3.69629-1.49414Q4.78516-0.400391 6.21094 0.214844Q7.63672 0.830078 9.24805 0.830078ZM9.24805-0.654297Q7.91992-0.654297 6.7627-1.14746Q5.60547-1.64062 4.73145-2.51953Q3.85742-3.39844 3.36426-4.56055Q2.87109-5.72266 2.87109-7.05078Q2.87109-8.37891 3.35938-9.54102Q3.84766-10.7031 4.72168-11.582Q5.5957-12.4609 6.75293-12.9541Q7.91016-13.4473 9.23828-13.4473Q10.5762-13.4473 11.7334-12.9541Q12.8906-12.4609 13.7695-11.582Q14.6484-10.7031 15.1465-9.54102Q15.6445-8.37891 15.6445-7.05078Q15.6445-5.72266 15.1514-4.56055Q14.6582-3.39844 13.7842-2.51953Q12.9102-1.64062 11.748-1.14746Q10.5859-0.654297 9.24805-0.654297ZM5.6543-7.05078Q5.6543-6.72852 5.85938-6.52832Q6.06445-6.32812 6.40625-6.32812L8.51562-6.32812L8.51562-4.20898Q8.51562-3.88672 8.71094-3.67676Q8.90625-3.4668 9.23828-3.4668Q9.56055-3.4668 9.77051-3.67676Q9.98047-3.88672 9.98047-4.20898L9.98047-6.32812L12.0898-6.32812Q12.4219-6.32812 12.627-6.52832Q12.832-6.72852 12.832-7.05078Q12.832-7.38281 12.627-7.58789Q12.4219-7.79297 12.0898-7.79297L9.98047-7.79297L9.98047-9.90234Q9.98047-10.2344 9.77051-10.4443Q9.56055-10.6543 9.23828-10.6543Q8.90625-10.6543 8.71094-10.4443Q8.51562-10.2344 8.51562-9.90234L8.51562-7.79297L6.40625-7.79297Q6.06445-7.79297 5.85938-7.58789Q5.6543-7.38281 5.6543-7.05078Z"/>
  </g>
  <g transform="matrix(1 0 0 1 281.867 1933)">
   <path d="M11.709 2.91016Q13.75 2.91016 15.5518 2.12891Q17.3535 1.34766 18.7305-0.0292969Q20.1074-1.40625 20.8887-3.20801Q21.6699-5.00977 21.6699-7.05078Q21.6699-9.0918 20.8887-10.8936Q20.1074-12.6953 18.7305-14.0723Q17.3535-15.4492 15.5469-16.2305Q13.7402-17.0117 11.6992-17.0117Q9.6582-17.0117 7.85645-16.2305Q6.05469-15.4492 4.68262-14.0723Q3.31055-12.6953 2.5293-10.8936Q1.74805-9.0918 1.74805-7.05078Q1.74805-5.00977 2.5293-3.20801Q3.31055-1.40625 4.6875-0.0292969Q6.06445 1.34766 7.86621 2.12891Q9.66797 2.91016 11.709 2.91016ZM11.709 1.25Q9.98047 1.25 8.47656 0.605469Q6.97266-0.0390625 5.83496-1.17676Q4.69727-2.31445 4.05762-3.81836Q3.41797-5.32227 3.41797-7.05078Q3.41797-8.7793 4.05762-10.2832Q4.69727-11.7871 5.83008-12.9297Q6.96289-14.0723 8.4668-14.7119Q9.9707-15.3516 11.6992-15.3516Q13.4277-15.3516 14.9316-14.7119Q16.4355-14.0723 17.5781-12.9297Q18.7207-11.7871 19.3652-10.2832Q20.0098-8.7793 20.0098-7.05078Q20.0098-5.32227 19.3701-3.81836Q18.7305-2.31445 17.5928-1.17676Q16.4551-0.0390625 14.9463 0.605469Q13.4375 1.25 11.709 1.25ZM7.17773-7.05078Q7.17773-6.69922 7.41211-6.47461Q7.64648-6.25 8.01758-6.25L10.8887-6.25L10.8887-3.36914Q10.8887-2.99805 11.1133-2.76855Q11.3379-2.53906 11.6895-2.53906Q12.0605-2.53906 12.29-2.76855Q12.5195-2.99805 12.5195-3.36914L12.5195-6.25L15.4004-6.25Q15.7715-6.25 16.001-6.47461Q16.2305-6.69922 16.2305-7.05078Q16.2305-7.42188 16.001-7.65137Q15.7715-7.88086 15.4004-7.88086L12.5195-7.88086L12.5195-10.752Q12.5195-11.1328 12.29-11.3623Q12.0605-11.5918 11.6895-11.5918Q11.3379-11.5918 11.1133-11.3574Q10.8887-11.123 10.8887-10.752L10.8887-7.88086L8.01758-7.88086Q7.63672-7.88086 7.40723-7.65137Q7.17773-7.42188 7.17773-7.05078Z"/>
  </g>
  <g transform="matrix(1 0 0 1 305.646 1933)">
   <path d="M14.9707 5.66406Q17.0605 5.66406 18.96 5.01465Q20.8594 4.36523 22.4512 3.19336Q24.043 2.02148 25.2197 0.429688Q26.3965-1.16211 27.0459-3.06641Q27.6953-4.9707 27.6953-7.05078Q27.6953-9.14062 27.0459-11.04Q26.3965-12.9395 25.2197-14.5312Q24.043-16.123 22.4512-17.2998Q20.8594-18.4766 18.9551-19.126Q17.0508-19.7754 14.9609-19.7754Q12.8711-19.7754 10.9717-19.126Q9.07227-18.4766 7.48535-17.2998Q5.89844-16.123 4.72168-14.5312Q3.54492-12.9395 2.90039-11.04Q2.25586-9.14062 2.25586-7.05078Q2.25586-4.9707 2.90527-3.06641Q3.55469-1.16211 4.72656 0.429688Q5.89844 2.02148 7.49023 3.19336Q9.08203 4.36523 10.9814 5.01465Q12.8809 5.66406 14.9707 5.66406ZM14.9707 3.84766Q13.1641 3.84766 11.5283 3.2959Q9.89258 2.74414 8.53516 1.74805Q7.17773 0.751953 6.17676-0.610352Q5.17578-1.97266 4.62891-3.6084Q4.08203-5.24414 4.08203-7.05078Q4.08203-8.86719 4.62891-10.5029Q5.17578-12.1387 6.17188-13.501Q7.16797-14.8633 8.52539-15.8594Q9.88281-16.8555 11.5186-17.4023Q13.1543-17.9492 14.9609-17.9492Q16.7773-17.9492 18.4131-17.4023Q20.0488-16.8555 21.4111-15.8594Q22.7734-14.8633 23.7695-13.501Q24.7656-12.1387 25.3174-10.5029Q25.8691-8.86719 25.8691-7.05078Q25.8789-5.24414 25.332-3.6084Q24.7852-1.97266 23.7842-0.610352Q22.7832 0.751953 21.4209 1.74805Q20.0586 2.74414 18.4229 3.2959Q16.7871 3.84766 14.9707 3.84766ZM9.19922-7.05078Q9.19922-6.66992 9.45801-6.4209Q9.7168-6.17188 10.1172-6.17188L14.0625-6.17188L14.0625-2.2168Q14.0625-1.81641 14.3115-1.55762Q14.5605-1.29883 14.9512-1.29883Q15.3516-1.29883 15.6104-1.55273Q15.8691-1.80664 15.8691-2.2168L15.8691-6.17188L19.8242-6.17188Q20.2246-6.17188 20.4785-6.4209Q20.7324-6.66992 20.7324-7.05078Q20.7324-7.46094 20.4785-7.71484Q20.2246-7.96875 19.8242-7.96875L15.8691-7.96875L15.8691-11.9141Q15.8691-12.3242 15.6104-12.583Q15.3516-12.8418 14.9512-12.8418Q14.5605-12.8418 14.3115-12.583Q14.0625-12.3242 14.0625-11.9141L14.0625-7.96875L10.1172-7.96875Q9.70703-7.96875 9.45312-7.71484Q9.19922-7.46094 9.19922-7.05078Z"/>
  </g>
  <text style="stroke:none;fill:black;font-family:sans-serif;font-size:13;font-weight:bold;" transform="matrix(1 0 0 1 263 1953)">Design Variations</text>
  <text style="stroke:none;fill:black;font-family:sans-serif;font-size:13;" transform="matrix(1 0 0 1 263 1971)">Symbols are supported in up to nine weights and three scales.</text>
  <text style="stroke:none;fill:black;font-family:sans-serif;font-size:13;" transform="matrix(1 0 0 1 263 1989)">For optimal layout with text and other symbols, vertically align</text>
  <text style="stroke:none;fill:black;font-family:sans-serif;font-size:13;" transform="matrix(1 0 0 1 263 2007)">symbols with the adjacent text.</text>
  <line style="fill:none;stroke:#00AEEF;stroke-width:0.5;opacity:1.0;" x1="776" x2="776" y1="1919" y2="1933"/>
  <g transform="matrix(1 0 0 1 776 1933)">
   <path d="M3.31055 0.15625Q3.70117 0.15625 3.91602-0.00976562Q4.13086-0.175781 4.26758-0.585938L5.52734-4.0332L11.2891-4.0332L12.5488-0.585938Q12.6855-0.175781 12.9004-0.00976562Q13.1152 0.15625 13.4961 0.15625Q13.8867 0.15625 14.1162-0.0585938Q14.3457-0.273438 14.3457-0.644531Q14.3457-0.869141 14.2383-1.17188L9.6582-13.3691Q9.48242-13.8184 9.17969-14.043Q8.87695-14.2676 8.4082-14.2676Q7.5-14.2676 7.17773-13.3789L2.59766-1.16211Q2.49023-0.859375 2.49023-0.634766Q2.49023-0.263672 2.70996-0.0537109Q2.92969 0.15625 3.31055 0.15625ZM6.00586-5.51758L8.37891-12.0898L8.42773-12.0898L10.8008-5.51758Z"/>
  </g>
  <line style="fill:none;stroke:#00AEEF;stroke-width:0.5;opacity:1.0;" x1="793.197" x2="793.197" y1="1919" y2="1933"/>
  <text style="stroke:none;fill:black;font-family:sans-serif;font-size:13;font-weight:bold;" transform="matrix(1 0 0 1 776 1953)">Margins</text>
  <text style="stroke:none;fill:black;font-family:sans-serif;font-size:13;" transform="matrix(1 0 0 1 776 1971)">Leading and trailing margins on the left and right side of each symbol</text>
  <text style="stroke:none;fill:black;font-family:sans-serif;font-size:13;" transform="matrix(1 0 0 1 776 1989)">can be adjusted by modifying the x-location of the margin guidelines.</text>
  <text style="stroke:none;fill:black;font-family:sans-serif;font-size:13;" transform="matrix(1 0 0 1 776 2007)">Modifications are automatically applied proportionally to all</text>
  <text style="stroke:none;fill:black;font-family:sans-serif;font-size:13;" transform="matrix(1 0 0 1 776 2025)">scales and weights.</text>
  <g transform="matrix(1 0 0 1 1289 1933)">
   <path d="M2.8418 1.86523L4.54102 3.57422Q5.18555 4.22852 5.90332 4.17969Q6.62109 4.13086 7.31445 3.35938L18.0078-8.42773L17.041-9.4043L6.42578 2.27539Q6.16211 2.57812 5.89355 2.61719Q5.625 2.65625 5.27344 2.30469L4.10156 1.14258Q3.75 0.791016 3.79395 0.522461Q3.83789 0.253906 4.14062-0.0195312L15.6152-10.8203L14.6387-11.7871L3.04688-0.898438Q2.30469-0.214844 2.25098 0.498047Q2.19727 1.21094 2.8418 1.86523ZM9.25781-16.3281Q8.94531-16.0254 8.90625-15.6348Q8.86719-15.2441 9.04297-14.9512Q9.21875-14.6777 9.55566-14.541Q9.89258-14.4043 10.3809-14.5215Q11.4746-14.7754 12.5977-14.7314Q13.7207-14.6875 14.7949-13.9844L14.209-12.5293Q13.9551-11.9043 14.0674-11.4404Q14.1797-10.9766 14.5801-10.5664L16.875-8.25195Q17.2363-7.88086 17.5781-7.82227Q17.9199-7.76367 18.3398-7.8418L19.4043-8.03711L20.0684-7.36328L20.0293-6.80664Q20-6.43555 20.1221-6.12305Q20.2441-5.81055 20.6055-5.44922L21.3672-4.70703Q21.7285-4.3457 22.1533-4.33105Q22.5781-4.31641 22.9297-4.66797L25.8398-7.58789Q26.1914-7.93945 26.1816-8.35449Q26.1719-8.76953 25.8105-9.13086L25.0391-9.89258Q24.6875-10.2539 24.3799-10.3857Q24.0723-10.5176 23.7109-10.4883L23.1348-10.4395L22.4902-11.0742L22.7344-12.1973Q22.832-12.6172 22.6953-12.9834Q22.5586-13.3496 22.1191-13.7891L19.9219-15.9766Q18.6719-17.2168 17.2607-17.8369Q15.8496-18.457 14.4189-18.4814Q12.9883-18.5059 11.665-17.959Q10.3418-17.4121 9.25781-16.3281ZM10.752-15.957Q11.6602-16.6211 12.7002-16.9043Q13.7402-17.1875 14.8047-17.085Q15.8691-16.9824 16.8701-16.5137Q17.8711-16.0449 18.7012-15.2051L21.1328-12.793Q21.3086-12.6172 21.3525-12.4512Q21.3965-12.2852 21.3379-12.0312L21.0156-10.5469L22.5195-9.0625L23.5059-9.12109Q23.6914-9.13086 23.7891-9.09668Q23.8867-9.0625 24.0332-8.91602L24.6094-8.33984L22.168-5.89844L21.5918-6.47461Q21.4453-6.62109 21.4062-6.71875Q21.3672-6.81641 21.377-7.01172L21.4453-7.98828L19.9512-9.47266L18.4277-9.21875Q18.1836-9.16992 18.042-9.2041Q17.9004-9.23828 17.7148-9.41406L15.7129-11.416Q15.5176-11.5918 15.4932-11.7529Q15.4688-11.9141 15.5859-12.1875L16.4648-14.2773Q15.293-15.3711 13.8281-15.791Q12.3633-16.2109 10.8398-15.7617Q10.7227-15.7324 10.6885-15.8057Q10.6543-15.8789 10.752-15.957Z"/>
  </g>
  <text style="stroke:none;fill:black;font-family:sans-serif;font-size:13;font-weight:bold;" transform="matrix(1 0 0 1 1289 1953)">Exporting</text>
  <text style="stroke:none;fill:black;font-family:sans-serif;font-size:13;" transform="matrix(1 0 0 1 1289 1971)">Symbols should be outlined when exporting to ensure the</text>
  <text style="stroke:none;fill:black;font-family:sans-serif;font-size:13;" transform="matrix(1 0 0 1 1289 1989)">design is preserved when submitting to Xcode.</text>
  <text id="template-version" style="stroke:none;fill:black;font-family:sans-serif;font-size:13;text-anchor:end;" transform="matrix(1 0 0 1 3036 1933)">Template v.3.0</text>
  <text style="stroke:none;fill:black;font-family:sans-serif;font-size:13;text-anchor:end;" transform="matrix(1 0 0 1 3036 1951)">Requires Xcode 13 or greater</text>
  <text id="descriptive-name" style="stroke:none;fill:black;font-family:sans-serif;font-size:13;text-anchor:end;" transform="matrix(1 0 0 1 3036 1969)">Generated from headphones.circle.fill</text>
  <text style="stroke:none;fill:black;font-family:sans-serif;font-size:13;text-anchor:end;" transform="matrix(1 0 0 1 3036 1987)">Typeset at 100 points</text>
  <text style="stroke:none;fill:black;font-family:sans-serif;font-size:13;" transform="matrix(1 0 0 1 263 726)">Small</text>
  <text style="stroke:none;fill:black;font-family:sans-serif;font-size:13;" transform="matrix(1 0 0 1 263 1156)">Medium</text>
  <text style="stroke:none;fill:black;font-family:sans-serif;font-size:13;" transform="matrix(1 0 0 1 263 1586)">Large</text>
 </g>
 <g id="Guides">
  <g id="H-reference" style="fill:#27AAE1;stroke:none;" transform="matrix(1 0 0 1 339 696)">
   <path d="M0.976562 0L3.66211 0L29.3457-67.1387L30.0293-67.1387L30.0293-70.459L28.125-70.459ZM11.6699-24.4629L46.9727-24.4629L46.2402-26.709L12.4512-26.709ZM55.127 0L57.7637 0L30.6152-70.459L29.4434-70.459L29.4434-67.1387Z"/>
  </g>
  <line id="Baseline-S" style="fill:none;stroke:#27AAE1;opacity:1;stroke-width:0.5;" x1="263" x2="3036" y1="696" y2="696"/>
  <line id="Capline-S" style="fill:none;stroke:#27AAE1;opacity:1;stroke-width:0.5;" x1="263" x2="3036" y1="625.541" y2="625.541"/>
  <g id="H-reference" style="fill:#27AAE1;stroke:none;" transform="matrix(1 0 0 1 339 1126)">
   <path d="M0.976562 0L3.66211 0L29.3457-67.1387L30.0293-67.1387L30.0293-70.459L28.125-70.459ZM11.6699-24.4629L46.9727-24.4629L46.2402-26.709L12.4512-26.709ZM55.127 0L57.7637 0L30.6152-70.459L29.4434-70.459L29.4434-67.1387Z"/>
  </g>
  <line id="Baseline-M" style="fill:none;stroke:#27AAE1;opacity:1;stroke-width:0.5;" x1="263" x2="3036" y1="1126" y2="1126"/>
  <line id="Capline-M" style="fill:none;stroke:#27AAE1;opacity:1;stroke-width:0.5;" x1="263" x2="3036" y1="1055.54" y2="1055.54"/>
  <g id="H-reference" style="fill:#27AAE1;stroke:none;" transform="matrix(1 0 0 1 339 1556)">
   <path d="M0.976562 0L3.66211 0L29.3457-67.1387L30.0293-67.1387L30.0293-70.459L28.125-70.459ZM11.6699-24.4629L46.9727-24.4629L46.2402-26.709L12.4512-26.709ZM55.127 0L57.7637 0L30.6152-70.459L29.4434-70.459L29.4434-67.1387Z"/>
  </g>
  <line id="Baseline-L" style="fill:none;stroke:#27AAE1;opacity:1;stroke-width:0.5;" x1="263" x2="3036" y1="1556" y2="1556"/>
  <line id="Capline-L" style="fill:none;stroke:#27AAE1;opacity:1;stroke-width:0.5;" x1="263" x2="3036" y1="1485.54" y2="1485.54"/>
  <line id="left-margin-Regular-M" style="fill:none;stroke:#00AEEF;stroke-width:0.5;opacity:1.0;" x1="1391.3" x2="1391.3" y1="1030.79" y2="1150.12"/>
  <line id="right-margin-Regular-M" style="fill:none;stroke:#00AEEF;stroke-width:0.5;opacity:1.0;" x1="1508.39" x2="1508.39" y1="1030.79" y2="1150.12"/>
 </g>
 <g id="Symbols">
  <g id="Black-L" transform="matrix(1 0 0 1 2854.05 1556)">
   <path d="M79.3457 32.959Q90.5762 32.959 100.757 29.4922Q110.938 26.0254 119.458 19.7754Q127.979 13.5254 134.229 5.00488Q140.479-3.51562 143.945-13.6963Q147.412-23.877 147.412-35.1074Q147.412-46.3379 143.945-56.5186Q140.479-66.6992 134.204-75.2197Q127.93-83.7402 119.434-90.0146Q110.938-96.2891 100.732-99.7314Q90.5273-103.174 79.2969-103.174Q68.1152-103.174 57.9102-99.7314Q47.7051-96.2891 39.209-90.0146Q30.7129-83.7402 24.4385-75.2197Q18.1641-66.6992 14.7217-56.5186Q11.2793-46.3379 11.2793-35.1074Q11.2793-23.877 14.7217-13.6963Q18.1641-3.51562 24.4385 5.00488Q30.7129 13.5254 39.2334 19.7754Q47.7539 26.0254 57.9346 29.4922Q68.1152 32.959 79.3457 32.959ZM45.2637-35.2051Q45.2637-46.0938 49.5361-54.2969Q53.8086-62.5 61.499-67.0898Q69.1895-71.6797 79.3945-71.6797Q89.6484-71.6797 97.3877-67.0898Q105.127-62.5 109.424-54.2725Q113.721-46.0449 113.721-35.2051Q113.721-26.2207 111.67-19.4092Q109.619-12.5977 105.957-6.15234Q104.883-4.29688 102.954-3.78418Q101.025-3.27148 99.1211-4.19922Q96.2402-1.26953 91.748-2.53906Q88.4766-3.41797 87.0117-5.95703Q85.5469-8.49609 86.4258-11.7676L90.7715-27.002Q91.748-30.3223 94.3359-31.7871Q96.9238-33.252 100.098-32.3242Q101.758-31.8359 103.125-30.8105Q103.174-31.8359 103.223-32.9346Q103.271-34.0332 103.271-35.2051Q103.271-43.0176 100.317-48.877Q97.3633-54.7363 91.9922-57.9834Q86.6211-61.2305 79.3945-61.2305Q72.2656-61.2305 66.9189-58.0078Q61.5723-54.7852 58.6426-48.9258Q55.7129-43.0664 55.7129-35.2051Q55.7129-34.0332 55.7129-32.9834Q55.7129-31.9336 55.8594-30.957Q56.9336-31.7871 58.6914-32.3242Q61.9629-33.252 64.5752-31.7871Q67.1875-30.3223 68.1152-27.002L72.4121-11.8652Q73.3398-8.59375 71.875-6.00586Q70.4102-3.41797 67.0898-2.53906Q64.9414-1.85547 63.0127-2.31934Q61.084-2.7832 59.668-4.19922Q57.8125-3.27148 55.9082-3.80859Q54.0039-4.3457 52.9785-6.15234Q49.3164-12.3535 47.29-19.165Q45.2637-25.9766 45.2637-35.2051Z"/>
  </g>
  <g id="Heavy-L" transform="matrix(1 0 0 1 2558.39 1556)">
   <path d="M78.2715 31.8848Q89.3555 31.8848 99.3652 28.4668Q109.375 25.0488 117.749 18.8965Q126.123 12.7441 132.3 4.3457Q138.477-4.05273 141.895-14.0625Q145.312-24.0723 145.312-35.1074Q145.312-46.1426 141.895-56.1768Q138.477-66.2109 132.3-74.585Q126.123-82.959 117.749-89.1602Q109.375-95.3613 99.3408-98.7549Q89.3066-102.148 78.2227-102.148Q67.2363-102.148 57.2021-98.7549Q47.168-95.3613 38.7939-89.1602Q30.4199-82.959 24.2432-74.585Q18.0664-66.2109 14.6729-56.1768Q11.2793-46.1426 11.2793-35.1074Q11.2793-24.0723 14.6729-14.0625Q18.0664-4.05273 24.2432 4.3457Q30.4199 12.7441 38.8184 18.8965Q47.2168 25.0488 57.2266 28.4668Q67.2363 31.8848 78.2715 31.8848ZM44.0918-35.2051Q44.0918-46.1426 48.3887-54.3945Q52.6855-62.6465 60.4004-67.2607Q68.1152-71.875 78.3691-71.875Q88.6719-71.875 96.4111-67.2607Q104.15-62.6465 108.472-54.3701Q112.793-46.0938 112.793-35.2051Q112.793-26.2695 110.742-19.3604Q108.691-12.4512 105.029-5.95703Q104.004-4.19922 102.222-3.68652Q100.439-3.17383 98.6328-3.95508Q95.8008-1.07422 91.4062-2.34375Q88.1836-3.22266 86.7676-5.71289Q85.3516-8.20312 86.2305-11.4258L90.6738-26.9043Q91.6504-30.1758 94.1895-31.5918Q96.7285-33.0078 99.8535-32.0801Q101.514-31.6406 102.832-30.6152Q102.93-31.6895 102.979-32.8369Q103.027-33.9844 103.027-35.2051Q103.027-43.2617 99.9512-49.3164Q96.875-55.3711 91.333-58.7158Q85.791-62.0605 78.3691-62.0605Q70.9961-62.0605 65.4785-58.7402Q59.9609-55.4199 56.9092-49.3652Q53.8574-43.3105 53.8574-35.2051Q53.8574-33.9844 53.8818-32.8857Q53.9062-31.7871 54.0527-30.7617Q55.127-31.5918 56.8359-32.0801Q60.0586-33.0078 62.6221-31.5918Q65.1855-30.1758 66.1133-26.9043L70.5566-11.5234Q71.4355-8.30078 70.0195-5.76172Q68.6035-3.22266 65.332-2.34375Q63.2324-1.66016 61.3525-2.12402Q59.4727-2.58789 58.1055-3.95508Q56.3477-3.17383 54.5654-3.71094Q52.7832-4.24805 51.8066-5.95703Q48.1445-12.207 46.1182-19.1406Q44.0918-26.0742 44.0918-35.2051Z"/>
  </g>
  <g id="Bold-L" transform="matrix(1 0 0 1 2262.85 1556)">
   <path d="M77.0996 30.7129Q87.9395 30.7129 97.7783 27.3438Q107.617 23.9746 115.869 17.9199Q124.121 11.8652 130.176 3.61328Q136.23-4.63867 139.6-14.4775Q142.969-24.3164 142.969-35.1562Q142.969-45.9961 139.6-55.835Q136.23-65.6738 130.151-73.9014Q124.072-82.1289 115.845-88.208Q107.617-94.2871 97.7539-97.6318Q87.8906-100.977 77.0508-100.977Q66.2598-100.977 56.3965-97.6318Q46.5332-94.2871 38.3301-88.208Q30.127-82.1289 24.0479-73.9014Q17.9688-65.6738 14.624-55.835Q11.2793-45.9961 11.2793-35.1562Q11.2793-24.3164 14.624-14.4775Q17.9688-4.63867 24.0479 3.61328Q30.127 11.8652 38.3545 17.9199Q46.582 23.9746 56.4209 27.3438Q66.2598 30.7129 77.0996 30.7129ZM42.7734-35.2539Q42.7734-46.2891 47.0947-54.5898Q51.416-62.8906 59.1553-67.5049Q66.8945-72.1191 77.1973-72.1191Q87.5488-72.1191 95.3369-67.4805Q103.125-62.8418 107.446-54.541Q111.768-46.2402 111.768-35.2539Q111.768-26.416 109.717-19.3604Q107.666-12.3047 103.955-5.81055Q103.027-4.15039 101.392-3.61328Q99.7559-3.07617 98.0957-3.75977Q95.3125-0.927734 91.0645-2.19727Q87.8418-3.07617 86.4746-5.51758Q85.1074-7.95898 85.9863-11.1328L90.5762-26.8555Q91.5527-30.0293 94.0186-31.4209Q96.4844-32.8125 99.6094-31.8848Q101.221-31.4453 102.539-30.4199Q102.637-31.5918 102.686-32.7881Q102.734-33.9844 102.734-35.2539Q102.734-43.6035 99.5605-49.8535Q96.3867-56.1035 90.625-59.5947Q84.8633-63.0859 77.1973-63.0859Q69.5801-63.0859 63.8672-59.6191Q58.1543-56.1523 54.9805-49.8779Q51.8066-43.6035 51.8066-35.2539Q51.8066-33.9844 51.8311-32.8125Q51.8555-31.6406 52.002-30.5664Q53.125-31.3965 54.7852-31.8848Q57.959-32.8125 60.4736-31.4209Q62.9883-30.0293 63.8672-26.8555L68.457-11.1816Q69.3359-8.05664 67.9688-5.56641Q66.6016-3.07617 63.3789-2.19727Q61.3281-1.51367 59.4727-1.95312Q57.6172-2.39258 56.2988-3.75977Q54.6875-3.07617 53.0762-3.6377Q51.4648-4.19922 50.5371-5.81055Q46.875-12.1094 44.8242-19.1895Q42.7734-26.2695 42.7734-35.2539Z"/>
  </g>
  <g id="Semibold-L" transform="matrix(1 0 0 1 1966.97 1556)">
   <path d="M76.2695 29.8828Q86.9629 29.8828 96.6797 26.5625Q106.396 23.2422 114.551 17.2607Q122.705 11.2793 128.687 3.125Q134.668-5.0293 137.988-14.7461Q141.309-24.4629 141.309-35.1562Q141.309-45.8496 137.988-55.5664Q134.668-65.2832 128.662-73.4131Q122.656-81.543 114.526-87.5488Q106.396-93.5547 96.6553-96.875Q86.9141-100.195 76.2207-100.195Q65.5273-100.195 55.8105-96.875Q46.0938-93.5547 37.9883-87.5488Q29.8828-81.543 23.877-73.4131Q17.8711-65.2832 14.5752-55.5664Q11.2793-45.8496 11.2793-35.1562Q11.2793-24.4629 14.5996-14.7461Q17.9199-5.0293 23.9014 3.125Q29.8828 11.2793 38.0127 17.2607Q46.1426 23.2422 55.8594 26.5625Q65.5762 29.8828 76.2695 29.8828ZM41.8457-35.2051Q41.8457-46.2891 46.167-54.6387Q50.4883-62.9883 58.252-67.627Q66.0156-72.2656 76.3672-72.2656Q86.7188-72.2656 94.5312-67.6025Q102.344-62.9395 106.665-54.6143Q110.986-46.2891 110.986-35.2051Q110.986-26.4648 108.936-19.3115Q106.885-12.1582 103.223-5.61523Q102.295-4.10156 100.757-3.54004Q99.2188-2.97852 97.7051-3.56445Q94.9707-0.78125 90.7715-2.05078Q87.5977-2.88086 86.2549-5.32227Q84.9121-7.76367 85.791-10.8398L90.4785-26.7578Q91.4062-29.8828 93.8477-31.25Q96.2891-32.6172 99.3652-31.6895Q101.025-31.25 102.295-30.2734Q102.393-31.4453 102.441-32.6904Q102.49-33.9355 102.49-35.2051Q102.49-43.75 99.2432-50.1709Q95.9961-56.5918 90.0879-60.1562Q84.1797-63.7207 76.3672-63.7207Q68.5547-63.7207 62.6953-60.1807Q56.8359-56.6406 53.5889-50.2197Q50.3418-43.7988 50.3418-35.2051Q50.3418-33.9355 50.3906-32.7148Q50.4395-31.4941 50.5371-30.3711Q51.6602-31.2012 53.3203-31.6895Q56.4453-32.6172 58.9355-31.25Q61.4258-29.8828 62.3047-26.7578L66.9434-10.9375Q67.8711-7.8125 66.5039-5.34668Q65.1367-2.88086 62.0117-2.05078Q59.9609-1.36719 58.1543-1.80664Q56.3477-2.24609 55.0293-3.56445Q53.5156-2.97852 52.002-3.54004Q50.4883-4.10156 49.6094-5.61523Q45.9473-12.0117 43.8965-19.165Q41.8457-26.3184 41.8457-35.2051Z"/>
  </g>
  <g id="Medium-L" transform="matrix(1 0 0 1 1670.87 1556)">
   <path d="M75.6836 29.248Q86.2305 29.248 95.8496 25.9521Q105.469 22.6562 113.55 16.7236Q121.631 10.791 127.563 2.73438Q133.496-5.32227 136.792-14.9658Q140.088-24.6094 140.088-35.1562Q140.088-45.752 136.792-55.3711Q133.496-64.9902 127.539-73.0469Q121.582-81.1035 113.525-87.0605Q105.469-93.0176 95.8252-96.2891Q86.1816-99.5605 75.6348-99.5605Q65.0391-99.5605 55.4199-96.2891Q45.8008-93.0176 37.7441-87.0605Q29.6875-81.1035 23.7549-73.0469Q17.8223-64.9902 14.5508-55.3711Q11.2793-45.752 11.2793-35.1562Q11.2793-24.6094 14.5508-14.9658Q17.8223-5.32227 23.7549 2.73438Q29.6875 10.791 37.7686 16.7236Q45.8496 22.6562 55.4688 25.9521Q65.0879 29.248 75.6836 29.248ZM41.1621-35.2539Q41.1621-46.3867 45.4834-54.7607Q49.8047-63.1348 57.6172-67.7734Q65.4297-72.4121 75.7812-72.4121Q86.1328-72.4121 93.9697-67.749Q101.807-63.0859 106.128-54.7363Q110.449-46.3867 110.449-35.2539Q110.449-26.5625 108.398-19.3604Q106.348-12.1582 102.637-5.56641Q101.807-4.05273 100.342-3.51562Q98.877-2.97852 97.4121-3.4668Q94.6777-0.732422 90.5762-2.00195Q87.4023-2.83203 86.084-5.22461Q84.7656-7.61719 85.6934-10.6934L90.4297-26.7578Q91.3574-29.8828 93.7744-31.2012Q96.1914-32.5195 99.2188-31.6406Q100.879-31.1523 102.148-30.1758Q102.246-31.3965 102.295-32.6904Q102.344-33.9844 102.344-35.2539Q102.344-43.9453 99.0234-50.4639Q95.7031-56.9824 89.7217-60.6445Q83.7402-64.3066 75.7812-64.3066Q67.8223-64.3066 61.8652-60.6689Q55.9082-57.0312 52.5879-50.4883Q49.2676-43.9453 49.2676-35.2539Q49.2676-33.9844 49.3164-32.7393Q49.3652-31.4941 49.4629-30.2734Q50.6348-31.1035 52.2461-31.6406Q55.3223-32.5195 57.7881-31.2012Q60.2539-29.8828 61.1328-26.7578L65.8691-10.7422Q66.748-7.66602 65.4297-5.24902Q64.1113-2.83203 60.9863-2.00195Q58.9355-1.31836 57.1533-1.7334Q55.3711-2.14844 54.1016-3.4668Q52.6367-2.97852 51.2207-3.54004Q49.8047-4.10156 48.9746-5.56641Q45.2637-11.9629 43.2129-19.1895Q41.1621-26.416 41.1621-35.2539Z"/>
  </g>
  <g id="Regular-L" transform="matrix(1 0 0 1 1374.97 1556)">
   <path d="M74.8535 28.418Q85.3027 28.418 94.7998 25.1709Q104.297 21.9238 112.256 16.0645Q120.215 10.2051 126.099 2.24609Q131.982-5.71289 135.229-15.2344Q138.477-24.7559 138.477-35.1562Q138.477-45.6055 135.229-55.1025Q131.982-64.5996 126.099-72.5586Q120.215-80.5176 112.256-86.4014Q104.297-92.2852 94.7754-95.5322Q85.2539-98.7793 74.8047-98.7793Q64.3555-98.7793 54.8584-95.5322Q45.3613-92.2852 37.4268-86.4014Q29.4922-80.5176 23.6084-72.5586Q17.7246-64.5996 14.502-55.1025Q11.2793-45.6055 11.2793-35.1562Q11.2793-24.7559 14.5264-15.2344Q17.7734-5.71289 23.6328 2.24609Q29.4922 10.2051 37.4512 16.0645Q45.4102 21.9238 54.9072 25.1709Q64.4043 28.418 74.8535 28.418ZM40.2344-35.2539Q40.2344-46.4355 44.5801-54.834Q48.9258-63.2324 56.7383-67.8955Q64.5508-72.5586 74.9512-72.5586Q85.3516-72.5586 93.1885-67.8711Q101.025-63.1836 105.371-54.8096Q109.717-46.4355 109.717-35.2539Q109.717-26.6113 107.666-19.3115Q105.615-12.0117 101.904-5.41992Q101.074-4.00391 99.7314-3.44238Q98.3887-2.88086 97.0215-3.27148Q94.3359-0.585938 90.2832-1.85547Q87.1582-2.68555 85.8643-5.05371Q84.5703-7.42188 85.498-10.4492L90.332-26.6602Q91.2598-29.7363 93.6279-31.0303Q95.9961-32.3242 99.0234-31.4453Q100.635-31.0059 101.904-30.0293Q102.002-31.2988 102.051-32.6172Q102.1-33.9355 102.1-35.2539Q102.1-44.1406 98.7061-50.8057Q95.3125-57.4707 89.1846-61.2061Q83.0566-64.9414 74.9512-64.9414Q66.7969-64.9414 60.7178-61.2305Q54.6387-57.5195 51.2451-50.8301Q47.8516-44.1406 47.8516-35.2539Q47.8516-33.9355 47.9004-32.6416Q47.9492-31.3477 48.0469-30.127Q49.2188-30.957 50.7812-31.4453Q53.8574-32.3242 56.2744-31.0303Q58.6914-29.7363 59.5703-26.6602L64.4043-10.498Q65.2832-7.4707 63.9893-5.07812Q62.6953-2.68555 59.6191-1.85547Q57.6172-1.17188 55.8594-1.58691Q54.1016-2.00195 52.8809-3.27148Q51.4648-2.88086 50.1465-3.44238Q48.8281-4.00391 48.0469-5.41992Q44.3359-11.8652 42.2852-19.1895Q40.2344-26.5137 40.2344-35.2539Z"/>
  </g>
  <g id="Light-L" transform="matrix(1 0 0 1 1079.18 1556)">
   <path d="M73.9258 27.4902Q84.2285 27.4902 93.6035 24.292Q102.979 21.0938 110.815 15.332Q118.652 9.57031 124.438 1.7334Q130.225-6.10352 133.423-15.4785Q136.621-24.8535 136.621-35.1562Q136.621-45.459 133.423-54.834Q130.225-64.209 124.438-72.0459Q118.652-79.8828 110.815-85.6689Q102.979-91.4551 93.6035-94.6533Q84.2285-97.8516 73.877-97.8516Q63.5742-97.8516 54.2236-94.6533Q44.873-91.4551 37.0361-85.6689Q29.1992-79.8828 23.4131-72.0459Q17.627-64.209 14.4531-54.834Q11.2793-45.459 11.2793-35.1562Q11.2793-24.8535 14.4775-15.4785Q17.6758-6.10352 23.4375 1.7334Q29.1992 9.57031 37.0361 15.332Q44.873 21.0938 54.248 24.292Q63.623 27.4902 73.9258 27.4902ZM39.9414-35.3027Q39.9414-46.3379 44.1895-54.5898Q48.4375-62.8418 56.1035-67.4072Q63.7695-71.9727 74.0234-71.9727Q84.2285-71.9727 91.8945-67.3828Q99.5605-62.793 103.833-54.5654Q108.105-46.3379 108.105-35.3027Q108.105-27.1484 106.104-19.751Q104.102-12.3535 100.439-5.85938Q99.7559-4.6875 98.7305-4.12598Q97.7051-3.56445 96.6797-3.66211Q94.2871-1.41602 90.7227-2.53906Q87.8418-3.36914 86.6699-5.54199Q85.498-7.71484 86.377-10.498L91.4062-26.709Q92.2852-29.541 94.4336-30.6885Q96.582-31.8359 99.4141-31.0059Q100.781-30.6641 101.904-29.834Q102.002-31.2012 102.075-32.5684Q102.148-33.9355 102.148-35.3027Q102.148-44.4824 98.6084-51.3672Q95.0684-58.252 88.7451-62.1094Q82.4219-65.9668 74.0234-65.9668Q65.5762-65.9668 59.2529-62.1338Q52.9297-58.3008 49.4141-51.3916Q45.8984-44.4824 45.8984-35.3027Q45.8984-33.9355 45.9717-32.5684Q46.0449-31.2012 46.1426-29.8828Q47.2168-30.6152 48.5352-31.0059Q51.3672-31.8359 53.5645-30.6885Q55.7617-29.541 56.5918-26.709L61.6211-10.5469Q62.5-7.71484 61.3281-5.54199Q60.1562-3.36914 57.3242-2.53906Q55.5176-1.95312 53.9795-2.27051Q52.4414-2.58789 51.3672-3.66211Q50.2441-3.56445 49.2432-4.12598Q48.2422-4.6875 47.6074-5.85938Q43.9453-12.2559 41.9434-19.6777Q39.9414-27.0996 39.9414-35.3027Z"/>
  </g>
  <g id="Thin-L" transform="matrix(1 0 0 1 783.693 1556)">
   <path d="M72.7051 26.2695Q82.8613 26.2695 92.041 23.1445Q101.221 20.0195 108.911 14.3799Q116.602 8.74023 122.266 1.0498Q127.93-6.64062 131.055-15.8447Q134.18-25.0488 134.18-35.1562Q134.18-45.3125 131.055-54.4922Q127.93-63.6719 122.29-71.3623Q116.65-79.0527 108.936-84.7168Q101.221-90.3809 92.0166-93.5059Q82.8125-96.6309 72.7051-96.6309Q62.5488-96.6309 53.3691-93.5059Q44.1895-90.3809 36.499-84.7168Q28.8086-79.0527 23.1689-71.3623Q17.5293-63.6719 14.4043-54.4922Q11.2793-45.3125 11.2793-35.1562Q11.2793-25.0488 14.4043-15.8447Q17.5293-6.64062 23.1689 1.0498Q28.8086 8.74023 36.5234 14.3799Q44.2383 20.0195 53.418 23.1445Q62.5977 26.2695 72.7051 26.2695ZM39.5508-35.4004Q39.5508-46.1914 43.6768-54.248Q47.8027-62.3047 55.2979-66.748Q62.793-71.1914 72.7539-71.1914Q82.7148-71.1914 90.1855-66.7236Q97.6562-62.2559 101.807-54.2236Q105.957-46.1914 105.957-35.4004Q105.957-27.9297 104.028-20.3369Q102.1-12.7441 98.5352-6.39648Q98.0469-5.56641 97.4365-5.00488Q96.8262-4.44336 96.1914-4.15039Q94.1895-2.49023 91.2598-3.4668Q88.7695-4.24805 87.7441-6.15234Q86.7188-8.05664 87.5488-10.5469L92.7734-26.8066Q93.6035-29.2969 95.4834-30.249Q97.3633-31.2012 99.9512-30.4199Q100.928-30.1758 101.855-29.541Q102.002-31.0059 102.075-32.4951Q102.148-33.9844 102.148-35.4004Q102.148-44.9219 98.4619-52.0996Q94.7754-59.2773 88.1592-63.3301Q81.543-67.3828 72.7539-67.3828Q63.9648-67.3828 57.3486-63.3545Q50.7324-59.3262 47.0459-52.124Q43.3594-44.9219 43.3594-35.4004Q43.3594-33.9844 43.4082-32.5195Q43.457-31.0547 43.6523-29.541Q44.5801-30.127 45.5566-30.4199Q48.0957-31.2012 50-30.249Q51.9043-29.2969 52.6855-26.8066L57.959-10.5469Q58.7402-8.05664 57.7393-6.15234Q56.7383-4.24805 54.248-3.4668Q52.7832-2.97852 51.5137-3.17383Q50.2441-3.36914 49.3164-4.15039Q48.6816-4.44336 48.0713-5.00488Q47.4609-5.56641 47.0215-6.39648Q43.457-12.7441 41.5039-20.3369Q39.5508-27.9297 39.5508-35.4004Z"/>
  </g>
  <g id="Ultralight-L" transform="matrix(1 0 0 1 487.592 1556)">
   <path d="M72.0703 25.6348Q82.1289 25.6348 91.2354 22.5586Q100.342 19.4824 107.935 13.8916Q115.527 8.30078 121.143 0.683594Q126.758-6.93359 129.858-16.0156Q132.959-25.0977 132.959-35.1562Q132.959-45.2148 129.858-54.3213Q126.758-63.4277 121.167-71.0205Q115.576-78.6133 107.959-84.2285Q100.342-89.8438 91.2354-92.9199Q82.1289-95.9961 72.0703-95.9961Q62.0605-95.9961 52.9541-92.9199Q43.8477-89.8438 36.2305-84.2285Q28.6133-78.6133 23.0225-71.0205Q17.4316-63.4277 14.3555-54.3213Q11.2793-45.2148 11.2793-35.1562Q11.2793-25.0977 14.3555-16.0156Q17.4316-6.93359 23.0225 0.683594Q28.6133 8.30078 36.2305 13.8916Q43.8477 19.4824 52.9541 22.5586Q62.0605 25.6348 72.0703 25.6348ZM39.3066-35.4492Q39.3066-46.0938 43.3838-54.0527Q47.4609-62.0117 54.834-66.4062Q62.207-70.8008 72.0703-70.8008Q81.9336-70.8008 89.2822-66.4062Q96.6309-62.0117 100.708-54.0527Q104.785-46.0938 104.785-35.4492Q104.785-28.2715 102.905-20.6299Q101.025-12.9883 97.4609-6.68945Q97.1191-6.05469 96.7285-5.49316Q96.3379-4.93164 95.8984-4.39453Q94.0918-3.02734 91.5039-3.95508Q89.1602-4.6875 88.2324-6.46973Q87.3047-8.25195 88.1348-10.5957L93.457-26.8555Q94.2383-29.1504 95.9961-30.0049Q97.7539-30.8594 100.195-30.127Q100.977-29.9316 101.807-29.3945Q102.002-30.957 102.075-32.4707Q102.148-33.9844 102.148-35.4492Q102.148-45.1172 98.3643-52.4658Q94.5801-59.8145 87.8174-63.9404Q81.0547-68.0664 72.0703-68.0664Q63.0859-68.0664 56.2988-63.9404Q49.5117-59.8145 45.752-52.4658Q41.9922-45.1172 41.9922-35.4492Q41.9922-33.9844 42.0654-32.4707Q42.1387-30.957 42.2852-29.3945Q43.1641-29.9316 43.9941-30.127Q46.3379-30.8594 48.1201-30.0049Q49.9023-29.1504 50.6348-26.8555L56.0059-10.5957Q56.8359-8.25195 55.9082-6.46973Q54.9805-4.6875 52.6367-3.95508Q51.3184-3.4668 50.1953-3.61328Q49.0723-3.75977 48.2422-4.39453Q47.8027-4.93164 47.4121-5.49316Q47.0215-6.05469 46.6797-6.68945Q43.1152-12.9883 41.2109-20.6543Q39.3066-28.3203 39.3066-35.4492Z"/>
  </g>
  <g id="Black-M" transform="matrix(1 0 0 1 2871.32 1126)">
   <path d="M62.0605 18.1641Q73.0957 18.1641 82.7637 14.0137Q92.4316 9.86328 99.7559 2.51465Q107.08-4.83398 111.255-14.4775Q115.43-24.1211 115.43-35.1562Q115.43-46.1914 111.255-55.835Q107.08-65.4785 99.7559-72.8271Q92.4316-80.1758 82.7637-84.3262Q73.0957-88.4766 62.0605-88.4766Q51.0742-88.4766 41.4062-84.3262Q31.7383-80.1758 24.3896-72.8271Q17.041-65.4785 12.8906-55.835Q8.74023-46.1914 8.74023-35.1562Q8.74023-24.1211 12.8906-14.4775Q17.041-4.83398 24.3896 2.51465Q31.7383 9.86328 41.4062 14.0137Q51.0742 18.1641 62.0605 18.1641ZM35.9863-35.1562Q35.9863-43.5059 39.2578-49.8047Q42.5293-56.1035 48.4131-59.5947Q54.2969-63.0859 62.1094-63.0859Q69.9707-63.0859 75.8789-59.5703Q81.7871-56.0547 85.083-49.7803Q88.3789-43.5059 88.3789-35.1562Q88.3789-28.3203 86.8164-23.1201Q85.2539-17.9199 82.4219-12.9883Q81.5918-11.5234 80.1025-11.1328Q78.6133-10.7422 77.1484-11.4746Q74.9512-9.27734 71.5332-10.2539Q69.043-10.9375 67.9199-12.8662Q66.7969-14.7949 67.4805-17.2852L70.8008-28.9062Q71.5332-31.4453 73.5107-32.5684Q75.4883-33.6914 77.9297-33.0078Q79.1504-32.6172 80.1758-31.8848Q80.2246-32.666 80.249-33.4961Q80.2734-34.3262 80.2734-35.1562Q80.2734-41.1133 78.0273-45.5811Q75.7812-50.0488 71.6797-52.5146Q67.5781-54.9805 62.1094-54.9805Q56.6406-54.9805 52.5879-52.5146Q48.5352-50.0488 46.3135-45.6055Q44.0918-41.1621 44.0918-35.1562Q44.0918-34.3262 44.0918-33.5205Q44.0918-32.7148 44.1895-31.9824Q45.0195-32.5684 46.2891-33.0078Q48.8281-33.6914 50.8057-32.5684Q52.7832-31.4453 53.5156-28.9062L56.7871-17.3828Q57.4707-14.8438 56.3721-12.8906Q55.2734-10.9375 52.7344-10.2539Q49.4629-9.22852 47.1191-11.4746Q45.6543-10.7422 44.1895-11.1572Q42.7246-11.5723 41.8945-12.9883Q39.1113-17.6758 37.5488-22.9004Q35.9863-28.125 35.9863-35.1562Z"/>
  </g>
  <g id="Heavy-M" transform="matrix(1 0 0 1 2575.43 1126)">
   <path d="M61.2305 17.334Q72.0703 17.334 81.5918 13.2324Q91.1133 9.13086 98.3154 1.9043Q105.518-5.32227 109.644-14.8193Q113.77-24.3164 113.77-35.1562Q113.77-45.9961 109.644-55.4932Q105.518-64.9902 98.3154-72.2412Q91.1133-79.4922 81.5918-83.5693Q72.0703-87.6465 61.2305-87.6465Q50.4395-87.6465 40.918-83.5693Q31.3965-79.4922 24.1699-72.2412Q16.9434-64.9902 12.8418-55.4932Q8.74023-45.9961 8.74023-35.1562Q8.74023-24.3164 12.8418-14.8193Q16.9434-5.32227 24.1699 1.9043Q31.3965 9.13086 40.918 13.2324Q50.4395 17.334 61.2305 17.334ZM34.9121-35.2051Q34.9121-43.6523 38.208-50Q41.5039-56.3477 47.4609-59.8877Q53.418-63.4277 61.2793-63.4277Q69.2383-63.4277 75.1953-59.8877Q81.1523-56.3477 84.4971-50Q87.8418-43.6523 87.8418-35.2051Q87.8418-28.3203 86.2549-23.0225Q84.668-17.7246 81.8359-12.7441Q81.0059-11.3281 79.5898-10.9375Q78.1738-10.5469 76.7578-11.1816Q74.5605-8.98438 71.1426-9.96094Q68.6035-10.6445 67.5049-12.5732Q66.4062-14.502 67.0898-16.9922L70.5078-28.8574Q71.2402-31.3965 73.2178-32.4951Q75.1953-33.5938 77.6367-32.9102Q78.8574-32.5195 79.9316-31.7871Q79.9805-32.5684 80.0049-33.4473Q80.0293-34.3262 80.0293-35.2051Q80.0293-41.3574 77.71-45.9473Q75.3906-50.5371 71.167-53.0762Q66.9434-55.6152 61.2793-55.6152Q55.6641-55.6152 51.4893-53.0762Q47.3145-50.5371 45.0195-45.9473Q42.7246-41.3574 42.7246-35.2051Q42.7246-34.3262 42.7246-33.4717Q42.7246-32.6172 42.8223-31.8848Q43.7012-32.4707 44.9707-32.9102Q47.5098-33.5938 49.4873-32.4951Q51.4648-31.3965 52.1973-28.8574L55.5664-17.0898Q56.25-14.5508 55.1514-12.5977Q54.0527-10.6445 51.5137-9.96094Q48.2422-8.93555 45.8984-11.1816Q44.4824-10.5469 43.0664-10.9619Q41.6504-11.377 40.8691-12.7441Q38.0371-17.5293 36.4746-22.8516Q34.9121-28.1738 34.9121-35.2051Z"/>
  </g>
  <g id="Bold-M" transform="matrix(1 0 0 1 2279.65 1126)">
   <path d="M60.3027 16.4062Q70.9473 16.4062 80.2734 12.3779Q89.5996 8.34961 96.7041 1.2207Q103.809-5.9082 107.861-15.2344Q111.914-24.5605 111.914-35.2051Q111.914-45.8008 107.861-55.127Q103.809-64.4531 96.7041-71.582Q89.5996-78.7109 80.249-82.7393Q70.8984-86.7676 60.3027-86.7676Q49.707-86.7676 40.3564-82.7393Q31.0059-78.7109 23.9014-71.582Q16.7969-64.4531 12.7686-55.127Q8.74023-45.8008 8.74023-35.2051Q8.74023-24.5605 12.7686-15.2344Q16.7969-5.9082 23.9258 1.2207Q31.0547 8.34961 40.3809 12.3779Q49.707 16.4062 60.3027 16.4062ZM33.6914-35.2051Q33.6914-43.75 37.0361-50.1953Q40.3809-56.6406 46.3867-60.2051Q52.3926-63.7695 60.4004-63.7695Q68.4082-63.7695 74.4385-60.1807Q80.4688-56.5918 83.8379-50.1709Q87.207-43.75 87.207-35.2051Q87.207-28.2715 85.6201-22.876Q84.0332-17.4805 81.1523-12.4512Q80.3711-11.084 79.0039-10.6689Q77.6367-10.2539 76.3184-10.8398Q74.0723-8.59375 70.6543-9.61914Q68.1641-10.3027 67.0654-12.2314Q65.9668-14.1602 66.6504-16.6504L70.166-28.7109Q70.8496-31.25 72.8271-32.373Q74.8047-33.4961 77.2461-32.7637Q78.5645-32.4219 79.5898-31.5918Q79.6875-32.4707 79.7119-33.374Q79.7363-34.2773 79.7363-35.2051Q79.7363-41.5527 77.3193-46.2891Q74.9023-51.0254 70.5566-53.6621Q66.2109-56.2988 60.4004-56.2988Q54.5898-56.2988 50.2686-53.6865Q45.9473-51.0742 43.5547-46.3135Q41.1621-41.5527 41.1621-35.2051Q41.1621-34.2773 41.1865-33.3984Q41.2109-32.5195 41.3086-31.6895Q42.1875-32.373 43.5059-32.7637Q46.0449-33.4961 48.0225-32.373Q50-31.25 50.7324-28.7109L54.1504-16.748Q54.8828-14.209 53.7842-12.2559Q52.6855-10.3027 50.1465-9.61914Q46.8262-8.54492 44.5312-10.8398Q43.1641-10.2539 41.8213-10.6934Q40.4785-11.1328 39.6973-12.4512Q36.8652-17.2852 35.2783-22.7051Q33.6914-28.125 33.6914-35.2051Z"/>
  </g>
  <g id="Semibold-M" transform="matrix(1 0 0 1 1983.6 1126)">
   <path d="M59.668 15.7227Q70.1172 15.7227 79.3457 11.7432Q88.5742 7.76367 95.6055 0.732422Q102.637-6.29883 106.616-15.5029Q110.596-24.707 110.596-35.2051Q110.596-45.6543 106.616-54.8584Q102.637-64.0625 95.6055-71.0938Q88.5742-78.125 79.3457-82.1289Q70.1172-86.1328 59.6191-86.1328Q49.1699-86.1328 39.9658-82.1289Q30.7617-78.125 23.7305-71.0938Q16.6992-64.0625 12.7197-54.8584Q8.74023-45.6543 8.74023-35.2051Q8.74023-24.707 12.7197-15.5029Q16.6992-6.29883 23.7305 0.732422Q30.7617 7.76367 39.9902 11.7432Q49.2188 15.7227 59.668 15.7227ZM32.8125-35.2051Q32.8125-43.8477 36.1816-50.3418Q39.5508-56.8359 45.6055-60.4492Q51.6602-64.0625 59.7168-64.0625Q67.7734-64.0625 73.8525-60.4492Q79.9316-56.8359 83.3252-50.3418Q86.7188-43.8477 86.7188-35.2051Q86.7188-28.2715 85.1074-22.8027Q83.4961-17.334 80.6152-12.2559Q79.834-10.9375 78.54-10.498Q77.2461-10.0586 75.9277-10.6445Q73.7305-8.39844 70.3125-9.375Q67.7734-10.0586 66.6748-12.0117Q65.5762-13.9648 66.2598-16.4551L69.873-28.6621Q70.5566-31.2012 72.5342-32.2998Q74.5117-33.3984 76.9531-32.7148Q78.2715-32.3242 79.3457-31.4941Q79.3945-32.373 79.4434-33.3252Q79.4922-34.2773 79.4922-35.2051Q79.4922-41.6992 77.0264-46.5576Q74.5605-51.416 70.0928-54.1016Q65.625-56.7871 59.7168-56.7871Q53.8086-56.7871 49.3896-54.126Q44.9707-51.4648 42.5049-46.6064Q40.0391-41.748 40.0391-35.2051Q40.0391-34.2773 40.0635-33.3496Q40.0879-32.4219 40.1855-31.5918Q41.0645-32.2754 42.4316-32.7148Q44.9707-33.3984 46.9482-32.2998Q48.9258-31.2012 49.6582-28.6621L53.125-16.5039Q53.8574-14.0137 52.7832-12.0361Q51.709-10.0586 49.1699-9.375Q45.8008-8.30078 43.5059-10.6445Q42.1875-10.0586 40.8936-10.5225Q39.5996-10.9863 38.8672-12.2559Q35.9863-17.1875 34.3994-22.6807Q32.8125-28.1738 32.8125-35.2051Z"/>
  </g>
  <g id="Medium-M" transform="matrix(1 0 0 1 1687.38 1126)">
   <path d="M59.1797 15.2344Q69.5312 15.2344 78.6621 11.2793Q87.793 7.32422 94.751 0.366211Q101.709-6.5918 105.664-15.7227Q109.619-24.8535 109.619-35.2051Q109.619-45.5566 105.664-54.6875Q101.709-63.8184 94.751-70.7764Q87.793-77.7344 78.6377-81.6895Q69.4824-85.6445 59.1309-85.6445Q48.7793-85.6445 39.6484-81.6895Q30.5176-77.7344 23.584-70.7764Q16.6504-63.8184 12.6953-54.6875Q8.74023-45.5566 8.74023-35.2051Q8.74023-24.8535 12.6953-15.7227Q16.6504-6.5918 23.6084 0.366211Q30.5664 7.32422 39.6973 11.2793Q48.8281 15.2344 59.1797 15.2344ZM32.1777-35.2051Q32.1777-43.8965 35.5713-50.4395Q38.9648-56.9824 45.0439-60.5957Q51.123-64.209 59.2285-64.209Q67.3828-64.209 73.4863-60.5713Q79.5898-56.9336 83.0078-50.415Q86.4258-43.8965 86.4258-35.2051Q86.4258-28.2715 84.79-22.7539Q83.1543-17.2363 80.2734-12.0605Q79.4922-10.8398 78.2227-10.376Q76.9531-9.91211 75.6836-10.4492Q73.4863-8.1543 70.0684-9.17969Q67.5293-9.86328 66.4307-11.8164Q65.332-13.7695 66.0156-16.2598L69.6777-28.6133Q70.3613-31.1523 72.3389-32.251Q74.3164-33.3496 76.7578-32.6172Q78.125-32.2754 79.1504-31.4453Q79.248-32.3242 79.2969-33.2764Q79.3457-34.2285 79.3457-35.2051Q79.3457-41.7969 76.8311-46.7285Q74.3164-51.6602 69.7754-54.4189Q65.2344-57.1777 59.2285-57.1777Q53.2227-57.1777 48.7305-54.4434Q44.2383-51.709 41.748-46.7529Q39.2578-41.7969 39.2578-35.2051Q39.2578-34.2285 39.2578-33.3008Q39.2578-32.373 39.3555-31.543Q40.2832-32.2266 41.6504-32.6172Q44.1895-33.3496 46.167-32.251Q48.1445-31.1523 48.877-28.6133L52.4414-16.3086Q53.125-13.8184 52.0508-11.8408Q50.9766-9.86328 48.4375-9.17969Q45.1172-8.10547 42.7734-10.4492Q41.5039-9.91211 40.2588-10.376Q39.0137-10.8398 38.2324-12.0605Q35.4004-17.041 33.7891-22.583Q32.1777-28.125 32.1777-35.2051Z"/>
  </g>
  <g id="Regular-M" transform="matrix(1 0 0 1 1391.3 1126)">
   <path d="M58.5449 14.5996Q68.75 14.5996 77.7588 10.6934Q86.7676 6.78711 93.6523-0.0976562Q100.537-6.98242 104.443-15.9912Q108.35-25 108.35-35.2051Q108.35-45.4102 104.443-54.4189Q100.537-63.4277 93.6523-70.3125Q86.7676-77.1973 77.7344-81.1035Q68.7012-85.0098 58.4961-85.0098Q48.291-85.0098 39.2822-81.1035Q30.2734-77.1973 23.4131-70.3125Q16.5527-63.4277 12.6465-54.4189Q8.74023-45.4102 8.74023-35.2051Q8.74023-25 12.6465-15.9912Q16.5527-6.98242 23.4375-0.0976562Q30.3223 6.78711 39.3311 10.6934Q48.3398 14.5996 58.5449 14.5996ZM31.3477-35.2539Q31.3477-43.9941 34.7656-50.5859Q38.1836-57.1777 44.3115-60.8398Q50.4395-64.502 58.5938-64.502Q66.7969-64.502 72.9492-60.8398Q79.1016-57.1777 82.5439-50.5859Q85.9863-43.9941 85.9863-35.2539Q85.9863-28.2715 84.3506-22.6807Q82.7148-17.0898 79.7852-11.9141Q79.0527-10.6934 77.832-10.2295Q76.6113-9.76562 75.3906-10.2539Q73.1445-7.95898 69.7266-8.98438Q67.1875-9.66797 66.1133-11.6211Q65.0391-13.5742 65.7227-16.0645L69.4336-28.5645Q70.1172-31.1035 72.0947-32.2021Q74.0723-33.3008 76.5137-32.5684Q77.8809-32.2266 78.9551-31.3477Q79.0527-32.2754 79.1016-33.252Q79.1504-34.2285 79.1504-35.2539Q79.1504-41.9922 76.5625-47.0215Q73.9746-52.0508 69.3604-54.8584Q64.7461-57.666 58.5938-57.666Q52.4902-57.666 47.9004-54.8828Q43.3105-52.0996 40.7471-47.0459Q38.1836-41.9922 38.1836-35.2539Q38.1836-34.2285 38.208-33.2764Q38.2324-32.3242 38.3301-31.4453Q39.2578-32.1777 40.625-32.5684Q43.1641-33.3008 45.1416-32.2021Q47.1191-31.1035 47.8516-28.5645L51.4648-16.1133Q52.1973-13.623 51.123-11.6455Q50.0488-9.66797 47.5098-8.98438Q44.1406-7.86133 41.8457-10.2539Q40.5762-9.76562 39.3799-10.2295Q38.1836-10.6934 37.4512-11.9141Q34.5703-16.9434 32.959-22.5586Q31.3477-28.1738 31.3477-35.2539Z"/>
  </g>
  <g id="Light-M" transform="matrix(1 0 0 1 1095.42 1126)">
   <path d="M57.7148 13.7695Q67.7734 13.7695 76.6357 9.93652Q85.498 6.10352 92.2607-0.65918Q99.0234-7.42188 102.856-16.2842Q106.689-25.1465 106.689-35.2051Q106.689-45.2637 102.856-54.126Q99.0234-62.9883 92.2607-69.751Q85.498-76.5137 76.6113-80.3467Q67.7246-84.1797 57.666-84.1797Q47.6074-84.1797 38.7451-80.3467Q29.8828-76.5137 23.1445-69.751Q16.4062-62.9883 12.5732-54.126Q8.74023-45.2637 8.74023-35.2051Q8.74023-25.1465 12.5732-16.2842Q16.4062-7.42188 23.1689-0.65918Q29.9316 6.10352 38.7939 9.93652Q47.6562 13.7695 57.7148 13.7695ZM31.0547-35.3027Q31.0547-43.8965 34.3994-50.3662Q37.7441-56.8359 43.7256-60.4004Q49.707-63.9648 57.7148-63.9648Q65.7715-63.9648 71.7773-60.4004Q77.7832-56.8359 81.1523-50.3662Q84.5215-43.8965 84.5215-35.3027Q84.5215-28.7598 82.9102-23.0713Q81.2988-17.3828 78.4668-12.3047Q77.832-11.2793 76.9043-10.8398Q75.9766-10.4004 75.0488-10.5957Q73.0469-8.69141 70.0684-9.61914Q67.7734-10.2539 66.7969-12.0361Q65.8203-13.8184 66.5039-16.1133L70.3613-28.6133Q70.9961-30.957 72.7783-31.9092Q74.5605-32.8613 76.8555-32.1777Q77.9785-31.8848 78.9062-31.1523Q79.0527-32.1777 79.1016-33.2031Q79.1504-34.2285 79.1504-35.3027Q79.1504-42.2852 76.4404-47.5342Q73.7305-52.7832 68.9209-55.7129Q64.1113-58.6426 57.7148-58.6426Q51.3672-58.6426 46.582-55.7129Q41.7969-52.7832 39.1113-47.5342Q36.4258-42.2852 36.4258-35.3027Q36.4258-34.2285 36.4502-33.2275Q36.4746-32.2266 36.6211-31.2012Q37.4512-31.8359 38.5742-32.1777Q40.918-32.8613 42.7002-31.9092Q44.4824-30.957 45.166-28.6133L48.9258-16.1133Q49.6582-13.8672 48.6816-12.0605Q47.7051-10.2539 45.4102-9.61914Q42.4316-8.59375 40.4297-10.5957Q39.4531-10.4004 38.5498-10.8398Q37.6465-11.2793 37.0605-12.3047Q34.1797-17.2852 32.6172-22.998Q31.0547-28.7109 31.0547-35.3027Z"/>
  </g>
  <g id="Thin-M" transform="matrix(1 0 0 1 799.782 1126)">
   <path d="M56.5918 12.6465Q66.5039 12.6465 75.1709 8.93555Q83.8379 5.22461 90.4297-1.3916Q97.0215-8.00781 100.781-16.6748Q104.541-25.3418 104.541-35.2051Q104.541-45.0684 100.781-53.7354Q97.0215-62.4023 90.4297-69.0186Q83.8379-75.6348 75.1709-79.3457Q66.5039-83.0566 56.5918-83.0566Q46.7285-83.0566 38.0615-79.3457Q29.3945-75.6348 22.8271-69.0186Q16.2598-62.4023 12.5-53.7354Q8.74023-45.0684 8.74023-35.2051Q8.74023-25.3418 12.4756-16.6748Q16.2109-8.00781 22.8027-1.3916Q29.3945 5.22461 38.0859 8.93555Q46.7773 12.6465 56.5918 12.6465ZM30.7129-35.3516Q30.7129-43.7988 33.9355-50.0732Q37.1582-56.3477 42.9932-59.8145Q48.8281-63.2812 56.6406-63.2812Q64.4531-63.2812 70.2637-59.8145Q76.0742-56.3477 79.3213-50.0732Q82.5684-43.7988 82.5684-35.3516Q82.5684-29.4434 81.0303-23.6084Q79.4922-17.7734 76.709-12.793Q76.3184-12.1094 75.7568-11.6699Q75.1953-11.2305 74.6094-11.084Q72.998-9.66797 70.5566-10.4492Q68.5547-11.0352 67.749-12.5977Q66.9434-14.1602 67.5293-16.1133L71.6309-28.7109Q72.2168-30.7129 73.7549-31.4941Q75.293-32.2754 77.3438-31.6406Q78.1738-31.4453 78.9062-30.9082Q79.0527-32.0312 79.1016-33.1543Q79.1504-34.2773 79.1504-35.3516Q79.1504-42.6758 76.3184-48.1934Q73.4863-53.7109 68.4082-56.7871Q63.3301-59.8633 56.6406-59.8633Q49.9023-59.8633 44.8486-56.7871Q39.7949-53.7109 36.9629-48.1934Q34.1309-42.6758 34.1309-35.3516Q34.1309-34.2773 34.1797-33.1543Q34.2285-32.0312 34.375-30.9082Q35.0586-31.4453 35.8887-31.6406Q37.9395-32.2754 39.4775-31.4941Q41.0156-30.7129 41.6504-28.7109L45.6543-16.1621Q46.3379-14.1602 45.5322-12.5977Q44.7266-11.0352 42.6758-10.4492Q40.2832-9.61914 38.623-11.084Q38.0371-11.2305 37.5-11.6699Q36.9629-12.1094 36.5234-12.793Q33.7402-17.7246 32.2266-23.5596Q30.7129-29.3945 30.7129-35.3516Z"/>
  </g>
  <g id="Ultralight-M" transform="matrix(1 0 0 1 503.632 1126)">
   <path d="M56.0547 12.1094Q65.8203 12.1094 74.3896 8.42285Q82.959 4.73633 89.4775-1.78223Q95.9961-8.30078 99.707-16.8701Q103.418-25.4395 103.418-35.2051Q103.418-44.9707 99.707-53.54Q95.9961-62.1094 89.4775-68.6279Q82.959-75.1465 74.3896-78.833Q65.8203-82.5195 56.0547-82.5195Q46.2891-82.5195 37.7197-78.833Q29.1504-75.1465 22.6562-68.6279Q16.1621-62.1094 12.4512-53.54Q8.74023-44.9707 8.74023-35.2051Q8.74023-25.4395 12.4268-16.8701Q16.1133-8.30078 22.6318-1.78223Q29.1504 4.73633 37.7197 8.42285Q46.2891 12.1094 56.0547 12.1094ZM30.5176-35.4004Q30.5176-43.7012 33.6914-49.9023Q36.8652-56.1035 42.6025-59.4971Q48.3398-62.8906 56.0547-62.8906Q63.7207-62.8906 69.458-59.4971Q75.1953-56.1035 78.3936-49.9023Q81.5918-43.7012 81.5918-35.4004Q81.5918-29.7852 80.0781-23.877Q78.5645-17.9688 75.8301-13.0371Q75.4883-12.5 75.1465-12.0605Q74.8047-11.6211 74.3652-11.2793Q72.9492-10.1562 70.8008-10.8887Q68.9453-11.4258 68.2129-12.8662Q67.4805-14.3066 68.0664-16.1621L72.2168-28.7598Q72.8516-30.6152 74.2432-31.2988Q75.6348-31.9824 77.5391-31.3965Q78.2227-31.25 78.9062-30.7617Q79.0527-31.9336 79.1016-33.1055Q79.1504-34.2773 79.1504-35.4004Q79.1504-42.8711 76.2451-48.5352Q73.3398-54.1992 68.1396-57.373Q62.9395-60.5469 56.0547-60.5469Q49.1211-60.5469 43.9453-57.373Q38.7695-54.1992 35.8643-48.5352Q32.959-42.8711 32.959-35.4004Q32.959-34.2773 33.0078-33.1299Q33.0566-31.9824 33.2031-30.7617Q33.8379-31.2012 34.5215-31.3965Q36.4258-31.9824 37.8418-31.2988Q39.2578-30.6152 39.8438-28.7598L43.9453-16.1621Q44.5801-14.3066 43.8477-12.8662Q43.1152-11.4258 41.2598-10.8887Q39.1113-10.1074 37.6953-11.2793Q37.3047-11.6211 36.9385-12.0605Q36.5723-12.5 36.2793-13.0371Q33.4473-17.9199 31.9824-23.8525Q30.5176-29.7852 30.5176-35.4004Z"/>
  </g>
  <g id="Black-S" transform="matrix(1 0 0 1 2884.57 696)">
   <path d="M48.8281 6.83594Q57.5195 6.83594 65.1123 3.56445Q72.7051 0.292969 78.4912-5.49316Q84.2773-11.2793 87.5488-18.8721Q90.8203-26.4648 90.8203-35.1562Q90.8203-43.8477 87.5488-51.4404Q84.2773-59.0332 78.4912-64.8193Q72.7051-70.6055 65.1123-73.877Q57.5195-77.1484 48.8281-77.1484Q40.1367-77.1484 32.5439-73.877Q24.9512-70.6055 19.165-64.8193Q13.3789-59.0332 10.1074-51.4404Q6.83594-43.8477 6.83594-35.1562Q6.83594-26.4648 10.1074-18.8721Q13.3789-11.2793 19.165-5.49316Q24.9512 0.292969 32.5439 3.56445Q40.1367 6.83594 48.8281 6.83594ZM28.5156-35.2051Q28.5156-41.6992 31.0547-46.582Q33.5938-51.4648 38.1836-54.1992Q42.7734-56.9336 48.877-56.9336Q54.9805-56.9336 59.5947-54.1992Q64.209-51.4648 66.7725-46.582Q69.3359-41.6992 69.3359-35.2051Q69.3359-29.8828 68.1152-25.8301Q66.8945-21.7773 64.6973-17.9199Q64.0625-16.7969 62.8662-16.4795Q61.6699-16.1621 60.5469-16.748Q58.8379-15.0391 56.2012-15.8203Q54.248-16.3574 53.3936-17.8467Q52.5391-19.3359 53.0273-21.2891L55.6152-30.3223Q56.2012-32.3242 57.7393-33.1787Q59.2773-34.0332 61.1816-33.4961Q62.1094-33.2031 62.8906-32.666Q62.9395-33.252 62.9639-33.9111Q62.9883-34.5703 62.9883-35.2051Q62.9883-39.8438 61.2305-43.2861Q59.4727-46.7285 56.2988-48.6572Q53.125-50.5859 48.877-50.5859Q44.6289-50.5859 41.4795-48.6816Q38.3301-46.7773 36.5967-43.3105Q34.8633-39.8438 34.8633-35.2051Q34.8633-34.5703 34.8877-33.9355Q34.9121-33.3008 34.9609-32.7148Q35.5469-33.2031 36.5723-33.4961Q38.5254-34.0332 40.0635-33.1787Q41.6016-32.3242 42.1875-30.3223L44.7266-21.3379Q45.2637-19.3848 44.4092-17.8711Q43.5547-16.3574 41.5527-15.8203Q39.0137-14.9902 37.207-16.748Q36.084-16.1621 34.9365-16.5039Q33.7891-16.8457 33.1055-17.9199Q30.957-21.582 29.7363-25.6592Q28.5156-29.7363 28.5156-35.2051Z"/>
  </g>
  <g id="Heavy-S" transform="matrix(1 0 0 1 2588.47 696)">
   <path d="M48.1934 6.20117Q56.7871 6.20117 64.2578 2.97852Q71.7285-0.244141 77.4414-5.95703Q83.1543-11.6699 86.377-19.1406Q89.5996-26.6113 89.5996-35.1562Q89.5996-43.7012 86.377-51.1963Q83.1543-58.6914 77.4414-64.4043Q71.7285-70.1172 64.2334-73.3398Q56.7383-76.5625 48.1934-76.5625Q39.6484-76.5625 32.1777-73.3398Q24.707-70.1172 18.9941-64.4043Q13.2812-58.6914 10.0586-51.1963Q6.83594-43.7012 6.83594-35.1562Q6.83594-26.6113 10.0586-19.1406Q13.2812-11.6699 18.9941-5.95703Q24.707-0.244141 32.2021 2.97852Q39.6973 6.20117 48.1934 6.20117ZM27.5879-35.2051Q27.5879-41.7969 30.1758-46.7529Q32.7637-51.709 37.4023-54.4922Q42.041-57.2754 48.2422-57.2754Q54.4434-57.2754 59.1309-54.4922Q63.8184-51.709 66.4062-46.7529Q68.9941-41.7969 68.9941-35.2051Q68.9941-29.7852 67.7734-25.6592Q66.5527-21.5332 64.3066-17.627Q63.6719-16.5039 62.5-16.1865Q61.3281-15.8691 60.2051-16.4062Q58.4473-14.6484 55.7617-15.4297Q53.7598-15.9668 52.9053-17.5049Q52.0508-19.043 52.5391-20.9961L55.1758-30.2246Q55.7617-32.2266 57.3242-33.1055Q58.8867-33.9844 60.8398-33.4473Q61.8164-33.1543 62.6465-32.5195Q62.6953-33.1543 62.7197-33.8379Q62.7441-34.5215 62.7441-35.2051Q62.7441-39.9414 60.9375-43.4814Q59.1309-47.0215 55.8594-48.999Q52.5879-50.9766 48.2422-50.9766Q43.8965-50.9766 40.6738-49.0234Q37.4512-47.0703 35.6689-43.5059Q33.8867-39.9414 33.8867-35.2051Q33.8867-34.5215 33.9111-33.8623Q33.9355-33.2031 33.9844-32.6172Q34.6191-33.1055 35.6445-33.4473Q37.6465-33.9844 39.209-33.1055Q40.7715-32.2266 41.3574-30.2246L43.9453-21.0449Q44.4824-19.0918 43.6279-17.5293Q42.7734-15.9668 40.7227-15.4297Q38.1348-14.5996 36.2793-16.4062Q35.1562-15.8691 34.0332-16.2109Q32.9102-16.5527 32.2266-17.627Q30.0293-21.3379 28.8086-25.4883Q27.5879-29.6387 27.5879-35.2051Z"/>
  </g>
  <g id="Bold-S" transform="matrix(1 0 0 1 2292.42 696)">
   <path d="M47.5586 5.51758Q55.957 5.51758 63.3057 2.34375Q70.6543-0.830078 76.2695-6.46973Q81.8848-12.1094 85.083-19.458Q88.2812-26.8066 88.2812-35.2051Q88.2812-43.5547 85.083-50.9277Q81.8848-58.3008 76.2695-63.916Q70.6543-69.5312 63.2812-72.7051Q55.9082-75.8789 47.5098-75.8789Q39.1602-75.8789 31.7871-72.7051Q24.4141-69.5312 18.8232-63.916Q13.2324-58.3008 10.0342-50.9277Q6.83594-43.5547 6.83594-35.2051Q6.83594-26.8066 10.0342-19.458Q13.2324-12.1094 18.8477-6.46973Q24.4629-0.830078 31.8115 2.34375Q39.1602 5.51758 47.5586 5.51758ZM26.6113-35.2051Q26.6113-41.9434 29.248-46.9971Q31.8848-52.0508 36.6211-54.8584Q41.3574-57.666 47.6074-57.666Q53.9062-57.666 58.667-54.8584Q63.4277-52.0508 66.0645-46.9971Q68.7012-41.9434 68.7012-35.2051Q68.7012-29.7363 67.4561-25.5371Q66.2109-21.3379 63.9648-17.334Q63.3301-16.2598 62.1826-15.918Q61.0352-15.5762 59.9121-16.1133Q58.1055-14.2578 55.3223-15.0879Q53.3203-15.625 52.4414-17.1875Q51.5625-18.75 52.0996-20.752L54.7852-30.1758Q55.3711-32.2266 56.958-33.1055Q58.5449-33.9844 60.498-33.4473Q61.5723-33.1055 62.4023-32.4707Q62.4512-33.1055 62.4756-33.8135Q62.5-34.5215 62.5-35.2051Q62.5-40.0879 60.6445-43.75Q58.7891-47.4121 55.4443-49.4385Q52.0996-51.4648 47.6074-51.4648Q43.1641-51.4648 39.8438-49.4629Q36.5234-47.4609 34.668-43.7988Q32.8125-40.1367 32.8125-35.2051Q32.8125-34.5215 32.8369-33.8379Q32.8613-33.1543 32.9102-32.5195Q33.5938-33.1055 34.7168-33.4473Q36.7188-33.9844 38.3301-33.1055Q39.9414-32.2266 40.4785-30.1758L43.1641-20.8008Q43.7012-18.7988 42.8223-17.2119Q41.9434-15.625 39.8926-15.0879Q37.207-14.209 35.3516-16.1133Q34.2285-15.5762 33.1055-15.918Q31.9824-16.2598 31.3477-17.334Q29.1016-21.1426 27.8564-25.3662Q26.6113-29.5898 26.6113-35.2051Z"/>
  </g>
  <g id="Semibold-S" transform="matrix(1 0 0 1 1996.2 696)">
   <path d="M47.0703 5.0293Q55.3711 5.0293 62.6465 1.9043Q69.9219-1.2207 75.4639-6.81152Q81.0059-12.4023 84.1553-19.6777Q87.3047-26.9531 87.3047-35.2051Q87.3047-43.457 84.1553-50.7324Q81.0059-58.0078 75.4395-63.5742Q69.873-69.1406 62.5977-72.29Q55.3223-75.4395 47.0215-75.4395Q38.7695-75.4395 31.4941-72.29Q24.2188-69.1406 18.6768-63.5742Q13.1348-58.0078 9.98535-50.7324Q6.83594-43.457 6.83594-35.2051Q6.83594-26.9531 9.98535-19.6777Q13.1348-12.4023 18.7012-6.81152Q24.2676-1.2207 31.543 1.9043Q38.8184 5.0293 47.0703 5.0293ZM25.8789-35.2051Q25.8789-41.9922 28.54-47.0947Q31.2012-52.1973 35.9863-55.0537Q40.7715-57.9102 47.1191-57.9102Q53.4668-57.9102 58.2764-55.0537Q63.0859-52.1973 65.7471-47.0947Q68.4082-41.9922 68.4082-35.2051Q68.4082-29.6387 67.1387-25.3906Q65.8691-21.1426 63.623-17.0898Q62.9883-16.0156 61.8652-15.6738Q60.7422-15.332 59.6191-15.8691Q57.8125-13.9648 54.9805-14.7949Q52.9297-15.332 52.0264-16.9189Q51.123-18.5059 51.709-20.5078L54.4434-30.0781Q55.0293-32.1289 56.6406-33.0322Q58.252-33.9355 60.2051-33.3984Q61.3281-33.0566 62.207-32.3242Q62.2559-33.0566 62.2803-33.7646Q62.3047-34.4727 62.3047-35.2051Q62.3047-40.1367 60.4004-43.8721Q58.4961-47.6074 55.0781-49.6826Q51.6602-51.7578 47.1191-51.7578Q42.5781-51.7578 39.1846-49.707Q35.791-47.6562 33.9111-43.9209Q32.0312-40.1855 32.0312-35.2051Q32.0312-34.4727 32.0557-33.7891Q32.0801-33.1055 32.1289-32.4219Q32.8613-33.0078 33.9844-33.3984Q36.0352-33.9355 37.6465-33.0322Q39.2578-32.1289 39.7949-30.0781L42.5293-20.5566Q43.1152-18.5547 42.2119-16.9434Q41.3086-15.332 39.2578-14.7949Q36.5234-13.916 34.6191-15.8691Q33.4961-15.332 32.3975-15.6738Q31.2988-16.0156 30.6641-17.0898Q28.3691-20.9473 27.124-25.2441Q25.8789-29.541 25.8789-35.2051Z"/>
  </g>
  <g id="Medium-S" transform="matrix(1 0 0 1 1699.83 696)">
   <path d="M46.7285 4.6875Q54.9316 4.6875 62.1338 1.5625Q69.3359-1.5625 74.8535-7.08008Q80.3711-12.5977 83.4961-19.7998Q86.6211-27.002 86.6211-35.2051Q86.6211-43.3594 83.4961-50.5859Q80.3711-57.8125 74.8291-63.3301Q69.2871-68.8477 62.085-71.9482Q54.8828-75.0488 46.6797-75.0488Q38.4766-75.0488 31.2744-71.9482Q24.0723-68.8477 18.5791-63.3301Q13.0859-57.8125 9.96094-50.5859Q6.83594-43.3594 6.83594-35.2051Q6.83594-27.002 9.96094-19.7998Q13.0859-12.5977 18.6035-7.08008Q24.1211-1.5625 31.3232 1.5625Q38.5254 4.6875 46.7285 4.6875ZM25.3418-35.2051Q25.3418-42.0898 28.0273-47.2412Q30.7129-52.3926 35.5469-55.2734Q40.3809-58.1543 46.7285-58.1543Q53.1738-58.1543 58.0078-55.2734Q62.8418-52.3926 65.5518-47.2412Q68.2617-42.0898 68.2617-35.2051Q68.2617-29.6387 66.9678-25.3418Q65.6738-21.0449 63.4277-16.9922Q62.793-15.8691 61.6699-15.5518Q60.5469-15.2344 59.4238-15.7227Q57.5684-13.7695 54.6875-14.6484Q52.6367-15.1855 51.7334-16.7725Q50.8301-18.3594 51.416-20.3613L54.1992-30.0781Q54.7852-32.1289 56.3965-33.0566Q58.0078-33.9844 60.0098-33.3984Q61.1328-33.0566 62.0605-32.3242Q62.1094-33.0078 62.1338-33.7402Q62.1582-34.4727 62.1582-35.2051Q62.1582-40.2832 60.2295-44.0674Q58.3008-47.8516 54.834-49.9512Q51.3672-52.0508 46.7285-52.0508Q42.1387-52.0508 38.6963-49.9756Q35.2539-47.9004 33.3496-44.0918Q31.4453-40.2832 31.4453-35.2051Q31.4453-34.4727 31.4697-33.7646Q31.4941-33.0566 31.543-32.4219Q32.2754-33.0078 33.4473-33.3984Q35.498-33.9844 37.1338-33.0566Q38.7695-32.1289 39.3555-30.0781L42.0898-20.4102Q42.627-18.4082 41.748-16.7969Q40.8691-15.1855 38.7695-14.6484Q35.9863-13.7207 34.082-15.7227Q32.959-15.2344 31.8604-15.5762Q30.7617-15.918 30.1758-16.9922Q27.8809-20.8984 26.6113-25.1953Q25.3418-29.4922 25.3418-35.2051Z"/>
  </g>
  <g id="Regular-S" transform="matrix(1 0 0 1 1403.58 696)">
   <path d="M46.2402 4.19922Q54.3457 4.19922 61.4746 1.12305Q68.6035-1.95312 74.0479-7.42188Q79.4922-12.8906 82.5928-20.0195Q85.6934-27.1484 85.6934-35.2051Q85.6934-43.2617 82.5928-50.3906Q79.4922-57.5195 74.0234-62.9883Q68.5547-68.457 61.4258-71.5332Q54.2969-74.6094 46.1914-74.6094Q38.1348-74.6094 31.0059-71.5332Q23.877-68.457 18.457-62.9883Q13.0371-57.5195 9.93652-50.3906Q6.83594-43.2617 6.83594-35.2051Q6.83594-27.1484 9.93652-20.0195Q13.0371-12.8906 18.4814-7.42188Q23.9258-1.95312 31.0547 1.12305Q38.1836 4.19922 46.2402 4.19922ZM24.6582-35.2051Q24.6582-42.1387 27.3682-47.3633Q30.0781-52.5879 34.9609-55.4932Q39.8438-58.3984 46.2891-58.3984Q52.7832-58.3984 57.666-55.4932Q62.5488-52.5879 65.2832-47.3633Q68.0176-42.1387 68.0176-35.2051Q68.0176-29.541 66.7236-25.1953Q65.4297-20.8496 63.1348-16.748Q62.5-15.6738 61.4014-15.332Q60.3027-14.9902 59.1797-15.4785Q57.3242-13.4766 54.3945-14.3555Q52.2949-14.8926 51.3916-16.5039Q50.4883-18.1152 51.0742-20.166L53.9062-29.9805Q54.4922-32.0801 56.1279-33.0078Q57.7637-33.9355 59.7656-33.3496Q60.9375-33.0078 61.8652-32.2266Q61.9141-32.959 61.9385-33.6914Q61.9629-34.4238 61.9629-35.2051Q61.9629-40.332 60.0098-44.1895Q58.0566-48.0469 54.5166-50.1953Q50.9766-52.3438 46.2891-52.3438Q41.6016-52.3438 38.1104-50.2197Q34.6191-48.0957 32.666-44.2383Q30.7129-40.3809 30.7129-35.2051Q30.7129-34.4238 30.7373-33.7158Q30.7617-33.0078 30.8105-32.3242Q31.5918-32.959 32.7637-33.3496Q34.8633-33.9355 36.5234-33.0078Q38.1836-32.0801 38.7207-29.9805L41.5039-20.2148Q42.0898-18.1641 41.1865-16.5283Q40.2832-14.8926 38.1836-14.3555Q35.3516-13.4277 33.3984-15.4785Q32.2754-14.9902 31.2012-15.332Q30.127-15.6738 29.541-16.748Q27.1973-20.7031 25.9277-25.0732Q24.6582-29.4434 24.6582-35.2051Z"/>
  </g>
  <g id="Light-S" transform="matrix(1 0 0 1 1107.6 696)">
   <path d="M45.5078 3.4668Q53.4668 3.4668 60.4736 0.463867Q67.4805-2.53906 72.8271-7.91016Q78.1738-13.2812 81.2012-20.2637Q84.2285-27.2461 84.2285-35.2051Q84.2285-43.1641 81.2012-50.1465Q78.1738-57.1289 72.8027-62.5Q67.4316-67.8711 60.4492-70.874Q53.4668-73.877 45.459-73.877Q37.5488-73.877 30.542-70.874Q23.5352-67.8711 18.2129-62.5Q12.8906-57.1289 9.86328-50.1465Q6.83594-43.1641 6.83594-35.2051Q6.83594-27.2461 9.86328-20.2637Q12.8906-13.2812 18.2373-7.91016Q23.584-2.53906 30.5908 0.463867Q37.5977 3.4668 45.5078 3.4668ZM24.4141-35.2539Q24.4141-42.041 27.0508-47.1436Q29.6875-52.2461 34.4482-55.0781Q39.209-57.9102 45.5078-57.9102Q51.9043-57.9102 56.665-55.0781Q61.4258-52.2461 64.0625-47.1436Q66.6992-42.041 66.6992-35.2539Q66.6992-29.9805 65.4541-25.5371Q64.209-21.0938 61.9629-17.0898Q61.4746-16.2109 60.6201-15.8691Q59.7656-15.5273 58.8867-15.7715Q57.2754-14.1113 54.7363-14.8926Q52.832-15.4297 52.0264-16.8701Q51.2207-18.3105 51.7578-20.2148L54.7363-30.0293Q55.2734-31.9336 56.7383-32.7393Q58.2031-33.5449 60.0586-33.0078Q61.0352-32.7148 61.8164-32.0801Q61.9141-32.8613 61.9385-33.6426Q61.9629-34.4238 61.9629-35.2539Q61.9629-40.625 59.9121-44.6533Q57.8613-48.6816 54.1504-50.9277Q50.4395-53.1738 45.5078-53.1738Q40.625-53.1738 36.9385-50.9277Q33.252-48.6816 31.2012-44.6533Q29.1504-40.625 29.1504-35.2539Q29.1504-34.4238 29.1992-33.667Q29.248-32.9102 29.2969-32.1289Q29.9805-32.666 30.957-33.0078Q32.8613-33.5449 34.3506-32.7393Q35.8398-31.9336 36.377-30.0293L39.3066-20.2148Q39.8438-18.3594 39.0381-16.8945Q38.2324-15.4297 36.3281-14.8926Q33.8867-14.1113 32.1777-15.7715Q31.2988-15.5273 30.4688-15.8691Q29.6387-16.2109 29.1992-17.0898Q26.9043-20.9961 25.6592-25.4639Q24.4141-29.9316 24.4141-35.2539Z"/>
  </g>
  <g id="Thin-S" transform="matrix(1 0 0 1 811.867 696)">
   <path d="M44.5312 2.49023Q52.3438 2.49023 59.1553-0.439453Q65.9668-3.36914 71.1914-8.59375Q76.416-13.8184 79.3457-20.6299Q82.2754-27.4414 82.2754-35.2051Q82.2754-42.9688 79.3457-49.7803Q76.416-56.5918 71.1914-61.8164Q65.9668-67.041 59.1553-69.9707Q52.3438-72.9004 44.5312-72.9004Q36.7676-72.9004 29.9316-69.9707Q23.0957-67.041 17.9199-61.8164Q12.7441-56.5918 9.79004-49.7803Q6.83594-42.9688 6.83594-35.2051Q6.83594-27.4414 9.79004-20.6299Q12.7441-13.8184 17.9199-8.59375Q23.0957-3.36914 29.9316-0.439453Q36.7676 2.49023 44.5312 2.49023ZM24.1211-35.3027Q24.1211-41.9434 26.6846-46.8994Q29.248-51.8555 33.8379-54.5898Q38.4277-57.3242 44.5801-57.3242Q50.7324-57.3242 55.3467-54.5898Q59.9609-51.8555 62.5-46.8994Q65.0391-41.9434 65.0391-35.3027Q65.0391-30.5664 63.8428-26.001Q62.6465-21.4355 60.4492-17.5293Q60.1074-16.9434 59.5947-16.6016Q59.082-16.2598 58.5449-16.1621Q57.2266-14.9902 55.1758-15.6738Q53.5645-16.1133 52.9053-17.3584Q52.2461-18.6035 52.7344-20.2148L55.8594-30.0781Q56.3477-31.7383 57.5928-32.373Q58.8379-33.0078 60.498-32.5195Q61.2305-32.3242 61.8164-31.8848Q61.9629-32.7637 61.9873-33.6182Q62.0117-34.4727 62.0117-35.3027Q62.0117-40.9668 59.8145-45.2393Q57.6172-49.5117 53.6865-51.9043Q49.7559-54.2969 44.5801-54.2969Q39.3555-54.2969 35.4248-51.9043Q31.4941-49.5117 29.3213-45.2393Q27.1484-40.9668 27.1484-35.3027Q27.1484-34.4727 27.1973-33.6182Q27.2461-32.7637 27.3438-31.8848Q27.9297-32.3242 28.6621-32.5195Q30.2734-33.0078 31.543-32.373Q32.8125-31.7383 33.3008-30.0781L36.377-20.2637Q36.9141-18.6035 36.2305-17.3584Q35.5469-16.1133 33.9355-15.6738Q31.9824-14.9902 30.6152-16.1621Q30.0293-16.2598 29.541-16.6016Q29.0527-16.9434 28.7109-17.5293Q26.5137-21.3867 25.3174-25.9521Q24.1211-30.5176 24.1211-35.3027Z"/>
  </g>
  <g id="Ultralight-S" transform="matrix(1 0 0 1 515.644 696)">
   <path d="M44.043 2.00195Q51.7578 2.00195 58.4717-0.878906Q65.1855-3.75977 70.3369-8.91113Q75.4883-14.0625 78.3936-20.7764Q81.2988-27.4902 81.2988-35.2051Q81.2988-42.9199 78.3936-49.6338Q75.4883-56.3477 70.3369-61.499Q65.1855-66.6504 58.4717-69.5312Q51.7578-72.4121 44.043-72.4121Q36.377-72.4121 29.6387-69.5312Q22.9004-66.6504 17.7734-61.499Q12.6465-56.3477 9.74121-49.6338Q6.83594-42.9199 6.83594-35.2051Q6.83594-27.4902 9.74121-20.7764Q12.6465-14.0625 17.7734-8.91113Q22.9004-3.75977 29.6387-0.878906Q36.377 2.00195 44.043 2.00195ZM23.9746-35.3516Q23.9746-41.8457 26.4893-46.7285Q29.0039-51.6113 33.5205-54.2969Q38.0371-56.9824 44.043-56.9824Q50.1465-56.9824 54.6631-54.2969Q59.1797-51.6113 61.6699-46.7285Q64.1602-41.8457 64.1602-35.3516Q64.1602-30.8594 62.9883-26.2451Q61.8164-21.6309 59.668-17.7246Q59.4238-17.2852 59.0576-16.9434Q58.6914-16.6016 58.3496-16.4062Q57.1777-15.4297 55.4199-16.0156Q53.9062-16.5039 53.3203-17.627Q52.7344-18.75 53.2227-20.2637L56.4453-30.127Q56.8848-31.6406 58.0322-32.2021Q59.1797-32.7637 60.6934-32.2754Q61.2793-32.1289 61.8164-31.7871Q61.9629-32.666 61.9873-33.5693Q62.0117-34.4727 62.0117-35.3516Q62.0117-41.1621 59.7656-45.5322Q57.5195-49.9023 53.4668-52.3682Q49.4141-54.834 44.043-54.834Q38.6719-54.834 34.6436-52.3682Q30.6152-49.9023 28.3691-45.5322Q26.123-41.1621 26.123-35.3516Q26.123-34.4727 26.1719-33.5693Q26.2207-32.666 26.3184-31.7871Q26.8555-32.1289 27.4414-32.2754Q28.9551-32.7637 30.1025-32.2021Q31.25-31.6406 31.7383-30.127L34.9121-20.2637Q35.4004-18.75 34.79-17.627Q34.1797-16.5039 32.7148-16.0156Q31.0059-15.4297 29.7852-16.4062Q29.3945-16.6016 29.0771-16.9434Q28.7598-17.2852 28.5156-17.7246Q26.3184-21.6309 25.1465-26.2451Q23.9746-30.8594 23.9746-35.3516Z"/>
  </g>
 </g>
</svg>
