<?xml version="1.0" encoding="UTF-8"?>
<!--Generator: Apple Native CoreSVG 149-->
<!DOCTYPE svg
PUBLIC "-//W3C//DTD SVG 1.1//EN"
       "http://www.w3.org/Graphics/SVG/1.1/DTD/svg11.dtd">
<svg version="1.1" xmlns="http://www.w3.org/2000/svg" xmlns:xlink="http://www.w3.org/1999/xlink" width="3300" height="2200">
 <!--glyph: "uni1008BD.medium", point size: 100.000000, font version: "Version 16.0d18e1", template writer version: "8"-->
 <g id="Notes">
  <rect height="2200" id="artboard" style="fill:white;opacity:1" width="3300" x="0" y="0"/>
  <line id="" style="fill:none;stroke:black;opacity:1;stroke-width:0.5;" x1="263" x2="3036" y1="292" y2="292"/>
  <text style="stroke:none;fill:black;font-family:-apple-system,&quot;SF Pro Display&quot;,&quot;SF Pro Text&quot;,Helvetica,sans-serif;font-weight:bold;" transform="matrix(1 0 0 1 263 322)">Weight/Scale Variations</text>
  <text style="stroke:none;fill:black;font-family:-apple-system,&quot;SF Pro Display&quot;,&quot;SF Pro Text&quot;,Helvetica,sans-serif;text-anchor:middle;" transform="matrix(1 0 0 1 559.711 322)">Ultralight</text>
  <text style="stroke:none;fill:black;font-family:-apple-system,&quot;SF Pro Display&quot;,&quot;SF Pro Text&quot;,Helvetica,sans-serif;text-anchor:middle;" transform="matrix(1 0 0 1 856.422 322)">Thin</text>
  <text style="stroke:none;fill:black;font-family:-apple-system,&quot;SF Pro Display&quot;,&quot;SF Pro Text&quot;,Helvetica,sans-serif;text-anchor:middle;" transform="matrix(1 0 0 1 1153.13 322)">Light</text>
  <text style="stroke:none;fill:black;font-family:-apple-system,&quot;SF Pro Display&quot;,&quot;SF Pro Text&quot;,Helvetica,sans-serif;text-anchor:middle;" transform="matrix(1 0 0 1 1449.84 322)">Regular</text>
  <text style="stroke:none;fill:black;font-family:-apple-system,&quot;SF Pro Display&quot;,&quot;SF Pro Text&quot;,Helvetica,sans-serif;text-anchor:middle;" transform="matrix(1 0 0 1 1746.56 322)">Medium</text>
  <text style="stroke:none;fill:black;font-family:-apple-system,&quot;SF Pro Display&quot;,&quot;SF Pro Text&quot;,Helvetica,sans-serif;text-anchor:middle;" transform="matrix(1 0 0 1 2043.27 322)">Semibold</text>
  <text style="stroke:none;fill:black;font-family:-apple-system,&quot;SF Pro Display&quot;,&quot;SF Pro Text&quot;,Helvetica,sans-serif;text-anchor:middle;" transform="matrix(1 0 0 1 2339.98 322)">Bold</text>
  <text style="stroke:none;fill:black;font-family:-apple-system,&quot;SF Pro Display&quot;,&quot;SF Pro Text&quot;,Helvetica,sans-serif;text-anchor:middle;" transform="matrix(1 0 0 1 2636.69 322)">Heavy</text>
  <text style="stroke:none;fill:black;font-family:-apple-system,&quot;SF Pro Display&quot;,&quot;SF Pro Text&quot;,Helvetica,sans-serif;text-anchor:middle;" transform="matrix(1 0 0 1 2933.4 322)">Black</text>
  <line id="" style="fill:none;stroke:black;opacity:1;stroke-width:0.5;" x1="263" x2="3036" y1="1903" y2="1903"/>
  <g id="" transform="matrix(1 0 0 1 263 1933)">
   <path d="M9.24805 0.830078C13.5547 0.830078 17.1387-2.74414 17.1387-7.05078C17.1387-11.3574 13.5449-14.9316 9.23828-14.9316C4.94141-14.9316 1.36719-11.3574 1.36719-7.05078C1.36719-2.74414 4.95117 0.830078 9.24805 0.830078ZM9.24805-0.654297C5.70312-0.654297 2.87109-3.49609 2.87109-7.05078C2.87109-10.6055 5.69336-13.4473 9.23828-13.4473C12.793-13.4473 15.6348-10.6055 15.6445-7.05078C15.6543-3.49609 12.8027-0.654297 9.24805-0.654297ZM6.39648-6.31836L8.50586-6.31836L8.50586-4.19922C8.50586-3.75977 8.79883-3.45703 9.22852-3.45703C9.67773-3.45703 9.9707-3.75977 9.9707-4.19922L9.9707-6.31836L12.0996-6.31836C12.5391-6.31836 12.8418-6.61133 12.8418-7.04102C12.8418-7.48047 12.5391-7.7832 12.0996-7.7832L9.9707-7.7832L9.9707-9.89258C9.9707-10.3418 9.67773-10.6445 9.22852-10.6445C8.79883-10.6445 8.50586-10.3418 8.50586-9.89258L8.50586-7.7832L6.39648-7.7832C5.94727-7.7832 5.64453-7.48047 5.64453-7.04102C5.64453-6.61133 5.94727-6.31836 6.39648-6.31836Z"/>
  </g>
  <g id="" transform="matrix(1 0 0 1 281.506 1933)">
   <path d="M11.709 2.91016C17.1582 2.91016 21.6699-1.61133 21.6699-7.05078C21.6699-12.5 17.1484-17.0117 11.6992-17.0117C6.25977-17.0117 1.74805-12.5 1.74805-7.05078C1.74805-1.61133 6.26953 2.91016 11.709 2.91016ZM11.709 1.25C7.09961 1.25 3.41797-2.44141 3.41797-7.05078C3.41797-11.6602 7.08984-15.3516 11.6992-15.3516C16.3086-15.3516 20-11.6602 20.0098-7.05078C20.0195-2.44141 16.3184 1.25 11.709 1.25ZM7.98828-6.23047L10.8789-6.23047L10.8789-3.32031C10.8789-2.83203 11.2109-2.5 11.6895-2.5C12.1777-2.5 12.5195-2.83203 12.5195-3.32031L12.5195-6.23047L15.4297-6.23047C15.918-6.23047 16.25-6.5625 16.25-7.04102C16.25-7.5293 15.918-7.87109 15.4297-7.87109L12.5195-7.87109L12.5195-10.7617C12.5195-11.2695 12.1777-11.6016 11.6895-11.6016C11.2109-11.6016 10.8789-11.2598 10.8789-10.7617L10.8789-7.87109L7.98828-7.87109C7.48047-7.87109 7.14844-7.5293 7.14844-7.04102C7.14844-6.5625 7.49023-6.23047 7.98828-6.23047Z"/>
  </g>
  <g id="" transform="matrix(1 0 0 1 304.924 1933)">
   <path d="M14.9707 5.66406C21.9336 5.66406 27.6953-0.0976562 27.6953-7.05078C27.6953-14.0137 21.9238-19.7754 14.9609-19.7754C8.00781-19.7754 2.25586-14.0137 2.25586-7.05078C2.25586-0.0976562 8.01758 5.66406 14.9707 5.66406ZM14.9707 3.84766C8.93555 3.84766 4.08203-1.01562 4.08203-7.05078C4.08203-13.0957 8.92578-17.9492 14.9609-17.9492C21.0059-17.9492 25.8594-13.0957 25.8691-7.05078C25.8789-1.01562 21.0156 3.84766 14.9707 3.84766ZM10.0586-6.14258L14.0625-6.14258L14.0625-2.12891C14.0625-1.5918 14.4336-1.2207 14.9512-1.2207C15.4883-1.2207 15.8594-1.5918 15.8594-2.12891L15.8594-6.14258L19.8828-6.14258C20.4102-6.14258 20.791-6.51367 20.791-7.03125C20.791-7.56836 20.4199-7.94922 19.8828-7.94922L15.8594-7.94922L15.8594-11.9531C15.8594-12.5098 15.4883-12.8809 14.9512-12.8809C14.4336-12.8809 14.0625-12.5 14.0625-11.9531L14.0625-7.94922L10.0586-7.94922C9.50195-7.94922 9.13086-7.56836 9.13086-7.03125C9.13086-6.51367 9.51172-6.14258 10.0586-6.14258Z"/>
  </g>
  <text style="stroke:none;fill:black;font-family:-apple-system,&quot;SF Pro Display&quot;,&quot;SF Pro Text&quot;,Helvetica,sans-serif;font-weight:bold;" transform="matrix(1 0 0 1 263 1953)">Design Variations</text>
  <text style="stroke:none;fill:black;font-family:-apple-system,&quot;SF Pro Display&quot;,&quot;SF Pro Text&quot;,Helvetica,sans-serif;" transform="matrix(1 0 0 1 263 1971)">Symbols are supported in up to nine weights and three scales.</text>
  <text style="stroke:none;fill:black;font-family:-apple-system,&quot;SF Pro Display&quot;,&quot;SF Pro Text&quot;,Helvetica,sans-serif;" transform="matrix(1 0 0 1 263 1989)">For optimal layout with text and other symbols, vertically align</text>
  <text style="stroke:none;fill:black;font-family:-apple-system,&quot;SF Pro Display&quot;,&quot;SF Pro Text&quot;,Helvetica,sans-serif;" transform="matrix(1 0 0 1 263 2007)">symbols with the adjacent text.</text>
  <line id="" style="fill:none;stroke:#00AEEF;stroke-width:0.5;opacity:1.0;" x1="776" x2="776" y1="1919" y2="1933"/>
  <g id="" transform="matrix(1 0 0 1 776 1933)">
   <path d="M3.31055 0.126953C3.82812 0.126953 4.08203-0.0683594 4.26758-0.605469L5.52734-4.0625L11.2891-4.0625L12.5488-0.605469C12.7344-0.0683594 12.9883 0.126953 13.4961 0.126953C14.0137 0.126953 14.3457-0.185547 14.3457-0.673828C14.3457-0.839844 14.3164-0.986328 14.2383-1.20117L9.6582-13.3887C9.43359-13.9941 9.0332-14.2871 8.4082-14.2871C7.80273-14.2871 7.39258-13.9941 7.17773-13.3984L2.59766-1.19141C2.51953-0.976562 2.49023-0.830078 2.49023-0.664062C2.49023-0.175781 2.80273 0.126953 3.31055 0.126953ZM6.00586-5.53711L8.37891-12.1094L8.42773-12.1094L10.8008-5.53711Z"/>
  </g>
  <line id="" style="fill:none;stroke:#00AEEF;stroke-width:0.5;opacity:1.0;" x1="792.836" x2="792.836" y1="1919" y2="1933"/>
  <text style="stroke:none;fill:black;font-family:-apple-system,&quot;SF Pro Display&quot;,&quot;SF Pro Text&quot;,Helvetica,sans-serif;font-weight:bold;" transform="matrix(1 0 0 1 776 1953)">Margins</text>
  <text style="stroke:none;fill:black;font-family:-apple-system,&quot;SF Pro Display&quot;,&quot;SF Pro Text&quot;,Helvetica,sans-serif;" transform="matrix(1 0 0 1 776 1971)">Leading and trailing margins on the left and right side of each symbol</text>
  <text style="stroke:none;fill:black;font-family:-apple-system,&quot;SF Pro Display&quot;,&quot;SF Pro Text&quot;,Helvetica,sans-serif;" transform="matrix(1 0 0 1 776 1989)">can be adjusted by modifying the x-location of the margin guidelines.</text>
  <text style="stroke:none;fill:black;font-family:-apple-system,&quot;SF Pro Display&quot;,&quot;SF Pro Text&quot;,Helvetica,sans-serif;" transform="matrix(1 0 0 1 776 2007)">Modifications are automatically applied proportionally to all</text>
  <text style="stroke:none;fill:black;font-family:-apple-system,&quot;SF Pro Display&quot;,&quot;SF Pro Text&quot;,Helvetica,sans-serif;" transform="matrix(1 0 0 1 776 2025)">scales and weights.</text>
  <g id="" transform="matrix(1 0 0 1 1289 1933)">
   <path d="M2.8418 1.86523L4.54102 3.57422C5.40039 4.44336 6.38672 4.38477 7.31445 3.35938L17.4902-7.85156C17.7539-7.76367 18.0273-7.7832 18.3398-7.8418L19.4043-8.03711L20.0684-7.36328L20.0293-6.80664C19.9902-6.30859 20.1172-5.92773 20.6055-5.44922L21.3672-4.70703C21.8457-4.22852 22.4609-4.19922 22.9297-4.66797L25.8398-7.58789C26.3086-8.05664 26.2891-8.65234 25.8105-9.13086L25.0391-9.89258C24.5605-10.3711 24.1895-10.5273 23.7109-10.4883L23.1348-10.4395L22.4902-11.0742L22.7344-12.1973C22.8613-12.7637 22.7051-13.2031 22.1191-13.7891L19.9219-15.9766C16.582-19.2969 12.1484-19.2188 9.25781-16.3281C8.83789-15.918 8.80859-15.3418 9.04297-14.9512C9.27734-14.5898 9.73633-14.3555 10.3809-14.5215C11.8457-14.8633 13.3691-14.9219 14.7949-13.9844L14.209-12.5293C14.0137-12.0508 13.9844-11.6504 14.1113-11.2891L3.04688-0.898438C2.06055 0.0195312 1.98242 0.996094 2.8418 1.86523ZM10.752-15.957C13.1836-17.7344 16.4746-17.4316 18.7012-15.2051L21.1328-12.793C21.3672-12.5586 21.4062-12.373 21.3379-12.0312L21.0156-10.5469L22.5195-9.0625L23.5059-9.12109C23.7598-9.13086 23.8379-9.11133 24.0332-8.91602L24.6094-8.33984L22.168-5.89844L21.5918-6.47461C21.3965-6.66992 21.3672-6.74805 21.377-7.01172L21.4453-7.98828L19.9512-9.47266L18.4277-9.21875C18.1055-9.15039 17.959-9.17969 17.7148-9.41406L15.7129-11.416C15.459-11.6504 15.4297-11.8164 15.5859-12.1875L16.4648-14.2773C14.9023-15.7324 12.8711-16.3574 10.8398-15.7617C10.6836-15.7227 10.625-15.8496 10.752-15.957ZM5.27344 2.30469L4.10156 1.14258C3.63281 0.683594 3.74023 0.341797 4.14062-0.0195312L14.9512-10.1953L16.416-8.71094L6.42578 2.27539C6.07422 2.67578 5.74219 2.77344 5.27344 2.30469Z"/>
  </g>
  <text style="stroke:none;fill:black;font-family:-apple-system,&quot;SF Pro Display&quot;,&quot;SF Pro Text&quot;,Helvetica,sans-serif;font-weight:bold;" transform="matrix(1 0 0 1 1289 1953)">Exporting</text>
  <text style="stroke:none;fill:black;font-family:-apple-system,&quot;SF Pro Display&quot;,&quot;SF Pro Text&quot;,Helvetica,sans-serif;" transform="matrix(1 0 0 1 1289 1971)">Symbols should be outlined when exporting to ensure the</text>
  <text style="stroke:none;fill:black;font-family:-apple-system,&quot;SF Pro Display&quot;,&quot;SF Pro Text&quot;,Helvetica,sans-serif;" transform="matrix(1 0 0 1 1289 1989)">design is preserved when submitting to Xcode.</text>
  <text id="template-version" style="stroke:none;fill:black;font-family:-apple-system,&quot;SF Pro Display&quot;,&quot;SF Pro Text&quot;,Helvetica,sans-serif;text-anchor:end;" transform="matrix(1 0 0 1 3036 1933)">Template v.2.0</text>
  <text style="stroke:none;fill:black;font-family:-apple-system,&quot;SF Pro Display&quot;,&quot;SF Pro Text&quot;,Helvetica,sans-serif;text-anchor:end;" transform="matrix(1 0 0 1 3036 1951)">Requires Xcode 12 or greater</text>
  <text style="stroke:none;fill:black;font-family:-apple-system,&quot;SF Pro Display&quot;,&quot;SF Pro Text&quot;,Helvetica,sans-serif;text-anchor:end;" transform="matrix(1 0 0 1 3036 1969)">Generated from list.triangle</text>
  <text style="stroke:none;fill:black;font-family:-apple-system,&quot;SF Pro Display&quot;,&quot;SF Pro Text&quot;,Helvetica,sans-serif;text-anchor:end;" transform="matrix(1 0 0 1 3036 1987)">Typeset at 100 points</text>
  <text style="stroke:none;fill:black;font-family:-apple-system,&quot;SF Pro Display&quot;,&quot;SF Pro Text&quot;,Helvetica,sans-serif;" transform="matrix(1 0 0 1 263 726)">Small</text>
  <text style="stroke:none;fill:black;font-family:-apple-system,&quot;SF Pro Display&quot;,&quot;SF Pro Text&quot;,Helvetica,sans-serif;" transform="matrix(1 0 0 1 263 1156)">Medium</text>
  <text style="stroke:none;fill:black;font-family:-apple-system,&quot;SF Pro Display&quot;,&quot;SF Pro Text&quot;,Helvetica,sans-serif;" transform="matrix(1 0 0 1 263 1586)">Large</text>
 </g>
 <g id="Guides">
  <g id="H-reference" style="fill:#27AAE1;stroke:none;" transform="matrix(1 0 0 1 339 696)">
   <path d="M0.976562 0L3.66211 0L12.9883-24.4629L45.752-24.4629L55.127 0L57.7637 0L30.6152-70.459L28.125-70.459ZM29.3457-67.1387L29.4434-67.1387L44.873-26.709L13.8672-26.709Z"/>
  </g>
  <line id="Baseline-S" style="fill:none;stroke:#27AAE1;opacity:1;stroke-width:0.5;" x1="263" x2="3036" y1="696" y2="696"/>
  <line id="Capline-S" style="fill:none;stroke:#27AAE1;opacity:1;stroke-width:0.5;" x1="263" x2="3036" y1="625.541" y2="625.541"/>
  <g id="H-reference" style="fill:#27AAE1;stroke:none;" transform="matrix(1 0 0 1 339 1126)">
   <path d="M0.976562 0L3.66211 0L12.9883-24.4629L45.752-24.4629L55.127 0L57.7637 0L30.6152-70.459L28.125-70.459ZM29.3457-67.1387L29.4434-67.1387L44.873-26.709L13.8672-26.709Z"/>
  </g>
  <line id="Baseline-M" style="fill:none;stroke:#27AAE1;opacity:1;stroke-width:0.5;" x1="263" x2="3036" y1="1126" y2="1126"/>
  <line id="Capline-M" style="fill:none;stroke:#27AAE1;opacity:1;stroke-width:0.5;" x1="263" x2="3036" y1="1055.54" y2="1055.54"/>
  <g id="H-reference" style="fill:#27AAE1;stroke:none;" transform="matrix(1 0 0 1 339 1556)">
   <path d="M0.976562 0L3.66211 0L12.9883-24.4629L45.752-24.4629L55.127 0L57.7637 0L30.6152-70.459L28.125-70.459ZM29.3457-67.1387L29.4434-67.1387L44.873-26.709L13.8672-26.709Z"/>
  </g>
  <line id="Baseline-L" style="fill:none;stroke:#27AAE1;opacity:1;stroke-width:0.5;" x1="263" x2="3036" y1="1556" y2="1556"/>
  <line id="Capline-L" style="fill:none;stroke:#27AAE1;opacity:1;stroke-width:0.5;" x1="263" x2="3036" y1="1485.54" y2="1485.54"/>
  <line id="left-margin" style="fill:none;stroke:#00AEEF;stroke-width:0.5;opacity:1.0;" x1="1388.2" x2="1388.2" y1="1030.79" y2="1150.12"/>
  <line id="right-margin" style="fill:none;stroke:#00AEEF;stroke-width:0.5;opacity:1.0;" x1="1511.49" x2="1511.49" y1="1030.79" y2="1150.12"/>
 </g>
 <g id="Symbols">
  <g id="Black-L" transform="matrix(1 0 0 1 2847.17 1556)">
   <path d="M25.4395-62.1094L40.1855-70.6543C43.9941-72.8516 43.9941-78.6621 40.2344-80.8594L25.4395-89.5996C20.8496-92.334 16.0645-90.2344 16.0645-85.1074L16.0645-66.5527C16.0645-61.5234 20.8008-59.4727 25.4395-62.1094ZM67.5293-66.6992L147.168-66.6992C152.295-66.6992 156.396-70.8008 156.396-75.9766C156.396-81.1035 152.344-85.2051 147.168-85.2051L67.5293-85.2051C62.4023-85.2051 58.252-81.1523 58.252-75.9766C58.252-70.8496 62.3047-66.6992 67.5293-66.6992ZM25.4395-21.4355L40.1855-30.0293C43.9941-32.2266 43.9941-37.9883 40.2344-40.1855L25.4395-48.9746C20.8496-51.709 16.0645-49.6094 16.0645-44.4824L16.0645-25.8789C16.0645-20.8984 20.8008-18.7988 25.4395-21.4355ZM67.5293-25.9277L147.168-25.9277C152.295-25.9277 156.396-29.9805 156.396-35.2051C156.396-40.332 152.344-44.4336 147.168-44.4336L67.5293-44.4336C62.4023-44.4336 58.252-40.3809 58.252-35.2051C58.252-30.0781 62.3047-25.9277 67.5293-25.9277ZM25.4395 19.4824L40.1855 10.8887C43.9941 8.69141 43.9941 2.92969 40.2344 0.732422L25.4395-8.05664C20.8496-10.791 16.0645-8.69141 16.0645-3.56445L16.0645 15.0391C16.0645 20.0195 20.8008 22.1191 25.4395 19.4824ZM67.5293 14.8438L147.168 14.8438C152.295 14.8438 156.396 10.791 156.396 5.56641C156.396 0.439453 152.344-3.66211 147.168-3.66211L67.5293-3.66211C62.4023-3.66211 58.252 0.390625 58.252 5.56641C58.252 10.6934 62.3047 14.8438 67.5293 14.8438Z"/>
  </g>
  <g id="Heavy-L" transform="matrix(1 0 0 1 2552.19 1556)">
   <path d="M24.3652-62.5488L38.1348-70.6055C41.5039-72.5586 41.5039-77.6367 38.1836-79.541L24.3652-87.793C20.3125-90.1855 16.0645-88.4277 16.0645-83.8379L16.0645-66.4551C16.0645-61.9629 20.2637-60.2051 24.3652-62.5488ZM64.4531-67.1875L144.824-67.1875C149.365-67.1875 152.93-70.7031 152.93-75.2441C152.93-79.7852 149.365-83.3496 144.824-83.3496L64.4531-83.3496C59.9609-83.3496 56.3477-79.834 56.3477-75.2441C56.3477-70.752 59.9121-67.1875 64.4531-67.1875ZM24.3652-22.6074L38.1348-30.6152C41.5039-32.6172 41.5039-37.6465 38.1836-39.5996L24.3652-47.8027C20.3125-50.2441 16.0645-48.4863 16.0645-43.8965L16.0645-26.5137C16.0645-22.0215 20.2637-20.2637 24.3652-22.6074ZM64.4531-27.0996L144.824-27.0996C149.365-27.0996 152.93-30.6641 152.93-35.2051C152.93-39.6973 149.365-43.2617 144.824-43.2617L64.4531-43.2617C59.9609-43.2617 56.3477-39.7461 56.3477-35.2051C56.3477-30.7129 59.9121-27.0996 64.4531-27.0996ZM24.3652 17.5781L38.1348 9.57031C41.5039 7.61719 41.5039 2.53906 38.1836 0.585938L24.3652-7.61719C20.3125-10.0586 16.0645-8.30078 16.0645-3.71094L16.0645 13.7207C16.0645 18.1641 20.2637 19.9219 24.3652 17.5781ZM64.4531 12.9883L144.824 12.9883C149.365 12.9883 152.93 9.42383 152.93 4.88281C152.93 0.390625 149.365-3.17383 144.824-3.17383L64.4531-3.17383C59.9609-3.17383 56.3477 0.341797 56.3477 4.88281C56.3477 9.375 59.9121 12.9883 64.4531 12.9883Z"/>
  </g>
  <g id="Bold-L" transform="matrix(1 0 0 1 2257.43 1556)">
   <path d="M23.1934-63.0859L35.8398-70.5078C38.7207-72.168 38.6719-76.4648 35.8887-78.125L23.1934-85.7422C19.6777-87.793 16.0645-86.4258 16.0645-82.4219L16.0645-66.3574C16.0645-62.4512 19.7266-61.084 23.1934-63.0859ZM60.9863-67.7246L142.236-67.7246C146.045-67.7246 149.023-70.6543 149.023-74.5117C149.023-78.2715 146.045-81.25 142.236-81.25L60.9863-81.25C57.2266-81.25 54.1992-78.3203 54.1992-74.5117C54.1992-70.7031 57.1777-67.7246 60.9863-67.7246ZM23.1934-23.877L35.8398-31.2988C38.7207-33.0078 38.6719-37.3047 35.8887-38.916L23.1934-46.5332C19.6777-48.6328 16.0645-47.2168 16.0645-43.2129L16.0645-27.1484C16.0645-23.291 19.7266-21.875 23.1934-23.877ZM60.9863-28.418L142.236-28.418C146.045-28.418 149.023-31.3477 149.023-35.2051C149.023-38.9648 146.045-41.9922 142.236-41.9922L60.9863-41.9922C57.2266-41.9922 54.1992-39.0137 54.1992-35.2051C54.1992-31.3965 57.1777-28.418 60.9863-28.418ZM23.1934 15.5273L35.8398 8.10547C38.7207 6.39648 38.6719 2.14844 35.8887 0.488281L23.1934-7.12891C19.6777-9.22852 16.0645-7.8125 16.0645-3.80859L16.0645 12.2559C16.0645 16.1133 19.7266 17.5293 23.1934 15.5273ZM60.9863 10.8887L142.236 10.8887C146.045 10.8887 149.023 7.91016 149.023 4.10156C149.023 0.341797 146.045-2.68555 142.236-2.68555L60.9863-2.68555C57.2266-2.68555 54.1992 0.292969 54.1992 4.10156C54.1992 7.91016 57.1777 10.8887 60.9863 10.8887Z"/>
  </g>
  <g id="Semibold-L" transform="matrix(1 0 0 1 1962.07 1556)">
   <path d="M22.3633-63.4277L34.2773-70.459C36.7676-71.9238 36.7188-75.6836 34.2773-77.1484L22.3633-84.3262C19.2383-86.1816 16.0645-85.0098 16.0645-81.4453L16.0645-66.3086C16.0645-62.793 19.2871-61.6699 22.3633-63.4277ZM58.6426-68.0664L140.43-68.0664C143.75-68.0664 146.338-70.6543 146.338-73.9258C146.338-77.2461 143.75-79.834 140.43-79.834L58.6426-79.834C55.3223-79.834 52.7344-77.2461 52.7344-73.9258C52.7344-70.6543 55.3223-68.0664 58.6426-68.0664ZM22.3633-24.7559L34.2773-31.7871C36.7676-33.3008 36.7188-37.0117 34.2773-38.4766L22.3633-45.6543C19.2383-47.5098 16.0645-46.3379 16.0645-42.7734L16.0645-27.6367C16.0645-24.1211 19.2871-22.998 22.3633-24.7559ZM58.6426-29.2969L140.43-29.2969C143.75-29.2969 146.338-31.8848 146.338-35.2051C146.338-38.4766 143.75-41.0645 140.43-41.0645L58.6426-41.0645C55.3223-41.0645 52.7344-38.5254 52.7344-35.2051C52.7344-31.8848 55.3223-29.2969 58.6426-29.2969ZM22.3633 14.1113L34.2773 7.08008C36.7676 5.56641 36.7188 1.85547 34.2773 0.390625L22.3633-6.78711C19.2383-8.64258 16.0645-7.4707 16.0645-3.90625L16.0645 11.2305C16.0645 14.6973 19.2871 15.8691 22.3633 14.1113ZM58.6426 9.47266L140.43 9.47266C143.75 9.47266 146.338 6.88477 146.338 3.56445C146.338 0.292969 143.75-2.29492 140.43-2.29492L58.6426-2.29492C55.3223-2.29492 52.7344 0.244141 52.7344 3.56445C52.7344 6.88477 55.3223 9.47266 58.6426 9.47266Z"/>
  </g>
  <g id="Medium-L" transform="matrix(1 0 0 1 1666.38 1556)">
   <path d="M21.7285-63.7207L33.0566-70.4102C35.3027-71.7773 35.2539-75.0977 33.0566-76.416L21.7285-83.252C18.9453-84.9121 16.0645-83.9355 16.0645-80.7129L16.0645-66.2109C16.0645-63.0371 18.9941-62.1094 21.7285-63.7207ZM56.8359-68.3105L139.062-68.3105C141.992-68.3105 144.287-70.6055 144.287-73.5352C144.287-76.4648 142.041-78.7598 139.062-78.7598L56.8359-78.7598C53.9062-78.7598 51.6113-76.4648 51.6113-73.5352C51.6113-70.6055 53.9062-68.3105 56.8359-68.3105ZM21.7285-25.4395L33.0566-32.1289C35.3027-33.4961 35.2539-36.8164 33.0566-38.1348L21.7285-44.9707C18.9453-46.6309 16.0645-45.7031 16.0645-42.4316L16.0645-27.9785C16.0645-24.8047 18.9941-23.8281 21.7285-25.4395ZM56.8359-29.9805L139.062-29.9805C141.992-29.9805 144.287-32.2266 144.287-35.2051C144.287-38.1348 142.041-40.3809 139.062-40.3809L56.8359-40.3809C53.9062-40.3809 51.6113-38.1348 51.6113-35.2051C51.6113-32.2754 53.9062-29.9805 56.8359-29.9805ZM21.7285 12.9883L33.0566 6.29883C35.3027 4.93164 35.2539 1.61133 33.0566 0.292969L21.7285-6.54297C18.9453-8.20312 16.0645-7.27539 16.0645-4.00391L16.0645 10.4492C16.0645 13.623 18.9941 14.5996 21.7285 12.9883ZM56.8359 8.39844L139.062 8.39844C141.992 8.39844 144.287 6.10352 144.287 3.17383C144.287 0.244141 142.041-2.05078 139.062-2.05078L56.8359-2.05078C53.9062-2.05078 51.6113 0.244141 51.6113 3.17383C51.6113 6.10352 53.9062 8.39844 56.8359 8.39844Z"/>
  </g>
  <g id="Regular-L" transform="matrix(1 0 0 1 1370.99 1556)">
   <path d="M20.9473-64.0625L31.4941-70.3613C33.3984-71.4844 33.3496-74.3164 31.4941-75.4395L20.9473-81.8359C18.5059-83.3008 16.0645-82.5684 16.0645-79.7363L16.0645-66.1621C16.0645-63.3789 18.6035-62.6953 20.9473-64.0625ZM54.4922-68.7012L137.305-68.7012C139.746-68.7012 141.65-70.5566 141.65-72.998C141.65-75.4395 139.746-77.3438 137.305-77.3438L54.4922-77.3438C52.0508-77.3438 50.1465-75.4395 50.1465-72.998C50.1465-70.5566 52.0508-68.7012 54.4922-68.7012ZM20.9473-26.3184L31.4941-32.6172C33.3984-33.7891 33.3496-36.5723 31.4941-37.6953L20.9473-44.0918C18.5059-45.5566 16.0645-44.8242 16.0645-41.9922L16.0645-28.418C16.0645-25.6348 18.6035-24.9512 20.9473-26.3184ZM54.4922-30.8594L137.305-30.8594C139.746-30.8594 141.65-32.7637 141.65-35.2051C141.65-37.6465 139.746-39.502 137.305-39.502L54.4922-39.502C52.0508-39.502 50.1465-37.6465 50.1465-35.2051C50.1465-32.7637 52.0508-30.8594 54.4922-30.8594ZM20.9473 11.5723L31.4941 5.27344C33.3984 4.15039 33.3496 1.31836 31.4941 0.244141L20.9473-6.20117C18.5059-7.66602 16.0645-6.93359 16.0645-4.10156L16.0645 9.47266C16.0645 12.2559 18.6035 12.9395 20.9473 11.5723ZM54.4922 6.93359L137.305 6.93359C139.746 6.93359 141.65 5.07812 141.65 2.63672C141.65 0.195312 139.746-1.70898 137.305-1.70898L54.4922-1.70898C52.0508-1.70898 50.1465 0.195312 50.1465 2.63672C50.1465 5.07812 52.0508 6.93359 54.4922 6.93359Z"/>
  </g>
  <g id="Light-L" transform="matrix(1 0 0 1 1075.2 1556)">
   <path d="M20.6055-64.4043L30.3223-70.166C32.0801-71.2402 32.0801-73.8281 30.3223-74.9023L20.6055-80.7617C18.3594-82.1289 16.0645-81.4941 16.0645-78.8086L16.0645-66.3574C16.0645-63.7695 18.457-63.0859 20.6055-64.4043ZM51.8555-69.3359L136.475-69.3359C138.379-69.3359 139.795-70.752 139.795-72.6562C139.795-74.5117 138.379-75.9277 136.475-75.9277L51.8555-75.9277C49.9512-75.9277 48.5352-74.5117 48.5352-72.6562C48.5352-70.752 49.9512-69.3359 51.8555-69.3359ZM20.6055-27.002L30.3223-32.8125C32.0801-33.8867 32.0801-36.4746 30.3223-37.5488L20.6055-43.4082C18.3594-44.7754 16.0645-44.0918 16.0645-41.4062L16.0645-29.0039C16.0645-26.416 18.457-25.7324 20.6055-27.002ZM51.8555-31.8848L136.475-31.8848C138.379-31.8848 139.795-33.3008 139.795-35.2051C139.795-37.0605 138.379-38.4766 136.475-38.4766L51.8555-38.4766C49.9512-38.4766 48.5352-37.0605 48.5352-35.2051C48.5352-33.3008 49.9512-31.8848 51.8555-31.8848ZM20.6055 10.498L30.3223 4.73633C32.0801 3.66211 32.0801 1.07422 30.3223 0L20.6055-5.85938C18.3594-7.22656 16.0645-6.5918 16.0645-3.90625L16.0645 8.54492C16.0645 11.1328 18.457 11.8164 20.6055 10.498ZM51.8555 5.56641L136.475 5.56641C138.379 5.56641 139.795 4.15039 139.795 2.24609C139.795 0.390625 138.379-1.02539 136.475-1.02539L51.8555-1.02539C49.9512-1.02539 48.5352 0.390625 48.5352 2.24609C48.5352 4.15039 49.9512 5.56641 51.8555 5.56641Z"/>
  </g>
  <g id="Thin-L" transform="matrix(1 0 0 1 779.713 1556)">
   <path d="M20.2148-64.8438L28.7109-69.9219C30.3711-70.8984 30.3711-73.2422 28.7109-74.2188L20.2148-79.3945C18.1152-80.6152 16.0645-80.0293 16.0645-77.5879L16.0645-66.6504C16.0645-64.2578 18.2129-63.6719 20.2148-64.8438ZM48.3398-70.166L135.4-70.166C136.523-70.166 137.354-70.9961 137.354-72.168C137.354-73.291 136.523-74.1211 135.4-74.1211L48.3398-74.1211C47.2168-74.1211 46.3867-73.291 46.3867-72.168C46.3867-70.9961 47.2168-70.166 48.3398-70.166ZM20.2148-27.9297L28.7109-33.0566C30.3711-34.0332 30.3711-36.3281 28.7109-37.3535L20.2148-42.5293C18.1152-43.75 16.0645-43.1641 16.0645-40.6738L16.0645-29.7852C16.0645-27.3926 18.2129-26.8066 20.2148-27.9297ZM48.3398-33.2031L135.4-33.2031C136.523-33.2031 137.354-34.0332 137.354-35.2051C137.354-36.3281 136.523-37.1582 135.4-37.1582L48.3398-37.1582C47.2168-37.1582 46.3867-36.3281 46.3867-35.2051C46.3867-34.0332 47.2168-33.2031 48.3398-33.2031ZM20.2148 9.08203L28.7109 4.00391C30.3711 3.02734 30.3711 0.683594 28.7109-0.292969L20.2148-5.46875C18.1152-6.68945 16.0645-6.10352 16.0645-3.66211L16.0645 7.27539C16.0645 9.66797 18.2129 10.2539 20.2148 9.08203ZM48.3398 3.75977L135.4 3.75977C136.523 3.75977 137.354 2.92969 137.354 1.75781C137.354 0.634766 136.523-0.195312 135.4-0.195312L48.3398-0.195312C47.2168-0.195312 46.3867 0.634766 46.3867 1.75781C46.3867 2.92969 47.2168 3.75977 48.3398 3.75977Z"/>
  </g>
  <g id="Ultralight-L" transform="matrix(1 0 0 1 483.637 1556)">
   <path d="M19.9707-65.0391L27.8809-69.7754C29.4434-70.752 29.4922-72.9004 27.8809-73.877L19.9707-78.6621C18.0176-79.834 16.0645-79.2969 16.0645-76.9531L16.0645-66.7969C16.0645-64.502 18.1152-63.9648 19.9707-65.0391ZM46.582-70.6055L134.814-70.6055C135.596-70.6055 136.084-71.0938 136.084-71.9238C136.084-72.7051 135.596-73.1934 134.814-73.1934L46.582-73.1934C45.8008-73.1934 45.2637-72.7051 45.2637-71.9238C45.2637-71.0938 45.8008-70.6055 46.582-70.6055ZM19.9707-28.418L27.8809-33.1543C29.4434-34.082 29.4922-36.2793 27.8809-37.2559L19.9707-42.041C18.0176-43.2129 16.0645-42.6758 16.0645-40.332L16.0645-30.127C16.0645-27.8809 18.1152-27.3438 19.9707-28.418ZM46.582-33.9355L134.814-33.9355C135.596-33.9355 136.084-34.4238 136.084-35.2051C136.084-35.9863 135.596-36.4746 134.814-36.4746L46.582-36.4746C45.8008-36.4746 45.2637-35.9863 45.2637-35.2051C45.2637-34.4238 45.8008-33.9355 46.582-33.9355ZM19.9707 8.34961L27.8809 3.61328C29.4434 2.68555 29.4922 0.488281 27.8809-0.439453L19.9707-5.27344C18.0176-6.44531 16.0645-5.85938 16.0645-3.51562L16.0645 6.64062C16.0645 8.93555 18.1152 9.47266 19.9707 8.34961ZM46.582 2.7832L134.814 2.7832C135.596 2.7832 136.084 2.29492 136.084 1.51367C136.084 0.732422 135.596 0.244141 134.814 0.244141L46.582 0.244141C45.8008 0.244141 45.2637 0.732422 45.2637 1.51367C45.2637 2.29492 45.8008 2.7832 46.582 2.7832Z"/>
  </g>
  <g id="Black-M" transform="matrix(1 0 0 1 2864.7 1126)">
   <path d="M20.9473-55.6152L33.252-62.6953C36.7676-64.6973 36.7676-70.0195 33.3008-72.0215L20.9473-79.2969C16.7969-81.7383 12.4512-79.7363 12.4512-75.1465L12.4512-59.7168C12.4512-55.2246 16.748-53.2227 20.9473-55.6152ZM55.0781-59.375L116.748-59.375C121.289-59.375 124.951-62.9395 124.951-67.5293C124.951-72.0703 121.338-75.7324 116.748-75.7324L55.0781-75.7324C50.5371-75.7324 46.875-72.1191 46.875-67.5293C46.875-62.9883 50.4395-59.375 55.0781-59.375ZM20.9473-23.3887L33.252-30.4688C36.7676-32.4707 36.7676-37.793 33.3008-39.7949L20.9473-47.0703C16.7969-49.5117 12.4512-47.5098 12.4512-42.9199L12.4512-27.4902C12.4512-22.998 16.748-20.9961 20.9473-23.3887ZM55.0781-27.002L116.748-27.002C121.289-27.002 124.951-30.6152 124.951-35.2051C124.951-39.7461 121.338-43.4082 116.748-43.4082L55.0781-43.4082C50.5371-43.4082 46.875-39.7949 46.875-35.2051C46.875-30.6641 50.4395-27.002 55.0781-27.002ZM20.9473 9.08203L33.252 2.00195C36.7676 0 36.7676-5.32227 33.3008-7.32422L20.9473-14.5996C16.7969-17.041 12.4512-15.0391 12.4512-10.4492L12.4512 4.98047C12.4512 9.47266 16.748 11.4746 20.9473 9.08203ZM55.0781 5.32227L116.748 5.32227C121.289 5.32227 124.951 1.75781 124.951-2.83203C124.951-7.37305 121.338-11.0352 116.748-11.0352L55.0781-11.0352C50.5371-11.0352 46.875-7.4707 46.875-2.83203C46.875 1.66016 50.4395 5.32227 55.0781 5.32227Z"/>
  </g>
  <g id="Heavy-M" transform="matrix(1 0 0 1 2569.65 1126)">
   <path d="M19.873-56.0059L31.3477-62.6465C34.375-64.4043 34.375-68.9941 31.3965-70.752L19.873-77.5391C16.2598-79.7363 12.4512-78.0273 12.4512-73.9746L12.4512-59.5703C12.4512-55.6152 16.2109-53.9062 19.873-56.0059ZM52.3926-59.7168L114.404-59.7168C118.408-59.7168 121.631-62.8418 121.631-66.8945C121.631-70.8496 118.457-74.0723 114.404-74.0723L52.3926-74.0723C48.3887-74.0723 45.2148-70.8984 45.2148-66.8945C45.2148-62.8906 48.3398-59.7168 52.3926-59.7168ZM19.873-24.4629L31.3477-31.1035C34.375-32.8613 34.375-37.4512 31.3965-39.209L19.873-45.9961C16.2598-48.1445 12.4512-46.4844 12.4512-42.3828L12.4512-27.9785C12.4512-24.0234 16.2109-22.3633 19.873-24.4629ZM52.3926-28.0273L114.404-28.0273C118.408-28.0273 121.631-31.1523 121.631-35.2051C121.631-39.1602 118.457-42.3828 114.404-42.3828L52.3926-42.3828C48.3887-42.3828 45.2148-39.209 45.2148-35.2051C45.2148-31.2012 48.3398-28.0273 52.3926-28.0273ZM19.873 7.32422L31.3477 0.683594C34.375-1.07422 34.375-5.66406 31.3965-7.42188L19.873-14.209C16.2598-16.3574 12.4512-14.6973 12.4512-10.5957L12.4512 3.80859C12.4512 7.76367 16.2109 9.42383 19.873 7.32422ZM52.3926 3.66211L114.404 3.66211C118.408 3.66211 121.631 0.537109 121.631-3.51562C121.631-7.51953 118.457-10.6934 114.404-10.6934L52.3926-10.6934C48.3887-10.6934 45.2148-7.56836 45.2148-3.51562C45.2148 0.488281 48.3398 3.66211 52.3926 3.66211Z"/>
  </g>
  <g id="Bold-M" transform="matrix(1 0 0 1 2274.82 1126)">
   <path d="M18.7012-56.4941L29.1992-62.5977C31.6895-64.1113 31.6895-67.8711 29.1992-69.3359L18.7012-75.6348C15.625-77.4414 12.4512-76.123 12.4512-72.6562L12.4512-59.4238C12.4512-56.0547 15.625-54.7363 18.7012-56.4941ZM49.4141-60.0586L111.816-60.0586C115.186-60.0586 117.871-62.7441 117.871-66.1133C117.871-69.4824 115.234-72.168 111.816-72.168L49.4141-72.168C46.0449-72.168 43.3594-69.5312 43.3594-66.1133C43.3594-62.7441 45.9961-60.0586 49.4141-60.0586ZM18.7012-25.6348L29.1992-31.7871C31.6895-33.252 31.6895-37.0605 29.1992-38.5254L18.7012-44.7754C15.625-46.582 12.4512-45.3125 12.4512-41.8457L12.4512-28.5645C12.4512-25.1953 15.625-23.877 18.7012-25.6348ZM49.4141-29.1504L111.816-29.1504C115.186-29.1504 117.871-31.7871 117.871-35.2051C117.871-38.5742 115.234-41.2598 111.816-41.2598L49.4141-41.2598C46.0449-41.2598 43.3594-38.623 43.3594-35.2051C43.3594-31.8359 45.9961-29.1504 49.4141-29.1504ZM18.7012 5.37109L29.1992-0.732422C31.6895-2.24609 31.6895-6.00586 29.1992-7.4707L18.7012-13.7695C15.625-15.5762 12.4512-14.2578 12.4512-10.791L12.4512 2.44141C12.4512 5.81055 15.625 7.12891 18.7012 5.37109ZM49.4141 1.80664L111.816 1.80664C115.186 1.80664 117.871-0.878906 117.871-4.24805C117.871-7.61719 115.234-10.3027 111.816-10.3027L49.4141-10.3027C46.0449-10.3027 43.3594-7.66602 43.3594-4.24805C43.3594-0.878906 45.9961 1.80664 49.4141 1.80664Z"/>
  </g>
  <g id="Semibold-M" transform="matrix(1 0 0 1 1979.38 1126)">
   <path d="M17.8711-56.8359L27.6855-62.5977C29.8828-63.8672 29.834-67.1387 27.7344-68.3594L17.8711-74.2676C15.1855-75.8789 12.4512-74.8047 12.4512-71.7773L12.4512-59.2773C12.4512-56.3477 15.2344-55.2734 17.8711-56.8359ZM47.3145-60.3516L110.01-60.3516C112.988-60.3516 115.332-62.6465 115.332-65.625C115.332-68.5547 112.988-70.8984 110.01-70.8984L47.3145-70.8984C44.3848-70.8984 42.041-68.6035 42.041-65.625C42.041-62.6465 44.3848-60.3516 47.3145-60.3516ZM17.8711-26.4648L27.6855-32.2754C29.8828-33.5449 29.834-36.7676 27.7344-38.0371L17.8711-43.9453C15.1855-45.5566 12.4512-44.4824 12.4512-41.4551L12.4512-28.9551C12.4512-25.9766 15.2344-24.9512 17.8711-26.4648ZM47.3145-29.9316L110.01-29.9316C112.988-29.9316 115.332-32.2266 115.332-35.2051C115.332-38.1348 112.988-40.4785 110.01-40.4785L47.3145-40.4785C44.3848-40.4785 42.041-38.1836 42.041-35.2051C42.041-32.2266 44.3848-29.9316 47.3145-29.9316ZM17.8711 4.00391L27.6855-1.75781C29.8828-3.02734 29.834-6.29883 27.7344-7.51953L17.8711-13.4277C15.1855-15.0391 12.4512-14.0137 12.4512-10.9375L12.4512 1.5625C12.4512 4.49219 15.2344 5.56641 17.8711 4.00391ZM47.3145 0.488281L110.01 0.488281C112.988 0.488281 115.332-1.80664 115.332-4.78516C115.332-7.71484 112.988-10.0586 110.01-10.0586L47.3145-10.0586C44.3848-10.0586 42.041-7.76367 42.041-4.78516C42.041-1.80664 44.3848 0.488281 47.3145 0.488281Z"/>
  </g>
  <g id="Medium-M" transform="matrix(1 0 0 1 1683.64 1126)">
   <path d="M17.2363-57.0801L26.5625-62.5488C28.4668-63.7207 28.418-66.5527 26.5625-67.627L17.2363-73.291C14.8926-74.6582 12.4512-73.8281 12.4512-71.0938L12.4512-59.1797C12.4512-56.543 14.8926-55.7129 17.2363-57.0801ZM45.752-60.5469L108.643-60.5469C111.279-60.5469 113.379-62.5977 113.379-65.2344C113.379-67.8711 111.328-69.9219 108.643-69.9219L45.752-69.9219C43.1641-69.9219 41.0645-67.8711 41.0645-65.2344C41.0645-62.5977 43.1152-60.5469 45.752-60.5469ZM17.2363-27.0996L26.5625-32.6172C28.4668-33.7402 28.418-36.5723 26.5625-37.6953L17.2363-43.3105C14.8926-44.7266 12.4512-43.8965 12.4512-41.1621L12.4512-29.248C12.4512-26.6113 14.8926-25.7812 17.2363-27.0996ZM45.752-30.5176L108.643-30.5176C111.279-30.5176 113.379-32.5684 113.379-35.2051C113.379-37.8418 111.328-39.8926 108.643-39.8926L45.752-39.8926C43.1641-39.8926 41.0645-37.8418 41.0645-35.2051C41.0645-32.5684 43.1152-30.5176 45.752-30.5176ZM17.2363 2.97852L26.5625-2.49023C28.4668-3.66211 28.418-6.49414 26.5625-7.56836L17.2363-13.2324C14.8926-14.5996 12.4512-13.7695 12.4512-11.0352L12.4512 0.830078C12.4512 3.51562 14.8926 4.3457 17.2363 2.97852ZM45.752-0.488281L108.643-0.488281C111.279-0.488281 113.379-2.53906 113.379-5.17578C113.379-7.8125 111.328-9.86328 108.643-9.86328L45.752-9.86328C43.1641-9.86328 41.0645-7.8125 41.0645-5.17578C41.0645-2.53906 43.1152-0.488281 45.752-0.488281Z"/>
  </g>
  <g id="Regular-M" transform="matrix(1 0 0 1 1388.2 1126)">
   <path d="M16.4062-57.373L25.0977-62.5488C26.6113-63.4766 26.5625-65.7715 25.0977-66.6504L16.4062-71.9238C14.4531-73.1445 12.4512-72.5586 12.4512-70.2148L12.4512-59.082C12.4512-56.8359 14.502-56.25 16.4062-57.373ZM43.75-60.791L106.885-60.791C109.082-60.791 110.84-62.5 110.84-64.6973C110.84-66.9434 109.082-68.6523 106.885-68.6523L43.75-68.6523C41.5039-68.6523 39.7949-66.9434 39.7949-64.6973C39.7949-62.5 41.5039-60.791 43.75-60.791ZM16.4062-27.9297L25.0977-33.1055C26.6113-34.0332 26.5625-36.3281 25.0977-37.207L16.4062-42.4805C14.4531-43.6523 12.4512-43.0664 12.4512-40.7715L12.4512-29.6387C12.4512-27.3926 14.502-26.8066 16.4062-27.9297ZM43.75-31.25L106.885-31.25C109.082-31.25 110.84-33.0078 110.84-35.2051C110.84-37.4023 109.082-39.1113 106.885-39.1113L43.75-39.1113C41.5039-39.1113 39.7949-37.4023 39.7949-35.2051C39.7949-33.0078 41.5039-31.25 43.75-31.25ZM16.4062 1.66016L25.0977-3.51562C26.6113-4.44336 26.5625-6.73828 25.0977-7.61719L16.4062-12.8906C14.4531-14.0625 12.4512-13.5254 12.4512-11.1816L12.4512-0.0488281C12.4512 2.19727 14.502 2.7832 16.4062 1.66016ZM43.75-1.75781L106.885-1.75781C109.082-1.75781 110.84-3.4668 110.84-5.66406C110.84-7.91016 109.082-9.61914 106.885-9.61914L43.75-9.61914C41.5039-9.61914 39.7949-7.91016 39.7949-5.66406C39.7949-3.4668 41.5039-1.75781 43.75-1.75781Z"/>
  </g>
  <g id="Light-M" transform="matrix(1 0 0 1 1092.32 1126)">
   <path d="M16.1133-57.666L24.0234-62.4023C25.4395-63.2812 25.4395-65.3809 24.0234-66.2109L16.1133-70.9961C14.3066-72.1191 12.4512-71.582 12.4512-69.3848L12.4512-59.2773C12.4512-57.1777 14.3555-56.6406 16.1133-57.666ZM41.3574-61.377L106.152-61.377C107.861-61.377 109.18-62.6953 109.18-64.4043C109.18-66.1133 107.861-67.3828 106.152-67.3828L41.3574-67.3828C39.6484-67.3828 38.3301-66.1133 38.3301-64.4043C38.3301-62.6953 39.6484-61.377 41.3574-61.377ZM16.1133-28.5645L24.0234-33.252C25.4395-34.1309 25.4395-36.2305 24.0234-37.0605L16.1133-41.8945C14.3066-42.9688 12.4512-42.4316 12.4512-40.2832L12.4512-30.127C12.4512-28.0273 14.3555-27.5391 16.1133-28.5645ZM41.3574-32.1777L106.152-32.1777C107.861-32.1777 109.18-33.4961 109.18-35.2051C109.18-36.9141 107.861-38.2324 106.152-38.2324L41.3574-38.2324C39.6484-38.2324 38.3301-36.9141 38.3301-35.2051C38.3301-33.4961 39.6484-32.1777 41.3574-32.1777ZM16.1133 0.683594L24.0234-4.00391C25.4395-4.88281 25.4395-6.98242 24.0234-7.8125L16.1133-12.6465C14.3066-13.7207 12.4512-13.1836 12.4512-11.0352L12.4512-0.878906C12.4512 1.2207 14.3555 1.75781 16.1133 0.683594ZM41.3574-2.97852L106.152-2.97852C107.861-2.97852 109.18-4.29688 109.18-6.00586C109.18-7.71484 107.861-9.0332 106.152-9.0332L41.3574-9.0332C39.6484-9.0332 38.3301-7.71484 38.3301-6.00586C38.3301-4.29688 39.6484-2.97852 41.3574-2.97852Z"/>
  </g>
  <g id="Thin-M" transform="matrix(1 0 0 1 796.705 1126)">
   <path d="M15.7227-58.0566L22.6074-62.1582C23.9258-62.9395 23.877-64.7949 22.6074-65.5762L15.7227-69.7754C14.1113-70.752 12.4512-70.2637 12.4512-68.3105L12.4512-59.5215C12.4512-57.6172 14.1602-57.1289 15.7227-58.0566ZM38.2324-62.1582L105.176-62.1582C106.201-62.1582 106.982-62.8906 106.982-63.9648C106.982-64.9902 106.201-65.7715 105.176-65.7715L38.2324-65.7715C37.1582-65.7715 36.4258-64.9902 36.4258-63.9648C36.4258-62.8906 37.1582-62.1582 38.2324-62.1582ZM15.7227-29.3945L22.6074-33.4961C23.9258-34.2773 23.877-36.1328 22.6074-36.9141L15.7227-41.0645C14.1113-42.041 12.4512-41.6016 12.4512-39.5996L12.4512-30.8105C12.4512-28.9062 14.1602-28.4668 15.7227-29.3945ZM38.2324-33.3984L105.176-33.3984C106.201-33.3984 106.982-34.1309 106.982-35.2051C106.982-36.2793 106.201-37.0117 105.176-37.0117L38.2324-37.0117C37.1582-37.0117 36.4258-36.2793 36.4258-35.2051C36.4258-34.1309 37.1582-33.3984 38.2324-33.3984ZM15.7227-0.585938L22.6074-4.63867C23.9258-5.46875 23.877-7.32422 22.6074-8.10547L15.7227-12.2559C14.1113-13.2324 12.4512-12.793 12.4512-10.791L12.4512-2.00195C12.4512-0.0976562 14.1602 0.341797 15.7227-0.585938ZM38.2324-4.63867L105.176-4.63867C106.201-4.63867 106.982-5.37109 106.982-6.44531C106.982-7.51953 106.201-8.25195 105.176-8.25195L38.2324-8.25195C37.1582-8.25195 36.4258-7.51953 36.4258-6.44531C36.4258-5.37109 37.1582-4.63867 38.2324-4.63867Z"/>
  </g>
  <g id="Ultralight-M" transform="matrix(1 0 0 1 500.556 1126)">
   <path d="M15.5762-58.252L21.875-62.0605C23.0957-62.793 23.0957-64.5508 21.875-65.2832L15.5762-69.0918C14.0137-70.0195 12.4512-69.6289 12.4512-67.7246L12.4512-59.6191C12.4512-57.8613 14.0625-57.4219 15.5762-58.252ZM36.6211-62.5488L104.639-62.5488C105.371-62.5488 105.859-62.9883 105.859-63.7207C105.859-64.4531 105.371-64.9414 104.639-64.9414L36.6211-64.9414C35.8887-64.9414 35.4492-64.4531 35.4492-63.7207C35.4492-62.9883 35.8887-62.5488 36.6211-62.5488ZM15.5762-29.834L21.875-33.5938C23.0957-34.3262 23.0957-36.084 21.875-36.8164L15.5762-40.625C14.0137-41.6016 12.4512-41.1621 12.4512-39.3066L12.4512-31.1523C12.4512-29.3945 14.0625-28.9551 15.5762-29.834ZM36.6211-33.9844L104.639-33.9844C105.371-33.9844 105.859-34.4727 105.859-35.2051C105.859-35.9375 105.371-36.377 104.639-36.377L36.6211-36.377C35.8887-36.377 35.4492-35.9375 35.4492-35.2051C35.4492-34.4727 35.8887-33.9844 36.6211-33.9844ZM15.5762-1.2207L21.875-4.98047C23.0957-5.76172 23.0957-7.4707 21.875-8.20312L15.5762-12.0605C14.0137-12.9883 12.4512-12.5488 12.4512-10.6934L12.4512-2.58789C12.4512-0.78125 14.0625-0.341797 15.5762-1.2207ZM36.6211-5.46875L104.639-5.46875C105.371-5.46875 105.859-5.95703 105.859-6.68945C105.859-7.37305 105.371-7.86133 104.639-7.86133L36.6211-7.86133C35.8887-7.86133 35.4492-7.37305 35.4492-6.68945C35.4492-5.95703 35.8887-5.46875 36.6211-5.46875Z"/>
  </g>
  <g id="Black-S" transform="matrix(1 0 0 1 2879.69 696)">
   <path d="M16.3574-51.2207L25.9277-56.7383C28.6621-58.3008 28.6621-62.4023 25.9766-63.9648L16.3574-69.6289C13.1348-71.5332 9.76562-69.9707 9.76562-66.4062L9.76562-54.3945C9.76562-50.9277 13.0859-49.3652 16.3574-51.2207ZM42.9688-54.1504L91.3086-54.1504C94.8242-54.1504 97.6562-56.9336 97.6562-60.498C97.6562-64.0137 94.873-66.8457 91.3086-66.8457L42.9688-66.8457C39.4531-66.8457 36.6211-64.0625 36.6211-60.498C36.6211-56.9824 39.4043-54.1504 42.9688-54.1504ZM16.3574-26.0254L25.9277-31.543C28.6621-33.1055 28.6621-37.207 25.9766-38.7695L16.3574-44.4336C13.1348-46.3379 9.76562-44.7754 9.76562-41.2109L9.76562-29.1992C9.76562-25.7324 13.0859-24.1699 16.3574-26.0254ZM42.9688-28.8574L91.3086-28.8574C94.8242-28.8574 97.6562-31.6406 97.6562-35.2051C97.6562-38.7207 94.873-41.5527 91.3086-41.5527L42.9688-41.5527C39.4531-41.5527 36.6211-38.7695 36.6211-35.2051C36.6211-31.6895 39.4043-28.8574 42.9688-28.8574ZM16.3574-0.634766L25.9277-6.15234C28.6621-7.71484 28.6621-11.8164 25.9766-13.3789L16.3574-19.043C13.1348-20.9473 9.76562-19.3848 9.76562-15.8203L9.76562-3.80859C9.76562-0.341797 13.0859 1.2207 16.3574-0.634766ZM42.9688-3.56445L91.3086-3.56445C94.8242-3.56445 97.6562-6.34766 97.6562-9.91211C97.6562-13.4277 94.873-16.2598 91.3086-16.2598L42.9688-16.2598C39.4531-16.2598 36.6211-13.4766 36.6211-9.91211C36.6211-6.39648 39.4043-3.56445 42.9688-3.56445Z"/>
  </g>
  <g id="Heavy-S" transform="matrix(1 0 0 1 2584.15 696)">
   <path d="M15.5762-51.5137L24.5605-56.7383C26.9531-58.1055 26.9531-61.6699 24.6094-63.0371L15.5762-68.4082C12.7441-70.0684 9.76562-68.7988 9.76562-65.625L9.76562-54.248C9.76562-51.1719 12.6953-49.8535 15.5762-51.5137ZM41.2109-54.3457L89.5996-54.3457C92.7734-54.3457 95.3125-56.8359 95.3125-60.0098C95.3125-63.1836 92.8223-65.7227 89.5996-65.7227L41.2109-65.7227C38.0371-65.7227 35.498-63.2324 35.498-60.0098C35.498-56.8848 37.9883-54.3457 41.2109-54.3457ZM15.5762-26.7578L24.5605-31.9824C26.9531-33.3984 26.9531-36.9629 24.6094-38.3301L15.5762-43.6523C12.7441-45.3613 9.76562-44.043 9.76562-40.8691L9.76562-29.541C9.76562-26.4648 12.6953-25.1465 15.5762-26.7578ZM41.2109-29.541L89.5996-29.541C92.7734-29.541 95.3125-32.0312 95.3125-35.2051C95.3125-38.3789 92.8223-40.8691 89.5996-40.8691L41.2109-40.8691C38.0371-40.8691 35.498-38.3789 35.498-35.2051C35.498-32.0312 37.9883-29.541 41.2109-29.541ZM15.5762-1.85547L24.5605-7.08008C26.9531-8.44727 26.9531-12.0605 24.6094-13.4277L15.5762-18.75C12.7441-20.459 9.76562-19.1406 9.76562-15.9668L9.76562-4.63867C9.76562-1.5625 12.6953-0.244141 15.5762-1.85547ZM41.2109-4.6875L89.5996-4.6875C92.7734-4.6875 95.3125-7.17773 95.3125-10.4004C95.3125-13.5254 92.8223-16.0645 89.5996-16.0645L41.2109-16.0645C38.0371-16.0645 35.498-13.5742 35.498-10.4004C35.498-7.22656 37.9883-4.6875 41.2109-4.6875Z"/>
  </g>
  <g id="Bold-S" transform="matrix(1 0 0 1 2288.78 696)">
   <path d="M14.6973-51.8066L23.0469-56.7383C25.0488-57.9102 25.0488-60.8887 23.0957-62.0117L14.6973-67.041C12.2559-68.457 9.76562-67.4316 9.76562-64.7461L9.76562-54.1016C9.76562-51.4648 12.2559-50.4395 14.6973-51.8066ZM39.209-54.541L87.6953-54.541C90.4785-54.541 92.627-56.7383 92.627-59.4727C92.627-62.2559 90.4785-64.4531 87.6953-64.4531L39.209-64.4531C36.4746-64.4531 34.2773-62.2559 34.2773-59.4727C34.2773-56.7383 36.4258-54.541 39.209-54.541ZM14.6973-27.6367L23.0469-32.5195C25.0488-33.6914 25.0488-36.6699 23.0957-37.793L14.6973-42.8223C12.2559-44.2383 9.76562-43.2129 9.76562-40.5273L9.76562-29.8828C9.76562-27.2461 12.2559-26.2207 14.6973-27.6367ZM39.209-30.2734L87.6953-30.2734C90.4785-30.2734 92.627-32.4219 92.627-35.2051C92.627-37.9395 90.4785-40.1367 87.6953-40.1367L39.209-40.1367C36.4746-40.1367 34.2773-37.9883 34.2773-35.2051C34.2773-32.4707 36.4258-30.2734 39.209-30.2734ZM14.6973-3.27148L23.0469-8.1543C25.0488-9.32617 25.0488-12.3047 23.0957-13.4277L14.6973-18.457C12.2559-19.873 9.76562-18.8965 9.76562-16.1621L9.76562-5.51758C9.76562-2.88086 12.2559-1.85547 14.6973-3.27148ZM39.209-5.95703L87.6953-5.95703C90.4785-5.95703 92.627-8.1543 92.627-10.9375C92.627-13.6719 90.4785-15.8691 87.6953-15.8691L39.209-15.8691C36.4746-15.8691 34.2773-13.6719 34.2773-10.9375C34.2773-8.1543 36.4258-5.95703 39.209-5.95703Z"/>
  </g>
  <g id="Semibold-S" transform="matrix(1 0 0 1 1992.97 696)">
   <path d="M14.0625-52.0508L22.0215-56.7383C23.7305-57.7637 23.7305-60.3516 22.0215-61.3281L14.0625-66.1133C11.9629-67.3828 9.76562-66.5527 9.76562-64.1113L9.76562-54.0039C9.76562-51.6602 11.9629-50.8301 14.0625-52.0508ZM37.8418-54.6875L86.377-54.6875C88.8672-54.6875 90.8203-56.6406 90.8203-59.1309C90.8203-61.5723 88.8672-63.5742 86.377-63.5742L37.8418-63.5742C35.3516-63.5742 33.3984-61.6211 33.3984-59.1309C33.3984-56.6895 35.3516-54.6875 37.8418-54.6875ZM14.0625-28.1738L22.0215-32.8613C23.7305-33.8867 23.7305-36.4746 22.0215-37.4512L14.0625-42.2363C11.9629-43.5059 9.76562-42.6758 9.76562-40.2832L9.76562-30.1758C9.76562-27.7832 11.9629-26.9531 14.0625-28.1738ZM37.8418-30.7617L86.377-30.7617C88.8672-30.7617 90.8203-32.7148 90.8203-35.2051C90.8203-37.6465 88.8672-39.6484 86.377-39.6484L37.8418-39.6484C35.3516-39.6484 33.3984-37.6953 33.3984-35.2051C33.3984-32.7637 35.3516-30.7617 37.8418-30.7617ZM14.0625-4.19922L22.0215-8.88672C23.7305-9.91211 23.7305-12.4512 22.0215-13.4766L14.0625-18.2617C11.9629-19.5312 9.76562-18.7012 9.76562-16.2598L9.76562-6.15234C9.76562-3.80859 11.9629-2.97852 14.0625-4.19922ZM37.8418-6.83594L86.377-6.83594C88.8672-6.83594 90.8203-8.78906 90.8203-11.2793C90.8203-13.7207 88.8672-15.7227 86.377-15.7227L37.8418-15.7227C35.3516-15.7227 33.3984-13.7695 33.3984-11.2793C33.3984-8.83789 35.3516-6.83594 37.8418-6.83594Z"/>
  </g>
  <g id="Medium-S" transform="matrix(1 0 0 1 1696.95 696)">
   <path d="M13.623-52.1973L21.2402-56.7383C22.7539-57.6172 22.7051-59.9121 21.2402-60.791L13.623-65.3809C11.7188-66.5039 9.76562-65.8203 9.76562-63.6719L9.76562-53.9551C9.76562-51.8066 11.7676-51.123 13.623-52.1973ZM36.7676-54.834L85.4004-54.834C87.6465-54.834 89.4531-56.5918 89.4531-58.8379C89.4531-61.084 87.6465-62.8906 85.4004-62.8906L36.7676-62.8906C34.5215-62.8906 32.7637-61.1328 32.7637-58.8379C32.7637-56.5918 34.5215-54.834 36.7676-54.834ZM13.623-28.6133L21.2402-33.1055C22.7539-34.0332 22.7051-36.3281 21.2402-37.207L13.623-41.7969C11.7188-42.9199 9.76562-42.2363 9.76562-40.0879L9.76562-30.3223C9.76562-28.2227 11.7676-27.5391 13.623-28.6133ZM36.7676-31.1523L85.4004-31.1523C87.6465-31.1523 89.4531-32.959 89.4531-35.2051C89.4531-37.4512 87.6465-39.2578 85.4004-39.2578L36.7676-39.2578C34.5215-39.2578 32.7637-37.4512 32.7637-35.2051C32.7637-32.959 34.5215-31.1523 36.7676-31.1523ZM13.623-4.93164L21.2402-9.42383C22.7539-10.3516 22.7051-12.5977 21.2402-13.4766L13.623-18.0664C11.7188-19.2383 9.76562-18.5547 9.76562-16.3574L9.76562-6.64062C9.76562-4.49219 11.7676-3.85742 13.623-4.93164ZM36.7676-7.51953L85.4004-7.51953C87.6465-7.51953 89.4531-9.27734 89.4531-11.5723C89.4531-13.8184 87.6465-15.5762 85.4004-15.5762L36.7676-15.5762C34.5215-15.5762 32.7637-13.8184 32.7637-11.5723C32.7637-9.32617 34.5215-7.51953 36.7676-7.51953Z"/>
  </g>
  <g id="Regular-S" transform="matrix(1 0 0 1 1401.14 696)">
   <path d="M12.9883-52.4414L20.2148-56.6895C21.4355-57.4707 21.3867-59.375 20.2148-60.1074L12.9883-64.4531C11.4258-65.4297 9.76562-64.9414 9.76562-63.0371L9.76562-53.8574C9.76562-52.002 11.4746-51.5137 12.9883-52.4414ZM35.4004-54.9805L84.1309-54.9805C86.084-54.9805 87.6465-56.543 87.6465-58.4961C87.6465-60.4492 86.084-62.0117 84.1309-62.0117L35.4004-62.0117C33.4473-62.0117 31.8848-60.4492 31.8848-58.4961C31.8848-56.543 33.4473-54.9805 35.4004-54.9805ZM12.9883-29.1992L20.2148-33.4961C21.4355-34.2285 21.3867-36.1328 20.2148-36.8652L12.9883-41.2109C11.4258-42.1875 9.76562-41.6992 9.76562-39.7949L9.76562-30.6152C9.76562-28.7598 11.4746-28.2715 12.9883-29.1992ZM35.4004-31.6895L84.1309-31.6895C86.084-31.6895 87.6465-33.252 87.6465-35.2051C87.6465-37.1582 86.084-38.7207 84.1309-38.7207L35.4004-38.7207C33.4473-38.7207 31.8848-37.1582 31.8848-35.2051C31.8848-33.252 33.4473-31.6895 35.4004-31.6895ZM12.9883-5.85938L20.2148-10.1562C21.4355-10.8887 21.3867-12.793 20.2148-13.5254L12.9883-17.8711C11.4258-18.8477 9.76562-18.3594 9.76562-16.4551L9.76562-7.27539C9.76562-5.41992 11.4746-4.93164 12.9883-5.85938ZM35.4004-8.39844L84.1309-8.39844C86.084-8.39844 87.6465-9.96094 87.6465-11.9141C87.6465-13.8672 86.084-15.4297 84.1309-15.4297L35.4004-15.4297C33.4473-15.4297 31.8848-13.8672 31.8848-11.9141C31.8848-9.96094 33.4473-8.39844 35.4004-8.39844Z"/>
  </g>
  <g id="Light-S" transform="matrix(1 0 0 1 1105.16 696)">
   <path d="M12.7441-52.6855L19.2383-56.543C20.4102-57.2754 20.3613-58.9844 19.2383-59.668L12.7441-63.623C11.2793-64.502 9.76562-64.0625 9.76562-62.3047L9.76562-54.0039C9.76562-52.2949 11.3281-51.8555 12.7441-52.6855ZM33.3496-55.4688L83.4473-55.4688C85.0098-55.4688 86.1816-56.6895 86.1816-58.2031C86.1816-59.7168 85.0098-60.9375 83.4473-60.9375L33.3496-60.9375C31.7871-60.9375 30.6152-59.7168 30.6152-58.2031C30.6152-56.6895 31.7871-55.4688 33.3496-55.4688ZM12.7441-29.7363L19.2383-33.6426C20.4102-34.3262 20.3613-36.0352 19.2383-36.7188L12.7441-40.6738C11.2793-41.5527 9.76562-41.1133 9.76562-39.3555L9.76562-31.0547C9.76562-29.3457 11.3281-28.9062 12.7441-29.7363ZM33.3496-32.4707L83.4473-32.4707C85.0098-32.4707 86.1816-33.6914 86.1816-35.2051C86.1816-36.7188 85.0098-37.9395 83.4473-37.9395L33.3496-37.9395C31.7871-37.9395 30.6152-36.7188 30.6152-35.2051C30.6152-33.6914 31.7871-32.4707 33.3496-32.4707ZM12.7441-6.68945L19.2383-10.5957C20.4102-11.2793 20.3613-12.9883 19.2383-13.6719L12.7441-17.627C11.2793-18.5059 9.76562-18.0664 9.76562-16.3086L9.76562-8.00781C9.76562-6.29883 11.3281-5.85938 12.7441-6.68945ZM33.3496-9.47266L83.4473-9.47266C85.0098-9.47266 86.1816-10.6934 86.1816-12.207C86.1816-13.7207 85.0098-14.9414 83.4473-14.9414L33.3496-14.9414C31.7871-14.9414 30.6152-13.7207 30.6152-12.207C30.6152-10.6934 31.7871-9.47266 33.3496-9.47266Z"/>
  </g>
  <g id="Thin-S" transform="matrix(1 0 0 1 809.425 696)">
   <path d="M12.4023-53.0273L17.9688-56.3965C19.043-57.0312 19.043-58.4961 17.9688-59.1309L12.4023-62.5C11.084-63.3301 9.76562-62.9395 9.76562-61.377L9.76562-54.1992C9.76562-52.6855 11.1328-52.2949 12.4023-53.0273ZM30.5664-56.1523L82.5684-56.1523C83.5449-56.1523 84.2285-56.8359 84.2285-57.8125C84.2285-58.7891 83.5449-59.4727 82.5684-59.4727L30.5664-59.4727C29.5898-59.4727 28.9062-58.7891 28.9062-57.8125C28.9062-56.8359 29.5898-56.1523 30.5664-56.1523ZM12.4023-30.4688L17.9688-33.7891C19.043-34.4238 19.043-35.9375 17.9688-36.5723L12.4023-39.9414C11.084-40.7715 9.76562-40.3809 9.76562-38.8184L9.76562-31.6406C9.76562-30.127 11.1328-29.7363 12.4023-30.4688ZM30.5664-33.5449L82.5684-33.5449C83.5449-33.5449 84.2285-34.2285 84.2285-35.2051C84.2285-36.1816 83.5449-36.8652 82.5684-36.8652L30.5664-36.8652C29.5898-36.8652 28.9062-36.1816 28.9062-35.2051C28.9062-34.2285 29.5898-33.5449 30.5664-33.5449ZM12.4023-7.8125L17.9688-11.1328C19.043-11.7676 19.043-13.2812 17.9688-13.916L12.4023-17.2852C11.084-18.1152 9.76562-17.7246 9.76562-16.1621L9.76562-8.98438C9.76562-7.4707 11.1328-7.08008 12.4023-7.8125ZM30.5664-10.9375L82.5684-10.9375C83.5449-10.9375 84.2285-11.6211 84.2285-12.5977C84.2285-13.5742 83.5449-14.2578 82.5684-14.2578L30.5664-14.2578C29.5898-14.2578 28.9062-13.5742 28.9062-12.5977C28.9062-11.6211 29.5898-10.9375 30.5664-10.9375Z"/>
  </g>
  <g id="Ultralight-S" transform="matrix(1 0 0 1 513.202 696)">
   <path d="M12.2559-53.2227L17.334-56.25C18.3105-56.8848 18.3105-58.252 17.334-58.8379L12.2559-61.9629C10.9863-62.6953 9.76562-62.3535 9.76562-60.8398L9.76562-54.2969C9.76562-52.8809 11.0352-52.5391 12.2559-53.2227ZM29.1504-56.4941L82.1289-56.4941C82.8125-56.4941 83.252-56.9824 83.252-57.6172C83.252-58.252 82.8125-58.7402 82.1289-58.7402L29.1504-58.7402C28.4668-58.7402 28.0273-58.252 28.0273-57.6172C28.0273-56.9824 28.4668-56.4941 29.1504-56.4941ZM12.2559-30.8594L17.334-33.9355C18.3105-34.5215 18.3105-35.8887 17.334-36.4746L12.2559-39.5996C10.9863-40.332 9.76562-39.9902 9.76562-38.4766L9.76562-31.9824C9.76562-30.5176 11.0352-30.1758 12.2559-30.8594ZM29.1504-34.082L82.1289-34.082C82.8125-34.082 83.252-34.5703 83.252-35.2051C83.252-35.8398 82.8125-36.3281 82.1289-36.3281L29.1504-36.3281C28.4668-36.3281 28.0273-35.8398 28.0273-35.2051C28.0273-34.5703 28.4668-34.082 29.1504-34.082ZM12.2559-8.39844L17.334-11.4746C18.3105-12.0605 18.3105-13.4277 17.334-14.0137L12.2559-17.1387C10.9863-17.8711 9.76562-17.5293 9.76562-16.0156L9.76562-9.52148C9.76562-8.05664 11.0352-7.71484 12.2559-8.39844ZM29.1504-11.6699L82.1289-11.6699C82.8125-11.6699 83.252-12.1582 83.252-12.793C83.252-13.4277 82.8125-13.916 82.1289-13.916L29.1504-13.916C28.4668-13.916 28.0273-13.4277 28.0273-12.793C28.0273-12.1582 28.4668-11.6699 29.1504-11.6699Z"/>
  </g>
 </g>
</svg>
