<?xml version="1.0" encoding="UTF-8"?>
<!--Generator: Apple Native CoreSVG 149-->
<!DOCTYPE svg
PUBLIC "-//W3C//DTD SVG 1.1//EN"
       "http://www.w3.org/Graphics/SVG/1.1/DTD/svg11.dtd">
<svg version="1.1" xmlns="http://www.w3.org/2000/svg" xmlns:xlink="http://www.w3.org/1999/xlink" width="3300" height="2200">
 <!--glyph: "uni1002D6.medium", point size: 100.000000, font version: "Version 16.0d18e1", template writer version: "8"-->
 <g id="Notes">
  <rect height="2200" id="artboard" style="fill:white;opacity:1" width="3300" x="0" y="0"/>
  <line id="" style="fill:none;stroke:black;opacity:1;stroke-width:0.5;" x1="263" x2="3036" y1="292" y2="292"/>
  <text style="stroke:none;fill:black;font-family:-apple-system,&quot;SF Pro Display&quot;,&quot;SF Pro Text&quot;,Helvetica,sans-serif;font-weight:bold;" transform="matrix(1 0 0 1 263 322)">Weight/Scale Variations</text>
  <text style="stroke:none;fill:black;font-family:-apple-system,&quot;SF Pro Display&quot;,&quot;SF Pro Text&quot;,Helvetica,sans-serif;text-anchor:middle;" transform="matrix(1 0 0 1 559.711 322)">Ultralight</text>
  <text style="stroke:none;fill:black;font-family:-apple-system,&quot;SF Pro Display&quot;,&quot;SF Pro Text&quot;,Helvetica,sans-serif;text-anchor:middle;" transform="matrix(1 0 0 1 856.422 322)">Thin</text>
  <text style="stroke:none;fill:black;font-family:-apple-system,&quot;SF Pro Display&quot;,&quot;SF Pro Text&quot;,Helvetica,sans-serif;text-anchor:middle;" transform="matrix(1 0 0 1 1153.13 322)">Light</text>
  <text style="stroke:none;fill:black;font-family:-apple-system,&quot;SF Pro Display&quot;,&quot;SF Pro Text&quot;,Helvetica,sans-serif;text-anchor:middle;" transform="matrix(1 0 0 1 1449.84 322)">Regular</text>
  <text style="stroke:none;fill:black;font-family:-apple-system,&quot;SF Pro Display&quot;,&quot;SF Pro Text&quot;,Helvetica,sans-serif;text-anchor:middle;" transform="matrix(1 0 0 1 1746.56 322)">Medium</text>
  <text style="stroke:none;fill:black;font-family:-apple-system,&quot;SF Pro Display&quot;,&quot;SF Pro Text&quot;,Helvetica,sans-serif;text-anchor:middle;" transform="matrix(1 0 0 1 2043.27 322)">Semibold</text>
  <text style="stroke:none;fill:black;font-family:-apple-system,&quot;SF Pro Display&quot;,&quot;SF Pro Text&quot;,Helvetica,sans-serif;text-anchor:middle;" transform="matrix(1 0 0 1 2339.98 322)">Bold</text>
  <text style="stroke:none;fill:black;font-family:-apple-system,&quot;SF Pro Display&quot;,&quot;SF Pro Text&quot;,Helvetica,sans-serif;text-anchor:middle;" transform="matrix(1 0 0 1 2636.69 322)">Heavy</text>
  <text style="stroke:none;fill:black;font-family:-apple-system,&quot;SF Pro Display&quot;,&quot;SF Pro Text&quot;,Helvetica,sans-serif;text-anchor:middle;" transform="matrix(1 0 0 1 2933.4 322)">Black</text>
  <line id="" style="fill:none;stroke:black;opacity:1;stroke-width:0.5;" x1="263" x2="3036" y1="1903" y2="1903"/>
  <g id="" transform="matrix(1 0 0 1 263 1933)">
   <path d="M9.24805 0.830078C13.5547 0.830078 17.1387-2.74414 17.1387-7.05078C17.1387-11.3574 13.5449-14.9316 9.23828-14.9316C4.94141-14.9316 1.36719-11.3574 1.36719-7.05078C1.36719-2.74414 4.95117 0.830078 9.24805 0.830078ZM9.24805-0.654297C5.70312-0.654297 2.87109-3.49609 2.87109-7.05078C2.87109-10.6055 5.69336-13.4473 9.23828-13.4473C12.793-13.4473 15.6348-10.6055 15.6445-7.05078C15.6543-3.49609 12.8027-0.654297 9.24805-0.654297ZM6.39648-6.31836L8.50586-6.31836L8.50586-4.19922C8.50586-3.75977 8.79883-3.45703 9.22852-3.45703C9.67773-3.45703 9.9707-3.75977 9.9707-4.19922L9.9707-6.31836L12.0996-6.31836C12.5391-6.31836 12.8418-6.61133 12.8418-7.04102C12.8418-7.48047 12.5391-7.7832 12.0996-7.7832L9.9707-7.7832L9.9707-9.89258C9.9707-10.3418 9.67773-10.6445 9.22852-10.6445C8.79883-10.6445 8.50586-10.3418 8.50586-9.89258L8.50586-7.7832L6.39648-7.7832C5.94727-7.7832 5.64453-7.48047 5.64453-7.04102C5.64453-6.61133 5.94727-6.31836 6.39648-6.31836Z"/>
  </g>
  <g id="" transform="matrix(1 0 0 1 281.506 1933)">
   <path d="M11.709 2.91016C17.1582 2.91016 21.6699-1.61133 21.6699-7.05078C21.6699-12.5 17.1484-17.0117 11.6992-17.0117C6.25977-17.0117 1.74805-12.5 1.74805-7.05078C1.74805-1.61133 6.26953 2.91016 11.709 2.91016ZM11.709 1.25C7.09961 1.25 3.41797-2.44141 3.41797-7.05078C3.41797-11.6602 7.08984-15.3516 11.6992-15.3516C16.3086-15.3516 20-11.6602 20.0098-7.05078C20.0195-2.44141 16.3184 1.25 11.709 1.25ZM7.98828-6.23047L10.8789-6.23047L10.8789-3.32031C10.8789-2.83203 11.2109-2.5 11.6895-2.5C12.1777-2.5 12.5195-2.83203 12.5195-3.32031L12.5195-6.23047L15.4297-6.23047C15.918-6.23047 16.25-6.5625 16.25-7.04102C16.25-7.5293 15.918-7.87109 15.4297-7.87109L12.5195-7.87109L12.5195-10.7617C12.5195-11.2695 12.1777-11.6016 11.6895-11.6016C11.2109-11.6016 10.8789-11.2598 10.8789-10.7617L10.8789-7.87109L7.98828-7.87109C7.48047-7.87109 7.14844-7.5293 7.14844-7.04102C7.14844-6.5625 7.49023-6.23047 7.98828-6.23047Z"/>
  </g>
  <g id="" transform="matrix(1 0 0 1 304.924 1933)">
   <path d="M14.9707 5.66406C21.9336 5.66406 27.6953-0.0976562 27.6953-7.05078C27.6953-14.0137 21.9238-19.7754 14.9609-19.7754C8.00781-19.7754 2.25586-14.0137 2.25586-7.05078C2.25586-0.0976562 8.01758 5.66406 14.9707 5.66406ZM14.9707 3.84766C8.93555 3.84766 4.08203-1.01562 4.08203-7.05078C4.08203-13.0957 8.92578-17.9492 14.9609-17.9492C21.0059-17.9492 25.8594-13.0957 25.8691-7.05078C25.8789-1.01562 21.0156 3.84766 14.9707 3.84766ZM10.0586-6.14258L14.0625-6.14258L14.0625-2.12891C14.0625-1.5918 14.4336-1.2207 14.9512-1.2207C15.4883-1.2207 15.8594-1.5918 15.8594-2.12891L15.8594-6.14258L19.8828-6.14258C20.4102-6.14258 20.791-6.51367 20.791-7.03125C20.791-7.56836 20.4199-7.94922 19.8828-7.94922L15.8594-7.94922L15.8594-11.9531C15.8594-12.5098 15.4883-12.8809 14.9512-12.8809C14.4336-12.8809 14.0625-12.5 14.0625-11.9531L14.0625-7.94922L10.0586-7.94922C9.50195-7.94922 9.13086-7.56836 9.13086-7.03125C9.13086-6.51367 9.51172-6.14258 10.0586-6.14258Z"/>
  </g>
  <text style="stroke:none;fill:black;font-family:-apple-system,&quot;SF Pro Display&quot;,&quot;SF Pro Text&quot;,Helvetica,sans-serif;font-weight:bold;" transform="matrix(1 0 0 1 263 1953)">Design Variations</text>
  <text style="stroke:none;fill:black;font-family:-apple-system,&quot;SF Pro Display&quot;,&quot;SF Pro Text&quot;,Helvetica,sans-serif;" transform="matrix(1 0 0 1 263 1971)">Symbols are supported in up to nine weights and three scales.</text>
  <text style="stroke:none;fill:black;font-family:-apple-system,&quot;SF Pro Display&quot;,&quot;SF Pro Text&quot;,Helvetica,sans-serif;" transform="matrix(1 0 0 1 263 1989)">For optimal layout with text and other symbols, vertically align</text>
  <text style="stroke:none;fill:black;font-family:-apple-system,&quot;SF Pro Display&quot;,&quot;SF Pro Text&quot;,Helvetica,sans-serif;" transform="matrix(1 0 0 1 263 2007)">symbols with the adjacent text.</text>
  <line id="" style="fill:none;stroke:#00AEEF;stroke-width:0.5;opacity:1.0;" x1="776" x2="776" y1="1919" y2="1933"/>
  <g id="" transform="matrix(1 0 0 1 776 1933)">
   <path d="M3.31055 0.126953C3.82812 0.126953 4.08203-0.0683594 4.26758-0.605469L5.52734-4.0625L11.2891-4.0625L12.5488-0.605469C12.7344-0.0683594 12.9883 0.126953 13.4961 0.126953C14.0137 0.126953 14.3457-0.185547 14.3457-0.673828C14.3457-0.839844 14.3164-0.986328 14.2383-1.20117L9.6582-13.3887C9.43359-13.9941 9.0332-14.2871 8.4082-14.2871C7.80273-14.2871 7.39258-13.9941 7.17773-13.3984L2.59766-1.19141C2.51953-0.976562 2.49023-0.830078 2.49023-0.664062C2.49023-0.175781 2.80273 0.126953 3.31055 0.126953ZM6.00586-5.53711L8.37891-12.1094L8.42773-12.1094L10.8008-5.53711Z"/>
  </g>
  <line id="" style="fill:none;stroke:#00AEEF;stroke-width:0.5;opacity:1.0;" x1="792.836" x2="792.836" y1="1919" y2="1933"/>
  <text style="stroke:none;fill:black;font-family:-apple-system,&quot;SF Pro Display&quot;,&quot;SF Pro Text&quot;,Helvetica,sans-serif;font-weight:bold;" transform="matrix(1 0 0 1 776 1953)">Margins</text>
  <text style="stroke:none;fill:black;font-family:-apple-system,&quot;SF Pro Display&quot;,&quot;SF Pro Text&quot;,Helvetica,sans-serif;" transform="matrix(1 0 0 1 776 1971)">Leading and trailing margins on the left and right side of each symbol</text>
  <text style="stroke:none;fill:black;font-family:-apple-system,&quot;SF Pro Display&quot;,&quot;SF Pro Text&quot;,Helvetica,sans-serif;" transform="matrix(1 0 0 1 776 1989)">can be adjusted by modifying the x-location of the margin guidelines.</text>
  <text style="stroke:none;fill:black;font-family:-apple-system,&quot;SF Pro Display&quot;,&quot;SF Pro Text&quot;,Helvetica,sans-serif;" transform="matrix(1 0 0 1 776 2007)">Modifications are automatically applied proportionally to all</text>
  <text style="stroke:none;fill:black;font-family:-apple-system,&quot;SF Pro Display&quot;,&quot;SF Pro Text&quot;,Helvetica,sans-serif;" transform="matrix(1 0 0 1 776 2025)">scales and weights.</text>
  <g id="" transform="matrix(1 0 0 1 1289 1933)">
   <path d="M2.8418 1.86523L4.54102 3.57422C5.40039 4.44336 6.38672 4.38477 7.31445 3.35938L17.4902-7.85156C17.7539-7.76367 18.0273-7.7832 18.3398-7.8418L19.4043-8.03711L20.0684-7.36328L20.0293-6.80664C19.9902-6.30859 20.1172-5.92773 20.6055-5.44922L21.3672-4.70703C21.8457-4.22852 22.4609-4.19922 22.9297-4.66797L25.8398-7.58789C26.3086-8.05664 26.2891-8.65234 25.8105-9.13086L25.0391-9.89258C24.5605-10.3711 24.1895-10.5273 23.7109-10.4883L23.1348-10.4395L22.4902-11.0742L22.7344-12.1973C22.8613-12.7637 22.7051-13.2031 22.1191-13.7891L19.9219-15.9766C16.582-19.2969 12.1484-19.2188 9.25781-16.3281C8.83789-15.918 8.80859-15.3418 9.04297-14.9512C9.27734-14.5898 9.73633-14.3555 10.3809-14.5215C11.8457-14.8633 13.3691-14.9219 14.7949-13.9844L14.209-12.5293C14.0137-12.0508 13.9844-11.6504 14.1113-11.2891L3.04688-0.898438C2.06055 0.0195312 1.98242 0.996094 2.8418 1.86523ZM10.752-15.957C13.1836-17.7344 16.4746-17.4316 18.7012-15.2051L21.1328-12.793C21.3672-12.5586 21.4062-12.373 21.3379-12.0312L21.0156-10.5469L22.5195-9.0625L23.5059-9.12109C23.7598-9.13086 23.8379-9.11133 24.0332-8.91602L24.6094-8.33984L22.168-5.89844L21.5918-6.47461C21.3965-6.66992 21.3672-6.74805 21.377-7.01172L21.4453-7.98828L19.9512-9.47266L18.4277-9.21875C18.1055-9.15039 17.959-9.17969 17.7148-9.41406L15.7129-11.416C15.459-11.6504 15.4297-11.8164 15.5859-12.1875L16.4648-14.2773C14.9023-15.7324 12.8711-16.3574 10.8398-15.7617C10.6836-15.7227 10.625-15.8496 10.752-15.957ZM5.27344 2.30469L4.10156 1.14258C3.63281 0.683594 3.74023 0.341797 4.14062-0.0195312L14.9512-10.1953L16.416-8.71094L6.42578 2.27539C6.07422 2.67578 5.74219 2.77344 5.27344 2.30469Z"/>
  </g>
  <text style="stroke:none;fill:black;font-family:-apple-system,&quot;SF Pro Display&quot;,&quot;SF Pro Text&quot;,Helvetica,sans-serif;font-weight:bold;" transform="matrix(1 0 0 1 1289 1953)">Exporting</text>
  <text style="stroke:none;fill:black;font-family:-apple-system,&quot;SF Pro Display&quot;,&quot;SF Pro Text&quot;,Helvetica,sans-serif;" transform="matrix(1 0 0 1 1289 1971)">Symbols should be outlined when exporting to ensure the</text>
  <text style="stroke:none;fill:black;font-family:-apple-system,&quot;SF Pro Display&quot;,&quot;SF Pro Text&quot;,Helvetica,sans-serif;" transform="matrix(1 0 0 1 1289 1989)">design is preserved when submitting to Xcode.</text>
  <text id="template-version" style="stroke:none;fill:black;font-family:-apple-system,&quot;SF Pro Display&quot;,&quot;SF Pro Text&quot;,Helvetica,sans-serif;text-anchor:end;" transform="matrix(1 0 0 1 3036 1933)">Template v.2.0</text>
  <text style="stroke:none;fill:black;font-family:-apple-system,&quot;SF Pro Display&quot;,&quot;SF Pro Text&quot;,Helvetica,sans-serif;text-anchor:end;" transform="matrix(1 0 0 1 3036 1951)">Requires Xcode 12 or greater</text>
  <text style="stroke:none;fill:black;font-family:-apple-system,&quot;SF Pro Display&quot;,&quot;SF Pro Text&quot;,Helvetica,sans-serif;text-anchor:end;" transform="matrix(1 0 0 1 3036 1969)">Generated from location.circle.fill</text>
  <text style="stroke:none;fill:black;font-family:-apple-system,&quot;SF Pro Display&quot;,&quot;SF Pro Text&quot;,Helvetica,sans-serif;text-anchor:end;" transform="matrix(1 0 0 1 3036 1987)">Typeset at 100 points</text>
  <text style="stroke:none;fill:black;font-family:-apple-system,&quot;SF Pro Display&quot;,&quot;SF Pro Text&quot;,Helvetica,sans-serif;" transform="matrix(1 0 0 1 263 726)">Small</text>
  <text style="stroke:none;fill:black;font-family:-apple-system,&quot;SF Pro Display&quot;,&quot;SF Pro Text&quot;,Helvetica,sans-serif;" transform="matrix(1 0 0 1 263 1156)">Medium</text>
  <text style="stroke:none;fill:black;font-family:-apple-system,&quot;SF Pro Display&quot;,&quot;SF Pro Text&quot;,Helvetica,sans-serif;" transform="matrix(1 0 0 1 263 1586)">Large</text>
 </g>
 <g id="Guides">
  <g id="H-reference" style="fill:#27AAE1;stroke:none;" transform="matrix(1 0 0 1 339 696)">
   <path d="M0.976562 0L3.66211 0L12.9883-24.4629L45.752-24.4629L55.127 0L57.7637 0L30.6152-70.459L28.125-70.459ZM29.3457-67.1387L29.4434-67.1387L44.873-26.709L13.8672-26.709Z"/>
  </g>
  <line id="Baseline-S" style="fill:none;stroke:#27AAE1;opacity:1;stroke-width:0.5;" x1="263" x2="3036" y1="696" y2="696"/>
  <line id="Capline-S" style="fill:none;stroke:#27AAE1;opacity:1;stroke-width:0.5;" x1="263" x2="3036" y1="625.541" y2="625.541"/>
  <g id="H-reference" style="fill:#27AAE1;stroke:none;" transform="matrix(1 0 0 1 339 1126)">
   <path d="M0.976562 0L3.66211 0L12.9883-24.4629L45.752-24.4629L55.127 0L57.7637 0L30.6152-70.459L28.125-70.459ZM29.3457-67.1387L29.4434-67.1387L44.873-26.709L13.8672-26.709Z"/>
  </g>
  <line id="Baseline-M" style="fill:none;stroke:#27AAE1;opacity:1;stroke-width:0.5;" x1="263" x2="3036" y1="1126" y2="1126"/>
  <line id="Capline-M" style="fill:none;stroke:#27AAE1;opacity:1;stroke-width:0.5;" x1="263" x2="3036" y1="1055.54" y2="1055.54"/>
  <g id="H-reference" style="fill:#27AAE1;stroke:none;" transform="matrix(1 0 0 1 339 1556)">
   <path d="M0.976562 0L3.66211 0L12.9883-24.4629L45.752-24.4629L55.127 0L57.7637 0L30.6152-70.459L28.125-70.459ZM29.3457-67.1387L29.4434-67.1387L44.873-26.709L13.8672-26.709Z"/>
  </g>
  <line id="Baseline-L" style="fill:none;stroke:#27AAE1;opacity:1;stroke-width:0.5;" x1="263" x2="3036" y1="1556" y2="1556"/>
  <line id="Capline-L" style="fill:none;stroke:#27AAE1;opacity:1;stroke-width:0.5;" x1="263" x2="3036" y1="1485.54" y2="1485.54"/>
  <line id="left-margin" style="fill:none;stroke:#00AEEF;stroke-width:0.5;opacity:1.0;" x1="1391.3" x2="1391.3" y1="1030.79" y2="1150.12"/>
  <line id="right-margin" style="fill:none;stroke:#00AEEF;stroke-width:0.5;opacity:1.0;" x1="1508.39" x2="1508.39" y1="1030.79" y2="1150.12"/>
 </g>
 <g id="Symbols">
  <g id="Black-L" transform="matrix(1 0 0 1 2854.05 1556)">
   <path d="M79.3457 32.9102C116.748 32.9102 147.412 2.29492 147.412-35.1074C147.412-72.5586 116.748-103.174 79.2969-103.174C41.8945-103.174 11.2793-72.5586 11.2793-35.1074C11.2793 2.29492 41.9434 32.9102 79.3457 32.9102ZM60.6934-4.93164C55.5176 0.244141 47.5098-3.71094 50.5859-11.5234L72.3145-66.3574C75.1465-73.4863 83.3496-73.5352 86.1816-66.4062L107.861-11.5234C111.035-3.56445 102.783 0.0976562 97.7539-4.93164L80.957-21.7773C79.8828-22.8027 78.5645-22.8027 77.5391-21.7773Z"/>
  </g>
  <g id="Heavy-L" transform="matrix(1 0 0 1 2558.39 1556)">
   <path d="M78.2715 31.8848C115.088 31.8848 145.312 1.66016 145.312-35.1562C145.312-71.9238 115.039-102.148 78.2715-102.148C41.4551-102.148 11.2793-71.9238 11.2793-35.1562C11.2793 1.66016 41.5039 31.8848 78.2715 31.8848ZM58.4961-4.44336C53.7598 0.341797 46.7285-3.41797 49.4141-10.2051L71.9727-67.4805C74.5117-73.7793 81.8848-73.877 84.3262-67.5781L106.934-10.2051C109.668-3.27148 102.49 0.195312 97.8516-4.44336L79.834-22.4121C78.8086-23.4863 77.5391-23.4375 76.5137-22.4121Z"/>
  </g>
  <g id="Bold-L" transform="matrix(1 0 0 1 2262.88 1556)">
   <path d="M77.0996 30.6641C113.232 30.6641 142.92 0.927734 142.92-35.1562C142.92-71.2891 113.184-100.977 77.0508-100.977C40.9668-100.977 11.2793-71.2891 11.2793-35.1562C11.2793 0.927734 41.0156 30.6641 77.0996 30.6641ZM56.0547-3.85742C51.8066 0.390625 45.8496-3.07617 48.0957-8.74023L71.6309-68.75C73.7793-74.1211 80.2246-74.2188 82.3242-68.8477L105.859-8.74023C108.154-2.97852 102.1 0.292969 97.9492-3.85742L78.6133-23.1934C77.6367-24.1699 76.3672-24.1699 75.3906-23.1934Z"/>
  </g>
  <g id="Semibold-L" transform="matrix(1 0 0 1 1966.97 1556)">
   <path d="M76.2695 29.834C111.914 29.834 141.309 0.439453 141.309-35.1562C141.309-70.8008 111.865-100.195 76.2695-100.195C40.625-100.195 11.2793-70.8008 11.2793-35.1562C11.2793 0.439453 40.6738 29.834 76.2695 29.834ZM54.3457-3.4668C50.4395 0.439453 45.2637-2.83203 47.2168-7.76367L71.3867-69.6289C73.291-74.3652 79.1016-74.4141 80.9082-69.7266L105.176-7.76367C107.129-2.7832 101.855 0.390625 97.998-3.4668L77.7832-23.7305C76.8066-24.707 75.5371-24.6582 74.6094-23.7305Z"/>
  </g>
  <g id="Medium-L" transform="matrix(1 0 0 1 1670.87 1556)">
   <path d="M75.6836 29.1992C110.938 29.1992 140.088 0.0976562 140.088-35.1562C140.088-70.459 110.889-99.5605 75.6348-99.5605C40.3809-99.5605 11.2793-70.459 11.2793-35.1562C11.2793 0.0976562 40.3809 29.1992 75.6836 29.1992ZM53.0762-3.125C49.4629 0.488281 44.8242-2.68555 46.5332-6.98242L71.1914-70.2637C72.9004-74.5117 78.2227-74.6094 79.8828-70.3613L104.59-6.98242C106.299-2.63672 101.66 0.439453 98.0469-3.125L77.0996-24.1211C76.1719-25.0488 74.9512-25.0488 74.0234-24.1211Z"/>
  </g>
  <g id="Regular-L" transform="matrix(1 0 0 1 1374.97 1556)">
   <path d="M74.8535 28.418C109.668 28.418 138.477-0.390625 138.477-35.2051C138.477-69.9707 109.619-98.7793 74.8047-98.7793C40.0391-98.7793 11.2793-69.9707 11.2793-35.2051C11.2793-0.390625 40.0879 28.418 74.8535 28.418ZM51.416-2.73438C48.0957 0.537109 44.2383-2.44141 45.6543-6.00586L70.9473-71.1426C72.4121-74.7559 77.0996-74.8535 78.5156-71.2402L103.906-6.00586C105.273-2.44141 101.416 0.537109 98.0957-2.73438L76.2695-24.6094C75.3418-25.5371 74.1699-25.5371 73.2422-24.6094Z"/>
  </g>
  <g id="Light-L" transform="matrix(1 0 0 1 1079.18 1556)">
   <path d="M73.9258 27.4902C108.301 27.4902 136.621-0.830078 136.621-35.2051C136.621-69.5312 108.252-97.8516 73.9258-97.8516C39.5508-97.8516 11.2793-69.5312 11.2793-35.2051C11.2793-0.830078 39.5996 27.4902 73.9258 27.4902ZM50.2441-2.58789C47.8027-0.146484 44.7754-2.34375 45.8496-5.12695L71.0938-70.7031C72.168-73.3887 75.5859-73.4375 76.6113-70.8008L101.855-5.12695C102.979-2.34375 99.9512-0.146484 97.5098-2.58789L75.1953-24.9512C74.3652-25.7812 73.291-25.7324 72.5098-24.9512Z"/>
  </g>
  <g id="Thin-L" transform="matrix(1 0 0 1 783.693 1556)">
   <path d="M72.7051 26.2695C106.494 26.2695 134.18-1.41602 134.18-35.2051C134.18-68.9453 106.494-96.6309 72.7051-96.6309C38.9648-96.6309 11.2793-68.9453 11.2793-35.2051C11.2793-1.41602 38.9648 26.2695 72.7051 26.2695ZM48.6816-2.34375C47.4121-1.07422 45.5078-2.19727 46.1426-3.95508L71.2891-70.166C71.8262-71.6309 73.5352-71.6309 74.0723-70.166L99.2188-3.95508C99.9023-2.19727 97.998-1.07422 96.7285-2.34375L73.7793-25.3418C73.0957-26.0254 72.2168-25.9766 71.582-25.3418Z"/>
  </g>
  <g id="Ultralight-L" transform="matrix(1 0 0 1 487.616 1556)">
   <path d="M72.1191 25.6348C105.566 25.6348 132.91-1.70898 132.91-35.2051C132.91-68.6523 105.566-95.9961 72.1191-95.9961C38.623-95.9961 11.2793-68.6523 11.2793-35.2051C11.2793-1.70898 38.623 25.6348 72.1191 25.6348ZM47.8516-2.24609C47.168-1.5625 45.8496-2.09961 46.3379-3.36914L71.3867-69.873C71.6309-70.7031 72.5098-70.7031 72.8027-69.873L97.8516-3.36914C98.3398-2.09961 96.9727-1.5625 96.2891-2.24609L73.0957-25.5371C72.4609-26.1719 71.6309-26.0742 71.0938-25.5371Z"/>
  </g>
  <g id="Black-M" transform="matrix(1 0 0 1 2870.97 1126)">
   <path d="M62.4023 18.5547C91.9922 18.5547 116.113-5.56641 116.113-35.1562C116.113-64.7461 91.9922-88.8184 62.4023-88.8184C32.8125-88.8184 8.74023-64.7461 8.74023-35.1562C8.74023-5.56641 32.8125 18.5547 62.4023 18.5547ZM49.3652-12.3535C45.2148-8.20312 38.1348-11.1816 40.918-18.1641L56.543-57.6172C58.9844-63.7695 65.7227-63.7695 68.2129-57.6172L83.7891-18.1641C86.6211-10.9863 79.3457-8.39844 75.3418-12.3535L63.6719-24.0234C62.8418-24.8535 61.8652-24.8535 61.0352-24.0234Z"/>
  </g>
  <g id="Heavy-M" transform="matrix(1 0 0 1 2575.19 1126)">
   <path d="M61.5234 17.627C90.5273 17.627 114.258-6.10352 114.258-35.1562C114.258-64.1602 90.5273-87.8906 61.4746-87.8906C32.4707-87.8906 8.74023-64.1602 8.74023-35.1562C8.74023-6.10352 32.4707 17.627 61.5234 17.627ZM47.2656-11.8652C43.3594-7.91016 37.1582-10.8887 39.5508-16.9434L56.1523-58.9355C58.3496-64.4531 64.5508-64.4531 66.6992-58.9844L83.3008-16.9434C85.7422-10.7422 79.3457-8.05664 75.5859-11.8652L62.7441-24.707C61.9141-25.4883 60.9375-25.4883 60.1074-24.707Z"/>
  </g>
  <g id="Bold-M" transform="matrix(1 0 0 1 2279.5 1126)">
   <path d="M60.498 16.5527C88.8672 16.5527 112.207-6.73828 112.207-35.1562C112.207-63.5742 88.8672-86.9141 60.4492-86.9141C32.0312-86.9141 8.74023-63.5742 8.74023-35.1562C8.74023-6.73828 32.0801 16.5527 60.498 16.5527ZM44.9219-11.2793C41.3086-7.66602 36.0352-10.5469 38.0859-15.625L55.7129-60.4492C57.6172-65.1855 63.1836-65.2344 65.0391-60.498L82.7148-15.625C84.7656-10.4492 79.3945-7.76367 75.8301-11.2793L61.6699-25.4395C60.8887-26.2207 59.9121-26.2207 59.082-25.4395Z"/>
  </g>
  <g id="Semibold-M" transform="matrix(1 0 0 1 1983.5 1126)">
   <path d="M59.7656 15.8691C87.7441 15.8691 110.791-7.22656 110.791-35.1562C110.791-63.1348 87.6953-86.2305 59.7656-86.2305C31.7871-86.2305 8.74023-63.1348 8.74023-35.1562C8.74023-7.22656 31.7871 15.8691 59.7656 15.8691ZM43.3105-10.8398C39.8926-7.4707 35.3027-10.3027 37.0605-14.6973L55.4199-61.4746C57.1289-65.7227 62.2559-65.7715 63.916-61.5723L82.3242-14.6973C84.082-10.2051 79.3945-7.51953 76.0254-10.8398L60.9863-25.9277C60.1562-26.7578 59.1797-26.709 58.3984-25.9277Z"/>
  </g>
  <g id="Medium-M" transform="matrix(1 0 0 1 1687.3 1126)">
   <path d="M59.2285 15.332C86.9141 15.332 109.766-7.51953 109.766-35.2051C109.766-62.8418 86.8652-85.6934 59.1797-85.6934C31.543-85.6934 8.74023-62.8418 8.74023-35.2051C8.74023-7.51953 31.5918 15.332 59.2285 15.332ZM42.0898-10.5469C38.8672-7.32422 34.7168-10.1074 36.2305-13.9648L55.2246-62.3047C56.7383-66.1133 61.5234-66.2109 63.0371-62.3535L82.0312-13.9648C83.5938-10.0586 79.3945-7.32422 76.1719-10.5469L60.4004-26.3184C59.6191-27.0996 58.6426-27.0996 57.8613-26.3184Z"/>
  </g>
  <g id="Regular-M" transform="matrix(1 0 0 1 1391.3 1126)">
   <path d="M58.5449 14.5996C85.791 14.5996 108.35-7.95898 108.35-35.2051C108.35-62.4023 85.7422-85.0098 58.4961-85.0098C31.2988-85.0098 8.74023-62.4023 8.74023-35.2051C8.74023-7.95898 31.3477 14.5996 58.5449 14.5996ZM40.4785-10.1562C37.4512-7.12891 33.9844-9.86328 35.2051-13.0371L54.9316-63.3301C56.25-66.6016 60.5957-66.6992 61.9141-63.4277L81.6406-13.0371C82.9102-9.86328 79.3945-7.12891 76.3672-10.1562L59.7168-26.8066C58.9355-27.6367 57.959-27.5879 57.1777-26.8066Z"/>
  </g>
  <g id="Light-M" transform="matrix(1 0 0 1 1095.42 1126)">
   <path d="M57.7148 13.7695C84.5215 13.7695 106.689-8.34961 106.689-35.2051C106.689-62.0117 84.5215-84.1797 57.666-84.1797C30.8594-84.1797 8.74023-62.0117 8.74023-35.2051C8.74023-8.34961 30.9082 13.7695 57.7148 13.7695ZM39.4531-10.0098C37.1582-7.71484 34.4727-9.76562 35.4492-12.3047L55.0293-62.9395C56.0059-65.4297 59.2285-65.4785 60.2051-62.9883L79.834-12.3047C80.8105-9.76562 78.0762-7.71484 75.8301-10.0098L58.7402-27.0996C58.0566-27.7832 57.1777-27.7832 56.543-27.0996Z"/>
  </g>
  <g id="Thin-M" transform="matrix(1 0 0 1 799.806 1126)">
   <path d="M56.6406 12.6953C82.9102 12.6953 104.492-8.88672 104.492-35.2051C104.492-61.4746 82.9102-83.0566 56.5918-83.0566C30.3223-83.0566 8.74023-61.4746 8.74023-35.2051C8.74023-8.88672 30.3223 12.6953 56.6406 12.6953ZM38.0371-9.81445C36.8164-8.54492 35.1074-9.66797 35.6934-11.2305L55.2246-62.4023C55.7129-63.8184 57.4219-63.8184 57.959-62.4512L77.4414-11.2305C78.0762-9.66797 76.3672-8.54492 75.1465-9.81445L57.4707-27.4902C56.9336-28.0273 56.2012-27.9785 55.6641-27.4902Z"/>
  </g>
  <g id="Ultralight-M" transform="matrix(1 0 0 1 503.656 1126)">
   <path d="M56.0547 12.1094C82.0801 12.1094 103.369-9.17969 103.369-35.2051C103.369-61.2305 82.0801-82.5195 56.0547-82.5195C30.0293-82.5195 8.74023-61.2305 8.74023-35.2051C8.74023-9.17969 30.0293 12.1094 56.0547 12.1094ZM37.3535-9.7168C36.6211-8.98438 35.4004-9.57031 35.8398-10.7422L55.2734-62.1582C55.5664-62.9883 56.4941-62.9883 56.7871-62.1582L76.2207-10.7422C76.6602-9.57031 75.4395-8.98438 74.7559-9.7168L56.8359-27.6855C56.3477-28.1738 55.6641-28.125 55.2246-27.6855Z"/>
  </g>
  <g id="Black-S" transform="matrix(1 0 0 1 2884.57 696)">
   <path d="M48.8281 6.83594C71.9727 6.83594 90.8203-12.0117 90.8203-35.1562C90.8203-58.3008 71.9727-77.1484 48.8281-77.1484C25.6836-77.1484 6.83594-58.3008 6.83594-35.1562C6.83594-12.0117 25.6836 6.83594 48.8281 6.83594ZM38.5254-17.2852C35.2539-14.0137 29.7852-16.3574 31.9336-21.7773L44.2383-52.8809C46.1426-57.666 51.416-57.666 53.3203-52.8809L65.625-21.7773C67.8223-16.2109 62.1582-14.1602 59.0332-17.2852L49.8047-26.5137C49.1699-27.1484 48.3887-27.1484 47.7539-26.5137Z"/>
  </g>
  <g id="Heavy-S" transform="matrix(1 0 0 1 2588.47 696)">
   <path d="M48.2422 6.20117C70.9961 6.20117 89.5996-12.4023 89.5996-35.1562C89.5996-57.9102 70.9961-76.5625 48.1934-76.5625C25.4395-76.5625 6.83594-57.9102 6.83594-35.1562C6.83594-12.4023 25.4395 6.20117 48.2422 6.20117ZM37.0605-16.8945C33.8867-13.7695 29.0039-16.1133 30.9082-20.9473L43.9453-53.9551C45.7031-58.3008 50.6348-58.3496 52.3926-53.9551L65.4297-20.9473C67.3828-16.0156 62.3047-13.8672 59.2773-16.8945L49.2188-27.002C48.584-27.6367 47.7539-27.6367 47.1191-27.002Z"/>
  </g>
  <g id="Bold-S" transform="matrix(1 0 0 1 2292.44 696)">
   <path d="M47.5586 5.51758C69.873 5.51758 88.2324-12.8418 88.2324-35.2051C88.2324-57.5195 69.873-75.8789 47.5098-75.8789C25.1953-75.8789 6.83594-57.5195 6.83594-35.2051C6.83594-12.8418 25.1953 5.51758 47.5586 5.51758ZM35.4004-16.4551C32.373-13.4277 28.0762-15.8691 29.7363-20.0195L43.6035-55.127C45.166-59.0332 49.8047-59.082 51.3184-55.1758L65.2344-20.0195C66.8945-15.8203 62.5-13.5254 59.5703-16.4551L48.5352-27.4902C47.9004-28.1738 47.0703-28.1738 46.4355-27.4902Z"/>
  </g>
  <g id="Semibold-S" transform="matrix(1 0 0 1 1996.2 696)">
   <path d="M47.0703 5.0293C69.0918 5.0293 87.3047-13.1348 87.3047-35.2051C87.3047-57.2266 69.0918-75.4395 47.0215-75.4395C25-75.4395 6.83594-57.2266 6.83594-35.2051C6.83594-13.1348 25.0488 5.0293 47.0703 5.0293ZM34.2285-16.1621C31.3477-13.2324 27.4902-15.7227 28.9062-19.3848L43.4082-55.957C44.8242-59.5215 49.2188-59.6191 50.6348-56.0547L65.0879-19.3848C66.5527-15.6738 62.6465-13.2812 59.7656-16.1621L48.0957-27.8809C47.4121-28.5156 46.6309-28.5156 45.9473-27.8809Z"/>
  </g>
  <g id="Medium-S" transform="matrix(1 0 0 1 1699.83 696)">
   <path d="M46.7285 4.6875C68.5547 4.6875 86.6211-13.3789 86.6211-35.2051C86.6211-57.0312 68.5059-75.0977 46.6797-75.0977C24.8535-75.0977 6.83594-57.0312 6.83594-35.2051C6.83594-13.3789 24.9023 4.6875 46.7285 4.6875ZM33.3984-15.9668C30.5176-13.0859 27.002-15.5762 28.3203-18.8965L43.2129-56.5918C44.5312-59.9121 48.7793-60.0098 50.0488-56.6895L64.9902-18.8965C66.3086-15.5762 62.7441-13.1348 59.9121-15.9668L47.7051-28.1738C47.0703-28.8086 46.2402-28.8086 45.6055-28.1738Z"/>
  </g>
  <g id="Regular-S" transform="matrix(1 0 0 1 1403.58 696)">
   <path d="M46.2402 4.19922C67.7734 4.19922 85.6934-13.6719 85.6934-35.2051C85.6934-56.7383 67.7246-74.6094 46.1914-74.6094C24.707-74.6094 6.83594-56.7383 6.83594-35.2051C6.83594-13.6719 24.7559 4.19922 46.2402 4.19922ZM32.2754-15.6738C29.4922-12.8906 26.416-15.4297 27.5391-18.2617L42.9688-57.4219C44.1895-60.4004 48.1934-60.498 49.3652-57.5195L64.8438-18.2617C65.9668-15.4297 62.8906-12.8906 60.1074-15.6738L47.2656-28.5156C46.582-29.1992 45.8008-29.1992 45.1172-28.5156Z"/>
  </g>
  <g id="Light-S" transform="matrix(1 0 0 1 1107.6 696)">
   <path d="M45.5078 3.4668C66.6992 3.4668 84.2285-14.0137 84.2285-35.2051C84.2285-56.3965 66.6504-73.877 45.5078-73.877C24.3164-73.877 6.83594-56.3965 6.83594-35.2051C6.83594-14.0137 24.3652 3.4668 45.5078 3.4668ZM31.3477-15.5273C29.248-13.4277 26.8066-15.332 27.6855-17.5293L43.1152-57.0801C43.9941-59.3262 46.9727-59.4238 47.8516-57.1289L63.2812-17.5293C64.1602-15.332 61.7188-13.4277 59.668-15.5273L46.4355-28.7598C45.8496-29.3457 45.1172-29.3457 44.5312-28.7598Z"/>
  </g>
  <g id="Thin-S" transform="matrix(1 0 0 1 811.867 696)">
   <path d="M44.5801 2.53906C65.2832 2.53906 82.2754-14.502 82.2754-35.2051C82.2754-55.9082 65.2344-72.9492 44.5312-72.9492C23.8281-72.9492 6.83594-55.9082 6.83594-35.2051C6.83594-14.502 23.877 2.53906 44.5801 2.53906ZM30.0781-15.332C28.9551-14.1602 27.3926-15.2344 27.9297-16.6504L43.2617-56.6406C43.75-57.9102 45.3613-57.959 45.8496-56.6406L61.1816-16.6504C61.7188-15.2344 60.1562-14.1602 59.0332-15.332L45.3125-29.1016C44.8242-29.541 44.2383-29.4922 43.7988-29.1016Z"/>
  </g>
  <g id="Ultralight-S" transform="matrix(1 0 0 1 515.644 696)">
   <path d="M44.043 2.00195C64.502 2.00195 81.2988-14.7461 81.2988-35.2051C81.2988-55.6641 64.502-72.4121 44.043-72.4121C23.584-72.4121 6.83594-55.6641 6.83594-35.2051C6.83594-14.7461 23.584 2.00195 44.043 2.00195ZM29.4434-15.2344C28.7598-14.5508 27.6855-15.1367 28.0762-16.1621L43.3105-56.3965C43.6035-57.1777 44.5312-57.2266 44.8242-56.3965L60.1074-16.1621C60.4492-15.1367 59.375-14.5508 58.6914-15.2344L44.7266-29.248C44.3359-29.6387 43.7988-29.6387 43.4082-29.248Z"/>
  </g>
 </g>
</svg>
