<?xml version="1.0" encoding="UTF-8"?>
<!--Generator: Apple Native CoreSVG 149-->
<!DOCTYPE svg
PUBLIC "-//W3C//DTD SVG 1.1//EN"
       "http://www.w3.org/Graphics/SVG/1.1/DTD/svg11.dtd">
<svg version="1.1" xmlns="http://www.w3.org/2000/svg" xmlns:xlink="http://www.w3.org/1999/xlink" width="3300" height="2200">
 <!--glyph: "uni10046C.medium", point size: 100.000000, font version: "Version 16.0d18e1", template writer version: "8"-->
 <g id="Notes">
  <rect height="2200" id="artboard" style="fill:white;opacity:1" width="3300" x="0" y="0"/>
  <line id="" style="fill:none;stroke:black;opacity:1;stroke-width:0.5;" x1="263" x2="3036" y1="292" y2="292"/>
  <text style="stroke:none;fill:black;font-family:-apple-system,&quot;SF Pro Display&quot;,&quot;SF Pro Text&quot;,Helvetica,sans-serif;font-weight:bold;" transform="matrix(1 0 0 1 263 322)">Weight/Scale Variations</text>
  <text style="stroke:none;fill:black;font-family:-apple-system,&quot;SF Pro Display&quot;,&quot;SF Pro Text&quot;,Helvetica,sans-serif;text-anchor:middle;" transform="matrix(1 0 0 1 559.711 322)">Ultralight</text>
  <text style="stroke:none;fill:black;font-family:-apple-system,&quot;SF Pro Display&quot;,&quot;SF Pro Text&quot;,Helvetica,sans-serif;text-anchor:middle;" transform="matrix(1 0 0 1 856.422 322)">Thin</text>
  <text style="stroke:none;fill:black;font-family:-apple-system,&quot;SF Pro Display&quot;,&quot;SF Pro Text&quot;,Helvetica,sans-serif;text-anchor:middle;" transform="matrix(1 0 0 1 1153.13 322)">Light</text>
  <text style="stroke:none;fill:black;font-family:-apple-system,&quot;SF Pro Display&quot;,&quot;SF Pro Text&quot;,Helvetica,sans-serif;text-anchor:middle;" transform="matrix(1 0 0 1 1449.84 322)">Regular</text>
  <text style="stroke:none;fill:black;font-family:-apple-system,&quot;SF Pro Display&quot;,&quot;SF Pro Text&quot;,Helvetica,sans-serif;text-anchor:middle;" transform="matrix(1 0 0 1 1746.56 322)">Medium</text>
  <text style="stroke:none;fill:black;font-family:-apple-system,&quot;SF Pro Display&quot;,&quot;SF Pro Text&quot;,Helvetica,sans-serif;text-anchor:middle;" transform="matrix(1 0 0 1 2043.27 322)">Semibold</text>
  <text style="stroke:none;fill:black;font-family:-apple-system,&quot;SF Pro Display&quot;,&quot;SF Pro Text&quot;,Helvetica,sans-serif;text-anchor:middle;" transform="matrix(1 0 0 1 2339.98 322)">Bold</text>
  <text style="stroke:none;fill:black;font-family:-apple-system,&quot;SF Pro Display&quot;,&quot;SF Pro Text&quot;,Helvetica,sans-serif;text-anchor:middle;" transform="matrix(1 0 0 1 2636.69 322)">Heavy</text>
  <text style="stroke:none;fill:black;font-family:-apple-system,&quot;SF Pro Display&quot;,&quot;SF Pro Text&quot;,Helvetica,sans-serif;text-anchor:middle;" transform="matrix(1 0 0 1 2933.4 322)">Black</text>
  <line id="" style="fill:none;stroke:black;opacity:1;stroke-width:0.5;" x1="263" x2="3036" y1="1903" y2="1903"/>
  <g id="" transform="matrix(1 0 0 1 263 1933)">
   <path d="M9.24805 0.830078C13.5547 0.830078 17.1387-2.74414 17.1387-7.05078C17.1387-11.3574 13.5449-14.9316 9.23828-14.9316C4.94141-14.9316 1.36719-11.3574 1.36719-7.05078C1.36719-2.74414 4.95117 0.830078 9.24805 0.830078ZM9.24805-0.654297C5.70312-0.654297 2.87109-3.49609 2.87109-7.05078C2.87109-10.6055 5.69336-13.4473 9.23828-13.4473C12.793-13.4473 15.6348-10.6055 15.6445-7.05078C15.6543-3.49609 12.8027-0.654297 9.24805-0.654297ZM6.39648-6.31836L8.50586-6.31836L8.50586-4.19922C8.50586-3.75977 8.79883-3.45703 9.22852-3.45703C9.67773-3.45703 9.9707-3.75977 9.9707-4.19922L9.9707-6.31836L12.0996-6.31836C12.5391-6.31836 12.8418-6.61133 12.8418-7.04102C12.8418-7.48047 12.5391-7.7832 12.0996-7.7832L9.9707-7.7832L9.9707-9.89258C9.9707-10.3418 9.67773-10.6445 9.22852-10.6445C8.79883-10.6445 8.50586-10.3418 8.50586-9.89258L8.50586-7.7832L6.39648-7.7832C5.94727-7.7832 5.64453-7.48047 5.64453-7.04102C5.64453-6.61133 5.94727-6.31836 6.39648-6.31836Z"/>
  </g>
  <g id="" transform="matrix(1 0 0 1 281.506 1933)">
   <path d="M11.709 2.91016C17.1582 2.91016 21.6699-1.61133 21.6699-7.05078C21.6699-12.5 17.1484-17.0117 11.6992-17.0117C6.25977-17.0117 1.74805-12.5 1.74805-7.05078C1.74805-1.61133 6.26953 2.91016 11.709 2.91016ZM11.709 1.25C7.09961 1.25 3.41797-2.44141 3.41797-7.05078C3.41797-11.6602 7.08984-15.3516 11.6992-15.3516C16.3086-15.3516 20-11.6602 20.0098-7.05078C20.0195-2.44141 16.3184 1.25 11.709 1.25ZM7.98828-6.23047L10.8789-6.23047L10.8789-3.32031C10.8789-2.83203 11.2109-2.5 11.6895-2.5C12.1777-2.5 12.5195-2.83203 12.5195-3.32031L12.5195-6.23047L15.4297-6.23047C15.918-6.23047 16.25-6.5625 16.25-7.04102C16.25-7.5293 15.918-7.87109 15.4297-7.87109L12.5195-7.87109L12.5195-10.7617C12.5195-11.2695 12.1777-11.6016 11.6895-11.6016C11.2109-11.6016 10.8789-11.2598 10.8789-10.7617L10.8789-7.87109L7.98828-7.87109C7.48047-7.87109 7.14844-7.5293 7.14844-7.04102C7.14844-6.5625 7.49023-6.23047 7.98828-6.23047Z"/>
  </g>
  <g id="" transform="matrix(1 0 0 1 304.924 1933)">
   <path d="M14.9707 5.66406C21.9336 5.66406 27.6953-0.0976562 27.6953-7.05078C27.6953-14.0137 21.9238-19.7754 14.9609-19.7754C8.00781-19.7754 2.25586-14.0137 2.25586-7.05078C2.25586-0.0976562 8.01758 5.66406 14.9707 5.66406ZM14.9707 3.84766C8.93555 3.84766 4.08203-1.01562 4.08203-7.05078C4.08203-13.0957 8.92578-17.9492 14.9609-17.9492C21.0059-17.9492 25.8594-13.0957 25.8691-7.05078C25.8789-1.01562 21.0156 3.84766 14.9707 3.84766ZM10.0586-6.14258L14.0625-6.14258L14.0625-2.12891C14.0625-1.5918 14.4336-1.2207 14.9512-1.2207C15.4883-1.2207 15.8594-1.5918 15.8594-2.12891L15.8594-6.14258L19.8828-6.14258C20.4102-6.14258 20.791-6.51367 20.791-7.03125C20.791-7.56836 20.4199-7.94922 19.8828-7.94922L15.8594-7.94922L15.8594-11.9531C15.8594-12.5098 15.4883-12.8809 14.9512-12.8809C14.4336-12.8809 14.0625-12.5 14.0625-11.9531L14.0625-7.94922L10.0586-7.94922C9.50195-7.94922 9.13086-7.56836 9.13086-7.03125C9.13086-6.51367 9.51172-6.14258 10.0586-6.14258Z"/>
  </g>
  <text style="stroke:none;fill:black;font-family:-apple-system,&quot;SF Pro Display&quot;,&quot;SF Pro Text&quot;,Helvetica,sans-serif;font-weight:bold;" transform="matrix(1 0 0 1 263 1953)">Design Variations</text>
  <text style="stroke:none;fill:black;font-family:-apple-system,&quot;SF Pro Display&quot;,&quot;SF Pro Text&quot;,Helvetica,sans-serif;" transform="matrix(1 0 0 1 263 1971)">Symbols are supported in up to nine weights and three scales.</text>
  <text style="stroke:none;fill:black;font-family:-apple-system,&quot;SF Pro Display&quot;,&quot;SF Pro Text&quot;,Helvetica,sans-serif;" transform="matrix(1 0 0 1 263 1989)">For optimal layout with text and other symbols, vertically align</text>
  <text style="stroke:none;fill:black;font-family:-apple-system,&quot;SF Pro Display&quot;,&quot;SF Pro Text&quot;,Helvetica,sans-serif;" transform="matrix(1 0 0 1 263 2007)">symbols with the adjacent text.</text>
  <line id="" style="fill:none;stroke:#00AEEF;stroke-width:0.5;opacity:1.0;" x1="776" x2="776" y1="1919" y2="1933"/>
  <g id="" transform="matrix(1 0 0 1 776 1933)">
   <path d="M3.31055 0.126953C3.82812 0.126953 4.08203-0.0683594 4.26758-0.605469L5.52734-4.0625L11.2891-4.0625L12.5488-0.605469C12.7344-0.0683594 12.9883 0.126953 13.4961 0.126953C14.0137 0.126953 14.3457-0.185547 14.3457-0.673828C14.3457-0.839844 14.3164-0.986328 14.2383-1.20117L9.6582-13.3887C9.43359-13.9941 9.0332-14.2871 8.4082-14.2871C7.80273-14.2871 7.39258-13.9941 7.17773-13.3984L2.59766-1.19141C2.51953-0.976562 2.49023-0.830078 2.49023-0.664062C2.49023-0.175781 2.80273 0.126953 3.31055 0.126953ZM6.00586-5.53711L8.37891-12.1094L8.42773-12.1094L10.8008-5.53711Z"/>
  </g>
  <line id="" style="fill:none;stroke:#00AEEF;stroke-width:0.5;opacity:1.0;" x1="792.836" x2="792.836" y1="1919" y2="1933"/>
  <text style="stroke:none;fill:black;font-family:-apple-system,&quot;SF Pro Display&quot;,&quot;SF Pro Text&quot;,Helvetica,sans-serif;font-weight:bold;" transform="matrix(1 0 0 1 776 1953)">Margins</text>
  <text style="stroke:none;fill:black;font-family:-apple-system,&quot;SF Pro Display&quot;,&quot;SF Pro Text&quot;,Helvetica,sans-serif;" transform="matrix(1 0 0 1 776 1971)">Leading and trailing margins on the left and right side of each symbol</text>
  <text style="stroke:none;fill:black;font-family:-apple-system,&quot;SF Pro Display&quot;,&quot;SF Pro Text&quot;,Helvetica,sans-serif;" transform="matrix(1 0 0 1 776 1989)">can be adjusted by modifying the x-location of the margin guidelines.</text>
  <text style="stroke:none;fill:black;font-family:-apple-system,&quot;SF Pro Display&quot;,&quot;SF Pro Text&quot;,Helvetica,sans-serif;" transform="matrix(1 0 0 1 776 2007)">Modifications are automatically applied proportionally to all</text>
  <text style="stroke:none;fill:black;font-family:-apple-system,&quot;SF Pro Display&quot;,&quot;SF Pro Text&quot;,Helvetica,sans-serif;" transform="matrix(1 0 0 1 776 2025)">scales and weights.</text>
  <g id="" transform="matrix(1 0 0 1 1289 1933)">
   <path d="M2.8418 1.86523L4.54102 3.57422C5.40039 4.44336 6.38672 4.38477 7.31445 3.35938L17.4902-7.85156C17.7539-7.76367 18.0273-7.7832 18.3398-7.8418L19.4043-8.03711L20.0684-7.36328L20.0293-6.80664C19.9902-6.30859 20.1172-5.92773 20.6055-5.44922L21.3672-4.70703C21.8457-4.22852 22.4609-4.19922 22.9297-4.66797L25.8398-7.58789C26.3086-8.05664 26.2891-8.65234 25.8105-9.13086L25.0391-9.89258C24.5605-10.3711 24.1895-10.5273 23.7109-10.4883L23.1348-10.4395L22.4902-11.0742L22.7344-12.1973C22.8613-12.7637 22.7051-13.2031 22.1191-13.7891L19.9219-15.9766C16.582-19.2969 12.1484-19.2188 9.25781-16.3281C8.83789-15.918 8.80859-15.3418 9.04297-14.9512C9.27734-14.5898 9.73633-14.3555 10.3809-14.5215C11.8457-14.8633 13.3691-14.9219 14.7949-13.9844L14.209-12.5293C14.0137-12.0508 13.9844-11.6504 14.1113-11.2891L3.04688-0.898438C2.06055 0.0195312 1.98242 0.996094 2.8418 1.86523ZM10.752-15.957C13.1836-17.7344 16.4746-17.4316 18.7012-15.2051L21.1328-12.793C21.3672-12.5586 21.4062-12.373 21.3379-12.0312L21.0156-10.5469L22.5195-9.0625L23.5059-9.12109C23.7598-9.13086 23.8379-9.11133 24.0332-8.91602L24.6094-8.33984L22.168-5.89844L21.5918-6.47461C21.3965-6.66992 21.3672-6.74805 21.377-7.01172L21.4453-7.98828L19.9512-9.47266L18.4277-9.21875C18.1055-9.15039 17.959-9.17969 17.7148-9.41406L15.7129-11.416C15.459-11.6504 15.4297-11.8164 15.5859-12.1875L16.4648-14.2773C14.9023-15.7324 12.8711-16.3574 10.8398-15.7617C10.6836-15.7227 10.625-15.8496 10.752-15.957ZM5.27344 2.30469L4.10156 1.14258C3.63281 0.683594 3.74023 0.341797 4.14062-0.0195312L14.9512-10.1953L16.416-8.71094L6.42578 2.27539C6.07422 2.67578 5.74219 2.77344 5.27344 2.30469Z"/>
  </g>
  <text style="stroke:none;fill:black;font-family:-apple-system,&quot;SF Pro Display&quot;,&quot;SF Pro Text&quot;,Helvetica,sans-serif;font-weight:bold;" transform="matrix(1 0 0 1 1289 1953)">Exporting</text>
  <text style="stroke:none;fill:black;font-family:-apple-system,&quot;SF Pro Display&quot;,&quot;SF Pro Text&quot;,Helvetica,sans-serif;" transform="matrix(1 0 0 1 1289 1971)">Symbols should be outlined when exporting to ensure the</text>
  <text style="stroke:none;fill:black;font-family:-apple-system,&quot;SF Pro Display&quot;,&quot;SF Pro Text&quot;,Helvetica,sans-serif;" transform="matrix(1 0 0 1 1289 1989)">design is preserved when submitting to Xcode.</text>
  <text id="template-version" style="stroke:none;fill:black;font-family:-apple-system,&quot;SF Pro Display&quot;,&quot;SF Pro Text&quot;,Helvetica,sans-serif;text-anchor:end;" transform="matrix(1 0 0 1 3036 1933)">Template v.2.0</text>
  <text style="stroke:none;fill:black;font-family:-apple-system,&quot;SF Pro Display&quot;,&quot;SF Pro Text&quot;,Helvetica,sans-serif;text-anchor:end;" transform="matrix(1 0 0 1 3036 1951)">Requires Xcode 12 or greater</text>
  <text style="stroke:none;fill:black;font-family:-apple-system,&quot;SF Pro Display&quot;,&quot;SF Pro Text&quot;,Helvetica,sans-serif;text-anchor:end;" transform="matrix(1 0 0 1 3036 1969)">Generated from music.note.list</text>
  <text style="stroke:none;fill:black;font-family:-apple-system,&quot;SF Pro Display&quot;,&quot;SF Pro Text&quot;,Helvetica,sans-serif;text-anchor:end;" transform="matrix(1 0 0 1 3036 1987)">Typeset at 100 points</text>
  <text style="stroke:none;fill:black;font-family:-apple-system,&quot;SF Pro Display&quot;,&quot;SF Pro Text&quot;,Helvetica,sans-serif;" transform="matrix(1 0 0 1 263 726)">Small</text>
  <text style="stroke:none;fill:black;font-family:-apple-system,&quot;SF Pro Display&quot;,&quot;SF Pro Text&quot;,Helvetica,sans-serif;" transform="matrix(1 0 0 1 263 1156)">Medium</text>
  <text style="stroke:none;fill:black;font-family:-apple-system,&quot;SF Pro Display&quot;,&quot;SF Pro Text&quot;,Helvetica,sans-serif;" transform="matrix(1 0 0 1 263 1586)">Large</text>
 </g>
 <g id="Guides">
  <g id="H-reference" style="fill:#27AAE1;stroke:none;" transform="matrix(1 0 0 1 339 696)">
   <path d="M0.976562 0L3.66211 0L12.9883-24.4629L45.752-24.4629L55.127 0L57.7637 0L30.6152-70.459L28.125-70.459ZM29.3457-67.1387L29.4434-67.1387L44.873-26.709L13.8672-26.709Z"/>
  </g>
  <line id="Baseline-S" style="fill:none;stroke:#27AAE1;opacity:1;stroke-width:0.5;" x1="263" x2="3036" y1="696" y2="696"/>
  <line id="Capline-S" style="fill:none;stroke:#27AAE1;opacity:1;stroke-width:0.5;" x1="263" x2="3036" y1="625.541" y2="625.541"/>
  <g id="H-reference" style="fill:#27AAE1;stroke:none;" transform="matrix(1 0 0 1 339 1126)">
   <path d="M0.976562 0L3.66211 0L12.9883-24.4629L45.752-24.4629L55.127 0L57.7637 0L30.6152-70.459L28.125-70.459ZM29.3457-67.1387L29.4434-67.1387L44.873-26.709L13.8672-26.709Z"/>
  </g>
  <line id="Baseline-M" style="fill:none;stroke:#27AAE1;opacity:1;stroke-width:0.5;" x1="263" x2="3036" y1="1126" y2="1126"/>
  <line id="Capline-M" style="fill:none;stroke:#27AAE1;opacity:1;stroke-width:0.5;" x1="263" x2="3036" y1="1055.54" y2="1055.54"/>
  <g id="H-reference" style="fill:#27AAE1;stroke:none;" transform="matrix(1 0 0 1 339 1556)">
   <path d="M0.976562 0L3.66211 0L12.9883-24.4629L45.752-24.4629L55.127 0L57.7637 0L30.6152-70.459L28.125-70.459ZM29.3457-67.1387L29.4434-67.1387L44.873-26.709L13.8672-26.709Z"/>
  </g>
  <line id="Baseline-L" style="fill:none;stroke:#27AAE1;opacity:1;stroke-width:0.5;" x1="263" x2="3036" y1="1556" y2="1556"/>
  <line id="Capline-L" style="fill:none;stroke:#27AAE1;opacity:1;stroke-width:0.5;" x1="263" x2="3036" y1="1485.54" y2="1485.54"/>
  <line id="left-margin" style="fill:none;stroke:#00AEEF;stroke-width:0.5;opacity:1.0;" x1="1387.61" x2="1387.61" y1="1030.79" y2="1150.12"/>
  <line id="right-margin" style="fill:none;stroke:#00AEEF;stroke-width:0.5;opacity:1.0;" x1="1512.08" x2="1512.08" y1="1030.79" y2="1150.12"/>
 </g>
 <g id="Symbols">
  <g id="Black-L" transform="matrix(1 0 0 1 2849.64 1556)">
   <path d="M151.465-69.1406L151.465-92.5781C151.465-97.8516 147.021-101.514 141.846-100.391L108.887-93.2129C103.223-91.9922 100.146-88.7207 100.146-83.7402L100.146-14.6973C100.293-12.8906 99.6094-12.0117 98.2422-11.7188L87.8906-9.57031C73.6816-6.64062 66.4062 1.02539 66.4062 12.5C66.4062 24.3164 75.1465 32.3242 87.793 32.3242C101.807 32.3242 114.502 21.5332 114.502 4.54102L114.502-53.6133C114.502-55.5176 114.014-55.0781 115.869-55.5176L145.752-62.0605C149.219-62.7441 151.465-65.5762 151.465-69.1406ZM21.7285-66.2598L75.7812-66.2598C78.9551-66.2598 81.4941-68.8965 81.4941-71.9238C81.4941-75.0488 78.9551-77.5879 75.7812-77.5879L21.7285-77.5879C18.6035-77.5879 16.0645-75.0488 16.0645-71.9238C16.0645-68.8965 18.6035-66.2598 21.7285-66.2598ZM21.7285-43.6523L75.7812-43.6523C78.9551-43.6523 81.4941-46.2891 81.4941-49.3164C81.4941-52.4902 78.9551-54.9805 75.7812-54.9805L21.7285-54.9805C18.6035-54.9805 16.0645-52.4902 16.0645-49.3164C16.0645-46.2891 18.6035-43.6523 21.7285-43.6523ZM21.7285-21.0938L75.7812-21.0938C78.9551-21.0938 81.4941-23.6328 81.4941-26.709C81.4941-29.834 78.9551-32.373 75.7812-32.373L21.7285-32.373C18.6035-32.373 16.0645-29.834 16.0645-26.709C16.0645-23.6328 18.6035-21.0938 21.7285-21.0938Z"/>
  </g>
  <g id="Heavy-L" transform="matrix(1 0 0 1 2553.93 1556)">
   <path d="M149.463-68.8477L149.463-92.2852C149.463-97.0703 145.41-100.342 140.771-99.3164L108.154-92.2363C102.93-91.1133 100.146-88.1348 100.146-83.5449L100.146-14.4043C100.293-12.2559 99.4629-11.084 97.7051-10.6934L87.4512-8.59375C73.6816-5.76172 66.6992 1.5625 66.6992 12.5977C66.6992 23.7793 75.0977 31.4941 87.207 31.4941C100.049 31.4941 112.939 21.6797 112.939 4.44336L112.939-53.4668C112.939-55.7617 112.695-55.6152 114.893-56.1035L144.287-62.5488C147.412-63.1836 149.463-65.7227 149.463-68.8477ZM21.2891-66.1133L76.0742-66.1133C78.9551-66.1133 81.2988-68.5059 81.2988-71.2891C81.2988-74.1699 78.9551-76.4648 76.0742-76.4648L21.2891-76.4648C18.4082-76.4648 16.0645-74.1699 16.0645-71.2891C16.0645-68.5059 18.4082-66.1133 21.2891-66.1133ZM21.2891-43.6035L76.0742-43.6035C78.9551-43.6035 81.2988-45.9961 81.2988-48.8281C81.2988-51.709 78.9551-54.0039 76.0742-54.0039L21.2891-54.0039C18.4082-54.0039 16.0645-51.709 16.0645-48.8281C16.0645-45.9961 18.3594-43.6035 21.2891-43.6035ZM21.2891-21.1426L76.0742-21.1426C78.9551-21.1426 81.2988-23.4863 81.2988-26.3184C81.2988-29.1992 78.9551-31.4941 76.0742-31.4941L21.2891-31.4941C18.4082-31.4941 16.0645-29.1992 16.0645-26.3184C16.0645-23.4863 18.3594-21.1426 21.2891-21.1426Z"/>
  </g>
  <g id="Bold-L" transform="matrix(1 0 0 1 2258.36 1556)">
   <path d="M147.168-68.6035L147.168-91.9434C147.168-96.1914 143.701-99.0234 139.551-98.1445L107.324-91.1133C102.637-90.0879 100.098-87.4512 100.098-83.3496L100.195-14.0625C100.342-11.5234 99.2188-10.0098 97.1191-9.57031L86.9141-7.4707C73.6816-4.73633 67.0898 2.19727 67.0898 12.6465C67.0898 23.2422 75.0977 30.5176 86.5234 30.5176C98.0957 30.5176 111.182 21.7773 111.182 4.29688L111.182-53.2715C111.182-56.0059 111.279-56.2012 113.818-56.7871L142.725-63.0859C145.41-63.6719 147.168-65.8203 147.168-68.6035ZM20.752-65.918L76.3672-65.918C78.9551-65.918 81.0547-68.0176 81.0547-70.5566C81.0547-73.1445 78.9551-75.2441 76.3672-75.2441L20.752-75.2441C18.1641-75.2441 16.0645-73.1445 16.0645-70.5566C16.0645-68.0176 18.1641-65.918 20.752-65.918ZM20.752-43.5547L76.3672-43.5547C79.0039-43.5547 81.0547-45.7031 81.0547-48.2422C81.0547-50.8301 78.9551-52.8809 76.3672-52.8809L20.752-52.8809C18.1641-52.8809 16.0645-50.8301 16.0645-48.2422C16.0645-45.7031 18.1152-43.5547 20.752-43.5547ZM20.752-21.1914L76.3672-21.1914C79.0039-21.1914 81.0547-23.291 81.0547-25.8789C81.0547-28.4668 78.9551-30.5664 76.3672-30.5664L20.752-30.5664C18.1641-30.5664 16.0645-28.4668 16.0645-25.8789C16.0645-23.291 18.1152-21.1914 20.752-21.1914Z"/>
  </g>
  <g id="Semibold-L" transform="matrix(1 0 0 1 1962.43 1556)">
   <path d="M145.605-68.4082L145.605-91.748C145.605-95.5566 142.48-98.0957 138.77-97.3145L106.738-90.332C102.441-89.4043 100.098-87.0117 100.098-83.1543L100.195-13.8672C100.391-11.0352 99.1211-9.27734 96.6797-8.78906L86.5723-6.68945C73.6328-4.00391 67.334 2.63672 67.334 12.6953C67.334 22.8516 75.0488 29.8828 86.0352 29.8828C96.7285 29.8828 109.961 21.875 109.961 4.19922L109.961-53.1738C109.961-56.2012 110.303-56.6406 113.086-57.2266L141.602-63.4766C144.043-64.0137 145.605-65.918 145.605-68.4082ZM20.4102-65.7715L76.5625-65.7715C78.9551-65.7715 80.9082-67.7246 80.9082-70.0684C80.9082-72.4609 78.9551-74.4141 76.5625-74.4141L20.4102-74.4141C18.0176-74.4141 16.0645-72.4609 16.0645-70.0684C16.0645-67.7246 18.0176-65.7715 20.4102-65.7715ZM20.4102-43.5059L76.5625-43.5059C79.0039-43.5059 80.9082-45.459 80.9082-47.8516C80.9082-50.2441 78.9551-52.1484 76.5625-52.1484L20.4102-52.1484C18.0176-52.1484 16.0645-50.2441 16.0645-47.8516C16.0645-45.459 17.9688-43.5059 20.4102-43.5059ZM20.4102-21.2402L76.5625-21.2402C79.0039-21.2402 80.9082-23.1934 80.9082-25.5371C80.9082-27.9297 78.9551-29.8828 76.5625-29.8828L20.4102-29.8828C18.0176-29.8828 16.0645-27.9297 16.0645-25.5371C16.0645-23.1934 17.9688-21.2402 20.4102-21.2402Z"/>
  </g>
  <g id="Medium-L" transform="matrix(1 0 0 1 1666.31 1556)">
   <path d="M144.434-68.2617L144.434-91.5527C144.434-95.1172 141.553-97.4121 138.135-96.6797L106.348-89.7949C102.246-88.916 100.049-86.6699 100.049-83.0566L100.195-13.6719C100.439-10.6934 98.9746-8.74023 96.3867-8.20312L86.3281-6.10352C73.6328-3.4668 67.5293 2.97852 67.5293 12.7441C67.5293 22.5586 75.0488 29.3457 85.6934 29.3457C95.7031 29.3457 109.033 21.9727 109.033 4.15039L109.033-53.0762C109.033-56.2988 109.57-56.9336 112.5-57.5684L140.771-63.7695C143.018-64.2578 144.434-65.9668 144.434-68.2617ZM20.1172-65.6738L76.709-65.6738C78.9551-65.6738 80.7617-67.4805 80.7617-69.6777C80.7617-71.9238 78.9551-73.7305 76.709-73.7305L20.1172-73.7305C17.8711-73.7305 16.0645-71.9238 16.0645-69.6777C16.0645-67.4805 17.8711-65.6738 20.1172-65.6738ZM20.1172-43.457L76.709-43.457C79.0039-43.457 80.7617-45.3125 80.7617-47.5586C80.7617-49.8047 78.9551-51.5625 76.709-51.5625L20.1172-51.5625C17.8711-51.5625 16.0645-49.8047 16.0645-47.5586C16.0645-45.3125 17.8223-43.457 20.1172-43.457ZM20.1172-21.2891L76.709-21.2891C79.0039-21.2891 80.7617-23.0957 80.7617-25.3418C80.7617-27.5391 78.9551-29.3945 76.709-29.3945L20.1172-29.3945C17.8711-29.3945 16.0645-27.5391 16.0645-25.3418C16.0645-23.0957 17.8223-21.2891 20.1172-21.2891Z"/>
  </g>
  <g id="Regular-L" transform="matrix(1 0 0 1 1370.38 1556)">
   <path d="M142.871-68.0664L142.871-91.3574C142.871-94.4824 140.332-96.5332 137.305-95.8984L105.762-89.0137C102.051-88.2324 100.049-86.1816 100.049-82.9102L100.195-13.4766C100.439-10.2051 98.877-8.00781 95.9473-7.42188L85.9863-5.32227C73.6328-2.7832 67.8223 3.41797 67.8223 12.793C67.8223 22.168 75 28.7109 85.2051 28.7109C94.3359 28.7109 107.861 22.0703 107.861 4.05273L107.861-52.9785C107.861-56.4941 108.594-57.3242 111.768-58.0566L139.697-64.1602C141.65-64.5996 142.871-66.0645 142.871-68.0664ZM19.7754-65.5273L76.9043-65.5273C78.9551-65.5273 80.6152-67.1875 80.6152-69.2383C80.6152-71.2402 78.9551-72.9004 76.9043-72.9004L19.7754-72.9004C17.7246-72.9004 16.0645-71.2402 16.0645-69.2383C16.0645-67.1875 17.7246-65.5273 19.7754-65.5273ZM19.7754-43.457L76.9043-43.457C79.0039-43.457 80.6152-45.1172 80.6152-47.168C80.6152-49.1699 78.9551-50.7812 76.9043-50.7812L19.7754-50.7812C17.7246-50.7812 16.0645-49.1699 16.0645-47.168C16.0645-45.1172 17.6758-43.457 19.7754-43.457ZM19.7754-21.3379L76.9043-21.3379C79.0039-21.3379 80.6152-22.9492 80.6152-25.0488C80.6152-27.0508 78.9551-28.7109 76.9043-28.7109L19.7754-28.7109C17.7246-28.7109 16.0645-27.0508 16.0645-25.0488C16.0645-22.9492 17.6758-21.3379 19.7754-21.3379Z"/>
  </g>
  <g id="Light-L" transform="matrix(1 0 0 1 1074.76 1556)">
   <path d="M140.625-67.5293L140.625-90.332C140.625-93.2129 138.33-95.0684 135.498-94.4824L105.127-87.8906C101.855-87.207 100.098-85.3516 100.098-82.373L100.342-13.8184C100.488-10.3027 98.6816-7.91016 95.5566-7.27539L85.5957-5.17578C73.6816-2.73438 67.9688 3.17383 67.9688 12.3047C67.9688 21.3379 74.8535 27.5879 84.7656 27.5879C93.7012 27.5879 106.738 21.1914 106.738 3.61328L106.738-52.6367C106.738-56.3477 107.617-57.4219 111.084-58.2031L137.744-64.0137C139.551-64.4043 140.625-65.7227 140.625-67.5293ZM19.043-65.625L77.2461-65.625C78.8574-65.625 80.1758-66.9434 80.1758-68.5547C80.1758-70.166 78.8574-71.4355 77.2461-71.4355L19.043-71.4355C17.3828-71.4355 16.0645-70.166 16.0645-68.5547C16.0645-66.9434 17.3828-65.625 19.043-65.625ZM19.043-43.9941L77.2461-43.9941C78.9062-43.9941 80.1758-45.3125 80.1758-46.9238C80.1758-48.5352 78.8574-49.8047 77.2461-49.8047L19.043-49.8047C17.3828-49.8047 16.0645-48.5352 16.0645-46.9238C16.0645-45.3125 17.3828-43.9941 19.043-43.9941ZM19.043-22.3633L77.2461-22.3633C78.9062-22.3633 80.1758-23.6328 80.1758-25.2441C80.1758-26.8555 78.8574-28.1738 77.2461-28.1738L19.043-28.1738C17.3828-28.1738 16.0645-26.8555 16.0645-25.2441C16.0645-23.6328 17.3828-22.3633 19.043-22.3633Z"/>
  </g>
  <g id="Thin-L" transform="matrix(1 0 0 1 779.542 1556)">
   <path d="M137.646-66.8945L137.646-88.9648C137.646-91.5039 135.645-93.1152 133.154-92.627L104.297-86.4258C101.562-85.791 100.146-84.2285 100.146-81.6895L100.488-14.3066C100.537-10.4492 98.4863-7.8125 95.0684-7.08008L85.1562-4.98047C73.7305-2.63672 68.2129 2.83203 68.2129 11.6211C68.2129 20.2148 74.707 26.0742 84.1309 26.0742C92.8711 26.0742 105.273 20.0195 105.273 3.02734L105.273-52.1484C105.273-56.1523 106.348-57.5195 110.205-58.3984L135.156-63.8672C136.719-64.209 137.646-65.2832 137.646-66.8945ZM18.0664-65.7715L77.6855-65.7715C78.7598-65.7715 79.6387-66.6504 79.6387-67.6758C79.6387-68.7012 78.7598-69.5312 77.6855-69.5312L18.0664-69.5312C16.9434-69.5312 16.1133-68.7012 16.1133-67.6758C16.1133-66.6504 16.9434-65.7715 18.0664-65.7715ZM18.0664-44.7266L77.6855-44.7266C78.8086-44.7266 79.6387-45.5566 79.6387-46.6309C79.6387-47.6562 78.7598-48.4863 77.6855-48.4863L18.0664-48.4863C16.9434-48.4863 16.1133-47.6562 16.1133-46.6309C16.1133-45.5566 16.9434-44.7266 18.0664-44.7266ZM18.0664-23.6816L77.6855-23.6816C78.8086-23.6816 79.6387-24.5117 79.6387-25.5371C79.6387-26.5625 78.7598-27.4414 77.6855-27.4414L18.0664-27.4414C16.9434-27.4414 16.1133-26.5625 16.1133-25.5371C16.1133-24.5117 16.9434-23.6816 18.0664-23.6816Z"/>
  </g>
  <g id="Ultralight-L" transform="matrix(1 0 0 1 483.588 1556)">
   <path d="M136.133-66.5527L136.133-88.2324C136.133-90.6738 134.277-92.1387 131.982-91.6504L103.857-85.6445C101.416-85.1074 100.146-83.6426 100.146-81.3477L100.586-14.5508C100.537-10.5469 98.3887-7.71484 94.7754-6.98242L84.9121-4.88281C73.7793-2.58789 68.3594 2.68555 68.3594 11.2793C68.3594 19.6289 74.6094 25.3418 83.8379 25.3418C92.4316 25.3418 104.492 19.4336 104.492 2.68555L104.492-51.8555C104.492-56.0547 105.664-57.5684 109.717-58.4961L133.838-63.7695C135.303-64.0625 136.133-65.0879 136.133-66.5527ZM17.5293-65.8691L77.8809-65.8691C78.7109-65.8691 79.3457-66.4551 79.3457-67.2363C79.3457-67.9688 78.7109-68.5547 77.8809-68.5547L17.5293-68.5547C16.6992-68.5547 16.1133-67.9688 16.1133-67.2363C16.1133-66.4551 16.6992-65.8691 17.5293-65.8691ZM17.5293-45.1172L77.8809-45.1172C78.7109-45.1172 79.3457-45.7031 79.3457-46.4355C79.3457-47.2168 78.7109-47.8027 77.8809-47.8027L17.5293-47.8027C16.6992-47.8027 16.1133-47.2168 16.1133-46.4355C16.1133-45.7031 16.748-45.1172 17.5293-45.1172ZM17.5293-24.3164L77.8809-24.3164C78.7109-24.3164 79.3457-24.9512 79.3457-25.6836C79.3457-26.416 78.7109-27.0508 77.8809-27.0508L17.5293-27.0508C16.6992-27.0508 16.1133-26.416 16.1133-25.6836C16.1133-24.9512 16.748-24.3164 17.5293-24.3164Z"/>
  </g>
  <g id="Black-M" transform="matrix(1 0 0 1 2867.73 1126)">
   <path d="M118.896-61.5723L118.896-79.4922C118.896-84.1309 114.941-87.4512 110.4-86.4258L85.0098-80.8594C80.2246-79.8828 77.6367-77.0508 77.6367-72.8516L77.6367-19.9219C77.6367-18.7988 77.3438-18.457 76.6602-18.3105L68.5059-16.6016C57.1777-14.3066 51.0742-8.05664 51.0742 1.41602C51.0742 11.1328 58.2031 17.6758 68.6035 17.6758C80.957 17.6758 90.2344 8.10547 90.2344-4.49219L90.2344-49.4629C90.2344-50.5371 89.5508-49.9023 90.6738-50.2441L113.818-55.2734C116.895-55.9082 118.896-58.3984 118.896-61.5723ZM17.0898-59.5703L58.5449-59.5703C61.1328-59.5703 63.1836-61.7188 63.1836-64.1602C63.1836-66.748 61.1328-68.7988 58.5449-68.7988L17.0898-68.7988C14.502-68.7988 12.4512-66.748 12.4512-64.1602C12.4512-61.7188 14.502-59.5703 17.0898-59.5703ZM17.0898-42.1387L58.5449-42.1387C61.1328-42.1387 63.1836-44.2871 63.1836-46.7285C63.1836-49.2676 61.1328-51.3672 58.5449-51.3672L17.0898-51.3672C14.502-51.3672 12.4512-49.2676 12.4512-46.7285C12.4512-44.2871 14.502-42.1387 17.0898-42.1387ZM17.0898-24.707L58.5449-24.707C61.1328-24.707 63.1836-26.8555 63.1836-29.248C63.1836-31.8359 61.1328-33.8867 58.5449-33.8867L17.0898-33.8867C14.502-33.8867 12.4512-31.8359 12.4512-29.248C12.4512-26.8555 14.502-24.707 17.0898-24.707Z"/>
  </g>
  <g id="Heavy-M" transform="matrix(1 0 0 1 2571.82 1126)">
   <path d="M117.285-61.4258L117.285-79.4434C117.285-83.6426 113.77-86.5234 109.717-85.6445L84.375-80.0781C79.9805-79.1504 77.6367-76.6113 77.6367-72.7539L77.6367-19.4824C77.6855-18.1152 77.1973-17.4805 76.1719-17.2363L68.1152-15.5762C57.1289-13.2812 51.416-7.37305 51.416 1.61133C51.416 10.791 58.2031 17.041 68.0664 17.041C79.1992 17.041 88.8184 8.49609 88.8184-4.49219L88.8184-49.4141C88.8184-50.8301 88.3789-50.4883 89.8438-50.8301L112.744-55.8594C115.479-56.3965 117.285-58.6426 117.285-61.4258ZM16.748-59.375L58.7402-59.375C61.1328-59.375 63.0859-61.3281 63.0859-63.623C63.0859-66.0156 61.1328-67.9688 58.7402-67.9688L16.748-67.9688C14.3555-67.9688 12.4512-66.0156 12.4512-63.623C12.4512-61.3281 14.3555-59.375 16.748-59.375ZM16.748-41.9434L58.7402-41.9434C61.1816-41.9434 63.0859-43.8965 63.0859-46.2402C63.0859-48.584 61.1328-50.5371 58.7402-50.5371L16.748-50.5371C14.3555-50.5371 12.4512-48.584 12.4512-46.2402C12.4512-43.8965 14.3555-41.9434 16.748-41.9434ZM16.748-24.5117L58.7402-24.5117C61.1816-24.5117 63.0859-26.4648 63.0859-28.7598C63.0859-31.1523 61.1328-33.1055 58.7402-33.1055L16.748-33.1055C14.3555-33.1055 12.4512-31.1523 12.4512-28.7598C12.4512-26.4648 14.3555-24.5117 16.748-24.5117Z"/>
  </g>
  <g id="Bold-M" transform="matrix(1 0 0 1 2276.01 1126)">
   <path d="M115.479-61.2793L115.479-79.3945C115.479-83.0078 112.451-85.498 108.936-84.7168L83.6426-79.1992C79.7363-78.3691 77.5879-76.123 77.5879-72.6562L77.6367-19.043C77.7344-17.2852 77.002-16.3086 75.5859-16.0156L67.6758-14.3555C57.0801-12.207 51.7578-6.5918 51.7578 1.85547C51.7578 10.4492 58.2031 16.3086 67.4316 16.3086C77.1973 16.3086 87.207 8.88672 87.207-4.49219L87.207-49.3164C87.207-51.1719 87.1094-51.123 88.8672-51.5137L111.572-56.4941C113.916-56.9824 115.479-58.8867 115.479-61.2793ZM16.4062-59.1309L58.9844-59.1309C61.1816-59.1309 62.9395-60.9375 62.9395-63.0371C62.9395-65.2344 61.1816-66.9922 58.9844-66.9922L16.4062-66.9922C14.209-66.9922 12.4512-65.2344 12.4512-63.0371C12.4512-60.9375 14.209-59.1309 16.4062-59.1309ZM16.4062-41.6992L58.9844-41.6992C61.2305-41.6992 62.9395-43.5059 62.9395-45.6543C62.9395-47.8516 61.1816-49.6094 58.9844-49.6094L16.4062-49.6094C14.209-49.6094 12.4512-47.8516 12.4512-45.6543C12.4512-43.5059 14.209-41.6992 16.4062-41.6992ZM16.4062-24.3164L58.9844-24.3164C61.2305-24.3164 62.9395-26.0742 62.9395-28.2227C62.9395-30.4199 61.1816-32.1777 58.9844-32.1777L16.4062-32.1777C14.209-32.1777 12.4512-30.4199 12.4512-28.2227C12.4512-26.0742 14.209-24.3164 16.4062-24.3164Z"/>
  </g>
  <g id="Semibold-M" transform="matrix(1 0 0 1 1979.94 1126)">
   <path d="M114.209-61.1328L114.209-79.3945C114.209-82.6172 111.523-84.7656 108.35-84.1309L83.1543-78.6133C79.541-77.832 77.5391-75.7812 77.5391-72.6074L77.5879-18.7012C77.7832-16.748 76.9043-15.5273 75.2441-15.2344L67.3828-13.5742C57.0801-11.4258 52.002-6.05469 52.002 2.00195C52.002 10.1562 58.2031 15.8203 67.041 15.8203C75.8301 15.8203 86.1328 9.17969 86.1328-4.54102L86.1328-49.2676C86.1328-51.416 86.2305-51.5625 88.1836-52.002L110.742-56.9336C112.842-57.373 114.209-59.0332 114.209-61.1328ZM16.1621-58.9355L59.1309-58.9355C61.2305-58.9355 62.8906-60.6445 62.8906-62.6465C62.8906-64.6973 61.2305-66.3574 59.1309-66.3574L16.1621-66.3574C14.1113-66.3574 12.4512-64.6973 12.4512-62.6465C12.4512-60.6445 14.1113-58.9355 16.1621-58.9355ZM16.1621-41.5527L59.1309-41.5527C61.2305-41.5527 62.8906-43.2617 62.8906-45.2637C62.8906-47.3145 61.2305-48.9746 59.1309-48.9746L16.1621-48.9746C14.1113-48.9746 12.4512-47.3145 12.4512-45.2637C12.4512-43.2617 14.1113-41.5527 16.1621-41.5527ZM16.1621-24.1699L59.1309-24.1699C61.2305-24.1699 62.8906-25.8301 62.8906-27.832C62.8906-29.8828 61.2305-31.5918 59.1309-31.5918L16.1621-31.5918C14.1113-31.5918 12.4512-29.8828 12.4512-27.832C12.4512-25.8301 14.1113-24.1699 16.1621-24.1699Z"/>
  </g>
  <g id="Medium-M" transform="matrix(1 0 0 1 1683.71 1126)">
   <path d="M113.232-61.0352L113.232-79.3457C113.232-82.2754 110.84-84.2285 107.959-83.6426L82.8125-78.1738C79.3945-77.4414 77.5391-75.5371 77.5391-72.5098L77.5879-18.457C77.7832-16.3086 76.8066-14.9414 74.9512-14.5996L67.1387-12.9395C57.0312-10.8398 52.1973-5.66406 52.1973 2.09961C52.1973 10.0098 58.2031 15.4297 66.6992 15.4297C74.8047 15.4297 85.3027 9.375 85.3027-4.54102L85.3027-49.2676C85.3027-51.5625 85.5469-51.9043 87.6953-52.3438L110.156-57.2754C112.012-57.666 113.232-59.1797 113.232-61.0352ZM16.0156-58.8379L59.2773-58.8379C61.2305-58.8379 62.793-60.4004 62.793-62.3535C62.793-64.3066 61.2305-65.8691 59.2773-65.8691L16.0156-65.8691C14.0625-65.8691 12.4512-64.3066 12.4512-62.3535C12.4512-60.4004 14.0625-58.8379 16.0156-58.8379ZM16.0156-41.4551L59.2773-41.4551C61.2793-41.4551 62.793-43.0176 62.793-45.0195C62.793-46.9238 61.2305-48.4863 59.2773-48.4863L16.0156-48.4863C14.0625-48.4863 12.4512-46.9238 12.4512-45.0195C12.4512-43.0176 14.0137-41.4551 16.0156-41.4551ZM16.0156-24.0234L59.2773-24.0234C61.2793-24.0234 62.793-25.5859 62.793-27.5879C62.793-29.4922 61.2305-31.1035 59.2773-31.1035L16.0156-31.1035C14.0625-31.1035 12.4512-29.4922 12.4512-27.5879C12.4512-25.5859 14.0137-24.0234 16.0156-24.0234Z"/>
  </g>
  <g id="Regular-M" transform="matrix(1 0 0 1 1387.61 1126)">
   <path d="M112.012-60.9375L112.012-79.2969C112.012-81.8848 109.912-83.5449 107.422-83.0566L82.3242-77.5879C79.1992-76.9043 77.4902-75.1953 77.4902-72.4609L77.5879-18.1641C77.832-15.7715 76.709-14.209 74.5605-13.7695L66.7969-12.1582C57.0312-10.1074 52.4414-5.12695 52.4414 2.24609C52.4414 9.7168 58.2031 14.9414 66.3086 14.9414C73.4863 14.9414 84.2285 9.66797 84.2285-4.54102L84.2285-49.2188C84.2285-51.8066 84.7168-52.3438 87.0117-52.832L109.326-57.7148C110.986-58.0566 112.012-59.3262 112.012-60.9375ZM15.7715-58.6426L59.4238-58.6426C61.2305-58.6426 62.7441-60.1562 62.7441-61.9629C62.7441-63.7695 61.2305-65.2344 59.4238-65.2344L15.7715-65.2344C13.916-65.2344 12.4512-63.7695 12.4512-61.9629C12.4512-60.1562 13.916-58.6426 15.7715-58.6426ZM15.7715-41.2598L59.4238-41.2598C61.2793-41.2598 62.7441-42.7734 62.7441-44.6289C62.7441-46.4355 61.2305-47.8516 59.4238-47.8516L15.7715-47.8516C13.916-47.8516 12.4512-46.4355 12.4512-44.6289C12.4512-42.7734 13.8672-41.2598 15.7715-41.2598ZM15.7715-23.877L59.4238-23.877C61.2793-23.877 62.7441-25.3418 62.7441-27.1973C62.7441-29.0039 61.2305-30.4688 59.4238-30.4688L15.7715-30.4688C13.916-30.4688 12.4512-29.0039 12.4512-27.1973C12.4512-25.3418 13.8672-23.877 15.7715-23.877Z"/>
  </g>
  <g id="Light-M" transform="matrix(1 0 0 1 1091.93 1126)">
   <path d="M109.961-60.498L109.961-78.3691C109.961-80.7617 108.105-82.2266 105.811-81.7871L81.7383-76.5625C79.0039-75.9766 77.5391-74.4629 77.5391-72.0215L77.6855-18.457C77.832-15.8691 76.5625-14.1113 74.2188-13.623L66.5039-12.0117C57.0801-10.0586 52.5879-5.37109 52.5879 1.80664C52.5879 8.98438 58.0566 13.9648 65.8691 13.9648C72.9004 13.9648 83.2031 8.88672 83.2031-4.93164L83.2031-48.877C83.2031-51.6602 83.8379-52.3926 86.377-52.9297L107.617-57.6172C109.082-57.9102 109.961-59.0332 109.961-60.498ZM15.0879-58.7402L59.7168-58.7402C61.1816-58.7402 62.3535-59.9121 62.3535-61.3281C62.3535-62.793 61.1816-63.9648 59.7168-63.9648L15.0879-63.9648C13.623-63.9648 12.4512-62.793 12.4512-61.3281C12.4512-59.9121 13.623-58.7402 15.0879-58.7402ZM15.0879-41.7969L59.7168-41.7969C61.1816-41.7969 62.3535-42.9688 62.3535-44.3848C62.3535-45.8496 61.1816-46.9727 59.7168-46.9727L15.0879-46.9727C13.623-46.9727 12.4512-45.8496 12.4512-44.3848C12.4512-42.9688 13.5742-41.7969 15.0879-41.7969ZM15.0879-24.8047L59.7168-24.8047C61.1816-24.8047 62.3535-25.9277 62.3535-27.3926C62.3535-28.8086 61.1816-29.9805 59.7168-29.9805L15.0879-29.9805C13.623-29.9805 12.4512-28.8086 12.4512-27.3926C12.4512-25.9277 13.5742-24.8047 15.0879-24.8047Z"/>
  </g>
  <g id="Thin-M" transform="matrix(1 0 0 1 796.535 1126)">
   <path d="M107.324-59.9121L107.324-77.1484C107.324-79.248 105.713-80.5176 103.711-80.127L81.0059-75.1953C78.7598-74.707 77.5879-73.4375 77.5879-71.3867L77.832-18.8965C77.8809-16.0156 76.3672-14.0137 73.7305-13.4766L66.0645-11.8652C57.1289-10.0098 52.7832-5.66406 52.7832 1.2207C52.7832 7.95898 57.9102 12.5977 65.332 12.5977C72.1191 12.5977 81.8848 7.86133 81.8848-5.46875L81.8848-48.4375C81.8848-51.4648 82.666-52.4902 85.5957-53.125L105.273-57.4707C106.543-57.7148 107.324-58.6426 107.324-59.9121ZM14.1602-58.8867L60.0586-58.8867C61.0352-58.8867 61.8164-59.6191 61.8164-60.5469C61.8164-61.4746 61.0352-62.2559 60.0586-62.2559L14.1602-62.2559C13.2324-62.2559 12.4512-61.4746 12.4512-60.5469C12.4512-59.6191 13.2324-58.8867 14.1602-58.8867ZM14.1602-42.4316L60.0586-42.4316C61.084-42.4316 61.8164-43.1641 61.8164-44.1406C61.8164-45.0195 61.0352-45.8008 60.0586-45.8008L14.1602-45.8008C13.2324-45.8008 12.4512-45.0195 12.4512-44.1406C12.4512-43.1641 13.1836-42.4316 14.1602-42.4316ZM14.1602-25.9766L60.0586-25.9766C61.084-25.9766 61.8164-26.709 61.8164-27.6367C61.8164-28.5645 61.0352-29.3457 60.0586-29.3457L14.1602-29.3457C13.2324-29.3457 12.4512-28.5645 12.4512-27.6367C12.4512-26.709 13.1836-25.9766 14.1602-25.9766Z"/>
  </g>
  <g id="Ultralight-M" transform="matrix(1 0 0 1 500.507 1126)">
   <path d="M105.957-59.6191L105.957-76.5137C105.957-78.4668 104.492-79.6387 102.588-79.248L80.6152-74.5117C78.6133-74.1211 77.5879-72.9492 77.5879-71.0938L77.8809-19.1406C77.8809-16.0645 76.2695-13.9648 73.5352-13.3789L65.8691-11.7676C57.1289-9.96094 52.9297-5.81055 52.9297 0.927734C52.9297 7.4707 57.8125 11.9141 65.0391 11.9141C71.7773 11.9141 81.2012 7.32422 81.2012-5.76172L81.2012-48.1934C81.2012-51.416 82.0801-52.5391 85.1562-53.2227L104.102-57.373C105.273-57.6172 105.957-58.4473 105.957-59.6191ZM13.7207-58.9355L60.2539-58.9355C60.9863-58.9355 61.5234-59.4727 61.5234-60.1562C61.5234-60.8398 60.9863-61.377 60.2539-61.377L13.7207-61.377C12.9883-61.377 12.4512-60.8398 12.4512-60.1562C12.4512-59.4727 12.9883-58.9355 13.7207-58.9355ZM13.7207-42.7734L60.2539-42.7734C60.9863-42.7734 61.5234-43.3105 61.5234-43.9941C61.5234-44.6289 60.9863-45.166 60.2539-45.166L13.7207-45.166C12.9883-45.166 12.4512-44.6289 12.4512-43.9941C12.4512-43.3105 12.9883-42.7734 13.7207-42.7734ZM13.7207-26.5625L60.2539-26.5625C60.9863-26.5625 61.5234-27.1484 61.5234-27.7832C61.5234-28.4668 60.9863-29.0039 60.2539-29.0039L13.7207-29.0039C12.9883-29.0039 12.4512-28.4668 12.4512-27.7832C12.4512-27.1484 12.9883-26.5625 13.7207-26.5625Z"/>
  </g>
  <g id="Black-S" transform="matrix(1 0 0 1 2881.98 696)">
   <path d="M93.0664-55.8594L93.0664-69.9219C93.0664-73.5352 89.9902-76.0742 86.4746-75.293L66.5527-70.9473C62.8418-70.166 60.8398-67.9688 60.8398-64.6973L60.8398-23.1934C60.8398-22.3145 60.5957-22.0215 60.0098-21.875L53.6621-20.5566C44.7754-18.75 40.0391-13.8672 40.0391-6.49414C40.0391 1.07422 45.6055 6.20117 53.7109 6.20117C63.2812 6.20117 70.6055-1.2207 70.6055-11.1328L70.6055-46.3867C70.6055-47.2656 70.0684-46.7773 70.9961-47.0215L89.1113-50.9766C91.5039-51.4648 93.0664-53.418 93.0664-55.8594ZM13.3789-54.2969L45.8984-54.2969C47.9004-54.2969 49.5117-55.957 49.5117-57.8613C49.5117-59.8633 47.9004-61.4746 45.8984-61.4746L13.3789-61.4746C11.377-61.4746 9.76562-59.8633 9.76562-57.8613C9.76562-55.957 11.377-54.2969 13.3789-54.2969ZM13.3789-40.625L45.8984-40.625C47.9004-40.625 49.5117-42.2852 49.5117-44.1895C49.5117-46.1914 47.9004-47.8027 45.8984-47.8027L13.3789-47.8027C11.377-47.8027 9.76562-46.1914 9.76562-44.1895C9.76562-42.2852 11.377-40.625 13.3789-40.625ZM13.3789-26.9531L45.8984-26.9531C47.9004-26.9531 49.5117-28.6133 49.5117-30.5176C49.5117-32.5195 47.9004-34.1309 45.8984-34.1309L13.3789-34.1309C11.377-34.1309 9.76562-32.5195 9.76562-30.5176C9.76562-28.6133 11.377-26.9531 13.3789-26.9531Z"/>
  </g>
  <g id="Heavy-S" transform="matrix(1 0 0 1 2585.79 696)">
   <path d="M92.041-55.8105L92.041-69.9707C92.041-73.2422 89.3066-75.5371 86.1328-74.8047L66.1133-70.459C62.6953-69.7266 60.791-67.7246 60.791-64.6973L60.8398-22.8516C60.8887-21.7773 60.498-21.2402 59.668-21.0938L53.3691-19.7754C44.7266-18.0176 40.2832-13.3301 40.2832-6.29883C40.2832 0.927734 45.6055 5.81055 53.3691 5.81055C62.0117 5.81055 69.6289-0.878906 69.6289-11.084L69.6289-46.3867C69.6289-47.5098 69.2871-47.2168 70.4102-47.4609L88.5254-51.416C90.625-51.8555 92.041-53.6133 92.041-55.8105ZM13.2324-54.1016L46.0449-54.1016C47.9492-54.1016 49.4629-55.7129 49.4629-57.5195C49.4629-59.4238 47.9492-60.9863 46.0449-60.9863L13.2324-60.9863C11.3281-60.9863 9.76562-59.4238 9.76562-57.5195C9.76562-55.7129 11.3281-54.1016 13.2324-54.1016ZM13.2324-40.4297L46.0449-40.4297C47.9492-40.4297 49.4629-41.9922 49.4629-43.8477C49.4629-45.752 47.9492-47.2656 46.0449-47.2656L13.2324-47.2656C11.3281-47.2656 9.76562-45.752 9.76562-43.8477C9.76562-41.9922 11.2793-40.4297 13.2324-40.4297ZM13.2324-26.709L46.0449-26.709C47.9492-26.709 49.4629-28.2715 49.4629-30.127C49.4629-32.0312 47.9492-33.5938 46.0449-33.5938L13.2324-33.5938C11.3281-33.5938 9.76562-32.0312 9.76562-30.127C9.76562-28.2715 11.2793-26.709 13.2324-26.709Z"/>
  </g>
  <g id="Bold-S" transform="matrix(1 0 0 1 2289.64 696)">
   <path d="M90.918-55.7129L90.918-70.0684C90.918-72.9492 88.4766-74.9023 85.6934-74.3164L65.6738-69.9219C62.5-69.2383 60.791-67.4316 60.791-64.6484L60.791-22.4609C60.8887-21.1426 60.4004-20.4102 59.3262-20.166L53.0762-18.8965C44.7266-17.1387 40.5273-12.6953 40.5273-6.05469C40.5273 0.732422 45.6543 5.37109 52.9297 5.37109C60.5469 5.37109 68.5547-0.439453 68.5547-11.084L68.5547-46.3379C68.5547-47.7539 68.4082-47.7051 69.7266-47.998L87.8418-51.9531C89.6973-52.3438 90.918-53.8574 90.918-55.7129ZM13.0371-53.9062L46.1426-53.9062C47.9492-53.9062 49.4141-55.4199 49.4141-57.1777C49.4141-58.9355 47.9492-60.4004 46.1426-60.4004L13.0371-60.4004C11.2305-60.4004 9.76562-58.9355 9.76562-57.1777C9.76562-55.4199 11.2305-53.9062 13.0371-53.9062ZM13.0371-40.1855L46.1426-40.1855C47.998-40.1855 49.4141-41.6504 49.4141-43.457C49.4141-45.2637 47.9492-46.6797 46.1426-46.6797L13.0371-46.6797C11.2305-46.6797 9.76562-45.2637 9.76562-43.457C9.76562-41.6504 11.2305-40.1855 13.0371-40.1855ZM13.0371-26.416L46.1426-26.416C47.998-26.416 49.4141-27.8809 49.4141-29.6875C49.4141-31.4941 47.9492-32.959 46.1426-32.959L13.0371-32.959C11.2305-32.959 9.76562-31.4941 9.76562-29.6875C9.76562-27.8809 11.2305-26.416 13.0371-26.416Z"/>
  </g>
  <g id="Semibold-S" transform="matrix(1 0 0 1 1993.32 696)">
   <path d="M90.1367-55.6641L90.1367-70.1172C90.1367-72.7051 87.9395-74.4629 85.4492-73.9258L65.332-69.5312C62.4023-68.8965 60.7422-67.2363 60.7422-64.6484L60.791-22.168C60.9375-20.7031 60.3027-19.8242 59.082-19.5801L52.8809-18.2617C44.7266-16.6016 40.7227-12.3047 40.7227-5.9082C40.7227 0.585938 45.6543 5.07812 52.6367 5.07812C59.5703 5.07812 67.7734-0.146484 67.7734-11.0352L67.7734-46.3379C67.7734-47.9492 67.8223-47.998 69.2871-48.3398L87.3535-52.2949C89.0137-52.6367 90.1367-54.0039 90.1367-55.6641ZM12.8906-53.7598L46.2402-53.7598C47.998-53.7598 49.4141-55.2246 49.4141-56.8848C49.4141-58.6426 47.998-60.0586 46.2402-60.0586L12.8906-60.0586C11.1816-60.0586 9.76562-58.6426 9.76562-56.8848C9.76562-55.2246 11.1816-53.7598 12.8906-53.7598ZM12.8906-39.9902L46.2402-39.9902C48.0469-39.9902 49.4141-41.4551 49.4141-43.1641C49.4141-44.873 47.998-46.2891 46.2402-46.2891L12.8906-46.2891C11.1816-46.2891 9.76562-44.873 9.76562-43.1641C9.76562-41.4551 11.1328-39.9902 12.8906-39.9902ZM12.8906-26.2695L46.2402-26.2695C48.0469-26.2695 49.4141-27.6367 49.4141-29.3945C49.4141-31.1035 47.998-32.5195 46.2402-32.5195L12.8906-32.5195C11.1816-32.5195 9.76562-31.1035 9.76562-29.3945C9.76562-27.6367 11.1328-26.2695 12.8906-26.2695Z"/>
  </g>
  <g id="Medium-S" transform="matrix(1 0 0 1 1696.92 696)">
   <path d="M89.502-55.6641L89.502-70.166C89.502-72.5586 87.5488-74.1699 85.2051-73.6328L65.0879-69.2383C62.3047-68.6523 60.7422-67.0898 60.7422-64.6484L60.7422-21.9727C60.9375-20.3613 60.2539-19.3848 58.8867-19.0918L52.7344-17.8223C44.6777-16.1621 40.8691-11.9629 40.8691-5.81055C40.8691 0.488281 45.6543 4.88281 52.4414 4.88281C58.8379 4.88281 67.2363 0.0488281 67.2363-11.0352L67.2363-46.3379C67.2363-48.0957 67.3828-48.291 68.9453-48.584L87.0117-52.5391C88.5254-52.8809 89.502-54.1016 89.502-55.6641ZM12.793-53.6621L46.3379-53.6621C47.998-53.6621 49.3652-55.0293 49.3652-56.6895C49.3652-58.3984 47.998-59.7656 46.3379-59.7656L12.793-59.7656C11.1328-59.7656 9.76562-58.3984 9.76562-56.6895C9.76562-55.0293 11.1328-53.6621 12.793-53.6621ZM12.793-39.8926L46.3379-39.8926C48.0469-39.8926 49.3652-41.2598 49.3652-42.9688C49.3652-44.6289 47.998-45.9473 46.3379-45.9473L12.793-45.9473C11.1328-45.9473 9.76562-44.6289 9.76562-42.9688C9.76562-41.2598 11.084-39.8926 12.793-39.8926ZM12.793-26.123L46.3379-26.123C48.0469-26.123 49.3652-27.4414 49.3652-29.1504C49.3652-30.8105 47.998-32.1777 46.3379-32.1777L12.793-32.1777C11.1328-32.1777 9.76562-30.8105 9.76562-29.1504C9.76562-27.4414 11.084-26.123 12.793-26.123Z"/>
  </g>
  <g id="Regular-S" transform="matrix(1 0 0 1 1400.6 696)">
   <path d="M88.7207-55.6152L88.7207-70.2148C88.7207-72.3145 87.0117-73.7305 84.9609-73.291L64.7949-68.8965C62.1582-68.3105 60.7422-66.9434 60.7422-64.6484L60.7422-21.6797C60.9863-19.9219 60.1562-18.7988 58.6426-18.5059L52.5391-17.2363C44.6777-15.5762 41.0156-11.5723 41.0156-5.61523C41.0156 0.390625 45.6543 4.58984 52.1484 4.58984C57.8613 4.58984 66.5039 0.341797 66.5039-10.9863L66.5039-46.3379C66.5039-48.291 66.7969-48.584 68.5059-48.9258L86.5234-52.9297C87.8906-53.2227 88.7207-54.248 88.7207-55.6152ZM12.6953-53.5156L46.4355-53.5156C48.0469-53.5156 49.3652-54.834 49.3652-56.4453C49.3652-58.0566 48.0469-59.375 46.4355-59.375L12.6953-59.375C11.084-59.375 9.76562-58.0566 9.76562-56.4453C9.76562-54.834 11.084-53.5156 12.6953-53.5156ZM12.6953-39.7461L46.4355-39.7461C48.0957-39.7461 49.3652-41.0645 49.3652-42.6758C49.3652-44.2871 48.0469-45.5566 46.4355-45.5566L12.6953-45.5566C11.084-45.5566 9.76562-44.2871 9.76562-42.6758C9.76562-41.0645 11.0352-39.7461 12.6953-39.7461ZM12.6953-25.9277L46.4355-25.9277C48.0957-25.9277 49.3652-27.1973 49.3652-28.8574C49.3652-30.4199 48.0469-31.7383 46.4355-31.7383L12.6953-31.7383C11.084-31.7383 9.76562-30.4199 9.76562-28.8574C9.76562-27.1973 11.0352-25.9277 12.6953-25.9277Z"/>
  </g>
  <g id="Light-S" transform="matrix(1 0 0 1 1104.77 696)">
   <path d="M86.9629-55.1758L86.9629-69.3848C86.9629-71.3379 85.4004-72.5586 83.5449-72.168L64.2578-67.9688C62.0117-67.4805 60.7422-66.2598 60.7422-64.209L60.8398-21.9727C60.9863-20.0195 60.0586-18.7012 58.3008-18.3594L52.2461-17.0898C44.6777-15.5273 41.1621-11.7676 41.1621-6.05469C41.1621-0.292969 45.5566 3.66211 51.8066 3.66211C57.3242 3.66211 65.5762-0.390625 65.5762-11.3281L65.5762-46.0449C65.5762-48.1445 66.0156-48.6328 67.9199-49.0723L84.9609-52.832C86.1816-53.0762 86.9629-54.0039 86.9629-55.1758ZM12.1094-53.6133L46.6797-53.6133C47.9492-53.6133 49.0234-54.6387 49.0234-55.9082C49.0234-57.1777 47.9492-58.2031 46.6797-58.2031L12.1094-58.2031C10.791-58.2031 9.76562-57.1777 9.76562-55.9082C9.76562-54.6387 10.791-53.6133 12.1094-53.6133ZM12.1094-40.1855L46.6797-40.1855C47.998-40.1855 49.0234-41.2109 49.0234-42.4805C49.0234-43.75 47.9492-44.7754 46.6797-44.7754L12.1094-44.7754C10.791-44.7754 9.76562-43.75 9.76562-42.4805C9.76562-41.2109 10.791-40.1855 12.1094-40.1855ZM12.1094-26.709L46.6797-26.709C47.998-26.709 49.0234-27.7344 49.0234-29.0039C49.0234-30.2734 47.9492-31.2988 46.6797-31.2988L12.1094-31.2988C10.791-31.2988 9.76562-30.2734 9.76562-29.0039C9.76562-27.7344 10.791-26.709 12.1094-26.709Z"/>
  </g>
  <g id="Thin-S" transform="matrix(1 0 0 1 809.254 696)">
   <path d="M84.5703-54.6875L84.5703-68.3105C84.5703-69.9707 83.252-71.0449 81.6406-70.7031L63.623-66.7969C61.7676-66.4062 60.791-65.3809 60.791-63.6719L60.9375-22.3633C61.0352-20.1172 59.8633-18.6035 57.8613-18.2129L51.8555-16.9434C44.7266-15.4785 41.3574-12.0117 41.3574-6.54297C41.3574-1.17188 45.4102 2.49023 51.2695 2.49023C56.6895 2.49023 64.4043-1.26953 64.4043-11.8164L64.4043-45.6543C64.4043-47.998 64.9902-48.7305 67.1875-49.2188L82.9102-52.6855C83.9844-52.8809 84.5703-53.6621 84.5703-54.6875ZM11.2793-53.7109L47.0215-53.7109C47.8516-53.7109 48.5352-54.3945 48.5352-55.2246C48.5352-56.0547 47.8516-56.7383 47.0215-56.7383L11.2793-56.7383C10.4492-56.7383 9.76562-56.0547 9.76562-55.2246C9.76562-54.3945 10.4492-53.7109 11.2793-53.7109ZM11.2793-40.7227L47.0215-40.7227C47.9004-40.7227 48.5352-41.4062 48.5352-42.2363C48.5352-43.0664 47.8516-43.75 47.0215-43.75L11.2793-43.75C10.4492-43.75 9.76562-43.0664 9.76562-42.2363C9.76562-41.4062 10.4492-40.7227 11.2793-40.7227ZM11.2793-27.7344L47.0215-27.7344C47.9004-27.7344 48.5352-28.418 48.5352-29.248C48.5352-30.0781 47.8516-30.7617 47.0215-30.7617L11.2793-30.7617C10.4492-30.7617 9.76562-30.0781 9.76562-29.248C9.76562-28.418 10.4492-27.7344 11.2793-27.7344Z"/>
  </g>
  <g id="Ultralight-S" transform="matrix(1 0 0 1 513.129 696)">
   <path d="M83.3984-54.3945L83.3984-67.7734C83.3984-69.2871 82.1777-70.2637 80.6641-69.9707L63.2812-66.2109C61.6211-65.8691 60.791-64.8926 60.791-63.3789L61.0352-22.5586C61.0352-20.2148 59.7656-18.5547 57.666-18.1152L51.6602-16.8457C44.7754-15.4297 41.4062-12.1094 41.4062-6.83594C41.4062-1.66016 45.3125 1.9043 51.0254 1.9043C56.3477 1.9043 63.8184-1.75781 63.8184-12.0605L63.8184-45.459C63.8184-47.9004 64.4531-48.7793 66.8457-49.3164L81.8848-52.5879C82.8125-52.7832 83.3984-53.4668 83.3984-54.3945ZM10.8887-53.8086L47.168-53.8086C47.8027-53.8086 48.291-54.2969 48.291-54.8828C48.291-55.4688 47.8027-55.957 47.168-55.957L10.8887-55.957C10.2539-55.957 9.76562-55.4688 9.76562-54.8828C9.76562-54.2969 10.2539-53.8086 10.8887-53.8086ZM10.8887-41.0645L47.168-41.0645C47.8027-41.0645 48.291-41.5039 48.291-42.1387C48.291-42.7246 47.8027-43.2129 47.168-43.2129L10.8887-43.2129C10.2539-43.2129 9.76562-42.7246 9.76562-42.1387C9.76562-41.5039 10.2539-41.0645 10.8887-41.0645ZM10.8887-28.2715L47.168-28.2715C47.8027-28.2715 48.291-28.7598 48.291-29.3457C48.291-29.9805 47.8027-30.4199 47.168-30.4199L10.8887-30.4199C10.2539-30.4199 9.76562-29.9805 9.76562-29.3457C9.76562-28.7598 10.2539-28.2715 10.8887-28.2715Z"/>
  </g>
 </g>
</svg>
