<?xml version="1.0" encoding="UTF-8"?>
<!--Generator: Apple Native CoreSVG 175-->
<!DOCTYPE svg
PUBLIC "-//W3C//DTD SVG 1.1//EN"
       "http://www.w3.org/Graphics/SVG/1.1/DTD/svg11.dtd">
<svg version="1.1" xmlns="http://www.w3.org/2000/svg" xmlns:xlink="http://www.w3.org/1999/xlink" width="3300" height="2200">
 <!--glyph: "uni1004B7.medium", point size: 100.0, font version: "17.0d12e1", template writer version: "65.1"-->
 <g id="Notes">
  <rect height="2200" id="artboard" style="fill:white;opacity:1" width="3300" x="0" y="0"/>
  <line style="fill:none;stroke:black;opacity:1;stroke-width:0.5;" x1="263" x2="3036" y1="292" y2="292"/>
  <text style="stroke:none;fill:black;font-family:sans-serif;font-size:13;font-weight:bold;" transform="matrix(1 0 0 1 263 322)">Weight/Scale Variations</text>
  <text style="stroke:none;fill:black;font-family:sans-serif;font-size:13;text-anchor:middle;" transform="matrix(1 0 0 1 559.711 322)">Ultralight</text>
  <text style="stroke:none;fill:black;font-family:sans-serif;font-size:13;text-anchor:middle;" transform="matrix(1 0 0 1 856.422 322)">Thin</text>
  <text style="stroke:none;fill:black;font-family:sans-serif;font-size:13;text-anchor:middle;" transform="matrix(1 0 0 1 1153.13 322)">Light</text>
  <text style="stroke:none;fill:black;font-family:sans-serif;font-size:13;text-anchor:middle;" transform="matrix(1 0 0 1 1449.84 322)">Regular</text>
  <text style="stroke:none;fill:black;font-family:sans-serif;font-size:13;text-anchor:middle;" transform="matrix(1 0 0 1 1746.56 322)">Medium</text>
  <text style="stroke:none;fill:black;font-family:sans-serif;font-size:13;text-anchor:middle;" transform="matrix(1 0 0 1 2043.27 322)">Semibold</text>
  <text style="stroke:none;fill:black;font-family:sans-serif;font-size:13;text-anchor:middle;" transform="matrix(1 0 0 1 2339.98 322)">Bold</text>
  <text style="stroke:none;fill:black;font-family:sans-serif;font-size:13;text-anchor:middle;" transform="matrix(1 0 0 1 2636.69 322)">Heavy</text>
  <text style="stroke:none;fill:black;font-family:sans-serif;font-size:13;text-anchor:middle;" transform="matrix(1 0 0 1 2933.4 322)">Black</text>
  <line style="fill:none;stroke:black;opacity:1;stroke-width:0.5;" x1="263" x2="3036" y1="1903" y2="1903"/>
  <g transform="matrix(1 0 0 1 263 1933)">
   <path d="M9.24805 0.830078Q10.8691 0.830078 12.2949 0.214844Q13.7207-0.400391 14.8096-1.49414Q15.8984-2.58789 16.5186-4.01367Q17.1387-5.43945 17.1387-7.05078Q17.1387-8.66211 16.5186-10.0879Q15.8984-11.5137 14.8047-12.6074Q13.7109-13.7012 12.2852-14.3164Q10.8594-14.9316 9.23828-14.9316Q7.62695-14.9316 6.20117-14.3164Q4.77539-13.7012 3.69141-12.6074Q2.60742-11.5137 1.9873-10.0879Q1.36719-8.66211 1.36719-7.05078Q1.36719-5.43945 1.9873-4.01367Q2.60742-2.58789 3.69629-1.49414Q4.78516-0.400391 6.21094 0.214844Q7.63672 0.830078 9.24805 0.830078ZM9.24805-0.654297Q7.91992-0.654297 6.7627-1.14746Q5.60547-1.64062 4.73145-2.51953Q3.85742-3.39844 3.36426-4.56055Q2.87109-5.72266 2.87109-7.05078Q2.87109-8.37891 3.35938-9.54102Q3.84766-10.7031 4.72168-11.582Q5.5957-12.4609 6.75293-12.9541Q7.91016-13.4473 9.23828-13.4473Q10.5762-13.4473 11.7334-12.9541Q12.8906-12.4609 13.7695-11.582Q14.6484-10.7031 15.1465-9.54102Q15.6445-8.37891 15.6445-7.05078Q15.6445-5.72266 15.1514-4.56055Q14.6582-3.39844 13.7842-2.51953Q12.9102-1.64062 11.748-1.14746Q10.5859-0.654297 9.24805-0.654297ZM5.6543-7.05078Q5.6543-6.72852 5.85938-6.52832Q6.06445-6.32812 6.40625-6.32812L8.51562-6.32812L8.51562-4.20898Q8.51562-3.88672 8.71094-3.67676Q8.90625-3.4668 9.23828-3.4668Q9.56055-3.4668 9.77051-3.67676Q9.98047-3.88672 9.98047-4.20898L9.98047-6.32812L12.0898-6.32812Q12.4219-6.32812 12.627-6.52832Q12.832-6.72852 12.832-7.05078Q12.832-7.38281 12.627-7.58789Q12.4219-7.79297 12.0898-7.79297L9.98047-7.79297L9.98047-9.90234Q9.98047-10.2344 9.77051-10.4443Q9.56055-10.6543 9.23828-10.6543Q8.90625-10.6543 8.71094-10.4443Q8.51562-10.2344 8.51562-9.90234L8.51562-7.79297L6.40625-7.79297Q6.06445-7.79297 5.85938-7.58789Q5.6543-7.38281 5.6543-7.05078Z"/>
  </g>
  <g transform="matrix(1 0 0 1 281.867 1933)">
   <path d="M11.709 2.91016Q13.75 2.91016 15.5518 2.12891Q17.3535 1.34766 18.7305-0.0292969Q20.1074-1.40625 20.8887-3.20801Q21.6699-5.00977 21.6699-7.05078Q21.6699-9.0918 20.8887-10.8936Q20.1074-12.6953 18.7305-14.0723Q17.3535-15.4492 15.5469-16.2305Q13.7402-17.0117 11.6992-17.0117Q9.6582-17.0117 7.85645-16.2305Q6.05469-15.4492 4.68262-14.0723Q3.31055-12.6953 2.5293-10.8936Q1.74805-9.0918 1.74805-7.05078Q1.74805-5.00977 2.5293-3.20801Q3.31055-1.40625 4.6875-0.0292969Q6.06445 1.34766 7.86621 2.12891Q9.66797 2.91016 11.709 2.91016ZM11.709 1.25Q9.98047 1.25 8.47656 0.605469Q6.97266-0.0390625 5.83496-1.17676Q4.69727-2.31445 4.05762-3.81836Q3.41797-5.32227 3.41797-7.05078Q3.41797-8.7793 4.05762-10.2832Q4.69727-11.7871 5.83008-12.9297Q6.96289-14.0723 8.4668-14.7119Q9.9707-15.3516 11.6992-15.3516Q13.4277-15.3516 14.9316-14.7119Q16.4355-14.0723 17.5781-12.9297Q18.7207-11.7871 19.3652-10.2832Q20.0098-8.7793 20.0098-7.05078Q20.0098-5.32227 19.3701-3.81836Q18.7305-2.31445 17.5928-1.17676Q16.4551-0.0390625 14.9463 0.605469Q13.4375 1.25 11.709 1.25ZM7.17773-7.05078Q7.17773-6.69922 7.41211-6.47461Q7.64648-6.25 8.01758-6.25L10.8887-6.25L10.8887-3.36914Q10.8887-2.99805 11.1133-2.76855Q11.3379-2.53906 11.6895-2.53906Q12.0605-2.53906 12.29-2.76855Q12.5195-2.99805 12.5195-3.36914L12.5195-6.25L15.4004-6.25Q15.7715-6.25 16.001-6.47461Q16.2305-6.69922 16.2305-7.05078Q16.2305-7.42188 16.001-7.65137Q15.7715-7.88086 15.4004-7.88086L12.5195-7.88086L12.5195-10.752Q12.5195-11.1328 12.29-11.3623Q12.0605-11.5918 11.6895-11.5918Q11.3379-11.5918 11.1133-11.3574Q10.8887-11.123 10.8887-10.752L10.8887-7.88086L8.01758-7.88086Q7.63672-7.88086 7.40723-7.65137Q7.17773-7.42188 7.17773-7.05078Z"/>
  </g>
  <g transform="matrix(1 0 0 1 305.646 1933)">
   <path d="M14.9707 5.66406Q17.0605 5.66406 18.96 5.01465Q20.8594 4.36523 22.4512 3.19336Q24.043 2.02148 25.2197 0.429688Q26.3965-1.16211 27.0459-3.06641Q27.6953-4.9707 27.6953-7.05078Q27.6953-9.14062 27.0459-11.04Q26.3965-12.9395 25.2197-14.5312Q24.043-16.123 22.4512-17.2998Q20.8594-18.4766 18.9551-19.126Q17.0508-19.7754 14.9609-19.7754Q12.8711-19.7754 10.9717-19.126Q9.07227-18.4766 7.48535-17.2998Q5.89844-16.123 4.72168-14.5312Q3.54492-12.9395 2.90039-11.04Q2.25586-9.14062 2.25586-7.05078Q2.25586-4.9707 2.90527-3.06641Q3.55469-1.16211 4.72656 0.429688Q5.89844 2.02148 7.49023 3.19336Q9.08203 4.36523 10.9814 5.01465Q12.8809 5.66406 14.9707 5.66406ZM14.9707 3.84766Q13.1641 3.84766 11.5283 3.2959Q9.89258 2.74414 8.53516 1.74805Q7.17773 0.751953 6.17676-0.610352Q5.17578-1.97266 4.62891-3.6084Q4.08203-5.24414 4.08203-7.05078Q4.08203-8.86719 4.62891-10.5029Q5.17578-12.1387 6.17188-13.501Q7.16797-14.8633 8.52539-15.8594Q9.88281-16.8555 11.5186-17.4023Q13.1543-17.9492 14.9609-17.9492Q16.7773-17.9492 18.4131-17.4023Q20.0488-16.8555 21.4111-15.8594Q22.7734-14.8633 23.7695-13.501Q24.7656-12.1387 25.3174-10.5029Q25.8691-8.86719 25.8691-7.05078Q25.8789-5.24414 25.332-3.6084Q24.7852-1.97266 23.7842-0.610352Q22.7832 0.751953 21.4209 1.74805Q20.0586 2.74414 18.4229 3.2959Q16.7871 3.84766 14.9707 3.84766ZM9.19922-7.05078Q9.19922-6.66992 9.45801-6.4209Q9.7168-6.17188 10.1172-6.17188L14.0625-6.17188L14.0625-2.2168Q14.0625-1.81641 14.3115-1.55762Q14.5605-1.29883 14.9512-1.29883Q15.3516-1.29883 15.6104-1.55273Q15.8691-1.80664 15.8691-2.2168L15.8691-6.17188L19.8242-6.17188Q20.2246-6.17188 20.4785-6.4209Q20.7324-6.66992 20.7324-7.05078Q20.7324-7.46094 20.4785-7.71484Q20.2246-7.96875 19.8242-7.96875L15.8691-7.96875L15.8691-11.9141Q15.8691-12.3242 15.6104-12.583Q15.3516-12.8418 14.9512-12.8418Q14.5605-12.8418 14.3115-12.583Q14.0625-12.3242 14.0625-11.9141L14.0625-7.96875L10.1172-7.96875Q9.70703-7.96875 9.45312-7.71484Q9.19922-7.46094 9.19922-7.05078Z"/>
  </g>
  <text style="stroke:none;fill:black;font-family:sans-serif;font-size:13;font-weight:bold;" transform="matrix(1 0 0 1 263 1953)">Design Variations</text>
  <text style="stroke:none;fill:black;font-family:sans-serif;font-size:13;" transform="matrix(1 0 0 1 263 1971)">Symbols are supported in up to nine weights and three scales.</text>
  <text style="stroke:none;fill:black;font-family:sans-serif;font-size:13;" transform="matrix(1 0 0 1 263 1989)">For optimal layout with text and other symbols, vertically align</text>
  <text style="stroke:none;fill:black;font-family:sans-serif;font-size:13;" transform="matrix(1 0 0 1 263 2007)">symbols with the adjacent text.</text>
  <line style="fill:none;stroke:#00AEEF;stroke-width:0.5;opacity:1.0;" x1="776" x2="776" y1="1919" y2="1933"/>
  <g transform="matrix(1 0 0 1 776 1933)">
   <path d="M3.31055 0.15625Q3.70117 0.15625 3.91602-0.00976562Q4.13086-0.175781 4.26758-0.585938L5.52734-4.0332L11.2891-4.0332L12.5488-0.585938Q12.6855-0.175781 12.9004-0.00976562Q13.1152 0.15625 13.4961 0.15625Q13.8867 0.15625 14.1162-0.0585938Q14.3457-0.273438 14.3457-0.644531Q14.3457-0.869141 14.2383-1.17188L9.6582-13.3691Q9.48242-13.8184 9.17969-14.043Q8.87695-14.2676 8.4082-14.2676Q7.5-14.2676 7.17773-13.3789L2.59766-1.16211Q2.49023-0.859375 2.49023-0.634766Q2.49023-0.263672 2.70996-0.0537109Q2.92969 0.15625 3.31055 0.15625ZM6.00586-5.51758L8.37891-12.0898L8.42773-12.0898L10.8008-5.51758Z"/>
  </g>
  <line style="fill:none;stroke:#00AEEF;stroke-width:0.5;opacity:1.0;" x1="793.197" x2="793.197" y1="1919" y2="1933"/>
  <text style="stroke:none;fill:black;font-family:sans-serif;font-size:13;font-weight:bold;" transform="matrix(1 0 0 1 776 1953)">Margins</text>
  <text style="stroke:none;fill:black;font-family:sans-serif;font-size:13;" transform="matrix(1 0 0 1 776 1971)">Leading and trailing margins on the left and right side of each symbol</text>
  <text style="stroke:none;fill:black;font-family:sans-serif;font-size:13;" transform="matrix(1 0 0 1 776 1989)">can be adjusted by modifying the x-location of the margin guidelines.</text>
  <text style="stroke:none;fill:black;font-family:sans-serif;font-size:13;" transform="matrix(1 0 0 1 776 2007)">Modifications are automatically applied proportionally to all</text>
  <text style="stroke:none;fill:black;font-family:sans-serif;font-size:13;" transform="matrix(1 0 0 1 776 2025)">scales and weights.</text>
  <g transform="matrix(1 0 0 1 1289 1933)">
   <path d="M2.8418 1.86523L4.54102 3.57422Q5.18555 4.22852 5.90332 4.17969Q6.62109 4.13086 7.31445 3.35938L18.0078-8.42773L17.041-9.4043L6.42578 2.27539Q6.16211 2.57812 5.89355 2.61719Q5.625 2.65625 5.27344 2.30469L4.10156 1.14258Q3.75 0.791016 3.79395 0.522461Q3.83789 0.253906 4.14062-0.0195312L15.6152-10.8203L14.6387-11.7871L3.04688-0.898438Q2.30469-0.214844 2.25098 0.498047Q2.19727 1.21094 2.8418 1.86523ZM9.25781-16.3281Q8.94531-16.0254 8.90625-15.6348Q8.86719-15.2441 9.04297-14.9512Q9.21875-14.6777 9.55566-14.541Q9.89258-14.4043 10.3809-14.5215Q11.4746-14.7754 12.5977-14.7314Q13.7207-14.6875 14.7949-13.9844L14.209-12.5293Q13.9551-11.9043 14.0674-11.4404Q14.1797-10.9766 14.5801-10.5664L16.875-8.25195Q17.2363-7.88086 17.5781-7.82227Q17.9199-7.76367 18.3398-7.8418L19.4043-8.03711L20.0684-7.36328L20.0293-6.80664Q20-6.43555 20.1221-6.12305Q20.2441-5.81055 20.6055-5.44922L21.3672-4.70703Q21.7285-4.3457 22.1533-4.33105Q22.5781-4.31641 22.9297-4.66797L25.8398-7.58789Q26.1914-7.93945 26.1816-8.35449Q26.1719-8.76953 25.8105-9.13086L25.0391-9.89258Q24.6875-10.2539 24.3799-10.3857Q24.0723-10.5176 23.7109-10.4883L23.1348-10.4395L22.4902-11.0742L22.7344-12.1973Q22.832-12.6172 22.6953-12.9834Q22.5586-13.3496 22.1191-13.7891L19.9219-15.9766Q18.6719-17.2168 17.2607-17.8369Q15.8496-18.457 14.4189-18.4814Q12.9883-18.5059 11.665-17.959Q10.3418-17.4121 9.25781-16.3281ZM10.752-15.957Q11.6602-16.6211 12.7002-16.9043Q13.7402-17.1875 14.8047-17.085Q15.8691-16.9824 16.8701-16.5137Q17.8711-16.0449 18.7012-15.2051L21.1328-12.793Q21.3086-12.6172 21.3525-12.4512Q21.3965-12.2852 21.3379-12.0312L21.0156-10.5469L22.5195-9.0625L23.5059-9.12109Q23.6914-9.13086 23.7891-9.09668Q23.8867-9.0625 24.0332-8.91602L24.6094-8.33984L22.168-5.89844L21.5918-6.47461Q21.4453-6.62109 21.4062-6.71875Q21.3672-6.81641 21.377-7.01172L21.4453-7.98828L19.9512-9.47266L18.4277-9.21875Q18.1836-9.16992 18.042-9.2041Q17.9004-9.23828 17.7148-9.41406L15.7129-11.416Q15.5176-11.5918 15.4932-11.7529Q15.4688-11.9141 15.5859-12.1875L16.4648-14.2773Q15.293-15.3711 13.8281-15.791Q12.3633-16.2109 10.8398-15.7617Q10.7227-15.7324 10.6885-15.8057Q10.6543-15.8789 10.752-15.957Z"/>
  </g>
  <text style="stroke:none;fill:black;font-family:sans-serif;font-size:13;font-weight:bold;" transform="matrix(1 0 0 1 1289 1953)">Exporting</text>
  <text style="stroke:none;fill:black;font-family:sans-serif;font-size:13;" transform="matrix(1 0 0 1 1289 1971)">Symbols should be outlined when exporting to ensure the</text>
  <text style="stroke:none;fill:black;font-family:sans-serif;font-size:13;" transform="matrix(1 0 0 1 1289 1989)">design is preserved when submitting to Xcode.</text>
  <text id="template-version" style="stroke:none;fill:black;font-family:sans-serif;font-size:13;text-anchor:end;" transform="matrix(1 0 0 1 3036 1933)">Template v.3.0</text>
  <text style="stroke:none;fill:black;font-family:sans-serif;font-size:13;text-anchor:end;" transform="matrix(1 0 0 1 3036 1951)">Requires Xcode 13 or greater</text>
  <text id="descriptive-name" style="stroke:none;fill:black;font-family:sans-serif;font-size:13;text-anchor:end;" transform="matrix(1 0 0 1 3036 1969)">Generated from music.note.tv.fill</text>
  <text style="stroke:none;fill:black;font-family:sans-serif;font-size:13;text-anchor:end;" transform="matrix(1 0 0 1 3036 1987)">Typeset at 100 points</text>
  <text style="stroke:none;fill:black;font-family:sans-serif;font-size:13;" transform="matrix(1 0 0 1 263 726)">Small</text>
  <text style="stroke:none;fill:black;font-family:sans-serif;font-size:13;" transform="matrix(1 0 0 1 263 1156)">Medium</text>
  <text style="stroke:none;fill:black;font-family:sans-serif;font-size:13;" transform="matrix(1 0 0 1 263 1586)">Large</text>
 </g>
 <g id="Guides">
  <g id="H-reference" style="fill:#27AAE1;stroke:none;" transform="matrix(1 0 0 1 339 696)">
   <path d="M0.976562 0L3.66211 0L29.3457-67.1387L30.0293-67.1387L30.0293-70.459L28.125-70.459ZM11.6699-24.4629L46.9727-24.4629L46.2402-26.709L12.4512-26.709ZM55.127 0L57.7637 0L30.6152-70.459L29.4434-70.459L29.4434-67.1387Z"/>
  </g>
  <line id="Baseline-S" style="fill:none;stroke:#27AAE1;opacity:1;stroke-width:0.5;" x1="263" x2="3036" y1="696" y2="696"/>
  <line id="Capline-S" style="fill:none;stroke:#27AAE1;opacity:1;stroke-width:0.5;" x1="263" x2="3036" y1="625.541" y2="625.541"/>
  <g id="H-reference" style="fill:#27AAE1;stroke:none;" transform="matrix(1 0 0 1 339 1126)">
   <path d="M0.976562 0L3.66211 0L29.3457-67.1387L30.0293-67.1387L30.0293-70.459L28.125-70.459ZM11.6699-24.4629L46.9727-24.4629L46.2402-26.709L12.4512-26.709ZM55.127 0L57.7637 0L30.6152-70.459L29.4434-70.459L29.4434-67.1387Z"/>
  </g>
  <line id="Baseline-M" style="fill:none;stroke:#27AAE1;opacity:1;stroke-width:0.5;" x1="263" x2="3036" y1="1126" y2="1126"/>
  <line id="Capline-M" style="fill:none;stroke:#27AAE1;opacity:1;stroke-width:0.5;" x1="263" x2="3036" y1="1055.54" y2="1055.54"/>
  <g id="H-reference" style="fill:#27AAE1;stroke:none;" transform="matrix(1 0 0 1 339 1556)">
   <path d="M0.976562 0L3.66211 0L29.3457-67.1387L30.0293-67.1387L30.0293-70.459L28.125-70.459ZM11.6699-24.4629L46.9727-24.4629L46.2402-26.709L12.4512-26.709ZM55.127 0L57.7637 0L30.6152-70.459L29.4434-70.459L29.4434-67.1387Z"/>
  </g>
  <line id="Baseline-L" style="fill:none;stroke:#27AAE1;opacity:1;stroke-width:0.5;" x1="263" x2="3036" y1="1556" y2="1556"/>
  <line id="Capline-L" style="fill:none;stroke:#27AAE1;opacity:1;stroke-width:0.5;" x1="263" x2="3036" y1="1485.54" y2="1485.54"/>
  <line id="left-margin-Regular-M" style="fill:none;stroke:#00AEEF;stroke-width:0.5;opacity:1.0;" x1="1376.36" x2="1376.36" y1="1030.79" y2="1150.12"/>
  <line id="right-margin-Regular-M" style="fill:none;stroke:#00AEEF;stroke-width:0.5;opacity:1.0;" x1="1523.33" x2="1523.33" y1="1030.79" y2="1150.12"/>
 </g>
 <g id="Symbols">
  <g id="Black-L" transform="matrix(1 0 0 1 2832.25 1556)">
   <path d="M37.6953 13.1836L164.6 13.1836Q174.951 13.1836 180.591 7.59277Q186.23 2.00195 186.23-8.44727L186.23-82.373Q186.23-92.7734 180.591-98.3887Q174.951-104.004 164.6-104.004L37.6953-104.004Q27.3438-104.004 21.7041-98.3887Q16.0645-92.7734 16.0645-82.373L16.0645-8.44727Q16.0645 2.00195 21.7041 7.59277Q27.3438 13.1836 37.6953 13.1836ZM66.9922 37.9395L135.352 37.9395Q138.672 37.9395 141.016 35.5225Q143.359 33.1055 143.359 29.9805Q143.359 26.8066 141.016 24.3896Q138.672 21.9727 135.352 21.9727L66.9922 21.9727Q63.623 21.9727 61.3037 24.3896Q58.9844 26.8066 58.9844 29.9805Q58.9844 33.1055 61.3037 35.5225Q63.623 37.9395 66.9922 37.9395ZM119.482-54.4434L104.736-50.8301Q103.955-50.6348 103.687-50.2197Q103.418-49.8047 103.418-48.3398L103.418-29.9316Q103.418-25.0488 101.343-21.3135Q99.2676-17.5781 95.6055-15.4785Q91.9434-13.3789 87.1582-13.3789Q82.1777-13.3789 79.0283-16.1865Q75.8789-18.9941 75.8789-23.4375Q75.8789-28.0273 78.9307-31.0791Q81.9824-34.1309 87.1094-35.498L92.7734-36.9629Q94.873-37.5 95.2881-37.9883Q95.7031-38.4766 95.7031-40.3809L95.7031-65.8203Q95.7031-68.8477 96.582-69.9951Q97.4609-71.1426 100.146-71.7773L118.896-76.4648Q121.631-77.1484 122.876-76.2695Q124.121-75.3906 124.121-72.998L124.121-60.3516Q124.121-57.4219 123.193-56.25Q122.266-55.0781 119.482-54.4434Z"/>
  </g>
  <g id="Heavy-L" transform="matrix(1 0 0 1 2537.35 1556)">
   <path d="M36.1816 12.0117L162.5 12.0117Q172.217 12.0117 177.417 6.86035Q182.617 1.70898 182.617-8.10547L182.617-81.6895Q182.617-91.4551 177.417-96.6309Q172.217-101.807 162.5-101.807L36.1816-101.807Q26.5137-101.807 21.2891-96.6309Q16.0645-91.4551 16.0645-81.6895L16.0645-8.10547Q16.0645 1.70898 21.2891 6.86035Q26.5137 12.0117 36.1816 12.0117ZM65.8691 35.6445L132.861 35.6445Q135.84 35.6445 137.915 33.4961Q139.99 31.3477 139.99 28.5645Q139.99 25.6836 137.915 23.5352Q135.84 21.3867 132.861 21.3867L65.8691 21.3867Q62.8906 21.3867 60.8154 23.5352Q58.7402 25.6836 58.7402 28.5645Q58.7402 31.3477 60.8154 33.4961Q62.8906 35.6445 65.8691 35.6445ZM117.822-54.6875L103.027-51.0742Q102.148-50.8301 101.855-50.3662Q101.562-49.9023 101.562-48.3887L101.562-28.9551Q101.562-24.1211 99.5117-20.4346Q97.4609-16.748 93.8721-14.6729Q90.2832-12.5977 85.5469-12.5977Q80.6152-12.5977 77.5391-15.3564Q74.4629-18.1152 74.4629-22.4609Q74.4629-27.0996 77.5391-30.0537Q80.6152-33.0078 85.5469-34.3262L91.3086-35.791Q93.457-36.377 93.8965-36.9141Q94.3359-37.4512 94.3359-39.4531L94.3359-65.8203Q94.3359-68.7988 95.1904-69.873Q96.0449-70.9473 98.6328-71.582L117.334-76.2695Q120.02-76.9043 121.167-76.0742Q122.314-75.2441 122.314-72.9492L122.314-60.4004Q122.314-57.5195 121.411-56.3965Q120.508-55.2734 117.822-54.6875Z"/>
  </g>
  <g id="Bold-L" transform="matrix(1 0 0 1 2242.64 1556)">
   <path d="M34.5215 10.7422L160.205 10.7422Q169.189 10.7422 173.901 6.0791Q178.613 1.41602 178.613-7.71484L178.613-80.9082Q178.613-89.9902 173.901-94.6777Q169.189-99.3652 160.205-99.3652L34.5215-99.3652Q25.5371-99.3652 20.8008-94.6777Q16.0645-89.9902 16.0645-80.9082L16.0645-7.71484Q16.0645 1.41602 20.8008 6.0791Q25.5371 10.7422 34.5215 10.7422ZM64.6484 33.1055L130.078 33.1055Q132.666 33.1055 134.473 31.2744Q136.279 29.4434 136.279 26.9531Q136.279 24.4629 134.473 22.6318Q132.666 20.8008 130.078 20.8008L64.6484 20.8008Q62.0605 20.8008 60.2539 22.6318Q58.4473 24.4629 58.4473 26.9531Q58.4473 29.4434 60.2539 31.2744Q62.0605 33.1055 64.6484 33.1055ZM116.064-54.9316L101.172-51.3184Q100.244-51.123 99.8779-50.5859Q99.5117-50.0488 99.5117-48.4375L99.5117-27.8809Q99.5117-23.0957 97.5342-19.458Q95.5566-15.8203 92.0166-13.7695Q88.4766-11.7188 83.8379-11.7188Q78.9551-11.7188 75.9521-14.4287Q72.9492-17.1387 72.9492-21.4355Q72.9492-26.0254 76.0498-28.9062Q79.1504-31.7871 83.8867-33.0566L89.6973-34.5703Q91.9434-35.1562 92.4072-35.7666Q92.8711-36.377 92.8711-38.3789L92.8711-65.8203Q92.8711-68.75 93.6768-69.7754Q94.4824-70.8008 97.0215-71.3867L115.625-76.0254Q118.311-76.709 119.336-75.9033Q120.361-75.0977 120.361-72.9492L120.361-60.4492Q120.361-57.6172 119.482-56.5918Q118.604-55.5664 116.064-54.9316Z"/>
  </g>
  <g id="Semibold-L" transform="matrix(1 0 0 1 1947.32 1556)">
   <path d="M33.3496 9.86328L158.594 9.86328Q167.041 9.86328 171.436 5.51758Q175.83 1.17188 175.83-7.4707L175.83-80.3711Q175.83-88.9648 171.436-93.3105Q167.041-97.6562 158.594-97.6562L33.3496-97.6562Q24.9023-97.6562 20.4834-93.3105Q16.0645-88.9648 16.0645-80.3711L16.0645-7.4707Q16.0645 1.17188 20.4834 5.51758Q24.9023 9.86328 33.3496 9.86328ZM63.8184 31.3477L128.174 31.3477Q130.469 31.3477 132.08 29.7119Q133.691 28.0762 133.691 25.8301Q133.691 23.6328 132.08 21.9971Q130.469 20.3613 128.174 20.3613L63.8184 20.3613Q61.4746 20.3613 59.8633 21.9971Q58.252 23.6328 58.252 25.8301Q58.252 28.0762 59.8633 29.7119Q61.4746 31.3477 63.8184 31.3477ZM114.746-55.127L99.8047-51.5137Q98.7793-51.2695 98.4131-50.708Q98.0469-50.1465 98.0469-48.4863L98.0469-27.0996Q98.0469-22.4121 96.0938-18.7988Q94.1406-15.1855 90.6494-13.1592Q87.1582-11.1328 82.5195-11.1328Q77.6855-11.1328 74.7559-13.8184Q71.8262-16.5039 71.8262-20.7031Q71.8262-25.293 74.9512-28.1006Q78.0762-30.9082 82.6172-32.1289L88.5254-33.6914Q90.8203-34.2773 91.3086-34.9365Q91.7969-35.5957 91.7969-37.6465L91.7969-65.8203Q91.7969-68.75 92.5781-69.7021Q93.3594-70.6543 95.8008-71.2402L114.355-75.8789Q116.992-76.5137 117.944-75.7568Q118.896-75 118.896-72.9492L118.896-60.498Q118.896-57.666 118.066-56.6895Q117.236-55.7129 114.746-55.127Z"/>
  </g>
  <g id="Medium-L" transform="matrix(1 0 0 1 1651.66 1556)">
   <path d="M32.4707 9.17969L157.373 9.17969Q165.479 9.17969 169.604 5.07812Q173.73 0.976562 173.73-7.22656L173.73-79.9805Q173.73-88.2324 169.604-92.2852Q165.479-96.3379 157.373-96.3379L32.4707-96.3379Q24.3652-96.3379 20.2148-92.2852Q16.0645-88.2324 16.0645-79.9805L16.0645-7.22656Q16.0645 0.976562 20.2148 5.07812Q24.3652 9.17969 32.4707 9.17969ZM63.1348 30.0293L126.709 30.0293Q128.76 30.0293 130.225 28.54Q131.689 27.0508 131.689 25Q131.689 22.9492 130.225 21.4844Q128.76 20.0195 126.709 20.0195L63.1348 20.0195Q61.084 20.0195 59.5947 21.4844Q58.1055 22.9492 58.1055 25Q58.1055 27.0508 59.5947 28.54Q61.084 30.0293 63.1348 30.0293ZM113.818-55.2246L98.8281-51.6113Q97.8027-51.3672 97.3877-50.7812Q96.9727-50.1953 96.9727-48.4863L96.9727-26.5137Q96.9727-21.8262 95.0684-18.2617Q93.1641-14.6973 89.6973-12.6709Q86.2305-10.6445 81.6406-10.6445Q76.8066-10.6445 73.9258-13.2812Q71.0449-15.918 71.0449-20.1172Q71.0449-24.707 74.1699-27.4658Q77.2949-30.2246 81.7383-31.4453L87.6953-33.0078Q90.0391-33.5938 90.5273-34.2773Q91.0156-34.9609 91.0156-37.0605L91.0156-65.8203Q91.0156-68.6523 91.7725-69.5801Q92.5293-70.5078 94.9707-71.1426L113.525-75.7324Q116.113-76.3672 116.992-75.6104Q117.871-74.8535 117.871-72.9004L117.871-60.498Q117.871-57.666 117.041-56.7383Q116.211-55.8105 113.818-55.2246Z"/>
  </g>
  <g id="Regular-L" transform="matrix(1 0 0 1 1356.31 1556)">
   <path d="M31.3477 8.30078L155.762 8.30078Q163.379 8.30078 167.188 4.54102Q170.996 0.78125 170.996-6.98242L170.996-79.4434Q170.996-87.207 167.188-90.9424Q163.379-94.6777 155.762-94.6777L31.3477-94.6777Q23.7305-94.6777 19.8975-90.9424Q16.0645-87.207 16.0645-79.4434L16.0645-6.98242Q16.0645 0.78125 19.8975 4.54102Q23.7305 8.30078 31.3477 8.30078ZM62.3047 28.2715L124.805 28.2715Q126.611 28.2715 127.881 27.002Q129.15 25.7324 129.15 23.9258Q129.15 22.1191 127.881 20.8496Q126.611 19.5801 124.805 19.5801L62.3047 19.5801Q60.498 19.5801 59.2041 20.8496Q57.9102 22.1191 57.9102 23.9258Q57.9102 25.7324 59.2041 27.002Q60.498 28.2715 62.3047 28.2715ZM112.549-55.4199L97.5098-51.8066Q96.4355-51.5625 95.9961-50.9277Q95.5566-50.293 95.5566-48.5352L95.5566-25.7812Q95.5566-21.1426 93.6768-17.6025Q91.7969-14.0625 88.3789-12.0605Q84.9609-10.0586 80.4199-10.0586Q75.6348-10.0586 72.8027-12.6709Q69.9707-15.2832 69.9707-19.3848Q69.9707-24.0234 73.1201-26.709Q76.2695-29.3945 80.5664-30.5664L86.5723-32.1289Q88.9648-32.7637 89.4775-33.4961Q89.9902-34.2285 89.9902-36.377L89.9902-65.8203Q89.9902-68.6523 90.7227-69.5312Q91.4551-70.4102 93.7988-70.9961L112.305-75.5859Q114.893-76.2207 115.698-75.4883Q116.504-74.7559 116.504-72.9004L116.504-60.5469Q116.504-57.7637 115.698-56.8848Q114.893-56.0059 112.549-55.4199Z"/>
  </g>
  <g id="Light-L" transform="matrix(1 0 0 1 1061.36 1556)">
   <path d="M30.0781 7.95898L153.516 7.95898Q160.498 7.95898 163.989 4.46777Q167.48 0.976562 167.48-6.05469L167.48-78.8574Q167.48-85.9375 163.989-89.3799Q160.498-92.8223 153.516-92.8223L30.0781-92.8223Q23.0957-92.8223 19.5801-89.3799Q16.0645-85.9375 16.0645-78.8574L16.0645-6.05469Q16.0645 0.976562 19.5801 4.46777Q23.0957 7.95898 30.0781 7.95898ZM61.1328 26.0742L122.461 26.0742Q123.877 26.0742 124.829 25.1221Q125.781 24.1699 125.781 22.7539Q125.781 21.3379 124.829 20.3857Q123.877 19.4336 122.461 19.4336L61.1328 19.4336Q59.7168 19.4336 58.7402 20.3857Q57.7637 21.3379 57.7637 22.7539Q57.7637 24.1699 58.7402 25.1221Q59.7168 26.0742 61.1328 26.0742ZM109.521-54.7363L95.1172-51.2695Q94.1406-51.0742 93.7256-50.4639Q93.3105-49.8535 93.3105-48.1934L93.3105-25.293Q93.3105-20.9473 91.5771-17.5781Q89.8438-14.209 86.6455-12.3291Q83.4473-10.4492 79.1504-10.4492Q74.6094-10.4492 71.9482-12.915Q69.2871-15.3809 69.2871-19.2871Q69.2871-23.6328 72.2656-26.1719Q75.2441-28.7109 79.3457-29.834L85.1562-31.3965Q87.4023-31.9824 87.8906-32.6904Q88.3789-33.3984 88.3789-35.4004L88.3789-64.4531Q88.3789-67.1387 89.0625-67.9688Q89.7461-68.7988 91.9922-69.3848L109.277-73.584Q111.719-74.1699 112.5-73.4863Q113.281-72.8027 113.281-71.0449L113.281-59.5703Q113.281-56.9336 112.5-56.1035Q111.719-55.2734 109.521-54.7363Z"/>
  </g>
  <g id="Thin-L" transform="matrix(1 0 0 1 766.969 1556)">
   <path d="M28.418 7.4707L150.537 7.4707Q156.641 7.4707 159.741 4.37012Q162.842 1.26953 162.842-4.88281L162.842-78.125Q162.842-84.2773 159.741-87.3535Q156.641-90.4297 150.537-90.4297L28.418-90.4297Q22.2656-90.4297 19.165-87.3535Q16.0645-84.2773 16.0645-78.125L16.0645-4.88281Q16.0645 1.26953 19.165 4.37012Q22.2656 7.4707 28.418 7.4707ZM59.6191 23.1934L119.336 23.1934Q120.215 23.1934 120.801 22.6318Q121.387 22.0703 121.387 21.1914Q121.387 20.3125 120.801 19.7754Q120.215 19.2383 119.336 19.2383L59.6191 19.2383Q58.6914 19.2383 58.1055 19.7754Q57.5195 20.3125 57.5195 21.1914Q57.5195 22.0703 58.1055 22.6318Q58.6914 23.1934 59.6191 23.1934ZM105.566-53.7598L91.9922-50.5371Q91.0645-50.3906 90.6982-49.8291Q90.332-49.2676 90.332-47.7539L90.332-24.6582Q90.332-20.6055 88.8184-17.5049Q87.3047-14.4043 84.3994-12.6709Q81.4941-10.9375 77.5391-10.9375Q73.3398-10.9375 70.874-13.2324Q68.4082-15.5273 68.4082-19.1406Q68.4082-23.1445 71.1426-25.4639Q73.877-27.7832 77.6855-28.8574L83.252-30.3711Q85.4004-31.0059 85.8643-31.6162Q86.3281-32.2266 86.3281-34.082L86.3281-62.5977Q86.3281-65.1367 86.9385-65.918Q87.5488-66.6992 89.6484-67.2363L105.322-70.9473Q107.617-71.4844 108.325-70.8496Q109.033-70.2148 109.033-68.6035L109.033-58.252Q109.033-55.8105 108.325-55.0293Q107.617-54.248 105.566-53.7598Z"/>
  </g>
  <g id="Ultralight-L" transform="matrix(1 0 0 1 471.454 1556)">
   <path d="M27.5879 7.27539L148.975 7.27539Q154.688 7.27539 157.568 4.3457Q160.449 1.41602 160.449-4.24805L160.449-77.7344Q160.449-83.3984 157.568-86.2793Q154.688-89.1602 148.975-89.1602L27.5879-89.1602Q21.875-89.1602 18.9697-86.2793Q16.0645-83.3984 16.0645-77.7344L16.0645-4.24805Q16.0645 1.41602 18.9697 4.3457Q21.875 7.27539 27.5879 7.27539ZM58.7891 21.6797L117.773 21.6797Q118.359 21.6797 118.726 21.3379Q119.092 20.9961 119.092 20.3613Q119.092 19.8242 118.726 19.4824Q118.359 19.1406 117.773 19.1406L58.7891 19.1406Q58.2031 19.1406 57.8125 19.4824Q57.4219 19.8242 57.4219 20.3613Q57.4219 20.9961 57.8125 21.3379Q58.2031 21.6797 58.7891 21.6797ZM103.564-53.3203L90.4297-50.1953Q89.5508-50.0488 89.1846-49.5361Q88.8184-49.0234 88.8184-47.5586L88.8184-24.3652Q88.8184-20.5078 87.4023-17.5293Q85.9863-14.5508 83.252-12.8662Q80.5176-11.1816 76.709-11.1816Q72.6562-11.1816 70.3125-13.3789Q67.9688-15.5762 67.9688-19.0918Q67.9688-22.9004 70.6055-25.1221Q73.2422-27.3438 76.9043-28.3691L82.3242-29.8828Q84.375-30.4688 84.8145-31.0791Q85.2539-31.6895 85.2539-33.3984L85.2539-61.6699Q85.2539-64.1113 85.8398-64.8682Q86.4258-65.625 88.4277-66.1133L103.32-69.6289Q105.469-70.1172 106.177-69.5312Q106.885-68.9453 106.885-67.3828L106.885-57.6172Q106.885-55.2246 106.177-54.4922Q105.469-53.7598 103.564-53.3203Z"/>
  </g>
  <g id="Black-M" transform="matrix(1 0 0 1 2854.05 1126)">
   <path d="M30.0781 3.17383L128.613 3.17383Q136.963 3.17383 141.602-1.44043Q146.24-6.05469 146.24-14.4531L146.24-72.168Q146.24-80.5176 141.602-85.1562Q136.963-89.7949 128.613-89.7949L30.0781-89.7949Q21.7285-89.7949 17.0898-85.1562Q12.4512-80.5176 12.4512-72.168L12.4512-14.4531Q12.4512-6.05469 17.0898-1.44043Q21.7285 3.17383 30.0781 3.17383ZM52.4414 22.6562L106.201 22.6562Q108.984 22.6562 110.913 20.6543Q112.842 18.6523 112.842 16.1133Q112.842 13.5254 110.913 11.5234Q108.984 9.52148 106.201 9.52148L52.4414 9.52148Q49.707 9.52148 47.7783 11.5234Q45.8496 13.5254 45.8496 16.1133Q45.8496 18.6523 47.7783 20.6543Q49.707 22.6562 52.4414 22.6562ZM93.0176-49.6582L81.8848-46.9238Q81.3477-46.7773 81.1768-46.5088Q81.0059-46.2402 81.0059-45.2148L81.0059-31.7871Q81.0059-26.1719 77.5146-22.6074Q74.0234-19.043 68.5547-19.043Q64.6973-19.043 62.2559-21.2158Q59.8145-23.3887 59.8145-26.8555Q59.8145-30.3223 62.085-32.7148Q64.3555-35.1074 68.457-36.1816L72.7539-37.3047Q74.2188-37.6953 74.5117-37.9883Q74.8047-38.2812 74.8047-39.6484L74.8047-58.4473Q74.8047-60.791 75.5127-61.7188Q76.2207-62.6465 78.3203-63.1348L92.5293-66.6992Q94.6289-67.1875 95.6543-66.5039Q96.6797-65.8203 96.6797-63.8672L96.6797-54.2969Q96.6797-52.0508 95.9473-51.0986Q95.2148-50.1465 93.0176-49.6582Z"/>
  </g>
  <g id="Heavy-M" transform="matrix(1 0 0 1 2558.73 1126)">
   <path d="M28.8574 2.09961L127.051 2.09961Q134.912 2.09961 139.185-2.14844Q143.457-6.39648 143.457-14.3066L143.457-71.6309Q143.457-79.4922 139.185-83.7646Q134.912-88.0371 127.051-88.0371L28.8574-88.0371Q21.0449-88.0371 16.748-83.7646Q12.4512-79.4922 12.4512-71.6309L12.4512-14.3066Q12.4512-6.39648 16.748-2.14844Q21.0449 2.09961 28.8574 2.09961ZM51.6113 20.8984L104.297 20.8984Q106.787 20.8984 108.545 19.0918Q110.303 17.2852 110.303 14.9902Q110.303 12.5977 108.545 10.791Q106.787 8.98438 104.297 8.98438L51.6113 8.98438Q49.1211 8.98438 47.3877 10.791Q45.6543 12.5977 45.6543 14.9902Q45.6543 17.2852 47.3877 19.0918Q49.1211 20.8984 51.6113 20.8984ZM92.041-50.0488L80.7129-47.2656Q80.127-47.1191 79.9072-46.8018Q79.6875-46.4844 79.6875-45.3613L79.6875-30.957Q79.6875-25.3418 76.2207-21.7773Q72.7539-18.2129 67.2852-18.2129Q63.3789-18.2129 60.9863-20.3857Q58.5938-22.5586 58.5938-25.9766Q58.5938-29.4922 60.9375-31.8359Q63.2812-34.1797 67.2363-35.2051L71.6309-36.377Q73.1934-36.7676 73.5107-37.1338Q73.8281-37.5 73.8281-38.9648L73.8281-58.7402Q73.8281-61.084 74.5117-61.9629Q75.1953-62.8418 77.2461-63.3301L91.6504-66.9434Q93.75-67.4316 94.6777-66.7725Q95.6055-66.1133 95.6055-64.2578L95.6055-54.5898Q95.6055-52.3438 94.8975-51.4404Q94.1895-50.5371 92.041-50.0488Z"/>
  </g>
  <g id="Bold-M" transform="matrix(1 0 0 1 2263.56 1126)">
   <path d="M27.5391 0.927734L125.293 0.927734Q132.617 0.927734 136.499-2.90527Q140.381-6.73828 140.381-14.1602L140.381-70.9961Q140.381-78.3691 136.499-82.2266Q132.617-86.084 125.293-86.084L27.5391-86.084Q20.2637-86.084 16.3574-82.2266Q12.4512-78.3691 12.4512-70.9961L12.4512-14.1602Q12.4512-6.73828 16.3574-2.90527Q20.2637 0.927734 27.5391 0.927734ZM50.6836 18.9453L102.148 18.9453Q104.346 18.9453 105.884 17.3828Q107.422 15.8203 107.422 13.7207Q107.422 11.6211 105.884 10.0342Q104.346 8.44727 102.148 8.44727L50.6836 8.44727Q48.5352 8.44727 46.9727 10.0342Q45.4102 11.6211 45.4102 13.7207Q45.4102 15.8203 46.9727 17.3828Q48.5352 18.9453 50.6836 18.9453ZM91.0156-50.4883L79.4434-47.7051Q78.7109-47.5098 78.4424-47.1191Q78.1738-46.7285 78.1738-45.5078L78.1738-30.0293Q78.1738-24.4141 74.7314-20.874Q71.2891-17.334 65.8203-17.334Q61.9629-17.334 59.5947-19.458Q57.2266-21.582 57.2266-24.9512Q57.2266-28.5645 59.6436-30.8594Q62.0605-33.1543 65.8203-34.1309L70.3613-35.3027Q72.0703-35.7422 72.4121-36.2061Q72.7539-36.6699 72.7539-38.1836L72.7539-59.1309Q72.7539-61.4258 73.4131-62.2559Q74.0723-63.0859 76.0742-63.5254L90.6738-67.1875Q92.7246-67.7246 93.5791-67.0654Q94.4336-66.4062 94.4336-64.6973L94.4336-54.8828Q94.4336-52.6367 93.7256-51.8066Q93.0176-50.9766 91.0156-50.4883Z"/>
  </g>
  <g id="Semibold-M" transform="matrix(1 0 0 1 1967.92 1126)">
   <path d="M26.6113 0.0976562L124.072 0.0976562Q131.055 0.0976562 134.644-3.44238Q138.232-6.98242 138.232-14.0625L138.232-70.5566Q138.232-77.5879 134.644-81.1523Q131.055-84.7168 124.072-84.7168L26.6113-84.7168Q19.6777-84.7168 16.0645-81.1523Q12.4512-77.5879 12.4512-70.5566L12.4512-14.0625Q12.4512-6.98242 16.0645-3.44238Q19.6777 0.0976562 26.6113 0.0976562ZM50.0488 17.5781L100.635 17.5781Q102.637 17.5781 104.053 16.1621Q105.469 14.7461 105.469 12.793Q105.469 10.8887 104.053 9.44824Q102.637 8.00781 100.635 8.00781L50.0488 8.00781Q48.0957 8.00781 46.6797 9.44824Q45.2637 10.8887 45.2637 12.793Q45.2637 14.7461 46.6797 16.1621Q48.0957 17.5781 50.0488 17.5781ZM90.2832-50.7812L78.5156-47.9492Q77.7832-47.7051 77.4658-47.2656Q77.1484-46.8262 77.1484-45.5566L77.1484-29.3457Q77.1484-23.7305 73.7305-20.1904Q70.3125-16.6504 64.8438-16.6504Q60.9375-16.6504 58.6182-18.7744Q56.2988-20.8984 56.2988-24.2188Q56.2988-27.8809 58.7646-30.127Q61.2305-32.373 64.8926-33.3496L69.4824-34.5703Q71.2891-35.0098 71.6553-35.5225Q72.0215-36.0352 72.0215-37.6465L72.0215-59.3262Q72.0215-61.6211 72.6562-62.4023Q73.291-63.1836 75.2441-63.623L89.9902-67.334Q92.041-67.8711 92.8223-67.2363Q93.6035-66.6016 93.6035-64.9902L93.6035-55.0781Q93.6035-52.832 92.9199-52.0508Q92.2363-51.2695 90.2832-50.7812Z"/>
  </g>
  <g id="Medium-M" transform="matrix(1 0 0 1 1672.02 1126)">
   <path d="M25.9277-0.488281L123.145-0.488281Q129.834-0.488281 133.228-3.83301Q136.621-7.17773 136.621-13.9648L136.621-70.2637Q136.621-77.002 133.228-80.3467Q129.834-83.6914 123.145-83.6914L25.9277-83.6914Q19.2871-83.6914 15.8691-80.3467Q12.4512-77.002 12.4512-70.2637L12.4512-13.9648Q12.4512-7.17773 15.8691-3.83301Q19.2871-0.488281 25.9277-0.488281ZM49.5605 16.5527L99.5117 16.5527Q101.318 16.5527 102.637 15.2588Q103.955 13.9648 103.955 12.1582Q103.955 10.3516 102.637 9.0332Q101.318 7.71484 99.5117 7.71484L49.5605 7.71484Q47.7539 7.71484 46.4355 9.0332Q45.1172 10.3516 45.1172 12.1582Q45.1172 13.9648 46.4355 15.2588Q47.7539 16.5527 49.5605 16.5527ZM89.6973-50.9766L77.832-48.1445Q77.002-47.9004 76.6846-47.4365Q76.3672-46.9727 76.3672-45.6543L76.3672-28.8574Q76.3672-23.291 72.9492-19.7266Q69.5312-16.1621 64.0625-16.1621Q60.1562-16.1621 57.8613-18.2861Q55.5664-20.4102 55.5664-23.7305Q55.5664-27.4414 58.0566-29.6387Q60.5469-31.8359 64.1113-32.8125L68.7988-33.9844Q70.6543-34.4727 71.0449-35.0342Q71.4355-35.5957 71.4355-37.207L71.4355-59.5215Q71.4355-61.8164 72.0459-62.5732Q72.6562-63.3301 74.6094-63.7695L89.4531-67.4805Q91.5039-68.0176 92.2363-67.3828Q92.9688-66.748 92.9688-65.1855L92.9688-55.2246Q92.9688-52.9785 92.2852-52.2217Q91.6016-51.4648 89.6973-50.9766Z"/>
  </g>
  <g id="Regular-M" transform="matrix(1 0 0 1 1376.36 1126)">
   <path d="M25-1.31836L121.973-1.31836Q128.271-1.31836 131.396-4.37012Q134.521-7.42188 134.521-13.8672L134.521-69.8242Q134.521-76.2207 131.396-79.2725Q128.271-82.3242 121.973-82.3242L25-82.3242Q18.75-82.3242 15.6006-79.2725Q12.4512-76.2207 12.4512-69.8242L12.4512-13.8672Q12.4512-7.42188 15.6006-4.37012Q18.75-1.31836 25-1.31836ZM48.9258 15.2344L98.0469 15.2344Q99.6582 15.2344 100.83 14.0869Q102.002 12.9395 102.002 11.2793Q102.002 9.66797 100.83 8.49609Q99.6582 7.32422 98.0469 7.32422L48.9258 7.32422Q47.3145 7.32422 46.1426 8.49609Q44.9707 9.66797 44.9707 11.2793Q44.9707 12.9395 46.1426 14.0869Q47.3145 15.2344 48.9258 15.2344ZM88.9648-51.2695L76.9531-48.3887Q76.0742-48.1445 75.708-47.6318Q75.3418-47.1191 75.3418-45.7031L75.3418-28.1738Q75.3418-22.6074 71.9482-19.0674Q68.5547-15.5273 63.0859-15.5273Q59.1797-15.5273 56.9092-17.627Q54.6387-19.7266 54.6387-22.998Q54.6387-26.7578 57.1777-28.9307Q59.7168-31.1035 63.1836-32.0312L67.9199-33.252Q69.873-33.7402 70.2881-34.3506Q70.7031-34.9609 70.7031-36.6699L70.7031-59.7168Q70.7031-62.0117 71.2891-62.7197Q71.875-63.4277 73.7793-63.8672L88.7695-67.627Q90.8203-68.1641 91.4795-67.5537Q92.1387-66.9434 92.1387-65.4785L92.1387-55.4199Q92.1387-53.1738 91.4795-52.4658Q90.8203-51.7578 88.9648-51.2695Z"/>
  </g>
  <g id="Light-M" transform="matrix(1 0 0 1 1081.21 1126)">
   <path d="M23.877-1.61133L119.971-1.61133Q125.684-1.61133 128.54-4.41895Q131.396-7.22656 131.396-13.0371L131.396-69.2871Q131.396-75.0977 128.54-77.9053Q125.684-80.7129 119.971-80.7129L23.877-80.7129Q18.2129-80.7129 15.332-77.9053Q12.4512-75.0977 12.4512-69.2871L12.4512-13.0371Q12.4512-7.22656 15.332-4.41895Q18.2129-1.61133 23.877-1.61133ZM47.9004 13.2812L95.9473 13.2812Q97.168 13.2812 98.0957 12.4023Q99.0234 11.5234 99.0234 10.2051Q99.0234 8.98438 98.0957 8.08105Q97.168 7.17773 95.9473 7.17773L47.9004 7.17773Q46.6309 7.17773 45.7275 8.08105Q44.8242 8.98438 44.8242 10.2051Q44.8242 11.5234 45.7275 12.4023Q46.6309 13.2812 47.9004 13.2812ZM86.2793-50.6836L74.8535-47.9492Q74.0234-47.7051 73.6816-47.2412Q73.3398-46.7773 73.3398-45.4102L73.3398-27.7832Q73.3398-22.5098 70.2393-19.1895Q67.1387-15.8691 61.9629-15.8691Q58.3008-15.8691 56.1768-17.8467Q54.0527-19.8242 54.0527-22.9004Q54.0527-26.4648 56.4209-28.4912Q58.7891-30.5176 62.0605-31.3965L66.6504-32.6172Q68.5059-33.0566 68.8965-33.6426Q69.2871-34.2285 69.2871-35.791L69.2871-58.4961Q69.2871-60.6445 69.8242-61.3281Q70.3613-62.0117 72.168-62.4512L86.084-65.8691Q88.0371-66.3574 88.6475-65.7959Q89.2578-65.2344 89.2578-63.8672L89.2578-54.541Q89.2578-52.4414 88.6475-51.7822Q88.0371-51.123 86.2793-50.6836Z"/>
  </g>
  <g id="Thin-M" transform="matrix(1 0 0 1 786.598 1126)">
   <path d="M22.3633-2.00195L117.285-2.00195Q122.217-2.00195 124.707-4.49219Q127.197-6.98242 127.197-11.9629L127.197-68.6523Q127.197-73.584 124.707-76.0498Q122.217-78.5156 117.285-78.5156L22.3633-78.5156Q17.4316-78.5156 14.9414-76.0498Q12.4512-73.584 12.4512-68.6523L12.4512-11.9629Q12.4512-6.98242 14.9414-4.49219Q17.4316-2.00195 22.3633-2.00195ZM46.4844 10.6445L93.1641 10.6445Q93.9453 10.6445 94.4824 10.1318Q95.0195 9.61914 95.0195 8.83789Q95.0195 8.05664 94.4824 7.54395Q93.9453 7.03125 93.1641 7.03125L46.4844 7.03125Q45.752 7.03125 45.1904 7.54395Q44.6289 8.05664 44.6289 8.83789Q44.6289 9.61914 45.1904 10.1318Q45.752 10.6445 46.4844 10.6445ZM82.7148-49.8047L71.9727-47.3145Q71.2402-47.1191 70.9473-46.7041Q70.6543-46.2891 70.6543-45.0195L70.6543-27.1973Q70.6543-22.4121 67.9199-19.3604Q65.1855-16.3086 60.498-16.3086Q57.1289-16.3086 55.1758-18.1152Q53.2227-19.9219 53.2227-22.8027Q53.2227-25.9766 55.3955-27.832Q57.5684-29.6875 60.5957-30.5176L64.9414-31.6895Q66.6504-32.1777 67.0166-32.666Q67.3828-33.1543 67.3828-34.6191L67.3828-56.8848Q67.3828-58.8379 67.8711-59.4727Q68.3594-60.1074 70.0195-60.498L82.5195-63.4766Q84.3262-63.9648 84.8633-63.4521Q85.4004-62.9395 85.4004-61.6211L85.4004-53.3691Q85.4004-51.4648 84.8633-50.8301Q84.3262-50.1953 82.7148-49.8047Z"/>
  </g>
  <g id="Ultralight-M" transform="matrix(1 0 0 1 490.937 1126)">
   <path d="M21.582-2.24609L115.918-2.24609Q120.459-2.24609 122.778-4.56543Q125.098-6.88477 125.098-11.4258L125.098-68.2617Q125.098-72.8027 122.778-75.1221Q120.459-77.4414 115.918-77.4414L21.582-77.4414Q17.0898-77.4414 14.7705-75.1221Q12.4512-72.8027 12.4512-68.2617L12.4512-11.4258Q12.4512-6.88477 14.7705-4.56543Q17.0898-2.24609 21.582-2.24609ZM45.8008 9.32617L91.748 9.32617Q92.2363 9.32617 92.627 9.00879Q93.0176 8.69141 93.0176 8.10547Q93.0176 7.56836 92.627 7.25098Q92.2363 6.93359 91.748 6.93359L45.8008 6.93359Q45.2637 6.93359 44.8975 7.25098Q44.5312 7.56836 44.5312 8.10547Q44.5312 8.69141 44.8975 9.00879Q45.2637 9.32617 45.8008 9.32617ZM80.9082-49.4141L70.5566-46.9727Q69.873-46.8262 69.6045-46.4355Q69.3359-46.0449 69.3359-44.8242L69.3359-26.9043Q69.3359-22.3145 66.7969-19.4092Q64.2578-16.5039 59.7168-16.5039Q56.543-16.5039 54.6875-18.2617Q52.832-20.0195 52.832-22.7051Q52.832-25.7812 54.8828-27.5391Q56.9336-29.2969 59.8145-30.0781L64.0625-31.25Q65.7227-31.6895 66.0889-32.1777Q66.4551-32.666 66.4551-34.0332L66.4551-56.0547Q66.4551-57.9102 66.8945-58.5205Q67.334-59.1309 68.9453-59.5215L80.7129-62.2559Q82.4219-62.6953 82.959-62.2314Q83.4961-61.7676 83.4961-60.5469L83.4961-52.7832Q83.4961-50.9277 82.959-50.3418Q82.4219-49.7559 80.9082-49.4141Z"/>
  </g>
  <g id="Black-S" transform="matrix(1 0 0 1 2870.9 696)">
   <path d="M23.877-4.83398L101.123-4.83398Q107.812-4.83398 111.523-8.56934Q115.234-12.3047 115.234-18.9453L115.234-64.3066Q115.234-70.9961 111.523-74.707Q107.812-78.418 101.123-78.418L23.877-78.418Q17.2363-78.418 13.501-74.707Q9.76562-70.9961 9.76562-64.3066L9.76562-18.9453Q9.76562-12.3047 13.501-8.56934Q17.2363-4.83398 23.877-4.83398ZM41.3086 10.5469L83.6914 10.5469Q85.9375 10.5469 87.4756 8.93555Q89.0137 7.32422 89.0137 5.27344Q89.0137 3.22266 87.4756 1.61133Q85.9375 0 83.6914 0L41.3086 0Q39.0625 0 37.5244 1.61133Q35.9863 3.22266 35.9863 5.27344Q35.9863 7.32422 37.5244 8.93555Q39.0625 10.5469 41.3086 10.5469ZM72.998-46.3867L64.3555-44.2871Q63.9648-44.1895 63.8428-43.9941Q63.7207-43.7988 63.7207-43.0176L63.7207-32.7637Q63.7207-28.418 61.0107-25.6348Q58.3008-22.8516 54.0039-22.8516Q51.0254-22.8516 49.0967-24.5605Q47.168-26.2695 47.168-28.9551Q47.168-31.6406 48.9258-33.5205Q50.6836-35.4004 53.9062-36.2305L57.2266-37.1094Q58.3496-37.4023 58.5693-37.6221Q58.7891-37.8418 58.7891-38.8672L58.7891-53.2715Q58.7891-55.127 59.3506-55.8594Q59.9121-56.5918 61.5723-56.9824L72.5586-59.7168Q74.2188-60.1074 75.0488-59.5703Q75.8789-59.0332 75.8789-57.4707L75.8789-50.0488Q75.8789-48.291 75.293-47.5342Q74.707-46.7773 72.998-46.3867Z"/>
  </g>
  <g id="Heavy-S" transform="matrix(1 0 0 1 2575.17 696)">
   <path d="M22.998-5.71289L100.049-5.71289Q106.396-5.71289 109.839-9.15527Q113.281-12.5977 113.281-18.9453L113.281-63.916Q113.281-70.2637 109.839-73.7061Q106.396-77.1484 100.049-77.1484L22.998-77.1484Q16.6992-77.1484 13.2324-73.7061Q9.76562-70.2637 9.76562-63.916L9.76562-18.9453Q9.76562-12.5977 13.2324-9.15527Q16.6992-5.71289 22.998-5.71289ZM40.7227 9.32617L82.3242 9.32617Q84.375 9.32617 85.791 7.83691Q87.207 6.34766 87.207 4.44336Q87.207 2.53906 85.791 1.0498Q84.375-0.439453 82.3242-0.439453L40.7227-0.439453Q38.6719-0.439453 37.2559 1.0498Q35.8398 2.53906 35.8398 4.44336Q35.8398 6.34766 37.2559 7.83691Q38.6719 9.32617 40.7227 9.32617ZM72.5098-46.8262L63.623-44.6777Q63.1348-44.5312 62.9883-44.2871Q62.8418-44.043 62.8418-43.1641L62.8418-32.1289Q62.8418-27.7344 60.1074-24.9268Q57.373-22.1191 53.0273-22.1191Q50-22.1191 48.0957-23.8281Q46.1914-25.5371 46.1914-28.2227Q46.1914-31.0059 48.0225-32.8613Q49.8535-34.7168 52.9785-35.498L56.3965-36.4258Q57.6172-36.7188 57.8613-37.0117Q58.1055-37.3047 58.1055-38.4277L58.1055-53.7109Q58.1055-55.5664 58.667-56.25Q59.2285-56.9336 60.8398-57.3242L72.1191-60.1562Q73.8281-60.5469 74.585-60.0342Q75.3418-59.5215 75.3418-58.0566L75.3418-50.3906Q75.3418-48.6328 74.7559-47.9248Q74.1699-47.2168 72.5098-46.8262Z"/>
  </g>
  <g id="Bold-S" transform="matrix(1 0 0 1 2279.55 696)">
   <path d="M22.0215-6.68945L98.877-6.68945Q104.785-6.68945 107.935-9.81445Q111.084-12.9395 111.084-18.8965L111.084-63.4277Q111.084-69.4336 107.935-72.5586Q104.785-75.6836 98.877-75.6836L22.0215-75.6836Q16.1133-75.6836 12.9395-72.5586Q9.76562-69.4336 9.76562-63.4277L9.76562-18.8965Q9.76562-12.9395 12.9395-9.81445Q16.1133-6.68945 22.0215-6.68945ZM40.0879 7.91016L80.7617 7.91016Q82.6172 7.91016 83.9111 6.5918Q85.2051 5.27344 85.2051 3.51562Q85.2051 1.75781 83.9111 0.415039Q82.6172-0.927734 80.7617-0.927734L40.0879-0.927734Q38.2324-0.927734 36.9629 0.415039Q35.6934 1.75781 35.6934 3.51562Q35.6934 5.27344 36.9629 6.5918Q38.2324 7.91016 40.0879 7.91016ZM71.9727-47.3145L62.8418-45.0684Q62.2559-44.9219 62.0605-44.6289Q61.8652-44.3359 61.8652-43.3594L61.8652-31.3965Q61.8652-26.9531 59.1064-24.1211Q56.3477-21.2891 51.9531-21.2891Q48.9258-21.2891 47.0215-22.998Q45.1172-24.707 45.1172-27.3926Q45.1172-30.2734 47.0459-32.0801Q48.9746-33.8867 51.9531-34.668L55.5176-35.5957Q56.8848-35.9375 57.1533-36.3037Q57.4219-36.6699 57.4219-37.8906L57.4219-54.1992Q57.4219-56.0547 57.959-56.6895Q58.4961-57.3242 60.0586-57.7148L71.6797-60.6445Q73.3887-61.0352 74.0723-60.5225Q74.7559-60.0098 74.7559-58.6426L74.7559-50.7812Q74.7559-49.0234 74.1943-48.3398Q73.6328-47.6562 71.9727-47.3145Z"/>
  </g>
  <g id="Semibold-S" transform="matrix(1 0 0 1 1983.6 696)">
   <path d="M21.2891-7.32422L98.0469-7.32422Q103.662-7.32422 106.616-10.2295Q109.57-13.1348 109.57-18.8965L109.57-63.0859Q109.57-68.8477 106.616-71.7773Q103.662-74.707 98.0469-74.707L21.2891-74.707Q15.6738-74.707 12.7197-71.7773Q9.76562-68.8477 9.76562-63.0859L9.76562-18.8965Q9.76562-13.1348 12.7197-10.2295Q15.6738-7.32422 21.2891-7.32422ZM39.6484 6.93359L79.6875 6.93359Q81.3965 6.93359 82.5928 5.71289Q83.7891 4.49219 83.7891 2.88086Q83.7891 1.17188 82.5928-0.0244141Q81.3965-1.2207 79.6875-1.2207L39.6484-1.2207Q37.9395-1.2207 36.7432-0.0244141Q35.5469 1.17188 35.5469 2.88086Q35.5469 4.49219 36.7432 5.71289Q37.9395 6.93359 39.6484 6.93359ZM71.6309-47.6074L62.2559-45.3125Q61.6699-45.166 61.4258-44.8242Q61.1816-44.4824 61.1816-43.4082L61.1816-30.8105Q61.1816-26.3672 58.4229-23.5107Q55.6641-20.6543 51.2207-20.6543Q48.1445-20.6543 46.2646-22.3877Q44.3848-24.1211 44.3848-26.7578Q44.3848-29.6875 46.3623-31.4941Q48.3398-33.3008 51.2695-34.082L54.9316-35.0098Q56.3477-35.3516 56.6162-35.7666Q56.8848-36.1816 56.8848-37.4512L56.8848-54.4922Q56.8848-56.3477 57.4219-56.958Q57.959-57.5684 59.5215-57.959L71.3867-60.9375Q73.0469-61.3281 73.6816-60.8398Q74.3164-60.3516 74.3164-59.0332L74.3164-51.0254Q74.3164-49.2188 73.7793-48.584Q73.2422-47.9492 71.6309-47.6074Z"/>
  </g>
  <g id="Medium-S" transform="matrix(1 0 0 1 1687.45 696)">
   <path d="M20.8008-7.86133L97.4121-7.86133Q102.832-7.86133 105.64-10.5957Q108.447-13.3301 108.447-18.8477L108.447-62.8418Q108.447-68.457 105.64-71.1914Q102.832-73.9258 97.4121-73.9258L20.8008-73.9258Q15.332-73.9258 12.5488-71.1914Q9.76562-68.457 9.76562-62.8418L9.76562-18.8477Q9.76562-13.3301 12.5488-10.5957Q15.332-7.86133 20.8008-7.86133ZM39.3066 6.20117L78.9062 6.20117Q80.4688 6.20117 81.5918 5.05371Q82.7148 3.90625 82.7148 2.39258Q82.7148 0.78125 81.5918-0.341797Q80.4688-1.46484 78.9062-1.46484L39.3066-1.46484Q37.6953-1.46484 36.5723-0.341797Q35.4492 0.78125 35.4492 2.39258Q35.4492 3.90625 36.5723 5.05371Q37.6953 6.20117 39.3066 6.20117ZM71.2891-47.8027L61.8164-45.5078Q61.1328-45.3125 60.9131-44.9463Q60.6934-44.5801 60.6934-43.457L60.6934-30.4199Q60.6934-25.9277 57.8857-23.0469Q55.0781-20.166 50.6348-20.166Q47.5586-20.166 45.6787-21.8994Q43.7988-23.6328 43.7988-26.2695Q43.7988-29.2969 45.8252-31.0791Q47.8516-32.8613 50.6836-33.5938L54.3945-34.5703Q55.9082-34.9609 56.2012-35.4004Q56.4941-35.8398 56.4941-37.1582L56.4941-54.6875Q56.4941-56.543 57.0312-57.1289Q57.5684-57.7148 59.082-58.1055L71.0938-61.1328Q72.8027-61.5723 73.3887-61.084Q73.9746-60.5957 73.9746-59.3262L73.9746-51.1719Q73.9746-49.4141 73.4375-48.7793Q72.9004-48.1445 71.2891-47.8027Z"/>
  </g>
  <g id="Regular-S" transform="matrix(1 0 0 1 1391.49 696)">
   <path d="M20.1172-8.49609L96.582-8.49609Q101.758-8.49609 104.346-11.0107Q106.934-13.5254 106.934-18.8477L106.934-62.5488Q106.934-67.8711 104.346-70.4102Q101.758-72.9492 96.582-72.9492L20.1172-72.9492Q14.9414-72.9492 12.3535-70.4102Q9.76562-67.8711 9.76562-62.5488L9.76562-18.8477Q9.76562-13.5254 12.3535-11.0107Q14.9414-8.49609 20.1172-8.49609ZM38.8672 5.27344L77.832 5.27344Q79.2969 5.27344 80.3223 4.22363Q81.3477 3.17383 81.3477 1.75781Q81.3477 0.244141 80.3223-0.78125Q79.2969-1.80664 77.832-1.80664L38.8672-1.80664Q37.4023-1.80664 36.377-0.78125Q35.3516 0.244141 35.3516 1.75781Q35.3516 3.17383 36.377 4.22363Q37.4023 5.27344 38.8672 5.27344ZM70.9473-48.1445L61.2793-45.8008Q60.5469-45.6055 60.2783-45.1904Q60.0098-44.7754 60.0098-43.6035L60.0098-29.9316Q60.0098-25.3906 57.2021-22.5098Q54.3945-19.6289 49.9023-19.6289Q46.7773-19.6289 44.9219-21.3623Q43.0664-23.0957 43.0664-25.7324Q43.0664-28.8086 45.1416-30.5664Q47.2168-32.3242 50-33.0566L53.8086-34.0332Q55.3711-34.4238 55.6885-34.9121Q56.0059-35.4004 56.0059-36.8164L56.0059-55.0293Q56.0059-56.8848 56.5186-57.4463Q57.0312-58.0078 58.5449-58.3984L70.8008-61.4746Q72.5098-61.9141 73.0469-61.4258Q73.584-60.9375 73.584-59.7656L73.584-51.4648Q73.584-49.6582 73.0469-49.0723Q72.5098-48.4863 70.9473-48.1445Z"/>
  </g>
  <g id="Light-S" transform="matrix(1 0 0 1 1096.18 696)">
   <path d="M19.1406-8.78906L94.7754-8.78906Q99.4629-8.78906 101.807-11.084Q104.15-13.3789 104.15-18.1152L104.15-62.1094Q104.15-66.8945 101.807-69.1895Q99.4629-71.4844 94.7754-71.4844L19.1406-71.4844Q14.4531-71.4844 12.1094-69.1895Q9.76562-66.8945 9.76562-62.1094L9.76562-18.1152Q9.76562-13.3789 12.1094-11.084Q14.4531-8.78906 19.1406-8.78906ZM37.9395 3.51562L75.9766 3.51562Q77.0996 3.51562 77.9053 2.70996Q78.7109 1.9043 78.7109 0.830078Q78.7109-0.341797 77.9053-1.12305Q77.0996-1.9043 75.9766-1.9043L37.9395-1.9043Q36.8164-1.9043 36.0107-1.12305Q35.2051-0.341797 35.2051 0.830078Q35.2051 1.9043 36.0107 2.70996Q36.8164 3.51562 37.9395 3.51562ZM68.5547-47.5586L59.375-45.3613Q58.7402-45.2148 58.4717-44.8242Q58.2031-44.4336 58.2031-43.3594L58.2031-29.541Q58.2031-25.293 55.6641-22.6074Q53.125-19.9219 48.9258-19.9219Q45.9961-19.9219 44.2627-21.5332Q42.5293-23.1445 42.5293-25.6348Q42.5293-28.5156 44.458-30.1514Q46.3867-31.7871 49.0234-32.4707L52.6855-33.4473Q54.1504-33.7891 54.4434-34.2529Q54.7363-34.7168 54.7363-36.0352L54.7363-53.9062Q54.7363-55.6641 55.2002-56.2012Q55.6641-56.7383 57.1289-57.0801L68.4082-59.9121Q70.0195-60.3027 70.5078-59.8389Q70.9961-59.375 70.9961-58.3008L70.9961-50.6836Q70.9961-48.9746 70.5078-48.4375Q70.0195-47.9004 68.5547-47.5586Z"/>
  </g>
  <g id="Thin-S" transform="matrix(1 0 0 1 801.295 696)">
   <path d="M17.8223-9.13086L92.3828-9.13086Q96.4355-9.13086 98.4619-11.1328Q100.488-13.1348 100.488-17.1875L100.488-61.4746Q100.488-65.5273 98.4619-67.5537Q96.4355-69.5801 92.3828-69.5801L17.8223-69.5801Q13.8184-69.5801 11.792-67.5537Q9.76562-65.5273 9.76562-61.4746L9.76562-17.1875Q9.76562-13.1348 11.792-11.1328Q13.8184-9.13086 17.8223-9.13086ZM36.7188 1.17188L73.4863 1.17188Q74.2188 1.17188 74.707 0.708008Q75.1953 0.244141 75.1953-0.439453Q75.1953-1.17188 74.707-1.63574Q74.2188-2.09961 73.4863-2.09961L36.7188-2.09961Q35.9863-2.09961 35.5225-1.63574Q35.0586-1.17188 35.0586-0.439453Q35.0586 0.244141 35.5225 0.708008Q35.9863 1.17188 36.7188 1.17188ZM65.4297-46.8262L56.9336-44.7754Q56.3477-44.6777 56.1035-44.3359Q55.8594-43.9941 55.8594-42.9688L55.8594-29.0039Q55.8594-25.1953 53.6621-22.7539Q51.4648-20.3125 47.6074-20.3125Q44.9707-20.3125 43.4082-21.7773Q41.8457-23.2422 41.8457-25.5371Q41.8457-28.0762 43.5791-29.541Q45.3125-31.0059 47.7051-31.6895L51.1719-32.6172Q52.5391-33.0078 52.832-33.3984Q53.125-33.7891 53.125-35.0098L53.125-52.4902Q53.125-54.0527 53.5156-54.5654Q53.9062-55.0781 55.2734-55.3711L65.2832-57.8125Q66.748-58.1543 67.2119-57.7637Q67.6758-57.373 67.6758-56.3477L67.6758-49.6582Q67.6758-48.0957 67.2119-47.6074Q66.748-47.1191 65.4297-46.8262Z"/>
  </g>
  <g id="Ultralight-S" transform="matrix(1 0 0 1 505.536 696)">
   <path d="M17.1875-9.32617L91.1621-9.32617Q94.873-9.32617 96.7285-11.1816Q98.584-13.0371 98.584-16.6992L98.584-61.1816Q98.584-64.8926 96.7285-66.748Q94.873-68.6035 91.1621-68.6035L17.1875-68.6035Q13.4766-68.6035 11.6211-66.748Q9.76562-64.8926 9.76562-61.1816L9.76562-16.6992Q9.76562-13.0371 11.6211-11.1816Q13.4766-9.32617 17.1875-9.32617ZM36.084 0L72.2656 0Q72.7539 0 73.0713-0.292969Q73.3887-0.585938 73.3887-1.07422Q73.3887-1.5625 73.0713-1.85547Q72.7539-2.14844 72.2656-2.14844L36.084-2.14844Q35.5957-2.14844 35.2783-1.85547Q34.9609-1.5625 34.9609-1.07422Q34.9609-0.585938 35.2783-0.292969Q35.5957 0 36.084 0ZM63.8184-46.4355L55.6152-44.4824Q55.0781-44.3848 54.8584-44.0674Q54.6387-43.75 54.6387-42.8223L54.6387-28.7598Q54.6387-25.1465 52.5879-22.8271Q50.5371-20.5078 46.9238-20.5078Q44.4336-20.5078 42.9443-21.8994Q41.4551-23.291 41.4551-25.4883Q41.4551-27.8809 43.0908-29.2725Q44.7266-30.6641 47.0215-31.2988L50.3906-32.2266Q51.6602-32.5684 51.9531-32.9346Q52.2461-33.3008 52.2461-34.4727L52.2461-51.709Q52.2461-53.2715 52.6123-53.7354Q52.9785-54.1992 54.248-54.4922L63.6719-56.7871Q65.0391-57.0801 65.4541-56.6895Q65.8691-56.2988 65.8691-55.3711L65.8691-49.1699Q65.8691-47.6562 65.4541-47.1924Q65.0391-46.7285 63.8184-46.4355Z"/>
  </g>
 </g>
</svg>
