<?xml version="1.0" encoding="UTF-8"?>
<!--Generator: Apple Native CoreSVG 149-->
<!DOCTYPE svg
PUBLIC "-//W3C//DTD SVG 1.1//EN"
       "http://www.w3.org/Graphics/SVG/1.1/DTD/svg11.dtd">
<svg version="1.1" xmlns="http://www.w3.org/2000/svg" xmlns:xlink="http://www.w3.org/1999/xlink" width="3300" height="2200">
 <!--glyph: "uni100392.medium", point size: 100.000000, font version: "Version 16.0d18e1", template writer version: "8"-->
 <g id="Notes">
  <rect height="2200" id="artboard" style="fill:white;opacity:1" width="3300" x="0" y="0"/>
  <line id="" style="fill:none;stroke:black;opacity:1;stroke-width:0.5;" x1="263" x2="3036" y1="292" y2="292"/>
  <text style="stroke:none;fill:black;font-family:-apple-system,&quot;SF Pro Display&quot;,&quot;SF Pro Text&quot;,Helvetica,sans-serif;font-weight:bold;" transform="matrix(1 0 0 1 263 322)">Weight/Scale Variations</text>
  <text style="stroke:none;fill:black;font-family:-apple-system,&quot;SF Pro Display&quot;,&quot;SF Pro Text&quot;,Helvetica,sans-serif;text-anchor:middle;" transform="matrix(1 0 0 1 559.711 322)">Ultralight</text>
  <text style="stroke:none;fill:black;font-family:-apple-system,&quot;SF Pro Display&quot;,&quot;SF Pro Text&quot;,Helvetica,sans-serif;text-anchor:middle;" transform="matrix(1 0 0 1 856.422 322)">Thin</text>
  <text style="stroke:none;fill:black;font-family:-apple-system,&quot;SF Pro Display&quot;,&quot;SF Pro Text&quot;,Helvetica,sans-serif;text-anchor:middle;" transform="matrix(1 0 0 1 1153.13 322)">Light</text>
  <text style="stroke:none;fill:black;font-family:-apple-system,&quot;SF Pro Display&quot;,&quot;SF Pro Text&quot;,Helvetica,sans-serif;text-anchor:middle;" transform="matrix(1 0 0 1 1449.84 322)">Regular</text>
  <text style="stroke:none;fill:black;font-family:-apple-system,&quot;SF Pro Display&quot;,&quot;SF Pro Text&quot;,Helvetica,sans-serif;text-anchor:middle;" transform="matrix(1 0 0 1 1746.56 322)">Medium</text>
  <text style="stroke:none;fill:black;font-family:-apple-system,&quot;SF Pro Display&quot;,&quot;SF Pro Text&quot;,Helvetica,sans-serif;text-anchor:middle;" transform="matrix(1 0 0 1 2043.27 322)">Semibold</text>
  <text style="stroke:none;fill:black;font-family:-apple-system,&quot;SF Pro Display&quot;,&quot;SF Pro Text&quot;,Helvetica,sans-serif;text-anchor:middle;" transform="matrix(1 0 0 1 2339.98 322)">Bold</text>
  <text style="stroke:none;fill:black;font-family:-apple-system,&quot;SF Pro Display&quot;,&quot;SF Pro Text&quot;,Helvetica,sans-serif;text-anchor:middle;" transform="matrix(1 0 0 1 2636.69 322)">Heavy</text>
  <text style="stroke:none;fill:black;font-family:-apple-system,&quot;SF Pro Display&quot;,&quot;SF Pro Text&quot;,Helvetica,sans-serif;text-anchor:middle;" transform="matrix(1 0 0 1 2933.4 322)">Black</text>
  <line id="" style="fill:none;stroke:black;opacity:1;stroke-width:0.5;" x1="263" x2="3036" y1="1903" y2="1903"/>
  <g id="" transform="matrix(1 0 0 1 263 1933)">
   <path d="M9.24805 0.830078C13.5547 0.830078 17.1387-2.74414 17.1387-7.05078C17.1387-11.3574 13.5449-14.9316 9.23828-14.9316C4.94141-14.9316 1.36719-11.3574 1.36719-7.05078C1.36719-2.74414 4.95117 0.830078 9.24805 0.830078ZM9.24805-0.654297C5.70312-0.654297 2.87109-3.49609 2.87109-7.05078C2.87109-10.6055 5.69336-13.4473 9.23828-13.4473C12.793-13.4473 15.6348-10.6055 15.6445-7.05078C15.6543-3.49609 12.8027-0.654297 9.24805-0.654297ZM6.39648-6.31836L8.50586-6.31836L8.50586-4.19922C8.50586-3.75977 8.79883-3.45703 9.22852-3.45703C9.67773-3.45703 9.9707-3.75977 9.9707-4.19922L9.9707-6.31836L12.0996-6.31836C12.5391-6.31836 12.8418-6.61133 12.8418-7.04102C12.8418-7.48047 12.5391-7.7832 12.0996-7.7832L9.9707-7.7832L9.9707-9.89258C9.9707-10.3418 9.67773-10.6445 9.22852-10.6445C8.79883-10.6445 8.50586-10.3418 8.50586-9.89258L8.50586-7.7832L6.39648-7.7832C5.94727-7.7832 5.64453-7.48047 5.64453-7.04102C5.64453-6.61133 5.94727-6.31836 6.39648-6.31836Z"/>
  </g>
  <g id="" transform="matrix(1 0 0 1 281.506 1933)">
   <path d="M11.709 2.91016C17.1582 2.91016 21.6699-1.61133 21.6699-7.05078C21.6699-12.5 17.1484-17.0117 11.6992-17.0117C6.25977-17.0117 1.74805-12.5 1.74805-7.05078C1.74805-1.61133 6.26953 2.91016 11.709 2.91016ZM11.709 1.25C7.09961 1.25 3.41797-2.44141 3.41797-7.05078C3.41797-11.6602 7.08984-15.3516 11.6992-15.3516C16.3086-15.3516 20-11.6602 20.0098-7.05078C20.0195-2.44141 16.3184 1.25 11.709 1.25ZM7.98828-6.23047L10.8789-6.23047L10.8789-3.32031C10.8789-2.83203 11.2109-2.5 11.6895-2.5C12.1777-2.5 12.5195-2.83203 12.5195-3.32031L12.5195-6.23047L15.4297-6.23047C15.918-6.23047 16.25-6.5625 16.25-7.04102C16.25-7.5293 15.918-7.87109 15.4297-7.87109L12.5195-7.87109L12.5195-10.7617C12.5195-11.2695 12.1777-11.6016 11.6895-11.6016C11.2109-11.6016 10.8789-11.2598 10.8789-10.7617L10.8789-7.87109L7.98828-7.87109C7.48047-7.87109 7.14844-7.5293 7.14844-7.04102C7.14844-6.5625 7.49023-6.23047 7.98828-6.23047Z"/>
  </g>
  <g id="" transform="matrix(1 0 0 1 304.924 1933)">
   <path d="M14.9707 5.66406C21.9336 5.66406 27.6953-0.0976562 27.6953-7.05078C27.6953-14.0137 21.9238-19.7754 14.9609-19.7754C8.00781-19.7754 2.25586-14.0137 2.25586-7.05078C2.25586-0.0976562 8.01758 5.66406 14.9707 5.66406ZM14.9707 3.84766C8.93555 3.84766 4.08203-1.01562 4.08203-7.05078C4.08203-13.0957 8.92578-17.9492 14.9609-17.9492C21.0059-17.9492 25.8594-13.0957 25.8691-7.05078C25.8789-1.01562 21.0156 3.84766 14.9707 3.84766ZM10.0586-6.14258L14.0625-6.14258L14.0625-2.12891C14.0625-1.5918 14.4336-1.2207 14.9512-1.2207C15.4883-1.2207 15.8594-1.5918 15.8594-2.12891L15.8594-6.14258L19.8828-6.14258C20.4102-6.14258 20.791-6.51367 20.791-7.03125C20.791-7.56836 20.4199-7.94922 19.8828-7.94922L15.8594-7.94922L15.8594-11.9531C15.8594-12.5098 15.4883-12.8809 14.9512-12.8809C14.4336-12.8809 14.0625-12.5 14.0625-11.9531L14.0625-7.94922L10.0586-7.94922C9.50195-7.94922 9.13086-7.56836 9.13086-7.03125C9.13086-6.51367 9.51172-6.14258 10.0586-6.14258Z"/>
  </g>
  <text style="stroke:none;fill:black;font-family:-apple-system,&quot;SF Pro Display&quot;,&quot;SF Pro Text&quot;,Helvetica,sans-serif;font-weight:bold;" transform="matrix(1 0 0 1 263 1953)">Design Variations</text>
  <text style="stroke:none;fill:black;font-family:-apple-system,&quot;SF Pro Display&quot;,&quot;SF Pro Text&quot;,Helvetica,sans-serif;" transform="matrix(1 0 0 1 263 1971)">Symbols are supported in up to nine weights and three scales.</text>
  <text style="stroke:none;fill:black;font-family:-apple-system,&quot;SF Pro Display&quot;,&quot;SF Pro Text&quot;,Helvetica,sans-serif;" transform="matrix(1 0 0 1 263 1989)">For optimal layout with text and other symbols, vertically align</text>
  <text style="stroke:none;fill:black;font-family:-apple-system,&quot;SF Pro Display&quot;,&quot;SF Pro Text&quot;,Helvetica,sans-serif;" transform="matrix(1 0 0 1 263 2007)">symbols with the adjacent text.</text>
  <line id="" style="fill:none;stroke:#00AEEF;stroke-width:0.5;opacity:1.0;" x1="776" x2="776" y1="1919" y2="1933"/>
  <g id="" transform="matrix(1 0 0 1 776 1933)">
   <path d="M3.31055 0.126953C3.82812 0.126953 4.08203-0.0683594 4.26758-0.605469L5.52734-4.0625L11.2891-4.0625L12.5488-0.605469C12.7344-0.0683594 12.9883 0.126953 13.4961 0.126953C14.0137 0.126953 14.3457-0.185547 14.3457-0.673828C14.3457-0.839844 14.3164-0.986328 14.2383-1.20117L9.6582-13.3887C9.43359-13.9941 9.0332-14.2871 8.4082-14.2871C7.80273-14.2871 7.39258-13.9941 7.17773-13.3984L2.59766-1.19141C2.51953-0.976562 2.49023-0.830078 2.49023-0.664062C2.49023-0.175781 2.80273 0.126953 3.31055 0.126953ZM6.00586-5.53711L8.37891-12.1094L8.42773-12.1094L10.8008-5.53711Z"/>
  </g>
  <line id="" style="fill:none;stroke:#00AEEF;stroke-width:0.5;opacity:1.0;" x1="792.836" x2="792.836" y1="1919" y2="1933"/>
  <text style="stroke:none;fill:black;font-family:-apple-system,&quot;SF Pro Display&quot;,&quot;SF Pro Text&quot;,Helvetica,sans-serif;font-weight:bold;" transform="matrix(1 0 0 1 776 1953)">Margins</text>
  <text style="stroke:none;fill:black;font-family:-apple-system,&quot;SF Pro Display&quot;,&quot;SF Pro Text&quot;,Helvetica,sans-serif;" transform="matrix(1 0 0 1 776 1971)">Leading and trailing margins on the left and right side of each symbol</text>
  <text style="stroke:none;fill:black;font-family:-apple-system,&quot;SF Pro Display&quot;,&quot;SF Pro Text&quot;,Helvetica,sans-serif;" transform="matrix(1 0 0 1 776 1989)">can be adjusted by modifying the x-location of the margin guidelines.</text>
  <text style="stroke:none;fill:black;font-family:-apple-system,&quot;SF Pro Display&quot;,&quot;SF Pro Text&quot;,Helvetica,sans-serif;" transform="matrix(1 0 0 1 776 2007)">Modifications are automatically applied proportionally to all</text>
  <text style="stroke:none;fill:black;font-family:-apple-system,&quot;SF Pro Display&quot;,&quot;SF Pro Text&quot;,Helvetica,sans-serif;" transform="matrix(1 0 0 1 776 2025)">scales and weights.</text>
  <g id="" transform="matrix(1 0 0 1 1289 1933)">
   <path d="M2.8418 1.86523L4.54102 3.57422C5.40039 4.44336 6.38672 4.38477 7.31445 3.35938L17.4902-7.85156C17.7539-7.76367 18.0273-7.7832 18.3398-7.8418L19.4043-8.03711L20.0684-7.36328L20.0293-6.80664C19.9902-6.30859 20.1172-5.92773 20.6055-5.44922L21.3672-4.70703C21.8457-4.22852 22.4609-4.19922 22.9297-4.66797L25.8398-7.58789C26.3086-8.05664 26.2891-8.65234 25.8105-9.13086L25.0391-9.89258C24.5605-10.3711 24.1895-10.5273 23.7109-10.4883L23.1348-10.4395L22.4902-11.0742L22.7344-12.1973C22.8613-12.7637 22.7051-13.2031 22.1191-13.7891L19.9219-15.9766C16.582-19.2969 12.1484-19.2188 9.25781-16.3281C8.83789-15.918 8.80859-15.3418 9.04297-14.9512C9.27734-14.5898 9.73633-14.3555 10.3809-14.5215C11.8457-14.8633 13.3691-14.9219 14.7949-13.9844L14.209-12.5293C14.0137-12.0508 13.9844-11.6504 14.1113-11.2891L3.04688-0.898438C2.06055 0.0195312 1.98242 0.996094 2.8418 1.86523ZM10.752-15.957C13.1836-17.7344 16.4746-17.4316 18.7012-15.2051L21.1328-12.793C21.3672-12.5586 21.4062-12.373 21.3379-12.0312L21.0156-10.5469L22.5195-9.0625L23.5059-9.12109C23.7598-9.13086 23.8379-9.11133 24.0332-8.91602L24.6094-8.33984L22.168-5.89844L21.5918-6.47461C21.3965-6.66992 21.3672-6.74805 21.377-7.01172L21.4453-7.98828L19.9512-9.47266L18.4277-9.21875C18.1055-9.15039 17.959-9.17969 17.7148-9.41406L15.7129-11.416C15.459-11.6504 15.4297-11.8164 15.5859-12.1875L16.4648-14.2773C14.9023-15.7324 12.8711-16.3574 10.8398-15.7617C10.6836-15.7227 10.625-15.8496 10.752-15.957ZM5.27344 2.30469L4.10156 1.14258C3.63281 0.683594 3.74023 0.341797 4.14062-0.0195312L14.9512-10.1953L16.416-8.71094L6.42578 2.27539C6.07422 2.67578 5.74219 2.77344 5.27344 2.30469Z"/>
  </g>
  <text style="stroke:none;fill:black;font-family:-apple-system,&quot;SF Pro Display&quot;,&quot;SF Pro Text&quot;,Helvetica,sans-serif;font-weight:bold;" transform="matrix(1 0 0 1 1289 1953)">Exporting</text>
  <text style="stroke:none;fill:black;font-family:-apple-system,&quot;SF Pro Display&quot;,&quot;SF Pro Text&quot;,Helvetica,sans-serif;" transform="matrix(1 0 0 1 1289 1971)">Symbols should be outlined when exporting to ensure the</text>
  <text style="stroke:none;fill:black;font-family:-apple-system,&quot;SF Pro Display&quot;,&quot;SF Pro Text&quot;,Helvetica,sans-serif;" transform="matrix(1 0 0 1 1289 1989)">design is preserved when submitting to Xcode.</text>
  <text id="template-version" style="stroke:none;fill:black;font-family:-apple-system,&quot;SF Pro Display&quot;,&quot;SF Pro Text&quot;,Helvetica,sans-serif;text-anchor:end;" transform="matrix(1 0 0 1 3036 1933)">Template v.2.0</text>
  <text style="stroke:none;fill:black;font-family:-apple-system,&quot;SF Pro Display&quot;,&quot;SF Pro Text&quot;,Helvetica,sans-serif;text-anchor:end;" transform="matrix(1 0 0 1 3036 1951)">Requires Xcode 12 or greater</text>
  <text style="stroke:none;fill:black;font-family:-apple-system,&quot;SF Pro Display&quot;,&quot;SF Pro Text&quot;,Helvetica,sans-serif;text-anchor:end;" transform="matrix(1 0 0 1 3036 1969)">Generated from paintbrush.fill</text>
  <text style="stroke:none;fill:black;font-family:-apple-system,&quot;SF Pro Display&quot;,&quot;SF Pro Text&quot;,Helvetica,sans-serif;text-anchor:end;" transform="matrix(1 0 0 1 3036 1987)">Typeset at 100 points</text>
  <text style="stroke:none;fill:black;font-family:-apple-system,&quot;SF Pro Display&quot;,&quot;SF Pro Text&quot;,Helvetica,sans-serif;" transform="matrix(1 0 0 1 263 726)">Small</text>
  <text style="stroke:none;fill:black;font-family:-apple-system,&quot;SF Pro Display&quot;,&quot;SF Pro Text&quot;,Helvetica,sans-serif;" transform="matrix(1 0 0 1 263 1156)">Medium</text>
  <text style="stroke:none;fill:black;font-family:-apple-system,&quot;SF Pro Display&quot;,&quot;SF Pro Text&quot;,Helvetica,sans-serif;" transform="matrix(1 0 0 1 263 1586)">Large</text>
 </g>
 <g id="Guides">
  <g id="H-reference" style="fill:#27AAE1;stroke:none;" transform="matrix(1 0 0 1 339 696)">
   <path d="M0.976562 0L3.66211 0L12.9883-24.4629L45.752-24.4629L55.127 0L57.7637 0L30.6152-70.459L28.125-70.459ZM29.3457-67.1387L29.4434-67.1387L44.873-26.709L13.8672-26.709Z"/>
  </g>
  <line id="Baseline-S" style="fill:none;stroke:#27AAE1;opacity:1;stroke-width:0.5;" x1="263" x2="3036" y1="696" y2="696"/>
  <line id="Capline-S" style="fill:none;stroke:#27AAE1;opacity:1;stroke-width:0.5;" x1="263" x2="3036" y1="625.541" y2="625.541"/>
  <g id="H-reference" style="fill:#27AAE1;stroke:none;" transform="matrix(1 0 0 1 339 1126)">
   <path d="M0.976562 0L3.66211 0L12.9883-24.4629L45.752-24.4629L55.127 0L57.7637 0L30.6152-70.459L28.125-70.459ZM29.3457-67.1387L29.4434-67.1387L44.873-26.709L13.8672-26.709Z"/>
  </g>
  <line id="Baseline-M" style="fill:none;stroke:#27AAE1;opacity:1;stroke-width:0.5;" x1="263" x2="3036" y1="1126" y2="1126"/>
  <line id="Capline-M" style="fill:none;stroke:#27AAE1;opacity:1;stroke-width:0.5;" x1="263" x2="3036" y1="1055.54" y2="1055.54"/>
  <g id="H-reference" style="fill:#27AAE1;stroke:none;" transform="matrix(1 0 0 1 339 1556)">
   <path d="M0.976562 0L3.66211 0L12.9883-24.4629L45.752-24.4629L55.127 0L57.7637 0L30.6152-70.459L28.125-70.459ZM29.3457-67.1387L29.4434-67.1387L44.873-26.709L13.8672-26.709Z"/>
  </g>
  <line id="Baseline-L" style="fill:none;stroke:#27AAE1;opacity:1;stroke-width:0.5;" x1="263" x2="3036" y1="1556" y2="1556"/>
  <line id="Capline-L" style="fill:none;stroke:#27AAE1;opacity:1;stroke-width:0.5;" x1="263" x2="3036" y1="1485.54" y2="1485.54"/>
  <line id="left-margin" style="fill:none;stroke:#00AEEF;stroke-width:0.5;opacity:1.0;" x1="1387.1" x2="1387.1" y1="1030.79" y2="1150.12"/>
  <line id="right-margin" style="fill:none;stroke:#00AEEF;stroke-width:0.5;opacity:1.0;" x1="1512.59" x2="1512.59" y1="1030.79" y2="1150.12"/>
 </g>
 <g id="Symbols">
  <g id="Black-L" transform="matrix(1 0 0 1 2848.83 1556)">
   <path d="M124.316-6.88477L148.584-31.0547C156.885-39.3066 156.641-49.3164 148.193-58.0078L143.652-62.6465C137.109-54.4922 118.604-44.2871 115.234-47.6562C114.648-48.2422 114.502-49.3164 115.332-50.1465C122.607-57.373 128.223-65.2832 129.443-76.8066L96.9238-109.326C88.8672-117.432 76.3184-113.135 72.5098-100.195C67.7734-84.1797 64.2578-74.2188 62.6465-68.6035ZM22.9492 34.8633C33.9844 46.0938 48.7305 46.1426 59.668 35.2051C66.0156 28.8574 72.4609 15.7715 77.4414 6.68945L90.0879 19.3848C96.1426 25.4883 103.662 25.5859 109.521 19.6289L114.502 14.5508C120.508 8.49609 120.361 1.31836 114.258-4.78516L62.5488-56.4453C56.4453-62.5 49.1699-62.7441 43.1152-56.6895L38.1836-51.7578C32.2266-45.752 32.2754-38.2812 38.3789-32.2754L51.0254-19.6777C42.041-14.6484 29.0039-8.25195 22.6074-1.9043C11.6211 9.13086 11.7676 23.8281 22.9492 34.8633ZM41.6504 23.4375C37.8418 23.4375 34.7168 20.3125 34.7168 16.5039C34.7168 12.7441 37.8418 9.57031 41.6504 9.57031C45.459 9.57031 48.584 12.7441 48.584 16.5039C48.584 20.3125 45.459 23.4375 41.6504 23.4375Z"/>
  </g>
  <g id="Heavy-L" transform="matrix(1 0 0 1 2553.19 1556)">
   <path d="M122.461-7.61719L146.729-31.8359C154.639-39.7461 154.443-49.3164 146.387-57.5684L142.041-61.9629C135.547-53.8086 117.041-43.6523 113.623-47.1191C113.037-47.6562 112.939-48.7793 113.77-49.6094C121.094-56.9336 126.514-64.6484 127.686-76.2695L95.4102-108.594C87.8418-116.113 75.9766-112.402 72.4121-100C67.9199-83.8867 64.4531-74.0723 62.207-67.9199ZM22.6562 33.9844C33.3984 44.8242 47.5098 44.873 58.1055 34.2773C64.8926 27.4902 71.582 13.1836 76.8066 4.24805L90.1367 17.627C95.8008 23.3398 102.783 23.3887 108.203 17.8223L113.379 12.5977C118.945 6.98242 118.848 0.292969 113.184-5.37109L61.9629-56.543C56.25-62.1582 49.5117-62.3535 43.8965-56.7383L38.7695-51.6113C33.252-46.0938 33.252-39.1602 38.9648-33.4961L52.2949-20.2148C43.457-14.9902 29.1504-8.30078 22.3633-1.51367C11.7188 9.13086 11.8164 23.2422 22.6562 33.9844ZM40.7227 23.4375C36.8164 23.4375 33.5938 20.2148 33.5938 16.3086C33.5938 12.4512 36.8164 9.22852 40.7227 9.22852C44.6289 9.22852 47.8027 12.4512 47.8027 16.3086C47.8027 20.2148 44.6289 23.4375 40.7227 23.4375Z"/>
  </g>
  <g id="Bold-L" transform="matrix(1 0 0 1 2257.68 1556)">
   <path d="M120.361-8.49609L144.629-32.7637C152.148-40.2344 151.953-49.2676 144.336-57.0801L140.234-61.2305C133.838-52.9785 115.332-42.9688 111.816-46.4355C111.279-47.0215 111.133-48.1445 112.012-48.9746C119.434-56.3965 124.561-63.916 125.684-75.7324L93.7012-107.764C86.7676-114.697 75.5859-111.621 72.3633-99.8047C68.0176-83.5938 64.5996-73.9258 61.6699-67.1387ZM22.3633 32.959C32.666 43.3594 46.1426 43.457 56.3965 33.252C63.623 25.9766 70.6055 10.3027 76.123 1.51367L90.2344 15.6738C95.4102 20.8984 101.807 20.9473 106.787 15.8691L112.109 10.4492C117.236 5.27344 117.139-0.830078 111.914-6.00586L61.2793-56.6406C56.0547-61.8164 49.9023-61.9629 44.7754-56.8359L39.4531-51.5137C34.375-46.4355 34.375-40.1367 39.5996-34.9121L53.7109-20.8496C44.9707-15.332 29.3457-8.34961 22.0703-1.12305C11.8164 9.13086 11.9141 22.6074 22.3633 32.959ZM39.6484 23.3398C35.6445 23.3398 32.373 20.1172 32.373 16.1133C32.373 12.1094 35.6445 8.83789 39.6484 8.83789C43.6523 8.83789 46.875 12.1094 46.875 16.1133C46.875 20.1172 43.6523 23.3398 39.6484 23.3398Z"/>
  </g>
  <g id="Semibold-L" transform="matrix(1 0 0 1 1961.77 1556)">
   <path d="M118.896-9.08203L143.213-33.3496C150.439-40.5273 150.244-49.2676 142.92-56.7383L138.965-60.7422C132.617-52.4414 114.111-42.4805 110.596-45.9961C110.01-46.582 109.912-47.7051 110.791-48.5352C118.262-56.0059 123.242-63.3789 124.316-75.3418L92.5293-107.178C85.9863-113.721 75.293-111.035 72.2656-99.6582C68.1152-83.3984 64.6973-73.8281 61.3281-66.6016ZM22.1191 32.2754C32.2266 42.3828 45.2148 42.4805 55.1758 32.5195C62.7441 24.9512 69.9707 8.34961 75.6348-0.341797L90.2832 14.3066C95.166 19.1895 101.123 19.2383 105.762 14.4531L111.279 8.93555C116.064 4.10156 115.967-1.5625 111.084-6.49414L60.8398-56.6895C55.9082-61.5723 50.1953-61.6699 45.3613-56.8848L39.9414-51.416C35.1562-46.6797 35.1562-40.7715 40.0391-35.8887L54.6875-21.2891C46.0449-15.5762 29.4434-8.39844 21.875-0.830078C11.9141 9.17969 12.0117 22.168 22.1191 32.2754ZM38.916 23.3398C34.8633 23.3398 31.543 20.0195 31.543 15.9668C31.543 11.9141 34.8633 8.59375 38.916 8.59375C43.0176 8.59375 46.2891 11.9141 46.2891 15.9668C46.2891 20.0195 43.0176 23.3398 38.916 23.3398Z"/>
  </g>
  <g id="Medium-L" transform="matrix(1 0 0 1 1665.7 1556)">
   <path d="M117.822-9.52148L142.139-33.8379C149.121-40.8203 148.926-49.2676 141.846-56.4941L138.037-60.3516C131.738-52.002 113.184-42.1387 109.668-45.6543C109.082-46.2402 108.984-47.3633 109.863-48.1934C117.383-55.7617 122.217-63.0371 123.291-75.0488L91.6504-106.738C85.4004-112.988 75.0488-110.645 72.2656-99.5605C68.2129-83.2031 64.7949-73.7793 61.0352-66.2109ZM21.9727 31.7383C31.8359 41.6504 44.5312 41.748 54.248 31.9824C62.1094 24.1699 69.4336 6.83594 75.293-1.80664L90.332 13.2812C94.9219 17.9199 100.586 17.9199 105.029 13.4277L110.596 7.8125C115.137 3.17383 115.088-2.14844 110.449-6.83594L60.498-56.7383C55.8105-61.4258 50.3906-61.4746 45.8496-56.8848L40.2832-51.3672C35.7422-46.8262 35.7422-41.2598 40.3809-36.6211L55.4199-21.6309C46.875-15.7715 29.541-8.39844 21.6797-0.585938C11.9629 9.17969 12.0605 21.8262 21.9727 31.7383ZM38.3789 23.291C34.2773 23.291 30.9082 19.9707 30.9082 15.8203C30.9082 11.7188 34.2773 8.39844 38.3789 8.39844C42.4805 8.39844 45.8008 11.7188 45.8008 15.8203C45.8008 19.9707 42.4805 23.291 38.3789 23.291Z"/>
  </g>
  <g id="Regular-L" transform="matrix(1 0 0 1 1369.79 1556)">
   <path d="M116.357-10.1074L140.674-34.4238C147.412-41.1133 147.266-49.2188 140.43-56.1523L136.816-59.8145C130.518-51.4648 112.012-41.6504 108.447-45.2148C107.861-45.8008 107.812-46.9238 108.643-47.8027C116.211-55.3711 120.898-62.5 121.924-74.6582L90.4785-106.152C84.6191-112.012 74.8047-110.059 72.168-99.4141C68.2617-83.0078 64.8926-73.6816 60.6934-65.7227ZM21.7773 31.0059C31.3965 40.6738 43.6035 40.7715 53.0762 31.2988C61.2305 23.1445 68.7988 4.88281 74.8535-3.66211L90.3809 11.9629C94.6777 16.2598 99.9023 16.2598 104.053 12.0605L109.766 6.29883C113.965 2.05078 113.916-2.92969 109.619-7.27539L60.0586-56.7871C55.6641-61.1816 50.6348-61.1816 46.4355-56.9336L40.7227-51.2695C36.5234-47.0703 36.4746-41.9434 40.8203-37.5977L56.3965-22.0703C47.9004-16.0156 29.6875-8.44727 21.4844-0.292969C12.0117 9.17969 12.1094 21.4355 21.7773 31.0059ZM37.6953 23.291C33.4473 23.291 30.0781 19.9219 30.0781 15.6738C30.0781 11.5234 33.4473 8.10547 37.6953 8.10547C41.8457 8.10547 45.2148 11.5234 45.2148 15.6738C45.2148 19.9219 41.8457 23.291 37.6953 23.291Z"/>
  </g>
  <g id="Light-L" transform="matrix(1 0 0 1 1074.35 1556)">
   <path d="M114.258-10.7422L138.428-34.9121C144.727-41.2109 144.629-49.0723 138.281-55.4688L134.033-59.7656C128.174-51.5137 109.912-41.9434 106.348-45.5078C105.811-46.0449 105.713-47.168 106.543-47.998C114.062-55.6152 118.408-62.3047 119.238-74.5117L89.0625-104.736C83.4473-110.352 74.3652-108.496 72.0703-98.8281C68.2129-81.9336 65.1367-72.7051 60.498-64.4043ZM21.4844 30.2246C30.8594 39.502 42.3828 39.6484 51.5625 30.4688C60.2539 21.7285 67.8223 2.49023 74.3164-5.76172L90.2832 10.2051C94.043 14.0137 98.7793 13.9648 102.441 10.2539L108.594 4.10156C112.305 0.341797 112.305-4.15039 108.496-7.95898L59.7168-56.7383C55.8594-60.5957 51.3184-60.5957 47.6074-56.8359L41.4551-50.7324C37.7441-47.0215 37.6465-42.3828 41.4551-38.5742L57.4707-22.6074C49.2188-16.1621 29.9805-8.54492 21.2891 0.146484C12.1094 9.375 12.1582 20.8984 21.4844 30.2246ZM36.2305 23.1445C32.1289 23.1445 28.8574 19.9219 28.8574 15.8203C28.8574 11.8164 32.1289 8.54492 36.2305 8.54492C40.2344 8.54492 43.457 11.8164 43.457 15.8203C43.457 19.9219 40.2344 23.1445 36.2305 23.1445Z"/>
  </g>
  <g id="Thin-L" transform="matrix(1 0 0 1 779.323 1556)">
   <path d="M111.475-11.6211L135.449-35.5957C141.211-41.3574 141.162-48.8281 135.4-54.6387L130.371-59.668C125-51.5625 107.129-42.334 103.613-45.8496C103.027-46.4355 102.93-47.5098 103.76-48.291C111.23-55.8594 115.088-62.0605 115.723-74.3164L87.207-102.832C81.8359-108.203 73.8281-106.445 71.9238-97.998C68.0664-80.5176 65.3809-71.3867 60.2539-62.7441ZM21.1914 29.1992C30.1758 37.9883 40.7227 38.1348 49.5117 29.3457C58.9844 19.9219 66.6016-0.634766 73.6816-8.54492L90.1855 7.95898C93.2617 11.0352 97.3145 10.9863 100.342 7.91016L107.031 1.2207C110.107-1.85547 110.107-5.81055 107.031-8.88672L59.2285-56.6895C56.1035-59.8145 52.1973-59.7656 49.1211-56.6895L42.4316-50C39.4043-46.9727 39.2578-42.9199 42.334-39.8438L58.8867-23.3398C51.0254-16.3086 30.4688-8.64258 20.9961 0.78125C12.207 9.61914 12.3047 20.166 21.1914 29.1992ZM34.2773 22.9492C30.3711 22.9492 27.2949 19.9219 27.2949 16.0156C27.2949 12.1582 30.3711 9.08203 34.2773 9.08203C38.1348 9.08203 41.1621 12.1582 41.1621 16.0156C41.1621 19.9219 38.1348 22.9492 34.2773 22.9492Z"/>
  </g>
  <g id="Ultralight-L" transform="matrix(1 0 0 1 483.466 1556)">
   <path d="M110.059-12.1094L133.887-35.9375C139.404-41.4062 139.404-48.7305 133.936-54.1992L128.516-59.6191C123.389-51.6113 105.713-42.5293 102.197-46.0449C101.611-46.6309 101.562-47.6562 102.344-48.4375C109.814-56.0059 113.379-61.9141 113.916-74.2188L86.2305-101.855C81.0059-107.129 73.5352-105.371 71.875-97.5586C68.0176-79.7852 65.5273-70.752 60.1074-61.8652ZM20.9961 28.6621C29.834 37.207 39.8926 37.4023 48.4863 28.8086C58.3008 18.9453 65.9668-2.29492 73.3398-9.96094L90.1367 6.78711C92.8711 9.52148 96.5332 9.42383 99.2676 6.68945L106.25-0.292969C108.984-3.02734 108.984-6.64062 106.299-9.375L58.9844-56.6406C56.2012-59.4727 52.6367-59.375 49.9512-56.6406L42.9688-49.6582C40.2344-46.9238 40.0391-43.2129 42.7734-40.4785L59.6191-23.7305C51.9043-16.4062 30.6641-8.69141 20.8496 1.07422C12.2559 9.76562 12.3535 19.8242 20.9961 28.6621ZM33.3008 22.8027C29.4922 22.8027 26.4648 19.9219 26.4648 16.0645C26.4648 12.3535 29.4922 9.32617 33.3008 9.32617C37.0605 9.32617 39.9902 12.3535 39.9902 16.0645C39.9902 19.9219 37.0605 22.8027 33.3008 22.8027Z"/>
  </g>
  <g id="Black-M" transform="matrix(1 0 0 1 2867.09 1126)">
   <path d="M97.8027-12.5977L116.504-31.2012C123.193-37.8418 122.998-46.0938 116.162-53.125L112.061-57.3242C107.129-51.1719 92.9199-43.2617 90.3809-45.8008C89.9414-46.2402 89.7949-47.0703 90.4297-47.6562C95.9473-53.125 100.391-59.3262 101.318-68.0176L76.416-92.9199C69.5801-99.7559 59.4238-95.7031 56.25-85.498C52.3438-72.9492 49.7559-65.0879 49.1211-61.3281ZM18.0664 19.9219C26.9531 28.9062 38.7695 28.9551 47.5586 20.166C52.1973 15.4785 56.8848 6.49414 60.5957-0.537109L69.6777 8.54492C74.707 13.5742 80.957 13.6719 85.791 8.74023L89.6484 4.78516C94.6289-0.195312 94.4824-6.20117 89.4531-11.2305L49.1211-51.5137C44.1406-56.4453 38.0371-56.7383 33.0078-51.709L29.248-47.9004C24.2676-42.9688 24.3164-36.6699 29.3457-31.7383L38.4277-22.7051C31.4941-18.8965 22.4609-14.3066 17.8223-9.66797C8.93555-0.78125 9.08203 11.0352 18.0664 19.9219ZM32.8125 10.2539C30.0781 10.2539 27.7832 7.95898 27.7832 5.22461C27.7832 2.49023 30.0781 0.195312 32.8125 0.195312C35.5957 0.195312 37.793 2.49023 37.793 5.22461C37.793 7.95898 35.5957 10.2539 32.8125 10.2539Z"/>
  </g>
  <g id="Heavy-M" transform="matrix(1 0 0 1 2571.21 1126)">
   <path d="M96.2891-13.2324L115.039-31.9336C121.436-38.2812 121.24-46.0938 114.746-52.7832L111.035-56.6406C106.006-50.3906 91.748-42.4805 89.1602-45.1172C88.7207-45.5566 88.5742-46.3867 89.209-47.0215C94.873-52.5879 99.1211-58.6426 100.049-67.5293L75.0977-92.4805C68.7988-98.7793 59.1309-95.3613 56.2012-85.4492C52.4902-72.9492 49.8535-65.1855 48.6328-60.9375ZM17.8223 19.0918C26.3672 27.7832 37.7441 27.8809 46.2402 19.3359C51.2207 14.4043 56.1523 4.29688 60.0586-2.68555L69.7754 7.08008C74.4629 11.7676 80.2734 11.8652 84.7656 7.22656L88.7207 3.27148C93.3594-1.41602 93.2617-6.98242 88.5254-11.6699L48.5352-51.6113C43.8477-56.25 38.2324-56.4941 33.5449-51.8066L29.6875-47.9004C25.0488-43.3105 25.0977-37.5 29.7852-32.8613L39.5508-23.1445C32.6172-19.2383 22.5586-14.3555 17.5781-9.375C9.0332-0.830078 9.13086 10.5469 17.8223 19.0918ZM32.1289 10.2051C29.248 10.2051 26.8555 7.8125 26.8555 4.98047C26.8555 2.09961 29.248-0.292969 32.1289-0.292969C35.0586-0.292969 37.4023 2.09961 37.4023 4.98047C37.4023 7.8125 35.0586 10.2051 32.1289 10.2051Z"/>
  </g>
  <g id="Bold-M" transform="matrix(1 0 0 1 2275.45 1126)">
   <path d="M94.5801-13.9648L113.379-32.7637C119.482-38.7695 119.287-46.1426 113.135-52.4414L109.814-55.8594C104.785-49.4629 90.4297-41.6504 87.793-44.3359C87.3535-44.7266 87.2559-45.6055 87.8906-46.2402C93.6035-51.9531 97.7539-57.9102 98.6328-66.9434L73.6816-91.9434C67.9199-97.7051 58.8379-94.9219 56.1035-85.4004C52.6367-72.9004 49.9512-65.332 48.1445-60.4492ZM17.5293 18.2129C25.7812 26.5625 36.6211 26.6113 44.7754 18.457C50.0977 13.1348 55.3223 1.85547 59.4238-5.07812L69.873 5.41992C74.2188 9.76562 79.4922 9.81445 83.6426 5.56641L87.6953 1.51367C91.9434-2.7832 91.8457-7.86133 87.5-12.207L47.9004-51.7578C43.5547-56.0547 38.4277-56.2012 34.1797-51.9043L30.1758-47.9492C25.9277-43.7012 25.9766-38.4277 30.2734-34.1309L40.7715-23.6816C33.8867-19.5801 22.6074-14.3555 17.2852-9.0332C9.08203-0.830078 9.17969 10.0098 17.5293 18.2129ZM31.3965 10.2051C28.3691 10.2051 25.8789 7.71484 25.8789 4.6875C25.8789 1.66016 28.3691-0.830078 31.3965-0.830078C34.4727-0.830078 36.9141 1.66016 36.9141 4.6875C36.9141 7.71484 34.4727 10.2051 31.3965 10.2051Z"/>
  </g>
  <g id="Semibold-M" transform="matrix(1 0 0 1 1979.4 1126)">
   <path d="M93.4082-14.502L112.256-33.3496C118.115-39.1602 117.969-46.1426 112.012-52.1973L108.984-55.2734C103.955-48.8281 89.5508-41.0645 86.8652-43.75C86.4258-44.1895 86.3281-45.0684 86.9629-45.752C92.7734-51.5137 96.7773-57.373 97.7051-66.5527L72.6562-91.6016C67.334-96.9727 58.5938-94.6289 56.0547-85.4004C52.7832-72.9004 50.0488-65.4297 47.7539-60.1074ZM17.334 17.627C25.3418 25.7324 35.8398 25.7812 43.75 17.8711C49.3164 12.2559 54.7852 0.146484 58.9844-6.68945L69.9707 4.29688C74.0234 8.39844 79.0039 8.39844 82.8613 4.44336L86.9629 0.292969C90.9668-3.75977 90.8691-8.44727 86.8164-12.5488L47.4609-51.8555C43.3594-55.9082 38.5742-56.0059 34.5703-52.002L30.5176-47.9492C26.5625-43.9453 26.5625-39.0625 30.6152-35.0098L41.6016-24.0723C34.8145-19.8242 22.6562-14.4043 17.0898-8.83789C9.13086-0.878906 9.22852 9.61914 17.334 17.627ZM30.9082 10.2051C27.7344 10.2051 25.1953 7.61719 25.1953 4.49219C25.1953 1.36719 27.7344-1.2207 30.9082-1.2207C34.0332-1.2207 36.5723 1.36719 36.5723 4.49219C36.5723 7.61719 34.0332 10.2051 30.9082 10.2051Z"/>
  </g>
  <g id="Medium-M" transform="matrix(1 0 0 1 1683.18 1126)">
   <path d="M92.5293-14.8438L111.426-33.7402C117.09-39.4043 116.943-46.1426 111.182-52.0508L108.398-54.8828C103.32-48.3887 88.8672-40.625 86.1328-43.3594C85.6934-43.7988 85.6445-44.6777 86.2793-45.3613C92.0898-51.1719 96.0449-56.9824 96.9238-66.2598L71.9238-91.3574C66.8457-96.3867 58.3984-94.4336 56.0547-85.3516C52.832-72.9004 50.0977-65.4785 47.5098-59.8633ZM17.1875 17.1875C25 25.0488 35.2539 25.1465 42.9688 17.3828C48.7793 11.6211 54.3457-1.12305 58.6914-7.95898L70.0195 3.41797C73.877 7.32422 78.5645 7.32422 82.2754 3.56445L86.4258-0.585938C90.2344-4.44336 90.1367-8.88672 86.2305-12.793L47.168-51.9043C43.2129-55.8105 38.7207-55.8594 34.8633-52.0508L30.7617-47.9492C27.002-44.1895 27.002-39.5508 30.9082-35.6445L42.2363-24.3164C35.4492-20.0195 22.7051-14.4043 16.9434-8.64258C9.17969-0.878906 9.27734 9.32617 17.1875 17.1875ZM30.5176 10.2051C27.2949 10.2051 24.6582 7.56836 24.6582 4.3457C24.6582 1.12305 27.2949-1.51367 30.5176-1.51367C33.7402-1.51367 36.3281 1.12305 36.3281 4.3457C36.3281 7.56836 33.7402 10.2051 30.5176 10.2051Z"/>
  </g>
  <g id="Regular-M" transform="matrix(1 0 0 1 1387.1 1126)">
   <path d="M91.3574-15.3809L110.303-34.3262C115.723-39.7461 115.576-46.1914 110.059-51.8066L107.568-54.3457C102.49-47.7539 87.9883-40.0391 85.2051-42.8223C84.7656-43.2617 84.7168-44.1406 85.3516-44.8242C91.2598-50.7324 95.1172-56.4941 95.9961-65.8691L70.8984-91.0156C66.2598-95.6543 58.2031-94.1406 56.0059-85.3516C52.9297-72.8516 50.1465-65.5762 47.1191-59.5703ZM16.9922 16.5527C24.6094 24.2188 34.4727 24.3164 41.9922 16.7969C47.998 10.791 53.8086-2.7832 58.252-9.57031L70.0684 2.29492C73.6816 5.95703 78.0762 5.95703 81.4941 2.44141L85.6934-1.75781C89.2578-5.37109 89.209-9.47266 85.5469-13.1348L46.7285-52.002C43.0176-55.6641 38.8672-55.7129 35.3027-52.1484L31.1035-47.9492C27.5879-44.4336 27.5879-40.1855 31.25-36.5234L43.0664-24.707C36.3281-20.2637 22.8027-14.4531 16.748-8.44727C9.27734-0.927734 9.32617 8.98438 16.9922 16.5527ZM30.0293 10.2051C26.6602 10.2051 23.9746 7.4707 23.9746 4.15039C23.9746 0.830078 26.6602-1.85547 30.0293-1.85547C33.3496-1.85547 36.0352 0.830078 36.0352 4.15039C36.0352 7.4707 33.3496 10.2051 30.0293 10.2051Z"/>
  </g>
  <g id="Light-M" transform="matrix(1 0 0 1 1091.54 1126)">
   <path d="M89.4531-15.9668L108.252-34.7656C113.33-39.8438 113.232-46.0449 108.105-51.2207L105.078-54.2969C100.342-47.8027 86.084-40.2832 83.3496-43.0664C82.9102-43.5059 82.8125-44.3848 83.4961-45.0195C89.3555-50.9277 92.8711-56.2988 93.6035-65.7227L69.6289-89.6973C65.1855-94.1895 57.8125-92.7246 55.9082-84.7656C52.8809-71.9238 50.3418-64.6973 46.9727-58.4473ZM16.748 15.8691C24.1211 23.1934 33.3496 23.291 40.625 16.0645C47.1191 9.52148 52.9785-4.93164 57.8125-11.4746L70.0195 0.78125C73.1445 3.95508 77.0508 3.90625 80.0781 0.830078L84.668-3.75977C87.7441-6.88477 87.7441-10.5957 84.5703-13.7695L46.3867-51.9531C43.2129-55.127 39.4531-55.127 36.3281-52.0508L31.7871-47.4609C28.7109-44.3848 28.6621-40.5762 31.8359-37.4023L44.043-25.1953C37.5488-20.4102 23.0957-14.502 16.5527-8.00781C9.32617-0.732422 9.375 8.49609 16.748 15.8691ZM28.7109 10.0586C25.4883 10.0586 22.9004 7.4707 22.9004 4.29688C22.9004 1.07422 25.4883-1.51367 28.7109-1.51367C31.8848-1.51367 34.4727 1.07422 34.4727 4.29688C34.4727 7.4707 31.8848 10.0586 28.7109 10.0586Z"/>
  </g>
  <g id="Thin-M" transform="matrix(1 0 0 1 796.339 1126)">
   <path d="M86.9629-16.748L105.566-35.3516C110.156-39.9414 110.156-45.8008 105.518-50.4395L101.807-54.1992C97.5586-47.9004 83.5938-40.625 80.8594-43.4082C80.4199-43.8477 80.3711-44.6777 81.0059-45.3125C86.8164-51.1719 89.8926-56.0547 90.4297-65.5762L67.9688-88.0371C63.7207-92.2363 57.3242-90.8691 55.7617-84.0332C52.7832-70.6543 50.5859-63.5254 46.7285-56.9336ZM16.4551 14.9414C23.5352 21.8262 31.8848 21.9727 38.8184 15.0391C45.9473 7.91016 51.8555-7.76367 57.2266-13.9648L69.9219-1.26953C72.4121 1.26953 75.7324 1.2207 78.2227-1.26953L83.252-6.34766C85.791-8.88672 85.791-12.0605 83.252-14.5996L45.9961-51.8555C43.4082-54.4434 40.2344-54.4434 37.7441-51.9043L32.666-46.8262C30.1758-44.3359 30.0293-41.0645 32.6172-38.5254L45.3125-25.8301C39.1113-20.5566 23.4863-14.5996 16.3086-7.4707C9.42383-0.537109 9.47266 7.86133 16.4551 14.9414ZM26.9531 9.86328C23.9258 9.86328 21.4844 7.4707 21.4844 4.44336C21.4844 1.41602 23.9258-1.02539 26.9531-1.02539C29.9805-1.02539 32.373 1.41602 32.373 4.44336C32.373 7.4707 29.9805 9.86328 26.9531 9.86328Z"/>
  </g>
  <g id="Ultralight-M" transform="matrix(1 0 0 1 500.385 1126)">
   <path d="M85.6934-17.1387L104.199-35.6445C108.545-39.9902 108.545-45.7031 104.199-50.0488L100.146-54.1504C96.0938-47.9004 82.3242-40.8203 79.5898-43.5547C79.1504-43.9941 79.1016-44.8242 79.7363-45.4102C85.498-51.2695 88.3789-55.957 88.7695-65.4785L67.0898-87.1582C62.9883-91.2598 57.0312-89.8926 55.7129-83.6426C52.6855-69.9707 50.7324-62.9395 46.582-56.1523ZM16.3086 14.4531C23.1934 21.1426 31.1523 21.2891 37.8906 14.5508C45.3613 7.03125 51.3184-9.17969 56.9336-15.2344L69.8242-2.29492C72.0703-0.0976562 75.0488-0.146484 77.2461-2.39258L82.5684-7.71484C84.8145-9.91211 84.8145-12.8418 82.5684-15.0391L45.8008-51.8555C43.5059-54.1016 40.6738-54.0527 38.4277-51.8555L33.1055-46.5332C30.9082-44.2871 30.7617-41.3086 33.0078-39.1113L45.9961-26.1719C39.9414-20.6055 23.6816-14.6484 16.1621-7.17773C9.47266-0.390625 9.52148 7.51953 16.3086 14.4531ZM26.0742 9.81445C23.0957 9.81445 20.752 7.4707 20.752 4.49219C20.752 1.5625 23.0957-0.78125 26.0742-0.78125C29.0039-0.78125 31.2988 1.5625 31.2988 4.49219C31.2988 7.4707 29.0039 9.81445 26.0742 9.81445Z"/>
  </g>
  <g id="Black-S" transform="matrix(1 0 0 1 2881.5 696)">
   <path d="M76.5137-17.5293L91.1621-32.1289C96.3867-37.3047 96.2402-43.75 90.918-49.2188L87.7441-52.4902C83.8379-47.6562 72.7051-41.4551 70.7031-43.457C70.3613-43.7988 70.2637-44.4336 70.752-44.9219C75.0977-49.2188 78.5645-54.0527 79.2969-60.8887L59.7656-80.4199C54.4434-85.7422 46.5332-82.6172 44.043-74.6094C41.0156-64.7949 38.9648-58.6426 38.4277-55.6641ZM14.1113 7.91016C21.0449 14.9414 30.2734 14.9902 37.1582 8.10547C40.8203 4.44336 44.4824-2.68555 47.4121-8.20312L54.5898-1.02539C58.4961 2.88086 63.3789 2.97852 67.1387-0.878906L70.166-3.95508C74.0234-7.86133 73.9258-12.5488 70.0195-16.4551L38.4277-47.998C34.5215-51.8555 29.7852-52.0508 25.8789-48.1445L22.9004-45.166C19.043-41.3086 19.0918-36.4258 22.998-32.5684L30.1758-25.4395C24.707-22.4609 17.5781-18.8477 13.916-15.1855C6.98242-8.25195 7.08008 0.976562 14.1113 7.91016ZM25.6348 0.390625C23.4863 0.390625 21.6797-1.41602 21.6797-3.56445C21.6797-5.71289 23.4863-7.51953 25.6348-7.51953C27.832-7.51953 29.5898-5.71289 29.5898-3.56445C29.5898-1.41602 27.832 0.390625 25.6348 0.390625Z"/>
  </g>
  <g id="Heavy-S" transform="matrix(1 0 0 1 2585.3 696)">
   <path d="M75.5859-17.9688L90.2832-32.6172C95.3125-37.6465 95.166-43.7988 90.0391-49.0234L87.207-51.9531C83.252-47.0215 72.0703-40.8203 70.0195-42.8711C69.6777-43.2129 69.5801-43.8965 70.0684-44.3848C74.4629-48.7793 77.8809-53.5645 78.6133-60.498L58.9355-80.2246C54.0039-85.1562 46.3867-82.4707 44.043-74.6582C41.1621-64.8926 39.0625-58.8379 38.0859-55.4688ZM13.9648 7.37305C20.7031 14.209 29.6387 14.2578 36.3281 7.56836C40.1855 3.71094 44.043-4.10156 47.0703-9.61914L54.6875-2.00195C58.3984 1.75781 62.9883 1.80664 66.5527-1.85547L69.5801-4.93164C73.2422-8.64258 73.1445-13.0371 69.4336-16.748L38.0371-48.0957C34.3262-51.7578 29.8828-51.9043 26.1719-48.2422L23.1934-45.2148C19.5312-41.6016 19.5801-37.0117 23.291-33.3496L30.9082-25.7324C25.4883-22.7051 17.627-18.8477 13.7695-14.9902C7.03125-8.30078 7.12891 0.683594 13.9648 7.37305ZM25.293 0.390625C23.0469 0.390625 21.1426-1.51367 21.1426-3.75977C21.1426-6.05469 23.0469-7.91016 25.293-7.91016C27.5879-7.91016 29.4434-6.05469 29.4434-3.75977C29.4434-1.51367 27.5879 0.390625 25.293 0.390625Z"/>
  </g>
  <g id="Bold-S" transform="matrix(1 0 0 1 2289.17 696)">
   <path d="M74.5117-18.457L89.3066-33.2031C94.1406-38.0371 93.9941-43.7988 89.0625-48.877L86.6211-51.3672C82.6172-46.3379 71.2891-40.1367 69.1895-42.2363C68.8477-42.5781 68.7988-43.2617 69.2871-43.7988C73.7793-48.2422 77.0996-53.0273 77.832-60.1074L58.0078-79.9805C53.4668-84.5215 46.1914-82.3242 43.9941-74.707C41.3086-64.9902 39.1113-59.0332 37.7441-55.2734ZM13.7695 6.78711C20.2637 13.3789 28.9062 13.4277 35.4004 6.98242C39.4531 2.92969 43.5547-5.71289 46.6309-11.2305L54.7852-3.02734C58.252 0.439453 62.5488 0.488281 65.8691-2.92969L68.9453-6.00586C72.3633-9.47266 72.2656-13.5254 68.7988-17.041L37.5977-48.1934C34.082-51.6602 29.9805-51.8066 26.5137-48.3398L23.4863-45.3125C20.0684-41.8945 20.1172-37.6953 23.6328-34.1797L31.7383-26.0742C26.3184-22.9492 17.6758-18.8965 13.5742-14.7949C7.12891-8.34961 7.17773 0.292969 13.7695 6.78711ZM24.9023 0.390625C22.5098 0.390625 20.5078-1.61133 20.5078-4.00391C20.5078-6.39648 22.5098-8.39844 24.9023-8.39844C27.3438-8.39844 29.2969-6.39648 29.2969-4.00391C29.2969-1.61133 27.3438 0.390625 24.9023 0.390625Z"/>
  </g>
  <g id="Semibold-S" transform="matrix(1 0 0 1 1992.85 696)">
   <path d="M73.7793-18.7988L88.623-33.5938C93.3105-38.2812 93.1641-43.8477 88.3789-48.7305L86.2305-50.9277C82.1777-45.8496 70.8008-39.6973 68.6523-41.7969C68.3105-42.1387 68.2617-42.8711 68.75-43.3594C73.291-47.9004 76.5625-52.6367 77.3438-59.8145L57.3242-79.834C53.125-84.0332 46.0449-82.2266 43.9941-74.707C41.4062-65.0391 39.1602-59.1797 37.5-55.127ZM13.6719 6.39648C20.0195 12.8418 28.418 12.8906 34.7168 6.5918C38.916 2.39258 43.2129-6.83594 46.3867-12.3047L54.834-3.80859C58.2031-0.439453 62.207-0.390625 65.3809-3.66211L68.457-6.73828C71.7285-10.1074 71.6797-13.916 68.3105-17.2363L37.3047-48.2422C33.9355-51.6113 30.0781-51.709 26.7578-48.3887L23.7305-45.3613C20.459-42.0898 20.459-38.1348 23.8281-34.8145L32.3242-26.3184C26.9043-23.1445 17.6758-18.8965 13.4766-14.6973C7.17773-8.34961 7.22656 0.0488281 13.6719 6.39648ZM24.6582 0.390625C22.1191 0.390625 20.0684-1.66016 20.0684-4.15039C20.0684-6.64062 22.1191-8.69141 24.6582-8.69141C27.1484-8.69141 29.1992-6.64062 29.1992-4.15039C29.1992-1.66016 27.1484 0.390625 24.6582 0.390625Z"/>
  </g>
  <g id="Medium-S" transform="matrix(1 0 0 1 1696.43 696)">
   <path d="M73.2422-19.043L88.0859-33.8867C92.6758-38.4766 92.5293-43.8477 87.8906-48.6328L85.9375-50.6348C81.8359-45.5078 70.4102-39.3066 68.2129-41.5039C67.8711-41.8457 67.8223-42.5293 68.3594-43.0664C72.9492-47.6562 76.1719-52.3438 76.9043-59.5703L56.8359-79.6875C52.832-83.6914 45.9473-82.1777 43.9453-74.7559C41.4551-65.1367 39.209-59.2773 37.3047-54.9805ZM13.5742 6.10352C19.7754 12.4023 28.0762 12.4512 34.2285 6.29883C38.5742 1.95312 42.9199-7.66602 46.1426-13.1348L54.9316-4.3457C58.1055-1.12305 61.9629-1.07422 65.0391-4.19922L68.1152-7.32422C71.2891-10.5469 71.2402-14.1602 67.9688-17.4316L37.0605-48.291C33.8379-51.5625 30.127-51.6113 26.9531-48.4375L23.877-45.3613C20.752-42.2852 20.752-38.4766 24.0234-35.2539L32.7637-26.5137C27.3438-23.291 17.7246-18.8965 13.3789-14.5508C7.17773-8.39844 7.27539-0.146484 13.5742 6.10352ZM24.4141 0.390625C21.875 0.390625 19.7266-1.70898 19.7266-4.24805C19.7266-6.83594 21.875-8.93555 24.4141-8.93555C27.002-8.93555 29.1016-6.83594 29.1016-4.24805C29.1016-1.70898 27.002 0.390625 24.4141 0.390625Z"/>
  </g>
  <g id="Regular-S" transform="matrix(1 0 0 1 1400.11 696)">
   <path d="M72.5098-19.3848L87.4512-34.2773C91.8945-38.7207 91.748-43.8965 87.207-48.4863L85.498-50.2441C81.3477-45.0195 69.873-38.8672 67.6758-41.0645C67.334-41.4062 67.2852-42.1387 67.8223-42.6758C72.4609-47.3145 75.6348-51.9531 76.416-59.3262L56.2012-79.541C52.4902-83.252 45.8008-82.0801 43.9453-74.7559C41.5527-65.1855 39.2578-59.4238 37.0605-54.834ZM13.4277 5.71289C19.5312 11.8652 27.5879 11.9141 33.5938 5.9082C38.0371 1.41602 42.5781-8.78906 45.8984-14.209L54.9805-5.07812C58.0078-1.95312 61.6699-1.95312 64.5996-4.93164L67.6758-8.05664C70.6543-11.1328 70.6055-14.5508 67.5293-17.627L36.7676-48.3887C33.6914-51.4648 30.1758-51.5137 27.1484-48.5352L24.0723-45.4102C21.1426-42.4805 21.1426-38.916 24.2188-35.8398L33.3008-26.7578C27.9297-23.4375 17.7246-18.8965 13.2812-14.4531C7.22656-8.39844 7.27539-0.390625 13.4277 5.71289ZM24.1699 0.439453C21.4844 0.439453 19.3359-1.75781 19.3359-4.44336C19.3359-7.08008 21.4844-9.27734 24.1699-9.27734C26.8555-9.27734 29.0039-7.08008 29.0039-4.44336C29.0039-1.75781 26.8555 0.439453 24.1699 0.439453Z"/>
  </g>
  <g id="Light-S" transform="matrix(1 0 0 1 1104.4 696)">
   <path d="M70.8496-19.9219L85.6445-34.7168C89.7461-38.8184 89.6484-43.75 85.498-47.998L83.3008-50.1953C79.4922-45.0684 68.2129-39.1113 66.0156-41.2598C65.6738-41.6016 65.625-42.334 66.1621-42.8223C70.752-47.4609 73.6328-51.8066 74.2676-59.1797L55.0781-78.418C51.5137-81.9824 45.459-80.8105 43.8477-74.2676C41.4551-64.3555 39.4043-58.6426 36.8652-53.8574ZM13.2324 5.07812C19.0918 10.9375 26.6113 10.9863 32.373 5.22461C37.3047 0.341797 41.8457-10.6934 45.5078-15.8691L54.8828-6.44531C57.5684-3.75977 60.791-3.75977 63.3301-6.34766L66.748-9.81445C69.3359-12.4512 69.3359-15.5273 66.6504-18.1641L36.5234-48.3398C33.7891-51.0254 30.7129-51.0254 28.0762-48.4375L24.6582-45.0195C22.1191-42.4316 22.0703-39.2578 24.7559-36.5723L34.1797-27.1973C29.0039-23.5352 18.0176-18.9453 13.0859-14.0625C7.32422-8.25195 7.37305-0.78125 13.2324 5.07812ZM22.998 0.292969C20.459 0.292969 18.3594-1.75781 18.3594-4.3457C18.3594-6.88477 20.459-8.93555 22.998-8.93555C25.5859-8.93555 27.6367-6.88477 27.6367-4.3457C27.6367-1.75781 25.5859 0.292969 22.998 0.292969Z"/>
  </g>
  <g id="Thin-S" transform="matrix(1 0 0 1 809.035 696)">
   <path d="M68.6523-20.6055L83.252-35.2051C86.9629-38.916 86.9141-43.5547 83.2031-47.3145L80.4199-50.0977C77.002-45.1172 66.0156-39.4043 63.8672-41.5527C63.5254-41.8945 63.4766-42.5781 63.9648-43.0664C68.5059-47.6562 70.9961-51.6113 71.4844-59.0332L53.6133-76.9043C50.2441-80.2734 45.0195-79.1504 43.75-73.6328C41.4062-63.2324 39.6484-57.6172 36.6699-52.4902ZM12.9883 4.24805C18.5547 9.76562 25.293 9.81445 30.7617 4.3457C36.2793-1.12305 40.8691-13.1836 44.9707-18.0664L54.834-8.25195C56.9336-6.10352 59.6191-6.15234 61.6699-8.25195L65.5273-12.1094C67.627-14.209 67.627-16.7969 65.4785-18.8965L36.1328-48.291C33.9844-50.4395 31.3965-50.3906 29.3457-48.3398L25.4395-44.4336C23.3887-42.3828 23.291-39.6973 25.4395-37.5977L35.3027-27.7344C30.3711-23.6816 18.3594-19.043 12.8418-13.5742C7.37305-8.10547 7.42188-1.36719 12.9883 4.24805ZM21.4844 0.146484C19.043 0.146484 17.1387-1.75781 17.1387-4.19922C17.1387-6.5918 19.043-8.54492 21.4844-8.54492C23.877-8.54492 25.7812-6.5918 25.7812-4.19922C25.7812-1.75781 23.877 0.146484 21.4844 0.146484Z"/>
  </g>
  <g id="Ultralight-S" transform="matrix(1 0 0 1 513.007 696)">
   <path d="M67.5293-20.9473L82.0312-35.498C85.498-38.9648 85.498-43.457 82.0312-46.9727L78.9062-50.0488C75.6836-45.166 64.8926-39.5508 62.7441-41.6992C62.4023-42.041 62.3535-42.6758 62.8418-43.1641C67.3828-47.7539 69.6777-51.5137 70.0195-58.9355L52.832-76.1719C49.5605-79.3945 44.7754-78.3203 43.7012-73.291C41.3574-62.6465 39.7461-57.0801 36.5723-51.8066ZM12.8418 3.80859C18.3105 9.13086 24.6094 9.22852 29.9316 3.90625C35.7422-1.85547 40.3809-14.4531 44.7266-19.2383L54.7852-9.17969C56.5918-7.32422 58.9844-7.37305 60.791-9.17969L64.8926-13.2812C66.748-15.1367 66.748-17.4805 64.8926-19.2871L35.9375-48.2422C34.082-50.0977 31.7871-50.0977 29.9316-48.2422L25.8301-44.1406C24.0234-42.334 23.9258-39.9414 25.7812-38.1348L35.8887-28.0762C31.1035-23.7793 18.5547-19.0918 12.7441-13.3301C7.42188-7.95898 7.4707-1.66016 12.8418 3.80859ZM20.7031 0.0488281C18.3594 0.0488281 16.4551-1.75781 16.4551-4.10156C16.4551-6.44531 18.3594-8.30078 20.7031-8.30078C22.998-8.30078 24.8535-6.44531 24.8535-4.10156C24.8535-1.75781 22.998 0.0488281 20.7031 0.0488281Z"/>
  </g>
 </g>
</svg>
