<?xml version="1.0" encoding="UTF-8"?>
<!--Generator: Apple Native CoreSVG 149-->
<!DOCTYPE svg
PUBLIC "-//W3C//DTD SVG 1.1//EN"
       "http://www.w3.org/Graphics/SVG/1.1/DTD/svg11.dtd">
<svg version="1.1" xmlns="http://www.w3.org/2000/svg" xmlns:xlink="http://www.w3.org/1999/xlink" width="3300" height="2200">
 <!--glyph: "uni100766.medium", point size: 100.000000, font version: "Version 16.0d18e1", template writer version: "8"-->
 <g id="Notes">
  <rect height="2200" id="artboard" style="fill:white;opacity:1" width="3300" x="0" y="0"/>
  <line id="" style="fill:none;stroke:black;opacity:1;stroke-width:0.5;" x1="263" x2="3036" y1="292" y2="292"/>
  <text style="stroke:none;fill:black;font-family:-apple-system,&quot;SF Pro Display&quot;,&quot;SF Pro Text&quot;,Helvetica,sans-serif;font-weight:bold;" transform="matrix(1 0 0 1 263 322)">Weight/Scale Variations</text>
  <text style="stroke:none;fill:black;font-family:-apple-system,&quot;SF Pro Display&quot;,&quot;SF Pro Text&quot;,Helvetica,sans-serif;text-anchor:middle;" transform="matrix(1 0 0 1 559.711 322)">Ultralight</text>
  <text style="stroke:none;fill:black;font-family:-apple-system,&quot;SF Pro Display&quot;,&quot;SF Pro Text&quot;,Helvetica,sans-serif;text-anchor:middle;" transform="matrix(1 0 0 1 856.422 322)">Thin</text>
  <text style="stroke:none;fill:black;font-family:-apple-system,&quot;SF Pro Display&quot;,&quot;SF Pro Text&quot;,Helvetica,sans-serif;text-anchor:middle;" transform="matrix(1 0 0 1 1153.13 322)">Light</text>
  <text style="stroke:none;fill:black;font-family:-apple-system,&quot;SF Pro Display&quot;,&quot;SF Pro Text&quot;,Helvetica,sans-serif;text-anchor:middle;" transform="matrix(1 0 0 1 1449.84 322)">Regular</text>
  <text style="stroke:none;fill:black;font-family:-apple-system,&quot;SF Pro Display&quot;,&quot;SF Pro Text&quot;,Helvetica,sans-serif;text-anchor:middle;" transform="matrix(1 0 0 1 1746.56 322)">Medium</text>
  <text style="stroke:none;fill:black;font-family:-apple-system,&quot;SF Pro Display&quot;,&quot;SF Pro Text&quot;,Helvetica,sans-serif;text-anchor:middle;" transform="matrix(1 0 0 1 2043.27 322)">Semibold</text>
  <text style="stroke:none;fill:black;font-family:-apple-system,&quot;SF Pro Display&quot;,&quot;SF Pro Text&quot;,Helvetica,sans-serif;text-anchor:middle;" transform="matrix(1 0 0 1 2339.98 322)">Bold</text>
  <text style="stroke:none;fill:black;font-family:-apple-system,&quot;SF Pro Display&quot;,&quot;SF Pro Text&quot;,Helvetica,sans-serif;text-anchor:middle;" transform="matrix(1 0 0 1 2636.69 322)">Heavy</text>
  <text style="stroke:none;fill:black;font-family:-apple-system,&quot;SF Pro Display&quot;,&quot;SF Pro Text&quot;,Helvetica,sans-serif;text-anchor:middle;" transform="matrix(1 0 0 1 2933.4 322)">Black</text>
  <line id="" style="fill:none;stroke:black;opacity:1;stroke-width:0.5;" x1="263" x2="3036" y1="1903" y2="1903"/>
  <g id="" transform="matrix(1 0 0 1 263 1933)">
   <path d="M9.24805 0.830078C13.5547 0.830078 17.1387-2.74414 17.1387-7.05078C17.1387-11.3574 13.5449-14.9316 9.23828-14.9316C4.94141-14.9316 1.36719-11.3574 1.36719-7.05078C1.36719-2.74414 4.95117 0.830078 9.24805 0.830078ZM9.24805-0.654297C5.70312-0.654297 2.87109-3.49609 2.87109-7.05078C2.87109-10.6055 5.69336-13.4473 9.23828-13.4473C12.793-13.4473 15.6348-10.6055 15.6445-7.05078C15.6543-3.49609 12.8027-0.654297 9.24805-0.654297ZM6.39648-6.31836L8.50586-6.31836L8.50586-4.19922C8.50586-3.75977 8.79883-3.45703 9.22852-3.45703C9.67773-3.45703 9.9707-3.75977 9.9707-4.19922L9.9707-6.31836L12.0996-6.31836C12.5391-6.31836 12.8418-6.61133 12.8418-7.04102C12.8418-7.48047 12.5391-7.7832 12.0996-7.7832L9.9707-7.7832L9.9707-9.89258C9.9707-10.3418 9.67773-10.6445 9.22852-10.6445C8.79883-10.6445 8.50586-10.3418 8.50586-9.89258L8.50586-7.7832L6.39648-7.7832C5.94727-7.7832 5.64453-7.48047 5.64453-7.04102C5.64453-6.61133 5.94727-6.31836 6.39648-6.31836Z"/>
  </g>
  <g id="" transform="matrix(1 0 0 1 281.506 1933)">
   <path d="M11.709 2.91016C17.1582 2.91016 21.6699-1.61133 21.6699-7.05078C21.6699-12.5 17.1484-17.0117 11.6992-17.0117C6.25977-17.0117 1.74805-12.5 1.74805-7.05078C1.74805-1.61133 6.26953 2.91016 11.709 2.91016ZM11.709 1.25C7.09961 1.25 3.41797-2.44141 3.41797-7.05078C3.41797-11.6602 7.08984-15.3516 11.6992-15.3516C16.3086-15.3516 20-11.6602 20.0098-7.05078C20.0195-2.44141 16.3184 1.25 11.709 1.25ZM7.98828-6.23047L10.8789-6.23047L10.8789-3.32031C10.8789-2.83203 11.2109-2.5 11.6895-2.5C12.1777-2.5 12.5195-2.83203 12.5195-3.32031L12.5195-6.23047L15.4297-6.23047C15.918-6.23047 16.25-6.5625 16.25-7.04102C16.25-7.5293 15.918-7.87109 15.4297-7.87109L12.5195-7.87109L12.5195-10.7617C12.5195-11.2695 12.1777-11.6016 11.6895-11.6016C11.2109-11.6016 10.8789-11.2598 10.8789-10.7617L10.8789-7.87109L7.98828-7.87109C7.48047-7.87109 7.14844-7.5293 7.14844-7.04102C7.14844-6.5625 7.49023-6.23047 7.98828-6.23047Z"/>
  </g>
  <g id="" transform="matrix(1 0 0 1 304.924 1933)">
   <path d="M14.9707 5.66406C21.9336 5.66406 27.6953-0.0976562 27.6953-7.05078C27.6953-14.0137 21.9238-19.7754 14.9609-19.7754C8.00781-19.7754 2.25586-14.0137 2.25586-7.05078C2.25586-0.0976562 8.01758 5.66406 14.9707 5.66406ZM14.9707 3.84766C8.93555 3.84766 4.08203-1.01562 4.08203-7.05078C4.08203-13.0957 8.92578-17.9492 14.9609-17.9492C21.0059-17.9492 25.8594-13.0957 25.8691-7.05078C25.8789-1.01562 21.0156 3.84766 14.9707 3.84766ZM10.0586-6.14258L14.0625-6.14258L14.0625-2.12891C14.0625-1.5918 14.4336-1.2207 14.9512-1.2207C15.4883-1.2207 15.8594-1.5918 15.8594-2.12891L15.8594-6.14258L19.8828-6.14258C20.4102-6.14258 20.791-6.51367 20.791-7.03125C20.791-7.56836 20.4199-7.94922 19.8828-7.94922L15.8594-7.94922L15.8594-11.9531C15.8594-12.5098 15.4883-12.8809 14.9512-12.8809C14.4336-12.8809 14.0625-12.5 14.0625-11.9531L14.0625-7.94922L10.0586-7.94922C9.50195-7.94922 9.13086-7.56836 9.13086-7.03125C9.13086-6.51367 9.51172-6.14258 10.0586-6.14258Z"/>
  </g>
  <text style="stroke:none;fill:black;font-family:-apple-system,&quot;SF Pro Display&quot;,&quot;SF Pro Text&quot;,Helvetica,sans-serif;font-weight:bold;" transform="matrix(1 0 0 1 263 1953)">Design Variations</text>
  <text style="stroke:none;fill:black;font-family:-apple-system,&quot;SF Pro Display&quot;,&quot;SF Pro Text&quot;,Helvetica,sans-serif;" transform="matrix(1 0 0 1 263 1971)">Symbols are supported in up to nine weights and three scales.</text>
  <text style="stroke:none;fill:black;font-family:-apple-system,&quot;SF Pro Display&quot;,&quot;SF Pro Text&quot;,Helvetica,sans-serif;" transform="matrix(1 0 0 1 263 1989)">For optimal layout with text and other symbols, vertically align</text>
  <text style="stroke:none;fill:black;font-family:-apple-system,&quot;SF Pro Display&quot;,&quot;SF Pro Text&quot;,Helvetica,sans-serif;" transform="matrix(1 0 0 1 263 2007)">symbols with the adjacent text.</text>
  <line id="" style="fill:none;stroke:#00AEEF;stroke-width:0.5;opacity:1.0;" x1="776" x2="776" y1="1919" y2="1933"/>
  <g id="" transform="matrix(1 0 0 1 776 1933)">
   <path d="M3.31055 0.126953C3.82812 0.126953 4.08203-0.0683594 4.26758-0.605469L5.52734-4.0625L11.2891-4.0625L12.5488-0.605469C12.7344-0.0683594 12.9883 0.126953 13.4961 0.126953C14.0137 0.126953 14.3457-0.185547 14.3457-0.673828C14.3457-0.839844 14.3164-0.986328 14.2383-1.20117L9.6582-13.3887C9.43359-13.9941 9.0332-14.2871 8.4082-14.2871C7.80273-14.2871 7.39258-13.9941 7.17773-13.3984L2.59766-1.19141C2.51953-0.976562 2.49023-0.830078 2.49023-0.664062C2.49023-0.175781 2.80273 0.126953 3.31055 0.126953ZM6.00586-5.53711L8.37891-12.1094L8.42773-12.1094L10.8008-5.53711Z"/>
  </g>
  <line id="" style="fill:none;stroke:#00AEEF;stroke-width:0.5;opacity:1.0;" x1="792.836" x2="792.836" y1="1919" y2="1933"/>
  <text style="stroke:none;fill:black;font-family:-apple-system,&quot;SF Pro Display&quot;,&quot;SF Pro Text&quot;,Helvetica,sans-serif;font-weight:bold;" transform="matrix(1 0 0 1 776 1953)">Margins</text>
  <text style="stroke:none;fill:black;font-family:-apple-system,&quot;SF Pro Display&quot;,&quot;SF Pro Text&quot;,Helvetica,sans-serif;" transform="matrix(1 0 0 1 776 1971)">Leading and trailing margins on the left and right side of each symbol</text>
  <text style="stroke:none;fill:black;font-family:-apple-system,&quot;SF Pro Display&quot;,&quot;SF Pro Text&quot;,Helvetica,sans-serif;" transform="matrix(1 0 0 1 776 1989)">can be adjusted by modifying the x-location of the margin guidelines.</text>
  <text style="stroke:none;fill:black;font-family:-apple-system,&quot;SF Pro Display&quot;,&quot;SF Pro Text&quot;,Helvetica,sans-serif;" transform="matrix(1 0 0 1 776 2007)">Modifications are automatically applied proportionally to all</text>
  <text style="stroke:none;fill:black;font-family:-apple-system,&quot;SF Pro Display&quot;,&quot;SF Pro Text&quot;,Helvetica,sans-serif;" transform="matrix(1 0 0 1 776 2025)">scales and weights.</text>
  <g id="" transform="matrix(1 0 0 1 1289 1933)">
   <path d="M2.8418 1.86523L4.54102 3.57422C5.40039 4.44336 6.38672 4.38477 7.31445 3.35938L17.4902-7.85156C17.7539-7.76367 18.0273-7.7832 18.3398-7.8418L19.4043-8.03711L20.0684-7.36328L20.0293-6.80664C19.9902-6.30859 20.1172-5.92773 20.6055-5.44922L21.3672-4.70703C21.8457-4.22852 22.4609-4.19922 22.9297-4.66797L25.8398-7.58789C26.3086-8.05664 26.2891-8.65234 25.8105-9.13086L25.0391-9.89258C24.5605-10.3711 24.1895-10.5273 23.7109-10.4883L23.1348-10.4395L22.4902-11.0742L22.7344-12.1973C22.8613-12.7637 22.7051-13.2031 22.1191-13.7891L19.9219-15.9766C16.582-19.2969 12.1484-19.2188 9.25781-16.3281C8.83789-15.918 8.80859-15.3418 9.04297-14.9512C9.27734-14.5898 9.73633-14.3555 10.3809-14.5215C11.8457-14.8633 13.3691-14.9219 14.7949-13.9844L14.209-12.5293C14.0137-12.0508 13.9844-11.6504 14.1113-11.2891L3.04688-0.898438C2.06055 0.0195312 1.98242 0.996094 2.8418 1.86523ZM10.752-15.957C13.1836-17.7344 16.4746-17.4316 18.7012-15.2051L21.1328-12.793C21.3672-12.5586 21.4062-12.373 21.3379-12.0312L21.0156-10.5469L22.5195-9.0625L23.5059-9.12109C23.7598-9.13086 23.8379-9.11133 24.0332-8.91602L24.6094-8.33984L22.168-5.89844L21.5918-6.47461C21.3965-6.66992 21.3672-6.74805 21.377-7.01172L21.4453-7.98828L19.9512-9.47266L18.4277-9.21875C18.1055-9.15039 17.959-9.17969 17.7148-9.41406L15.7129-11.416C15.459-11.6504 15.4297-11.8164 15.5859-12.1875L16.4648-14.2773C14.9023-15.7324 12.8711-16.3574 10.8398-15.7617C10.6836-15.7227 10.625-15.8496 10.752-15.957ZM5.27344 2.30469L4.10156 1.14258C3.63281 0.683594 3.74023 0.341797 4.14062-0.0195312L14.9512-10.1953L16.416-8.71094L6.42578 2.27539C6.07422 2.67578 5.74219 2.77344 5.27344 2.30469Z"/>
  </g>
  <text style="stroke:none;fill:black;font-family:-apple-system,&quot;SF Pro Display&quot;,&quot;SF Pro Text&quot;,Helvetica,sans-serif;font-weight:bold;" transform="matrix(1 0 0 1 1289 1953)">Exporting</text>
  <text style="stroke:none;fill:black;font-family:-apple-system,&quot;SF Pro Display&quot;,&quot;SF Pro Text&quot;,Helvetica,sans-serif;" transform="matrix(1 0 0 1 1289 1971)">Symbols should be outlined when exporting to ensure the</text>
  <text style="stroke:none;fill:black;font-family:-apple-system,&quot;SF Pro Display&quot;,&quot;SF Pro Text&quot;,Helvetica,sans-serif;" transform="matrix(1 0 0 1 1289 1989)">design is preserved when submitting to Xcode.</text>
  <text id="template-version" style="stroke:none;fill:black;font-family:-apple-system,&quot;SF Pro Display&quot;,&quot;SF Pro Text&quot;,Helvetica,sans-serif;text-anchor:end;" transform="matrix(1 0 0 1 3036 1933)">Template v.2.0</text>
  <text style="stroke:none;fill:black;font-family:-apple-system,&quot;SF Pro Display&quot;,&quot;SF Pro Text&quot;,Helvetica,sans-serif;text-anchor:end;" transform="matrix(1 0 0 1 3036 1951)">Requires Xcode 12 or greater</text>
  <text style="stroke:none;fill:black;font-family:-apple-system,&quot;SF Pro Display&quot;,&quot;SF Pro Text&quot;,Helvetica,sans-serif;text-anchor:end;" transform="matrix(1 0 0 1 3036 1969)">Generated from paintpalette.fill</text>
  <text style="stroke:none;fill:black;font-family:-apple-system,&quot;SF Pro Display&quot;,&quot;SF Pro Text&quot;,Helvetica,sans-serif;text-anchor:end;" transform="matrix(1 0 0 1 3036 1987)">Typeset at 100 points</text>
  <text style="stroke:none;fill:black;font-family:-apple-system,&quot;SF Pro Display&quot;,&quot;SF Pro Text&quot;,Helvetica,sans-serif;" transform="matrix(1 0 0 1 263 726)">Small</text>
  <text style="stroke:none;fill:black;font-family:-apple-system,&quot;SF Pro Display&quot;,&quot;SF Pro Text&quot;,Helvetica,sans-serif;" transform="matrix(1 0 0 1 263 1156)">Medium</text>
  <text style="stroke:none;fill:black;font-family:-apple-system,&quot;SF Pro Display&quot;,&quot;SF Pro Text&quot;,Helvetica,sans-serif;" transform="matrix(1 0 0 1 263 1586)">Large</text>
 </g>
 <g id="Guides">
  <g id="H-reference" style="fill:#27AAE1;stroke:none;" transform="matrix(1 0 0 1 339 696)">
   <path d="M0.976562 0L3.66211 0L12.9883-24.4629L45.752-24.4629L55.127 0L57.7637 0L30.6152-70.459L28.125-70.459ZM29.3457-67.1387L29.4434-67.1387L44.873-26.709L13.8672-26.709Z"/>
  </g>
  <line id="Baseline-S" style="fill:none;stroke:#27AAE1;opacity:1;stroke-width:0.5;" x1="263" x2="3036" y1="696" y2="696"/>
  <line id="Capline-S" style="fill:none;stroke:#27AAE1;opacity:1;stroke-width:0.5;" x1="263" x2="3036" y1="625.541" y2="625.541"/>
  <g id="H-reference" style="fill:#27AAE1;stroke:none;" transform="matrix(1 0 0 1 339 1126)">
   <path d="M0.976562 0L3.66211 0L12.9883-24.4629L45.752-24.4629L55.127 0L57.7637 0L30.6152-70.459L28.125-70.459ZM29.3457-67.1387L29.4434-67.1387L44.873-26.709L13.8672-26.709Z"/>
  </g>
  <line id="Baseline-M" style="fill:none;stroke:#27AAE1;opacity:1;stroke-width:0.5;" x1="263" x2="3036" y1="1126" y2="1126"/>
  <line id="Capline-M" style="fill:none;stroke:#27AAE1;opacity:1;stroke-width:0.5;" x1="263" x2="3036" y1="1055.54" y2="1055.54"/>
  <g id="H-reference" style="fill:#27AAE1;stroke:none;" transform="matrix(1 0 0 1 339 1556)">
   <path d="M0.976562 0L3.66211 0L12.9883-24.4629L45.752-24.4629L55.127 0L57.7637 0L30.6152-70.459L28.125-70.459ZM29.3457-67.1387L29.4434-67.1387L44.873-26.709L13.8672-26.709Z"/>
  </g>
  <line id="Baseline-L" style="fill:none;stroke:#27AAE1;opacity:1;stroke-width:0.5;" x1="263" x2="3036" y1="1556" y2="1556"/>
  <line id="Capline-L" style="fill:none;stroke:#27AAE1;opacity:1;stroke-width:0.5;" x1="263" x2="3036" y1="1485.54" y2="1485.54"/>
  <line id="left-margin" style="fill:none;stroke:#00AEEF;stroke-width:0.5;opacity:1.0;" x1="1382.29" x2="1382.29" y1="1030.79" y2="1150.12"/>
  <line id="right-margin" style="fill:none;stroke:#00AEEF;stroke-width:0.5;opacity:1.0;" x1="1517.4" x2="1517.4" y1="1030.79" y2="1150.12"/>
 </g>
 <g id="Symbols">
  <g id="Black-L" transform="matrix(1 0 0 1 2839.11 1556)">
   <path d="M99.1699 33.9355C130.566 33.9355 151.514 22.5098 151.514 5.37109C151.514-8.49609 141.65-10.9375 141.65-18.457C141.65-28.5645 177.295-29.5898 177.295-57.7637C177.295-86.2305 147.852-105.078 103.809-105.078C48.4375-105.078 11.2793-75.8789 11.2793-34.7168C11.2793 6.44531 46.582 33.9355 99.1699 33.9355ZM106.982-60.9863C100.83-60.9863 95.7031-65.9668 95.7031-72.1191C95.7031-78.3691 100.83-83.3496 106.982-83.3496C113.086-83.3496 118.115-78.3691 118.115-72.1191C118.115-65.9668 113.086-60.9863 106.982-60.9863ZM70.2148-49.8047C62.7441-49.8047 56.6406-55.8105 56.6406-63.3789C56.6406-70.8496 62.6465-76.7578 70.2148-76.7578C77.6367-76.7578 83.7891-70.8496 83.7891-63.3789C83.7891-55.8105 77.6367-49.8047 70.2148-49.8047ZM140.381-55.7617C135.352-55.7617 131.201-59.7656 131.201-64.8926C131.201-69.9707 135.352-74.1211 140.381-74.1211C145.508-74.1211 149.609-69.4824 149.609-64.8926C149.609-60.2539 145.508-55.7617 140.381-55.7617ZM43.1641-25.4883C37.0117-25.4883 31.9824-30.6641 31.9824-36.7676C31.9824-42.8711 37.1094-47.9004 43.1641-47.9004C49.3652-47.9004 54.3457-42.9199 54.3457-36.7676C54.3457-30.6641 49.3652-25.4883 43.1641-25.4883ZM99.6582 7.86133C88.4766 7.86133 79.3945-1.26953 79.3945-12.5488C79.3945-23.7305 88.4766-32.9102 99.6582-32.9102C110.986-32.9102 120.068-23.7305 120.068-12.5488C120.068-0.585938 111.768 7.86133 99.6582 7.86133Z"/>
  </g>
  <g id="Heavy-L" transform="matrix(1 0 0 1 2544.28 1556)">
   <path d="M97.5098 32.1289C127.588 32.1289 147.705 21.2891 147.705 5.0293C147.705-8.44727 137.646-10.8887 137.646-18.457C137.646-28.8086 173.535-29.7852 173.535-57.4707C173.535-85.1074 144.922-103.467 102.1-103.467C47.7539-103.467 11.2793-75.1465 11.2793-34.7656C11.2793 5.32227 45.9473 32.1289 97.5098 32.1289ZM104.883-60.5957C98.8281-60.5957 93.7988-65.4785 93.7988-71.5332C93.7988-77.6367 98.8281-82.5195 104.883-82.5195C110.889-82.5195 115.771-77.6367 115.771-71.5332C115.771-65.4785 110.889-60.5957 104.883-60.5957ZM68.8477-49.707C61.4258-49.707 55.3711-55.6152 55.3711-63.1348C55.3711-70.6055 61.377-76.416 68.8477-76.416C76.2207-76.416 82.2754-70.5566 82.2754-63.1348C82.2754-55.6152 76.2207-49.707 68.8477-49.707ZM137.305-55.3223C132.324-55.3223 128.271-59.2773 128.271-64.2578C128.271-69.1895 132.324-73.2422 137.305-73.2422C142.236-73.2422 146.24-68.7988 146.24-64.2578C146.24-59.6191 142.236-55.3223 137.305-55.3223ZM42.5781-25.9766C36.5723-25.9766 31.6406-31.0059 31.6406-36.9629C31.6406-42.9199 36.6699-47.8516 42.5781-47.8516C48.584-47.8516 53.4668-43.0176 53.4668-36.9629C53.4668-31.0059 48.584-25.9766 42.5781-25.9766ZM97.5098 6.73828C86.8164 6.73828 78.0762-2.05078 78.0762-12.8418C78.0762-23.5352 86.8164-32.3242 97.5098-32.3242C108.301-32.3242 117.041-23.5352 117.041-12.8418C117.041-1.51367 108.887 6.73828 97.5098 6.73828Z"/>
  </g>
  <g id="Bold-L" transform="matrix(1 0 0 1 2249.67 1556)">
   <path d="M95.6055 30.1758C124.268 30.1758 143.457 19.9219 143.457 4.6875C143.457-8.39844 133.203-10.791 133.203-18.457C133.203-29.0527 169.336-30.0293 169.336-57.1289C169.336-83.8867 141.602-101.611 100.244-101.611C47.0215-101.611 11.2793-74.3164 11.2793-34.7656C11.2793 4.10156 45.2148 30.1758 95.6055 30.1758ZM102.49-60.1562C96.582-60.1562 91.6992-64.9414 91.6992-70.8496C91.6992-76.8066 96.582-81.5918 102.49-81.5918C108.447-81.5918 113.232-76.8555 113.232-70.8496C113.232-64.9414 108.447-60.1562 102.49-60.1562ZM67.334-49.5605C59.9121-49.5605 53.9551-55.4199 53.9551-62.8906C53.9551-70.2637 59.9121-76.0742 67.334-76.0742C74.6094-76.0742 80.6152-70.2637 80.6152-62.8906C80.6152-55.4199 74.6582-49.5605 67.334-49.5605ZM133.789-54.834C128.955-54.834 125-58.6914 125-63.5254C125-68.3105 128.955-72.2168 133.789-72.2168C138.574-72.2168 142.432-68.0664 142.432-63.5254C142.432-58.8867 138.574-54.834 133.789-54.834ZM41.9434-26.5137C36.084-26.5137 31.2988-31.3965 31.2988-37.2559C31.2988-42.9688 36.2305-47.8027 41.9434-47.8027C47.8027-47.8027 52.4902-43.1152 52.4902-37.2559C52.4902-31.3965 47.7539-26.5137 41.9434-26.5137ZM95.0684 5.41992C84.9121 5.41992 76.6113-2.88086 76.6113-13.1348C76.6113-23.291 84.9121-31.6406 95.0684-31.6406C105.322-31.6406 113.623-23.291 113.623-13.1348C113.623-2.53906 105.713 5.41992 95.0684 5.41992Z"/>
  </g>
  <g id="Semibold-L" transform="matrix(1 0 0 1 1954.4 1556)">
   <path d="M94.2871 28.8086C121.973 28.8086 140.527 18.9941 140.527 4.44336C140.527-8.34961 130.127-10.7422 130.127-18.457C130.127-29.1992 166.455-30.2246 166.455-56.8848C166.455-83.0566 139.355-100.342 98.9258-100.342C46.5332-100.342 11.2793-73.7305 11.2793-34.7656C11.2793 3.27148 44.7266 28.8086 94.2871 28.8086ZM100.879-59.8633C95.0684-59.8633 90.2344-64.5508 90.2344-70.4102C90.2344-76.2695 95.0684-80.957 100.879-80.957C106.738-80.957 111.426-76.2695 111.426-70.4102C111.426-64.5508 106.738-59.8633 100.879-59.8633ZM66.2598-49.5117C58.8867-49.5117 52.9785-55.3223 52.9785-62.7441C52.9785-70.0195 58.8867-75.7812 66.2598-75.7812C73.5352-75.7812 79.4922-70.0195 79.4922-62.7441C79.4922-55.3223 73.5352-49.5117 66.2598-49.5117ZM131.396-54.4922C126.611-54.4922 122.803-58.252 122.803-63.0371C122.803-67.7246 126.66-71.5332 131.396-71.5332C136.084-71.5332 139.844-67.5781 139.844-63.0371C139.844-58.3984 136.084-54.4922 131.396-54.4922ZM41.4551-26.9043C35.7422-26.9043 31.0547-31.6895 31.0547-37.4023C31.0547-43.0176 35.8887-47.7539 41.4551-47.7539C47.2168-47.7539 51.8066-43.1641 51.8066-37.4023C51.8066-31.6895 47.168-26.9043 41.4551-26.9043ZM93.4082 4.54102C83.5938 4.54102 75.6348-3.4668 75.6348-13.3301C75.6348-23.1445 83.5938-31.2012 93.4082-31.2012C103.271-31.2012 111.279-23.1445 111.279-13.3301C111.279-3.27148 103.516 4.54102 93.4082 4.54102Z"/>
  </g>
  <g id="Medium-L" transform="matrix(1 0 0 1 1658.79 1556)">
   <path d="M93.3105 27.7344C120.264 27.7344 138.33 18.2617 138.33 4.24805C138.33-8.30078 127.783-10.6934 127.783-18.457C127.783-29.3457 164.258-30.3223 164.258-56.7383C164.258-82.4219 137.646-99.4141 97.9492-99.4141C46.1426-99.4141 11.2793-73.291 11.2793-34.7656C11.2793 2.63672 44.3359 27.7344 93.3105 27.7344ZM99.6582-59.6191C93.8965-59.6191 89.1113-64.2578 89.1113-70.0684C89.1113-75.8301 93.8965-80.4688 99.6582-80.4688C105.469-80.4688 110.059-75.8301 110.059-70.0684C110.059-64.2578 105.469-59.6191 99.6582-59.6191ZM65.4785-49.4141C58.1543-49.4141 52.2461-55.2246 52.2461-62.5977C52.2461-69.873 58.1055-75.5859 65.4785-75.5859C72.7051-75.5859 78.6133-69.8242 78.6133-62.5977C78.6133-55.2246 72.7051-49.4141 65.4785-49.4141ZM129.59-54.248C124.854-54.248 121.094-57.959 121.094-62.6465C121.094-67.2363 124.902-71.0449 129.59-71.0449C134.131-71.0449 137.891-67.1875 137.891-62.6465C137.891-58.0078 134.18-54.248 129.59-54.248ZM41.1133-27.1973C35.498-27.1973 30.8594-31.8848 30.8594-37.5488C30.8594-43.0664 35.6445-47.7051 41.1133-47.7051C46.7773-47.7051 51.3184-43.2129 51.3184-37.5488C51.3184-31.8848 46.7285-27.1973 41.1133-27.1973ZM92.1387 3.85742C82.6172 3.85742 74.8535-3.95508 74.8535-13.5254C74.8535-23.0469 82.6172-30.8105 92.1387-30.8105C101.709-30.8105 109.521-23.0469 109.521-13.5254C109.521-3.80859 101.855 3.85742 92.1387 3.85742Z"/>
  </g>
  <g id="Regular-L" transform="matrix(1 0 0 1 1363.52 1556)">
   <path d="M91.9922 26.416C117.969 26.416 135.449 17.334 135.449 3.95508C135.449-8.25195 124.756-10.6445 124.756-18.457C124.756-29.4922 161.377-30.5176 161.377-56.4941C161.377-81.5918 135.4-98.1445 96.6797-98.1445C45.6543-98.1445 11.2793-72.7539 11.2793-34.7656C11.2793 1.80664 43.8477 26.416 91.9922 26.416ZM98.0469-59.3262C92.3828-59.3262 87.6953-63.916 87.6953-69.5801C87.6953-75.2441 92.3828-79.8828 98.0469-79.8828C103.76-79.8828 108.301-75.293 108.301-69.5801C108.301-63.8672 103.76-59.3262 98.0469-59.3262ZM64.4531-49.3652C57.1289-49.3652 51.2695-55.0781 51.2695-62.4512C51.2695-69.6289 57.1289-75.3418 64.4531-75.3418C71.6309-75.3418 77.4902-69.6289 77.4902-62.4512C77.4902-55.0781 71.6309-49.3652 64.4531-49.3652ZM127.197-53.9062C122.559-53.9062 118.848-57.5684 118.848-62.1582C118.848-66.6504 122.607-70.3613 127.197-70.3613C131.641-70.3613 135.303-66.6504 135.303-62.1582C135.303-57.5195 131.689-53.9062 127.197-53.9062ZM40.6738-27.5879C35.1562-27.5879 30.6152-32.1777 30.6152-37.6953C30.6152-43.0664 35.3516-47.6562 40.6738-47.6562C46.2402-47.6562 50.6348-43.2617 50.6348-37.6953C50.6348-32.1777 46.1426-27.5879 40.6738-27.5879ZM90.4785 2.97852C81.3477 2.97852 73.877-4.54102 73.877-13.7207C73.877-22.9004 81.3477-30.3711 90.4785-30.3711C99.707-30.3711 107.178-22.9004 107.178-13.7207C107.178-4.54102 99.707 2.97852 90.4785 2.97852Z"/>
  </g>
  <g id="Light-L" transform="matrix(1 0 0 1 1067.9 1556)">
   <path d="M90.918 25.293C116.162 25.293 133.203 16.6504 133.203 3.95508C133.203-8.05664 122.461-9.96094 122.461-18.3105C122.461-30.6641 159.18-30.3711 159.18-56.4941C159.18-80.9082 133.691-97.0215 95.5566-97.0215C45.1172-97.0215 11.2793-72.0703 11.2793-34.7656C11.2793 1.17188 43.3594 25.293 90.918 25.293ZM96.9238-59.3262C91.5039-59.3262 87.0117-63.7207 87.0117-69.1406C87.0117-74.5605 91.5039-78.9551 96.9238-78.9551C102.441-78.9551 106.738-74.6094 106.738-69.1406C106.738-63.6719 102.441-59.3262 96.9238-59.3262ZM63.3789-49.3652C56.1523-49.3652 50.3418-55.0293 50.3418-62.207C50.3418-69.3359 56.1523-74.9512 63.3789-74.9512C70.459-74.9512 76.2207-69.2871 76.2207-62.207C76.2207-55.0293 70.5078-49.3652 63.3789-49.3652ZM125.342-54.1016C120.996-54.1016 117.529-57.5195 117.529-61.8164C117.529-66.0645 121.045-69.4824 125.342-69.4824C129.492-69.4824 132.91-66.0645 132.91-61.8164C132.91-57.4707 129.541-54.1016 125.342-54.1016ZM40.1367-28.3203C35.0098-28.3203 30.7129-32.666 30.7129-37.8418C30.7129-42.9199 35.0586-47.168 40.1367-47.168C45.3125-47.168 49.4629-43.0176 49.4629-37.8418C49.4629-32.666 45.2148-28.3203 40.1367-28.3203ZM89.209 2.63672C80.0781 2.63672 72.7051-4.73633 72.7051-13.8672C72.7051-22.9492 80.0781-30.3711 89.209-30.3711C98.3398-30.3711 105.713-22.9492 105.713-13.8672C105.713-4.73633 98.3398 2.63672 89.209 2.63672Z"/>
  </g>
  <g id="Thin-L" transform="matrix(1 0 0 1 772.658 1556)">
   <path d="M89.4531 23.8281C113.721 23.8281 130.273 15.7227 130.273 3.95508C130.273-7.8125 119.434-8.98438 119.434-18.1641C119.434-32.2754 156.25-30.2246 156.25-56.4941C156.25-79.9805 131.445-95.5566 94.0918-95.5566C44.4336-95.5566 11.2793-71.1914 11.2793-34.7656C11.2793 0.244141 42.6758 23.8281 89.4531 23.8281ZM95.459-59.3262C90.332-59.3262 86.1328-63.4766 86.1328-68.5547C86.1328-73.6328 90.332-77.7832 95.459-77.7832C100.684-77.7832 104.688-73.7305 104.688-68.5547C104.688-63.4277 100.684-59.3262 95.459-59.3262ZM61.9141-49.3652C54.834-49.3652 49.1699-54.9316 49.1699-61.9629C49.1699-68.8965 54.834-74.4141 61.9141-74.4141C68.8965-74.4141 74.5117-68.8477 74.5117-61.9629C74.5117-54.9316 68.9453-49.3652 61.9141-49.3652ZM122.9-54.3457C118.896-54.3457 115.723-57.4707 115.723-61.377C115.723-65.2344 118.945-68.3594 122.9-68.3594C126.611-68.3594 129.785-65.2344 129.785-61.377C129.785-57.4219 126.709-54.3457 122.9-54.3457ZM39.3555-29.2969C34.7656-29.2969 30.8105-33.252 30.8105-37.9883C30.8105-42.6758 34.7168-46.4844 39.3555-46.4844C44.1406-46.4844 47.9004-42.7246 47.9004-37.9883C47.9004-33.252 43.9941-29.2969 39.3555-29.2969ZM87.5 2.24609C78.4668 2.24609 71.1914-5.0293 71.1914-14.0625C71.1914-23.0957 78.4668-30.3711 87.5-30.3711C96.5332-30.3711 103.809-23.0957 103.809-14.0625C103.809-5.0293 96.5332 2.24609 87.5 2.24609Z"/>
  </g>
  <g id="Ultralight-L" transform="matrix(1 0 0 1 476.703 1556)">
   <path d="M88.6719 23.0957C112.5 23.0957 128.76 15.2344 128.76 3.95508C128.76-7.71484 117.871-8.49609 117.871-18.1152C117.871-33.1055 154.736-30.1758 154.736-56.4941C154.736-79.541 130.322-94.8242 93.3594-94.8242C44.0918-94.8242 11.2793-70.752 11.2793-34.7656C11.2793-0.195312 42.334 23.0957 88.6719 23.0957ZM94.7266-59.3262C89.6973-59.3262 85.6934-63.3789 85.6934-68.2617C85.6934-73.1445 89.6973-77.1973 94.7266-77.1973C99.8047-77.1973 103.662-73.2422 103.662-68.2617C103.662-63.2812 99.8047-59.3262 94.7266-59.3262ZM61.1816-49.3652C54.1504-49.3652 48.5352-54.8828 48.5352-61.8164C48.5352-68.7012 54.1504-74.1211 61.1816-74.1211C68.0664-74.1211 73.6816-68.6035 73.6816-61.8164C73.6816-54.8828 68.1641-49.3652 61.1816-49.3652ZM121.631-54.4922C117.822-54.4922 114.844-57.4707 114.844-61.1328C114.844-64.8438 117.871-67.8223 121.631-67.8223C125.146-67.8223 128.174-64.8438 128.174-61.1328C128.174-57.373 125.244-54.4922 121.631-54.4922ZM39.0137-29.7852C34.6191-29.7852 30.8594-33.5938 30.8594-38.0371C30.8594-42.5293 34.5215-46.0938 39.0137-46.0938C43.5547-46.0938 47.0703-42.5781 47.0703-38.0371C47.0703-33.5938 43.4082-29.7852 39.0137-29.7852ZM86.6211 2.00195C77.6367 2.00195 70.4102-5.17578 70.4102-14.1602C70.4102-23.1445 77.6367-30.3711 86.6211-30.3711C95.6055-30.3711 102.783-23.1445 102.783-14.1602C102.783-5.17578 95.6055 2.00195 86.6211 2.00195Z"/>
  </g>
  <g id="Black-M" transform="matrix(1 0 0 1 2858.4 1126)">
   <path d="M78.5645 20.166C104.199 20.166 121.387 10.791 121.387-3.32031C121.387-14.502 113.916-16.1133 113.916-22.168C113.916-30.4199 141.26-30.5176 141.26-53.125C141.26-75.8789 117.627-90.9668 82.1289-90.9668C38.1348-90.9668 8.74023-67.334 8.74023-34.8145C8.74023-1.80664 36.7188 20.166 78.5645 20.166ZM85.1562-55.7617C80.3223-55.7617 76.3672-59.6191 76.3672-64.4043C76.3672-69.2871 80.3223-73.1445 85.1562-73.1445C89.8926-73.1445 93.7988-69.2871 93.7988-64.4043C93.7988-59.6191 89.8926-55.7617 85.1562-55.7617ZM55.6641-46.6797C49.8535-46.6797 45.1172-51.3672 45.1172-57.2266C45.1172-63.0859 49.8047-67.627 55.6641-67.627C61.4258-67.627 66.2598-63.0859 66.2598-57.2266C66.2598-51.3672 61.4258-46.6797 55.6641-46.6797ZM112.012-51.8555C108.105-51.8555 104.834-54.9316 104.834-58.9355C104.834-62.8906 108.105-66.1133 112.012-66.1133C116.016-66.1133 119.189-62.3535 119.189-58.9355C119.189-55.4688 116.016-51.8555 112.012-51.8555ZM33.9844-27.3926C29.1504-27.3926 25.2441-31.4453 25.2441-36.1816C25.2441-40.9668 29.1504-44.8242 33.9844-44.8242C38.7695-44.8242 42.6758-40.9668 42.6758-36.1816C42.6758-31.4453 38.7695-27.3926 33.9844-27.3926ZM79.4922-0.439453C70.2148-0.439453 62.6953-8.00781 62.6953-17.334C62.6953-26.6113 70.2148-34.2773 79.4922-34.2773C88.8672-34.2773 96.3867-26.6113 96.3867-17.334C96.3867-7.22656 89.6973-0.439453 79.4922-0.439453Z"/>
  </g>
  <g id="Heavy-M" transform="matrix(1 0 0 1 2563.45 1126)">
   <path d="M77.002 18.5059C101.465 18.5059 117.773 9.61914 117.773-3.66211C117.773-14.502 110.156-16.2109 110.156-22.2168C110.156-30.3711 137.744-30.7617 137.744-52.7832C137.744-74.8535 114.844-89.502 80.5664-89.502C37.5488-89.502 8.74023-66.6992 8.74023-34.8145C8.74023-2.83203 36.1328 18.5059 77.002 18.5059ZM83.1543-55.3223C78.418-55.3223 74.4629-59.1309 74.4629-63.8672C74.4629-68.6523 78.418-72.4609 83.1543-72.4609C87.8418-72.4609 91.6992-68.6523 91.6992-63.8672C91.6992-59.1309 87.8418-55.3223 83.1543-55.3223ZM54.4434-46.582C48.6816-46.582 43.9453-51.1719 43.9453-57.0312C43.9453-62.8418 48.6328-67.3828 54.4434-67.3828C60.2051-67.3828 64.9414-62.8418 64.9414-57.0312C64.9414-51.1719 60.2051-46.582 54.4434-46.582ZM109.082-51.3184C105.225-51.3184 102.051-54.3945 102.051-58.3008C102.051-62.1582 105.225-65.3809 109.082-65.3809C112.988-65.3809 116.113-61.7676 116.113-58.3008C116.113-54.7852 112.988-51.3184 109.082-51.3184ZM33.4473-27.7344C28.7598-27.7344 24.8535-31.7383 24.8535-36.377C24.8535-41.0645 28.7598-44.9219 33.4473-44.9219C38.1836-44.9219 42.041-41.1133 42.041-36.377C42.041-31.7383 38.1836-27.7344 33.4473-27.7344ZM77.4414-1.61133C68.6523-1.61133 61.5723-8.78906 61.5723-17.627C61.5723-26.3672 68.6523-33.5938 77.4414-33.5938C86.3281-33.5938 93.457-26.3672 93.457-17.627C93.457-8.20312 86.9629-1.61133 77.4414-1.61133Z"/>
  </g>
  <g id="Bold-M" transform="matrix(1 0 0 1 2268.71 1126)">
   <path d="M75.2441 16.6504C98.3398 16.6504 113.77 8.34961 113.77-4.10156C113.77-14.4531 105.957-16.3574 105.957-22.2168C105.957-30.2734 133.789-31.0547 133.789-52.3926C133.789-73.6816 111.768-87.793 78.8086-87.793C36.9141-87.793 8.74023-66.0156 8.74023-34.8633C8.74023-4.00391 35.498 16.6504 75.2441 16.6504ZM80.8594-54.834C76.2207-54.834 72.3633-58.5938 72.3633-63.2812C72.3633-67.9688 76.2207-71.7285 80.8594-71.7285C85.5469-71.7285 89.3066-67.9688 89.3066-63.2812C89.3066-58.5938 85.5469-54.834 80.8594-54.834ZM53.125-46.4355C47.3633-46.4355 42.6758-51.0254 42.6758-56.8359C42.6758-62.5977 47.3145-67.0898 53.125-67.0898C58.7891-67.0898 63.5254-62.5488 63.5254-56.8359C63.5254-51.0254 58.8379-46.4355 53.125-46.4355ZM105.811-50.7324C102.002-50.7324 98.877-53.7598 98.877-57.6172C98.877-61.377 102.002-64.502 105.811-64.502C109.619-64.502 112.695-61.1328 112.695-57.6172C112.695-54.0039 109.668-50.7324 105.811-50.7324ZM32.9102-28.125C28.2715-28.125 24.4629-32.0312 24.4629-36.6211C24.4629-41.2109 28.3691-45.0195 32.9102-45.0195C37.5488-45.0195 41.3086-41.2598 41.3086-36.6211C41.3086-32.0312 37.5488-28.125 32.9102-28.125ZM75.1465-2.92969C66.9922-2.92969 60.3027-9.66797 60.3027-17.9199C60.3027-26.123 66.9922-32.8613 75.1465-32.8613C83.4473-32.8613 90.1367-26.123 90.1367-17.9199C90.1367-9.27734 83.8867-2.92969 75.1465-2.92969Z"/>
  </g>
  <g id="Semibold-M" transform="matrix(1 0 0 1 1973.34 1126)">
   <path d="M74.0234 15.3809C96.1914 15.3809 111.035 7.4707 111.035-4.3457C111.035-14.4531 103.076-16.4551 103.076-22.2656C103.076-30.2246 131.104-31.25 131.104-52.1484C131.104-72.9004 109.619-86.6211 77.6367-86.6211C36.4258-86.6211 8.74023-65.5273 8.74023-34.8633C8.74023-4.78516 35.0586 15.3809 74.0234 15.3809ZM79.3457-54.4922C74.707-54.4922 70.8984-58.2031 70.8984-62.8418C70.8984-67.4805 74.707-71.2402 79.3457-71.2402C83.9355-71.2402 87.6953-67.4805 87.6953-62.8418C87.6953-58.2031 83.9355-54.4922 79.3457-54.4922ZM52.1973-46.3379C46.4355-46.3379 41.7969-50.8789 41.7969-56.6895C41.7969-62.4023 46.4355-66.8945 52.1973-66.8945C57.8613-66.8945 62.5-62.4023 62.5-56.6895C62.5-50.8789 57.8613-46.3379 52.1973-46.3379ZM103.564-50.293C99.7559-50.293 96.6797-53.3203 96.6797-57.1289C96.6797-60.8887 99.8047-63.9648 103.564-63.9648C107.324-63.9648 110.352-60.6934 110.352-57.1289C110.352-53.4668 107.324-50.293 103.564-50.293ZM32.5195-28.418C27.9297-28.418 24.1699-32.2266 24.1699-36.8164C24.1699-41.2598 28.0762-45.0684 32.5195-45.0684C37.1094-45.0684 40.7715-41.4062 40.7715-36.8164C40.7715-32.2266 37.0605-28.418 32.5195-28.418ZM73.584-3.85742C65.7715-3.85742 59.4238-10.2539 59.4238-18.1152C59.4238-25.9277 65.7715-32.373 73.584-32.373C81.4941-32.373 87.8906-25.9277 87.8906-18.1152C87.8906-10.0098 81.7383-3.85742 73.584-3.85742Z"/>
  </g>
  <g id="Medium-M" transform="matrix(1 0 0 1 1677.68 1126)">
   <path d="M73.1445 14.4043C94.5801 14.4043 108.936 6.78711 108.936-4.58984C108.936-14.4531 100.879-16.5039 100.879-22.2656C100.879-30.1758 129.004-31.4453 129.004-51.9531C129.004-72.3145 108.008-85.7422 76.709-85.7422C36.084-85.7422 8.74023-65.1855 8.74023-34.8633C8.74023-5.37109 34.7168 14.4043 73.1445 14.4043ZM78.125-54.248C73.584-54.248 69.7754-57.9102 69.7754-62.5C69.7754-67.1387 73.584-70.8496 78.125-70.8496C82.7637-70.8496 86.4258-67.1387 86.4258-62.5C86.4258-57.9102 82.7637-54.248 78.125-54.248ZM51.4648-46.2402C45.752-46.2402 41.1133-50.7812 41.1133-56.5918C41.1133-62.2559 45.752-66.748 51.4648-66.748C57.1289-66.748 61.7676-62.2559 61.7676-56.5918C61.7676-50.7812 57.1289-46.2402 51.4648-46.2402ZM101.855-50C98.0957-50 95.0195-52.9785 95.0195-56.7383C95.0195-60.4492 98.0957-63.5254 101.855-63.5254C105.566-63.5254 108.545-60.3516 108.545-56.7383C108.545-53.0762 105.566-50 101.855-50ZM32.2266-28.6133C27.6855-28.6133 23.9746-32.373 23.9746-36.9141C23.9746-41.3574 27.832-45.1172 32.2266-45.1172C36.7676-45.1172 40.4297-41.4551 40.4297-36.9141C40.4297-32.373 36.7188-28.6133 32.2266-28.6133ZM72.4121-4.54102C64.8926-4.54102 58.7402-10.6934 58.7402-18.2617C58.7402-25.7812 64.8926-31.9824 72.4121-31.9824C79.9805-31.9824 86.1328-25.7812 86.1328-18.2617C86.1328-10.5957 80.127-4.54102 72.4121-4.54102Z"/>
  </g>
  <g id="Regular-M" transform="matrix(1 0 0 1 1382.29 1126)">
   <path d="M71.9238 13.1836C92.4805 13.1836 106.201 5.9082 106.201-4.83398C106.201-14.4531 97.998-16.6016 97.998-22.2656C97.998-30.0781 126.367-31.6406 126.367-51.709C126.367-71.5332 105.908-84.6191 75.5371-84.6191C35.6445-84.6191 8.74023-64.6973 8.74023-34.8633C8.74023-6.15234 34.2773 13.1836 71.9238 13.1836ZM76.6113-53.9062C72.1191-53.9062 68.3105-57.5684 68.3105-62.1094C68.3105-66.6504 72.1191-70.3125 76.6113-70.3125C81.2012-70.3125 84.8145-66.6504 84.8145-62.1094C84.8145-57.5684 81.2012-53.9062 76.6113-53.9062ZM50.5859-46.1914C44.8242-46.1914 40.2344-50.6836 40.2344-56.4453C40.2344-62.0605 44.8242-66.5527 50.5859-66.5527C56.1523-66.5527 60.791-62.0605 60.791-56.4453C60.791-50.6836 56.2012-46.1914 50.5859-46.1914ZM99.6094-49.6094C95.8984-49.6094 92.8711-52.5391 92.8711-56.25C92.8711-59.9121 95.8984-62.9395 99.6094-62.9395C103.271-62.9395 106.201-59.9121 106.201-56.25C106.201-52.5391 103.271-49.6094 99.6094-49.6094ZM31.8359-28.9062C27.3438-28.9062 23.6816-32.6172 23.6816-37.1094C23.6816-41.4062 27.5391-45.166 31.8359-45.166C36.3281-45.166 39.8926-41.6016 39.8926-37.1094C39.8926-32.6172 36.2793-28.9062 31.8359-28.9062ZM70.8496-5.46875C63.7207-5.46875 57.8613-11.2793 57.8613-18.457C57.8613-25.5859 63.7207-31.4453 70.8496-31.4453C78.0273-31.4453 83.8867-25.5859 83.8867-18.457C83.8867-11.2793 78.0273-5.46875 70.8496-5.46875Z"/>
  </g>
  <g id="Light-M" transform="matrix(1 0 0 1 1086.58 1126)">
   <path d="M70.9473 12.1582C90.8203 12.1582 104.248 5.27344 104.248-4.83398C104.248-14.2578 95.9473-15.9668 95.9473-22.168C95.9473-31.1523 124.365-31.543 124.365-51.709C124.365-70.8984 104.395-83.6426 74.5605-83.6426C35.2051-83.6426 8.74023-64.1113 8.74023-34.8633C8.74023-6.73828 33.8379 12.1582 70.9473 12.1582ZM75.6348-53.9062C71.2891-53.9062 67.7246-57.373 67.7246-61.7188C67.7246-66.0156 71.2891-69.5312 75.6348-69.5312C79.9805-69.5312 83.4473-66.0645 83.4473-61.7188C83.4473-57.373 79.9805-53.9062 75.6348-53.9062ZM49.6094-46.1914C43.9453-46.1914 39.4043-50.5859 39.4043-56.25C39.4043-61.8164 43.9453-66.2109 49.6094-66.2109C55.127-66.2109 59.6191-61.7676 59.6191-56.25C59.6191-50.5859 55.127-46.1914 49.6094-46.1914ZM97.9492-49.7559C94.4824-49.7559 91.6992-52.5391 91.6992-55.957C91.6992-59.375 94.4824-62.1582 97.9492-62.1582C101.318-62.1582 104.102-59.375 104.102-55.957C104.102-52.4902 101.367-49.7559 97.9492-49.7559ZM31.3477-29.541C27.1973-29.541 23.7793-33.0078 23.7793-37.207C23.7793-41.2598 27.2949-44.6777 31.3477-44.6777C35.5469-44.6777 38.8672-41.3574 38.8672-37.207C38.8672-33.0078 35.4492-29.541 31.3477-29.541ZM69.7266-5.71289C62.6465-5.71289 56.8359-11.5234 56.8359-18.6035C56.8359-25.6836 62.6465-31.4453 69.7266-31.4453C76.8066-31.4453 82.5684-25.6836 82.5684-18.6035C82.5684-11.5234 76.8066-5.71289 69.7266-5.71289Z"/>
  </g>
  <g id="Thin-M" transform="matrix(1 0 0 1 791.188 1126)">
   <path d="M69.6289 10.8398C88.6719 10.8398 101.611 4.44336 101.611-4.83398C101.611-14.0625 93.2129-15.0879 93.2129-22.0703C93.2129-32.6172 121.729-31.3965 121.729-51.709C121.729-70.1172 102.344-82.3242 73.2422-82.3242C34.5703-82.3242 8.74023-63.2812 8.74023-34.8633C8.74023-7.51953 33.2031 10.8398 69.6289 10.8398ZM74.3164-53.9062C70.2637-53.9062 66.9434-57.1777 66.9434-61.1816C66.9434-65.1855 70.2637-68.457 74.3164-68.457C78.418-68.457 81.5918-65.2344 81.5918-61.1816C81.5918-57.1289 78.418-53.9062 74.3164-53.9062ZM48.291-46.1914C42.7734-46.1914 38.3301-50.4883 38.3301-56.0059C38.3301-61.4258 42.7734-65.7227 48.291-65.7227C53.7109-65.7227 58.1055-61.377 58.1055-56.0059C58.1055-50.4883 53.7598-46.1914 48.291-46.1914ZM95.8008-50C92.5781-50 90.0879-52.4902 90.0879-55.5664C90.0879-58.6426 92.627-61.1816 95.8008-61.1816C98.7793-61.1816 101.27-58.6426 101.27-55.5664C101.27-52.4414 98.8281-50 95.8008-50ZM30.6641-30.4199C27.002-30.4199 23.8281-33.5938 23.8281-37.3047C23.8281-41.0156 26.9531-44.0918 30.6641-44.0918C34.4727-44.0918 37.4512-41.1133 37.4512-37.3047C37.4512-33.5938 34.375-30.4199 30.6641-30.4199ZM68.1641-6.10352C61.1816-6.10352 55.5176-11.7676 55.5176-18.7988C55.5176-25.7812 61.1816-31.4453 68.1641-31.4453C75.1953-31.4453 80.8594-25.7812 80.8594-18.7988C80.8594-11.7676 75.1953-6.10352 68.1641-6.10352Z"/>
  </g>
  <g id="Ultralight-M" transform="matrix(1 0 0 1 495.16 1126)">
   <path d="M68.9453 10.2051C87.5488 10.2051 100.244 4.05273 100.244-4.83398C100.244-13.916 91.8457-14.6484 91.8457-21.9727C91.8457-33.3496 120.361-31.3477 120.361-51.709C120.361-69.6777 101.318-81.6406 72.5586-81.6406C34.2773-81.6406 8.74023-62.8906 8.74023-34.8633C8.74023-7.91016 32.9102 10.2051 68.9453 10.2051ZM73.6328-53.9062C69.7266-53.9062 66.5527-57.0801 66.5527-60.9375C66.5527-64.7461 69.7266-67.9199 73.6328-67.9199C77.5879-67.9199 80.6641-64.8438 80.6641-60.9375C80.6641-56.9824 77.5879-53.9062 73.6328-53.9062ZM47.6562-46.1914C42.1387-46.1914 37.793-50.4883 37.793-55.8594C37.793-61.2305 42.1387-65.4785 47.6562-65.4785C52.9785-65.4785 57.373-61.1816 57.373-55.8594C57.373-50.4883 53.0762-46.1914 47.6562-46.1914ZM94.6777-50.0977C91.6016-50.0977 89.2578-52.4414 89.2578-55.3711C89.2578-58.3008 91.6992-60.6445 94.6777-60.6445C97.4609-60.6445 99.8047-58.3008 99.8047-55.3711C99.8047-52.3926 97.5098-50.0977 94.6777-50.0977ZM30.3223-30.8594C26.8555-30.8594 23.877-33.8379 23.877-37.4023C23.877-40.918 26.8066-43.75 30.3223-43.75C33.9355-43.75 36.7188-40.9668 36.7188-37.4023C36.7188-33.8379 33.7891-30.8594 30.3223-30.8594ZM67.3828-6.29883C60.4004-6.29883 54.7852-11.9141 54.7852-18.8965C54.7852-25.8301 60.4004-31.4453 67.3828-31.4453C74.3652-31.4453 79.9805-25.8301 79.9805-18.8965C79.9805-11.9141 74.3652-6.29883 67.3828-6.29883Z"/>
  </g>
  <g id="Black-S" transform="matrix(1 0 0 1 2874.78 696)">
   <path d="M61.4258 8.05664C81.4453 8.05664 94.8242 0.732422 94.8242-10.2539C94.8242-18.9941 88.9648-20.2637 88.9648-25C88.9648-31.4453 110.4-31.543 110.4-49.2188C110.4-66.9922 91.9434-78.8086 64.209-78.8086C29.834-78.8086 6.83594-60.3516 6.83594-34.9121C6.83594-9.13086 28.7109 8.05664 61.4258 8.05664ZM66.5527-51.2695C62.793-51.2695 59.668-54.2969 59.668-58.0566C59.668-61.8652 62.793-64.8926 66.5527-64.8926C70.2637-64.8926 73.3398-61.8652 73.3398-58.0566C73.3398-54.2969 70.2637-51.2695 66.5527-51.2695ZM43.5059-44.1895C38.9648-44.1895 35.2539-47.8516 35.2539-52.4414C35.2539-57.0312 38.916-60.5957 43.5059-60.5957C48.0469-60.5957 51.8066-57.0312 51.8066-52.4414C51.8066-47.8516 48.0469-44.1895 43.5059-44.1895ZM87.5488-48.1934C84.4727-48.1934 81.9336-50.6348 81.9336-53.7598C81.9336-56.8359 84.4727-59.375 87.5488-59.375C90.6738-59.375 93.1641-56.4453 93.1641-53.7598C93.1641-51.0254 90.6738-48.1934 87.5488-48.1934ZM26.5625-29.1016C22.8027-29.1016 19.7266-32.2754 19.7266-35.9863C19.7266-39.7461 22.8027-42.7734 26.5625-42.7734C30.3223-42.7734 33.3984-39.7461 33.3984-35.9863C33.3984-32.2754 30.3223-29.1016 26.5625-29.1016ZM62.1094-8.05664C54.8828-8.05664 49.0234-13.9648 49.0234-21.2402C49.0234-28.4668 54.8828-34.4238 62.1094-34.4238C69.4336-34.4238 75.293-28.4668 75.293-21.2402C75.293-13.3789 70.0684-8.05664 62.1094-8.05664Z"/>
  </g>
  <g id="Heavy-S" transform="matrix(1 0 0 1 2579.32 696)">
   <path d="M60.3516 6.88477C79.4922 6.88477 92.2852-0.0976562 92.2852-10.5469C92.2852-18.9941 86.3281-20.4102 86.3281-25.0488C86.3281-31.25 107.91-31.7383 107.91-48.9746C107.91-66.2598 89.9902-77.7832 63.1348-77.7832C29.4434-77.7832 6.83594-59.9609 6.83594-34.9121C6.83594-9.86328 28.3203 6.88477 60.3516 6.88477ZM65.1367-50.9277C61.377-50.9277 58.3008-53.9551 58.3008-57.666C58.3008-61.4746 61.377-64.4531 65.1367-64.4531C68.8477-64.4531 71.875-61.4746 71.875-57.666C71.875-53.9551 68.8477-50.9277 65.1367-50.9277ZM42.6758-44.0918C38.1836-44.0918 34.4727-47.7539 34.4727-52.3438C34.4727-56.8848 38.1348-60.4492 42.6758-60.4492C47.2168-60.4492 50.9277-56.8848 50.9277-52.3438C50.9277-47.7539 47.2168-44.0918 42.6758-44.0918ZM85.498-47.7539C82.4219-47.7539 79.9316-50.1953 79.9316-53.3203C79.9316-56.3477 82.4219-58.8867 85.498-58.8867C88.5742-58.8867 91.0645-56.0547 91.0645-53.3203C91.0645-50.4883 88.5742-47.7539 85.498-47.7539ZM26.2207-29.2969C22.5098-29.2969 19.4336-32.4219 19.4336-36.1328C19.4336-39.8438 22.5586-42.8711 26.2207-42.8711C29.9805-42.8711 33.0078-39.8926 33.0078-36.1328C33.0078-32.4219 29.9805-29.2969 26.2207-29.2969ZM60.6934-8.93555C53.8574-8.93555 48.291-14.5508 48.291-21.4355C48.291-28.2715 53.8574-33.9355 60.6934-33.9355C67.627-33.9355 73.1934-28.2715 73.1934-21.4355C73.1934-14.1113 68.1152-8.93555 60.6934-8.93555Z"/>
  </g>
  <g id="Bold-S" transform="matrix(1 0 0 1 2283.97 696)">
   <path d="M59.1309 5.61523C77.3438 5.61523 89.502-0.976562 89.502-10.8398C89.502-18.9941 83.3496-20.6055 83.3496-25.0488C83.3496-31.0547 105.176-31.9824 105.176-48.6816C105.176-65.4785 87.8418-76.6113 61.9141-76.6113C29.0039-76.6113 6.83594-59.4727 6.83594-34.9609C6.83594-10.6445 27.8809 5.61523 59.1309 5.61523ZM63.5254-50.5859C59.8145-50.5859 56.7383-53.5645 56.7383-57.2754C56.7383-61.0352 59.8145-64.0137 63.5254-64.0137C67.2363-64.0137 70.2148-61.0352 70.2148-57.2754C70.2148-53.5645 67.2363-50.5859 63.5254-50.5859ZM41.7969-43.9941C37.2559-43.9941 33.5938-47.6074 33.5938-52.1973C33.5938-56.7383 37.2559-60.2539 41.7969-60.2539C46.2891-60.2539 50-56.7383 50-52.1973C50-47.6074 46.2891-43.9941 41.7969-43.9941ZM83.2031-47.3145C80.127-47.3145 77.6367-49.707 77.6367-52.832C77.6367-55.8594 80.127-58.3496 83.2031-58.3496C86.2305-58.3496 88.7207-55.6641 88.7207-52.832C88.7207-49.9023 86.2305-47.3145 83.2031-47.3145ZM25.8789-29.541C22.168-29.541 19.1406-32.6172 19.1406-36.3281C19.1406-39.9414 22.2656-43.0176 25.8789-43.0176C29.5898-43.0176 32.5684-40.0391 32.5684-36.3281C32.5684-32.6172 29.5898-29.541 25.8789-29.541ZM59.082-9.91211C52.6855-9.91211 47.4121-15.1855 47.4121-21.6309C47.4121-28.0762 52.6855-33.3496 59.082-33.3496C65.5762-33.3496 70.8008-28.0762 70.8008-21.6309C70.8008-14.8926 65.918-9.91211 59.082-9.91211Z"/>
  </g>
  <g id="Semibold-S" transform="matrix(1 0 0 1 1988.21 696)">
   <path d="M58.3008 4.73633C75.8301 4.73633 87.5488-1.61133 87.5488-11.0352C87.5488-18.9941 81.2988-20.752 81.2988-25.0977C81.2988-30.9082 103.271-32.1777 103.271-48.4863C103.271-64.9414 86.3281-75.8301 61.084-75.8301C28.6621-75.8301 6.83594-59.1797 6.83594-34.9609C6.83594-11.1816 27.5879 4.73633 58.3008 4.73633ZM62.4023-50.293C58.7402-50.293 55.6641-53.2715 55.6641-56.9824C55.6641-60.6934 58.7402-63.6719 62.4023-63.6719C66.1133-63.6719 69.0918-60.6934 69.0918-56.9824C69.0918-53.2715 66.1133-50.293 62.4023-50.293ZM41.1621-43.9453C36.6211-43.9453 32.959-47.5098 32.959-52.0996C32.959-56.5918 36.6211-60.1562 41.1621-60.1562C45.6543-60.1562 49.3164-56.5918 49.3164-52.0996C49.3164-47.5098 45.6543-43.9453 41.1621-43.9453ZM81.5918-46.9727C78.5645-46.9727 76.0742-49.4141 76.0742-52.4414C76.0742-55.4688 78.5645-57.959 81.5918-57.959C84.6191-57.959 87.0605-55.3711 87.0605-52.4414C87.0605-49.5117 84.6191-46.9727 81.5918-46.9727ZM25.6348-29.6875C21.9238-29.6875 18.8965-32.7637 18.8965-36.4258C18.8965-40.0391 22.0215-43.0664 25.6348-43.0664C29.2969-43.0664 32.2754-40.1367 32.2754-36.4258C32.2754-32.7637 29.2969-29.6875 25.6348-29.6875ZM58.0078-10.5957C51.8555-10.5957 46.8262-15.625 46.8262-21.7773C46.8262-27.9297 51.8555-32.959 58.0078-32.959C64.1602-32.959 69.1895-27.9297 69.1895-21.7773C69.1895-15.4297 64.3555-10.5957 58.0078-10.5957Z"/>
  </g>
  <g id="Medium-S" transform="matrix(1 0 0 1 1692.23 696)">
   <path d="M57.666 4.05273C74.707 4.05273 86.084-2.05078 86.084-11.2305C86.084-18.9941 79.7852-20.8008 79.7852-25.0977C79.7852-30.8105 101.807-32.2754 101.807-48.3398C101.807-64.502 85.2051-75.1953 60.498-75.1953C28.4668-75.1953 6.83594-58.9355 6.83594-34.9609C6.83594-11.6211 27.3926 4.05273 57.666 4.05273ZM61.5723-50.0977C57.9102-50.0977 54.8828-53.0762 54.8828-56.7871C54.8828-60.4492 57.9102-63.4277 61.5723-63.4277C65.2832-63.4277 68.2617-60.4492 68.2617-56.7871C68.2617-53.0762 65.2832-50.0977 61.5723-50.0977ZM40.7227-43.8477C36.1816-43.8477 32.5195-47.4609 32.5195-52.002C32.5195-56.4941 36.1816-60.0586 40.7227-60.0586C45.166-60.0586 48.8281-56.4941 48.8281-52.002C48.8281-47.4609 45.166-43.8477 40.7227-43.8477ZM80.4199-46.7285C77.3438-46.7285 74.9023-49.1699 74.9023-52.1973C74.9023-55.2246 77.3438-57.666 80.4199-57.666C83.3984-57.666 85.8398-55.127 85.8398-52.1973C85.8398-49.2188 83.3984-46.7285 80.4199-46.7285ZM25.4395-29.7852C21.7285-29.7852 18.75-32.8613 18.75-36.5234C18.75-40.0879 21.875-43.1641 25.4395-43.1641C29.1016-43.1641 32.0801-40.1855 32.0801-36.5234C32.0801-32.8613 29.1016-29.7852 25.4395-29.7852ZM57.1777-11.084C51.2695-11.084 46.3867-15.9668 46.3867-21.875C46.3867-27.7832 51.2695-32.666 57.1777-32.666C63.1348-32.666 67.9688-27.7832 67.9688-21.875C67.9688-15.8691 63.2324-11.084 57.1777-11.084Z"/>
  </g>
  <g id="Regular-S" transform="matrix(1 0 0 1 1396.45 696)">
   <path d="M56.8359 3.17383C73.2422 3.17383 84.1797-2.68555 84.1797-11.4258C84.1797-18.9941 77.7344-20.9473 77.7344-25.1465C77.7344-30.6641 99.9512-32.4707 99.9512-48.1445C99.9512-63.9648 83.6914-74.4141 59.668-74.4141C28.1738-74.4141 6.83594-58.5938 6.83594-34.9609C6.83594-12.1582 27.0996 3.17383 56.8359 3.17383ZM60.498-49.8535C56.8359-49.8535 53.8086-52.7832 53.8086-56.4941C53.8086-60.1562 56.8359-63.0859 60.498-63.0859C64.1602-63.0859 67.1387-60.1562 67.1387-56.4941C67.1387-52.7832 64.1602-49.8535 60.498-49.8535ZM40.0879-43.7988C35.5469-43.7988 31.8848-47.3633 31.8848-51.9043C31.8848-56.3965 35.5469-59.9609 40.0879-59.9609C44.5312-59.9609 48.1445-56.3965 48.1445-51.9043C48.1445-47.3633 44.5312-43.7988 40.0879-43.7988ZM78.8574-46.4355C75.7812-46.4355 73.3398-48.8281 73.3398-51.8555C73.3398-54.834 75.8301-57.3242 78.8574-57.3242C81.8359-57.3242 84.2285-54.834 84.2285-51.8555C84.2285-48.8281 81.8359-46.4355 78.8574-46.4355ZM25.1465-29.9316C21.4844-29.9316 18.5059-32.959 18.5059-36.6211C18.5059-40.1367 21.6797-43.2617 25.1465-43.2617C28.8086-43.2617 31.7871-40.2832 31.7871-36.6211C31.7871-32.959 28.8086-29.9316 25.1465-29.9316ZM56.0547-11.7676C50.4395-11.7676 45.8496-16.4062 45.8496-22.0215C45.8496-27.6367 50.4395-32.2754 56.0547-32.2754C61.7188-32.2754 66.3574-27.6367 66.3574-22.0215C66.3574-16.4062 61.7188-11.7676 56.0547-11.7676Z"/>
  </g>
  <g id="Light-S" transform="matrix(1 0 0 1 1100.62 696)">
   <path d="M55.957 2.29492C71.7773 2.29492 82.4219-3.22266 82.4219-11.4258C82.4219-18.8477 75.9277-20.3613 75.9277-25.0488C75.9277-31.6406 98.1934-32.373 98.1934-48.1445C98.1934-63.4277 82.373-73.5352 58.7891-73.5352C27.7344-73.5352 6.83594-58.0566 6.83594-34.9609C6.83594-12.6953 26.6602 2.29492 55.957 2.29492ZM59.6191-49.8535C56.1523-49.8535 53.2715-52.6367 53.2715-56.1523C53.2715-59.6191 56.1523-62.4023 59.6191-62.4023C63.1348-62.4023 65.8691-59.6191 65.8691-56.1523C65.8691-52.6367 63.1348-49.8535 59.6191-49.8535ZM39.209-43.7988C34.7656-43.7988 31.2012-47.3145 31.2012-51.7578C31.2012-56.1523 34.7656-59.6191 39.209-59.6191C43.5547-59.6191 47.168-56.1523 47.168-51.7578C47.168-47.3145 43.6035-43.7988 39.209-43.7988ZM77.3926-46.582C74.5605-46.582 72.2656-48.7793 72.2656-51.6113C72.2656-54.3457 74.5605-56.6406 77.3926-56.6406C80.127-56.6406 82.3242-54.3457 82.3242-51.6113C82.3242-48.7793 80.127-46.582 77.3926-46.582ZM24.707-30.5176C21.3379-30.5176 18.5547-33.3496 18.5547-36.7188C18.5547-39.9902 21.4844-42.8223 24.707-42.8223C28.125-42.8223 30.8105-40.1367 30.8105-36.7188C30.8105-33.3496 28.0762-30.5176 24.707-30.5176ZM55.0293-12.0117C49.4629-12.0117 44.9219-16.5527 44.9219-22.168C44.9219-27.7344 49.4629-32.2754 55.0293-32.2754C60.6445-32.2754 65.1855-27.7344 65.1855-22.168C65.1855-16.5527 60.6445-12.0117 55.0293-12.0117Z"/>
  </g>
  <g id="Thin-S" transform="matrix(1 0 0 1 805.079 696)">
   <path d="M54.7852 1.12305C69.873 1.12305 80.0781-3.95508 80.0781-11.4258C80.0781-18.7012 73.5352-19.6289 73.5352-24.9512C73.5352-32.9102 95.8496-32.2754 95.8496-48.1445C95.8496-62.6953 80.5664-72.3633 57.6172-72.3633C27.1973-72.3633 6.83594-57.373 6.83594-34.9609C6.83594-13.3789 26.123 1.12305 54.7852 1.12305ZM58.4473-49.8535C55.2246-49.8535 52.5879-52.4902 52.5879-55.6641C52.5879-58.8867 55.2246-61.4746 58.4473-61.4746C61.7188-61.4746 64.2578-58.8867 64.2578-55.6641C64.2578-52.4414 61.7188-49.8535 58.4473-49.8535ZM38.0859-43.7988C33.7402-43.7988 30.2246-47.2168 30.2246-51.5625C30.2246-55.8105 33.7402-59.2285 38.0859-59.2285C42.334-59.2285 45.8008-55.8105 45.8008-51.5625C45.8008-47.2168 42.3828-43.7988 38.0859-43.7988ZM75.4395-46.7285C72.9004-46.7285 70.8496-48.7793 70.8496-51.2695C70.8496-53.7109 72.9004-55.7617 75.4395-55.7617C77.832-55.7617 79.834-53.7109 79.834-51.2695C79.834-48.7305 77.8809-46.7285 75.4395-46.7285ZM24.1699-31.2988C21.1914-31.2988 18.6523-33.8379 18.6523-36.8164C18.6523-39.8438 21.1914-42.2852 24.1699-42.2852C27.1973-42.2852 29.5898-39.8926 29.5898-36.8164C29.5898-33.8379 27.1484-31.2988 24.1699-31.2988ZM53.7109-12.3535C48.1934-12.3535 43.75-16.7969 43.75-22.3145C43.75-27.832 48.1934-32.2754 53.7109-32.2754C59.2285-32.2754 63.6719-27.832 63.6719-22.3145C63.6719-16.7969 59.2285-12.3535 53.7109-12.3535Z"/>
  </g>
  <g id="Ultralight-S" transform="matrix(1 0 0 1 508.954 696)">
   <path d="M54.1992 0.537109C68.8965 0.537109 78.9062-4.3457 78.9062-11.4258C78.9062-18.5547 72.3145-19.2383 72.3145-24.8535C72.3145-33.5449 94.6777-32.1777 94.6777-48.1445C94.6777-62.3535 79.6387-71.7773 57.0312-71.7773C26.9043-71.7773 6.83594-57.0312 6.83594-34.9609C6.83594-13.7207 25.8301 0.537109 54.1992 0.537109ZM57.8613-49.8535C54.7363-49.8535 52.2461-52.3438 52.2461-55.4199C52.2461-58.4961 54.7363-60.9863 57.8613-60.9863C60.9863-60.9863 63.4277-58.5449 63.4277-55.4199C63.4277-52.3438 60.9863-49.8535 57.8613-49.8535ZM37.5-43.7988C33.2031-43.7988 29.7363-47.168 29.7363-51.4648C29.7363-55.6641 33.2031-58.9844 37.5-58.9844C41.6992-58.9844 45.1172-55.6152 45.1172-51.4648C45.1172-47.168 41.748-43.7988 37.5-43.7988ZM74.4629-46.875C72.0215-46.875 70.1172-48.7305 70.1172-51.0742C70.1172-53.418 72.0703-55.2734 74.4629-55.2734C76.6602-55.2734 78.5645-53.418 78.5645-51.0742C78.5645-48.6816 76.709-46.875 74.4629-46.875ZM23.8281-31.6895C21.0449-31.6895 18.7012-34.082 18.7012-36.9141C18.7012-39.6973 21.0449-41.9922 23.8281-41.9922C26.709-41.9922 28.9551-39.7949 28.9551-36.9141C28.9551-34.082 26.6113-31.6895 23.8281-31.6895ZM52.9785-12.5C47.5098-12.5 43.1152-16.8945 43.1152-22.4121C43.1152-27.8809 47.5098-32.2754 52.9785-32.2754C58.4473-32.2754 62.8906-27.8809 62.8906-22.4121C62.8906-16.8945 58.4473-12.5 52.9785-12.5Z"/>
  </g>
 </g>
</svg>
