<?xml version="1.0" encoding="UTF-8"?>
<!--Generator: Apple Native CoreSVG 149-->
<!DOCTYPE svg
PUBLIC "-//W3C//DTD SVG 1.1//EN"
       "http://www.w3.org/Graphics/SVG/1.1/DTD/svg11.dtd">
<svg version="1.1" xmlns="http://www.w3.org/2000/svg" xmlns:xlink="http://www.w3.org/1999/xlink" width="3300" height="2200">
 <!--glyph: "uni10021F.medium", point size: 100.000000, font version: "Version 16.0d18e1", template writer version: "8"-->
 <g id="Notes">
  <rect height="2200" id="artboard" style="fill:white;opacity:1" width="3300" x="0" y="0"/>
  <line id="" style="fill:none;stroke:black;opacity:1;stroke-width:0.5;" x1="263" x2="3036" y1="292" y2="292"/>
  <text style="stroke:none;fill:black;font-family:-apple-system,&quot;SF Pro Display&quot;,&quot;SF Pro Text&quot;,Helvetica,sans-serif;font-weight:bold;" transform="matrix(1 0 0 1 263 322)">Weight/Scale Variations</text>
  <text style="stroke:none;fill:black;font-family:-apple-system,&quot;SF Pro Display&quot;,&quot;SF Pro Text&quot;,Helvetica,sans-serif;text-anchor:middle;" transform="matrix(1 0 0 1 559.711 322)">Ultralight</text>
  <text style="stroke:none;fill:black;font-family:-apple-system,&quot;SF Pro Display&quot;,&quot;SF Pro Text&quot;,Helvetica,sans-serif;text-anchor:middle;" transform="matrix(1 0 0 1 856.422 322)">Thin</text>
  <text style="stroke:none;fill:black;font-family:-apple-system,&quot;SF Pro Display&quot;,&quot;SF Pro Text&quot;,Helvetica,sans-serif;text-anchor:middle;" transform="matrix(1 0 0 1 1153.13 322)">Light</text>
  <text style="stroke:none;fill:black;font-family:-apple-system,&quot;SF Pro Display&quot;,&quot;SF Pro Text&quot;,Helvetica,sans-serif;text-anchor:middle;" transform="matrix(1 0 0 1 1449.84 322)">Regular</text>
  <text style="stroke:none;fill:black;font-family:-apple-system,&quot;SF Pro Display&quot;,&quot;SF Pro Text&quot;,Helvetica,sans-serif;text-anchor:middle;" transform="matrix(1 0 0 1 1746.56 322)">Medium</text>
  <text style="stroke:none;fill:black;font-family:-apple-system,&quot;SF Pro Display&quot;,&quot;SF Pro Text&quot;,Helvetica,sans-serif;text-anchor:middle;" transform="matrix(1 0 0 1 2043.27 322)">Semibold</text>
  <text style="stroke:none;fill:black;font-family:-apple-system,&quot;SF Pro Display&quot;,&quot;SF Pro Text&quot;,Helvetica,sans-serif;text-anchor:middle;" transform="matrix(1 0 0 1 2339.98 322)">Bold</text>
  <text style="stroke:none;fill:black;font-family:-apple-system,&quot;SF Pro Display&quot;,&quot;SF Pro Text&quot;,Helvetica,sans-serif;text-anchor:middle;" transform="matrix(1 0 0 1 2636.69 322)">Heavy</text>
  <text style="stroke:none;fill:black;font-family:-apple-system,&quot;SF Pro Display&quot;,&quot;SF Pro Text&quot;,Helvetica,sans-serif;text-anchor:middle;" transform="matrix(1 0 0 1 2933.4 322)">Black</text>
  <line id="" style="fill:none;stroke:black;opacity:1;stroke-width:0.5;" x1="263" x2="3036" y1="1903" y2="1903"/>
  <g id="" transform="matrix(1 0 0 1 263 1933)">
   <path d="M9.24805 0.830078C13.5547 0.830078 17.1387-2.74414 17.1387-7.05078C17.1387-11.3574 13.5449-14.9316 9.23828-14.9316C4.94141-14.9316 1.36719-11.3574 1.36719-7.05078C1.36719-2.74414 4.95117 0.830078 9.24805 0.830078ZM9.24805-0.654297C5.70312-0.654297 2.87109-3.49609 2.87109-7.05078C2.87109-10.6055 5.69336-13.4473 9.23828-13.4473C12.793-13.4473 15.6348-10.6055 15.6445-7.05078C15.6543-3.49609 12.8027-0.654297 9.24805-0.654297ZM6.39648-6.31836L8.50586-6.31836L8.50586-4.19922C8.50586-3.75977 8.79883-3.45703 9.22852-3.45703C9.67773-3.45703 9.9707-3.75977 9.9707-4.19922L9.9707-6.31836L12.0996-6.31836C12.5391-6.31836 12.8418-6.61133 12.8418-7.04102C12.8418-7.48047 12.5391-7.7832 12.0996-7.7832L9.9707-7.7832L9.9707-9.89258C9.9707-10.3418 9.67773-10.6445 9.22852-10.6445C8.79883-10.6445 8.50586-10.3418 8.50586-9.89258L8.50586-7.7832L6.39648-7.7832C5.94727-7.7832 5.64453-7.48047 5.64453-7.04102C5.64453-6.61133 5.94727-6.31836 6.39648-6.31836Z"/>
  </g>
  <g id="" transform="matrix(1 0 0 1 281.506 1933)">
   <path d="M11.709 2.91016C17.1582 2.91016 21.6699-1.61133 21.6699-7.05078C21.6699-12.5 17.1484-17.0117 11.6992-17.0117C6.25977-17.0117 1.74805-12.5 1.74805-7.05078C1.74805-1.61133 6.26953 2.91016 11.709 2.91016ZM11.709 1.25C7.09961 1.25 3.41797-2.44141 3.41797-7.05078C3.41797-11.6602 7.08984-15.3516 11.6992-15.3516C16.3086-15.3516 20-11.6602 20.0098-7.05078C20.0195-2.44141 16.3184 1.25 11.709 1.25ZM7.98828-6.23047L10.8789-6.23047L10.8789-3.32031C10.8789-2.83203 11.2109-2.5 11.6895-2.5C12.1777-2.5 12.5195-2.83203 12.5195-3.32031L12.5195-6.23047L15.4297-6.23047C15.918-6.23047 16.25-6.5625 16.25-7.04102C16.25-7.5293 15.918-7.87109 15.4297-7.87109L12.5195-7.87109L12.5195-10.7617C12.5195-11.2695 12.1777-11.6016 11.6895-11.6016C11.2109-11.6016 10.8789-11.2598 10.8789-10.7617L10.8789-7.87109L7.98828-7.87109C7.48047-7.87109 7.14844-7.5293 7.14844-7.04102C7.14844-6.5625 7.49023-6.23047 7.98828-6.23047Z"/>
  </g>
  <g id="" transform="matrix(1 0 0 1 304.924 1933)">
   <path d="M14.9707 5.66406C21.9336 5.66406 27.6953-0.0976562 27.6953-7.05078C27.6953-14.0137 21.9238-19.7754 14.9609-19.7754C8.00781-19.7754 2.25586-14.0137 2.25586-7.05078C2.25586-0.0976562 8.01758 5.66406 14.9707 5.66406ZM14.9707 3.84766C8.93555 3.84766 4.08203-1.01562 4.08203-7.05078C4.08203-13.0957 8.92578-17.9492 14.9609-17.9492C21.0059-17.9492 25.8594-13.0957 25.8691-7.05078C25.8789-1.01562 21.0156 3.84766 14.9707 3.84766ZM10.0586-6.14258L14.0625-6.14258L14.0625-2.12891C14.0625-1.5918 14.4336-1.2207 14.9512-1.2207C15.4883-1.2207 15.8594-1.5918 15.8594-2.12891L15.8594-6.14258L19.8828-6.14258C20.4102-6.14258 20.791-6.51367 20.791-7.03125C20.791-7.56836 20.4199-7.94922 19.8828-7.94922L15.8594-7.94922L15.8594-11.9531C15.8594-12.5098 15.4883-12.8809 14.9512-12.8809C14.4336-12.8809 14.0625-12.5 14.0625-11.9531L14.0625-7.94922L10.0586-7.94922C9.50195-7.94922 9.13086-7.56836 9.13086-7.03125C9.13086-6.51367 9.51172-6.14258 10.0586-6.14258Z"/>
  </g>
  <text style="stroke:none;fill:black;font-family:-apple-system,&quot;SF Pro Display&quot;,&quot;SF Pro Text&quot;,Helvetica,sans-serif;font-weight:bold;" transform="matrix(1 0 0 1 263 1953)">Design Variations</text>
  <text style="stroke:none;fill:black;font-family:-apple-system,&quot;SF Pro Display&quot;,&quot;SF Pro Text&quot;,Helvetica,sans-serif;" transform="matrix(1 0 0 1 263 1971)">Symbols are supported in up to nine weights and three scales.</text>
  <text style="stroke:none;fill:black;font-family:-apple-system,&quot;SF Pro Display&quot;,&quot;SF Pro Text&quot;,Helvetica,sans-serif;" transform="matrix(1 0 0 1 263 1989)">For optimal layout with text and other symbols, vertically align</text>
  <text style="stroke:none;fill:black;font-family:-apple-system,&quot;SF Pro Display&quot;,&quot;SF Pro Text&quot;,Helvetica,sans-serif;" transform="matrix(1 0 0 1 263 2007)">symbols with the adjacent text.</text>
  <line id="" style="fill:none;stroke:#00AEEF;stroke-width:0.5;opacity:1.0;" x1="776" x2="776" y1="1919" y2="1933"/>
  <g id="" transform="matrix(1 0 0 1 776 1933)">
   <path d="M3.31055 0.126953C3.82812 0.126953 4.08203-0.0683594 4.26758-0.605469L5.52734-4.0625L11.2891-4.0625L12.5488-0.605469C12.7344-0.0683594 12.9883 0.126953 13.4961 0.126953C14.0137 0.126953 14.3457-0.185547 14.3457-0.673828C14.3457-0.839844 14.3164-0.986328 14.2383-1.20117L9.6582-13.3887C9.43359-13.9941 9.0332-14.2871 8.4082-14.2871C7.80273-14.2871 7.39258-13.9941 7.17773-13.3984L2.59766-1.19141C2.51953-0.976562 2.49023-0.830078 2.49023-0.664062C2.49023-0.175781 2.80273 0.126953 3.31055 0.126953ZM6.00586-5.53711L8.37891-12.1094L8.42773-12.1094L10.8008-5.53711Z"/>
  </g>
  <line id="" style="fill:none;stroke:#00AEEF;stroke-width:0.5;opacity:1.0;" x1="792.836" x2="792.836" y1="1919" y2="1933"/>
  <text style="stroke:none;fill:black;font-family:-apple-system,&quot;SF Pro Display&quot;,&quot;SF Pro Text&quot;,Helvetica,sans-serif;font-weight:bold;" transform="matrix(1 0 0 1 776 1953)">Margins</text>
  <text style="stroke:none;fill:black;font-family:-apple-system,&quot;SF Pro Display&quot;,&quot;SF Pro Text&quot;,Helvetica,sans-serif;" transform="matrix(1 0 0 1 776 1971)">Leading and trailing margins on the left and right side of each symbol</text>
  <text style="stroke:none;fill:black;font-family:-apple-system,&quot;SF Pro Display&quot;,&quot;SF Pro Text&quot;,Helvetica,sans-serif;" transform="matrix(1 0 0 1 776 1989)">can be adjusted by modifying the x-location of the margin guidelines.</text>
  <text style="stroke:none;fill:black;font-family:-apple-system,&quot;SF Pro Display&quot;,&quot;SF Pro Text&quot;,Helvetica,sans-serif;" transform="matrix(1 0 0 1 776 2007)">Modifications are automatically applied proportionally to all</text>
  <text style="stroke:none;fill:black;font-family:-apple-system,&quot;SF Pro Display&quot;,&quot;SF Pro Text&quot;,Helvetica,sans-serif;" transform="matrix(1 0 0 1 776 2025)">scales and weights.</text>
  <g id="" transform="matrix(1 0 0 1 1289 1933)">
   <path d="M2.8418 1.86523L4.54102 3.57422C5.40039 4.44336 6.38672 4.38477 7.31445 3.35938L17.4902-7.85156C17.7539-7.76367 18.0273-7.7832 18.3398-7.8418L19.4043-8.03711L20.0684-7.36328L20.0293-6.80664C19.9902-6.30859 20.1172-5.92773 20.6055-5.44922L21.3672-4.70703C21.8457-4.22852 22.4609-4.19922 22.9297-4.66797L25.8398-7.58789C26.3086-8.05664 26.2891-8.65234 25.8105-9.13086L25.0391-9.89258C24.5605-10.3711 24.1895-10.5273 23.7109-10.4883L23.1348-10.4395L22.4902-11.0742L22.7344-12.1973C22.8613-12.7637 22.7051-13.2031 22.1191-13.7891L19.9219-15.9766C16.582-19.2969 12.1484-19.2188 9.25781-16.3281C8.83789-15.918 8.80859-15.3418 9.04297-14.9512C9.27734-14.5898 9.73633-14.3555 10.3809-14.5215C11.8457-14.8633 13.3691-14.9219 14.7949-13.9844L14.209-12.5293C14.0137-12.0508 13.9844-11.6504 14.1113-11.2891L3.04688-0.898438C2.06055 0.0195312 1.98242 0.996094 2.8418 1.86523ZM10.752-15.957C13.1836-17.7344 16.4746-17.4316 18.7012-15.2051L21.1328-12.793C21.3672-12.5586 21.4062-12.373 21.3379-12.0312L21.0156-10.5469L22.5195-9.0625L23.5059-9.12109C23.7598-9.13086 23.8379-9.11133 24.0332-8.91602L24.6094-8.33984L22.168-5.89844L21.5918-6.47461C21.3965-6.66992 21.3672-6.74805 21.377-7.01172L21.4453-7.98828L19.9512-9.47266L18.4277-9.21875C18.1055-9.15039 17.959-9.17969 17.7148-9.41406L15.7129-11.416C15.459-11.6504 15.4297-11.8164 15.5859-12.1875L16.4648-14.2773C14.9023-15.7324 12.8711-16.3574 10.8398-15.7617C10.6836-15.7227 10.625-15.8496 10.752-15.957ZM5.27344 2.30469L4.10156 1.14258C3.63281 0.683594 3.74023 0.341797 4.14062-0.0195312L14.9512-10.1953L16.416-8.71094L6.42578 2.27539C6.07422 2.67578 5.74219 2.77344 5.27344 2.30469Z"/>
  </g>
  <text style="stroke:none;fill:black;font-family:-apple-system,&quot;SF Pro Display&quot;,&quot;SF Pro Text&quot;,Helvetica,sans-serif;font-weight:bold;" transform="matrix(1 0 0 1 1289 1953)">Exporting</text>
  <text style="stroke:none;fill:black;font-family:-apple-system,&quot;SF Pro Display&quot;,&quot;SF Pro Text&quot;,Helvetica,sans-serif;" transform="matrix(1 0 0 1 1289 1971)">Symbols should be outlined when exporting to ensure the</text>
  <text style="stroke:none;fill:black;font-family:-apple-system,&quot;SF Pro Display&quot;,&quot;SF Pro Text&quot;,Helvetica,sans-serif;" transform="matrix(1 0 0 1 1289 1989)">design is preserved when submitting to Xcode.</text>
  <text id="template-version" style="stroke:none;fill:black;font-family:-apple-system,&quot;SF Pro Display&quot;,&quot;SF Pro Text&quot;,Helvetica,sans-serif;text-anchor:end;" transform="matrix(1 0 0 1 3036 1933)">Template v.2.0</text>
  <text style="stroke:none;fill:black;font-family:-apple-system,&quot;SF Pro Display&quot;,&quot;SF Pro Text&quot;,Helvetica,sans-serif;text-anchor:end;" transform="matrix(1 0 0 1 3036 1951)">Requires Xcode 12 or greater</text>
  <text style="stroke:none;fill:black;font-family:-apple-system,&quot;SF Pro Display&quot;,&quot;SF Pro Text&quot;,Helvetica,sans-serif;text-anchor:end;" transform="matrix(1 0 0 1 3036 1969)">Generated from paperplane</text>
  <text style="stroke:none;fill:black;font-family:-apple-system,&quot;SF Pro Display&quot;,&quot;SF Pro Text&quot;,Helvetica,sans-serif;text-anchor:end;" transform="matrix(1 0 0 1 3036 1987)">Typeset at 100 points</text>
  <text style="stroke:none;fill:black;font-family:-apple-system,&quot;SF Pro Display&quot;,&quot;SF Pro Text&quot;,Helvetica,sans-serif;" transform="matrix(1 0 0 1 263 726)">Small</text>
  <text style="stroke:none;fill:black;font-family:-apple-system,&quot;SF Pro Display&quot;,&quot;SF Pro Text&quot;,Helvetica,sans-serif;" transform="matrix(1 0 0 1 263 1156)">Medium</text>
  <text style="stroke:none;fill:black;font-family:-apple-system,&quot;SF Pro Display&quot;,&quot;SF Pro Text&quot;,Helvetica,sans-serif;" transform="matrix(1 0 0 1 263 1586)">Large</text>
 </g>
 <g id="Guides">
  <g id="H-reference" style="fill:#27AAE1;stroke:none;" transform="matrix(1 0 0 1 339 696)">
   <path d="M0.976562 0L3.66211 0L12.9883-24.4629L45.752-24.4629L55.127 0L57.7637 0L30.6152-70.459L28.125-70.459ZM29.3457-67.1387L29.4434-67.1387L44.873-26.709L13.8672-26.709Z"/>
  </g>
  <line id="Baseline-S" style="fill:none;stroke:#27AAE1;opacity:1;stroke-width:0.5;" x1="263" x2="3036" y1="696" y2="696"/>
  <line id="Capline-S" style="fill:none;stroke:#27AAE1;opacity:1;stroke-width:0.5;" x1="263" x2="3036" y1="625.541" y2="625.541"/>
  <g id="H-reference" style="fill:#27AAE1;stroke:none;" transform="matrix(1 0 0 1 339 1126)">
   <path d="M0.976562 0L3.66211 0L12.9883-24.4629L45.752-24.4629L55.127 0L57.7637 0L30.6152-70.459L28.125-70.459ZM29.3457-67.1387L29.4434-67.1387L44.873-26.709L13.8672-26.709Z"/>
  </g>
  <line id="Baseline-M" style="fill:none;stroke:#27AAE1;opacity:1;stroke-width:0.5;" x1="263" x2="3036" y1="1126" y2="1126"/>
  <line id="Capline-M" style="fill:none;stroke:#27AAE1;opacity:1;stroke-width:0.5;" x1="263" x2="3036" y1="1055.54" y2="1055.54"/>
  <g id="H-reference" style="fill:#27AAE1;stroke:none;" transform="matrix(1 0 0 1 339 1556)">
   <path d="M0.976562 0L3.66211 0L12.9883-24.4629L45.752-24.4629L55.127 0L57.7637 0L30.6152-70.459L28.125-70.459ZM29.3457-67.1387L29.4434-67.1387L44.873-26.709L13.8672-26.709Z"/>
  </g>
  <line id="Baseline-L" style="fill:none;stroke:#27AAE1;opacity:1;stroke-width:0.5;" x1="263" x2="3036" y1="1556" y2="1556"/>
  <line id="Capline-L" style="fill:none;stroke:#27AAE1;opacity:1;stroke-width:0.5;" x1="263" x2="3036" y1="1485.54" y2="1485.54"/>
  <line id="left-margin" style="fill:none;stroke:#00AEEF;stroke-width:0.5;opacity:1.0;" x1="1388.71" x2="1388.71" y1="1030.79" y2="1150.12"/>
  <line id="right-margin" style="fill:none;stroke:#00AEEF;stroke-width:0.5;opacity:1.0;" x1="1510.98" x2="1510.98" y1="1030.79" y2="1150.12"/>
 </g>
 <g id="Symbols">
  <g id="Black-L" transform="matrix(1 0 0 1 2851.3 1556)">
   <path d="M91.6992 37.5977C97.7051 37.5977 101.758 33.3984 104.15 27.1484L146.582-84.0332C147.607-86.6699 148.096-89.0625 148.096-91.1621C148.096-97.0215 144.287-100.83 138.428-100.83C136.279-100.83 133.887-100.342 131.299-99.3164L19.9219-56.7871C13.916-54.4922 9.66797-50.4395 9.66797-44.4336C9.66797-37.5488 14.502-34.2285 21.2891-32.2266L66.3574-19.0918L79.3945 25.7324C81.3965 32.6172 84.8145 37.5977 91.6992 37.5977ZM72.6074-37.1582L46.6309-45.1172C46.2402-45.2637 45.9961-45.5078 45.9961-45.8984C45.9961-46.1914 46.1914-46.4844 46.582-46.582L88.7695-63.4277C95.5078-66.1621 102.148-69.0918 111.23-73.1934C105.322-68.457 98.4863-62.6953 93.3105-57.6172ZM93.1641 1.2207C92.7734 1.2207 92.5781 0.976562 92.4805 0.585938L84.4238-25.3418L104.883-46.0449C109.668-50.9277 115.918-58.3008 120.459-64.0137C116.357-54.9316 113.428-48.291 110.693-41.5039L93.8477 0.634766C93.75 1.02539 93.457 1.2207 93.1641 1.2207Z"/>
  </g>
  <g id="Heavy-L" transform="matrix(1 0 0 1 2555.54 1556)">
   <path d="M90.7715 36.6699C96.3379 36.6699 100.098 32.666 102.441 26.5625L144.727-84.082C145.703-86.6699 146.24-89.0625 146.24-91.0645C146.24-96.4355 142.773-99.9023 137.402-99.9023C135.352-99.9023 133.008-99.3652 130.42-98.3887L19.5312-56.0059C13.7695-53.8086 9.66797-50.0488 9.66797-44.4336C9.66797-37.9883 14.2578-35.0098 20.8008-33.0566L66.1621-19.8242L79.2969 25.2441C81.25 31.8848 84.2773 36.6699 90.7715 36.6699ZM71.4844-35.5469L41.1133-44.8242C40.4297-45.0195 40.1855-45.3125 40.1855-45.7031C40.1855-46.0938 40.4297-46.4355 41.0156-46.582L94.5801-67.5781C100.781-70.0684 106.836-72.8027 114.648-76.3672C109.326-72.0703 103.027-66.7969 98.3887-62.2559ZM92.0898 6.15234C91.6504 6.15234 91.4062 5.85938 91.2109 5.17578L81.8848-25.1465L108.594-52.0508C112.891-56.4453 118.604-63.1836 122.705-68.4082C119.189-60.5469 116.406-54.4434 113.965-48.2422L92.9688 5.27344C92.7734 5.85938 92.4316 6.15234 92.0898 6.15234Z"/>
  </g>
  <g id="Bold-L" transform="matrix(1 0 0 1 2259.85 1556)">
   <path d="M89.7461 35.6445C94.8242 35.6445 98.291 31.8359 100.586 25.9277L142.627-84.1309C143.604-86.7188 144.141-89.0137 144.141-91.0156C144.141-95.8008 141.113-98.8281 136.328-98.8281C134.277-98.8281 131.982-98.291 129.443-97.3145L19.043-55.127C13.5742-53.0273 9.66797-49.5605 9.66797-44.4336C9.66797-38.4277 14.0137-35.8398 20.2637-33.9844L65.918-20.6055L79.1992 24.707C81.0547 31.1035 83.6914 35.6445 89.7461 35.6445ZM70.2637-33.7402L34.9609-44.4824C33.9844-44.7754 33.6426-45.0684 33.6426-45.5078C33.6426-45.9473 33.9355-46.3379 34.7656-46.6309L101.123-72.2656C106.689-74.4141 112.061-76.9531 118.506-79.8828C113.818-76.123 108.057-71.3867 104.053-67.4316ZM90.8691 11.6699C90.3809 11.6699 90.0879 11.3281 89.7949 10.3516L79.0527-24.9512L112.744-58.7402C116.504-62.5977 121.533-68.6523 125.244-73.291C122.314-66.7969 119.727-61.377 117.578-55.8594L91.9434 10.498C91.6504 11.3281 91.3086 11.6699 90.8691 11.6699Z"/>
  </g>
  <g id="Semibold-L" transform="matrix(1 0 0 1 1963.87 1556)">
   <path d="M89.0137 34.9609C93.75 34.9609 97.0215 31.25 99.2676 25.4883L141.211-84.1797C142.188-86.7188 142.725-89.0137 142.725-90.9668C142.725-95.3613 139.941-98.1445 135.547-98.1445C133.594-98.1445 131.299-97.5586 128.76-96.582L18.75-54.4922C13.4277-52.4902 9.66797-49.2188 9.66797-44.4336C9.66797-38.7207 13.8184-36.4258 19.873-34.6191L65.7715-21.1914L79.1016 24.3164C80.9082 30.5664 83.252 34.9609 89.0137 34.9609ZM69.4336-32.5195L30.6641-44.2383C29.4922-44.5801 29.1504-44.9219 29.1504-45.4102C29.1504-45.8984 29.4922-46.2891 30.4688-46.6309L105.664-75.4395C110.742-77.4414 115.674-79.7852 121.191-82.3242C116.943-78.9062 111.523-74.5605 107.959-70.9961ZM90.0391 15.4785C89.502 15.4785 89.209 15.0879 88.8672 13.916L77.0996-24.8047L115.625-63.3789C119.043-66.8457 123.584-72.4121 126.953-76.6602C124.463-71.1426 122.07-66.1621 120.068-61.084L91.2598 14.1113C90.918 15.0879 90.5273 15.4785 90.0391 15.4785Z"/>
  </g>
  <g id="Medium-L" transform="matrix(1 0 0 1 1667.7 1556)">
   <path d="M88.4766 34.4238C92.9688 34.4238 96.0938 30.8594 98.291 25.1465L140.088-84.1797C141.064-86.7188 141.602-89.0137 141.602-90.918C141.602-95.0195 139.062-97.5586 134.961-97.5586C133.057-97.5586 130.762-97.0215 128.223-96.0449L18.5059-54.0527C13.3301-52.0996 9.66797-48.9746 9.66797-44.4336C9.66797-38.9648 13.6719-36.8652 19.5801-35.1074L65.625-21.6309L79.0527 24.0723C80.8105 30.1758 82.959 34.4238 88.4766 34.4238ZM68.75-31.5918L27.4414-44.043C26.123-44.4336 25.7812-44.7754 25.7812-45.3125C25.7812-45.8496 26.0742-46.2891 27.1973-46.6797L109.082-77.8809C113.818-79.7363 118.408-81.9824 123.193-84.1309C119.287-81.0059 114.16-76.9531 110.938-73.7305ZM89.4043 18.3594C88.8184 18.3594 88.5254 17.9199 88.1348 16.6016L75.5859-24.707L117.773-66.8945C120.898-70.0684 125.146-75.293 128.271-79.248C126.074-74.4141 123.779-69.7754 121.973-65.0391L90.7227 16.8457C90.332 17.9688 89.9414 18.3594 89.4043 18.3594Z"/>
  </g>
  <g id="Regular-L" transform="matrix(1 0 0 1 1371.7 1556)">
   <path d="M87.793 33.6914C91.9434 33.6914 94.873 30.2734 96.9727 24.707L138.672-84.2285C139.648-86.7676 140.186-89.0137 140.186-90.8691C140.186-94.5801 137.939-96.875 134.229-96.875C132.324-96.875 130.127-96.2891 127.588-95.3125L18.1641-53.4668C13.2324-51.5625 9.66797-48.6328 9.66797-44.4336C9.66797-39.3066 13.4766-37.4512 19.2383-35.6934L65.4785-22.168L78.9551 23.6816C80.7129 29.6387 82.5684 33.6914 87.793 33.6914ZM67.9199-30.3711L23.2422-43.7988C21.6797-44.2871 21.3379-44.6289 21.3379-45.166C21.3379-45.752 21.6797-46.2402 22.9492-46.6797L113.525-81.0547C117.822-82.7148 121.973-84.8145 125.83-86.5723C122.314-83.7402 117.627-80.0781 114.795-77.2461ZM88.5742 22.1191C87.9883 22.1191 87.6465 21.6309 87.1582 20.1172L73.6816-24.5605L120.605-71.4844C123.389-74.2676 127.148-79.0039 129.98-82.5684C128.223-78.7109 126.074-74.5117 124.414-70.2148L90.0391 20.3613C89.5508 21.6797 89.1602 22.1191 88.5742 22.1191Z"/>
  </g>
  <g id="Light-L" transform="matrix(1 0 0 1 1075.98 1556)">
   <path d="M86.8164 32.7148C90.3809 32.7148 92.9199 29.9316 94.7754 25.0488L137.012-85.4004C137.793-87.4512 138.184-89.209 138.184-90.7227C138.184-93.9453 136.279-95.8496 133.105-95.8496C131.592-95.8496 129.834-95.4102 127.783-94.6289L17.041-52.2949C12.5-50.5859 9.66797-48.0469 9.66797-44.4336C9.66797-40.1855 12.6953-38.4277 18.0176-36.8652L65.3809-23.0469L79.1504 24.0723C80.7129 29.4922 82.4707 32.7148 86.8164 32.7148ZM67.2363-29.3457L20.8984-43.0664C18.6523-43.7012 18.1641-44.1895 18.1641-44.9219C18.1641-45.7031 18.7012-46.2891 20.459-46.9238L118.311-84.1309C121.631-85.4004 124.854-87.0117 127.539-88.2324C124.951-86.1816 120.898-83.0566 118.896-81.0547ZM87.3047 24.2676C86.5234 24.2676 86.084 23.6816 85.4004 21.5332L71.6309-24.8535L123.389-76.5625C125.342-78.5156 128.564-82.5684 130.664-85.2051C129.443-82.4707 127.832-79.2969 126.562-75.9766L89.3066 21.9238C88.623 23.6816 88.0859 24.2676 87.3047 24.2676Z"/>
  </g>
  <g id="Thin-L" transform="matrix(1 0 0 1 780.592 1556)">
   <path d="M85.498 31.3965C88.3789 31.3965 90.332 29.4922 91.8945 25.4883L134.814-86.9629C135.352-88.3301 135.547-89.5508 135.547-90.5762C135.547-93.0664 134.131-94.4824 131.641-94.4824C130.615-94.4824 129.395-94.2871 128.027-93.75L15.5273-50.7812C11.5723-49.2676 9.66797-47.3145 9.66797-44.4336C9.66797-41.3086 11.6699-39.7461 16.4062-38.3301L65.1855-24.1699L79.3945 24.6094C80.7129 29.2969 82.3242 31.3965 85.498 31.3965ZM66.3574-27.9785L17.7734-42.041C14.6484-42.9688 13.9648-43.5547 13.9648-44.5312C13.9648-45.6055 14.6973-46.3379 17.1387-47.2656L124.658-88.2324C126.611-89.0137 128.613-89.8926 129.785-90.4297C128.467-89.4043 125.244-86.9629 124.316-86.0352ZM85.5957 27.0996C84.6191 27.0996 84.0332 26.416 83.1055 23.3398L68.9941-25.1953L127.148-83.252C127.979-84.1309 130.42-87.2559 131.592-88.623C131.055-87.5 130.127-85.5469 129.395-83.5938L88.3301 23.9258C87.4023 26.3672 86.6699 27.0996 85.5957 27.0996Z"/>
  </g>
  <g id="Ultralight-L" transform="matrix(1 0 0 1 484.565 1556)">
   <path d="M84.8633 30.7617C87.3047 30.7617 89.0137 29.2969 90.3809 25.7324L133.691-87.793C134.082-88.8184 134.229-89.6973 134.229-90.4785C134.229-92.627 133.057-93.7988 130.859-93.7988C130.127-93.7988 129.199-93.7012 128.174-93.2617L14.7461-50C11.1328-48.6328 9.66797-46.9238 9.66797-44.4336C9.66797-41.8945 11.1816-40.4297 15.625-39.1113L65.0879-24.7559L79.4922 24.8535C80.7617 29.1992 82.2266 30.7617 84.8633 30.7617ZM65.8691-27.2949L16.2109-41.5527C12.5977-42.5781 11.8164-43.2617 11.8164-44.3359C11.8164-45.5566 12.6953-46.3867 15.4297-47.4121L127.881-90.332C129.199-90.8203 130.566-91.4062 130.908-91.5527C130.273-91.0645 127.49-89.0137 127.1-88.623ZM84.7656 28.5645C83.6426 28.5645 82.959 27.7832 81.9336 24.3164L67.627-25.3906L129.004-86.7188C129.297-87.0117 131.396-89.6484 132.031-90.4297C131.885-90.0879 131.348-88.7695 130.811-87.5L87.8418 25C86.8164 27.7344 85.9375 28.5645 84.7656 28.5645Z"/>
  </g>
  <g id="Black-M" transform="matrix(1 0 0 1 2869.04 1126)">
   <path d="M71.7773 21.9727C76.7578 21.9727 79.9805 18.7988 81.7871 14.0625L115.234-73.6328C115.918-75.4395 116.211-77.0996 116.211-78.5645C116.211-83.5449 112.939-86.8164 108.008-86.8164C106.445-86.8164 104.785-86.4746 103.076-85.8398L15.3809-52.3926C10.6445-50.5859 7.4707-47.3145 7.4707-42.3828C7.4707-36.9141 11.1328-33.9844 16.5039-32.4219L51.6113-22.168L61.7676 12.8418C63.3301 18.2129 66.3574 21.9727 71.7773 21.9727ZM57.373-38.3301L42.334-42.9199C41.9922-42.9688 41.8457-43.2617 41.8457-43.5547C41.8457-43.7988 42.041-44.043 42.2852-44.1406L63.4277-53.125C68.9453-55.3711 74.4141-57.6172 82.4707-61.2793C77.6367-57.4219 72.0215-52.5879 67.6758-48.3887ZM72.998-12.4512C72.6562-12.4512 72.4609-12.6465 72.4121-12.9395L67.7734-27.9297L77.7832-38.2324C81.6895-42.2363 87.0117-48.3887 90.7227-53.0273C87.0605-44.9707 84.8145-39.502 82.5684-34.0332L73.5352-12.8906C73.4863-12.6465 73.2422-12.4512 72.998-12.4512Z"/>
  </g>
  <g id="Heavy-M" transform="matrix(1 0 0 1 2573.09 1126)">
   <path d="M71.0449 21.1914C75.6348 21.1914 78.7109 18.0664 80.5176 13.3301L113.623-73.3887C114.355-75.293 114.697-77.002 114.697-78.5645C114.697-83.0566 111.768-86.0352 107.227-86.0352C105.615-86.0352 103.906-85.6934 102.051-84.9609L15.2344-51.8066C10.6445-50.0488 7.4707-46.9727 7.4707-42.3828C7.4707-37.1582 11.084-34.5215 16.3086-33.0078L51.416-22.7539L61.6211 12.2559C63.1348 17.4805 65.8203 21.1914 71.0449 21.1914ZM56.3477-36.8164L36.9141-42.7734C36.4746-42.8711 36.2793-43.1152 36.2793-43.457C36.2793-43.7012 36.4746-43.9941 36.8164-44.0918L68.6035-56.8848C73.7305-58.9355 78.7598-61.1328 85.791-64.3066C81.3477-60.7422 76.0742-56.2988 72.168-52.4414ZM72.1191-7.61719C71.8262-7.61719 71.6309-7.86133 71.4844-8.30078L65.5273-27.6855L81.1035-43.457C84.7168-47.168 89.5508-52.832 92.9688-57.1289C89.7949-50.0977 87.6465-45.0684 85.5469-39.9414L72.7539-8.20312C72.6562-7.86133 72.4121-7.61719 72.1191-7.61719Z"/>
  </g>
  <g id="Bold-M" transform="matrix(1 0 0 1 2277.23 1126)">
   <path d="M70.2148 20.3613C74.4141 20.3613 77.2949 17.2363 79.1016 12.5488L111.816-73.0957C112.598-75.0977 112.988-76.9043 112.988-78.5156C112.988-82.5684 110.4-85.2051 106.348-85.2051C104.736-85.2051 102.881-84.7656 100.928-83.9844L15.0879-51.1719C10.6445-49.5117 7.4707-46.6309 7.4707-42.3828C7.4707-37.4023 11.0352-35.1562 16.0645-33.6914L51.2207-23.3887L61.4258 11.5234C62.9395 16.6504 65.1855 20.3613 70.2148 20.3613ZM55.2246-35.1562L30.8594-42.627C30.2734-42.7734 30.0781-43.0176 30.0781-43.3105C30.0781-43.6035 30.2734-43.8965 30.7617-44.043L74.3652-61.084C79.0527-62.9395 83.6426-64.9902 89.502-67.6758C85.4492-64.4043 80.6641-60.4492 77.1484-57.0312ZM71.1914-2.24609C70.8496-2.24609 70.6543-2.49023 70.459-3.02734L62.9883-27.3926L84.8145-49.3164C88.0859-52.6367 92.3828-57.7637 95.5078-61.7188C92.8711-55.8594 90.7715-51.2695 88.916-46.5332L71.875-2.92969C71.7285-2.44141 71.4844-2.24609 71.1914-2.24609Z"/>
  </g>
  <g id="Semibold-M" transform="matrix(1 0 0 1 1981.11 1126)">
   <path d="M69.6289 19.7754C73.584 19.7754 76.3184 16.6992 78.125 12.0117L110.596-72.9004C111.377-75 111.816-76.8555 111.816-78.4668C111.816-82.2266 109.473-84.5703 105.713-84.5703C104.102-84.5703 102.197-84.1309 100.098-83.3496L14.9414-50.7812C10.6445-49.1211 7.4707-46.3867 7.4707-42.3828C7.4707-37.5977 10.9863-35.5957 15.8691-34.1309L51.0742-23.8281L61.3281 11.0352C62.793 16.1133 64.7949 19.7754 69.6289 19.7754ZM54.3945-34.0332L26.6602-42.5293C26.0254-42.7246 25.7812-42.9199 25.7812-43.2617C25.7812-43.5547 25.9766-43.8477 26.5625-44.043L78.3203-63.9648C82.7148-65.6738 87.0117-67.7246 92.041-70.0195C88.3301-66.9922 83.7891-63.2812 80.6152-60.1562ZM70.5078 1.51367C70.166 1.51367 69.9707 1.2207 69.7754 0.585938L61.2793-27.1484L87.4023-53.3691C90.4297-56.4453 94.3359-61.1816 97.2656-64.8926C94.9707-59.8145 92.9199-55.5176 91.2109-51.0742L71.2402 0.683594C71.0449 1.2207 70.8496 1.51367 70.5078 1.51367Z"/>
  </g>
  <g id="Medium-M" transform="matrix(1 0 0 1 1684.86 1126)">
   <path d="M69.1406 19.3359C72.9492 19.3359 75.5859 16.2598 77.3926 11.5723L109.619-72.7051C110.449-74.9023 110.938-76.8066 110.938-78.4668C110.938-81.9336 108.74-84.1309 105.225-84.1309C103.613-84.1309 101.66-83.6914 99.5117-82.8613L14.8438-50.4395C10.6445-48.8281 7.4707-46.1914 7.4707-42.3828C7.4707-37.6953 10.9375-35.9375 15.7227-34.5215L50.9766-24.1699L61.2305 10.6934C62.6953 15.6738 64.4531 19.3359 69.1406 19.3359ZM53.8086-33.1543L23.4863-42.4316C22.7539-42.627 22.5586-42.8711 22.5586-43.1641C22.5586-43.5059 22.7539-43.7988 23.3887-43.9941L81.3477-66.1621C85.498-67.7734 89.5508-69.7266 93.9941-71.7773C90.4785-68.9453 86.1816-65.4785 83.252-62.5488ZM70.0195 4.29688C69.6777 4.29688 69.4336 4.00391 69.2383 3.32031L59.9609-27.002L89.3555-56.4453C92.1875-59.3262 95.8008-63.7695 98.6328-67.334C96.582-62.8418 94.5801-58.7402 92.9688-54.541L70.8008 3.41797C70.5566 4.05273 70.3613 4.29688 70.0195 4.29688Z"/>
  </g>
  <g id="Regular-M" transform="matrix(1 0 0 1 1388.71 1126)">
   <path d="M68.6035 18.75C72.1191 18.75 74.6094 15.7227 76.416 11.0352L108.398-72.5098C109.277-74.7559 109.766-76.7578 109.766-78.418C109.766-81.5918 107.812-83.5449 104.639-83.5449C102.979-83.5449 100.977-83.0566 98.7305-82.1777L14.7461-50C10.6445-48.4375 7.4707-45.9473 7.4707-42.3828C7.4707-37.8906 10.8887-36.377 15.5762-34.9609L50.8301-24.6094L61.084 10.2051C62.5488 15.1367 64.0625 18.75 68.6035 18.75ZM53.0273-32.0312L19.3359-42.334C18.5547-42.5781 18.3105-42.7734 18.3105-43.1152C18.3105-43.457 18.5059-43.7012 19.2383-43.9941L85.2539-68.9941C89.1602-70.459 92.9199-72.4121 96.5332-74.0723C93.3105-71.4355 89.3066-68.3105 86.6211-65.625ZM69.3848 8.00781C68.9941 8.00781 68.7988 7.66602 68.5547 6.88477L58.252-26.8066L91.8457-60.4004C94.4824-63.0371 97.7539-67.1387 100.342-70.459C98.6816-66.748 96.6797-62.9883 95.2148-59.0332L70.2148 6.98242C69.9219 7.71484 69.7266 8.00781 69.3848 8.00781Z"/>
  </g>
  <g id="Light-M" transform="matrix(1 0 0 1 1092.9 1126)">
   <path d="M67.7246 17.8711C70.752 17.8711 72.8516 15.4297 74.4629 11.3281L106.934-73.584C107.617-75.3906 108.008-76.9531 108.008-78.3203C108.008-81.0059 106.348-82.666 103.662-82.666C102.295-82.666 100.732-82.2754 98.9258-81.5918L13.7207-48.9746C10.0098-47.5586 7.4707-45.4102 7.4707-42.3828C7.4707-38.6719 10.2051-37.2559 14.502-35.9863L50.7324-25.3906L61.2305 10.5469C62.5488 14.9902 63.9648 17.8711 67.7246 17.8711ZM52.4414-31.1035L17.2363-41.6504C15.8203-42.041 15.4785-42.3828 15.4785-42.8711C15.4785-43.3594 15.8203-43.75 16.9922-44.1895L89.5508-71.7773C92.5293-72.9004 95.459-74.3652 98.0469-75.5371C95.6543-73.6328 92.2363-70.9473 90.332-69.043ZM68.2129 9.91211C67.7246 9.91211 67.3828 9.52148 66.9922 8.1543L56.4453-27.0508L94.3848-64.9902C96.2891-66.8457 99.0234-70.3125 100.977-72.8027C99.7559-70.166 98.291-67.2363 97.1191-64.209L69.5312 8.34961C69.0918 9.52148 68.75 9.91211 68.2129 9.91211Z"/>
  </g>
  <g id="Thin-M" transform="matrix(1 0 0 1 797.365 1126)">
   <path d="M66.5527 16.6992C68.8965 16.6992 70.5566 15.0391 71.8262 11.7188L104.932-75C105.42-76.2207 105.615-77.2461 105.615-78.1738C105.615-80.2246 104.443-81.4453 102.344-81.4453C101.416-81.4453 100.391-81.25 99.1699-80.7617L12.3535-47.6074C9.17969-46.3867 7.4707-44.7266 7.4707-42.3828C7.4707-39.6973 9.27734-38.4277 13.0859-37.3047L50.5371-26.416L61.4746 11.0352C62.5488 14.7949 63.8184 16.6992 66.5527 16.6992ZM51.6113-29.8828L14.4531-40.7227C12.207-41.3574 11.7188-41.7969 11.7188-42.5293C11.7188-43.2617 12.2559-43.8477 14.0137-44.4824L95.2637-75.4395C97.0215-76.123 98.877-76.9531 100.098-77.5391C98.8281-76.5137 96.1426-74.4629 95.166-73.5352ZM66.6992 12.4512C66.0156 12.4512 65.5762 11.9629 64.8926 9.76562L54.0527-27.3926L97.7051-70.9961C98.6328-71.9238 100.684-74.5605 101.758-75.8789C101.221-74.6582 100.342-72.8516 99.6582-71.0449L68.6523 10.2051C68.0176 11.9141 67.4805 12.4512 66.6992 12.4512Z"/>
  </g>
  <g id="Ultralight-M" transform="matrix(1 0 0 1 501.264 1126)">
   <path d="M65.9668 16.1133C67.9688 16.1133 69.3848 14.8438 70.5078 11.9141L103.955-75.6836C104.297-76.6113 104.443-77.3926 104.443-78.0762C104.443-79.834 103.418-80.8105 101.66-80.8105C100.977-80.8105 100.195-80.7129 99.3164-80.3711L11.6699-46.9238C8.74023-45.8008 7.4707-44.3848 7.4707-42.3828C7.4707-40.2344 8.78906-39.0625 12.3535-37.9883L50.4883-26.9531L61.5723 11.2305C62.5977 14.6973 63.7695 16.1133 65.9668 16.1133ZM51.2207-29.2969L13.0371-40.2832C10.4004-41.0156 9.81445-41.5527 9.81445-42.334C9.81445-43.2129 10.4492-43.8477 12.4512-44.6289L98.1445-77.2949C99.3652-77.7832 100.586-78.3203 101.123-78.5156C100.391-78.0273 98.1445-76.2695 97.6562-75.8301ZM65.918 13.7695C65.1367 13.7695 64.5996 13.1836 63.8672 10.5957L52.832-27.5391L99.4141-74.0723C99.8047-74.4629 101.514-76.709 102.197-77.4414C101.953-76.9531 101.416-75.7324 100.928-74.5605L68.2129 11.1328C67.4316 13.1348 66.7969 13.7695 65.918 13.7695Z"/>
  </g>
  <g id="Black-S" transform="matrix(1 0 0 1 2883.03 696)">
   <path d="M56.2012 9.52148C60.0586 9.52148 62.5977 7.03125 64.0137 3.32031L90.1855-65.2832C90.7227-66.6992 90.9668-68.0176 90.9668-69.1895C90.9668-73.0469 88.4277-75.5859 84.5703-75.5859C83.3496-75.5859 82.0312-75.3418 80.6641-74.8047L12.0605-48.6328C8.34961-47.2168 5.85938-44.6777 5.85938-40.8203C5.85938-36.5723 8.74023-34.2773 12.9395-33.0566L40.4297-25.0488L48.3887 2.39258C49.6094 6.5918 51.9531 9.52148 56.2012 9.52148ZM44.873-37.5488L32.7637-41.2598C32.5195-41.3086 32.373-41.5039 32.373-41.748C32.373-41.9434 32.5195-42.1387 32.7148-42.1875L50.0488-49.5117C54.3457-51.2695 58.5938-53.0273 64.8438-55.8594C61.084-52.832 56.6895-49.0723 53.3203-45.8008ZM57.1289-17.041C56.8848-17.041 56.7383-17.1875 56.6895-17.4316L52.9297-29.4922L61.1816-37.9395C64.209-41.0645 68.3594-45.8496 71.2402-49.4629C68.4082-43.2129 66.6504-38.9648 64.8926-34.668L57.5684-17.3828C57.5195-17.1875 57.3242-17.041 57.1289-17.041Z"/>
  </g>
  <g id="Heavy-S" transform="matrix(1 0 0 1 2586.81 696)">
   <path d="M55.7129 9.0332C59.375 9.0332 61.8164 6.49414 63.2812 2.73438L89.1113-64.9414C89.6973-66.5039 89.9902-67.9199 89.9902-69.1895C89.9902-72.7539 87.6465-75.0977 84.082-75.0977C82.8125-75.0977 81.3965-74.8047 79.8828-74.2188L12.0605-48.3398C8.39844-46.9238 5.85938-44.4824 5.85938-40.8203C5.85938-36.6699 8.78906-34.6191 12.8906-33.3984L40.2832-25.3906L48.2422 1.85547C49.4629 6.05469 51.5625 9.0332 55.7129 9.0332ZM44.1406-36.5234L28.8574-41.2109C28.5645-41.3086 28.4668-41.4551 28.4668-41.6992C28.4668-41.8945 28.5645-42.0898 28.8086-42.1387L53.5156-52.0508C57.6172-53.7109 61.6699-55.4688 67.2363-58.0078C63.6719-55.127 59.4727-51.6113 56.3477-48.5352ZM56.5918-13.5742C56.3477-13.5742 56.25-13.7207 56.1523-13.9648L51.416-29.248L63.4277-41.4551C66.3086-44.3848 70.166-48.877 72.9004-52.3438C70.3613-46.7773 68.6035-42.7246 66.9434-38.623L57.0312-13.9648C56.9824-13.7207 56.7871-13.5742 56.5918-13.5742Z"/>
  </g>
  <g id="Bold-S" transform="matrix(1 0 0 1 2290.64 696)">
   <path d="M55.1758 8.49609C58.5938 8.49609 60.9375 5.95703 62.4023 2.09961L87.9395-64.5996C88.5742-66.3086 88.916-67.8223 88.916-69.1406C88.916-72.4609 86.8164-74.5605 83.4961-74.5605C82.1777-74.5605 80.6641-74.2188 78.9551-73.584L12.0605-47.9492C8.49609-46.6309 5.85938-44.2871 5.85938-40.8203C5.85938-36.7676 8.78906-34.9609 12.8418-33.7891L40.1367-25.7812L48.0957 1.31836C49.3164 5.41992 51.0742 8.49609 55.1758 8.49609ZM43.3594-35.3516L24.4629-41.1621C24.1699-41.2598 24.0723-41.4062 24.0723-41.6504C24.0723-41.7969 24.1699-41.9922 24.4141-42.0898L57.373-54.9316C61.2793-56.4453 65.0879-58.2031 69.873-60.4004C66.5039-57.666 62.5977-54.4434 59.7168-51.6113ZM56.0059-9.66797C55.7617-9.66797 55.6641-9.86328 55.5664-10.1562L49.707-29.0039L65.9668-45.3613C68.7012-48.1445 72.168-52.2949 74.7559-55.5664C72.6074-50.7324 70.8496-46.9238 69.2871-43.0176L56.4453-10.1074C56.3477-9.81445 56.2012-9.66797 56.0059-9.66797Z"/>
  </g>
  <g id="Semibold-S" transform="matrix(1 0 0 1 1994.29 696)">
   <path d="M54.7852 8.10547C58.1055 8.10547 60.3516 5.51758 61.8164 1.66016L87.1094-64.3555C87.793-66.1621 88.1836-67.7734 88.1836-69.1406C88.1836-72.2168 86.2305-74.1699 83.1543-74.1699C81.7383-74.1699 80.127-73.7793 78.3691-73.0957L12.0605-47.7051C8.54492-46.3867 5.85938-44.1406 5.85938-40.8203C5.85938-36.8164 8.83789-35.2539 12.793-34.082L40.0391-26.0742L47.9492 0.878906C49.1699 5.0293 50.7812 8.10547 54.7852 8.10547ZM42.8223-34.5703L21.4355-41.1621C21.1426-41.2598 20.9961-41.4062 20.9961-41.6016C20.9961-41.748 21.0938-41.9434 21.4355-42.041L60.0586-56.8848C63.8184-58.3496 67.4316-60.1074 71.6797-62.0605C68.5059-59.4727 64.7461-56.3965 62.0117-53.7109ZM55.6152-6.98242C55.3711-6.98242 55.2734-7.17773 55.1758-7.4707L48.5352-28.8086L67.7246-48.0469C70.3125-50.6836 73.5352-54.5898 76.0742-57.8125C74.1211-53.5156 72.3633-49.8535 70.8984-46.0938L56.0547-7.4707C55.957-7.12891 55.8105-6.98242 55.6152-6.98242Z"/>
  </g>
  <g id="Medium-S" transform="matrix(1 0 0 1 1697.87 696)">
   <path d="M54.541 7.86133C57.666 7.86133 59.9121 5.22461 61.377 1.31836L86.4746-64.1602C87.207-66.0645 87.5977-67.7246 87.5977-69.1406C87.5977-72.0703 85.7422-73.9258 82.8613-73.9258C81.4453-73.9258 79.7363-73.4863 77.8809-72.7539L12.0605-47.5586C8.59375-46.2402 5.85938-43.9941 5.85938-40.8203C5.85938-36.8652 8.83789-35.4492 12.7441-34.2773L39.9902-26.2695L47.9004 0.585938C49.0723 4.6875 50.5371 7.86133 54.541 7.86133ZM42.3828-33.9355L19.1406-41.1133C18.8477-41.2598 18.7012-41.3574 18.7012-41.5527C18.7012-41.748 18.7988-41.8945 19.1406-41.9922L62.1094-58.3984C65.7227-59.7656 69.1895-61.5234 73.0957-63.2812C69.9707-60.791 66.4062-57.9102 63.8184-55.3223ZM55.3223-4.93164C55.0781-4.93164 54.9805-5.12695 54.834-5.46875L47.6562-28.6621L69.043-50.0977C71.582-52.6367 74.6094-56.3965 77.0508-59.4727C75.293-55.5664 73.4863-52.0508 72.1191-48.3887L55.7129-5.41992C55.6152-5.12695 55.4688-4.93164 55.3223-4.93164Z"/>
  </g>
  <g id="Regular-S" transform="matrix(1 0 0 1 1401.53 696)">
   <path d="M54.1504 7.4707C57.1777 7.4707 59.2773 4.83398 60.8398 0.878906L85.6445-63.916C86.4258-65.918 86.8652-67.6758 86.8652-69.1406C86.8652-71.8262 85.1562-73.5352 82.4707-73.5352C81.0059-73.5352 79.248-73.0957 77.2949-72.3145L12.0605-47.3145C8.64258-45.9961 5.85938-43.8477 5.85938-40.8203C5.85938-36.9141 8.88672-35.6934 12.7441-34.5215L39.8926-26.5137L47.8027 0.195312C48.9746 4.29688 50.2441 7.4707 54.1504 7.4707ZM41.8457-33.1543L16.1621-41.1133C15.8203-41.2109 15.7227-41.3574 15.7227-41.5039C15.7227-41.6992 15.7715-41.8457 16.1621-41.9922L64.7461-60.3516C68.2129-61.6699 71.5332-63.3789 74.9023-64.9414C71.9727-62.5488 68.5059-59.8145 66.1133-57.4219ZM54.8828-2.29492C54.6875-2.29492 54.5898-2.49023 54.4434-2.83203L46.4844-28.5156L70.752-52.7344C73.1934-55.1758 75.9766-58.6914 78.3203-61.6699C76.7578-58.3008 75-54.9316 73.6816-51.3672L55.3223-2.83203C55.1758-2.44141 55.0781-2.29492 54.8828-2.29492Z"/>
  </g>
  <g id="Light-S" transform="matrix(1 0 0 1 1105.6 696)">
   <path d="M53.3691 6.68945C55.957 6.68945 57.7637 4.58984 59.082 1.12305L84.3262-64.8926C84.9609-66.4551 85.3027-67.8711 85.3027-69.043C85.3027-71.3379 83.8867-72.7539 81.5918-72.7539C80.4199-72.7539 79.0039-72.3633 77.4414-71.7773L11.1328-46.3867C8.10547-45.2148 5.85938-43.4082 5.85938-40.8203C5.85938-37.6465 8.25195-36.4746 11.7676-35.4492L39.7949-27.2461L47.9492 0.488281C48.9746 4.15039 50.1465 6.68945 53.3691 6.68945ZM41.3086-32.373L14.3066-40.5273C13.4277-40.7715 13.2324-40.9668 13.2324-41.3086C13.2324-41.6504 13.4277-41.8945 14.1602-42.1875L68.5059-62.793C71.1914-63.8184 73.8281-65.1367 76.2207-66.2598C74.0234-64.502 71.1426-62.207 69.3359-60.4004ZM53.9062-0.585938C53.5156-0.585938 53.3203-0.878906 53.0762-1.75781L44.9219-28.7109L72.998-56.7871C74.7559-58.5449 77.0996-61.5234 78.8574-63.7695C77.7344-61.2793 76.416-58.6914 75.3906-55.957L54.7363-1.61133C54.4434-0.878906 54.248-0.585938 53.9062-0.585938Z"/>
  </g>
  <g id="Thin-S" transform="matrix(1 0 0 1 809.938 696)">
   <path d="M52.3438 5.66406C54.3457 5.66406 55.7129 4.24805 56.7871 1.46484L82.6172-66.1133C83.0078-67.1875 83.2031-68.1152 83.2031-68.8965C83.2031-70.6543 82.1777-71.6797 80.4199-71.6797C79.6387-71.6797 78.7109-71.4844 77.6367-71.0449L9.96094-45.2148C7.37305-44.1895 5.85938-42.8223 5.85938-40.8203C5.85938-38.5254 7.4707-37.5 10.498-36.6211L39.6484-28.125L48.0957 0.927734C49.0234 4.00391 50.0488 5.66406 52.3438 5.66406ZM40.5762-31.2988L11.8652-39.6973C10.2539-40.1855 9.91211-40.4785 9.91211-41.0156C9.91211-41.5527 10.3027-41.9434 11.5234-42.4316L73.5352-66.0156C75.1953-66.6504 76.8066-67.4316 78.0273-67.9688C76.8066-67.041 74.5605-65.332 73.6328-64.4043ZM52.5391 1.66016C52.0508 1.66016 51.709 1.26953 51.2695-0.292969L42.7734-29.0039L75.9277-62.1094C76.8066-62.9883 78.5645-65.2344 79.5898-66.5039C79.0039-65.2832 78.2227-63.6719 77.5879-62.0117L53.9551 0C53.5156 1.26953 53.125 1.66016 52.5391 1.66016Z"/>
  </g>
  <g id="Ultralight-S" transform="matrix(1 0 0 1 513.764 696)">
   <path d="M51.8066 5.12695C53.5156 5.12695 54.6875 4.05273 55.6152 1.66016L81.6895-66.748C82.0312-67.5293 82.1289-68.2129 82.1289-68.7988C82.1289-70.3125 81.2988-71.1426 79.834-71.1426C79.248-71.1426 78.5645-70.9961 77.7344-70.7031L9.32617-44.5801C6.98242-43.6523 5.85938-42.4805 5.85938-40.8203C5.85938-39.0137 7.03125-38.0371 9.86328-37.207L39.5508-28.6133L48.2422 1.12305C49.0234 3.90625 49.9512 5.12695 51.8066 5.12695ZM40.2344-30.7617L10.5957-39.3066C8.64258-39.8438 8.20312-40.2344 8.20312-40.8691C8.20312-41.5039 8.69141-41.9922 10.1562-42.5293L76.123-67.6758C77.1973-68.1152 78.3691-68.6035 78.9551-68.8965C78.2227-68.3594 76.3672-66.8945 75.8789-66.4062ZM51.8555 2.83203C51.2695 2.83203 50.8789 2.39258 50.293 0.439453L41.6992-29.1504L77.4414-64.8438C77.8809-65.2832 79.2969-67.1387 79.9316-67.8711C79.6875-67.2852 79.1992-66.2109 78.7598-65.0879L53.5645 0.830078C52.9785 2.34375 52.5391 2.83203 51.8555 2.83203Z"/>
  </g>
 </g>
</svg>
