<?xml version="1.0" encoding="UTF-8"?>
<!--Generator: Apple Native CoreSVG 149-->
<!DOCTYPE svg
PUBLIC "-//W3C//DTD SVG 1.1//EN"
       "http://www.w3.org/Graphics/SVG/1.1/DTD/svg11.dtd">
<svg version="1.1" xmlns="http://www.w3.org/2000/svg" xmlns:xlink="http://www.w3.org/1999/xlink" width="3300" height="2200">
 <!--glyph: "uni100220.medium", point size: 100.000000, font version: "Version 16.0d18e1", template writer version: "8"-->
 <g id="Notes">
  <rect height="2200" id="artboard" style="fill:white;opacity:1" width="3300" x="0" y="0"/>
  <line id="" style="fill:none;stroke:black;opacity:1;stroke-width:0.5;" x1="263" x2="3036" y1="292" y2="292"/>
  <text style="stroke:none;fill:black;font-family:-apple-system,&quot;SF Pro Display&quot;,&quot;SF Pro Text&quot;,Helvetica,sans-serif;font-weight:bold;" transform="matrix(1 0 0 1 263 322)">Weight/Scale Variations</text>
  <text style="stroke:none;fill:black;font-family:-apple-system,&quot;SF Pro Display&quot;,&quot;SF Pro Text&quot;,Helvetica,sans-serif;text-anchor:middle;" transform="matrix(1 0 0 1 559.711 322)">Ultralight</text>
  <text style="stroke:none;fill:black;font-family:-apple-system,&quot;SF Pro Display&quot;,&quot;SF Pro Text&quot;,Helvetica,sans-serif;text-anchor:middle;" transform="matrix(1 0 0 1 856.422 322)">Thin</text>
  <text style="stroke:none;fill:black;font-family:-apple-system,&quot;SF Pro Display&quot;,&quot;SF Pro Text&quot;,Helvetica,sans-serif;text-anchor:middle;" transform="matrix(1 0 0 1 1153.13 322)">Light</text>
  <text style="stroke:none;fill:black;font-family:-apple-system,&quot;SF Pro Display&quot;,&quot;SF Pro Text&quot;,Helvetica,sans-serif;text-anchor:middle;" transform="matrix(1 0 0 1 1449.84 322)">Regular</text>
  <text style="stroke:none;fill:black;font-family:-apple-system,&quot;SF Pro Display&quot;,&quot;SF Pro Text&quot;,Helvetica,sans-serif;text-anchor:middle;" transform="matrix(1 0 0 1 1746.56 322)">Medium</text>
  <text style="stroke:none;fill:black;font-family:-apple-system,&quot;SF Pro Display&quot;,&quot;SF Pro Text&quot;,Helvetica,sans-serif;text-anchor:middle;" transform="matrix(1 0 0 1 2043.27 322)">Semibold</text>
  <text style="stroke:none;fill:black;font-family:-apple-system,&quot;SF Pro Display&quot;,&quot;SF Pro Text&quot;,Helvetica,sans-serif;text-anchor:middle;" transform="matrix(1 0 0 1 2339.98 322)">Bold</text>
  <text style="stroke:none;fill:black;font-family:-apple-system,&quot;SF Pro Display&quot;,&quot;SF Pro Text&quot;,Helvetica,sans-serif;text-anchor:middle;" transform="matrix(1 0 0 1 2636.69 322)">Heavy</text>
  <text style="stroke:none;fill:black;font-family:-apple-system,&quot;SF Pro Display&quot;,&quot;SF Pro Text&quot;,Helvetica,sans-serif;text-anchor:middle;" transform="matrix(1 0 0 1 2933.4 322)">Black</text>
  <line id="" style="fill:none;stroke:black;opacity:1;stroke-width:0.5;" x1="263" x2="3036" y1="1903" y2="1903"/>
  <g id="" transform="matrix(1 0 0 1 263 1933)">
   <path d="M9.24805 0.830078C13.5547 0.830078 17.1387-2.74414 17.1387-7.05078C17.1387-11.3574 13.5449-14.9316 9.23828-14.9316C4.94141-14.9316 1.36719-11.3574 1.36719-7.05078C1.36719-2.74414 4.95117 0.830078 9.24805 0.830078ZM9.24805-0.654297C5.70312-0.654297 2.87109-3.49609 2.87109-7.05078C2.87109-10.6055 5.69336-13.4473 9.23828-13.4473C12.793-13.4473 15.6348-10.6055 15.6445-7.05078C15.6543-3.49609 12.8027-0.654297 9.24805-0.654297ZM6.39648-6.31836L8.50586-6.31836L8.50586-4.19922C8.50586-3.75977 8.79883-3.45703 9.22852-3.45703C9.67773-3.45703 9.9707-3.75977 9.9707-4.19922L9.9707-6.31836L12.0996-6.31836C12.5391-6.31836 12.8418-6.61133 12.8418-7.04102C12.8418-7.48047 12.5391-7.7832 12.0996-7.7832L9.9707-7.7832L9.9707-9.89258C9.9707-10.3418 9.67773-10.6445 9.22852-10.6445C8.79883-10.6445 8.50586-10.3418 8.50586-9.89258L8.50586-7.7832L6.39648-7.7832C5.94727-7.7832 5.64453-7.48047 5.64453-7.04102C5.64453-6.61133 5.94727-6.31836 6.39648-6.31836Z"/>
  </g>
  <g id="" transform="matrix(1 0 0 1 281.506 1933)">
   <path d="M11.709 2.91016C17.1582 2.91016 21.6699-1.61133 21.6699-7.05078C21.6699-12.5 17.1484-17.0117 11.6992-17.0117C6.25977-17.0117 1.74805-12.5 1.74805-7.05078C1.74805-1.61133 6.26953 2.91016 11.709 2.91016ZM11.709 1.25C7.09961 1.25 3.41797-2.44141 3.41797-7.05078C3.41797-11.6602 7.08984-15.3516 11.6992-15.3516C16.3086-15.3516 20-11.6602 20.0098-7.05078C20.0195-2.44141 16.3184 1.25 11.709 1.25ZM7.98828-6.23047L10.8789-6.23047L10.8789-3.32031C10.8789-2.83203 11.2109-2.5 11.6895-2.5C12.1777-2.5 12.5195-2.83203 12.5195-3.32031L12.5195-6.23047L15.4297-6.23047C15.918-6.23047 16.25-6.5625 16.25-7.04102C16.25-7.5293 15.918-7.87109 15.4297-7.87109L12.5195-7.87109L12.5195-10.7617C12.5195-11.2695 12.1777-11.6016 11.6895-11.6016C11.2109-11.6016 10.8789-11.2598 10.8789-10.7617L10.8789-7.87109L7.98828-7.87109C7.48047-7.87109 7.14844-7.5293 7.14844-7.04102C7.14844-6.5625 7.49023-6.23047 7.98828-6.23047Z"/>
  </g>
  <g id="" transform="matrix(1 0 0 1 304.924 1933)">
   <path d="M14.9707 5.66406C21.9336 5.66406 27.6953-0.0976562 27.6953-7.05078C27.6953-14.0137 21.9238-19.7754 14.9609-19.7754C8.00781-19.7754 2.25586-14.0137 2.25586-7.05078C2.25586-0.0976562 8.01758 5.66406 14.9707 5.66406ZM14.9707 3.84766C8.93555 3.84766 4.08203-1.01562 4.08203-7.05078C4.08203-13.0957 8.92578-17.9492 14.9609-17.9492C21.0059-17.9492 25.8594-13.0957 25.8691-7.05078C25.8789-1.01562 21.0156 3.84766 14.9707 3.84766ZM10.0586-6.14258L14.0625-6.14258L14.0625-2.12891C14.0625-1.5918 14.4336-1.2207 14.9512-1.2207C15.4883-1.2207 15.8594-1.5918 15.8594-2.12891L15.8594-6.14258L19.8828-6.14258C20.4102-6.14258 20.791-6.51367 20.791-7.03125C20.791-7.56836 20.4199-7.94922 19.8828-7.94922L15.8594-7.94922L15.8594-11.9531C15.8594-12.5098 15.4883-12.8809 14.9512-12.8809C14.4336-12.8809 14.0625-12.5 14.0625-11.9531L14.0625-7.94922L10.0586-7.94922C9.50195-7.94922 9.13086-7.56836 9.13086-7.03125C9.13086-6.51367 9.51172-6.14258 10.0586-6.14258Z"/>
  </g>
  <text style="stroke:none;fill:black;font-family:-apple-system,&quot;SF Pro Display&quot;,&quot;SF Pro Text&quot;,Helvetica,sans-serif;font-weight:bold;" transform="matrix(1 0 0 1 263 1953)">Design Variations</text>
  <text style="stroke:none;fill:black;font-family:-apple-system,&quot;SF Pro Display&quot;,&quot;SF Pro Text&quot;,Helvetica,sans-serif;" transform="matrix(1 0 0 1 263 1971)">Symbols are supported in up to nine weights and three scales.</text>
  <text style="stroke:none;fill:black;font-family:-apple-system,&quot;SF Pro Display&quot;,&quot;SF Pro Text&quot;,Helvetica,sans-serif;" transform="matrix(1 0 0 1 263 1989)">For optimal layout with text and other symbols, vertically align</text>
  <text style="stroke:none;fill:black;font-family:-apple-system,&quot;SF Pro Display&quot;,&quot;SF Pro Text&quot;,Helvetica,sans-serif;" transform="matrix(1 0 0 1 263 2007)">symbols with the adjacent text.</text>
  <line id="" style="fill:none;stroke:#00AEEF;stroke-width:0.5;opacity:1.0;" x1="776" x2="776" y1="1919" y2="1933"/>
  <g id="" transform="matrix(1 0 0 1 776 1933)">
   <path d="M3.31055 0.126953C3.82812 0.126953 4.08203-0.0683594 4.26758-0.605469L5.52734-4.0625L11.2891-4.0625L12.5488-0.605469C12.7344-0.0683594 12.9883 0.126953 13.4961 0.126953C14.0137 0.126953 14.3457-0.185547 14.3457-0.673828C14.3457-0.839844 14.3164-0.986328 14.2383-1.20117L9.6582-13.3887C9.43359-13.9941 9.0332-14.2871 8.4082-14.2871C7.80273-14.2871 7.39258-13.9941 7.17773-13.3984L2.59766-1.19141C2.51953-0.976562 2.49023-0.830078 2.49023-0.664062C2.49023-0.175781 2.80273 0.126953 3.31055 0.126953ZM6.00586-5.53711L8.37891-12.1094L8.42773-12.1094L10.8008-5.53711Z"/>
  </g>
  <line id="" style="fill:none;stroke:#00AEEF;stroke-width:0.5;opacity:1.0;" x1="792.836" x2="792.836" y1="1919" y2="1933"/>
  <text style="stroke:none;fill:black;font-family:-apple-system,&quot;SF Pro Display&quot;,&quot;SF Pro Text&quot;,Helvetica,sans-serif;font-weight:bold;" transform="matrix(1 0 0 1 776 1953)">Margins</text>
  <text style="stroke:none;fill:black;font-family:-apple-system,&quot;SF Pro Display&quot;,&quot;SF Pro Text&quot;,Helvetica,sans-serif;" transform="matrix(1 0 0 1 776 1971)">Leading and trailing margins on the left and right side of each symbol</text>
  <text style="stroke:none;fill:black;font-family:-apple-system,&quot;SF Pro Display&quot;,&quot;SF Pro Text&quot;,Helvetica,sans-serif;" transform="matrix(1 0 0 1 776 1989)">can be adjusted by modifying the x-location of the margin guidelines.</text>
  <text style="stroke:none;fill:black;font-family:-apple-system,&quot;SF Pro Display&quot;,&quot;SF Pro Text&quot;,Helvetica,sans-serif;" transform="matrix(1 0 0 1 776 2007)">Modifications are automatically applied proportionally to all</text>
  <text style="stroke:none;fill:black;font-family:-apple-system,&quot;SF Pro Display&quot;,&quot;SF Pro Text&quot;,Helvetica,sans-serif;" transform="matrix(1 0 0 1 776 2025)">scales and weights.</text>
  <g id="" transform="matrix(1 0 0 1 1289 1933)">
   <path d="M2.8418 1.86523L4.54102 3.57422C5.40039 4.44336 6.38672 4.38477 7.31445 3.35938L17.4902-7.85156C17.7539-7.76367 18.0273-7.7832 18.3398-7.8418L19.4043-8.03711L20.0684-7.36328L20.0293-6.80664C19.9902-6.30859 20.1172-5.92773 20.6055-5.44922L21.3672-4.70703C21.8457-4.22852 22.4609-4.19922 22.9297-4.66797L25.8398-7.58789C26.3086-8.05664 26.2891-8.65234 25.8105-9.13086L25.0391-9.89258C24.5605-10.3711 24.1895-10.5273 23.7109-10.4883L23.1348-10.4395L22.4902-11.0742L22.7344-12.1973C22.8613-12.7637 22.7051-13.2031 22.1191-13.7891L19.9219-15.9766C16.582-19.2969 12.1484-19.2188 9.25781-16.3281C8.83789-15.918 8.80859-15.3418 9.04297-14.9512C9.27734-14.5898 9.73633-14.3555 10.3809-14.5215C11.8457-14.8633 13.3691-14.9219 14.7949-13.9844L14.209-12.5293C14.0137-12.0508 13.9844-11.6504 14.1113-11.2891L3.04688-0.898438C2.06055 0.0195312 1.98242 0.996094 2.8418 1.86523ZM10.752-15.957C13.1836-17.7344 16.4746-17.4316 18.7012-15.2051L21.1328-12.793C21.3672-12.5586 21.4062-12.373 21.3379-12.0312L21.0156-10.5469L22.5195-9.0625L23.5059-9.12109C23.7598-9.13086 23.8379-9.11133 24.0332-8.91602L24.6094-8.33984L22.168-5.89844L21.5918-6.47461C21.3965-6.66992 21.3672-6.74805 21.377-7.01172L21.4453-7.98828L19.9512-9.47266L18.4277-9.21875C18.1055-9.15039 17.959-9.17969 17.7148-9.41406L15.7129-11.416C15.459-11.6504 15.4297-11.8164 15.5859-12.1875L16.4648-14.2773C14.9023-15.7324 12.8711-16.3574 10.8398-15.7617C10.6836-15.7227 10.625-15.8496 10.752-15.957ZM5.27344 2.30469L4.10156 1.14258C3.63281 0.683594 3.74023 0.341797 4.14062-0.0195312L14.9512-10.1953L16.416-8.71094L6.42578 2.27539C6.07422 2.67578 5.74219 2.77344 5.27344 2.30469Z"/>
  </g>
  <text style="stroke:none;fill:black;font-family:-apple-system,&quot;SF Pro Display&quot;,&quot;SF Pro Text&quot;,Helvetica,sans-serif;font-weight:bold;" transform="matrix(1 0 0 1 1289 1953)">Exporting</text>
  <text style="stroke:none;fill:black;font-family:-apple-system,&quot;SF Pro Display&quot;,&quot;SF Pro Text&quot;,Helvetica,sans-serif;" transform="matrix(1 0 0 1 1289 1971)">Symbols should be outlined when exporting to ensure the</text>
  <text style="stroke:none;fill:black;font-family:-apple-system,&quot;SF Pro Display&quot;,&quot;SF Pro Text&quot;,Helvetica,sans-serif;" transform="matrix(1 0 0 1 1289 1989)">design is preserved when submitting to Xcode.</text>
  <text id="template-version" style="stroke:none;fill:black;font-family:-apple-system,&quot;SF Pro Display&quot;,&quot;SF Pro Text&quot;,Helvetica,sans-serif;text-anchor:end;" transform="matrix(1 0 0 1 3036 1933)">Template v.2.0</text>
  <text style="stroke:none;fill:black;font-family:-apple-system,&quot;SF Pro Display&quot;,&quot;SF Pro Text&quot;,Helvetica,sans-serif;text-anchor:end;" transform="matrix(1 0 0 1 3036 1951)">Requires Xcode 12 or greater</text>
  <text style="stroke:none;fill:black;font-family:-apple-system,&quot;SF Pro Display&quot;,&quot;SF Pro Text&quot;,Helvetica,sans-serif;text-anchor:end;" transform="matrix(1 0 0 1 3036 1969)">Generated from paperplane.fill</text>
  <text style="stroke:none;fill:black;font-family:-apple-system,&quot;SF Pro Display&quot;,&quot;SF Pro Text&quot;,Helvetica,sans-serif;text-anchor:end;" transform="matrix(1 0 0 1 3036 1987)">Typeset at 100 points</text>
  <text style="stroke:none;fill:black;font-family:-apple-system,&quot;SF Pro Display&quot;,&quot;SF Pro Text&quot;,Helvetica,sans-serif;" transform="matrix(1 0 0 1 263 726)">Small</text>
  <text style="stroke:none;fill:black;font-family:-apple-system,&quot;SF Pro Display&quot;,&quot;SF Pro Text&quot;,Helvetica,sans-serif;" transform="matrix(1 0 0 1 263 1156)">Medium</text>
  <text style="stroke:none;fill:black;font-family:-apple-system,&quot;SF Pro Display&quot;,&quot;SF Pro Text&quot;,Helvetica,sans-serif;" transform="matrix(1 0 0 1 263 1586)">Large</text>
 </g>
 <g id="Guides">
  <g id="H-reference" style="fill:#27AAE1;stroke:none;" transform="matrix(1 0 0 1 339 696)">
   <path d="M0.976562 0L3.66211 0L12.9883-24.4629L45.752-24.4629L55.127 0L57.7637 0L30.6152-70.459L28.125-70.459ZM29.3457-67.1387L29.4434-67.1387L44.873-26.709L13.8672-26.709Z"/>
  </g>
  <line id="Baseline-S" style="fill:none;stroke:#27AAE1;opacity:1;stroke-width:0.5;" x1="263" x2="3036" y1="696" y2="696"/>
  <line id="Capline-S" style="fill:none;stroke:#27AAE1;opacity:1;stroke-width:0.5;" x1="263" x2="3036" y1="625.541" y2="625.541"/>
  <g id="H-reference" style="fill:#27AAE1;stroke:none;" transform="matrix(1 0 0 1 339 1126)">
   <path d="M0.976562 0L3.66211 0L12.9883-24.4629L45.752-24.4629L55.127 0L57.7637 0L30.6152-70.459L28.125-70.459ZM29.3457-67.1387L29.4434-67.1387L44.873-26.709L13.8672-26.709Z"/>
  </g>
  <line id="Baseline-M" style="fill:none;stroke:#27AAE1;opacity:1;stroke-width:0.5;" x1="263" x2="3036" y1="1126" y2="1126"/>
  <line id="Capline-M" style="fill:none;stroke:#27AAE1;opacity:1;stroke-width:0.5;" x1="263" x2="3036" y1="1055.54" y2="1055.54"/>
  <g id="H-reference" style="fill:#27AAE1;stroke:none;" transform="matrix(1 0 0 1 339 1556)">
   <path d="M0.976562 0L3.66211 0L12.9883-24.4629L45.752-24.4629L55.127 0L57.7637 0L30.6152-70.459L28.125-70.459ZM29.3457-67.1387L29.4434-67.1387L44.873-26.709L13.8672-26.709Z"/>
  </g>
  <line id="Baseline-L" style="fill:none;stroke:#27AAE1;opacity:1;stroke-width:0.5;" x1="263" x2="3036" y1="1556" y2="1556"/>
  <line id="Capline-L" style="fill:none;stroke:#27AAE1;opacity:1;stroke-width:0.5;" x1="263" x2="3036" y1="1485.54" y2="1485.54"/>
  <line id="left-margin" style="fill:none;stroke:#00AEEF;stroke-width:0.5;opacity:1.0;" x1="1388.71" x2="1388.71" y1="1030.79" y2="1150.12"/>
  <line id="right-margin" style="fill:none;stroke:#00AEEF;stroke-width:0.5;opacity:1.0;" x1="1510.98" x2="1510.98" y1="1030.79" y2="1150.12"/>
 </g>
 <g id="Symbols">
  <g id="Black-L" transform="matrix(1 0 0 1 2851.3 1556)">
   <path d="M91.6992 37.4023C97.7051 37.4023 101.758 33.2031 104.15 26.9043L146.582-84.2773C147.607-86.8652 148.096-89.2578 148.096-91.3574C148.096-97.2168 144.287-101.074 138.428-101.074C136.279-101.074 133.887-100.537 131.299-99.5605L19.9219-56.9824C13.916-54.6875 9.66797-50.6836 9.66797-44.6777C9.66797-37.793 14.5508-34.5703 21.2891-32.4707L48.8281-23.877C54.6387-22.0703 58.252-22.0215 62.6465-25.9766L136.279-92.4805C137.402-93.457 138.818-93.3594 139.6-92.5293C140.381-91.748 140.527-90.332 139.551-89.2578L73.0957-15.7715C69.4824-11.7676 69.1895-7.27539 70.8496-1.9043L79.3945 25.4883C81.543 32.3242 84.8145 37.4023 91.6992 37.4023Z"/>
  </g>
  <g id="Heavy-L" transform="matrix(1 0 0 1 2555.54 1556)">
   <path d="M90.7715 36.4258C96.3379 36.4258 100.098 32.373 102.441 26.2695L144.727-84.375C145.703-86.9629 146.24-89.3066 146.24-91.3574C146.24-96.7285 142.773-100.195 137.402-100.195C135.352-100.195 133.008-99.6582 130.42-98.6816L19.5312-56.2988C13.7695-54.1016 9.66797-50.293 9.66797-44.7266C9.66797-38.2324 14.3066-35.3516 20.8008-33.3496L50.3418-24.2188C55.6152-22.5586 58.8867-22.5586 62.793-26.123L135.205-92.1387C136.279-93.0664 137.549-92.9688 138.281-92.1875C139.014-91.4551 139.111-90.1367 138.184-89.1602L72.2656-16.8457C69.043-13.2324 68.7012-9.27734 70.2148-4.3457L79.2969 24.9512C81.3477 31.5918 84.2773 36.4258 90.7715 36.4258Z"/>
  </g>
  <g id="Bold-L" transform="matrix(1 0 0 1 2259.85 1556)">
   <path d="M89.7461 35.3027C94.8242 35.3027 98.291 31.4941 100.586 25.5859L142.627-84.4727C143.604-87.0605 144.141-89.4043 144.141-91.3574C144.141-96.1426 141.113-99.2188 136.328-99.2188C134.277-99.2188 131.982-98.6816 129.443-97.7051L19.043-55.4688C13.5742-53.3691 9.66797-49.9023 9.66797-44.7754C9.66797-38.7695 14.0137-36.2305 20.2637-34.3262L52.0508-24.5605C56.6895-23.1445 59.5703-23.1934 62.9883-26.2695L134.033-91.748C134.961-92.5781 136.084-92.5293 136.768-91.8457C137.451-91.1621 137.549-89.9902 136.719-89.0625L71.3867-18.0176C68.5059-14.8926 68.1641-11.5723 69.5312-7.03125L79.1992 24.3652C81.1523 30.7129 83.6914 35.3027 89.7461 35.3027Z"/>
  </g>
  <g id="Semibold-L" transform="matrix(1 0 0 1 1963.87 1556)">
   <path d="M89.0137 34.5215C93.75 34.5215 97.0215 30.8594 99.2676 25.0977L141.211-84.5703C142.188-87.1582 142.725-89.4043 142.725-91.3574C142.725-95.752 139.941-98.5352 135.547-98.5352C133.594-98.5352 131.299-97.998 128.76-97.0215L18.75-54.9316C13.4277-52.8809 9.66797-49.6094 9.66797-44.8242C9.66797-39.1602 13.8184-36.8652 19.873-35.0098L53.2227-24.8047C57.4219-23.4863 60.0586-23.6328 63.0859-26.416L133.203-91.5039C134.082-92.2363 135.107-92.1875 135.742-91.5527C136.426-90.918 136.426-89.8438 135.645-89.0137L70.752-18.8477C68.1152-16.0156 67.8223-13.1348 69.0918-8.93555L79.1016 23.9258C81.0059 30.127 83.252 34.5215 89.0137 34.5215Z"/>
  </g>
  <g id="Medium-L" transform="matrix(1 0 0 1 1667.7 1556)">
   <path d="M88.4766 33.9355C92.9688 33.9355 96.0938 30.4199 98.291 24.707L140.088-84.6191C141.064-87.207 141.602-89.4531 141.602-91.3574C141.602-95.459 139.062-97.998 134.961-97.998C133.057-97.998 130.762-97.4609 128.223-96.4844L18.5059-54.4922C13.3301-52.5391 9.66797-49.4141 9.66797-44.873C9.66797-39.4531 13.6719-37.3047 19.5801-35.5469L54.1016-25C58.0078-23.7793 60.4004-23.9258 63.1836-26.4648L132.568-91.2598C133.398-91.9922 134.326-91.9434 134.961-91.3574C135.596-90.7715 135.596-89.7461 134.863-88.9648L70.2637-19.4824C67.8223-16.8457 67.5293-14.3066 68.75-10.3516L79.0527 23.584C80.8594 29.6875 82.959 33.9355 88.4766 33.9355Z"/>
  </g>
  <g id="Regular-L" transform="matrix(1 0 0 1 1371.7 1556)">
   <path d="M87.793 33.2031C91.9434 33.2031 94.873 29.7852 96.9727 24.2188L138.672-84.7168C139.648-87.2559 140.186-89.502 140.186-91.3574C140.186-95.0684 137.939-97.3633 134.229-97.3633C132.324-97.3633 130.127-96.7773 127.588-95.8008L18.1641-53.9551C13.2324-52.0508 9.66797-49.1211 9.66797-44.9219C9.66797-39.7949 13.4766-37.9395 19.2383-36.2305L55.2246-25.2441C58.7402-24.1699 60.8887-24.3652 63.3301-26.6113L131.738-91.0156C132.52-91.6992 133.35-91.6504 133.936-91.1133C134.57-90.5762 134.521-89.6484 133.887-88.8672L69.6289-20.3125C67.4805-17.9688 67.1875-15.8691 68.2617-12.207L78.9551 23.1934C80.7129 29.1504 82.5684 33.2031 87.793 33.2031Z"/>
  </g>
  <g id="Light-L" transform="matrix(1 0 0 1 1075.98 1556)">
   <path d="M86.8164 32.4219C90.3809 32.4219 92.9199 29.6387 94.7754 24.7559L137.012-85.6934C137.793-87.7441 138.184-89.5508 138.184-91.0645C138.184-94.2383 136.279-96.1426 133.105-96.1426C131.592-96.1426 129.834-95.752 127.783-94.9707L17.041-52.6367C12.5-50.8789 9.66797-48.3398 9.66797-44.7266C9.66797-40.4785 12.6953-38.7207 18.0176-37.1582L56.7383-25.3418C59.5703-24.5117 61.5723-24.8047 63.5742-26.6602L131.055-90.8203C131.738-91.4551 132.52-91.4551 133.057-90.9668C133.545-90.4785 133.496-89.6973 132.861-89.0137L68.7988-21.4355C66.9922-19.5312 66.6504-17.5293 67.4805-14.5996L79.1504 23.7793C80.7617 29.1504 82.4707 32.4219 86.8164 32.4219Z"/>
  </g>
  <g id="Thin-L" transform="matrix(1 0 0 1 780.592 1556)">
   <path d="M85.498 31.3477C88.3789 31.3477 90.332 29.4434 91.8945 25.4395L134.814-87.0117C135.352-88.4277 135.547-89.5996 135.547-90.625C135.547-93.1641 134.131-94.5801 131.641-94.5801C130.615-94.5801 129.395-94.3359 128.027-93.7988L15.5273-50.8789C11.5723-49.3652 9.66797-47.3633 9.66797-44.4824C9.66797-41.4062 11.6699-39.7949 16.4062-38.3789L58.6914-25.4883C60.5957-24.9512 62.5-25.3906 63.916-26.709L130.176-90.5762C130.762-91.1133 131.396-91.2109 131.787-90.8203C132.227-90.3809 132.08-89.7949 131.592-89.209L67.6758-22.9492C66.3574-21.5332 65.918-19.6777 66.4551-17.7246L79.3945 24.5117C80.8105 29.1992 82.3242 31.3477 85.498 31.3477Z"/>
  </g>
  <g id="Ultralight-L" transform="matrix(1 0 0 1 484.565 1556)">
   <path d="M84.8633 30.8105C87.3047 30.8105 89.0137 29.3457 90.3809 25.7812L133.691-87.6953C134.082-88.7695 134.229-89.6484 134.229-90.4297C134.229-92.5781 133.057-93.75 130.859-93.75C130.127-93.75 129.199-93.6523 128.174-93.2129L14.7461-49.9512C11.1328-48.584 9.66797-46.8262 9.66797-44.3848C9.66797-41.8457 11.1816-40.3809 15.625-39.0137L59.668-25.5859C61.1328-25.1465 62.9395-25.6836 64.1113-26.7578L129.736-90.4785C130.273-90.918 130.811-91.1133 131.201-90.7227C131.543-90.332 131.396-89.7949 130.908-89.2578L67.1387-23.7305C66.0156-22.5586 65.5273-20.752 65.918-19.3359L79.4922 24.9023C80.8105 29.248 82.2266 30.8105 84.8633 30.8105Z"/>
  </g>
  <g id="Black-M" transform="matrix(1 0 0 1 2869.04 1126)">
   <path d="M71.7773 21.9727C76.7578 21.9727 79.9805 18.7988 81.7871 14.0625L115.234-73.6328C115.918-75.3906 116.211-77.0996 116.211-78.5645C116.211-83.4961 112.939-86.7676 108.008-86.7676C106.445-86.7676 104.785-86.4746 103.076-85.791L15.3809-52.3438C10.6445-50.5371 7.4707-47.3145 7.4707-42.334C7.4707-36.9141 11.2305-34.082 16.5039-32.4219L36.6211-26.0742C41.4551-24.5605 44.6289-24.5117 48.4863-27.8809L106.738-79.9805C107.666-80.8105 108.838-80.7129 109.473-80.0293C110.107-79.3457 110.254-78.1738 109.424-77.2949L57.3242-19.2871C54.248-15.918 53.9551-11.6699 55.3223-7.37305L61.7676 12.8906C63.4766 18.1641 66.3574 21.9727 71.7773 21.9727Z"/>
  </g>
  <g id="Heavy-M" transform="matrix(1 0 0 1 2573.09 1126)">
   <path d="M71.0449 21.0938C75.6348 21.0938 78.7109 17.9688 80.5176 13.2324L113.623-73.4863C114.355-75.3906 114.697-77.0996 114.697-78.6621C114.697-83.2031 111.768-86.1328 107.227-86.1328C105.615-86.1328 103.906-85.791 102.051-85.0586L15.2344-51.9043C10.6445-50.1465 7.4707-47.0703 7.4707-42.4805C7.4707-37.2559 11.1328-34.7168 16.3086-33.1055L37.8906-26.3672C42.2852-25 45.166-25 48.584-28.0273L105.713-79.6387C106.592-80.4199 107.666-80.3223 108.252-79.6875C108.887-79.0527 108.984-77.9785 108.203-77.1484L56.6406-20.166C53.8574-17.0898 53.5645-13.4766 54.834-9.42383L61.6211 12.1094C63.2324 17.334 65.8203 21.0938 71.0449 21.0938Z"/>
  </g>
  <g id="Bold-M" transform="matrix(1 0 0 1 2277.23 1126)">
   <path d="M70.2148 20.1172C74.4141 20.1172 77.2949 16.9922 79.1016 12.3047L111.816-73.3398C112.598-75.3418 112.988-77.1484 112.988-78.7109C112.988-82.8125 110.4-85.4004 106.348-85.4004C104.736-85.4004 102.881-85.0098 100.928-84.2285L15.0879-51.416C10.6445-49.7559 7.4707-46.875 7.4707-42.5781C7.4707-37.6465 11.0352-35.4492 16.0645-33.9355L39.3066-26.7578C43.2617-25.5371 45.7031-25.5371 48.6816-28.2227L104.59-79.248C105.371-79.9805 106.348-79.8828 106.934-79.3457C107.471-78.7598 107.568-77.7832 106.885-77.002L55.8594-21.1426C53.418-18.457 53.1738-15.4785 54.3457-11.7188L61.4258 11.2793C62.9883 16.4062 65.1855 20.1172 70.2148 20.1172Z"/>
  </g>
  <g id="Semibold-M" transform="matrix(1 0 0 1 1981.11 1126)">
   <path d="M69.6289 19.4336C73.584 19.4336 76.3184 16.3574 78.125 11.6699L110.596-73.1934C111.377-75.293 111.816-77.1973 111.816-78.8086C111.816-82.5195 109.473-84.9121 105.713-84.9121C104.102-84.9121 102.197-84.4727 100.098-83.6914L14.9414-51.0742C10.6445-49.4629 7.4707-46.6797 7.4707-42.6758C7.4707-37.8906 10.9863-35.9863 15.8691-34.4727L40.2832-27.002C43.9453-25.8789 46.1426-25.8789 48.7793-28.3203L103.809-79.0039C104.541-79.6387 105.42-79.5898 105.957-79.0527C106.543-78.5156 106.592-77.6367 105.908-76.9043L55.3711-21.8262C53.0762-19.3848 52.8809-16.8945 53.9551-13.2812L61.3281 10.7422C62.8418 15.7715 64.7949 19.4336 69.6289 19.4336Z"/>
  </g>
  <g id="Medium-M" transform="matrix(1 0 0 1 1684.86 1126)">
   <path d="M69.1406 18.9453C72.9492 18.9453 75.5859 15.8691 77.3926 11.1816L109.619-73.1445C110.449-75.293 110.938-77.1973 110.938-78.8574C110.938-82.3242 108.74-84.5215 105.225-84.5215C103.613-84.5215 101.66-84.082 99.5117-83.252L14.8438-50.8301C10.6445-49.2188 7.4707-46.582 7.4707-42.7734C7.4707-38.1348 10.9375-36.377 15.7227-34.9121L41.0156-27.1973C44.4336-26.123 46.4355-26.1719 48.8281-28.418L103.223-78.8086C103.906-79.4434 104.736-79.3457 105.273-78.8574C105.811-78.3691 105.811-77.4902 105.225-76.8555L54.9316-22.3633C52.8809-20.0684 52.6855-17.9199 53.7109-14.502L61.2305 10.3027C62.6953 15.2832 64.4531 18.9453 69.1406 18.9453Z"/>
  </g>
  <g id="Regular-M" transform="matrix(1 0 0 1 1388.71 1126)">
   <path d="M68.6035 18.2617C72.1191 18.2617 74.6094 15.2344 76.416 10.5469L108.398-72.998C109.277-75.2441 109.766-77.2461 109.766-78.9062C109.766-82.0801 107.812-84.0332 104.639-84.0332C102.979-84.0332 100.977-83.5449 98.7305-82.666L14.7461-50.4883C10.6445-48.9258 7.4707-46.4355 7.4707-42.8711C7.4707-38.3789 10.8887-36.8652 15.5762-35.4492L41.9434-27.4414C45.0684-26.4648 46.8262-26.5625 48.9258-28.5156L102.49-78.5645C103.125-79.1504 103.857-79.0527 104.346-78.6133C104.834-78.125 104.883-77.3926 104.297-76.7578L54.4434-22.998C52.5391-20.9961 52.3926-19.3359 53.3203-16.0645L61.084 9.7168C62.5488 14.6484 64.0625 18.2617 68.6035 18.2617Z"/>
  </g>
  <g id="Light-M" transform="matrix(1 0 0 1 1092.9 1126)">
   <path d="M67.7246 17.5293C70.752 17.5293 72.8516 15.0879 74.4629 11.0352L106.934-73.9258C107.617-75.7324 108.008-77.2949 108.008-78.6133C108.008-81.3477 106.348-82.959 103.662-82.959C102.295-82.959 100.732-82.6172 98.9258-81.8848L13.7207-49.3164C10.0098-47.9004 7.4707-45.752 7.4707-42.6758C7.4707-39.0137 10.2051-37.5977 14.502-36.2793L43.3105-27.5391C45.8008-26.7578 47.4121-26.9531 49.1699-28.5645L101.855-78.418C102.441-78.9062 103.076-78.9062 103.516-78.4668C103.955-78.0762 103.906-77.4414 103.418-76.8555L53.6621-24.0234C52.1484-22.3633 51.9043-20.752 52.6367-18.1641L61.2305 10.2539C62.5488 14.6484 63.9648 17.5293 67.7246 17.5293Z"/>
  </g>
  <g id="Thin-M" transform="matrix(1 0 0 1 797.365 1126)">
   <path d="M66.5527 16.6016C68.8965 16.6016 70.5566 14.9414 71.8262 11.6211L104.932-75.0977C105.42-76.3184 105.615-77.3438 105.615-78.2715C105.615-80.3711 104.443-81.543 102.344-81.543C101.416-81.543 100.391-81.3477 99.1699-80.8594L12.3535-47.7051C9.17969-46.4844 7.4707-44.8242 7.4707-42.4805C7.4707-39.7949 9.27734-38.5254 13.0859-37.4023L45.0684-27.6367C46.7285-27.1484 48.2422-27.4902 49.4629-28.6133L101.074-78.1738C101.562-78.6133 102.051-78.6621 102.393-78.3203C102.783-77.9785 102.686-77.4902 102.246-77.002L52.6855-25.3906C51.5625-24.1699 51.2207-22.7051 51.709-20.9961L61.4746 10.9375C62.5977 14.6973 63.8184 16.6016 66.5527 16.6016Z"/>
  </g>
  <g id="Ultralight-M" transform="matrix(1 0 0 1 501.264 1126)">
   <path d="M65.9668 16.1133C67.9688 16.1133 69.3848 14.8438 70.5078 11.9629L103.955-75.6836C104.297-76.6113 104.443-77.3926 104.443-78.0762C104.443-79.834 103.418-80.8105 101.66-80.8105C100.977-80.8105 100.195-80.7129 99.3164-80.3223L11.6699-46.9238C8.74023-45.8008 7.4707-44.3848 7.4707-42.334C7.4707-40.2344 8.78906-39.0625 12.3535-37.9883L45.9473-27.7344C47.2168-27.3438 48.6328-27.7344 49.6094-28.6621L100.684-78.0762C101.123-78.418 101.562-78.5645 101.855-78.2715C102.148-77.9297 102.051-77.5391 101.66-77.0996L52.1973-26.0742C51.2695-25.0977 50.8789-23.6816 51.2695-22.4121L61.5723 11.2793C62.6465 14.7461 63.7695 16.1133 65.9668 16.1133Z"/>
  </g>
  <g id="Black-S" transform="matrix(1 0 0 1 2883.03 696)">
   <path d="M56.2012 9.52148C60.0586 9.52148 62.5977 7.03125 64.0137 3.32031L90.1855-65.2832C90.7227-66.6992 90.9668-68.0176 90.9668-69.1895C90.9668-73.0469 88.4277-75.5859 84.5703-75.5859C83.3496-75.5859 82.0312-75.3418 80.6641-74.8047L12.0605-48.6328C8.34961-47.2168 5.85938-44.6777 5.85938-40.8203C5.85938-36.5723 8.78906-34.375 12.9395-33.0566L28.7598-28.0762C32.5195-26.9043 35.0098-26.8555 37.9883-29.4922L83.5449-70.2637C84.2773-70.8984 85.2051-70.8496 85.6934-70.3125C86.1816-69.7754 86.2793-68.8477 85.6445-68.1641L44.873-22.8027C42.4805-20.166 42.2363-16.8945 43.3105-13.5254L48.3887 2.39258C49.707 6.54297 51.9531 9.52148 56.2012 9.52148Z"/>
  </g>
  <g id="Heavy-S" transform="matrix(1 0 0 1 2586.81 696)">
   <path d="M55.7129 8.93555C59.375 8.93555 61.8164 6.39648 63.2812 2.63672L89.1113-65.0879C89.6973-66.6016 89.9902-68.0664 89.9902-69.2871C89.9902-72.8516 87.6465-75.1953 84.082-75.1953C82.8125-75.1953 81.3965-74.9023 79.8828-74.3164L12.0605-48.4375C8.39844-47.0215 5.85938-44.5801 5.85938-40.918C5.85938-36.7676 8.78906-34.8145 12.8906-33.4961L29.5898-28.3203C33.1055-27.1973 35.3516-27.1973 38.0371-29.5898L82.8613-70.0195C83.5449-70.6055 84.375-70.5566 84.8633-70.0684C85.3516-69.5801 85.4004-68.7012 84.8145-68.0664L44.4336-23.3398C42.2363-20.9473 41.9922-18.1152 43.0176-14.8438L48.2422 1.75781C49.5117 5.9082 51.5625 8.93555 55.7129 8.93555Z"/>
  </g>
  <g id="Bold-S" transform="matrix(1 0 0 1 2290.64 696)">
   <path d="M55.1758 8.25195C58.5938 8.25195 60.9375 5.71289 62.4023 1.85547L87.9395-64.8438C88.5742-66.5527 88.916-68.0664 88.916-69.3848C88.916-72.6562 86.8164-74.8047 83.4961-74.8047C82.1777-74.8047 80.6641-74.4629 78.9551-73.7793L12.0605-48.1934C8.49609-46.8262 5.85938-44.4824 5.85938-41.0645C5.85938-36.9629 8.83789-35.2539 12.8418-34.0332L30.5176-28.5645C33.7402-27.5391 35.6934-27.5391 38.0859-29.7363L82.0801-69.7754C82.666-70.3125 83.4473-70.2637 83.9355-69.7754C84.375-69.3359 84.4727-68.5547 83.8867-67.9199L43.9453-23.9746C41.9434-21.7773 41.748-19.4824 42.7246-16.3574L48.0957 1.07422C49.3652 5.17578 51.0742 8.25195 55.1758 8.25195Z"/>
  </g>
  <g id="Semibold-S" transform="matrix(1 0 0 1 1994.29 696)">
   <path d="M54.7852 7.8125C58.1055 7.8125 60.3516 5.22461 61.8164 1.31836L87.1094-64.6973C87.793-66.5039 88.1836-68.0664 88.1836-69.4824C88.1836-72.5586 86.2305-74.5117 83.1543-74.5117C81.7383-74.5117 80.127-74.1211 78.3691-73.4375L12.0605-48.0469C8.54492-46.7285 5.85938-44.4336 5.85938-41.1133C5.85938-37.1582 8.83789-35.5957 12.793-34.375L31.1523-28.7598C34.1797-27.7832 35.9375-27.7832 38.1348-29.7852L81.4941-69.5801C82.1289-70.1172 82.8125-70.0195 83.252-69.5801C83.7402-69.1895 83.7891-68.4082 83.252-67.8223L43.6035-24.4141C41.748-22.3633 41.6016-20.4102 42.4805-17.3828L47.9492 0.585938C49.2188 4.6875 50.7812 7.8125 54.7852 7.8125Z"/>
  </g>
  <g id="Medium-S" transform="matrix(1 0 0 1 1697.87 696)">
   <path d="M54.541 7.4707C57.666 7.4707 59.9121 4.83398 61.377 0.927734L86.4746-64.5508C87.207-66.4551 87.5977-68.1152 87.5977-69.5312C87.5977-72.4121 85.7422-74.2676 82.8613-74.2676C81.4453-74.2676 79.7363-73.877 77.8809-73.1445L12.0605-47.9004C8.59375-46.582 5.85938-44.3848 5.85938-41.2109C5.85938-37.2559 8.83789-35.8398 12.7441-34.668L31.5918-28.9062C34.5215-27.9785 36.1328-27.9785 38.1836-29.8828L81.1035-69.4336C81.6895-69.9707 82.3242-69.873 82.7637-69.4336C83.2031-69.043 83.3008-68.3105 82.7637-67.7734L43.3594-24.7559C41.6016-22.8027 41.4551-21.1426 42.334-18.1641L47.9004 0.195312C49.1211 4.29688 50.5371 7.4707 54.541 7.4707Z"/>
  </g>
  <g id="Regular-S" transform="matrix(1 0 0 1 1401.53 696)">
   <path d="M54.1504 7.03125C57.1777 7.03125 59.2773 4.39453 60.8398 0.390625L85.6445-64.4043C86.4258-66.3574 86.8652-68.1152 86.8652-69.5801C86.8652-72.3145 85.1562-74.0234 82.4707-74.0234C81.0059-74.0234 79.248-73.5352 77.2949-72.8027L12.0605-47.7539C8.64258-46.4844 5.85938-44.3359 5.85938-41.2598C5.85938-37.4023 8.88672-36.1328 12.7441-35.0098L32.2266-29.0527C34.9609-28.2227 36.377-28.2227 38.2324-29.9316L80.5664-69.2383C81.1035-69.7266 81.7383-69.6289 82.1289-69.2871C82.5684-68.8965 82.6172-68.2129 82.1289-67.6758L43.0176-25.1465C41.4062-23.3887 41.2598-22.0703 42.1387-19.1895L47.8027-0.244141C48.9746 3.80859 50.2441 7.03125 54.1504 7.03125Z"/>
  </g>
  <g id="Light-S" transform="matrix(1 0 0 1 1105.6 696)">
   <path d="M53.3691 6.39648C55.957 6.39648 57.7637 4.24805 59.082 0.830078L84.3262-65.1855C84.9609-66.7969 85.3027-68.1641 85.3027-69.3359C85.3027-71.6309 83.8867-73.0469 81.5918-73.0469C80.4199-73.0469 79.0039-72.7051 77.4414-72.0703L11.1328-46.7285C8.10547-45.5566 5.85938-43.75 5.85938-41.1133C5.85938-37.9395 8.25195-36.8164 11.7676-35.7422L33.3984-29.1504C35.5957-28.4668 36.9141-28.5645 38.4277-29.9805L80.0293-69.0918C80.5176-69.5312 81.0547-69.4824 81.3965-69.1895C81.7871-68.8477 81.7871-68.2617 81.3477-67.7734L42.334-26.0742C41.0156-24.6094 40.8203-23.3398 41.5039-21.0449L47.9492 0.195312C49.0234 3.85742 50.1465 6.39648 53.3691 6.39648Z"/>
  </g>
  <g id="Thin-S" transform="matrix(1 0 0 1 809.938 696)">
   <path d="M52.3438 5.56641C54.3457 5.56641 55.7129 4.10156 56.7871 1.36719L82.6172-66.2109C83.0078-67.2852 83.2031-68.2129 83.2031-68.9941C83.2031-70.752 82.1777-71.7773 80.4199-71.7773C79.6387-71.7773 78.7109-71.582 77.6367-71.1914L9.96094-45.3125C7.37305-44.3359 5.85938-42.9199 5.85938-40.9668C5.85938-38.6719 7.4707-37.6465 10.498-36.7188L34.9609-29.248C36.4258-28.8086 37.6465-29.0527 38.6719-30.0293L79.3457-68.9453C79.7363-69.2871 80.1758-69.3359 80.4688-69.043C80.7617-68.75 80.6641-68.3105 80.3223-67.9199L41.4551-27.2461C40.5273-26.2207 40.2832-25.0488 40.7227-23.5352L48.0957 0.78125C49.0234 3.85742 50.0488 5.56641 52.3438 5.56641Z"/>
  </g>
  <g id="Ultralight-S" transform="matrix(1 0 0 1 513.764 696)">
   <path d="M51.8066 5.12695C53.5156 5.12695 54.6875 4.00391 55.6152 1.66016L81.6895-66.748C82.0312-67.5781 82.1289-68.2617 82.1289-68.8477C82.1289-70.3125 81.2988-71.1426 79.834-71.1426C79.248-71.1426 78.5645-71.0449 77.7344-70.7031L9.32617-44.5801C6.98242-43.7012 5.85938-42.5293 5.85938-40.8203C5.85938-39.0137 7.03125-38.0859 9.86328-37.2559L35.7422-29.3457C36.8652-29.0039 37.9883-29.2969 38.8184-30.0781L79.0039-68.7988C79.3457-69.1406 79.6875-69.1895 79.9316-68.9453C80.2246-68.7012 80.127-68.3594 79.7852-68.0176L41.0156-27.8809C40.2344-27.0508 39.9414-25.9277 40.2832-24.8047L48.2422 1.12305C49.0723 3.90625 49.9512 5.12695 51.8066 5.12695Z"/>
  </g>
 </g>
</svg>
