<?xml version="1.0" encoding="UTF-8"?>
<!--Generator: Apple Native CoreSVG 149-->
<!DOCTYPE svg
PUBLIC "-//W3C//DTD SVG 1.1//EN"
       "http://www.w3.org/Graphics/SVG/1.1/DTD/svg11.dtd">
<svg version="1.1" xmlns="http://www.w3.org/2000/svg" xmlns:xlink="http://www.w3.org/1999/xlink" width="3300" height="2200">
 <!--glyph: "uni10026E.medium", point size: 100.000000, font version: "Version 16.0d18e1", template writer version: "8"-->
 <g id="Notes">
  <rect height="2200" id="artboard" style="fill:white;opacity:1" width="3300" x="0" y="0"/>
  <line id="" style="fill:none;stroke:black;opacity:1;stroke-width:0.5;" x1="263" x2="3036" y1="292" y2="292"/>
  <text style="stroke:none;fill:black;font-family:-apple-system,&quot;SF Pro Display&quot;,&quot;SF Pro Text&quot;,Helvetica,sans-serif;font-weight:bold;" transform="matrix(1 0 0 1 263 322)">Weight/Scale Variations</text>
  <text style="stroke:none;fill:black;font-family:-apple-system,&quot;SF Pro Display&quot;,&quot;SF Pro Text&quot;,Helvetica,sans-serif;text-anchor:middle;" transform="matrix(1 0 0 1 559.711 322)">Ultralight</text>
  <text style="stroke:none;fill:black;font-family:-apple-system,&quot;SF Pro Display&quot;,&quot;SF Pro Text&quot;,Helvetica,sans-serif;text-anchor:middle;" transform="matrix(1 0 0 1 856.422 322)">Thin</text>
  <text style="stroke:none;fill:black;font-family:-apple-system,&quot;SF Pro Display&quot;,&quot;SF Pro Text&quot;,Helvetica,sans-serif;text-anchor:middle;" transform="matrix(1 0 0 1 1153.13 322)">Light</text>
  <text style="stroke:none;fill:black;font-family:-apple-system,&quot;SF Pro Display&quot;,&quot;SF Pro Text&quot;,Helvetica,sans-serif;text-anchor:middle;" transform="matrix(1 0 0 1 1449.84 322)">Regular</text>
  <text style="stroke:none;fill:black;font-family:-apple-system,&quot;SF Pro Display&quot;,&quot;SF Pro Text&quot;,Helvetica,sans-serif;text-anchor:middle;" transform="matrix(1 0 0 1 1746.56 322)">Medium</text>
  <text style="stroke:none;fill:black;font-family:-apple-system,&quot;SF Pro Display&quot;,&quot;SF Pro Text&quot;,Helvetica,sans-serif;text-anchor:middle;" transform="matrix(1 0 0 1 2043.27 322)">Semibold</text>
  <text style="stroke:none;fill:black;font-family:-apple-system,&quot;SF Pro Display&quot;,&quot;SF Pro Text&quot;,Helvetica,sans-serif;text-anchor:middle;" transform="matrix(1 0 0 1 2339.98 322)">Bold</text>
  <text style="stroke:none;fill:black;font-family:-apple-system,&quot;SF Pro Display&quot;,&quot;SF Pro Text&quot;,Helvetica,sans-serif;text-anchor:middle;" transform="matrix(1 0 0 1 2636.69 322)">Heavy</text>
  <text style="stroke:none;fill:black;font-family:-apple-system,&quot;SF Pro Display&quot;,&quot;SF Pro Text&quot;,Helvetica,sans-serif;text-anchor:middle;" transform="matrix(1 0 0 1 2933.4 322)">Black</text>
  <line id="" style="fill:none;stroke:black;opacity:1;stroke-width:0.5;" x1="263" x2="3036" y1="1903" y2="1903"/>
  <g id="" transform="matrix(1 0 0 1 263 1933)">
   <path d="M9.24805 0.830078C13.5547 0.830078 17.1387-2.74414 17.1387-7.05078C17.1387-11.3574 13.5449-14.9316 9.23828-14.9316C4.94141-14.9316 1.36719-11.3574 1.36719-7.05078C1.36719-2.74414 4.95117 0.830078 9.24805 0.830078ZM9.24805-0.654297C5.70312-0.654297 2.87109-3.49609 2.87109-7.05078C2.87109-10.6055 5.69336-13.4473 9.23828-13.4473C12.793-13.4473 15.6348-10.6055 15.6445-7.05078C15.6543-3.49609 12.8027-0.654297 9.24805-0.654297ZM6.39648-6.31836L8.50586-6.31836L8.50586-4.19922C8.50586-3.75977 8.79883-3.45703 9.22852-3.45703C9.67773-3.45703 9.9707-3.75977 9.9707-4.19922L9.9707-6.31836L12.0996-6.31836C12.5391-6.31836 12.8418-6.61133 12.8418-7.04102C12.8418-7.48047 12.5391-7.7832 12.0996-7.7832L9.9707-7.7832L9.9707-9.89258C9.9707-10.3418 9.67773-10.6445 9.22852-10.6445C8.79883-10.6445 8.50586-10.3418 8.50586-9.89258L8.50586-7.7832L6.39648-7.7832C5.94727-7.7832 5.64453-7.48047 5.64453-7.04102C5.64453-6.61133 5.94727-6.31836 6.39648-6.31836Z"/>
  </g>
  <g id="" transform="matrix(1 0 0 1 281.506 1933)">
   <path d="M11.709 2.91016C17.1582 2.91016 21.6699-1.61133 21.6699-7.05078C21.6699-12.5 17.1484-17.0117 11.6992-17.0117C6.25977-17.0117 1.74805-12.5 1.74805-7.05078C1.74805-1.61133 6.26953 2.91016 11.709 2.91016ZM11.709 1.25C7.09961 1.25 3.41797-2.44141 3.41797-7.05078C3.41797-11.6602 7.08984-15.3516 11.6992-15.3516C16.3086-15.3516 20-11.6602 20.0098-7.05078C20.0195-2.44141 16.3184 1.25 11.709 1.25ZM7.98828-6.23047L10.8789-6.23047L10.8789-3.32031C10.8789-2.83203 11.2109-2.5 11.6895-2.5C12.1777-2.5 12.5195-2.83203 12.5195-3.32031L12.5195-6.23047L15.4297-6.23047C15.918-6.23047 16.25-6.5625 16.25-7.04102C16.25-7.5293 15.918-7.87109 15.4297-7.87109L12.5195-7.87109L12.5195-10.7617C12.5195-11.2695 12.1777-11.6016 11.6895-11.6016C11.2109-11.6016 10.8789-11.2598 10.8789-10.7617L10.8789-7.87109L7.98828-7.87109C7.48047-7.87109 7.14844-7.5293 7.14844-7.04102C7.14844-6.5625 7.49023-6.23047 7.98828-6.23047Z"/>
  </g>
  <g id="" transform="matrix(1 0 0 1 304.924 1933)">
   <path d="M14.9707 5.66406C21.9336 5.66406 27.6953-0.0976562 27.6953-7.05078C27.6953-14.0137 21.9238-19.7754 14.9609-19.7754C8.00781-19.7754 2.25586-14.0137 2.25586-7.05078C2.25586-0.0976562 8.01758 5.66406 14.9707 5.66406ZM14.9707 3.84766C8.93555 3.84766 4.08203-1.01562 4.08203-7.05078C4.08203-13.0957 8.92578-17.9492 14.9609-17.9492C21.0059-17.9492 25.8594-13.0957 25.8691-7.05078C25.8789-1.01562 21.0156 3.84766 14.9707 3.84766ZM10.0586-6.14258L14.0625-6.14258L14.0625-2.12891C14.0625-1.5918 14.4336-1.2207 14.9512-1.2207C15.4883-1.2207 15.8594-1.5918 15.8594-2.12891L15.8594-6.14258L19.8828-6.14258C20.4102-6.14258 20.791-6.51367 20.791-7.03125C20.791-7.56836 20.4199-7.94922 19.8828-7.94922L15.8594-7.94922L15.8594-11.9531C15.8594-12.5098 15.4883-12.8809 14.9512-12.8809C14.4336-12.8809 14.0625-12.5 14.0625-11.9531L14.0625-7.94922L10.0586-7.94922C9.50195-7.94922 9.13086-7.56836 9.13086-7.03125C9.13086-6.51367 9.51172-6.14258 10.0586-6.14258Z"/>
  </g>
  <text style="stroke:none;fill:black;font-family:-apple-system,&quot;SF Pro Display&quot;,&quot;SF Pro Text&quot;,Helvetica,sans-serif;font-weight:bold;" transform="matrix(1 0 0 1 263 1953)">Design Variations</text>
  <text style="stroke:none;fill:black;font-family:-apple-system,&quot;SF Pro Display&quot;,&quot;SF Pro Text&quot;,Helvetica,sans-serif;" transform="matrix(1 0 0 1 263 1971)">Symbols are supported in up to nine weights and three scales.</text>
  <text style="stroke:none;fill:black;font-family:-apple-system,&quot;SF Pro Display&quot;,&quot;SF Pro Text&quot;,Helvetica,sans-serif;" transform="matrix(1 0 0 1 263 1989)">For optimal layout with text and other symbols, vertically align</text>
  <text style="stroke:none;fill:black;font-family:-apple-system,&quot;SF Pro Display&quot;,&quot;SF Pro Text&quot;,Helvetica,sans-serif;" transform="matrix(1 0 0 1 263 2007)">symbols with the adjacent text.</text>
  <line id="" style="fill:none;stroke:#00AEEF;stroke-width:0.5;opacity:1.0;" x1="776" x2="776" y1="1919" y2="1933"/>
  <g id="" transform="matrix(1 0 0 1 776 1933)">
   <path d="M3.31055 0.126953C3.82812 0.126953 4.08203-0.0683594 4.26758-0.605469L5.52734-4.0625L11.2891-4.0625L12.5488-0.605469C12.7344-0.0683594 12.9883 0.126953 13.4961 0.126953C14.0137 0.126953 14.3457-0.185547 14.3457-0.673828C14.3457-0.839844 14.3164-0.986328 14.2383-1.20117L9.6582-13.3887C9.43359-13.9941 9.0332-14.2871 8.4082-14.2871C7.80273-14.2871 7.39258-13.9941 7.17773-13.3984L2.59766-1.19141C2.51953-0.976562 2.49023-0.830078 2.49023-0.664062C2.49023-0.175781 2.80273 0.126953 3.31055 0.126953ZM6.00586-5.53711L8.37891-12.1094L8.42773-12.1094L10.8008-5.53711Z"/>
  </g>
  <line id="" style="fill:none;stroke:#00AEEF;stroke-width:0.5;opacity:1.0;" x1="792.836" x2="792.836" y1="1919" y2="1933"/>
  <text style="stroke:none;fill:black;font-family:-apple-system,&quot;SF Pro Display&quot;,&quot;SF Pro Text&quot;,Helvetica,sans-serif;font-weight:bold;" transform="matrix(1 0 0 1 776 1953)">Margins</text>
  <text style="stroke:none;fill:black;font-family:-apple-system,&quot;SF Pro Display&quot;,&quot;SF Pro Text&quot;,Helvetica,sans-serif;" transform="matrix(1 0 0 1 776 1971)">Leading and trailing margins on the left and right side of each symbol</text>
  <text style="stroke:none;fill:black;font-family:-apple-system,&quot;SF Pro Display&quot;,&quot;SF Pro Text&quot;,Helvetica,sans-serif;" transform="matrix(1 0 0 1 776 1989)">can be adjusted by modifying the x-location of the margin guidelines.</text>
  <text style="stroke:none;fill:black;font-family:-apple-system,&quot;SF Pro Display&quot;,&quot;SF Pro Text&quot;,Helvetica,sans-serif;" transform="matrix(1 0 0 1 776 2007)">Modifications are automatically applied proportionally to all</text>
  <text style="stroke:none;fill:black;font-family:-apple-system,&quot;SF Pro Display&quot;,&quot;SF Pro Text&quot;,Helvetica,sans-serif;" transform="matrix(1 0 0 1 776 2025)">scales and weights.</text>
  <g id="" transform="matrix(1 0 0 1 1289 1933)">
   <path d="M2.8418 1.86523L4.54102 3.57422C5.40039 4.44336 6.38672 4.38477 7.31445 3.35938L17.4902-7.85156C17.7539-7.76367 18.0273-7.7832 18.3398-7.8418L19.4043-8.03711L20.0684-7.36328L20.0293-6.80664C19.9902-6.30859 20.1172-5.92773 20.6055-5.44922L21.3672-4.70703C21.8457-4.22852 22.4609-4.19922 22.9297-4.66797L25.8398-7.58789C26.3086-8.05664 26.2891-8.65234 25.8105-9.13086L25.0391-9.89258C24.5605-10.3711 24.1895-10.5273 23.7109-10.4883L23.1348-10.4395L22.4902-11.0742L22.7344-12.1973C22.8613-12.7637 22.7051-13.2031 22.1191-13.7891L19.9219-15.9766C16.582-19.2969 12.1484-19.2188 9.25781-16.3281C8.83789-15.918 8.80859-15.3418 9.04297-14.9512C9.27734-14.5898 9.73633-14.3555 10.3809-14.5215C11.8457-14.8633 13.3691-14.9219 14.7949-13.9844L14.209-12.5293C14.0137-12.0508 13.9844-11.6504 14.1113-11.2891L3.04688-0.898438C2.06055 0.0195312 1.98242 0.996094 2.8418 1.86523ZM10.752-15.957C13.1836-17.7344 16.4746-17.4316 18.7012-15.2051L21.1328-12.793C21.3672-12.5586 21.4062-12.373 21.3379-12.0312L21.0156-10.5469L22.5195-9.0625L23.5059-9.12109C23.7598-9.13086 23.8379-9.11133 24.0332-8.91602L24.6094-8.33984L22.168-5.89844L21.5918-6.47461C21.3965-6.66992 21.3672-6.74805 21.377-7.01172L21.4453-7.98828L19.9512-9.47266L18.4277-9.21875C18.1055-9.15039 17.959-9.17969 17.7148-9.41406L15.7129-11.416C15.459-11.6504 15.4297-11.8164 15.5859-12.1875L16.4648-14.2773C14.9023-15.7324 12.8711-16.3574 10.8398-15.7617C10.6836-15.7227 10.625-15.8496 10.752-15.957ZM5.27344 2.30469L4.10156 1.14258C3.63281 0.683594 3.74023 0.341797 4.14062-0.0195312L14.9512-10.1953L16.416-8.71094L6.42578 2.27539C6.07422 2.67578 5.74219 2.77344 5.27344 2.30469Z"/>
  </g>
  <text style="stroke:none;fill:black;font-family:-apple-system,&quot;SF Pro Display&quot;,&quot;SF Pro Text&quot;,Helvetica,sans-serif;font-weight:bold;" transform="matrix(1 0 0 1 1289 1953)">Exporting</text>
  <text style="stroke:none;fill:black;font-family:-apple-system,&quot;SF Pro Display&quot;,&quot;SF Pro Text&quot;,Helvetica,sans-serif;" transform="matrix(1 0 0 1 1289 1971)">Symbols should be outlined when exporting to ensure the</text>
  <text style="stroke:none;fill:black;font-family:-apple-system,&quot;SF Pro Display&quot;,&quot;SF Pro Text&quot;,Helvetica,sans-serif;" transform="matrix(1 0 0 1 1289 1989)">design is preserved when submitting to Xcode.</text>
  <text id="template-version" style="stroke:none;fill:black;font-family:-apple-system,&quot;SF Pro Display&quot;,&quot;SF Pro Text&quot;,Helvetica,sans-serif;text-anchor:end;" transform="matrix(1 0 0 1 3036 1933)">Template v.2.0</text>
  <text style="stroke:none;fill:black;font-family:-apple-system,&quot;SF Pro Display&quot;,&quot;SF Pro Text&quot;,Helvetica,sans-serif;text-anchor:end;" transform="matrix(1 0 0 1 3036 1951)">Requires Xcode 12 or greater</text>
  <text style="stroke:none;fill:black;font-family:-apple-system,&quot;SF Pro Display&quot;,&quot;SF Pro Text&quot;,Helvetica,sans-serif;text-anchor:end;" transform="matrix(1 0 0 1 3036 1969)">Generated from person.crop.circle.fill</text>
  <text style="stroke:none;fill:black;font-family:-apple-system,&quot;SF Pro Display&quot;,&quot;SF Pro Text&quot;,Helvetica,sans-serif;text-anchor:end;" transform="matrix(1 0 0 1 3036 1987)">Typeset at 100 points</text>
  <text style="stroke:none;fill:black;font-family:-apple-system,&quot;SF Pro Display&quot;,&quot;SF Pro Text&quot;,Helvetica,sans-serif;" transform="matrix(1 0 0 1 263 726)">Small</text>
  <text style="stroke:none;fill:black;font-family:-apple-system,&quot;SF Pro Display&quot;,&quot;SF Pro Text&quot;,Helvetica,sans-serif;" transform="matrix(1 0 0 1 263 1156)">Medium</text>
  <text style="stroke:none;fill:black;font-family:-apple-system,&quot;SF Pro Display&quot;,&quot;SF Pro Text&quot;,Helvetica,sans-serif;" transform="matrix(1 0 0 1 263 1586)">Large</text>
 </g>
 <g id="Guides">
  <g id="H-reference" style="fill:#27AAE1;stroke:none;" transform="matrix(1 0 0 1 339 696)">
   <path d="M0.976562 0L3.66211 0L12.9883-24.4629L45.752-24.4629L55.127 0L57.7637 0L30.6152-70.459L28.125-70.459ZM29.3457-67.1387L29.4434-67.1387L44.873-26.709L13.8672-26.709Z"/>
  </g>
  <line id="Baseline-S" style="fill:none;stroke:#27AAE1;opacity:1;stroke-width:0.5;" x1="263" x2="3036" y1="696" y2="696"/>
  <line id="Capline-S" style="fill:none;stroke:#27AAE1;opacity:1;stroke-width:0.5;" x1="263" x2="3036" y1="625.541" y2="625.541"/>
  <g id="H-reference" style="fill:#27AAE1;stroke:none;" transform="matrix(1 0 0 1 339 1126)">
   <path d="M0.976562 0L3.66211 0L12.9883-24.4629L45.752-24.4629L55.127 0L57.7637 0L30.6152-70.459L28.125-70.459ZM29.3457-67.1387L29.4434-67.1387L44.873-26.709L13.8672-26.709Z"/>
  </g>
  <line id="Baseline-M" style="fill:none;stroke:#27AAE1;opacity:1;stroke-width:0.5;" x1="263" x2="3036" y1="1126" y2="1126"/>
  <line id="Capline-M" style="fill:none;stroke:#27AAE1;opacity:1;stroke-width:0.5;" x1="263" x2="3036" y1="1055.54" y2="1055.54"/>
  <g id="H-reference" style="fill:#27AAE1;stroke:none;" transform="matrix(1 0 0 1 339 1556)">
   <path d="M0.976562 0L3.66211 0L12.9883-24.4629L45.752-24.4629L55.127 0L57.7637 0L30.6152-70.459L28.125-70.459ZM29.3457-67.1387L29.4434-67.1387L44.873-26.709L13.8672-26.709Z"/>
  </g>
  <line id="Baseline-L" style="fill:none;stroke:#27AAE1;opacity:1;stroke-width:0.5;" x1="263" x2="3036" y1="1556" y2="1556"/>
  <line id="Capline-L" style="fill:none;stroke:#27AAE1;opacity:1;stroke-width:0.5;" x1="263" x2="3036" y1="1485.54" y2="1485.54"/>
  <line id="left-margin" style="fill:none;stroke:#00AEEF;stroke-width:0.5;opacity:1.0;" x1="1391.3" x2="1391.3" y1="1030.79" y2="1150.12"/>
  <line id="right-margin" style="fill:none;stroke:#00AEEF;stroke-width:0.5;opacity:1.0;" x1="1508.39" x2="1508.39" y1="1030.79" y2="1150.12"/>
 </g>
 <g id="Symbols">
  <g id="Black-L" transform="matrix(1 0 0 1 2854.05 1556)">
   <path d="M79.3457 32.8613C116.748 32.8613 147.412 2.19727 147.412-35.2051C147.412-72.6074 116.748-103.271 79.2969-103.271C41.8945-103.271 11.2793-72.6074 11.2793-35.2051C11.2793 2.19727 41.9434 32.8613 79.3457 32.8613ZM79.2969-26.2695C66.3086-26.3184 56.3477-37.3535 56.3477-51.2695C56.2988-64.4531 66.4551-75.7812 79.2969-75.7812C92.1387-75.7812 102.246-64.4531 102.246-51.2695C102.246-37.3535 92.334-26.2207 79.2969-26.2695ZM79.2969 17.9688C66.6016 17.9688 50.3906 12.5977 41.3574 2.44141C49.8047-8.83789 62.6953-14.8438 79.2969-14.8438C95.752-14.8438 108.74-8.98438 117.285 2.44141C108.252 12.5977 91.9922 17.9688 79.2969 17.9688Z"/>
  </g>
  <g id="Heavy-L" transform="matrix(1 0 0 1 2558.39 1556)">
   <path d="M78.2715 31.7871C115.088 31.7871 145.312 1.5625 145.312-35.2051C145.312-72.0215 115.039-102.246 78.2715-102.246C41.4551-102.246 11.2793-72.0215 11.2793-35.2051C11.2793 1.5625 41.5039 31.7871 78.2715 31.7871ZM78.2227-25.9277C65.4297-25.9766 55.6152-36.8164 55.6152-50.5859C55.5664-63.6719 65.5762-74.8535 78.2227-74.8535C90.918-74.8535 100.83-63.6719 100.83-50.5859C100.83-36.8164 91.0645-25.8301 78.2227-25.9277ZM78.2227 18.457C64.9414 18.457 49.1211 12.8906 39.9414 2.68555C47.998-8.49609 61.4258-14.6484 78.2227-14.6484C94.873-14.6484 108.398-8.64258 116.553 2.68555C107.373 12.8906 91.5527 18.457 78.2227 18.457Z"/>
  </g>
  <g id="Bold-L" transform="matrix(1 0 0 1 2262.88 1556)">
   <path d="M77.0996 30.5664C113.232 30.5664 142.92 0.878906 142.92-35.2539C142.92-71.3379 113.184-101.074 77.0508-101.074C40.9668-101.074 11.2793-71.3379 11.2793-35.2539C11.2793 0.878906 41.0156 30.5664 77.0996 30.5664ZM77.0508-25.4883C64.502-25.5859 54.834-36.1816 54.834-49.8535C54.7363-62.793 64.5996-73.7793 77.0508-73.7793C89.502-73.7793 99.2676-62.793 99.2676-49.8535C99.2676-36.1816 89.5996-25.4395 77.0508-25.4883ZM77.0508 19.043C63.0859 19.043 47.6562 13.1836 38.3301 2.97852C45.9961-8.10547 60.0586-14.4043 77.0508-14.4043C93.8477-14.4043 108.057-8.20312 115.771 2.97852C106.445 13.1836 91.0156 19.043 77.0508 19.043Z"/>
  </g>
  <g id="Semibold-L" transform="matrix(1 0 0 1 1966.97 1556)">
   <path d="M76.2695 29.7363C111.914 29.7363 141.309 0.390625 141.309-35.2539C141.309-70.8984 111.865-100.244 76.2695-100.244C40.625-100.244 11.2793-70.8984 11.2793-35.2539C11.2793 0.390625 40.6738 29.7363 76.2695 29.7363ZM76.2207-25.2441C63.8184-25.293 54.248-35.7422 54.248-49.3652C54.1504-62.207 63.9648-73.0469 76.2207-73.0469C88.5254-73.0469 98.1934-62.207 98.1934-49.3652C98.1934-35.7422 88.623-25.1465 76.2207-25.2441ZM76.2207 19.4824C61.8164 19.4824 46.6797 13.3789 37.2559 3.17383C44.6289-7.8125 59.1309-14.2578 76.2207-14.2578C93.1641-14.2578 107.812-7.95898 115.186 3.17383C105.811 13.3789 90.625 19.4824 76.2207 19.4824Z"/>
  </g>
  <g id="Medium-L" transform="matrix(1 0 0 1 1670.87 1556)">
   <path d="M75.6836 29.1504C110.938 29.1504 140.088 0 140.088-35.2539C140.088-70.5078 110.889-99.6582 75.6348-99.6582C40.3809-99.6582 11.2793-70.5078 11.2793-35.2539C11.2793 0 40.3809 29.1504 75.6836 29.1504ZM75.5859-25C63.3301-25.0977 53.8086-35.4004 53.8086-48.9746C53.7598-61.7676 63.4277-72.4609 75.5859-72.4609C87.793-72.4609 97.4121-61.7676 97.4121-48.9746C97.4121-35.4004 87.8906-24.9023 75.5859-25ZM75.5859 19.7754C60.8398 19.7754 45.8984 13.5254 36.4258 3.32031C43.5547-7.61719 58.3984-14.1602 75.5859-14.1602C92.6758-14.1602 107.617-7.71484 114.795 3.32031C105.322 13.5254 90.3809 19.7754 75.5859 19.7754Z"/>
  </g>
  <g id="Regular-L" transform="matrix(1 0 0 1 1374.97 1556)">
   <path d="M74.8535 28.3203C109.668 28.3203 138.477-0.488281 138.477-35.2539C138.477-70.0684 109.619-98.877 74.8047-98.877C40.0391-98.877 11.2793-70.0684 11.2793-35.2539C11.2793-0.488281 40.0879 28.3203 74.8535 28.3203ZM74.8047-24.707C62.6953-24.8047 53.2715-34.9609 53.2715-48.4863C53.1738-61.1816 62.793-71.7285 74.8047-71.7285C86.8164-71.7285 96.3379-61.1816 96.3379-48.4863C96.3379-34.9609 86.9141-24.6094 74.8047-24.707ZM74.8047 20.166C59.5703 20.166 44.9219 13.7207 35.3516 3.51562C42.1875-7.37305 57.4707-14.0137 74.8047-14.0137C91.9922-14.0137 107.324-7.4707 114.258 3.51562C104.688 13.7207 89.9902 20.166 74.8047 20.166Z"/>
  </g>
  <g id="Light-L" transform="matrix(1 0 0 1 1079.18 1556)">
   <path d="M73.9258 27.3926C108.301 27.3926 136.621-0.927734 136.621-35.2539C136.621-69.6289 108.252-97.9492 73.9258-97.9492C39.5508-97.9492 11.2793-69.6289 11.2793-35.2539C11.2793-0.927734 39.5996 27.3926 73.9258 27.3926ZM73.877-25.0488C61.7676-25.1465 52.4902-35.3027 52.4902-48.7793C52.3926-61.4258 61.9629-71.9727 73.877-71.9727C85.8398-71.9727 95.3125-61.4258 95.3125-48.7793C95.3125-35.3027 85.9863-25 73.877-25.0488ZM73.877 21.1426C57.666 21.1426 42.8711 14.0625 33.4473 3.95508C40.3809-7.22656 56.25-14.2578 73.877-14.2578C91.4551-14.2578 107.373-7.27539 114.307 3.95508C104.883 14.0625 90.1367 21.1426 73.877 21.1426Z"/>
  </g>
  <g id="Thin-L" transform="matrix(1 0 0 1 783.693 1556)">
   <path d="M72.7051 26.1719C106.494 26.1719 134.18-1.51367 134.18-35.2539C134.18-69.043 106.494-96.7285 72.7051-96.7285C38.9648-96.7285 11.2793-69.043 11.2793-35.2539C11.2793-1.51367 38.9648 26.1719 72.7051 26.1719ZM72.6562-25.4883C60.5957-25.5371 51.416-35.791 51.416-49.1699C51.3184-61.7188 60.8398-72.3145 72.6562-72.3145C84.5215-72.3145 93.9453-61.7188 93.9453-49.1699C93.9453-35.791 84.7656-25.4883 72.6562-25.4883ZM72.6562 22.4609C55.0781 22.4609 40.1855 14.5508 30.957 4.49219C37.9395-7.03125 54.6387-14.5996 72.6562-14.5996C90.7227-14.5996 107.422-7.03125 114.404 4.49219C105.176 14.5508 90.2344 22.4609 72.6562 22.4609Z"/>
  </g>
  <g id="Ultralight-L" transform="matrix(1 0 0 1 487.616 1556)">
   <path d="M72.1191 25.5371C105.566 25.5371 132.91-1.80664 132.91-35.2539C132.91-68.75 105.566-96.0938 72.1191-96.0938C38.623-96.0938 11.2793-68.75 11.2793-35.2539C11.2793-1.80664 38.623 25.5371 72.1191 25.5371ZM72.0703-25.7324C60.0098-25.7324 50.8789-36.0352 50.8789-49.3652C50.7812-61.8652 60.2539-72.5098 72.0703-72.5098C83.8379-72.5098 93.2617-61.8652 93.2617-49.3652C93.2617-36.0352 84.1309-25.7324 72.0703-25.7324ZM72.0703 23.0957C53.8086 23.0957 38.8184 14.7949 29.6875 4.73633C36.7188-6.93359 53.8086-14.7461 72.0703-14.7461C90.3809-14.7461 107.422-6.88477 114.453 4.73633C105.322 14.7949 90.332 23.0957 72.0703 23.0957Z"/>
  </g>
  <g id="Black-M" transform="matrix(1 0 0 1 2870.97 1126)">
   <path d="M62.4023 18.457C91.9922 18.457 116.113-5.61523 116.113-35.2051C116.113-64.7949 91.9922-88.8672 62.4023-88.8672C32.8125-88.8672 8.74023-64.7949 8.74023-35.2051C8.74023-5.61523 32.8125 18.457 62.4023 18.457ZM62.4023-28.9551C52.0508-28.9551 44.2383-37.8418 44.2383-48.6816C44.1895-59.0332 52.2461-68.1152 62.4023-68.1152C72.6074-68.1152 80.5664-59.0332 80.5664-48.6816C80.5664-37.8418 72.8027-28.9551 62.4023-28.9551ZM62.4023 5.81055C52.832 5.81055 39.6973 1.66016 32.959-6.15234C40.0391-15.1855 49.6094-19.8242 62.4023-19.8242C75.1465-19.8242 84.7656-15.2832 91.8945-6.15234C85.1074 1.66016 71.9727 5.81055 62.4023 5.81055Z"/>
  </g>
  <g id="Heavy-M" transform="matrix(1 0 0 1 2575.19 1126)">
   <path d="M61.5234 17.5293C90.5273 17.5293 114.258-6.20117 114.258-35.2051C114.258-64.2578 90.5273-87.9883 61.4746-87.9883C32.4707-87.9883 8.74023-64.2578 8.74023-35.2051C8.74023-6.20117 32.4707 17.5293 61.5234 17.5293ZM61.4746-28.4668C51.3672-28.5156 43.6523-37.1094 43.6523-47.9004C43.6035-58.1543 51.5137-66.9922 61.4746-66.9922C71.4844-66.9922 79.2969-58.1543 79.2969-47.9004C79.2969-37.1094 71.6309-28.4668 61.4746-28.4668ZM61.4746 6.10352C51.5137 6.10352 38.8184 1.9043 31.8848-6.00586C38.5254-14.8438 48.5352-19.5312 61.4746-19.5312C74.2676-19.5312 84.375-14.9414 91.1133-6.00586C84.1309 1.9043 71.4355 6.10352 61.4746 6.10352Z"/>
  </g>
  <g id="Bold-M" transform="matrix(1 0 0 1 2279.5 1126)">
   <path d="M60.498 16.5039C88.8672 16.5039 112.207-6.83594 112.207-35.2051C112.207-63.623 88.8672-86.9629 60.4492-86.9629C32.0312-86.9629 8.74023-63.623 8.74023-35.2051C8.74023-6.83594 32.0801 16.5039 60.498 16.5039ZM60.4492-27.9297C50.5371-27.9785 42.9688-36.3281 42.9688-47.0215C42.9199-57.1289 50.6836-65.7227 60.4492-65.7227C70.2148-65.7227 77.8809-57.1289 77.8809-47.0215C77.8809-36.3281 70.3125-27.8809 60.4492-27.9297ZM60.4492 6.49414C50.0488 6.49414 37.8418 2.09961 30.7129-5.81055C36.8652-14.4531 47.4121-19.2383 60.4492-19.2383C73.3398-19.2383 83.9355-14.5508 90.1855-5.81055C83.0566 2.09961 70.8496 6.49414 60.4492 6.49414Z"/>
  </g>
  <g id="Semibold-M" transform="matrix(1 0 0 1 1983.5 1126)">
   <path d="M59.7656 15.8203C87.7441 15.8203 110.791-7.27539 110.791-35.2539C110.791-63.2324 87.6953-86.2793 59.7656-86.2793C31.7871-86.2793 8.74023-63.2324 8.74023-35.2539C8.74023-7.27539 31.7871 15.8203 59.7656 15.8203ZM59.7168-27.5391C50-27.6367 42.5293-35.791 42.5293-46.3867C42.4805-56.3965 50.0977-64.8926 59.7168-64.8926C69.3359-64.8926 76.9043-56.3965 76.9043-46.3867C76.9043-35.791 69.4336-27.4902 59.7168-27.5391ZM59.7168 6.73828C49.0234 6.73828 37.1582 2.24609 29.8828-5.66406C35.7422-14.1602 46.582-18.9941 59.7168-18.9941C72.7051-18.9941 83.6426-14.2578 89.5508-5.66406C82.3242 2.24609 70.4102 6.73828 59.7168 6.73828Z"/>
  </g>
  <g id="Medium-M" transform="matrix(1 0 0 1 1687.3 1126)">
   <path d="M59.2285 15.2344C86.9141 15.2344 109.766-7.61719 109.766-35.2539C109.766-62.8906 86.8652-85.7422 59.1797-85.7422C31.543-85.7422 8.74023-62.8906 8.74023-35.2539C8.74023-7.61719 31.5918 15.2344 59.2285 15.2344ZM59.1797-27.2949C49.6094-27.3438 42.1875-35.3516 42.1875-45.9473C42.0898-55.9082 49.6582-64.209 59.1797-64.209C68.7012-64.209 76.1719-55.9082 76.1719-45.9473C76.1719-35.3516 68.75-27.1973 59.1797-27.2949ZM59.1797 6.88477C48.2422 6.88477 36.6211 2.34375 29.248-5.56641C34.8633-13.9648 45.9961-18.8477 59.1797-18.8477C72.2168-18.8477 83.4473-14.0625 89.1113-5.56641C81.7383 2.34375 70.1172 6.88477 59.1797 6.88477Z"/>
  </g>
  <g id="Regular-M" transform="matrix(1 0 0 1 1391.3 1126)">
   <path d="M58.5449 14.5508C85.791 14.5508 108.35-8.05664 108.35-35.2539C108.35-62.5 85.7422-85.0586 58.4961-85.0586C31.2988-85.0586 8.74023-62.5 8.74023-35.2539C8.74023-8.05664 31.3477 14.5508 58.5449 14.5508ZM58.4473-26.9043C49.0723-27.002 41.6992-34.8145 41.6992-45.3125C41.6504-55.1758 49.1211-63.3789 58.4473-63.3789C67.8223-63.3789 75.1953-55.1758 75.1953-45.3125C75.1953-34.8145 67.8711-26.8066 58.4473-26.9043ZM58.4473 7.12891C47.2656 7.12891 35.9375 2.53906 28.4668-5.41992C33.7402-13.7207 45.2148-18.6035 58.4473-18.6035C71.582-18.6035 83.1543-13.8184 88.4766-5.41992C80.957 2.53906 69.6777 7.12891 58.4473 7.12891Z"/>
  </g>
  <g id="Light-M" transform="matrix(1 0 0 1 1095.42 1126)">
   <path d="M57.7148 13.7207C84.5215 13.7207 106.689-8.44727 106.689-35.2539C106.689-62.1094 84.5215-84.2285 57.666-84.2285C30.8594-84.2285 8.74023-62.1094 8.74023-35.2539C8.74023-8.44727 30.9082 13.7207 57.7148 13.7207ZM57.666-27.1973C48.291-27.2461 41.0156-35.1562 41.0156-45.6055C40.9668-55.4199 48.3887-63.623 57.666-63.623C66.9434-63.623 74.3164-55.4199 74.3164-45.6055C74.3164-35.1562 67.041-27.1484 57.666-27.1973ZM57.666 8.00781C45.5078 8.00781 34.1309 2.83203 26.7578-5.07812C32.0801-13.5742 44.1406-18.8477 57.666-18.8477C71.0938-18.8477 83.2031-13.623 88.5254-5.07812C81.2012 2.83203 69.7754 8.00781 57.666 8.00781Z"/>
  </g>
  <g id="Thin-M" transform="matrix(1 0 0 1 799.806 1126)">
   <path d="M56.6406 12.5977C82.9102 12.5977 104.492-8.98438 104.492-35.2539C104.492-61.5723 82.9102-83.1543 56.5918-83.1543C30.3223-83.1543 8.74023-61.5723 8.74023-35.2539C8.74023-8.98438 30.3223 12.5977 56.6406 12.5977ZM56.5918-27.5879C47.2168-27.6367 40.0879-35.5469 40.0879-45.9473C39.9902-55.7129 47.3633-63.916 56.5918-63.916C65.7715-63.916 73.0957-55.7129 73.0957-45.9473C73.0957-35.5469 65.9668-27.5879 56.5918-27.5879ZM56.5918 9.17969C43.2617 9.17969 31.7383 3.22266 24.5605-4.58984C29.9316-13.4277 42.6758-19.1406 56.5918-19.1406C70.459-19.1406 83.252-13.4277 88.623-4.58984C81.4453 3.22266 69.9219 9.17969 56.5918 9.17969Z"/>
  </g>
  <g id="Ultralight-M" transform="matrix(1 0 0 1 503.656 1126)">
   <path d="M56.0547 12.0605C82.0801 12.0605 103.369-9.22852 103.369-35.2539C103.369-61.2793 82.0801-82.5684 56.0547-82.5684C30.0293-82.5684 8.74023-61.2793 8.74023-35.2539C8.74023-9.22852 30.0293 12.0605 56.0547 12.0605ZM56.0547-27.7832C46.6797-27.7832 39.5996-35.791 39.5996-46.1426C39.5508-55.8594 46.875-64.0625 56.0547-64.0625C65.1855-64.0625 72.5098-55.8594 72.5098-46.1426C72.5098-35.791 65.3809-27.7832 56.0547-27.7832ZM56.0547 9.76562C42.0898 9.76562 30.4688 3.4668 23.3887-4.3457C28.8086-13.3301 41.9434-19.3359 56.0547-19.3359C70.1172-19.3359 83.252-13.3301 88.6719-4.3457C81.5918 3.4668 69.9707 9.76562 56.0547 9.76562Z"/>
  </g>
  <g id="Black-S" transform="matrix(1 0 0 1 2884.57 696)">
   <path d="M48.8281 6.78711C71.9727 6.78711 90.8203-12.0605 90.8203-35.2051C90.8203-58.3496 71.9727-77.1973 48.8281-77.1973C25.6836-77.1973 6.83594-58.3496 6.83594-35.2051C6.83594-12.0605 25.6836 6.78711 48.8281 6.78711ZM48.8281-30.2734C40.7227-30.2734 34.6191-37.207 34.6191-45.7031C34.5703-53.8086 40.8691-60.8887 48.8281-60.8887C56.7871-60.8887 63.0371-53.8086 63.0371-45.7031C63.0371-37.207 56.9336-30.2734 48.8281-30.2734ZM48.8281-3.07617C41.3086-3.07617 31.0547-6.29883 25.7324-12.4512C31.25-19.4824 38.7695-23.1445 48.8281-23.1445C58.7891-23.1445 66.3574-19.5801 71.9238-12.4512C66.6016-6.29883 56.3477-3.07617 48.8281-3.07617Z"/>
  </g>
  <g id="Heavy-S" transform="matrix(1 0 0 1 2588.47 696)">
   <path d="M48.2422 6.15234C70.9961 6.15234 89.5996-12.4512 89.5996-35.2051C89.5996-57.959 70.9961-76.6113 48.1934-76.6113C25.4395-76.6113 6.83594-57.959 6.83594-35.2051C6.83594-12.4512 25.4395 6.15234 48.2422 6.15234ZM48.1934-29.8828C40.2832-29.8828 34.2285-36.6211 34.2285-45.0684C34.1797-53.0762 40.3809-60.0098 48.1934-60.0098C56.0059-60.0098 62.1582-53.0762 62.1582-45.0684C62.1582-36.6211 56.1523-29.834 48.1934-29.8828ZM48.1934-2.92969C40.4785-2.92969 30.5664-6.20117 25.0977-12.3535C30.3223-19.2383 38.0859-22.9004 48.1934-22.9004C58.2031-22.9004 66.0645-19.3359 71.2891-12.3535C65.8203-6.20117 55.9082-2.92969 48.1934-2.92969Z"/>
  </g>
  <g id="Bold-S" transform="matrix(1 0 0 1 2292.44 696)">
   <path d="M47.5586 5.46875C69.873 5.46875 88.2324-12.8906 88.2324-35.2539C88.2324-57.5684 69.873-75.9277 47.5098-75.9277C25.1953-75.9277 6.83594-57.5684 6.83594-35.2539C6.83594-12.8906 25.1953 5.46875 47.5586 5.46875ZM47.5098-29.3945C39.7949-29.4434 33.8379-35.9863 33.8379-44.3359C33.7891-52.2949 39.8438-59.0332 47.5098-59.0332C55.1758-59.0332 61.1816-52.2949 61.1816-44.3359C61.1816-35.9863 55.2734-29.3945 47.5098-29.3945ZM47.5098-2.7832C39.5996-2.7832 30.0293-6.05469 24.4141-12.2559C29.248-18.9453 37.3535-22.6074 47.5098-22.6074C57.5684-22.6074 65.7227-19.043 70.6055-12.2559C64.9902-6.05469 55.4199-2.7832 47.5098-2.7832Z"/>
  </g>
  <g id="Semibold-S" transform="matrix(1 0 0 1 1996.2 696)">
   <path d="M47.0703 4.98047C69.0918 4.98047 87.3047-13.1836 87.3047-35.2539C87.3047-57.2754 69.0918-75.4883 47.0215-75.4883C25-75.4883 6.83594-57.2754 6.83594-35.2539C6.83594-13.1836 25.0488 4.98047 47.0703 4.98047ZM47.0215-29.1016C39.4043-29.1504 33.5449-35.5469 33.5449-43.8477C33.4961-51.7578 39.502-58.3496 47.0215-58.3496C54.5898-58.3496 60.5469-51.7578 60.5469-43.8477C60.5469-35.5469 54.6387-29.0527 47.0215-29.1016ZM47.0215-2.63672C38.9648-2.63672 29.6875-5.95703 23.9258-12.1582C28.5156-18.75 36.8652-22.4121 47.0215-22.4121C57.0801-22.4121 65.5273-18.8477 70.1172-12.1582C64.3555-5.95703 55.127-2.63672 47.0215-2.63672Z"/>
  </g>
  <g id="Medium-S" transform="matrix(1 0 0 1 1699.83 696)">
   <path d="M46.7285 4.63867C68.5547 4.63867 86.6211-13.4277 86.6211-35.2539C86.6211-57.0801 68.5059-75.1465 46.6797-75.1465C24.8535-75.1465 6.83594-57.0801 6.83594-35.2539C6.83594-13.4277 24.9023 4.63867 46.7285 4.63867ZM46.6797-28.8574C39.1602-28.9551 33.3008-35.2051 33.3008-43.5059C33.252-51.3184 39.209-57.8125 46.6797-57.8125C54.1504-57.8125 60.0098-51.3184 60.0098-43.5059C60.0098-35.2051 54.1504-28.8086 46.6797-28.8574ZM46.6797-2.58789C38.4766-2.58789 29.3945-5.9082 23.584-12.1094C27.9297-18.6035 36.4746-22.3145 46.6797-22.3145C56.7383-22.3145 65.332-18.7012 69.7754-12.1094C63.916-5.9082 54.8828-2.58789 46.6797-2.58789Z"/>
  </g>
  <g id="Regular-S" transform="matrix(1 0 0 1 1403.58 696)">
   <path d="M46.2402 4.15039C67.7734 4.15039 85.6934-13.7207 85.6934-35.2539C85.6934-56.7871 67.7246-74.6582 46.1914-74.6582C24.707-74.6582 6.83594-56.7871 6.83594-35.2539C6.83594-13.7207 24.7559 4.15039 46.2402 4.15039ZM46.1914-28.5645C38.8184-28.6621 33.0078-34.7656 33.0078-43.0176C32.959-50.7812 38.8184-57.1777 46.1914-57.1777C53.5645-57.1777 59.375-50.7812 59.375-43.0176C59.375-34.7656 53.5645-28.4668 46.1914-28.5645ZM46.1914-2.44141C37.8418-2.44141 29.0527-5.81055 23.0957-12.0605C27.1973-18.457 35.9375-22.1191 46.1914-22.1191C56.2988-22.1191 65.1367-18.5059 69.2871-12.0605C63.3301-5.81055 54.541-2.44141 46.1914-2.44141Z"/>
  </g>
  <g id="Light-S" transform="matrix(1 0 0 1 1107.6 696)">
   <path d="M45.5078 3.41797C66.6992 3.41797 84.2285-14.0625 84.2285-35.2539C84.2285-56.4453 66.6504-73.9258 45.5078-73.9258C24.3164-73.9258 6.83594-56.4453 6.83594-35.2539C6.83594-14.0625 24.3652 3.41797 45.5078 3.41797ZM45.5078-28.8086C38.1348-28.9062 32.4219-35.0586 32.4219-43.2617C32.373-50.9766 38.1836-57.373 45.5078-57.373C52.7832-57.373 58.5449-50.9766 58.5449-43.2617C58.5449-35.0586 52.832-28.7598 45.5078-28.8086ZM45.5078-1.66016C36.3281-1.66016 27.4414-5.51758 21.6309-11.7188C25.7812-18.3105 35.0098-22.3145 45.5078-22.3145C55.9082-22.3145 65.1855-18.3594 69.3359-11.7188C63.5254-5.51758 54.6387-1.66016 45.5078-1.66016Z"/>
  </g>
  <g id="Thin-S" transform="matrix(1 0 0 1 811.867 696)">
   <path d="M44.5801 2.49023C65.2832 2.49023 82.2754-14.5508 82.2754-35.2539C82.2754-55.957 65.2344-72.998 44.5312-72.998C23.8281-72.998 6.83594-55.957 6.83594-35.2539C6.83594-14.5508 23.877 2.49023 44.5801 2.49023ZM44.5312-29.1504C37.207-29.1992 31.5918-35.4004 31.5918-43.5547C31.543-51.2207 37.3047-57.6172 44.5312-57.6172C51.7578-57.6172 57.5195-51.2207 57.5195-43.5547C57.5195-35.4004 51.9043-29.1504 44.5312-29.1504ZM44.5312-0.634766C34.3262-0.634766 25.3418-5.17578 19.6777-11.3281C23.877-18.1641 33.7402-22.5586 44.5312-22.5586C55.3223-22.5586 65.2344-18.2129 69.4336-11.3281C63.7695-5.17578 54.7852-0.634766 44.5312-0.634766Z"/>
  </g>
  <g id="Ultralight-S" transform="matrix(1 0 0 1 515.644 696)">
   <path d="M44.043 1.95312C64.502 1.95312 81.2988-14.7949 81.2988-35.2539C81.2988-55.7129 64.502-72.4609 44.043-72.4609C23.584-72.4609 6.83594-55.7129 6.83594-35.2539C6.83594-14.7949 23.584 1.95312 44.043 1.95312ZM44.043-29.3457C36.7188-29.3457 31.1523-35.5957 31.1523-43.7012C31.1035-51.3184 36.8652-57.7637 44.043-57.7637C51.2695-57.7637 56.9824-51.3184 56.9824-43.7012C56.9824-35.5957 51.416-29.3457 44.043-29.3457ZM44.043-0.0976562C33.3008-0.0976562 24.2188-4.98047 18.6523-11.084C22.9004-18.0664 33.0566-22.7051 44.043-22.7051C55.0781-22.7051 65.2344-18.0664 69.4824-11.084C63.916-4.98047 54.834-0.0976562 44.043-0.0976562Z"/>
  </g>
 </g>
</svg>
