<?xml version="1.0" encoding="UTF-8"?>
<!--Generator: Apple Native CoreSVG 149-->
<!DOCTYPE svg
PUBLIC "-//W3C//DTD SVG 1.1//EN"
       "http://www.w3.org/Graphics/SVG/1.1/DTD/svg11.dtd">
<svg version="1.1" xmlns="http://www.w3.org/2000/svg" xmlns:xlink="http://www.w3.org/1999/xlink" width="3300" height="2200">
 <!--glyph: "uni1001F7.medium", point size: 100.000000, font version: "Version 16.0d18e1", template writer version: "8"-->
 <g id="Notes">
  <rect height="2200" id="artboard" style="fill:white;opacity:1" width="3300" x="0" y="0"/>
  <line id="" style="fill:none;stroke:black;opacity:1;stroke-width:0.5;" x1="263" x2="3036" y1="292" y2="292"/>
  <text style="stroke:none;fill:black;font-family:-apple-system,&quot;SF Pro Display&quot;,&quot;SF Pro Text&quot;,Helvetica,sans-serif;font-weight:bold;" transform="matrix(1 0 0 1 263 322)">Weight/Scale Variations</text>
  <text style="stroke:none;fill:black;font-family:-apple-system,&quot;SF Pro Display&quot;,&quot;SF Pro Text&quot;,Helvetica,sans-serif;text-anchor:middle;" transform="matrix(1 0 0 1 559.711 322)">Ultralight</text>
  <text style="stroke:none;fill:black;font-family:-apple-system,&quot;SF Pro Display&quot;,&quot;SF Pro Text&quot;,Helvetica,sans-serif;text-anchor:middle;" transform="matrix(1 0 0 1 856.422 322)">Thin</text>
  <text style="stroke:none;fill:black;font-family:-apple-system,&quot;SF Pro Display&quot;,&quot;SF Pro Text&quot;,Helvetica,sans-serif;text-anchor:middle;" transform="matrix(1 0 0 1 1153.13 322)">Light</text>
  <text style="stroke:none;fill:black;font-family:-apple-system,&quot;SF Pro Display&quot;,&quot;SF Pro Text&quot;,Helvetica,sans-serif;text-anchor:middle;" transform="matrix(1 0 0 1 1449.84 322)">Regular</text>
  <text style="stroke:none;fill:black;font-family:-apple-system,&quot;SF Pro Display&quot;,&quot;SF Pro Text&quot;,Helvetica,sans-serif;text-anchor:middle;" transform="matrix(1 0 0 1 1746.56 322)">Medium</text>
  <text style="stroke:none;fill:black;font-family:-apple-system,&quot;SF Pro Display&quot;,&quot;SF Pro Text&quot;,Helvetica,sans-serif;text-anchor:middle;" transform="matrix(1 0 0 1 2043.27 322)">Semibold</text>
  <text style="stroke:none;fill:black;font-family:-apple-system,&quot;SF Pro Display&quot;,&quot;SF Pro Text&quot;,Helvetica,sans-serif;text-anchor:middle;" transform="matrix(1 0 0 1 2339.98 322)">Bold</text>
  <text style="stroke:none;fill:black;font-family:-apple-system,&quot;SF Pro Display&quot;,&quot;SF Pro Text&quot;,Helvetica,sans-serif;text-anchor:middle;" transform="matrix(1 0 0 1 2636.69 322)">Heavy</text>
  <text style="stroke:none;fill:black;font-family:-apple-system,&quot;SF Pro Display&quot;,&quot;SF Pro Text&quot;,Helvetica,sans-serif;text-anchor:middle;" transform="matrix(1 0 0 1 2933.4 322)">Black</text>
  <line id="" style="fill:none;stroke:black;opacity:1;stroke-width:0.5;" x1="263" x2="3036" y1="1903" y2="1903"/>
  <g id="" transform="matrix(1 0 0 1 263 1933)">
   <path d="M9.24805 0.830078C13.5547 0.830078 17.1387-2.74414 17.1387-7.05078C17.1387-11.3574 13.5449-14.9316 9.23828-14.9316C4.94141-14.9316 1.36719-11.3574 1.36719-7.05078C1.36719-2.74414 4.95117 0.830078 9.24805 0.830078ZM9.24805-0.654297C5.70312-0.654297 2.87109-3.49609 2.87109-7.05078C2.87109-10.6055 5.69336-13.4473 9.23828-13.4473C12.793-13.4473 15.6348-10.6055 15.6445-7.05078C15.6543-3.49609 12.8027-0.654297 9.24805-0.654297ZM6.39648-6.31836L8.50586-6.31836L8.50586-4.19922C8.50586-3.75977 8.79883-3.45703 9.22852-3.45703C9.67773-3.45703 9.9707-3.75977 9.9707-4.19922L9.9707-6.31836L12.0996-6.31836C12.5391-6.31836 12.8418-6.61133 12.8418-7.04102C12.8418-7.48047 12.5391-7.7832 12.0996-7.7832L9.9707-7.7832L9.9707-9.89258C9.9707-10.3418 9.67773-10.6445 9.22852-10.6445C8.79883-10.6445 8.50586-10.3418 8.50586-9.89258L8.50586-7.7832L6.39648-7.7832C5.94727-7.7832 5.64453-7.48047 5.64453-7.04102C5.64453-6.61133 5.94727-6.31836 6.39648-6.31836Z"/>
  </g>
  <g id="" transform="matrix(1 0 0 1 281.506 1933)">
   <path d="M11.709 2.91016C17.1582 2.91016 21.6699-1.61133 21.6699-7.05078C21.6699-12.5 17.1484-17.0117 11.6992-17.0117C6.25977-17.0117 1.74805-12.5 1.74805-7.05078C1.74805-1.61133 6.26953 2.91016 11.709 2.91016ZM11.709 1.25C7.09961 1.25 3.41797-2.44141 3.41797-7.05078C3.41797-11.6602 7.08984-15.3516 11.6992-15.3516C16.3086-15.3516 20-11.6602 20.0098-7.05078C20.0195-2.44141 16.3184 1.25 11.709 1.25ZM7.98828-6.23047L10.8789-6.23047L10.8789-3.32031C10.8789-2.83203 11.2109-2.5 11.6895-2.5C12.1777-2.5 12.5195-2.83203 12.5195-3.32031L12.5195-6.23047L15.4297-6.23047C15.918-6.23047 16.25-6.5625 16.25-7.04102C16.25-7.5293 15.918-7.87109 15.4297-7.87109L12.5195-7.87109L12.5195-10.7617C12.5195-11.2695 12.1777-11.6016 11.6895-11.6016C11.2109-11.6016 10.8789-11.2598 10.8789-10.7617L10.8789-7.87109L7.98828-7.87109C7.48047-7.87109 7.14844-7.5293 7.14844-7.04102C7.14844-6.5625 7.49023-6.23047 7.98828-6.23047Z"/>
  </g>
  <g id="" transform="matrix(1 0 0 1 304.924 1933)">
   <path d="M14.9707 5.66406C21.9336 5.66406 27.6953-0.0976562 27.6953-7.05078C27.6953-14.0137 21.9238-19.7754 14.9609-19.7754C8.00781-19.7754 2.25586-14.0137 2.25586-7.05078C2.25586-0.0976562 8.01758 5.66406 14.9707 5.66406ZM14.9707 3.84766C8.93555 3.84766 4.08203-1.01562 4.08203-7.05078C4.08203-13.0957 8.92578-17.9492 14.9609-17.9492C21.0059-17.9492 25.8594-13.0957 25.8691-7.05078C25.8789-1.01562 21.0156 3.84766 14.9707 3.84766ZM10.0586-6.14258L14.0625-6.14258L14.0625-2.12891C14.0625-1.5918 14.4336-1.2207 14.9512-1.2207C15.4883-1.2207 15.8594-1.5918 15.8594-2.12891L15.8594-6.14258L19.8828-6.14258C20.4102-6.14258 20.791-6.51367 20.791-7.03125C20.791-7.56836 20.4199-7.94922 19.8828-7.94922L15.8594-7.94922L15.8594-11.9531C15.8594-12.5098 15.4883-12.8809 14.9512-12.8809C14.4336-12.8809 14.0625-12.5 14.0625-11.9531L14.0625-7.94922L10.0586-7.94922C9.50195-7.94922 9.13086-7.56836 9.13086-7.03125C9.13086-6.51367 9.51172-6.14258 10.0586-6.14258Z"/>
  </g>
  <text style="stroke:none;fill:black;font-family:-apple-system,&quot;SF Pro Display&quot;,&quot;SF Pro Text&quot;,Helvetica,sans-serif;font-weight:bold;" transform="matrix(1 0 0 1 263 1953)">Design Variations</text>
  <text style="stroke:none;fill:black;font-family:-apple-system,&quot;SF Pro Display&quot;,&quot;SF Pro Text&quot;,Helvetica,sans-serif;" transform="matrix(1 0 0 1 263 1971)">Symbols are supported in up to nine weights and three scales.</text>
  <text style="stroke:none;fill:black;font-family:-apple-system,&quot;SF Pro Display&quot;,&quot;SF Pro Text&quot;,Helvetica,sans-serif;" transform="matrix(1 0 0 1 263 1989)">For optimal layout with text and other symbols, vertically align</text>
  <text style="stroke:none;fill:black;font-family:-apple-system,&quot;SF Pro Display&quot;,&quot;SF Pro Text&quot;,Helvetica,sans-serif;" transform="matrix(1 0 0 1 263 2007)">symbols with the adjacent text.</text>
  <line id="" style="fill:none;stroke:#00AEEF;stroke-width:0.5;opacity:1.0;" x1="776" x2="776" y1="1919" y2="1933"/>
  <g id="" transform="matrix(1 0 0 1 776 1933)">
   <path d="M3.31055 0.126953C3.82812 0.126953 4.08203-0.0683594 4.26758-0.605469L5.52734-4.0625L11.2891-4.0625L12.5488-0.605469C12.7344-0.0683594 12.9883 0.126953 13.4961 0.126953C14.0137 0.126953 14.3457-0.185547 14.3457-0.673828C14.3457-0.839844 14.3164-0.986328 14.2383-1.20117L9.6582-13.3887C9.43359-13.9941 9.0332-14.2871 8.4082-14.2871C7.80273-14.2871 7.39258-13.9941 7.17773-13.3984L2.59766-1.19141C2.51953-0.976562 2.49023-0.830078 2.49023-0.664062C2.49023-0.175781 2.80273 0.126953 3.31055 0.126953ZM6.00586-5.53711L8.37891-12.1094L8.42773-12.1094L10.8008-5.53711Z"/>
  </g>
  <line id="" style="fill:none;stroke:#00AEEF;stroke-width:0.5;opacity:1.0;" x1="792.836" x2="792.836" y1="1919" y2="1933"/>
  <text style="stroke:none;fill:black;font-family:-apple-system,&quot;SF Pro Display&quot;,&quot;SF Pro Text&quot;,Helvetica,sans-serif;font-weight:bold;" transform="matrix(1 0 0 1 776 1953)">Margins</text>
  <text style="stroke:none;fill:black;font-family:-apple-system,&quot;SF Pro Display&quot;,&quot;SF Pro Text&quot;,Helvetica,sans-serif;" transform="matrix(1 0 0 1 776 1971)">Leading and trailing margins on the left and right side of each symbol</text>
  <text style="stroke:none;fill:black;font-family:-apple-system,&quot;SF Pro Display&quot;,&quot;SF Pro Text&quot;,Helvetica,sans-serif;" transform="matrix(1 0 0 1 776 1989)">can be adjusted by modifying the x-location of the margin guidelines.</text>
  <text style="stroke:none;fill:black;font-family:-apple-system,&quot;SF Pro Display&quot;,&quot;SF Pro Text&quot;,Helvetica,sans-serif;" transform="matrix(1 0 0 1 776 2007)">Modifications are automatically applied proportionally to all</text>
  <text style="stroke:none;fill:black;font-family:-apple-system,&quot;SF Pro Display&quot;,&quot;SF Pro Text&quot;,Helvetica,sans-serif;" transform="matrix(1 0 0 1 776 2025)">scales and weights.</text>
  <g id="" transform="matrix(1 0 0 1 1289 1933)">
   <path d="M2.8418 1.86523L4.54102 3.57422C5.40039 4.44336 6.38672 4.38477 7.31445 3.35938L17.4902-7.85156C17.7539-7.76367 18.0273-7.7832 18.3398-7.8418L19.4043-8.03711L20.0684-7.36328L20.0293-6.80664C19.9902-6.30859 20.1172-5.92773 20.6055-5.44922L21.3672-4.70703C21.8457-4.22852 22.4609-4.19922 22.9297-4.66797L25.8398-7.58789C26.3086-8.05664 26.2891-8.65234 25.8105-9.13086L25.0391-9.89258C24.5605-10.3711 24.1895-10.5273 23.7109-10.4883L23.1348-10.4395L22.4902-11.0742L22.7344-12.1973C22.8613-12.7637 22.7051-13.2031 22.1191-13.7891L19.9219-15.9766C16.582-19.2969 12.1484-19.2188 9.25781-16.3281C8.83789-15.918 8.80859-15.3418 9.04297-14.9512C9.27734-14.5898 9.73633-14.3555 10.3809-14.5215C11.8457-14.8633 13.3691-14.9219 14.7949-13.9844L14.209-12.5293C14.0137-12.0508 13.9844-11.6504 14.1113-11.2891L3.04688-0.898438C2.06055 0.0195312 1.98242 0.996094 2.8418 1.86523ZM10.752-15.957C13.1836-17.7344 16.4746-17.4316 18.7012-15.2051L21.1328-12.793C21.3672-12.5586 21.4062-12.373 21.3379-12.0312L21.0156-10.5469L22.5195-9.0625L23.5059-9.12109C23.7598-9.13086 23.8379-9.11133 24.0332-8.91602L24.6094-8.33984L22.168-5.89844L21.5918-6.47461C21.3965-6.66992 21.3672-6.74805 21.377-7.01172L21.4453-7.98828L19.9512-9.47266L18.4277-9.21875C18.1055-9.15039 17.959-9.17969 17.7148-9.41406L15.7129-11.416C15.459-11.6504 15.4297-11.8164 15.5859-12.1875L16.4648-14.2773C14.9023-15.7324 12.8711-16.3574 10.8398-15.7617C10.6836-15.7227 10.625-15.8496 10.752-15.957ZM5.27344 2.30469L4.10156 1.14258C3.63281 0.683594 3.74023 0.341797 4.14062-0.0195312L14.9512-10.1953L16.416-8.71094L6.42578 2.27539C6.07422 2.67578 5.74219 2.77344 5.27344 2.30469Z"/>
  </g>
  <text style="stroke:none;fill:black;font-family:-apple-system,&quot;SF Pro Display&quot;,&quot;SF Pro Text&quot;,Helvetica,sans-serif;font-weight:bold;" transform="matrix(1 0 0 1 1289 1953)">Exporting</text>
  <text style="stroke:none;fill:black;font-family:-apple-system,&quot;SF Pro Display&quot;,&quot;SF Pro Text&quot;,Helvetica,sans-serif;" transform="matrix(1 0 0 1 1289 1971)">Symbols should be outlined when exporting to ensure the</text>
  <text style="stroke:none;fill:black;font-family:-apple-system,&quot;SF Pro Display&quot;,&quot;SF Pro Text&quot;,Helvetica,sans-serif;" transform="matrix(1 0 0 1 1289 1989)">design is preserved when submitting to Xcode.</text>
  <text id="template-version" style="stroke:none;fill:black;font-family:-apple-system,&quot;SF Pro Display&quot;,&quot;SF Pro Text&quot;,Helvetica,sans-serif;text-anchor:end;" transform="matrix(1 0 0 1 3036 1933)">Template v.2.0</text>
  <text style="stroke:none;fill:black;font-family:-apple-system,&quot;SF Pro Display&quot;,&quot;SF Pro Text&quot;,Helvetica,sans-serif;text-anchor:end;" transform="matrix(1 0 0 1 3036 1951)">Requires Xcode 12 or greater</text>
  <text style="stroke:none;fill:black;font-family:-apple-system,&quot;SF Pro Display&quot;,&quot;SF Pro Text&quot;,Helvetica,sans-serif;text-anchor:end;" transform="matrix(1 0 0 1 3036 1969)">Generated from square.grid.2x2</text>
  <text style="stroke:none;fill:black;font-family:-apple-system,&quot;SF Pro Display&quot;,&quot;SF Pro Text&quot;,Helvetica,sans-serif;text-anchor:end;" transform="matrix(1 0 0 1 3036 1987)">Typeset at 100 points</text>
  <text style="stroke:none;fill:black;font-family:-apple-system,&quot;SF Pro Display&quot;,&quot;SF Pro Text&quot;,Helvetica,sans-serif;" transform="matrix(1 0 0 1 263 726)">Small</text>
  <text style="stroke:none;fill:black;font-family:-apple-system,&quot;SF Pro Display&quot;,&quot;SF Pro Text&quot;,Helvetica,sans-serif;" transform="matrix(1 0 0 1 263 1156)">Medium</text>
  <text style="stroke:none;fill:black;font-family:-apple-system,&quot;SF Pro Display&quot;,&quot;SF Pro Text&quot;,Helvetica,sans-serif;" transform="matrix(1 0 0 1 263 1586)">Large</text>
 </g>
 <g id="Guides">
  <g id="H-reference" style="fill:#27AAE1;stroke:none;" transform="matrix(1 0 0 1 339 696)">
   <path d="M0.976562 0L3.66211 0L12.9883-24.4629L45.752-24.4629L55.127 0L57.7637 0L30.6152-70.459L28.125-70.459ZM29.3457-67.1387L29.4434-67.1387L44.873-26.709L13.8672-26.709Z"/>
  </g>
  <line id="Baseline-S" style="fill:none;stroke:#27AAE1;opacity:1;stroke-width:0.5;" x1="263" x2="3036" y1="696" y2="696"/>
  <line id="Capline-S" style="fill:none;stroke:#27AAE1;opacity:1;stroke-width:0.5;" x1="263" x2="3036" y1="625.541" y2="625.541"/>
  <g id="H-reference" style="fill:#27AAE1;stroke:none;" transform="matrix(1 0 0 1 339 1126)">
   <path d="M0.976562 0L3.66211 0L12.9883-24.4629L45.752-24.4629L55.127 0L57.7637 0L30.6152-70.459L28.125-70.459ZM29.3457-67.1387L29.4434-67.1387L44.873-26.709L13.8672-26.709Z"/>
  </g>
  <line id="Baseline-M" style="fill:none;stroke:#27AAE1;opacity:1;stroke-width:0.5;" x1="263" x2="3036" y1="1126" y2="1126"/>
  <line id="Capline-M" style="fill:none;stroke:#27AAE1;opacity:1;stroke-width:0.5;" x1="263" x2="3036" y1="1055.54" y2="1055.54"/>
  <g id="H-reference" style="fill:#27AAE1;stroke:none;" transform="matrix(1 0 0 1 339 1556)">
   <path d="M0.976562 0L3.66211 0L12.9883-24.4629L45.752-24.4629L55.127 0L57.7637 0L30.6152-70.459L28.125-70.459ZM29.3457-67.1387L29.4434-67.1387L44.873-26.709L13.8672-26.709Z"/>
  </g>
  <line id="Baseline-L" style="fill:none;stroke:#27AAE1;opacity:1;stroke-width:0.5;" x1="263" x2="3036" y1="1556" y2="1556"/>
  <line id="Capline-L" style="fill:none;stroke:#27AAE1;opacity:1;stroke-width:0.5;" x1="263" x2="3036" y1="1485.54" y2="1485.54"/>
  <line id="left-margin" style="fill:none;stroke:#00AEEF;stroke-width:0.5;opacity:1.0;" x1="1392.45" x2="1392.45" y1="1030.79" y2="1150.12"/>
  <line id="right-margin" style="fill:none;stroke:#00AEEF;stroke-width:0.5;opacity:1.0;" x1="1507.24" x2="1507.24" y1="1030.79" y2="1150.12"/>
 </g>
 <g id="Symbols">
  <g id="Black-L" transform="matrix(1 0 0 1 2855.62 1556)">
   <path d="M34.9609-39.1113L54.9805-39.1113C67.8711-39.1113 73.877-45.0684 73.877-58.0566L73.877-77.9297C73.877-90.918 67.8711-96.875 54.9805-96.875L34.9609-96.875C22.0215-96.875 16.0645-90.918 16.0645-77.9297L16.0645-58.0566C16.0645-45.0684 22.0215-39.1113 34.9609-39.1113ZM100.537-39.1113L120.605-39.1113C133.496-39.1113 139.502-45.0684 139.502-58.0566L139.502-77.9297C139.502-90.918 133.496-96.875 120.605-96.875L100.537-96.875C87.6465-96.875 81.6895-90.918 81.6895-77.9297L81.6895-58.0566C81.6895-45.0684 87.6465-39.1113 100.537-39.1113ZM34.8633-54.7852C32.7637-54.7852 31.7871-55.7617 31.7871-57.959L31.7871-78.0762C31.7871-80.1758 32.7637-81.2012 34.8633-81.2012L55.0781-81.2012C57.1777-81.2012 58.1543-80.1758 58.1543-78.0762L58.1543-57.959C58.1543-55.7617 57.1777-54.7852 55.0781-54.7852ZM100.488-54.7852C98.3398-54.7852 97.3633-55.7617 97.3633-57.959L97.3633-78.0762C97.3633-80.1758 98.3398-81.2012 100.488-81.2012L120.703-81.2012C122.803-81.2012 123.779-80.1758 123.779-78.0762L123.779-57.959C123.779-55.7617 122.803-54.7852 120.703-54.7852ZM34.9609 26.5137L54.9805 26.5137C67.8711 26.5137 73.877 20.5078 73.877 7.51953L73.877-12.3047C73.877-25.293 67.8711-31.2988 54.9805-31.2988L34.9609-31.2988C22.0215-31.2988 16.0645-25.293 16.0645-12.3047L16.0645 7.51953C16.0645 20.5078 22.0215 26.5137 34.9609 26.5137ZM100.537 26.5137L120.605 26.5137C133.496 26.5137 139.502 20.5078 139.502 7.51953L139.502-12.3047C139.502-25.293 133.496-31.2988 120.605-31.2988L100.537-31.2988C87.6465-31.2988 81.6895-25.293 81.6895-12.3047L81.6895 7.51953C81.6895 20.5078 87.6465 26.5137 100.537 26.5137ZM34.8633 10.791C32.7637 10.791 31.7871 9.81445 31.7871 7.66602L31.7871-12.4512C31.7871-14.5996 32.7637-15.5762 34.8633-15.5762L55.0781-15.5762C57.1777-15.5762 58.1543-14.5996 58.1543-12.4512L58.1543 7.66602C58.1543 9.81445 57.1777 10.791 55.0781 10.791ZM100.488 10.791C98.3398 10.791 97.3633 9.81445 97.3633 7.66602L97.3633-12.4512C97.3633-14.5996 98.3398-15.5762 100.488-15.5762L120.703-15.5762C122.803-15.5762 123.779-14.5996 123.779-12.4512L123.779 7.66602C123.779 9.81445 122.803 10.791 120.703 10.791Z"/>
  </g>
  <g id="Heavy-L" transform="matrix(1 0 0 1 2559.93 1556)">
   <path d="M33.1543-39.4043L55.4199-39.4043C67.041-39.4043 72.5098-44.873 72.5098-56.5918L72.5098-78.6621C72.5098-90.4297 67.041-95.8496 55.4199-95.8496L33.1543-95.8496C21.5332-95.8496 16.0645-90.4297 16.0645-78.6621L16.0645-56.5918C16.0645-44.873 21.5332-39.4043 33.1543-39.4043ZM98.0957-39.4043L120.361-39.4043C131.982-39.4043 137.451-44.873 137.451-56.5918L137.451-78.6621C137.451-90.4297 131.982-95.8496 120.361-95.8496L98.0957-95.8496C86.4746-95.8496 81.0059-90.4297 81.0059-78.6621L81.0059-56.5918C81.0059-44.873 86.4746-39.4043 98.0957-39.4043ZM33.1055-53.2227C30.9082-53.2227 29.8828-54.248 29.8828-56.543L29.8828-78.7598C29.8828-81.0059 30.9082-82.0801 33.1055-82.0801L55.4688-82.0801C57.666-82.0801 58.6914-81.0059 58.6914-78.7598L58.6914-56.543C58.6914-54.248 57.666-53.2227 55.4688-53.2227ZM98.0469-53.2227C95.8008-53.2227 94.8242-54.248 94.8242-56.543L94.8242-78.7598C94.8242-81.0059 95.8008-82.0801 98.0469-82.0801L120.41-82.0801C122.607-82.0801 123.633-81.0059 123.633-78.7598L123.633-56.543C123.633-54.248 122.607-53.2227 120.41-53.2227ZM33.1543 25.4883L55.4199 25.4883C67.041 25.4883 72.5098 20.0684 72.5098 8.30078L72.5098-13.7695C72.5098-25.4883 67.041-30.957 55.4199-30.957L33.1543-30.957C21.5332-30.957 16.0645-25.4883 16.0645-13.7695L16.0645 8.30078C16.0645 20.0684 21.5332 25.4883 33.1543 25.4883ZM98.0957 25.4883L120.361 25.4883C131.982 25.4883 137.451 20.0684 137.451 8.30078L137.451-13.7695C137.451-25.4883 131.982-30.957 120.361-30.957L98.0957-30.957C86.4746-30.957 81.0059-25.4883 81.0059-13.7695L81.0059 8.30078C81.0059 20.0684 86.4746 25.4883 98.0957 25.4883ZM33.1055 11.7188C30.9082 11.7188 29.8828 10.6445 29.8828 8.39844L29.8828-13.8184C29.8828-16.1133 30.9082-17.1387 33.1055-17.1387L55.4688-17.1387C57.666-17.1387 58.6914-16.1133 58.6914-13.8184L58.6914 8.39844C58.6914 10.6445 57.666 11.7188 55.4688 11.7188ZM98.0469 11.7188C95.8008 11.7188 94.8242 10.6445 94.8242 8.39844L94.8242-13.8184C94.8242-16.1133 95.8008-17.1387 98.0469-17.1387L120.41-17.1387C122.607-17.1387 123.633-16.1133 123.633-13.8184L123.633 8.39844C123.633 10.6445 122.607 11.7188 120.41 11.7188Z"/>
  </g>
  <g id="Bold-L" transform="matrix(1 0 0 1 2264.37 1556)">
   <path d="M31.1035-39.7949L55.957-39.7949C66.1133-39.7949 70.9961-44.6289 70.9961-54.9805L70.9961-79.541C70.9961-89.8926 66.1133-94.7266 55.957-94.7266L31.1035-94.7266C20.9473-94.7266 16.0645-89.8926 16.0645-79.541L16.0645-54.9805C16.0645-44.6289 20.9473-39.7949 31.1035-39.7949ZM95.3125-39.7949L120.117-39.7949C130.273-39.7949 135.156-44.6289 135.156-54.9805L135.156-79.541C135.156-89.8926 130.273-94.7266 120.117-94.7266L95.3125-94.7266C85.1074-94.7266 80.2246-89.8926 80.2246-79.541L80.2246-54.9805C80.2246-44.6289 85.1074-39.7949 95.3125-39.7949ZM31.1035-51.4648C28.8086-51.4648 27.7344-52.5879 27.7344-54.9805L27.7344-79.5898C27.7344-81.9336 28.8086-83.0566 31.1035-83.0566L55.9082-83.0566C58.2031-83.0566 59.3262-81.9336 59.3262-79.5898L59.3262-54.9805C59.3262-52.5879 58.2031-51.4648 55.9082-51.4648ZM95.3125-51.4648C92.9688-51.4648 91.9434-52.5879 91.9434-54.9805L91.9434-79.5898C91.9434-81.9336 92.9688-83.0566 95.3125-83.0566L120.117-83.0566C122.412-83.0566 123.486-81.9336 123.486-79.5898L123.486-54.9805C123.486-52.5879 122.412-51.4648 120.117-51.4648ZM31.1035 24.3652L55.957 24.3652C66.1133 24.3652 70.9961 19.5312 70.9961 9.17969L70.9961-15.332C70.9961-25.7324 66.1133-30.5664 55.957-30.5664L31.1035-30.5664C20.9473-30.5664 16.0645-25.7324 16.0645-15.332L16.0645 9.17969C16.0645 19.5312 20.9473 24.3652 31.1035 24.3652ZM95.3125 24.3652L120.117 24.3652C130.273 24.3652 135.156 19.5312 135.156 9.17969L135.156-15.332C135.156-25.7324 130.273-30.5664 120.117-30.5664L95.3125-30.5664C85.1074-30.5664 80.2246-25.7324 80.2246-15.332L80.2246 9.17969C80.2246 19.5312 85.1074 24.3652 95.3125 24.3652ZM31.1035 12.6953C28.8086 12.6953 27.7344 11.5723 27.7344 9.22852L27.7344-15.3809C27.7344-17.7734 28.8086-18.8477 31.1035-18.8477L55.9082-18.8477C58.2031-18.8477 59.3262-17.7734 59.3262-15.3809L59.3262 9.22852C59.3262 11.5723 58.2031 12.6953 55.9082 12.6953ZM95.3125 12.6953C92.9688 12.6953 91.9434 11.5723 91.9434 9.22852L91.9434-15.3809C91.9434-17.7734 92.9688-18.8477 95.3125-18.8477L120.117-18.8477C122.412-18.8477 123.486-17.7734 123.486-15.3809L123.486 9.22852C123.486 11.5723 122.412 12.6953 120.117 12.6953Z"/>
  </g>
  <g id="Semibold-L" transform="matrix(1 0 0 1 1968.44 1556)">
   <path d="M29.7363-40.0391L56.2988-40.0391C65.4785-40.0391 69.9219-44.4336 69.9219-53.8574L69.9219-80.127C69.9219-89.5508 65.4785-93.9453 56.2988-93.9453L29.7363-93.9453C20.5566-93.9453 16.0645-89.5508 16.0645-80.127L16.0645-53.8574C16.0645-44.4336 20.5566-40.0391 29.7363-40.0391ZM93.3594-40.0391L119.922-40.0391C129.102-40.0391 133.594-44.4336 133.594-53.8574L133.594-80.127C133.594-89.5508 129.102-93.9453 119.922-93.9453L93.3594-93.9453C84.1797-93.9453 79.7363-89.5508 79.7363-80.127L79.7363-53.8574C79.7363-44.4336 84.1797-40.0391 93.3594-40.0391ZM29.7852-50.293C27.3926-50.293 26.2695-51.416 26.2695-53.8574L26.2695-80.127C26.2695-82.5684 27.3926-83.6914 29.7852-83.6914L56.2012-83.6914C58.5938-83.6914 59.7168-82.5684 59.7168-80.127L59.7168-53.8574C59.7168-51.416 58.5938-50.293 56.2012-50.293ZM93.457-50.293C91.0156-50.293 89.9414-51.416 89.9414-53.8574L89.9414-80.127C89.9414-82.5684 91.0156-83.6914 93.457-83.6914L119.873-83.6914C122.266-83.6914 123.389-82.5684 123.389-80.127L123.389-53.8574C123.389-51.416 122.266-50.293 119.873-50.293ZM29.7363 23.584L56.2988 23.584C65.4785 23.584 69.9219 19.1895 69.9219 9.76562L69.9219-16.4551C69.9219-25.8789 65.4785-30.2734 56.2988-30.2734L29.7363-30.2734C20.5566-30.2734 16.0645-25.8789 16.0645-16.4551L16.0645 9.76562C16.0645 19.1895 20.5566 23.584 29.7363 23.584ZM93.3594 23.584L119.922 23.584C129.102 23.584 133.594 19.1895 133.594 9.76562L133.594-16.4551C133.594-25.8789 129.102-30.2734 119.922-30.2734L93.3594-30.2734C84.1797-30.2734 79.7363-25.8789 79.7363-16.4551L79.7363 9.76562C79.7363 19.1895 84.1797 23.584 93.3594 23.584ZM29.7852 13.3789C27.3926 13.3789 26.2695 12.2559 26.2695 9.81445L26.2695-16.4551C26.2695-18.9453 27.3926-20.0684 29.7852-20.0684L56.2012-20.0684C58.5938-20.0684 59.7168-18.9453 59.7168-16.4551L59.7168 9.81445C59.7168 12.2559 58.5938 13.3789 56.2012 13.3789ZM93.457 13.3789C91.0156 13.3789 89.9414 12.2559 89.9414 9.81445L89.9414-16.4551C89.9414-18.9453 91.0156-20.0684 93.457-20.0684L119.873-20.0684C122.266-20.0684 123.389-18.9453 123.389-16.4551L123.389 9.81445C123.389 12.2559 122.266 13.3789 119.873 13.3789Z"/>
  </g>
  <g id="Medium-L" transform="matrix(1 0 0 1 1672.31 1556)">
   <path d="M28.6621-40.2344L56.543-40.2344C64.9902-40.2344 69.1406-44.3359 69.1406-53.0273L69.1406-80.5664C69.1406-89.2578 64.9902-93.3105 56.543-93.3105L28.6621-93.3105C20.2637-93.3105 16.0645-89.2578 16.0645-80.5664L16.0645-53.0273C16.0645-44.3359 20.2637-40.2344 28.6621-40.2344ZM91.8945-40.2344L119.824-40.2344C128.223-40.2344 132.422-44.3359 132.422-53.0273L132.422-80.5664C132.422-89.2578 128.223-93.3105 119.824-93.3105L91.8945-93.3105C83.4961-93.3105 79.2969-89.2578 79.2969-80.5664L79.2969-53.0273C79.2969-44.3359 83.4961-40.2344 91.8945-40.2344ZM28.7598-49.3652C26.2695-49.3652 25.1953-50.5371 25.1953-53.0762L25.1953-80.5664C25.1953-83.0566 26.2695-84.2285 28.7598-84.2285L56.4453-84.2285C58.8867-84.2285 60.0586-83.0566 60.0586-80.5664L60.0586-53.0762C60.0586-50.5371 58.8867-49.3652 56.4453-49.3652ZM92.041-49.3652C89.5508-49.3652 88.4277-50.5371 88.4277-53.0762L88.4277-80.5664C88.4277-83.0566 89.5508-84.2285 92.041-84.2285L119.727-84.2285C122.168-84.2285 123.291-83.0566 123.291-80.5664L123.291-53.0762C123.291-50.5371 122.168-49.3652 119.727-49.3652ZM28.6621 22.998L56.543 22.998C64.9902 22.998 69.1406 18.9453 69.1406 10.2051L69.1406-17.2852C69.1406-26.0254 64.9902-30.0781 56.543-30.0781L28.6621-30.0781C20.2637-30.0781 16.0645-26.0254 16.0645-17.2852L16.0645 10.2051C16.0645 18.9453 20.2637 22.998 28.6621 22.998ZM91.8945 22.998L119.824 22.998C128.223 22.998 132.422 18.9453 132.422 10.2051L132.422-17.2852C132.422-26.0254 128.223-30.0781 119.824-30.0781L91.8945-30.0781C83.4961-30.0781 79.2969-26.0254 79.2969-17.2852L79.2969 10.2051C79.2969 18.9453 83.4961 22.998 91.8945 22.998ZM28.7598 13.916C26.2695 13.916 25.1953 12.7441 25.1953 10.2539L25.1953-17.2852C25.1953-19.8242 26.2695-20.9473 28.7598-20.9473L56.4453-20.9473C58.8867-20.9473 60.0586-19.8242 60.0586-17.2852L60.0586 10.2539C60.0586 12.7441 58.8867 13.916 56.4453 13.916ZM92.041 13.916C89.5508 13.916 88.4277 12.7441 88.4277 10.2539L88.4277-17.2852C88.4277-19.8242 89.5508-20.9473 92.041-20.9473L119.727-20.9473C122.168-20.9473 123.291-19.8242 123.291-17.2852L123.291 10.2539C123.291 12.7441 122.168 13.916 119.727 13.916Z"/>
  </g>
  <g id="Regular-L" transform="matrix(1 0 0 1 1376.38 1556)">
   <path d="M27.2949-40.5273L56.8848-40.5273C64.3066-40.5273 68.1152-44.1406 68.1152-51.9043L68.1152-81.1523C68.1152-88.916 64.3066-92.5293 56.8848-92.5293L27.2949-92.5293C19.873-92.5293 16.0645-88.916 16.0645-81.1523L16.0645-51.9043C16.0645-44.1406 19.873-40.5273 27.2949-40.5273ZM90.0391-40.5273L119.629-40.5273C127.051-40.5273 130.859-44.1406 130.859-51.9043L130.859-81.1523C130.859-88.916 127.051-92.5293 119.629-92.5293L90.0391-92.5293C82.5684-92.5293 78.8086-88.916 78.8086-81.1523L78.8086-51.9043C78.8086-44.1406 82.5684-40.5273 90.0391-40.5273ZM27.3926-48.1445C24.9023-48.1445 23.7305-49.3652 23.7305-52.002L23.7305-81.1035C23.7305-83.6914 24.9023-84.8633 27.3926-84.8633L56.7383-84.8633C59.2285-84.8633 60.4492-83.6914 60.4492-81.1035L60.4492-52.002C60.4492-49.3652 59.2285-48.1445 56.7383-48.1445ZM90.1855-48.1445C87.5977-48.1445 86.4746-49.3652 86.4746-52.002L86.4746-81.1035C86.4746-83.6914 87.5977-84.8633 90.1855-84.8633L119.531-84.8633C122.021-84.8633 123.193-83.6914 123.193-81.1035L123.193-52.002C123.193-49.3652 122.021-48.1445 119.531-48.1445ZM27.2949 22.2168L56.8848 22.2168C64.3066 22.2168 68.1152 18.6035 68.1152 10.8398L68.1152-18.4082C68.1152-26.1719 64.3066-29.834 56.8848-29.834L27.2949-29.834C19.873-29.834 16.0645-26.1719 16.0645-18.4082L16.0645 10.8398C16.0645 18.6035 19.873 22.2168 27.2949 22.2168ZM90.0391 22.2168L119.629 22.2168C127.051 22.2168 130.859 18.6035 130.859 10.8398L130.859-18.4082C130.859-26.1719 127.051-29.834 119.629-29.834L90.0391-29.834C82.5684-29.834 78.8086-26.1719 78.8086-18.4082L78.8086 10.8398C78.8086 18.6035 82.5684 22.2168 90.0391 22.2168ZM27.3926 14.5508C24.9023 14.5508 23.7305 13.3789 23.7305 10.791L23.7305-18.3594C23.7305-20.9473 24.9023-22.168 27.3926-22.168L56.7383-22.168C59.2285-22.168 60.4492-20.9473 60.4492-18.3594L60.4492 10.791C60.4492 13.3789 59.2285 14.5508 56.7383 14.5508ZM90.1855 14.5508C87.5977 14.5508 86.4746 13.3789 86.4746 10.791L86.4746-18.3594C86.4746-20.9473 87.5977-22.168 90.1855-22.168L119.531-22.168C122.021-22.168 123.193-20.9473 123.193-18.3594L123.193 10.791C123.193 13.3789 122.021 14.5508 119.531 14.5508Z"/>
  </g>
  <g id="Light-L" transform="matrix(1 0 0 1 1080.5 1556)">
   <path d="M26.1719-40.6738L57.0312-40.6738C63.6719-40.6738 67.0898-43.8477 67.0898-50.8789L67.0898-81.4941C67.0898-88.5254 63.6719-91.6992 57.0312-91.6992L26.1719-91.6992C19.5312-91.6992 16.0645-88.5254 16.0645-81.4941L16.0645-50.8789C16.0645-43.8477 19.5312-40.6738 26.1719-40.6738ZM88.2324-40.6738L119.092-40.6738C125.732-40.6738 129.199-43.8477 129.199-50.8789L129.199-81.4941C129.199-88.5254 125.732-91.6992 119.092-91.6992L88.2324-91.6992C81.5918-91.6992 78.125-88.5254 78.125-81.4941L78.125-50.8789C78.125-43.8477 81.5918-40.6738 88.2324-40.6738ZM26.2695-46.6309C23.3398-46.6309 22.0703-47.9492 22.0703-50.9766L22.0703-81.3965C22.0703-84.4238 23.3398-85.6934 26.2695-85.6934L56.8848-85.6934C59.8145-85.6934 61.1328-84.4238 61.1328-81.3965L61.1328-50.9766C61.1328-47.9492 59.8145-46.6309 56.8848-46.6309ZM88.3789-46.6309C85.4004-46.6309 84.1309-47.9492 84.1309-50.9766L84.1309-81.3965C84.1309-84.4238 85.4004-85.6934 88.3789-85.6934L118.945-85.6934C121.924-85.6934 123.193-84.4238 123.193-81.3965L123.193-50.9766C123.193-47.9492 121.924-46.6309 118.945-46.6309ZM26.1719 21.4355L57.0312 21.4355C63.6719 21.4355 67.0898 18.2129 67.0898 11.2305L67.0898-19.4336C67.0898-26.4648 63.6719-29.6387 57.0312-29.6387L26.1719-29.6387C19.5312-29.6387 16.0645-26.4648 16.0645-19.4336L16.0645 11.2305C16.0645 18.2129 19.5312 21.4355 26.1719 21.4355ZM88.2324 21.4355L119.092 21.4355C125.732 21.4355 129.199 18.2129 129.199 11.2305L129.199-19.4336C129.199-26.4648 125.732-29.6387 119.092-29.6387L88.2324-29.6387C81.5918-29.6387 78.125-26.4648 78.125-19.4336L78.125 11.2305C78.125 18.2129 81.5918 21.4355 88.2324 21.4355ZM26.2695 15.4297C23.3398 15.4297 22.0703 14.1113 22.0703 11.1328L22.0703-19.3359C22.0703-22.3145 23.3398-23.6328 26.2695-23.6328L56.8848-23.6328C59.8145-23.6328 61.1328-22.3145 61.1328-19.3359L61.1328 11.1328C61.1328 14.1113 59.8145 15.4297 56.8848 15.4297ZM88.3789 15.4297C85.4004 15.4297 84.1309 14.1113 84.1309 11.1328L84.1309-19.3359C84.1309-22.3145 85.4004-23.6328 88.3789-23.6328L118.945-23.6328C121.924-23.6328 123.193-22.3145 123.193-19.3359L123.193 11.1328C123.193 14.1113 121.924 15.4297 118.945 15.4297Z"/>
  </g>
  <g id="Thin-L" transform="matrix(1 0 0 1 784.889 1556)">
   <path d="M24.6582-40.8691L57.1777-40.8691C62.793-40.8691 65.7715-43.4082 65.7715-49.4629L65.7715-81.9336C65.7715-87.9883 62.793-90.5762 57.1777-90.5762L24.6582-90.5762C19.0918-90.5762 16.0645-87.9883 16.0645-81.9336L16.0645-49.4629C16.0645-43.4082 19.0918-40.8691 24.6582-40.8691ZM85.8398-40.8691L118.408-40.8691C123.975-40.8691 127.002-43.4082 127.002-49.4629L127.002-81.9336C127.002-87.9883 123.975-90.5762 118.408-90.5762L85.8398-90.5762C80.2734-90.5762 77.2461-87.9883 77.2461-81.9336L77.2461-49.4629C77.2461-43.4082 80.2734-40.8691 85.8398-40.8691ZM24.8047-44.6289C21.2891-44.6289 19.873-46.0449 19.873-49.6094L19.873-81.7871C19.873-85.3516 21.2891-86.7676 24.8047-86.7676L57.0312-86.7676C60.5957-86.7676 62.0117-85.3516 62.0117-81.7871L62.0117-49.6094C62.0117-46.0449 60.5957-44.6289 57.0312-44.6289ZM86.0352-44.6289C82.4707-44.6289 81.0547-46.0449 81.0547-49.6094L81.0547-81.7871C81.0547-85.3516 82.4707-86.7676 86.0352-86.7676L118.213-86.7676C121.777-86.7676 123.193-85.3516 123.193-81.7871L123.193-49.6094C123.193-46.0449 121.777-44.6289 118.213-44.6289ZM24.6582 20.3613L57.1777 20.3613C62.793 20.3613 65.7715 17.7734 65.7715 11.7188L65.7715-20.752C65.7715-26.8066 62.793-29.3945 57.1777-29.3945L24.6582-29.3945C19.0918-29.3945 16.0645-26.8066 16.0645-20.752L16.0645 11.7188C16.0645 17.7734 19.0918 20.3613 24.6582 20.3613ZM85.8398 20.3613L118.408 20.3613C123.975 20.3613 127.002 17.7734 127.002 11.7188L127.002-20.752C127.002-26.8066 123.975-29.3945 118.408-29.3945L85.8398-29.3945C80.2734-29.3945 77.2461-26.8066 77.2461-20.752L77.2461 11.7188C77.2461 17.7734 80.2734 20.3613 85.8398 20.3613ZM24.8047 16.5527C21.2891 16.5527 19.873 15.1367 19.873 11.5723L19.873-20.6055C19.873-24.1699 21.2891-25.5859 24.8047-25.5859L57.0312-25.5859C60.5957-25.5859 62.0117-24.1699 62.0117-20.6055L62.0117 11.5723C62.0117 15.1367 60.5957 16.5527 57.0312 16.5527ZM86.0352 16.5527C82.4707 16.5527 81.0547 15.1367 81.0547 11.5723L81.0547-20.6055C81.0547-24.1699 82.4707-25.5859 86.0352-25.5859L118.213-25.5859C121.777-25.5859 123.193-24.1699 123.193-20.6055L123.193 11.5723C123.193 15.1367 121.777 16.5527 118.213 16.5527Z"/>
  </g>
  <g id="Ultralight-L" transform="matrix(1 0 0 1 488.739 1556)">
   <path d="M23.877-40.9668L57.2754-40.9668C62.3535-40.9668 65.1367-43.2129 65.1367-48.7793L65.1367-82.1777C65.1367-87.7441 62.3535-89.9902 57.2754-89.9902L23.877-89.9902C18.8477-89.9902 16.0645-87.7441 16.0645-82.1777L16.0645-48.7793C16.0645-43.2129 18.8477-40.9668 23.877-40.9668ZM84.6191-40.9668L118.018-40.9668C123.047-40.9668 125.879-43.2129 125.879-48.7793L125.879-82.1777C125.879-87.7441 123.047-89.9902 118.018-89.9902L84.6191-89.9902C79.5898-89.9902 76.8066-87.7441 76.8066-82.1777L76.8066-48.7793C76.8066-43.2129 79.5898-40.9668 84.6191-40.9668ZM24.0723-43.6035C20.2148-43.6035 18.75-45.1172 18.75-48.9258L18.75-82.0312C18.75-85.8398 20.2148-87.3047 24.0723-87.3047L57.1289-87.3047C60.9863-87.3047 62.4512-85.8398 62.4512-82.0312L62.4512-48.9258C62.4512-45.1172 60.9863-43.6035 57.1289-43.6035ZM84.8145-43.6035C80.957-43.6035 79.4922-45.1172 79.4922-48.9258L79.4922-82.0312C79.4922-85.8398 80.957-87.3047 84.8145-87.3047L117.871-87.3047C121.68-87.3047 123.193-85.8398 123.193-82.0312L123.193-48.9258C123.193-45.1172 121.68-43.6035 117.871-43.6035ZM23.877 19.7754L57.2754 19.7754C62.3535 19.7754 65.1367 17.5293 65.1367 11.9629L65.1367-21.4355C65.1367-27.002 62.3535-29.248 57.2754-29.248L23.877-29.248C18.8477-29.248 16.0645-27.002 16.0645-21.4355L16.0645 11.9629C16.0645 17.5293 18.8477 19.7754 23.877 19.7754ZM84.6191 19.7754L118.018 19.7754C123.047 19.7754 125.879 17.5293 125.879 11.9629L125.879-21.4355C125.879-27.002 123.047-29.248 118.018-29.248L84.6191-29.248C79.5898-29.248 76.8066-27.002 76.8066-21.4355L76.8066 11.9629C76.8066 17.5293 79.5898 19.7754 84.6191 19.7754ZM24.0723 17.1387C20.2148 17.1387 18.75 15.625 18.75 11.8164L18.75-21.2891C18.75-25.0977 20.2148-26.5625 24.0723-26.5625L57.1289-26.5625C60.9863-26.5625 62.4512-25.0977 62.4512-21.2891L62.4512 11.8164C62.4512 15.625 60.9863 17.1387 57.1289 17.1387ZM84.8145 17.1387C80.957 17.1387 79.4922 15.625 79.4922 11.8164L79.4922-21.2891C79.4922-25.0977 80.957-26.5625 84.8145-26.5625L117.871-26.5625C121.68-26.5625 123.193-25.0977 123.193-21.2891L123.193 11.8164C123.193 15.625 121.68 17.1387 117.871 17.1387Z"/>
  </g>
  <g id="Black-M" transform="matrix(1 0 0 1 2872.19 1126)">
   <path d="M28.9551-37.8418L42.0898-37.8418C53.418-37.8418 58.5449-43.0176 58.5449-54.3457L58.5449-67.4805C58.5449-78.8086 53.418-83.9355 42.0898-83.9355L28.9551-83.9355C17.627-83.9355 12.4512-78.8086 12.4512-67.4805L12.4512-54.3457C12.4512-43.0176 17.627-37.8418 28.9551-37.8418ZM80.3223-37.8418L93.457-37.8418C104.785-37.8418 109.961-43.0176 109.961-54.3457L109.961-67.4805C109.961-78.8086 104.785-83.9355 93.457-83.9355L80.3223-83.9355C68.9941-83.9355 63.8672-78.8086 63.8672-67.4805L63.8672-54.3457C63.8672-43.0176 68.9941-37.8418 80.3223-37.8418ZM28.8086-51.709C27.0508-51.709 26.3184-52.4414 26.3184-54.1992L26.3184-67.5781C26.3184-69.3359 27.0508-70.1172 28.8086-70.1172L42.1875-70.1172C43.9453-70.1172 44.7266-69.3359 44.7266-67.5781L44.7266-54.1992C44.7266-52.4414 43.9453-51.709 42.1875-51.709ZM80.2246-51.709C78.4668-51.709 77.6855-52.4414 77.6855-54.1992L77.6855-67.5781C77.6855-69.3359 78.4668-70.1172 80.2246-70.1172L93.6035-70.1172C95.3613-70.1172 96.0938-69.3359 96.0938-67.5781L96.0938-54.1992C96.0938-52.4414 95.3613-51.709 93.6035-51.709ZM28.9551 13.5742L42.0898 13.5742C53.418 13.5742 58.5449 8.39844 58.5449-2.92969L58.5449-16.0645C58.5449-27.3926 53.418-32.5684 42.0898-32.5684L28.9551-32.5684C17.627-32.5684 12.4512-27.3926 12.4512-16.0645L12.4512-2.92969C12.4512 8.39844 17.627 13.5742 28.9551 13.5742ZM80.3223 13.5742L93.457 13.5742C104.785 13.5742 109.961 8.39844 109.961-2.92969L109.961-16.0645C109.961-27.3926 104.785-32.5684 93.457-32.5684L80.3223-32.5684C68.9941-32.5684 63.8672-27.3926 63.8672-16.0645L63.8672-2.92969C63.8672 8.39844 68.9941 13.5742 80.3223 13.5742ZM28.8086-0.292969C27.0508-0.292969 26.3184-1.02539 26.3184-2.7832L26.3184-16.2109C26.3184-17.9688 27.0508-18.7012 28.8086-18.7012L42.1875-18.7012C43.9453-18.7012 44.7266-17.9688 44.7266-16.2109L44.7266-2.7832C44.7266-1.02539 43.9453-0.292969 42.1875-0.292969ZM80.2246-0.292969C78.4668-0.292969 77.6855-1.02539 77.6855-2.7832L77.6855-16.2109C77.6855-17.9688 78.4668-18.7012 80.2246-18.7012L93.6035-18.7012C95.3613-18.7012 96.0938-17.9688 96.0938-16.2109L96.0938-2.7832C96.0938-1.02539 95.3613-0.292969 93.6035-0.292969Z"/>
  </g>
  <g id="Heavy-M" transform="matrix(1 0 0 1 2576.39 1126)">
   <path d="M27.2461-38.1836L42.5293-38.1836C52.6367-38.1836 57.3242-42.8223 57.3242-53.0273L57.3242-68.2129C57.3242-78.3691 52.6367-83.0566 42.5293-83.0566L27.2461-83.0566C17.1387-83.0566 12.4512-78.3691 12.4512-68.2129L12.4512-53.0273C12.4512-42.8223 17.1387-38.1836 27.2461-38.1836ZM78.0762-38.1836L93.3594-38.1836C103.467-38.1836 108.154-42.8223 108.154-53.0273L108.154-68.2129C108.154-78.3691 103.467-83.0566 93.3594-83.0566L78.0762-83.0566C67.9688-83.0566 63.2812-78.3691 63.2812-68.2129L63.2812-53.0273C63.2812-42.8223 67.9688-38.1836 78.0762-38.1836ZM27.1484-50.3906C25.4395-50.3906 24.6582-51.1719 24.6582-52.9297L24.6582-68.3105C24.6582-70.0684 25.4395-70.8496 27.1484-70.8496L42.627-70.8496C44.3359-70.8496 45.1172-70.0684 45.1172-68.3105L45.1172-52.9297C45.1172-51.1719 44.3359-50.3906 42.627-50.3906ZM78.0273-50.3906C76.2695-50.3906 75.4883-51.1719 75.4883-52.9297L75.4883-68.3105C75.4883-70.0684 76.2695-70.8496 78.0273-70.8496L93.457-70.8496C95.166-70.8496 95.9473-70.0684 95.9473-68.3105L95.9473-52.9297C95.9473-51.1719 95.166-50.3906 93.457-50.3906ZM27.2461 12.6465L42.5293 12.6465C52.6367 12.6465 57.3242 8.00781 57.3242-2.19727L57.3242-17.3828C57.3242-27.5391 52.6367-32.2266 42.5293-32.2266L27.2461-32.2266C17.1387-32.2266 12.4512-27.5391 12.4512-17.3828L12.4512-2.19727C12.4512 8.00781 17.1387 12.6465 27.2461 12.6465ZM78.0762 12.6465L93.3594 12.6465C103.467 12.6465 108.154 8.00781 108.154-2.19727L108.154-17.3828C108.154-27.5391 103.467-32.2266 93.3594-32.2266L78.0762-32.2266C67.9688-32.2266 63.2812-27.5391 63.2812-17.3828L63.2812-2.19727C63.2812 8.00781 67.9688 12.6465 78.0762 12.6465ZM27.1484 0.439453C25.4395 0.439453 24.6582-0.341797 24.6582-2.05078L24.6582-17.4805C24.6582-19.2383 25.4395-20.0195 27.1484-20.0195L42.627-20.0195C44.3359-20.0195 45.1172-19.2383 45.1172-17.4805L45.1172-2.05078C45.1172-0.341797 44.3359 0.439453 42.627 0.439453ZM78.0273 0.439453C76.2695 0.439453 75.4883-0.341797 75.4883-2.05078L75.4883-17.4805C75.4883-19.2383 76.2695-20.0195 78.0273-20.0195L93.457-20.0195C95.166-20.0195 95.9473-19.2383 95.9473-17.4805L95.9473-2.05078C95.9473-0.341797 95.166 0.439453 93.457 0.439453Z"/>
  </g>
  <g id="Bold-M" transform="matrix(1 0 0 1 2280.68 1126)">
   <path d="M25.3418-38.5254L43.0664-38.5254C51.8066-38.5254 55.957-42.6758 55.957-51.5625L55.957-69.043C55.957-77.9297 51.8066-82.0312 43.0664-82.0312L25.3418-82.0312C16.6016-82.0312 12.4512-77.9297 12.4512-69.043L12.4512-51.5625C12.4512-42.6758 16.6016-38.5254 25.3418-38.5254ZM75.5371-38.5254L93.2617-38.5254C102.002-38.5254 106.152-42.6758 106.152-51.5625L106.152-69.043C106.152-77.9297 102.002-82.0312 93.2617-82.0312L75.5371-82.0312C66.7969-82.0312 62.6465-77.9297 62.6465-69.043L62.6465-51.5625C62.6465-42.6758 66.7969-38.5254 75.5371-38.5254ZM25.3418-48.9258C23.584-48.9258 22.8027-49.707 22.8027-51.5137L22.8027-69.0918C22.8027-70.8496 23.584-71.6797 25.3418-71.6797L43.0664-71.6797C44.7754-71.6797 45.6055-70.8496 45.6055-69.0918L45.6055-51.5137C45.6055-49.707 44.7754-48.9258 43.0664-48.9258ZM75.5371-48.9258C73.8281-48.9258 72.998-49.707 72.998-51.5137L72.998-69.0918C72.998-70.8496 73.8281-71.6797 75.5371-71.6797L93.2617-71.6797C95.0195-71.6797 95.8008-70.8496 95.8008-69.0918L95.8008-51.5137C95.8008-49.707 95.0195-48.9258 93.2617-48.9258ZM25.3418 11.6699L43.0664 11.6699C51.8066 11.6699 55.957 7.51953 55.957-1.31836L55.957-18.8477C55.957-27.7344 51.8066-31.8359 43.0664-31.8359L25.3418-31.8359C16.6016-31.8359 12.4512-27.7344 12.4512-18.8477L12.4512-1.31836C12.4512 7.51953 16.6016 11.6699 25.3418 11.6699ZM75.5371 11.6699L93.2617 11.6699C102.002 11.6699 106.152 7.51953 106.152-1.31836L106.152-18.8477C106.152-27.7344 102.002-31.8359 93.2617-31.8359L75.5371-31.8359C66.7969-31.8359 62.6465-27.7344 62.6465-18.8477L62.6465-1.31836C62.6465 7.51953 66.7969 11.6699 75.5371 11.6699ZM25.3418 1.26953C23.584 1.26953 22.8027 0.488281 22.8027-1.26953L22.8027-18.8965C22.8027-20.6543 23.584-21.4844 25.3418-21.4844L43.0664-21.4844C44.7754-21.4844 45.6055-20.6543 45.6055-18.8965L45.6055-1.26953C45.6055 0.488281 44.7754 1.26953 43.0664 1.26953ZM75.5371 1.26953C73.8281 1.26953 72.998 0.488281 72.998-1.26953L72.998-18.8965C72.998-20.6543 73.8281-21.4844 75.5371-21.4844L93.2617-21.4844C95.0195-21.4844 95.8008-20.6543 95.8008-18.8965L95.8008-1.26953C95.8008 0.488281 95.0195 1.26953 93.2617 1.26953Z"/>
  </g>
  <g id="Semibold-M" transform="matrix(1 0 0 1 1984.65 1126)">
   <path d="M24.0723-38.7695L43.4082-38.7695C51.2207-38.7695 55.0293-42.5293 55.0293-50.5371L55.0293-69.6289C55.0293-77.5879 51.2207-81.3477 43.4082-81.3477L24.0723-81.3477C16.2109-81.3477 12.4512-77.5879 12.4512-69.6289L12.4512-50.5371C12.4512-42.5293 16.2109-38.7695 24.0723-38.7695ZM73.8281-38.7695L93.1641-38.7695C101.025-38.7695 104.785-42.5293 104.785-50.5371L104.785-69.6289C104.785-77.5879 101.025-81.3477 93.1641-81.3477L73.8281-81.3477C65.9668-81.3477 62.207-77.5879 62.207-69.6289L62.207-50.5371C62.207-42.5293 65.9668-38.7695 73.8281-38.7695ZM24.0723-47.9004C22.3633-47.9004 21.5332-48.7305 21.5332-50.4883L21.5332-69.6777C21.5332-71.4355 22.3633-72.2656 24.0723-72.2656L43.3594-72.2656C45.0684-72.2656 45.8984-71.4355 45.8984-69.6777L45.8984-50.4883C45.8984-48.7305 45.0684-47.9004 43.3594-47.9004ZM73.877-47.9004C72.1191-47.9004 71.2891-48.7305 71.2891-50.4883L71.2891-69.6777C71.2891-71.4355 72.1191-72.2656 73.877-72.2656L93.1641-72.2656C94.873-72.2656 95.6543-71.4355 95.6543-69.6777L95.6543-50.4883C95.6543-48.7305 94.873-47.9004 93.1641-47.9004ZM24.0723 10.9863L43.4082 10.9863C51.2207 10.9863 55.0293 7.22656 55.0293-0.78125L55.0293-19.8242C55.0293-27.832 51.2207-31.5918 43.4082-31.5918L24.0723-31.5918C16.2109-31.5918 12.4512-27.832 12.4512-19.8242L12.4512-0.78125C12.4512 7.22656 16.2109 10.9863 24.0723 10.9863ZM73.8281 10.9863L93.1641 10.9863C101.025 10.9863 104.785 7.22656 104.785-0.78125L104.785-19.8242C104.785-27.832 101.025-31.5918 93.1641-31.5918L73.8281-31.5918C65.9668-31.5918 62.207-27.832 62.207-19.8242L62.207-0.78125C62.207 7.22656 65.9668 10.9863 73.8281 10.9863ZM24.0723 1.85547C22.3633 1.85547 21.5332 1.02539 21.5332-0.732422L21.5332-19.873C21.5332-21.6309 22.3633-22.5098 24.0723-22.5098L43.3594-22.5098C45.0684-22.5098 45.8984-21.6309 45.8984-19.873L45.8984-0.732422C45.8984 1.02539 45.0684 1.85547 43.3594 1.85547ZM73.877 1.85547C72.1191 1.85547 71.2891 1.02539 71.2891-0.732422L71.2891-19.873C71.2891-21.6309 72.1191-22.5098 73.877-22.5098L93.1641-22.5098C94.873-22.5098 95.6543-21.6309 95.6543-19.873L95.6543-0.732422C95.6543 1.02539 94.873 1.85547 93.1641 1.85547Z"/>
  </g>
  <g id="Medium-M" transform="matrix(1 0 0 1 1688.47 1126)">
   <path d="M23.0957-38.9648L43.6523-38.9648C50.7812-38.9648 54.2969-42.4316 54.2969-49.7559L54.2969-70.0195C54.2969-77.3438 50.7812-80.8105 43.6523-80.8105L23.0957-80.8105C15.918-80.8105 12.4512-77.3438 12.4512-70.0195L12.4512-49.7559C12.4512-42.4316 15.918-38.9648 23.0957-38.9648ZM72.5098-38.9648L93.1152-38.9648C100.244-38.9648 103.711-42.4316 103.711-49.7559L103.711-70.0195C103.711-77.3438 100.244-80.8105 93.1152-80.8105L72.5098-80.8105C65.3809-80.8105 61.8652-77.3438 61.8652-70.0195L61.8652-49.7559C61.8652-42.4316 65.3809-38.9648 72.5098-38.9648ZM23.0957-47.1191C21.3867-47.1191 20.6055-47.998 20.6055-49.7559L20.6055-70.0684C20.6055-71.8262 21.3867-72.7051 23.0957-72.7051L43.6035-72.7051C45.3125-72.7051 46.1426-71.8262 46.1426-70.0684L46.1426-49.7559C46.1426-47.998 45.3125-47.1191 43.6035-47.1191ZM72.5586-47.1191C70.8496-47.1191 70.0195-47.998 70.0195-49.7559L70.0195-70.0684C70.0195-71.8262 70.8496-72.7051 72.5586-72.7051L93.0664-72.7051C94.7754-72.7051 95.6055-71.8262 95.6055-70.0684L95.6055-49.7559C95.6055-47.998 94.7754-47.1191 93.0664-47.1191ZM23.0957 10.4492L43.6523 10.4492C50.7812 10.4492 54.2969 6.98242 54.2969-0.341797L54.2969-20.6055C54.2969-27.9297 50.7812-31.3965 43.6523-31.3965L23.0957-31.3965C15.918-31.3965 12.4512-27.9297 12.4512-20.6055L12.4512-0.341797C12.4512 6.98242 15.918 10.4492 23.0957 10.4492ZM72.5098 10.4492L93.1152 10.4492C100.244 10.4492 103.711 6.98242 103.711-0.341797L103.711-20.6055C103.711-27.9297 100.244-31.3965 93.1152-31.3965L72.5098-31.3965C65.3809-31.3965 61.8652-27.9297 61.8652-20.6055L61.8652-0.341797C61.8652 6.98242 65.3809 10.4492 72.5098 10.4492ZM23.0957 2.29492C21.3867 2.29492 20.6055 1.46484 20.6055-0.292969L20.6055-20.6055C20.6055-22.4121 21.3867-23.2422 23.0957-23.2422L43.6035-23.2422C45.3125-23.2422 46.1426-22.4121 46.1426-20.6055L46.1426-0.292969C46.1426 1.46484 45.3125 2.29492 43.6035 2.29492ZM72.5586 2.29492C70.8496 2.29492 70.0195 1.46484 70.0195-0.292969L70.0195-20.6055C70.0195-22.4121 70.8496-23.2422 72.5586-23.2422L93.0664-23.2422C94.7754-23.2422 95.6055-22.4121 95.6055-20.6055L95.6055-0.292969C95.6055 1.46484 94.7754 2.29492 93.0664 2.29492Z"/>
  </g>
  <g id="Regular-M" transform="matrix(1 0 0 1 1392.45 1126)">
   <path d="M21.7773-39.209L44.043-39.209C50.2441-39.209 53.3691-42.334 53.3691-48.7793L53.3691-70.6055C53.3691-77.0508 50.2441-80.127 44.043-80.127L21.7773-80.127C15.5762-80.127 12.4512-77.0508 12.4512-70.6055L12.4512-48.7793C12.4512-42.334 15.5762-39.209 21.7773-39.209ZM70.8008-39.209L93.0176-39.209C99.2188-39.209 102.344-42.334 102.344-48.7793L102.344-70.6055C102.344-77.0508 99.2188-80.127 93.0176-80.127L70.8008-80.127C64.5508-80.127 61.4258-77.0508 61.4258-70.6055L61.4258-48.7793C61.4258-42.334 64.5508-39.209 70.8008-39.209ZM21.875-46.0938C20.166-46.0938 19.3359-46.9727 19.3359-48.7793L19.3359-70.6055C19.3359-72.3633 20.166-73.2422 21.875-73.2422L43.8965-73.2422C45.6055-73.2422 46.4844-72.3633 46.4844-70.6055L46.4844-48.7793C46.4844-46.9727 45.6055-46.0938 43.8965-46.0938ZM70.8984-46.0938C69.1406-46.0938 68.3105-46.9727 68.3105-48.7793L68.3105-70.6055C68.3105-72.3633 69.1406-73.2422 70.8984-73.2422L92.9199-73.2422C94.6289-73.2422 95.459-72.3633 95.459-70.6055L95.459-48.7793C95.459-46.9727 94.6289-46.0938 92.9199-46.0938ZM21.7773 9.76562L44.043 9.76562C50.2441 9.76562 53.3691 6.68945 53.3691 0.244141L53.3691-21.6309C53.3691-28.0273 50.2441-31.1523 44.043-31.1523L21.7773-31.1523C15.5762-31.1523 12.4512-28.0273 12.4512-21.6309L12.4512 0.244141C12.4512 6.68945 15.5762 9.76562 21.7773 9.76562ZM70.8008 9.76562L93.0176 9.76562C99.2188 9.76562 102.344 6.68945 102.344 0.244141L102.344-21.6309C102.344-28.0273 99.2188-31.1523 93.0176-31.1523L70.8008-31.1523C64.5508-31.1523 61.4258-28.0273 61.4258-21.6309L61.4258 0.244141C61.4258 6.68945 64.5508 9.76562 70.8008 9.76562ZM21.875 2.88086C20.166 2.88086 19.3359 2.00195 19.3359 0.244141L19.3359-21.582C19.3359-23.3887 20.166-24.2676 21.875-24.2676L43.8965-24.2676C45.6055-24.2676 46.4844-23.3887 46.4844-21.582L46.4844 0.244141C46.4844 2.00195 45.6055 2.88086 43.8965 2.88086ZM70.8984 2.88086C69.1406 2.88086 68.3105 2.00195 68.3105 0.244141L68.3105-21.582C68.3105-23.3887 69.1406-24.2676 70.8984-24.2676L92.9199-24.2676C94.6289-24.2676 95.459-23.3887 95.459-21.582L95.459 0.244141C95.459 2.00195 94.6289 2.88086 92.9199 2.88086Z"/>
  </g>
  <g id="Light-M" transform="matrix(1 0 0 1 1096.47 1126)">
   <path d="M20.752-39.3555L44.1406-39.3555C49.6582-39.3555 52.4414-42.041 52.4414-47.8027L52.4414-70.8984C52.4414-76.709 49.6582-79.3945 44.1406-79.3945L20.752-79.3945C15.2832-79.3945 12.4512-76.709 12.4512-70.8984L12.4512-47.8027C12.4512-42.041 15.2832-39.3555 20.752-39.3555ZM69.1895-39.3555L92.5293-39.3555C98.0469-39.3555 100.879-42.041 100.879-47.8027L100.879-70.8984C100.879-76.709 98.0469-79.3945 92.5293-79.3945L69.1895-79.3945C63.6719-79.3945 60.8398-76.709 60.8398-70.8984L60.8398-47.8027C60.8398-42.041 63.6719-39.3555 69.1895-39.3555ZM20.8496-44.7754C18.75-44.7754 17.8223-45.7031 17.8223-47.9004L17.8223-70.8984C17.8223-72.998 18.75-73.9746 20.8496-73.9746L43.9941-73.9746C46.0938-73.9746 47.0703-72.998 47.0703-70.8984L47.0703-47.9004C47.0703-45.7031 46.0938-44.7754 43.9941-44.7754ZM69.2871-44.7754C67.1875-44.7754 66.2598-45.7031 66.2598-47.9004L66.2598-70.8984C66.2598-72.998 67.1875-73.9746 69.2871-73.9746L92.4316-73.9746C94.5312-73.9746 95.459-72.998 95.459-70.8984L95.459-47.9004C95.459-45.7031 94.5312-44.7754 92.4316-44.7754ZM20.752 9.0332L44.1406 9.0332C49.6582 9.0332 52.4414 6.34766 52.4414 0.585938L52.4414-22.5098C52.4414-28.2715 49.6582-30.957 44.1406-30.957L20.752-30.957C15.2832-30.957 12.4512-28.2715 12.4512-22.5098L12.4512 0.585938C12.4512 6.34766 15.2832 9.0332 20.752 9.0332ZM69.1895 9.0332L92.5293 9.0332C98.0469 9.0332 100.879 6.34766 100.879 0.585938L100.879-22.5098C100.879-28.2715 98.0469-30.957 92.5293-30.957L69.1895-30.957C63.6719-30.957 60.8398-28.2715 60.8398-22.5098L60.8398 0.585938C60.8398 6.34766 63.6719 9.0332 69.1895 9.0332ZM20.8496 3.66211C18.75 3.66211 17.8223 2.68555 17.8223 0.537109L17.8223-22.4609C17.8223-24.6094 18.75-25.5859 20.8496-25.5859L43.9941-25.5859C46.0938-25.5859 47.0703-24.6094 47.0703-22.4609L47.0703 0.537109C47.0703 2.68555 46.0938 3.66211 43.9941 3.66211ZM69.2871 3.66211C67.1875 3.66211 66.2598 2.68555 66.2598 0.537109L66.2598-22.4609C66.2598-24.6094 67.1875-25.5859 69.2871-25.5859L92.4316-25.5859C94.5312-25.5859 95.459-24.6094 95.459-22.4609L95.459 0.537109C95.459 2.68555 94.5312 3.66211 92.4316 3.66211Z"/>
  </g>
  <g id="Thin-M" transform="matrix(1 0 0 1 800.758 1126)">
   <path d="M19.4336-39.5508L44.2871-39.5508C48.8281-39.5508 51.2695-41.6504 51.2695-46.582L51.2695-71.3379C51.2695-76.2207 48.8281-78.3691 44.2871-78.3691L19.4336-78.3691C14.8926-78.3691 12.4512-76.2207 12.4512-71.3379L12.4512-46.582C12.4512-41.6504 14.8926-39.5508 19.4336-39.5508ZM67.041-39.5508L91.8945-39.5508C96.4355-39.5508 98.877-41.6504 98.877-46.582L98.877-71.3379C98.877-76.2207 96.4355-78.3691 91.8945-78.3691L67.041-78.3691C62.5-78.3691 60.0586-76.2207 60.0586-71.3379L60.0586-46.582C60.0586-41.6504 62.5-39.5508 67.041-39.5508ZM19.5312-42.9688C16.9434-42.9688 15.8691-44.043 15.8691-46.6797L15.8691-71.2402C15.8691-73.877 16.9434-74.9512 19.5312-74.9512L44.1406-74.9512C46.7773-74.9512 47.8516-73.877 47.8516-71.2402L47.8516-46.6797C47.8516-44.043 46.7773-42.9688 44.1406-42.9688ZM67.1875-42.9688C64.5508-42.9688 63.4766-44.043 63.4766-46.6797L63.4766-71.2402C63.4766-73.877 64.5508-74.9512 67.1875-74.9512L91.7969-74.9512C94.3848-74.9512 95.459-73.877 95.459-71.2402L95.459-46.6797C95.459-44.043 94.3848-42.9688 91.7969-42.9688ZM19.4336 8.05664L44.2871 8.05664C48.8281 8.05664 51.2695 5.95703 51.2695 1.02539L51.2695-23.7305C51.2695-28.6133 48.8281-30.7617 44.2871-30.7617L19.4336-30.7617C14.8926-30.7617 12.4512-28.6133 12.4512-23.7305L12.4512 1.02539C12.4512 5.95703 14.8926 8.05664 19.4336 8.05664ZM67.041 8.05664L91.8945 8.05664C96.4355 8.05664 98.877 5.95703 98.877 1.02539L98.877-23.7305C98.877-28.6133 96.4355-30.7617 91.8945-30.7617L67.041-30.7617C62.5-30.7617 60.0586-28.6133 60.0586-23.7305L60.0586 1.02539C60.0586 5.95703 62.5 8.05664 67.041 8.05664ZM19.5312 4.63867C16.9434 4.63867 15.8691 3.56445 15.8691 0.927734L15.8691-23.6328C15.8691-26.2695 16.9434-27.3438 19.5312-27.3438L44.1406-27.3438C46.7773-27.3438 47.8516-26.2695 47.8516-23.6328L47.8516 0.927734C47.8516 3.56445 46.7773 4.63867 44.1406 4.63867ZM67.1875 4.63867C64.5508 4.63867 63.4766 3.56445 63.4766 0.927734L63.4766-23.6328C63.4766-26.2695 64.5508-27.3438 67.1875-27.3438L91.7969-27.3438C94.3848-27.3438 95.459-26.2695 95.459-23.6328L95.459 0.927734C95.459 3.56445 94.3848 4.63867 91.7969 4.63867Z"/>
  </g>
  <g id="Ultralight-M" transform="matrix(1 0 0 1 504.535 1126)">
   <path d="M18.75-39.6484L44.3848-39.6484C48.4375-39.6484 50.6836-41.4551 50.6836-45.9473L50.6836-71.5332C50.6836-76.0254 48.4375-77.832 44.3848-77.832L18.75-77.832C14.6973-77.832 12.4512-76.0254 12.4512-71.5332L12.4512-45.9473C12.4512-41.4551 14.6973-39.6484 18.75-39.6484ZM65.9668-39.6484L91.5527-39.6484C95.6543-39.6484 97.9004-41.4551 97.9004-45.9473L97.9004-71.5332C97.9004-76.0254 95.6543-77.832 91.5527-77.832L65.9668-77.832C61.8652-77.832 59.668-76.0254 59.668-71.5332L59.668-45.9473C59.668-41.4551 61.8652-39.6484 65.9668-39.6484ZM18.8965-42.041C15.9668-42.041 14.8438-43.1641 14.8438-46.0449L14.8438-71.4355C14.8438-74.3164 15.9668-75.4395 18.8965-75.4395L44.2383-75.4395C47.1191-75.4395 48.2422-74.3164 48.2422-71.4355L48.2422-46.0449C48.2422-43.1641 47.1191-42.041 44.2383-42.041ZM66.0645-42.041C63.1836-42.041 62.0605-43.1641 62.0605-46.0449L62.0605-71.4355C62.0605-74.3164 63.1836-75.4395 66.0645-75.4395L91.4551-75.4395C94.3359-75.4395 95.459-74.3164 95.459-71.4355L95.459-46.0449C95.459-43.1641 94.3359-42.041 91.4551-42.041ZM18.75 7.56836L44.3848 7.56836C48.4375 7.56836 50.6836 5.71289 50.6836 1.26953L50.6836-24.3652C50.6836-28.8086 48.4375-30.6152 44.3848-30.6152L18.75-30.6152C14.6973-30.6152 12.4512-28.8086 12.4512-24.3652L12.4512 1.26953C12.4512 5.71289 14.6973 7.56836 18.75 7.56836ZM65.9668 7.56836L91.5527 7.56836C95.6543 7.56836 97.9004 5.71289 97.9004 1.26953L97.9004-24.3652C97.9004-28.8086 95.6543-30.6152 91.5527-30.6152L65.9668-30.6152C61.8652-30.6152 59.668-28.8086 59.668-24.3652L59.668 1.26953C59.668 5.71289 61.8652 7.56836 65.9668 7.56836ZM18.8965 5.17578C15.9668 5.17578 14.8438 4.05273 14.8438 1.17188L14.8438-24.2188C14.8438-27.0996 15.9668-28.2227 18.8965-28.2227L44.2383-28.2227C47.1191-28.2227 48.2422-27.0996 48.2422-24.2188L48.2422 1.17188C48.2422 4.05273 47.1191 5.17578 44.2383 5.17578ZM66.0645 5.17578C63.1836 5.17578 62.0605 4.05273 62.0605 1.17188L62.0605-24.2188C62.0605-27.0996 63.1836-28.2227 66.0645-28.2227L91.4551-28.2227C94.3359-28.2227 95.459-27.0996 95.459-24.2188L95.459 1.17188C95.459 4.05273 94.3359 5.17578 91.4551 5.17578Z"/>
  </g>
  <g id="Black-S" transform="matrix(1 0 0 1 2885.5 696)">
   <path d="M22.5586-37.3047L33.0078-37.3047C41.7969-37.3047 45.8008-41.3086 45.8008-50.0977L45.8008-60.5469C45.8008-69.3359 41.7969-73.3398 33.0078-73.3398L22.5586-73.3398C13.7695-73.3398 9.76562-69.3359 9.76562-60.5469L9.76562-50.0977C9.76562-41.3086 13.7695-37.3047 22.5586-37.3047ZM62.793-37.3047L73.2422-37.3047C82.0312-37.3047 86.0352-41.3086 86.0352-50.0977L86.0352-60.5469C86.0352-69.3359 82.0312-73.3398 73.2422-73.3398L62.793-73.3398C54.0039-73.3398 50-69.3359 50-60.5469L50-50.0977C50-41.3086 54.0039-37.3047 62.793-37.3047ZM22.4609-48.0469C21.0938-48.0469 20.5078-48.6328 20.5078-50L20.5078-60.6445C20.5078-62.0117 21.0938-62.5977 22.4609-62.5977L33.1055-62.5977C34.4727-62.5977 35.0586-62.0117 35.0586-60.6445L35.0586-50C35.0586-48.6328 34.4727-48.0469 33.1055-48.0469ZM62.6953-48.0469C61.3281-48.0469 60.7422-48.6328 60.7422-50L60.7422-60.6445C60.7422-62.0117 61.3281-62.5977 62.6953-62.5977L73.3398-62.5977C74.707-62.5977 75.293-62.0117 75.293-60.6445L75.293-50C75.293-48.6328 74.707-48.0469 73.3398-48.0469ZM22.5586 2.92969L33.0078 2.92969C41.7969 2.92969 45.8008-1.07422 45.8008-9.86328L45.8008-20.3125C45.8008-29.1016 41.7969-33.1055 33.0078-33.1055L22.5586-33.1055C13.7695-33.1055 9.76562-29.1016 9.76562-20.3125L9.76562-9.86328C9.76562-1.07422 13.7695 2.92969 22.5586 2.92969ZM62.793 2.92969L73.2422 2.92969C82.0312 2.92969 86.0352-1.07422 86.0352-9.86328L86.0352-20.3125C86.0352-29.1016 82.0312-33.1055 73.2422-33.1055L62.793-33.1055C54.0039-33.1055 50-29.1016 50-20.3125L50-9.86328C50-1.07422 54.0039 2.92969 62.793 2.92969ZM22.4609-7.8125C21.0938-7.8125 20.5078-8.39844 20.5078-9.76562L20.5078-20.4102C20.5078-21.7773 21.0938-22.3633 22.4609-22.3633L33.1055-22.3633C34.4727-22.3633 35.0586-21.7773 35.0586-20.4102L35.0586-9.76562C35.0586-8.39844 34.4727-7.8125 33.1055-7.8125ZM62.6953-7.8125C61.3281-7.8125 60.7422-8.39844 60.7422-9.76562L60.7422-20.4102C60.7422-21.7773 61.3281-22.3633 62.6953-22.3633L73.3398-22.3633C74.707-22.3633 75.293-21.7773 75.293-20.4102L75.293-9.76562C75.293-8.39844 74.707-7.8125 73.3398-7.8125Z"/>
  </g>
  <g id="Heavy-S" transform="matrix(1 0 0 1 2589.4 696)">
   <path d="M21.3867-37.5488L33.3496-37.5488C41.3086-37.5488 44.9707-41.2109 44.9707-49.2188L44.9707-61.084C44.9707-69.043 41.3086-72.7539 33.3496-72.7539L21.3867-72.7539C13.4277-72.7539 9.76562-69.043 9.76562-61.084L9.76562-49.2188C9.76562-41.2109 13.4277-37.5488 21.3867-37.5488ZM61.2305-37.5488L73.1934-37.5488C81.1523-37.5488 84.8145-41.2109 84.8145-49.2188L84.8145-61.084C84.8145-69.043 81.1523-72.7539 73.1934-72.7539L61.2305-72.7539C53.3203-72.7539 49.6094-69.043 49.6094-61.084L49.6094-49.2188C49.6094-41.2109 53.3203-37.5488 61.2305-37.5488ZM21.3379-47.168C20.0195-47.168 19.4336-47.8027 19.4336-49.1211L19.4336-61.1816C19.4336-62.5 20.0195-63.0859 21.3379-63.0859L33.3984-63.0859C34.7168-63.0859 35.3027-62.5 35.3027-61.1816L35.3027-49.1211C35.3027-47.8027 34.7168-47.168 33.3984-47.168ZM61.1816-47.168C59.8633-47.168 59.2773-47.8027 59.2773-49.1211L59.2773-61.1816C59.2773-62.5 59.8633-63.0859 61.1816-63.0859L73.291-63.0859C74.6094-63.0859 75.1953-62.5 75.1953-61.1816L75.1953-49.1211C75.1953-47.8027 74.6094-47.168 73.291-47.168ZM21.3867 2.34375L33.3496 2.34375C41.3086 2.34375 44.9707-1.36719 44.9707-9.32617L44.9707-21.1914C44.9707-29.1992 41.3086-32.8613 33.3496-32.8613L21.3867-32.8613C13.4277-32.8613 9.76562-29.1992 9.76562-21.1914L9.76562-9.32617C9.76562-1.36719 13.4277 2.34375 21.3867 2.34375ZM61.2305 2.34375L73.1934 2.34375C81.1523 2.34375 84.8145-1.36719 84.8145-9.32617L84.8145-21.1914C84.8145-29.1992 81.1523-32.8613 73.1934-32.8613L61.2305-32.8613C53.3203-32.8613 49.6094-29.1992 49.6094-21.1914L49.6094-9.32617C49.6094-1.36719 53.3203 2.34375 61.2305 2.34375ZM21.3379-7.32422C20.0195-7.32422 19.4336-7.91016 19.4336-9.22852L19.4336-21.2891C19.4336-22.6074 20.0195-23.2422 21.3379-23.2422L33.3984-23.2422C34.7168-23.2422 35.3027-22.6074 35.3027-21.2891L35.3027-9.22852C35.3027-7.91016 34.7168-7.32422 33.3984-7.32422ZM61.1816-7.32422C59.8633-7.32422 59.2773-7.91016 59.2773-9.22852L59.2773-21.2891C59.2773-22.6074 59.8633-23.2422 61.1816-23.2422L73.291-23.2422C74.6094-23.2422 75.1953-22.6074 75.1953-21.2891L75.1953-9.22852C75.1953-7.91016 74.6094-7.32422 73.291-7.32422Z"/>
  </g>
  <g id="Bold-S" transform="matrix(1 0 0 1 2293.35 696)">
   <path d="M20.0684-37.793L33.7402-37.793C40.7227-37.793 44.043-41.1133 44.043-48.1934L44.043-61.6699C44.043-68.75 40.7227-72.0703 33.7402-72.0703L20.0684-72.0703C13.0859-72.0703 9.76562-68.75 9.76562-61.6699L9.76562-48.1934C9.76562-41.1133 13.0859-37.793 20.0684-37.793ZM59.5215-37.793L73.1934-37.793C80.1758-37.793 83.4961-41.1133 83.4961-48.1934L83.4961-61.6699C83.4961-68.75 80.1758-72.0703 73.1934-72.0703L59.5215-72.0703C52.5391-72.0703 49.2188-68.75 49.2188-61.6699L49.2188-48.1934C49.2188-41.1133 52.5391-37.793 59.5215-37.793ZM20.0195-46.2402C18.7988-46.2402 18.2129-46.8262 18.2129-48.1445L18.2129-61.7188C18.2129-63.0371 18.7988-63.623 20.0195-63.623L33.7402-63.623C34.9609-63.623 35.5957-63.0371 35.5957-61.7188L35.5957-48.1445C35.5957-46.8262 34.9609-46.2402 33.7402-46.2402ZM59.5215-46.2402C58.252-46.2402 57.666-46.8262 57.666-48.1445L57.666-61.7188C57.666-63.0371 58.252-63.623 59.5215-63.623L73.1934-63.623C74.4629-63.623 75.0488-63.0371 75.0488-61.7188L75.0488-48.1445C75.0488-46.8262 74.4629-46.2402 73.1934-46.2402ZM20.0684 1.66016L33.7402 1.66016C40.7227 1.66016 44.043-1.66016 44.043-8.74023L44.043-22.2168C44.043-29.2969 40.7227-32.6172 33.7402-32.6172L20.0684-32.6172C13.0859-32.6172 9.76562-29.2969 9.76562-22.2168L9.76562-8.74023C9.76562-1.66016 13.0859 1.66016 20.0684 1.66016ZM59.5215 1.66016L73.1934 1.66016C80.1758 1.66016 83.4961-1.66016 83.4961-8.74023L83.4961-22.2168C83.4961-29.2969 80.1758-32.6172 73.1934-32.6172L59.5215-32.6172C52.5391-32.6172 49.2188-29.2969 49.2188-22.2168L49.2188-8.74023C49.2188-1.66016 52.5391 1.66016 59.5215 1.66016ZM20.0195-6.78711C18.7988-6.78711 18.2129-7.37305 18.2129-8.69141L18.2129-22.2656C18.2129-23.5352 18.7988-24.1699 20.0195-24.1699L33.7402-24.1699C34.9609-24.1699 35.5957-23.5352 35.5957-22.2656L35.5957-8.69141C35.5957-7.37305 34.9609-6.78711 33.7402-6.78711ZM59.5215-6.78711C58.252-6.78711 57.666-7.37305 57.666-8.69141L57.666-22.2656C57.666-23.5352 58.252-24.1699 59.5215-24.1699L73.1934-24.1699C74.4629-24.1699 75.0488-23.5352 75.0488-22.2656L75.0488-8.69141C75.0488-7.37305 74.4629-6.78711 73.1934-6.78711Z"/>
  </g>
  <g id="Semibold-S" transform="matrix(1 0 0 1 1997.1 696)">
   <path d="M19.1406-37.9883L33.9844-37.9883C40.332-37.9883 43.3594-41.0645 43.3594-47.5098L43.3594-62.0605C43.3594-68.5547 40.332-71.582 33.9844-71.582L19.1406-71.582C12.793-71.582 9.76562-68.5547 9.76562-62.0605L9.76562-47.5098C9.76562-41.0645 12.793-37.9883 19.1406-37.9883ZM58.3496-37.9883L73.1445-37.9883C79.4922-37.9883 82.5684-41.0645 82.5684-47.5098L82.5684-62.0605C82.5684-68.5547 79.4922-71.582 73.1445-71.582L58.3496-71.582C52.002-71.582 48.9258-68.5547 48.9258-62.0605L48.9258-47.5098C48.9258-41.0645 52.002-37.9883 58.3496-37.9883ZM19.1406-45.5566C17.9688-45.5566 17.334-46.1914 17.334-47.4609L17.334-62.1582C17.334-63.3789 17.9688-64.0137 19.1406-64.0137L33.9355-64.0137C35.1562-64.0137 35.791-63.3789 35.791-62.1582L35.791-47.4609C35.791-46.1914 35.1562-45.5566 33.9355-45.5566ZM58.3496-45.5566C57.1289-45.5566 56.543-46.1914 56.543-47.4609L56.543-62.1582C56.543-63.3789 57.1289-64.0137 58.3496-64.0137L73.1445-64.0137C74.3652-64.0137 74.9512-63.3789 74.9512-62.1582L74.9512-47.4609C74.9512-46.1914 74.3652-45.5566 73.1445-45.5566ZM19.1406 1.17188L33.9844 1.17188C40.332 1.17188 43.3594-1.85547 43.3594-8.34961L43.3594-22.9004C43.3594-29.3457 40.332-32.4219 33.9844-32.4219L19.1406-32.4219C12.793-32.4219 9.76562-29.3457 9.76562-22.9004L9.76562-8.34961C9.76562-1.85547 12.793 1.17188 19.1406 1.17188ZM58.3496 1.17188L73.1445 1.17188C79.4922 1.17188 82.5684-1.85547 82.5684-8.34961L82.5684-22.9004C82.5684-29.3457 79.4922-32.4219 73.1445-32.4219L58.3496-32.4219C52.002-32.4219 48.9258-29.3457 48.9258-22.9004L48.9258-8.34961C48.9258-1.85547 52.002 1.17188 58.3496 1.17188ZM19.1406-6.39648C17.9688-6.39648 17.334-7.03125 17.334-8.25195L17.334-22.9492C17.334-24.2188 17.9688-24.8535 19.1406-24.8535L33.9355-24.8535C35.1562-24.8535 35.791-24.2188 35.791-22.9492L35.791-8.25195C35.791-7.03125 35.1562-6.39648 33.9355-6.39648ZM58.3496-6.39648C57.1289-6.39648 56.543-7.03125 56.543-8.25195L56.543-22.9492C56.543-24.2188 57.1289-24.8535 58.3496-24.8535L73.1445-24.8535C74.3652-24.8535 74.9512-24.2188 74.9512-22.9492L74.9512-8.25195C74.9512-7.03125 74.3652-6.39648 73.1445-6.39648Z"/>
  </g>
  <g id="Medium-S" transform="matrix(1 0 0 1 1700.75 696)">
   <path d="M18.457-38.1348L34.1797-38.1348C40.0391-38.1348 42.8711-41.0156 42.8711-46.9727L42.8711-62.4023C42.8711-68.3594 40.0391-71.2402 34.1797-71.2402L18.457-71.2402C12.5977-71.2402 9.76562-68.3594 9.76562-62.4023L9.76562-46.9727C9.76562-41.0156 12.5977-38.1348 18.457-38.1348ZM57.4219-38.1348L73.1445-38.1348C79.0039-38.1348 81.8359-41.0156 81.8359-46.9727L81.8359-62.4023C81.8359-68.3594 79.0039-71.2402 73.1445-71.2402L57.4219-71.2402C51.5625-71.2402 48.7305-68.3594 48.7305-62.4023L48.7305-46.9727C48.7305-41.0156 51.5625-38.1348 57.4219-38.1348ZM18.5059-45.0684C17.334-45.0684 16.6992-45.7031 16.6992-46.9727L16.6992-62.4512C16.6992-63.6719 17.334-64.3066 18.5059-64.3066L34.1309-64.3066C35.3027-64.3066 35.9375-63.6719 35.9375-62.4512L35.9375-46.9727C35.9375-45.7031 35.3027-45.0684 34.1309-45.0684ZM57.4707-45.0684C56.25-45.0684 55.6641-45.7031 55.6641-46.9727L55.6641-62.4512C55.6641-63.6719 56.25-64.3066 57.4707-64.3066L73.0957-64.3066C74.3164-64.3066 74.9023-63.6719 74.9023-62.4512L74.9023-46.9727C74.9023-45.7031 74.3164-45.0684 73.0957-45.0684ZM18.457 0.830078L34.1797 0.830078C40.0391 0.830078 42.8711-2.05078 42.8711-8.00781L42.8711-23.4375C42.8711-29.3945 40.0391-32.2754 34.1797-32.2754L18.457-32.2754C12.5977-32.2754 9.76562-29.3945 9.76562-23.4375L9.76562-8.00781C9.76562-2.05078 12.5977 0.830078 18.457 0.830078ZM57.4219 0.830078L73.1445 0.830078C79.0039 0.830078 81.8359-2.05078 81.8359-8.00781L81.8359-23.4375C81.8359-29.3945 79.0039-32.2754 73.1445-32.2754L57.4219-32.2754C51.5625-32.2754 48.7305-29.3945 48.7305-23.4375L48.7305-8.00781C48.7305-2.05078 51.5625 0.830078 57.4219 0.830078ZM18.5059-6.10352C17.334-6.10352 16.6992-6.73828 16.6992-7.95898L16.6992-23.4375C16.6992-24.707 17.334-25.3418 18.5059-25.3418L34.1309-25.3418C35.3027-25.3418 35.9375-24.707 35.9375-23.4375L35.9375-7.95898C35.9375-6.73828 35.3027-6.10352 34.1309-6.10352ZM57.4707-6.10352C56.25-6.10352 55.6641-6.73828 55.6641-7.95898L55.6641-23.4375C55.6641-24.707 56.25-25.3418 57.4707-25.3418L73.0957-25.3418C74.3164-25.3418 74.9023-24.707 74.9023-23.4375L74.9023-7.95898C74.9023-6.73828 74.3164-6.10352 73.0957-6.10352Z"/>
  </g>
  <g id="Regular-S" transform="matrix(1 0 0 1 1404.51 696)">
   <path d="M17.5781-38.2812L34.4238-38.2812C39.6484-38.2812 42.2363-40.918 42.2363-46.2891L42.2363-62.793C42.2363-68.1641 39.6484-70.8008 34.4238-70.8008L17.5781-70.8008C12.3535-70.8008 9.76562-68.1641 9.76562-62.793L9.76562-46.2891C9.76562-40.918 12.3535-38.2812 17.5781-38.2812ZM56.25-38.2812L73.0957-38.2812C78.3203-38.2812 80.9082-40.918 80.9082-46.2891L80.9082-62.793C80.9082-68.1641 78.3203-70.8008 73.0957-70.8008L56.25-70.8008C51.0254-70.8008 48.4375-68.1641 48.4375-62.793L48.4375-46.2891C48.4375-40.918 51.0254-38.2812 56.25-38.2812ZM17.627-44.4336C16.5039-44.4336 15.8691-45.0684 15.8691-46.2891L15.8691-62.8418C15.8691-64.0137 16.5039-64.6484 17.627-64.6484L34.3262-64.6484C35.498-64.6484 36.1328-64.0137 36.1328-62.8418L36.1328-46.2891C36.1328-45.0684 35.498-44.4336 34.3262-44.4336ZM56.3477-44.4336C55.1758-44.4336 54.541-45.0684 54.541-46.2891L54.541-62.8418C54.541-64.0137 55.1758-64.6484 56.3477-64.6484L73.0469-64.6484C74.2188-64.6484 74.8047-64.0137 74.8047-62.8418L74.8047-46.2891C74.8047-45.0684 74.2188-44.4336 73.0469-44.4336ZM17.5781 0.390625L34.4238 0.390625C39.6484 0.390625 42.2363-2.24609 42.2363-7.61719L42.2363-24.1211C42.2363-29.4922 39.6484-32.0801 34.4238-32.0801L17.5781-32.0801C12.3535-32.0801 9.76562-29.4922 9.76562-24.1211L9.76562-7.61719C9.76562-2.24609 12.3535 0.390625 17.5781 0.390625ZM56.25 0.390625L73.0957 0.390625C78.3203 0.390625 80.9082-2.24609 80.9082-7.61719L80.9082-24.1211C80.9082-29.4922 78.3203-32.0801 73.0957-32.0801L56.25-32.0801C51.0254-32.0801 48.4375-29.4922 48.4375-24.1211L48.4375-7.61719C48.4375-2.24609 51.0254 0.390625 56.25 0.390625ZM17.627-5.76172C16.5039-5.76172 15.8691-6.39648 15.8691-7.56836L15.8691-24.1211C15.8691-25.3418 16.5039-25.9766 17.627-25.9766L34.3262-25.9766C35.498-25.9766 36.1328-25.3418 36.1328-24.1211L36.1328-7.56836C36.1328-6.39648 35.498-5.76172 34.3262-5.76172ZM56.3477-5.76172C55.1758-5.76172 54.541-6.39648 54.541-7.56836L54.541-24.1211C54.541-25.3418 55.1758-25.9766 56.3477-25.9766L73.0469-25.9766C74.2188-25.9766 74.8047-25.3418 74.8047-24.1211L74.8047-7.56836C74.8047-6.39648 74.2188-5.76172 73.0469-5.76172Z"/>
  </g>
  <g id="Light-S" transform="matrix(1 0 0 1 1108.46 696)">
   <path d="M16.6504-38.4277L34.5215-38.4277C39.1113-38.4277 41.4551-40.6738 41.4551-45.459L41.4551-63.0859C41.4551-67.8711 39.1113-70.1172 34.5215-70.1172L16.6504-70.1172C12.1094-70.1172 9.76562-67.8711 9.76562-63.0859L9.76562-45.459C9.76562-40.6738 12.1094-38.4277 16.6504-38.4277ZM54.834-38.4277L72.7051-38.4277C77.2949-38.4277 79.5898-40.6738 79.5898-45.459L79.5898-63.0859C79.5898-67.8711 77.2949-70.1172 72.7051-70.1172L54.834-70.1172C50.2441-70.1172 47.9004-67.8711 47.9004-63.0859L47.9004-45.459C47.9004-40.6738 50.2441-38.4277 54.834-38.4277ZM16.748-43.2129C15.2344-43.2129 14.5508-43.9453 14.5508-45.5078L14.5508-63.0859C14.5508-64.5996 15.2344-65.332 16.748-65.332L34.4238-65.332C35.9375-65.332 36.6699-64.5996 36.6699-63.0859L36.6699-45.5078C36.6699-43.9453 35.9375-43.2129 34.4238-43.2129ZM54.9316-43.2129C53.418-43.2129 52.7344-43.9453 52.7344-45.5078L52.7344-63.0859C52.7344-64.5996 53.418-65.332 54.9316-65.332L72.6074-65.332C74.1211-65.332 74.8047-64.5996 74.8047-63.0859L74.8047-45.5078C74.8047-43.9453 74.1211-43.2129 72.6074-43.2129ZM16.6504-0.292969L34.5215-0.292969C39.1113-0.292969 41.4551-2.53906 41.4551-7.32422L41.4551-24.9023C41.4551-29.6875 39.1113-31.9336 34.5215-31.9336L16.6504-31.9336C12.1094-31.9336 9.76562-29.6875 9.76562-24.9023L9.76562-7.32422C9.76562-2.53906 12.1094-0.292969 16.6504-0.292969ZM54.834-0.292969L72.7051-0.292969C77.2949-0.292969 79.5898-2.53906 79.5898-7.32422L79.5898-24.9023C79.5898-29.6875 77.2949-31.9336 72.7051-31.9336L54.834-31.9336C50.2441-31.9336 47.9004-29.6875 47.9004-24.9023L47.9004-7.32422C47.9004-2.53906 50.2441-0.292969 54.834-0.292969ZM16.748-5.07812C15.2344-5.07812 14.5508-5.81055 14.5508-7.32422L14.5508-24.9023C14.5508-26.416 15.2344-27.1484 16.748-27.1484L34.4238-27.1484C35.9375-27.1484 36.6699-26.416 36.6699-24.9023L36.6699-7.32422C36.6699-5.81055 35.9375-5.07812 34.4238-5.07812ZM54.9316-5.07812C53.418-5.07812 52.7344-5.81055 52.7344-7.32422L52.7344-24.9023C52.7344-26.416 53.418-27.1484 54.9316-27.1484L72.6074-27.1484C74.1211-27.1484 74.8047-26.416 74.8047-24.9023L74.8047-7.32422C74.8047-5.81055 74.1211-5.07812 72.6074-5.07812Z"/>
  </g>
  <g id="Thin-S" transform="matrix(1 0 0 1 812.599 696)">
   <path d="M15.4785-38.5742L34.668-38.5742C38.4277-38.5742 40.4297-40.332 40.4297-44.3359L40.4297-63.4277C40.4297-67.4316 38.4277-69.2383 34.668-69.2383L15.4785-69.2383C11.7676-69.2383 9.76562-67.4316 9.76562-63.4277L9.76562-44.3359C9.76562-40.332 11.7676-38.5742 15.4785-38.5742ZM52.9297-38.5742L72.1191-38.5742C75.8789-38.5742 77.8809-40.332 77.8809-44.3359L77.8809-63.4277C77.8809-67.4316 75.8789-69.2383 72.1191-69.2383L52.9297-69.2383C49.2188-69.2383 47.2168-67.4316 47.2168-63.4277L47.2168-44.3359C47.2168-40.332 49.2188-38.5742 52.9297-38.5742ZM15.5762-41.6504C13.623-41.6504 12.8418-42.4316 12.8418-44.4336L12.8418-63.3789C12.8418-65.332 13.623-66.1621 15.5762-66.1621L34.5703-66.1621C36.5234-66.1621 37.3535-65.332 37.3535-63.3789L37.3535-44.4336C37.3535-42.4316 36.5234-41.6504 34.5703-41.6504ZM53.0273-41.6504C51.0742-41.6504 50.293-42.4316 50.293-44.4336L50.293-63.3789C50.293-65.332 51.0742-66.1621 53.0273-66.1621L72.0703-66.1621C74.0234-66.1621 74.8047-65.332 74.8047-63.3789L74.8047-44.4336C74.8047-42.4316 74.0234-41.6504 72.0703-41.6504ZM15.4785-1.12305L34.668-1.12305C38.4277-1.12305 40.4297-2.88086 40.4297-6.88477L40.4297-25.9766C40.4297-29.9805 38.4277-31.7871 34.668-31.7871L15.4785-31.7871C11.7676-31.7871 9.76562-29.9805 9.76562-25.9766L9.76562-6.88477C9.76562-2.88086 11.7676-1.12305 15.4785-1.12305ZM52.9297-1.12305L72.1191-1.12305C75.8789-1.12305 77.8809-2.88086 77.8809-6.88477L77.8809-25.9766C77.8809-29.9805 75.8789-31.7871 72.1191-31.7871L52.9297-31.7871C49.2188-31.7871 47.2168-29.9805 47.2168-25.9766L47.2168-6.88477C47.2168-2.88086 49.2188-1.12305 52.9297-1.12305ZM15.5762-4.19922C13.623-4.19922 12.8418-4.98047 12.8418-6.98242L12.8418-25.9277C12.8418-27.8809 13.623-28.7109 15.5762-28.7109L34.5703-28.7109C36.5234-28.7109 37.3535-27.8809 37.3535-25.9277L37.3535-6.98242C37.3535-4.98047 36.5234-4.19922 34.5703-4.19922ZM53.0273-4.19922C51.0742-4.19922 50.293-4.98047 50.293-6.98242L50.293-25.9277C50.293-27.8809 51.0742-28.7109 53.0273-28.7109L72.0703-28.7109C74.0234-28.7109 74.8047-27.8809 74.8047-25.9277L74.8047-6.98242C74.8047-4.98047 74.0234-4.19922 72.0703-4.19922Z"/>
  </g>
  <g id="Ultralight-S" transform="matrix(1 0 0 1 516.352 696)">
   <path d="M14.8926-38.6719L34.7656-38.6719C38.0859-38.6719 39.8926-40.1855 39.8926-43.7988L39.8926-63.623C39.8926-67.2363 38.0859-68.75 34.7656-68.75L14.8926-68.75C11.5723-68.75 9.76562-67.2363 9.76562-63.623L9.76562-43.7988C9.76562-40.1855 11.5723-38.6719 14.8926-38.6719ZM52.002-38.6719L71.8262-38.6719C75.1465-38.6719 76.9531-40.1855 76.9531-43.7988L76.9531-63.623C76.9531-67.2363 75.1465-68.75 71.8262-68.75L52.002-68.75C48.6816-68.75 46.875-67.2363 46.875-63.623L46.875-43.7988C46.875-40.1855 48.6816-38.6719 52.002-38.6719ZM14.9902-40.8203C12.793-40.8203 11.9141-41.6992 11.9141-43.8965L11.9141-63.5254C11.9141-65.7227 12.793-66.6016 14.9902-66.6016L34.668-66.6016C36.8652-66.6016 37.6953-65.7227 37.6953-63.5254L37.6953-43.8965C37.6953-41.6992 36.8652-40.8203 34.668-40.8203ZM52.0996-40.8203C49.9023-40.8203 49.0234-41.6992 49.0234-43.8965L49.0234-63.5254C49.0234-65.7227 49.9023-66.6016 52.0996-66.6016L71.7285-66.6016C73.9258-66.6016 74.8047-65.7227 74.8047-63.5254L74.8047-43.8965C74.8047-41.6992 73.9258-40.8203 71.7285-40.8203ZM14.8926-1.5625L34.7656-1.5625C38.0859-1.5625 39.8926-3.07617 39.8926-6.68945L39.8926-26.5137C39.8926-30.127 38.0859-31.6406 34.7656-31.6406L14.8926-31.6406C11.5723-31.6406 9.76562-30.127 9.76562-26.5137L9.76562-6.68945C9.76562-3.07617 11.5723-1.5625 14.8926-1.5625ZM52.002-1.5625L71.8262-1.5625C75.1465-1.5625 76.9531-3.07617 76.9531-6.68945L76.9531-26.5137C76.9531-30.127 75.1465-31.6406 71.8262-31.6406L52.002-31.6406C48.6816-31.6406 46.875-30.127 46.875-26.5137L46.875-6.68945C46.875-3.07617 48.6816-1.5625 52.002-1.5625ZM14.9902-3.71094C12.793-3.71094 11.9141-4.58984 11.9141-6.78711L11.9141-26.4648C11.9141-28.6133 12.793-29.4922 14.9902-29.4922L34.668-29.4922C36.8652-29.4922 37.6953-28.6133 37.6953-26.4648L37.6953-6.78711C37.6953-4.58984 36.8652-3.71094 34.668-3.71094ZM52.0996-3.71094C49.9023-3.71094 49.0234-4.58984 49.0234-6.78711L49.0234-26.4648C49.0234-28.6133 49.9023-29.4922 52.0996-29.4922L71.7285-29.4922C73.9258-29.4922 74.8047-28.6133 74.8047-26.4648L74.8047-6.78711C74.8047-4.58984 73.9258-3.71094 71.7285-3.71094Z"/>
  </g>
 </g>
</svg>
