<?xml version="1.0" encoding="UTF-8"?>
<!--Generator: Apple Native CoreSVG 149-->
<!DOCTYPE svg
PUBLIC "-//W3C//DTD SVG 1.1//EN"
       "http://www.w3.org/Graphics/SVG/1.1/DTD/svg11.dtd">
<svg version="1.1" xmlns="http://www.w3.org/2000/svg" xmlns:xlink="http://www.w3.org/1999/xlink" width="3300" height="2200">
 <!--glyph: "uni100688.medium", point size: 100.000000, font version: "Version 16.0d18e1", template writer version: "8"-->
 <g id="Notes">
  <rect height="2200" id="artboard" style="fill:white;opacity:1" width="3300" x="0" y="0"/>
  <line id="" style="fill:none;stroke:black;opacity:1;stroke-width:0.5;" x1="263" x2="3036" y1="292" y2="292"/>
  <text style="stroke:none;fill:black;font-family:-apple-system,&quot;SF Pro Display&quot;,&quot;SF Pro Text&quot;,Helvetica,sans-serif;font-weight:bold;" transform="matrix(1 0 0 1 263 322)">Weight/Scale Variations</text>
  <text style="stroke:none;fill:black;font-family:-apple-system,&quot;SF Pro Display&quot;,&quot;SF Pro Text&quot;,Helvetica,sans-serif;text-anchor:middle;" transform="matrix(1 0 0 1 559.711 322)">Ultralight</text>
  <text style="stroke:none;fill:black;font-family:-apple-system,&quot;SF Pro Display&quot;,&quot;SF Pro Text&quot;,Helvetica,sans-serif;text-anchor:middle;" transform="matrix(1 0 0 1 856.422 322)">Thin</text>
  <text style="stroke:none;fill:black;font-family:-apple-system,&quot;SF Pro Display&quot;,&quot;SF Pro Text&quot;,Helvetica,sans-serif;text-anchor:middle;" transform="matrix(1 0 0 1 1153.13 322)">Light</text>
  <text style="stroke:none;fill:black;font-family:-apple-system,&quot;SF Pro Display&quot;,&quot;SF Pro Text&quot;,Helvetica,sans-serif;text-anchor:middle;" transform="matrix(1 0 0 1 1449.84 322)">Regular</text>
  <text style="stroke:none;fill:black;font-family:-apple-system,&quot;SF Pro Display&quot;,&quot;SF Pro Text&quot;,Helvetica,sans-serif;text-anchor:middle;" transform="matrix(1 0 0 1 1746.56 322)">Medium</text>
  <text style="stroke:none;fill:black;font-family:-apple-system,&quot;SF Pro Display&quot;,&quot;SF Pro Text&quot;,Helvetica,sans-serif;text-anchor:middle;" transform="matrix(1 0 0 1 2043.27 322)">Semibold</text>
  <text style="stroke:none;fill:black;font-family:-apple-system,&quot;SF Pro Display&quot;,&quot;SF Pro Text&quot;,Helvetica,sans-serif;text-anchor:middle;" transform="matrix(1 0 0 1 2339.98 322)">Bold</text>
  <text style="stroke:none;fill:black;font-family:-apple-system,&quot;SF Pro Display&quot;,&quot;SF Pro Text&quot;,Helvetica,sans-serif;text-anchor:middle;" transform="matrix(1 0 0 1 2636.69 322)">Heavy</text>
  <text style="stroke:none;fill:black;font-family:-apple-system,&quot;SF Pro Display&quot;,&quot;SF Pro Text&quot;,Helvetica,sans-serif;text-anchor:middle;" transform="matrix(1 0 0 1 2933.4 322)">Black</text>
  <line id="" style="fill:none;stroke:black;opacity:1;stroke-width:0.5;" x1="263" x2="3036" y1="1903" y2="1903"/>
  <g id="" transform="matrix(1 0 0 1 263 1933)">
   <path d="M9.24805 0.830078C13.5547 0.830078 17.1387-2.74414 17.1387-7.05078C17.1387-11.3574 13.5449-14.9316 9.23828-14.9316C4.94141-14.9316 1.36719-11.3574 1.36719-7.05078C1.36719-2.74414 4.95117 0.830078 9.24805 0.830078ZM9.24805-0.654297C5.70312-0.654297 2.87109-3.49609 2.87109-7.05078C2.87109-10.6055 5.69336-13.4473 9.23828-13.4473C12.793-13.4473 15.6348-10.6055 15.6445-7.05078C15.6543-3.49609 12.8027-0.654297 9.24805-0.654297ZM6.39648-6.31836L8.50586-6.31836L8.50586-4.19922C8.50586-3.75977 8.79883-3.45703 9.22852-3.45703C9.67773-3.45703 9.9707-3.75977 9.9707-4.19922L9.9707-6.31836L12.0996-6.31836C12.5391-6.31836 12.8418-6.61133 12.8418-7.04102C12.8418-7.48047 12.5391-7.7832 12.0996-7.7832L9.9707-7.7832L9.9707-9.89258C9.9707-10.3418 9.67773-10.6445 9.22852-10.6445C8.79883-10.6445 8.50586-10.3418 8.50586-9.89258L8.50586-7.7832L6.39648-7.7832C5.94727-7.7832 5.64453-7.48047 5.64453-7.04102C5.64453-6.61133 5.94727-6.31836 6.39648-6.31836Z"/>
  </g>
  <g id="" transform="matrix(1 0 0 1 281.506 1933)">
   <path d="M11.709 2.91016C17.1582 2.91016 21.6699-1.61133 21.6699-7.05078C21.6699-12.5 17.1484-17.0117 11.6992-17.0117C6.25977-17.0117 1.74805-12.5 1.74805-7.05078C1.74805-1.61133 6.26953 2.91016 11.709 2.91016ZM11.709 1.25C7.09961 1.25 3.41797-2.44141 3.41797-7.05078C3.41797-11.6602 7.08984-15.3516 11.6992-15.3516C16.3086-15.3516 20-11.6602 20.0098-7.05078C20.0195-2.44141 16.3184 1.25 11.709 1.25ZM7.98828-6.23047L10.8789-6.23047L10.8789-3.32031C10.8789-2.83203 11.2109-2.5 11.6895-2.5C12.1777-2.5 12.5195-2.83203 12.5195-3.32031L12.5195-6.23047L15.4297-6.23047C15.918-6.23047 16.25-6.5625 16.25-7.04102C16.25-7.5293 15.918-7.87109 15.4297-7.87109L12.5195-7.87109L12.5195-10.7617C12.5195-11.2695 12.1777-11.6016 11.6895-11.6016C11.2109-11.6016 10.8789-11.2598 10.8789-10.7617L10.8789-7.87109L7.98828-7.87109C7.48047-7.87109 7.14844-7.5293 7.14844-7.04102C7.14844-6.5625 7.49023-6.23047 7.98828-6.23047Z"/>
  </g>
  <g id="" transform="matrix(1 0 0 1 304.924 1933)">
   <path d="M14.9707 5.66406C21.9336 5.66406 27.6953-0.0976562 27.6953-7.05078C27.6953-14.0137 21.9238-19.7754 14.9609-19.7754C8.00781-19.7754 2.25586-14.0137 2.25586-7.05078C2.25586-0.0976562 8.01758 5.66406 14.9707 5.66406ZM14.9707 3.84766C8.93555 3.84766 4.08203-1.01562 4.08203-7.05078C4.08203-13.0957 8.92578-17.9492 14.9609-17.9492C21.0059-17.9492 25.8594-13.0957 25.8691-7.05078C25.8789-1.01562 21.0156 3.84766 14.9707 3.84766ZM10.0586-6.14258L14.0625-6.14258L14.0625-2.12891C14.0625-1.5918 14.4336-1.2207 14.9512-1.2207C15.4883-1.2207 15.8594-1.5918 15.8594-2.12891L15.8594-6.14258L19.8828-6.14258C20.4102-6.14258 20.791-6.51367 20.791-7.03125C20.791-7.56836 20.4199-7.94922 19.8828-7.94922L15.8594-7.94922L15.8594-11.9531C15.8594-12.5098 15.4883-12.8809 14.9512-12.8809C14.4336-12.8809 14.0625-12.5 14.0625-11.9531L14.0625-7.94922L10.0586-7.94922C9.50195-7.94922 9.13086-7.56836 9.13086-7.03125C9.13086-6.51367 9.51172-6.14258 10.0586-6.14258Z"/>
  </g>
  <text style="stroke:none;fill:black;font-family:-apple-system,&quot;SF Pro Display&quot;,&quot;SF Pro Text&quot;,Helvetica,sans-serif;font-weight:bold;" transform="matrix(1 0 0 1 263 1953)">Design Variations</text>
  <text style="stroke:none;fill:black;font-family:-apple-system,&quot;SF Pro Display&quot;,&quot;SF Pro Text&quot;,Helvetica,sans-serif;" transform="matrix(1 0 0 1 263 1971)">Symbols are supported in up to nine weights and three scales.</text>
  <text style="stroke:none;fill:black;font-family:-apple-system,&quot;SF Pro Display&quot;,&quot;SF Pro Text&quot;,Helvetica,sans-serif;" transform="matrix(1 0 0 1 263 1989)">For optimal layout with text and other symbols, vertically align</text>
  <text style="stroke:none;fill:black;font-family:-apple-system,&quot;SF Pro Display&quot;,&quot;SF Pro Text&quot;,Helvetica,sans-serif;" transform="matrix(1 0 0 1 263 2007)">symbols with the adjacent text.</text>
  <line id="" style="fill:none;stroke:#00AEEF;stroke-width:0.5;opacity:1.0;" x1="776" x2="776" y1="1919" y2="1933"/>
  <g id="" transform="matrix(1 0 0 1 776 1933)">
   <path d="M3.31055 0.126953C3.82812 0.126953 4.08203-0.0683594 4.26758-0.605469L5.52734-4.0625L11.2891-4.0625L12.5488-0.605469C12.7344-0.0683594 12.9883 0.126953 13.4961 0.126953C14.0137 0.126953 14.3457-0.185547 14.3457-0.673828C14.3457-0.839844 14.3164-0.986328 14.2383-1.20117L9.6582-13.3887C9.43359-13.9941 9.0332-14.2871 8.4082-14.2871C7.80273-14.2871 7.39258-13.9941 7.17773-13.3984L2.59766-1.19141C2.51953-0.976562 2.49023-0.830078 2.49023-0.664062C2.49023-0.175781 2.80273 0.126953 3.31055 0.126953ZM6.00586-5.53711L8.37891-12.1094L8.42773-12.1094L10.8008-5.53711Z"/>
  </g>
  <line id="" style="fill:none;stroke:#00AEEF;stroke-width:0.5;opacity:1.0;" x1="792.836" x2="792.836" y1="1919" y2="1933"/>
  <text style="stroke:none;fill:black;font-family:-apple-system,&quot;SF Pro Display&quot;,&quot;SF Pro Text&quot;,Helvetica,sans-serif;font-weight:bold;" transform="matrix(1 0 0 1 776 1953)">Margins</text>
  <text style="stroke:none;fill:black;font-family:-apple-system,&quot;SF Pro Display&quot;,&quot;SF Pro Text&quot;,Helvetica,sans-serif;" transform="matrix(1 0 0 1 776 1971)">Leading and trailing margins on the left and right side of each symbol</text>
  <text style="stroke:none;fill:black;font-family:-apple-system,&quot;SF Pro Display&quot;,&quot;SF Pro Text&quot;,Helvetica,sans-serif;" transform="matrix(1 0 0 1 776 1989)">can be adjusted by modifying the x-location of the margin guidelines.</text>
  <text style="stroke:none;fill:black;font-family:-apple-system,&quot;SF Pro Display&quot;,&quot;SF Pro Text&quot;,Helvetica,sans-serif;" transform="matrix(1 0 0 1 776 2007)">Modifications are automatically applied proportionally to all</text>
  <text style="stroke:none;fill:black;font-family:-apple-system,&quot;SF Pro Display&quot;,&quot;SF Pro Text&quot;,Helvetica,sans-serif;" transform="matrix(1 0 0 1 776 2025)">scales and weights.</text>
  <g id="" transform="matrix(1 0 0 1 1289 1933)">
   <path d="M2.8418 1.86523L4.54102 3.57422C5.40039 4.44336 6.38672 4.38477 7.31445 3.35938L17.4902-7.85156C17.7539-7.76367 18.0273-7.7832 18.3398-7.8418L19.4043-8.03711L20.0684-7.36328L20.0293-6.80664C19.9902-6.30859 20.1172-5.92773 20.6055-5.44922L21.3672-4.70703C21.8457-4.22852 22.4609-4.19922 22.9297-4.66797L25.8398-7.58789C26.3086-8.05664 26.2891-8.65234 25.8105-9.13086L25.0391-9.89258C24.5605-10.3711 24.1895-10.5273 23.7109-10.4883L23.1348-10.4395L22.4902-11.0742L22.7344-12.1973C22.8613-12.7637 22.7051-13.2031 22.1191-13.7891L19.9219-15.9766C16.582-19.2969 12.1484-19.2188 9.25781-16.3281C8.83789-15.918 8.80859-15.3418 9.04297-14.9512C9.27734-14.5898 9.73633-14.3555 10.3809-14.5215C11.8457-14.8633 13.3691-14.9219 14.7949-13.9844L14.209-12.5293C14.0137-12.0508 13.9844-11.6504 14.1113-11.2891L3.04688-0.898438C2.06055 0.0195312 1.98242 0.996094 2.8418 1.86523ZM10.752-15.957C13.1836-17.7344 16.4746-17.4316 18.7012-15.2051L21.1328-12.793C21.3672-12.5586 21.4062-12.373 21.3379-12.0312L21.0156-10.5469L22.5195-9.0625L23.5059-9.12109C23.7598-9.13086 23.8379-9.11133 24.0332-8.91602L24.6094-8.33984L22.168-5.89844L21.5918-6.47461C21.3965-6.66992 21.3672-6.74805 21.377-7.01172L21.4453-7.98828L19.9512-9.47266L18.4277-9.21875C18.1055-9.15039 17.959-9.17969 17.7148-9.41406L15.7129-11.416C15.459-11.6504 15.4297-11.8164 15.5859-12.1875L16.4648-14.2773C14.9023-15.7324 12.8711-16.3574 10.8398-15.7617C10.6836-15.7227 10.625-15.8496 10.752-15.957ZM5.27344 2.30469L4.10156 1.14258C3.63281 0.683594 3.74023 0.341797 4.14062-0.0195312L14.9512-10.1953L16.416-8.71094L6.42578 2.27539C6.07422 2.67578 5.74219 2.77344 5.27344 2.30469Z"/>
  </g>
  <text style="stroke:none;fill:black;font-family:-apple-system,&quot;SF Pro Display&quot;,&quot;SF Pro Text&quot;,Helvetica,sans-serif;font-weight:bold;" transform="matrix(1 0 0 1 1289 1953)">Exporting</text>
  <text style="stroke:none;fill:black;font-family:-apple-system,&quot;SF Pro Display&quot;,&quot;SF Pro Text&quot;,Helvetica,sans-serif;" transform="matrix(1 0 0 1 1289 1971)">Symbols should be outlined when exporting to ensure the</text>
  <text style="stroke:none;fill:black;font-family:-apple-system,&quot;SF Pro Display&quot;,&quot;SF Pro Text&quot;,Helvetica,sans-serif;" transform="matrix(1 0 0 1 1289 1989)">design is preserved when submitting to Xcode.</text>
  <text id="template-version" style="stroke:none;fill:black;font-family:-apple-system,&quot;SF Pro Display&quot;,&quot;SF Pro Text&quot;,Helvetica,sans-serif;text-anchor:end;" transform="matrix(1 0 0 1 3036 1933)">Template v.2.0</text>
  <text style="stroke:none;fill:black;font-family:-apple-system,&quot;SF Pro Display&quot;,&quot;SF Pro Text&quot;,Helvetica,sans-serif;text-anchor:end;" transform="matrix(1 0 0 1 3036 1951)">Requires Xcode 12 or greater</text>
  <text style="stroke:none;fill:black;font-family:-apple-system,&quot;SF Pro Display&quot;,&quot;SF Pro Text&quot;,Helvetica,sans-serif;text-anchor:end;" transform="matrix(1 0 0 1 3036 1969)">Generated from square.grid.2x2.fill</text>
  <text style="stroke:none;fill:black;font-family:-apple-system,&quot;SF Pro Display&quot;,&quot;SF Pro Text&quot;,Helvetica,sans-serif;text-anchor:end;" transform="matrix(1 0 0 1 3036 1987)">Typeset at 100 points</text>
  <text style="stroke:none;fill:black;font-family:-apple-system,&quot;SF Pro Display&quot;,&quot;SF Pro Text&quot;,Helvetica,sans-serif;" transform="matrix(1 0 0 1 263 726)">Small</text>
  <text style="stroke:none;fill:black;font-family:-apple-system,&quot;SF Pro Display&quot;,&quot;SF Pro Text&quot;,Helvetica,sans-serif;" transform="matrix(1 0 0 1 263 1156)">Medium</text>
  <text style="stroke:none;fill:black;font-family:-apple-system,&quot;SF Pro Display&quot;,&quot;SF Pro Text&quot;,Helvetica,sans-serif;" transform="matrix(1 0 0 1 263 1586)">Large</text>
 </g>
 <g id="Guides">
  <g id="H-reference" style="fill:#27AAE1;stroke:none;" transform="matrix(1 0 0 1 339 696)">
   <path d="M0.976562 0L3.66211 0L12.9883-24.4629L45.752-24.4629L55.127 0L57.7637 0L30.6152-70.459L28.125-70.459ZM29.3457-67.1387L29.4434-67.1387L44.873-26.709L13.8672-26.709Z"/>
  </g>
  <line id="Baseline-S" style="fill:none;stroke:#27AAE1;opacity:1;stroke-width:0.5;" x1="263" x2="3036" y1="696" y2="696"/>
  <line id="Capline-S" style="fill:none;stroke:#27AAE1;opacity:1;stroke-width:0.5;" x1="263" x2="3036" y1="625.541" y2="625.541"/>
  <g id="H-reference" style="fill:#27AAE1;stroke:none;" transform="matrix(1 0 0 1 339 1126)">
   <path d="M0.976562 0L3.66211 0L12.9883-24.4629L45.752-24.4629L55.127 0L57.7637 0L30.6152-70.459L28.125-70.459ZM29.3457-67.1387L29.4434-67.1387L44.873-26.709L13.8672-26.709Z"/>
  </g>
  <line id="Baseline-M" style="fill:none;stroke:#27AAE1;opacity:1;stroke-width:0.5;" x1="263" x2="3036" y1="1126" y2="1126"/>
  <line id="Capline-M" style="fill:none;stroke:#27AAE1;opacity:1;stroke-width:0.5;" x1="263" x2="3036" y1="1055.54" y2="1055.54"/>
  <g id="H-reference" style="fill:#27AAE1;stroke:none;" transform="matrix(1 0 0 1 339 1556)">
   <path d="M0.976562 0L3.66211 0L12.9883-24.4629L45.752-24.4629L55.127 0L57.7637 0L30.6152-70.459L28.125-70.459ZM29.3457-67.1387L29.4434-67.1387L44.873-26.709L13.8672-26.709Z"/>
  </g>
  <line id="Baseline-L" style="fill:none;stroke:#27AAE1;opacity:1;stroke-width:0.5;" x1="263" x2="3036" y1="1556" y2="1556"/>
  <line id="Capline-L" style="fill:none;stroke:#27AAE1;opacity:1;stroke-width:0.5;" x1="263" x2="3036" y1="1485.54" y2="1485.54"/>
  <line id="left-margin" style="fill:none;stroke:#00AEEF;stroke-width:0.5;opacity:1.0;" x1="1392.45" x2="1392.45" y1="1030.79" y2="1150.12"/>
  <line id="right-margin" style="fill:none;stroke:#00AEEF;stroke-width:0.5;opacity:1.0;" x1="1507.24" x2="1507.24" y1="1030.79" y2="1150.12"/>
 </g>
 <g id="Symbols">
  <g id="Black-L" transform="matrix(1 0 0 1 2855.62 1556)">
   <path d="M100.537-39.1113L120.605-39.1113C133.496-39.1113 139.502-45.0684 139.502-58.0566L139.502-77.9297C139.502-90.918 133.496-96.875 120.605-96.875L100.537-96.875C87.6465-96.875 81.6895-90.918 81.6895-77.9297L81.6895-58.0566C81.6895-45.0684 87.6465-39.1113 100.537-39.1113ZM34.9609-39.1113L54.9805-39.1113C67.8711-39.1113 73.877-45.0684 73.877-58.0566L73.877-77.9297C73.877-90.918 67.8711-96.875 54.9805-96.875L34.9609-96.875C22.0215-96.875 16.0645-90.918 16.0645-77.9297L16.0645-58.0566C16.0645-45.0684 22.0215-39.1113 34.9609-39.1113ZM34.9609 26.5137L54.9805 26.5137C67.8711 26.5137 73.877 20.5078 73.877 7.51953L73.877-12.3047C73.877-25.293 67.8711-31.2988 54.9805-31.2988L34.9609-31.2988C22.0215-31.2988 16.0645-25.293 16.0645-12.3047L16.0645 7.51953C16.0645 20.5078 22.0215 26.5137 34.9609 26.5137ZM100.537 26.5137L120.605 26.5137C133.496 26.5137 139.502 20.5078 139.502 7.51953L139.502-12.3047C139.502-25.293 133.496-31.2988 120.605-31.2988L100.537-31.2988C87.6465-31.2988 81.6895-25.293 81.6895-12.3047L81.6895 7.51953C81.6895 20.5078 87.6465 26.5137 100.537 26.5137Z"/>
  </g>
  <g id="Heavy-L" transform="matrix(1 0 0 1 2559.93 1556)">
   <path d="M98.0957-39.4043L120.361-39.4043C131.982-39.4043 137.451-44.873 137.451-56.5918L137.451-78.6621C137.451-90.4297 131.982-95.8496 120.361-95.8496L98.0957-95.8496C86.4746-95.8496 81.0059-90.4297 81.0059-78.6621L81.0059-56.5918C81.0059-44.873 86.4746-39.4043 98.0957-39.4043ZM33.1543-39.4043L55.4199-39.4043C67.041-39.4043 72.5098-44.873 72.5098-56.5918L72.5098-78.6621C72.5098-90.4297 67.041-95.8496 55.4199-95.8496L33.1543-95.8496C21.5332-95.8496 16.0645-90.4297 16.0645-78.6621L16.0645-56.5918C16.0645-44.873 21.5332-39.4043 33.1543-39.4043ZM33.1543 25.4883L55.4199 25.4883C67.041 25.4883 72.5098 20.0684 72.5098 8.30078L72.5098-13.7695C72.5098-25.4883 67.041-30.957 55.4199-30.957L33.1543-30.957C21.5332-30.957 16.0645-25.4883 16.0645-13.7695L16.0645 8.30078C16.0645 20.0684 21.5332 25.4883 33.1543 25.4883ZM98.0957 25.4883L120.361 25.4883C131.982 25.4883 137.451 20.0684 137.451 8.30078L137.451-13.7695C137.451-25.4883 131.982-30.957 120.361-30.957L98.0957-30.957C86.4746-30.957 81.0059-25.4883 81.0059-13.7695L81.0059 8.30078C81.0059 20.0684 86.4746 25.4883 98.0957 25.4883Z"/>
  </g>
  <g id="Bold-L" transform="matrix(1 0 0 1 2264.37 1556)">
   <path d="M95.3125-39.7949L120.117-39.7949C130.273-39.7949 135.156-44.6289 135.156-54.9805L135.156-79.541C135.156-89.8926 130.273-94.7266 120.117-94.7266L95.3125-94.7266C85.1074-94.7266 80.2246-89.8926 80.2246-79.541L80.2246-54.9805C80.2246-44.6289 85.1074-39.7949 95.3125-39.7949ZM31.1035-39.7949L55.957-39.7949C66.1133-39.7949 70.9961-44.6289 70.9961-54.9805L70.9961-79.541C70.9961-89.8926 66.1133-94.7266 55.957-94.7266L31.1035-94.7266C20.9473-94.7266 16.0645-89.8926 16.0645-79.541L16.0645-54.9805C16.0645-44.6289 20.9473-39.7949 31.1035-39.7949ZM31.1035 24.3652L55.957 24.3652C66.1133 24.3652 70.9961 19.5312 70.9961 9.17969L70.9961-15.332C70.9961-25.7324 66.1133-30.5664 55.957-30.5664L31.1035-30.5664C20.9473-30.5664 16.0645-25.7324 16.0645-15.332L16.0645 9.17969C16.0645 19.5312 20.9473 24.3652 31.1035 24.3652ZM95.3125 24.3652L120.117 24.3652C130.273 24.3652 135.156 19.5312 135.156 9.17969L135.156-15.332C135.156-25.7324 130.273-30.5664 120.117-30.5664L95.3125-30.5664C85.1074-30.5664 80.2246-25.7324 80.2246-15.332L80.2246 9.17969C80.2246 19.5312 85.1074 24.3652 95.3125 24.3652Z"/>
  </g>
  <g id="Semibold-L" transform="matrix(1 0 0 1 1968.44 1556)">
   <path d="M93.3594-40.0391L119.922-40.0391C129.102-40.0391 133.594-44.4336 133.594-53.8574L133.594-80.127C133.594-89.5508 129.102-93.9453 119.922-93.9453L93.3594-93.9453C84.1797-93.9453 79.7363-89.5508 79.7363-80.127L79.7363-53.8574C79.7363-44.4336 84.1797-40.0391 93.3594-40.0391ZM29.7363-40.0391L56.2988-40.0391C65.4785-40.0391 69.9219-44.4336 69.9219-53.8574L69.9219-80.127C69.9219-89.5508 65.4785-93.9453 56.2988-93.9453L29.7363-93.9453C20.5566-93.9453 16.0645-89.5508 16.0645-80.127L16.0645-53.8574C16.0645-44.4336 20.5566-40.0391 29.7363-40.0391ZM29.7363 23.584L56.2988 23.584C65.4785 23.584 69.9219 19.1895 69.9219 9.76562L69.9219-16.4551C69.9219-25.8789 65.4785-30.2734 56.2988-30.2734L29.7363-30.2734C20.5566-30.2734 16.0645-25.8789 16.0645-16.4551L16.0645 9.76562C16.0645 19.1895 20.5566 23.584 29.7363 23.584ZM93.3594 23.584L119.922 23.584C129.102 23.584 133.594 19.1895 133.594 9.76562L133.594-16.4551C133.594-25.8789 129.102-30.2734 119.922-30.2734L93.3594-30.2734C84.1797-30.2734 79.7363-25.8789 79.7363-16.4551L79.7363 9.76562C79.7363 19.1895 84.1797 23.584 93.3594 23.584Z"/>
  </g>
  <g id="Medium-L" transform="matrix(1 0 0 1 1672.31 1556)">
   <path d="M91.8945-40.2344L119.824-40.2344C128.223-40.2344 132.422-44.3359 132.422-53.0273L132.422-80.5664C132.422-89.2578 128.223-93.3105 119.824-93.3105L91.8945-93.3105C83.4961-93.3105 79.2969-89.2578 79.2969-80.5664L79.2969-53.0273C79.2969-44.3359 83.4961-40.2344 91.8945-40.2344ZM28.6621-40.2344L56.543-40.2344C64.9902-40.2344 69.1406-44.3359 69.1406-53.0273L69.1406-80.5664C69.1406-89.2578 64.9902-93.3105 56.543-93.3105L28.6621-93.3105C20.2637-93.3105 16.0645-89.2578 16.0645-80.5664L16.0645-53.0273C16.0645-44.3359 20.2637-40.2344 28.6621-40.2344ZM28.6621 22.998L56.543 22.998C64.9902 22.998 69.1406 18.9453 69.1406 10.2051L69.1406-17.2852C69.1406-26.0254 64.9902-30.0781 56.543-30.0781L28.6621-30.0781C20.2637-30.0781 16.0645-26.0254 16.0645-17.2852L16.0645 10.2051C16.0645 18.9453 20.2637 22.998 28.6621 22.998ZM91.8945 22.998L119.824 22.998C128.223 22.998 132.422 18.9453 132.422 10.2051L132.422-17.2852C132.422-26.0254 128.223-30.0781 119.824-30.0781L91.8945-30.0781C83.4961-30.0781 79.2969-26.0254 79.2969-17.2852L79.2969 10.2051C79.2969 18.9453 83.4961 22.998 91.8945 22.998Z"/>
  </g>
  <g id="Regular-L" transform="matrix(1 0 0 1 1376.38 1556)">
   <path d="M90.0391-40.5273L119.629-40.5273C127.051-40.5273 130.859-44.1406 130.859-51.9043L130.859-81.1523C130.859-88.916 127.051-92.5293 119.629-92.5293L90.0391-92.5293C82.5684-92.5293 78.8086-88.916 78.8086-81.1523L78.8086-51.9043C78.8086-44.1406 82.5684-40.5273 90.0391-40.5273ZM27.2949-40.5273L56.8848-40.5273C64.3066-40.5273 68.1152-44.1406 68.1152-51.9043L68.1152-81.1523C68.1152-88.916 64.3066-92.5293 56.8848-92.5293L27.2949-92.5293C19.873-92.5293 16.0645-88.916 16.0645-81.1523L16.0645-51.9043C16.0645-44.1406 19.873-40.5273 27.2949-40.5273ZM27.2949 22.2168L56.8848 22.2168C64.3066 22.2168 68.1152 18.6035 68.1152 10.8398L68.1152-18.4082C68.1152-26.1719 64.3066-29.834 56.8848-29.834L27.2949-29.834C19.873-29.834 16.0645-26.1719 16.0645-18.4082L16.0645 10.8398C16.0645 18.6035 19.873 22.2168 27.2949 22.2168ZM90.0391 22.2168L119.629 22.2168C127.051 22.2168 130.859 18.6035 130.859 10.8398L130.859-18.4082C130.859-26.1719 127.051-29.834 119.629-29.834L90.0391-29.834C82.5684-29.834 78.8086-26.1719 78.8086-18.4082L78.8086 10.8398C78.8086 18.6035 82.5684 22.2168 90.0391 22.2168Z"/>
  </g>
  <g id="Light-L" transform="matrix(1 0 0 1 1080.5 1556)">
   <path d="M88.2324-40.6738L119.092-40.6738C125.732-40.6738 129.199-43.8477 129.199-50.8789L129.199-81.4941C129.199-88.5254 125.732-91.6992 119.092-91.6992L88.2324-91.6992C81.5918-91.6992 78.125-88.5254 78.125-81.4941L78.125-50.8789C78.125-43.8477 81.5918-40.6738 88.2324-40.6738ZM26.1719-40.6738L57.0312-40.6738C63.6719-40.6738 67.0898-43.8477 67.0898-50.8789L67.0898-81.4941C67.0898-88.5254 63.6719-91.6992 57.0312-91.6992L26.1719-91.6992C19.5312-91.6992 16.0645-88.5254 16.0645-81.4941L16.0645-50.8789C16.0645-43.8477 19.5312-40.6738 26.1719-40.6738ZM26.1719 21.4355L57.0312 21.4355C63.6719 21.4355 67.0898 18.2129 67.0898 11.2305L67.0898-19.4336C67.0898-26.4648 63.6719-29.6387 57.0312-29.6387L26.1719-29.6387C19.5312-29.6387 16.0645-26.4648 16.0645-19.4336L16.0645 11.2305C16.0645 18.2129 19.5312 21.4355 26.1719 21.4355ZM88.2324 21.4355L119.092 21.4355C125.732 21.4355 129.199 18.2129 129.199 11.2305L129.199-19.4336C129.199-26.4648 125.732-29.6387 119.092-29.6387L88.2324-29.6387C81.5918-29.6387 78.125-26.4648 78.125-19.4336L78.125 11.2305C78.125 18.2129 81.5918 21.4355 88.2324 21.4355Z"/>
  </g>
  <g id="Thin-L" transform="matrix(1 0 0 1 784.889 1556)">
   <path d="M85.8398-40.8691L118.408-40.8691C123.975-40.8691 127.002-43.4082 127.002-49.4629L127.002-81.9336C127.002-87.9883 123.975-90.5762 118.408-90.5762L85.8398-90.5762C80.2734-90.5762 77.2461-87.9883 77.2461-81.9336L77.2461-49.4629C77.2461-43.4082 80.2734-40.8691 85.8398-40.8691ZM24.6582-40.8691L57.1777-40.8691C62.793-40.8691 65.7715-43.4082 65.7715-49.4629L65.7715-81.9336C65.7715-87.9883 62.793-90.5762 57.1777-90.5762L24.6582-90.5762C19.0918-90.5762 16.0645-87.9883 16.0645-81.9336L16.0645-49.4629C16.0645-43.4082 19.0918-40.8691 24.6582-40.8691ZM24.6582 20.3613L57.1777 20.3613C62.793 20.3613 65.7715 17.7734 65.7715 11.7188L65.7715-20.752C65.7715-26.8066 62.793-29.3945 57.1777-29.3945L24.6582-29.3945C19.0918-29.3945 16.0645-26.8066 16.0645-20.752L16.0645 11.7188C16.0645 17.7734 19.0918 20.3613 24.6582 20.3613ZM85.8398 20.3613L118.408 20.3613C123.975 20.3613 127.002 17.7734 127.002 11.7188L127.002-20.752C127.002-26.8066 123.975-29.3945 118.408-29.3945L85.8398-29.3945C80.2734-29.3945 77.2461-26.8066 77.2461-20.752L77.2461 11.7188C77.2461 17.7734 80.2734 20.3613 85.8398 20.3613Z"/>
  </g>
  <g id="Ultralight-L" transform="matrix(1 0 0 1 488.739 1556)">
   <path d="M84.6191-40.9668L118.018-40.9668C123.047-40.9668 125.879-43.2129 125.879-48.7793L125.879-82.1777C125.879-87.7441 123.047-89.9902 118.018-89.9902L84.6191-89.9902C79.5898-89.9902 76.8066-87.7441 76.8066-82.1777L76.8066-48.7793C76.8066-43.2129 79.5898-40.9668 84.6191-40.9668ZM23.877-40.9668L57.2754-40.9668C62.3535-40.9668 65.1367-43.2129 65.1367-48.7793L65.1367-82.1777C65.1367-87.7441 62.3535-89.9902 57.2754-89.9902L23.877-89.9902C18.8477-89.9902 16.0645-87.7441 16.0645-82.1777L16.0645-48.7793C16.0645-43.2129 18.8477-40.9668 23.877-40.9668ZM23.877 19.7754L57.2754 19.7754C62.3535 19.7754 65.1367 17.5293 65.1367 11.9629L65.1367-21.4355C65.1367-27.002 62.3535-29.248 57.2754-29.248L23.877-29.248C18.8477-29.248 16.0645-27.002 16.0645-21.4355L16.0645 11.9629C16.0645 17.5293 18.8477 19.7754 23.877 19.7754ZM84.6191 19.7754L118.018 19.7754C123.047 19.7754 125.879 17.5293 125.879 11.9629L125.879-21.4355C125.879-27.002 123.047-29.248 118.018-29.248L84.6191-29.248C79.5898-29.248 76.8066-27.002 76.8066-21.4355L76.8066 11.9629C76.8066 17.5293 79.5898 19.7754 84.6191 19.7754Z"/>
  </g>
  <g id="Black-M" transform="matrix(1 0 0 1 2872.19 1126)">
   <path d="M80.3223-37.8418L93.457-37.8418C104.785-37.8418 109.961-43.0176 109.961-54.3457L109.961-67.4805C109.961-78.8086 104.785-83.9355 93.457-83.9355L80.3223-83.9355C68.9941-83.9355 63.8672-78.8086 63.8672-67.4805L63.8672-54.3457C63.8672-43.0176 68.9941-37.8418 80.3223-37.8418ZM28.9551-37.8418L42.0898-37.8418C53.418-37.8418 58.5449-43.0176 58.5449-54.3457L58.5449-67.4805C58.5449-78.8086 53.418-83.9355 42.0898-83.9355L28.9551-83.9355C17.627-83.9355 12.4512-78.8086 12.4512-67.4805L12.4512-54.3457C12.4512-43.0176 17.627-37.8418 28.9551-37.8418ZM28.9551 13.5742L42.0898 13.5742C53.418 13.5742 58.5449 8.39844 58.5449-2.92969L58.5449-16.0645C58.5449-27.3926 53.418-32.5684 42.0898-32.5684L28.9551-32.5684C17.627-32.5684 12.4512-27.3926 12.4512-16.0645L12.4512-2.92969C12.4512 8.39844 17.627 13.5742 28.9551 13.5742ZM80.3223 13.5742L93.457 13.5742C104.785 13.5742 109.961 8.39844 109.961-2.92969L109.961-16.0645C109.961-27.3926 104.785-32.5684 93.457-32.5684L80.3223-32.5684C68.9941-32.5684 63.8672-27.3926 63.8672-16.0645L63.8672-2.92969C63.8672 8.39844 68.9941 13.5742 80.3223 13.5742Z"/>
  </g>
  <g id="Heavy-M" transform="matrix(1 0 0 1 2576.39 1126)">
   <path d="M78.0762-38.1836L93.3594-38.1836C103.467-38.1836 108.154-42.8223 108.154-53.0273L108.154-68.2129C108.154-78.3691 103.467-83.0566 93.3594-83.0566L78.0762-83.0566C67.9688-83.0566 63.2812-78.3691 63.2812-68.2129L63.2812-53.0273C63.2812-42.8223 67.9688-38.1836 78.0762-38.1836ZM27.2461-38.1836L42.5293-38.1836C52.6367-38.1836 57.3242-42.8223 57.3242-53.0273L57.3242-68.2129C57.3242-78.3691 52.6367-83.0566 42.5293-83.0566L27.2461-83.0566C17.1387-83.0566 12.4512-78.3691 12.4512-68.2129L12.4512-53.0273C12.4512-42.8223 17.1387-38.1836 27.2461-38.1836ZM27.2461 12.6465L42.5293 12.6465C52.6367 12.6465 57.3242 8.00781 57.3242-2.19727L57.3242-17.3828C57.3242-27.5391 52.6367-32.2266 42.5293-32.2266L27.2461-32.2266C17.1387-32.2266 12.4512-27.5391 12.4512-17.3828L12.4512-2.19727C12.4512 8.00781 17.1387 12.6465 27.2461 12.6465ZM78.0762 12.6465L93.3594 12.6465C103.467 12.6465 108.154 8.00781 108.154-2.19727L108.154-17.3828C108.154-27.5391 103.467-32.2266 93.3594-32.2266L78.0762-32.2266C67.9688-32.2266 63.2812-27.5391 63.2812-17.3828L63.2812-2.19727C63.2812 8.00781 67.9688 12.6465 78.0762 12.6465Z"/>
  </g>
  <g id="Bold-M" transform="matrix(1 0 0 1 2280.68 1126)">
   <path d="M75.5371-38.5254L93.2617-38.5254C102.002-38.5254 106.152-42.6758 106.152-51.5625L106.152-69.043C106.152-77.9297 102.002-82.0312 93.2617-82.0312L75.5371-82.0312C66.7969-82.0312 62.6465-77.9297 62.6465-69.043L62.6465-51.5625C62.6465-42.6758 66.7969-38.5254 75.5371-38.5254ZM25.3418-38.5254L43.0664-38.5254C51.8066-38.5254 55.957-42.6758 55.957-51.5625L55.957-69.043C55.957-77.9297 51.8066-82.0312 43.0664-82.0312L25.3418-82.0312C16.6016-82.0312 12.4512-77.9297 12.4512-69.043L12.4512-51.5625C12.4512-42.6758 16.6016-38.5254 25.3418-38.5254ZM25.3418 11.6699L43.0664 11.6699C51.8066 11.6699 55.957 7.51953 55.957-1.31836L55.957-18.8477C55.957-27.7344 51.8066-31.8359 43.0664-31.8359L25.3418-31.8359C16.6016-31.8359 12.4512-27.7344 12.4512-18.8477L12.4512-1.31836C12.4512 7.51953 16.6016 11.6699 25.3418 11.6699ZM75.5371 11.6699L93.2617 11.6699C102.002 11.6699 106.152 7.51953 106.152-1.31836L106.152-18.8477C106.152-27.7344 102.002-31.8359 93.2617-31.8359L75.5371-31.8359C66.7969-31.8359 62.6465-27.7344 62.6465-18.8477L62.6465-1.31836C62.6465 7.51953 66.7969 11.6699 75.5371 11.6699Z"/>
  </g>
  <g id="Semibold-M" transform="matrix(1 0 0 1 1984.65 1126)">
   <path d="M73.8281-38.7695L93.1641-38.7695C101.025-38.7695 104.785-42.5293 104.785-50.5371L104.785-69.6289C104.785-77.5879 101.025-81.3477 93.1641-81.3477L73.8281-81.3477C65.9668-81.3477 62.207-77.5879 62.207-69.6289L62.207-50.5371C62.207-42.5293 65.9668-38.7695 73.8281-38.7695ZM24.0723-38.7695L43.4082-38.7695C51.2207-38.7695 55.0293-42.5293 55.0293-50.5371L55.0293-69.6289C55.0293-77.5879 51.2207-81.3477 43.4082-81.3477L24.0723-81.3477C16.2109-81.3477 12.4512-77.5879 12.4512-69.6289L12.4512-50.5371C12.4512-42.5293 16.2109-38.7695 24.0723-38.7695ZM24.0723 10.9863L43.4082 10.9863C51.2207 10.9863 55.0293 7.22656 55.0293-0.78125L55.0293-19.8242C55.0293-27.832 51.2207-31.5918 43.4082-31.5918L24.0723-31.5918C16.2109-31.5918 12.4512-27.832 12.4512-19.8242L12.4512-0.78125C12.4512 7.22656 16.2109 10.9863 24.0723 10.9863ZM73.8281 10.9863L93.1641 10.9863C101.025 10.9863 104.785 7.22656 104.785-0.78125L104.785-19.8242C104.785-27.832 101.025-31.5918 93.1641-31.5918L73.8281-31.5918C65.9668-31.5918 62.207-27.832 62.207-19.8242L62.207-0.78125C62.207 7.22656 65.9668 10.9863 73.8281 10.9863Z"/>
  </g>
  <g id="Medium-M" transform="matrix(1 0 0 1 1688.47 1126)">
   <path d="M72.5098-38.9648L93.1152-38.9648C100.244-38.9648 103.711-42.4316 103.711-49.7559L103.711-70.0195C103.711-77.3438 100.244-80.8105 93.1152-80.8105L72.5098-80.8105C65.3809-80.8105 61.8652-77.3438 61.8652-70.0195L61.8652-49.7559C61.8652-42.4316 65.3809-38.9648 72.5098-38.9648ZM23.0957-38.9648L43.6523-38.9648C50.7812-38.9648 54.2969-42.4316 54.2969-49.7559L54.2969-70.0195C54.2969-77.3438 50.7812-80.8105 43.6523-80.8105L23.0957-80.8105C15.918-80.8105 12.4512-77.3438 12.4512-70.0195L12.4512-49.7559C12.4512-42.4316 15.918-38.9648 23.0957-38.9648ZM23.0957 10.4492L43.6523 10.4492C50.7812 10.4492 54.2969 6.98242 54.2969-0.341797L54.2969-20.6055C54.2969-27.9297 50.7812-31.3965 43.6523-31.3965L23.0957-31.3965C15.918-31.3965 12.4512-27.9297 12.4512-20.6055L12.4512-0.341797C12.4512 6.98242 15.918 10.4492 23.0957 10.4492ZM72.5098 10.4492L93.1152 10.4492C100.244 10.4492 103.711 6.98242 103.711-0.341797L103.711-20.6055C103.711-27.9297 100.244-31.3965 93.1152-31.3965L72.5098-31.3965C65.3809-31.3965 61.8652-27.9297 61.8652-20.6055L61.8652-0.341797C61.8652 6.98242 65.3809 10.4492 72.5098 10.4492Z"/>
  </g>
  <g id="Regular-M" transform="matrix(1 0 0 1 1392.45 1126)">
   <path d="M70.8008-39.209L93.0176-39.209C99.2188-39.209 102.344-42.334 102.344-48.7793L102.344-70.6055C102.344-77.0508 99.2188-80.127 93.0176-80.127L70.8008-80.127C64.5508-80.127 61.4258-77.0508 61.4258-70.6055L61.4258-48.7793C61.4258-42.334 64.5508-39.209 70.8008-39.209ZM21.7773-39.209L44.043-39.209C50.2441-39.209 53.3691-42.334 53.3691-48.7793L53.3691-70.6055C53.3691-77.0508 50.2441-80.127 44.043-80.127L21.7773-80.127C15.5762-80.127 12.4512-77.0508 12.4512-70.6055L12.4512-48.7793C12.4512-42.334 15.5762-39.209 21.7773-39.209ZM21.7773 9.76562L44.043 9.76562C50.2441 9.76562 53.3691 6.68945 53.3691 0.244141L53.3691-21.6309C53.3691-28.0273 50.2441-31.1523 44.043-31.1523L21.7773-31.1523C15.5762-31.1523 12.4512-28.0273 12.4512-21.6309L12.4512 0.244141C12.4512 6.68945 15.5762 9.76562 21.7773 9.76562ZM70.8008 9.76562L93.0176 9.76562C99.2188 9.76562 102.344 6.68945 102.344 0.244141L102.344-21.6309C102.344-28.0273 99.2188-31.1523 93.0176-31.1523L70.8008-31.1523C64.5508-31.1523 61.4258-28.0273 61.4258-21.6309L61.4258 0.244141C61.4258 6.68945 64.5508 9.76562 70.8008 9.76562Z"/>
  </g>
  <g id="Light-M" transform="matrix(1 0 0 1 1096.47 1126)">
   <path d="M69.1895-39.3555L92.5293-39.3555C98.0469-39.3555 100.879-42.041 100.879-47.8027L100.879-70.8984C100.879-76.709 98.0469-79.3945 92.5293-79.3945L69.1895-79.3945C63.6719-79.3945 60.8398-76.709 60.8398-70.8984L60.8398-47.8027C60.8398-42.041 63.6719-39.3555 69.1895-39.3555ZM20.752-39.3555L44.1406-39.3555C49.6582-39.3555 52.4414-42.041 52.4414-47.8027L52.4414-70.8984C52.4414-76.709 49.6582-79.3945 44.1406-79.3945L20.752-79.3945C15.2832-79.3945 12.4512-76.709 12.4512-70.8984L12.4512-47.8027C12.4512-42.041 15.2832-39.3555 20.752-39.3555ZM20.752 9.0332L44.1406 9.0332C49.6582 9.0332 52.4414 6.34766 52.4414 0.585938L52.4414-22.5098C52.4414-28.2715 49.6582-30.957 44.1406-30.957L20.752-30.957C15.2832-30.957 12.4512-28.2715 12.4512-22.5098L12.4512 0.585938C12.4512 6.34766 15.2832 9.0332 20.752 9.0332ZM69.1895 9.0332L92.5293 9.0332C98.0469 9.0332 100.879 6.34766 100.879 0.585938L100.879-22.5098C100.879-28.2715 98.0469-30.957 92.5293-30.957L69.1895-30.957C63.6719-30.957 60.8398-28.2715 60.8398-22.5098L60.8398 0.585938C60.8398 6.34766 63.6719 9.0332 69.1895 9.0332Z"/>
  </g>
  <g id="Thin-M" transform="matrix(1 0 0 1 800.758 1126)">
   <path d="M67.041-39.5508L91.8945-39.5508C96.4355-39.5508 98.877-41.6504 98.877-46.582L98.877-71.3379C98.877-76.2207 96.4355-78.3691 91.8945-78.3691L67.041-78.3691C62.5-78.3691 60.0586-76.2207 60.0586-71.3379L60.0586-46.582C60.0586-41.6504 62.5-39.5508 67.041-39.5508ZM19.4336-39.5508L44.2871-39.5508C48.8281-39.5508 51.2695-41.6504 51.2695-46.582L51.2695-71.3379C51.2695-76.2207 48.8281-78.3691 44.2871-78.3691L19.4336-78.3691C14.8926-78.3691 12.4512-76.2207 12.4512-71.3379L12.4512-46.582C12.4512-41.6504 14.8926-39.5508 19.4336-39.5508ZM19.4336 8.05664L44.2871 8.05664C48.8281 8.05664 51.2695 5.95703 51.2695 1.02539L51.2695-23.7305C51.2695-28.6133 48.8281-30.7617 44.2871-30.7617L19.4336-30.7617C14.8926-30.7617 12.4512-28.6133 12.4512-23.7305L12.4512 1.02539C12.4512 5.95703 14.8926 8.05664 19.4336 8.05664ZM67.041 8.05664L91.8945 8.05664C96.4355 8.05664 98.877 5.95703 98.877 1.02539L98.877-23.7305C98.877-28.6133 96.4355-30.7617 91.8945-30.7617L67.041-30.7617C62.5-30.7617 60.0586-28.6133 60.0586-23.7305L60.0586 1.02539C60.0586 5.95703 62.5 8.05664 67.041 8.05664Z"/>
  </g>
  <g id="Ultralight-M" transform="matrix(1 0 0 1 504.535 1126)">
   <path d="M65.9668-39.6484L91.5527-39.6484C95.6543-39.6484 97.9004-41.4551 97.9004-45.9473L97.9004-71.5332C97.9004-76.0254 95.6543-77.832 91.5527-77.832L65.9668-77.832C61.8652-77.832 59.668-76.0254 59.668-71.5332L59.668-45.9473C59.668-41.4551 61.8652-39.6484 65.9668-39.6484ZM18.75-39.6484L44.3848-39.6484C48.4375-39.6484 50.6836-41.4551 50.6836-45.9473L50.6836-71.5332C50.6836-76.0254 48.4375-77.832 44.3848-77.832L18.75-77.832C14.6973-77.832 12.4512-76.0254 12.4512-71.5332L12.4512-45.9473C12.4512-41.4551 14.6973-39.6484 18.75-39.6484ZM18.75 7.56836L44.3848 7.56836C48.4375 7.56836 50.6836 5.71289 50.6836 1.26953L50.6836-24.3652C50.6836-28.8086 48.4375-30.6152 44.3848-30.6152L18.75-30.6152C14.6973-30.6152 12.4512-28.8086 12.4512-24.3652L12.4512 1.26953C12.4512 5.71289 14.6973 7.56836 18.75 7.56836ZM65.9668 7.56836L91.5527 7.56836C95.6543 7.56836 97.9004 5.71289 97.9004 1.26953L97.9004-24.3652C97.9004-28.8086 95.6543-30.6152 91.5527-30.6152L65.9668-30.6152C61.8652-30.6152 59.668-28.8086 59.668-24.3652L59.668 1.26953C59.668 5.71289 61.8652 7.56836 65.9668 7.56836Z"/>
  </g>
  <g id="Black-S" transform="matrix(1 0 0 1 2885.5 696)">
   <path d="M62.793-37.3047L73.2422-37.3047C82.0312-37.3047 86.0352-41.3086 86.0352-50.0977L86.0352-60.5469C86.0352-69.3359 82.0312-73.3398 73.2422-73.3398L62.793-73.3398C54.0039-73.3398 50-69.3359 50-60.5469L50-50.0977C50-41.3086 54.0039-37.3047 62.793-37.3047ZM22.5586-37.3047L33.0078-37.3047C41.7969-37.3047 45.8008-41.3086 45.8008-50.0977L45.8008-60.5469C45.8008-69.3359 41.7969-73.3398 33.0078-73.3398L22.5586-73.3398C13.7695-73.3398 9.76562-69.3359 9.76562-60.5469L9.76562-50.0977C9.76562-41.3086 13.7695-37.3047 22.5586-37.3047ZM22.5586 2.92969L33.0078 2.92969C41.7969 2.92969 45.8008-1.07422 45.8008-9.86328L45.8008-20.3125C45.8008-29.1016 41.7969-33.1055 33.0078-33.1055L22.5586-33.1055C13.7695-33.1055 9.76562-29.1016 9.76562-20.3125L9.76562-9.86328C9.76562-1.07422 13.7695 2.92969 22.5586 2.92969ZM62.793 2.92969L73.2422 2.92969C82.0312 2.92969 86.0352-1.07422 86.0352-9.86328L86.0352-20.3125C86.0352-29.1016 82.0312-33.1055 73.2422-33.1055L62.793-33.1055C54.0039-33.1055 50-29.1016 50-20.3125L50-9.86328C50-1.07422 54.0039 2.92969 62.793 2.92969Z"/>
  </g>
  <g id="Heavy-S" transform="matrix(1 0 0 1 2589.4 696)">
   <path d="M61.2305-37.5488L73.1934-37.5488C81.1523-37.5488 84.8145-41.2109 84.8145-49.2188L84.8145-61.084C84.8145-69.043 81.1523-72.7539 73.1934-72.7539L61.2305-72.7539C53.3203-72.7539 49.6094-69.043 49.6094-61.084L49.6094-49.2188C49.6094-41.2109 53.3203-37.5488 61.2305-37.5488ZM21.3867-37.5488L33.3496-37.5488C41.3086-37.5488 44.9707-41.2109 44.9707-49.2188L44.9707-61.084C44.9707-69.043 41.3086-72.7539 33.3496-72.7539L21.3867-72.7539C13.4277-72.7539 9.76562-69.043 9.76562-61.084L9.76562-49.2188C9.76562-41.2109 13.4277-37.5488 21.3867-37.5488ZM21.3867 2.34375L33.3496 2.34375C41.3086 2.34375 44.9707-1.36719 44.9707-9.32617L44.9707-21.1914C44.9707-29.1992 41.3086-32.8613 33.3496-32.8613L21.3867-32.8613C13.4277-32.8613 9.76562-29.1992 9.76562-21.1914L9.76562-9.32617C9.76562-1.36719 13.4277 2.34375 21.3867 2.34375ZM61.2305 2.34375L73.1934 2.34375C81.1523 2.34375 84.8145-1.36719 84.8145-9.32617L84.8145-21.1914C84.8145-29.1992 81.1523-32.8613 73.1934-32.8613L61.2305-32.8613C53.3203-32.8613 49.6094-29.1992 49.6094-21.1914L49.6094-9.32617C49.6094-1.36719 53.3203 2.34375 61.2305 2.34375Z"/>
  </g>
  <g id="Bold-S" transform="matrix(1 0 0 1 2293.35 696)">
   <path d="M59.5215-37.793L73.1934-37.793C80.1758-37.793 83.4961-41.1133 83.4961-48.1934L83.4961-61.6699C83.4961-68.75 80.1758-72.0703 73.1934-72.0703L59.5215-72.0703C52.5391-72.0703 49.2188-68.75 49.2188-61.6699L49.2188-48.1934C49.2188-41.1133 52.5391-37.793 59.5215-37.793ZM20.0684-37.793L33.7402-37.793C40.7227-37.793 44.043-41.1133 44.043-48.1934L44.043-61.6699C44.043-68.75 40.7227-72.0703 33.7402-72.0703L20.0684-72.0703C13.0859-72.0703 9.76562-68.75 9.76562-61.6699L9.76562-48.1934C9.76562-41.1133 13.0859-37.793 20.0684-37.793ZM20.0684 1.66016L33.7402 1.66016C40.7227 1.66016 44.043-1.66016 44.043-8.74023L44.043-22.2168C44.043-29.2969 40.7227-32.6172 33.7402-32.6172L20.0684-32.6172C13.0859-32.6172 9.76562-29.2969 9.76562-22.2168L9.76562-8.74023C9.76562-1.66016 13.0859 1.66016 20.0684 1.66016ZM59.5215 1.66016L73.1934 1.66016C80.1758 1.66016 83.4961-1.66016 83.4961-8.74023L83.4961-22.2168C83.4961-29.2969 80.1758-32.6172 73.1934-32.6172L59.5215-32.6172C52.5391-32.6172 49.2188-29.2969 49.2188-22.2168L49.2188-8.74023C49.2188-1.66016 52.5391 1.66016 59.5215 1.66016Z"/>
  </g>
  <g id="Semibold-S" transform="matrix(1 0 0 1 1997.1 696)">
   <path d="M58.3496-37.9883L73.1445-37.9883C79.4922-37.9883 82.5684-41.0645 82.5684-47.5098L82.5684-62.0605C82.5684-68.5547 79.4922-71.582 73.1445-71.582L58.3496-71.582C52.002-71.582 48.9258-68.5547 48.9258-62.0605L48.9258-47.5098C48.9258-41.0645 52.002-37.9883 58.3496-37.9883ZM19.1406-37.9883L33.9844-37.9883C40.332-37.9883 43.3594-41.0645 43.3594-47.5098L43.3594-62.0605C43.3594-68.5547 40.332-71.582 33.9844-71.582L19.1406-71.582C12.793-71.582 9.76562-68.5547 9.76562-62.0605L9.76562-47.5098C9.76562-41.0645 12.793-37.9883 19.1406-37.9883ZM19.1406 1.17188L33.9844 1.17188C40.332 1.17188 43.3594-1.85547 43.3594-8.34961L43.3594-22.9004C43.3594-29.3457 40.332-32.4219 33.9844-32.4219L19.1406-32.4219C12.793-32.4219 9.76562-29.3457 9.76562-22.9004L9.76562-8.34961C9.76562-1.85547 12.793 1.17188 19.1406 1.17188ZM58.3496 1.17188L73.1445 1.17188C79.4922 1.17188 82.5684-1.85547 82.5684-8.34961L82.5684-22.9004C82.5684-29.3457 79.4922-32.4219 73.1445-32.4219L58.3496-32.4219C52.002-32.4219 48.9258-29.3457 48.9258-22.9004L48.9258-8.34961C48.9258-1.85547 52.002 1.17188 58.3496 1.17188Z"/>
  </g>
  <g id="Medium-S" transform="matrix(1 0 0 1 1700.75 696)">
   <path d="M57.4219-38.1348L73.1445-38.1348C79.0039-38.1348 81.8359-41.0156 81.8359-46.9727L81.8359-62.4023C81.8359-68.3594 79.0039-71.2402 73.1445-71.2402L57.4219-71.2402C51.5625-71.2402 48.7305-68.3594 48.7305-62.4023L48.7305-46.9727C48.7305-41.0156 51.5625-38.1348 57.4219-38.1348ZM18.457-38.1348L34.1797-38.1348C40.0391-38.1348 42.8711-41.0156 42.8711-46.9727L42.8711-62.4023C42.8711-68.3594 40.0391-71.2402 34.1797-71.2402L18.457-71.2402C12.5977-71.2402 9.76562-68.3594 9.76562-62.4023L9.76562-46.9727C9.76562-41.0156 12.5977-38.1348 18.457-38.1348ZM18.457 0.830078L34.1797 0.830078C40.0391 0.830078 42.8711-2.05078 42.8711-8.00781L42.8711-23.4375C42.8711-29.3945 40.0391-32.2754 34.1797-32.2754L18.457-32.2754C12.5977-32.2754 9.76562-29.3945 9.76562-23.4375L9.76562-8.00781C9.76562-2.05078 12.5977 0.830078 18.457 0.830078ZM57.4219 0.830078L73.1445 0.830078C79.0039 0.830078 81.8359-2.05078 81.8359-8.00781L81.8359-23.4375C81.8359-29.3945 79.0039-32.2754 73.1445-32.2754L57.4219-32.2754C51.5625-32.2754 48.7305-29.3945 48.7305-23.4375L48.7305-8.00781C48.7305-2.05078 51.5625 0.830078 57.4219 0.830078Z"/>
  </g>
  <g id="Regular-S" transform="matrix(1 0 0 1 1404.51 696)">
   <path d="M56.25-38.2812L73.0957-38.2812C78.3203-38.2812 80.9082-40.918 80.9082-46.2891L80.9082-62.793C80.9082-68.1641 78.3203-70.8008 73.0957-70.8008L56.25-70.8008C51.0254-70.8008 48.4375-68.1641 48.4375-62.793L48.4375-46.2891C48.4375-40.918 51.0254-38.2812 56.25-38.2812ZM17.5781-38.2812L34.4238-38.2812C39.6484-38.2812 42.2363-40.918 42.2363-46.2891L42.2363-62.793C42.2363-68.1641 39.6484-70.8008 34.4238-70.8008L17.5781-70.8008C12.3535-70.8008 9.76562-68.1641 9.76562-62.793L9.76562-46.2891C9.76562-40.918 12.3535-38.2812 17.5781-38.2812ZM17.5781 0.390625L34.4238 0.390625C39.6484 0.390625 42.2363-2.24609 42.2363-7.61719L42.2363-24.1211C42.2363-29.4922 39.6484-32.0801 34.4238-32.0801L17.5781-32.0801C12.3535-32.0801 9.76562-29.4922 9.76562-24.1211L9.76562-7.61719C9.76562-2.24609 12.3535 0.390625 17.5781 0.390625ZM56.25 0.390625L73.0957 0.390625C78.3203 0.390625 80.9082-2.24609 80.9082-7.61719L80.9082-24.1211C80.9082-29.4922 78.3203-32.0801 73.0957-32.0801L56.25-32.0801C51.0254-32.0801 48.4375-29.4922 48.4375-24.1211L48.4375-7.61719C48.4375-2.24609 51.0254 0.390625 56.25 0.390625Z"/>
  </g>
  <g id="Light-S" transform="matrix(1 0 0 1 1108.46 696)">
   <path d="M54.834-38.4277L72.7051-38.4277C77.2949-38.4277 79.5898-40.6738 79.5898-45.459L79.5898-63.0859C79.5898-67.8711 77.2949-70.1172 72.7051-70.1172L54.834-70.1172C50.2441-70.1172 47.9004-67.8711 47.9004-63.0859L47.9004-45.459C47.9004-40.6738 50.2441-38.4277 54.834-38.4277ZM16.6504-38.4277L34.5215-38.4277C39.1113-38.4277 41.4551-40.6738 41.4551-45.459L41.4551-63.0859C41.4551-67.8711 39.1113-70.1172 34.5215-70.1172L16.6504-70.1172C12.1094-70.1172 9.76562-67.8711 9.76562-63.0859L9.76562-45.459C9.76562-40.6738 12.1094-38.4277 16.6504-38.4277ZM16.6504-0.292969L34.5215-0.292969C39.1113-0.292969 41.4551-2.53906 41.4551-7.32422L41.4551-24.9023C41.4551-29.6875 39.1113-31.9336 34.5215-31.9336L16.6504-31.9336C12.1094-31.9336 9.76562-29.6875 9.76562-24.9023L9.76562-7.32422C9.76562-2.53906 12.1094-0.292969 16.6504-0.292969ZM54.834-0.292969L72.7051-0.292969C77.2949-0.292969 79.5898-2.53906 79.5898-7.32422L79.5898-24.9023C79.5898-29.6875 77.2949-31.9336 72.7051-31.9336L54.834-31.9336C50.2441-31.9336 47.9004-29.6875 47.9004-24.9023L47.9004-7.32422C47.9004-2.53906 50.2441-0.292969 54.834-0.292969Z"/>
  </g>
  <g id="Thin-S" transform="matrix(1 0 0 1 812.599 696)">
   <path d="M52.9297-38.5742L72.1191-38.5742C75.8789-38.5742 77.8809-40.332 77.8809-44.3359L77.8809-63.4277C77.8809-67.4316 75.8789-69.2383 72.1191-69.2383L52.9297-69.2383C49.2188-69.2383 47.2168-67.4316 47.2168-63.4277L47.2168-44.3359C47.2168-40.332 49.2188-38.5742 52.9297-38.5742ZM15.4785-38.5742L34.668-38.5742C38.4277-38.5742 40.4297-40.332 40.4297-44.3359L40.4297-63.4277C40.4297-67.4316 38.4277-69.2383 34.668-69.2383L15.4785-69.2383C11.7676-69.2383 9.76562-67.4316 9.76562-63.4277L9.76562-44.3359C9.76562-40.332 11.7676-38.5742 15.4785-38.5742ZM15.4785-1.12305L34.668-1.12305C38.4277-1.12305 40.4297-2.88086 40.4297-6.88477L40.4297-25.9766C40.4297-29.9805 38.4277-31.7871 34.668-31.7871L15.4785-31.7871C11.7676-31.7871 9.76562-29.9805 9.76562-25.9766L9.76562-6.88477C9.76562-2.88086 11.7676-1.12305 15.4785-1.12305ZM52.9297-1.12305L72.1191-1.12305C75.8789-1.12305 77.8809-2.88086 77.8809-6.88477L77.8809-25.9766C77.8809-29.9805 75.8789-31.7871 72.1191-31.7871L52.9297-31.7871C49.2188-31.7871 47.2168-29.9805 47.2168-25.9766L47.2168-6.88477C47.2168-2.88086 49.2188-1.12305 52.9297-1.12305Z"/>
  </g>
  <g id="Ultralight-S" transform="matrix(1 0 0 1 516.352 696)">
   <path d="M52.002-38.6719L71.8262-38.6719C75.1465-38.6719 76.9531-40.1855 76.9531-43.7988L76.9531-63.623C76.9531-67.2363 75.1465-68.75 71.8262-68.75L52.002-68.75C48.6816-68.75 46.875-67.2363 46.875-63.623L46.875-43.7988C46.875-40.1855 48.6816-38.6719 52.002-38.6719ZM14.8926-38.6719L34.7656-38.6719C38.0859-38.6719 39.8926-40.1855 39.8926-43.7988L39.8926-63.623C39.8926-67.2363 38.0859-68.75 34.7656-68.75L14.8926-68.75C11.5723-68.75 9.76562-67.2363 9.76562-63.623L9.76562-43.7988C9.76562-40.1855 11.5723-38.6719 14.8926-38.6719ZM14.8926-1.5625L34.7656-1.5625C38.0859-1.5625 39.8926-3.07617 39.8926-6.68945L39.8926-26.5137C39.8926-30.127 38.0859-31.6406 34.7656-31.6406L14.8926-31.6406C11.5723-31.6406 9.76562-30.127 9.76562-26.5137L9.76562-6.68945C9.76562-3.07617 11.5723-1.5625 14.8926-1.5625ZM52.002-1.5625L71.8262-1.5625C75.1465-1.5625 76.9531-3.07617 76.9531-6.68945L76.9531-26.5137C76.9531-30.127 75.1465-31.6406 71.8262-31.6406L52.002-31.6406C48.6816-31.6406 46.875-30.127 46.875-26.5137L46.875-6.68945C46.875-3.07617 48.6816-1.5625 52.002-1.5625Z"/>
  </g>
 </g>
</svg>
