<?xml version="1.0" encoding="UTF-8"?>
<!--Generator: Apple Native CoreSVG 149-->
<!DOCTYPE svg
PUBLIC "-//W3C//DTD SVG 1.1//EN"
       "http://www.w3.org/Graphics/SVG/1.1/DTD/svg11.dtd">
<svg version="1.1" xmlns="http://www.w3.org/2000/svg" xmlns:xlink="http://www.w3.org/1999/xlink" width="3300" height="2200">
 <!--glyph: "uni100176.medium", point size: 100.000000, font version: "Version 16.0d18e1", template writer version: "8"-->
 <g id="Notes">
  <rect height="2200" id="artboard" style="fill:white;opacity:1" width="3300" x="0" y="0"/>
  <line id="" style="fill:none;stroke:black;opacity:1;stroke-width:0.5;" x1="263" x2="3036" y1="292" y2="292"/>
  <text style="stroke:none;fill:black;font-family:-apple-system,&quot;SF Pro Display&quot;,&quot;SF Pro Text&quot;,Helvetica,sans-serif;font-weight:bold;" transform="matrix(1 0 0 1 263 322)">Weight/Scale Variations</text>
  <text style="stroke:none;fill:black;font-family:-apple-system,&quot;SF Pro Display&quot;,&quot;SF Pro Text&quot;,Helvetica,sans-serif;text-anchor:middle;" transform="matrix(1 0 0 1 559.711 322)">Ultralight</text>
  <text style="stroke:none;fill:black;font-family:-apple-system,&quot;SF Pro Display&quot;,&quot;SF Pro Text&quot;,Helvetica,sans-serif;text-anchor:middle;" transform="matrix(1 0 0 1 856.422 322)">Thin</text>
  <text style="stroke:none;fill:black;font-family:-apple-system,&quot;SF Pro Display&quot;,&quot;SF Pro Text&quot;,Helvetica,sans-serif;text-anchor:middle;" transform="matrix(1 0 0 1 1153.13 322)">Light</text>
  <text style="stroke:none;fill:black;font-family:-apple-system,&quot;SF Pro Display&quot;,&quot;SF Pro Text&quot;,Helvetica,sans-serif;text-anchor:middle;" transform="matrix(1 0 0 1 1449.84 322)">Regular</text>
  <text style="stroke:none;fill:black;font-family:-apple-system,&quot;SF Pro Display&quot;,&quot;SF Pro Text&quot;,Helvetica,sans-serif;text-anchor:middle;" transform="matrix(1 0 0 1 1746.56 322)">Medium</text>
  <text style="stroke:none;fill:black;font-family:-apple-system,&quot;SF Pro Display&quot;,&quot;SF Pro Text&quot;,Helvetica,sans-serif;text-anchor:middle;" transform="matrix(1 0 0 1 2043.27 322)">Semibold</text>
  <text style="stroke:none;fill:black;font-family:-apple-system,&quot;SF Pro Display&quot;,&quot;SF Pro Text&quot;,Helvetica,sans-serif;text-anchor:middle;" transform="matrix(1 0 0 1 2339.98 322)">Bold</text>
  <text style="stroke:none;fill:black;font-family:-apple-system,&quot;SF Pro Display&quot;,&quot;SF Pro Text&quot;,Helvetica,sans-serif;text-anchor:middle;" transform="matrix(1 0 0 1 2636.69 322)">Heavy</text>
  <text style="stroke:none;fill:black;font-family:-apple-system,&quot;SF Pro Display&quot;,&quot;SF Pro Text&quot;,Helvetica,sans-serif;text-anchor:middle;" transform="matrix(1 0 0 1 2933.4 322)">Black</text>
  <line id="" style="fill:none;stroke:black;opacity:1;stroke-width:0.5;" x1="263" x2="3036" y1="1903" y2="1903"/>
  <g id="" transform="matrix(1 0 0 1 263 1933)">
   <path d="M9.24805 0.830078C13.5547 0.830078 17.1387-2.74414 17.1387-7.05078C17.1387-11.3574 13.5449-14.9316 9.23828-14.9316C4.94141-14.9316 1.36719-11.3574 1.36719-7.05078C1.36719-2.74414 4.95117 0.830078 9.24805 0.830078ZM9.24805-0.654297C5.70312-0.654297 2.87109-3.49609 2.87109-7.05078C2.87109-10.6055 5.69336-13.4473 9.23828-13.4473C12.793-13.4473 15.6348-10.6055 15.6445-7.05078C15.6543-3.49609 12.8027-0.654297 9.24805-0.654297ZM6.39648-6.31836L8.50586-6.31836L8.50586-4.19922C8.50586-3.75977 8.79883-3.45703 9.22852-3.45703C9.67773-3.45703 9.9707-3.75977 9.9707-4.19922L9.9707-6.31836L12.0996-6.31836C12.5391-6.31836 12.8418-6.61133 12.8418-7.04102C12.8418-7.48047 12.5391-7.7832 12.0996-7.7832L9.9707-7.7832L9.9707-9.89258C9.9707-10.3418 9.67773-10.6445 9.22852-10.6445C8.79883-10.6445 8.50586-10.3418 8.50586-9.89258L8.50586-7.7832L6.39648-7.7832C5.94727-7.7832 5.64453-7.48047 5.64453-7.04102C5.64453-6.61133 5.94727-6.31836 6.39648-6.31836Z"/>
  </g>
  <g id="" transform="matrix(1 0 0 1 281.506 1933)">
   <path d="M11.709 2.91016C17.1582 2.91016 21.6699-1.61133 21.6699-7.05078C21.6699-12.5 17.1484-17.0117 11.6992-17.0117C6.25977-17.0117 1.74805-12.5 1.74805-7.05078C1.74805-1.61133 6.26953 2.91016 11.709 2.91016ZM11.709 1.25C7.09961 1.25 3.41797-2.44141 3.41797-7.05078C3.41797-11.6602 7.08984-15.3516 11.6992-15.3516C16.3086-15.3516 20-11.6602 20.0098-7.05078C20.0195-2.44141 16.3184 1.25 11.709 1.25ZM7.98828-6.23047L10.8789-6.23047L10.8789-3.32031C10.8789-2.83203 11.2109-2.5 11.6895-2.5C12.1777-2.5 12.5195-2.83203 12.5195-3.32031L12.5195-6.23047L15.4297-6.23047C15.918-6.23047 16.25-6.5625 16.25-7.04102C16.25-7.5293 15.918-7.87109 15.4297-7.87109L12.5195-7.87109L12.5195-10.7617C12.5195-11.2695 12.1777-11.6016 11.6895-11.6016C11.2109-11.6016 10.8789-11.2598 10.8789-10.7617L10.8789-7.87109L7.98828-7.87109C7.48047-7.87109 7.14844-7.5293 7.14844-7.04102C7.14844-6.5625 7.49023-6.23047 7.98828-6.23047Z"/>
  </g>
  <g id="" transform="matrix(1 0 0 1 304.924 1933)">
   <path d="M14.9707 5.66406C21.9336 5.66406 27.6953-0.0976562 27.6953-7.05078C27.6953-14.0137 21.9238-19.7754 14.9609-19.7754C8.00781-19.7754 2.25586-14.0137 2.25586-7.05078C2.25586-0.0976562 8.01758 5.66406 14.9707 5.66406ZM14.9707 3.84766C8.93555 3.84766 4.08203-1.01562 4.08203-7.05078C4.08203-13.0957 8.92578-17.9492 14.9609-17.9492C21.0059-17.9492 25.8594-13.0957 25.8691-7.05078C25.8789-1.01562 21.0156 3.84766 14.9707 3.84766ZM10.0586-6.14258L14.0625-6.14258L14.0625-2.12891C14.0625-1.5918 14.4336-1.2207 14.9512-1.2207C15.4883-1.2207 15.8594-1.5918 15.8594-2.12891L15.8594-6.14258L19.8828-6.14258C20.4102-6.14258 20.791-6.51367 20.791-7.03125C20.791-7.56836 20.4199-7.94922 19.8828-7.94922L15.8594-7.94922L15.8594-11.9531C15.8594-12.5098 15.4883-12.8809 14.9512-12.8809C14.4336-12.8809 14.0625-12.5 14.0625-11.9531L14.0625-7.94922L10.0586-7.94922C9.50195-7.94922 9.13086-7.56836 9.13086-7.03125C9.13086-6.51367 9.51172-6.14258 10.0586-6.14258Z"/>
  </g>
  <text style="stroke:none;fill:black;font-family:-apple-system,&quot;SF Pro Display&quot;,&quot;SF Pro Text&quot;,Helvetica,sans-serif;font-weight:bold;" transform="matrix(1 0 0 1 263 1953)">Design Variations</text>
  <text style="stroke:none;fill:black;font-family:-apple-system,&quot;SF Pro Display&quot;,&quot;SF Pro Text&quot;,Helvetica,sans-serif;" transform="matrix(1 0 0 1 263 1971)">Symbols are supported in up to nine weights and three scales.</text>
  <text style="stroke:none;fill:black;font-family:-apple-system,&quot;SF Pro Display&quot;,&quot;SF Pro Text&quot;,Helvetica,sans-serif;" transform="matrix(1 0 0 1 263 1989)">For optimal layout with text and other symbols, vertically align</text>
  <text style="stroke:none;fill:black;font-family:-apple-system,&quot;SF Pro Display&quot;,&quot;SF Pro Text&quot;,Helvetica,sans-serif;" transform="matrix(1 0 0 1 263 2007)">symbols with the adjacent text.</text>
  <line id="" style="fill:none;stroke:#00AEEF;stroke-width:0.5;opacity:1.0;" x1="776" x2="776" y1="1919" y2="1933"/>
  <g id="" transform="matrix(1 0 0 1 776 1933)">
   <path d="M3.31055 0.126953C3.82812 0.126953 4.08203-0.0683594 4.26758-0.605469L5.52734-4.0625L11.2891-4.0625L12.5488-0.605469C12.7344-0.0683594 12.9883 0.126953 13.4961 0.126953C14.0137 0.126953 14.3457-0.185547 14.3457-0.673828C14.3457-0.839844 14.3164-0.986328 14.2383-1.20117L9.6582-13.3887C9.43359-13.9941 9.0332-14.2871 8.4082-14.2871C7.80273-14.2871 7.39258-13.9941 7.17773-13.3984L2.59766-1.19141C2.51953-0.976562 2.49023-0.830078 2.49023-0.664062C2.49023-0.175781 2.80273 0.126953 3.31055 0.126953ZM6.00586-5.53711L8.37891-12.1094L8.42773-12.1094L10.8008-5.53711Z"/>
  </g>
  <line id="" style="fill:none;stroke:#00AEEF;stroke-width:0.5;opacity:1.0;" x1="792.836" x2="792.836" y1="1919" y2="1933"/>
  <text style="stroke:none;fill:black;font-family:-apple-system,&quot;SF Pro Display&quot;,&quot;SF Pro Text&quot;,Helvetica,sans-serif;font-weight:bold;" transform="matrix(1 0 0 1 776 1953)">Margins</text>
  <text style="stroke:none;fill:black;font-family:-apple-system,&quot;SF Pro Display&quot;,&quot;SF Pro Text&quot;,Helvetica,sans-serif;" transform="matrix(1 0 0 1 776 1971)">Leading and trailing margins on the left and right side of each symbol</text>
  <text style="stroke:none;fill:black;font-family:-apple-system,&quot;SF Pro Display&quot;,&quot;SF Pro Text&quot;,Helvetica,sans-serif;" transform="matrix(1 0 0 1 776 1989)">can be adjusted by modifying the x-location of the margin guidelines.</text>
  <text style="stroke:none;fill:black;font-family:-apple-system,&quot;SF Pro Display&quot;,&quot;SF Pro Text&quot;,Helvetica,sans-serif;" transform="matrix(1 0 0 1 776 2007)">Modifications are automatically applied proportionally to all</text>
  <text style="stroke:none;fill:black;font-family:-apple-system,&quot;SF Pro Display&quot;,&quot;SF Pro Text&quot;,Helvetica,sans-serif;" transform="matrix(1 0 0 1 776 2025)">scales and weights.</text>
  <g id="" transform="matrix(1 0 0 1 1289 1933)">
   <path d="M2.8418 1.86523L4.54102 3.57422C5.40039 4.44336 6.38672 4.38477 7.31445 3.35938L17.4902-7.85156C17.7539-7.76367 18.0273-7.7832 18.3398-7.8418L19.4043-8.03711L20.0684-7.36328L20.0293-6.80664C19.9902-6.30859 20.1172-5.92773 20.6055-5.44922L21.3672-4.70703C21.8457-4.22852 22.4609-4.19922 22.9297-4.66797L25.8398-7.58789C26.3086-8.05664 26.2891-8.65234 25.8105-9.13086L25.0391-9.89258C24.5605-10.3711 24.1895-10.5273 23.7109-10.4883L23.1348-10.4395L22.4902-11.0742L22.7344-12.1973C22.8613-12.7637 22.7051-13.2031 22.1191-13.7891L19.9219-15.9766C16.582-19.2969 12.1484-19.2188 9.25781-16.3281C8.83789-15.918 8.80859-15.3418 9.04297-14.9512C9.27734-14.5898 9.73633-14.3555 10.3809-14.5215C11.8457-14.8633 13.3691-14.9219 14.7949-13.9844L14.209-12.5293C14.0137-12.0508 13.9844-11.6504 14.1113-11.2891L3.04688-0.898438C2.06055 0.0195312 1.98242 0.996094 2.8418 1.86523ZM10.752-15.957C13.1836-17.7344 16.4746-17.4316 18.7012-15.2051L21.1328-12.793C21.3672-12.5586 21.4062-12.373 21.3379-12.0312L21.0156-10.5469L22.5195-9.0625L23.5059-9.12109C23.7598-9.13086 23.8379-9.11133 24.0332-8.91602L24.6094-8.33984L22.168-5.89844L21.5918-6.47461C21.3965-6.66992 21.3672-6.74805 21.377-7.01172L21.4453-7.98828L19.9512-9.47266L18.4277-9.21875C18.1055-9.15039 17.959-9.17969 17.7148-9.41406L15.7129-11.416C15.459-11.6504 15.4297-11.8164 15.5859-12.1875L16.4648-14.2773C14.9023-15.7324 12.8711-16.3574 10.8398-15.7617C10.6836-15.7227 10.625-15.8496 10.752-15.957ZM5.27344 2.30469L4.10156 1.14258C3.63281 0.683594 3.74023 0.341797 4.14062-0.0195312L14.9512-10.1953L16.416-8.71094L6.42578 2.27539C6.07422 2.67578 5.74219 2.77344 5.27344 2.30469Z"/>
  </g>
  <text style="stroke:none;fill:black;font-family:-apple-system,&quot;SF Pro Display&quot;,&quot;SF Pro Text&quot;,Helvetica,sans-serif;font-weight:bold;" transform="matrix(1 0 0 1 1289 1953)">Exporting</text>
  <text style="stroke:none;fill:black;font-family:-apple-system,&quot;SF Pro Display&quot;,&quot;SF Pro Text&quot;,Helvetica,sans-serif;" transform="matrix(1 0 0 1 1289 1971)">Symbols should be outlined when exporting to ensure the</text>
  <text style="stroke:none;fill:black;font-family:-apple-system,&quot;SF Pro Display&quot;,&quot;SF Pro Text&quot;,Helvetica,sans-serif;" transform="matrix(1 0 0 1 1289 1989)">design is preserved when submitting to Xcode.</text>
  <text id="template-version" style="stroke:none;fill:black;font-family:-apple-system,&quot;SF Pro Display&quot;,&quot;SF Pro Text&quot;,Helvetica,sans-serif;text-anchor:end;" transform="matrix(1 0 0 1 3036 1933)">Template v.2.0</text>
  <text style="stroke:none;fill:black;font-family:-apple-system,&quot;SF Pro Display&quot;,&quot;SF Pro Text&quot;,Helvetica,sans-serif;text-anchor:end;" transform="matrix(1 0 0 1 3036 1951)">Requires Xcode 12 or greater</text>
  <text style="stroke:none;fill:black;font-family:-apple-system,&quot;SF Pro Display&quot;,&quot;SF Pro Text&quot;,Helvetica,sans-serif;text-anchor:end;" transform="matrix(1 0 0 1 3036 1969)">Generated from textbox</text>
  <text style="stroke:none;fill:black;font-family:-apple-system,&quot;SF Pro Display&quot;,&quot;SF Pro Text&quot;,Helvetica,sans-serif;text-anchor:end;" transform="matrix(1 0 0 1 3036 1987)">Typeset at 100 points</text>
  <text style="stroke:none;fill:black;font-family:-apple-system,&quot;SF Pro Display&quot;,&quot;SF Pro Text&quot;,Helvetica,sans-serif;" transform="matrix(1 0 0 1 263 726)">Small</text>
  <text style="stroke:none;fill:black;font-family:-apple-system,&quot;SF Pro Display&quot;,&quot;SF Pro Text&quot;,Helvetica,sans-serif;" transform="matrix(1 0 0 1 263 1156)">Medium</text>
  <text style="stroke:none;fill:black;font-family:-apple-system,&quot;SF Pro Display&quot;,&quot;SF Pro Text&quot;,Helvetica,sans-serif;" transform="matrix(1 0 0 1 263 1586)">Large</text>
 </g>
 <g id="Guides">
  <g id="H-reference" style="fill:#27AAE1;stroke:none;" transform="matrix(1 0 0 1 339 696)">
   <path d="M0.976562 0L3.66211 0L12.9883-24.4629L45.752-24.4629L55.127 0L57.7637 0L30.6152-70.459L28.125-70.459ZM29.3457-67.1387L29.4434-67.1387L44.873-26.709L13.8672-26.709Z"/>
  </g>
  <line id="Baseline-S" style="fill:none;stroke:#27AAE1;opacity:1;stroke-width:0.5;" x1="263" x2="3036" y1="696" y2="696"/>
  <line id="Capline-S" style="fill:none;stroke:#27AAE1;opacity:1;stroke-width:0.5;" x1="263" x2="3036" y1="625.541" y2="625.541"/>
  <g id="H-reference" style="fill:#27AAE1;stroke:none;" transform="matrix(1 0 0 1 339 1126)">
   <path d="M0.976562 0L3.66211 0L12.9883-24.4629L45.752-24.4629L55.127 0L57.7637 0L30.6152-70.459L28.125-70.459ZM29.3457-67.1387L29.4434-67.1387L44.873-26.709L13.8672-26.709Z"/>
  </g>
  <line id="Baseline-M" style="fill:none;stroke:#27AAE1;opacity:1;stroke-width:0.5;" x1="263" x2="3036" y1="1126" y2="1126"/>
  <line id="Capline-M" style="fill:none;stroke:#27AAE1;opacity:1;stroke-width:0.5;" x1="263" x2="3036" y1="1055.54" y2="1055.54"/>
  <g id="H-reference" style="fill:#27AAE1;stroke:none;" transform="matrix(1 0 0 1 339 1556)">
   <path d="M0.976562 0L3.66211 0L12.9883-24.4629L45.752-24.4629L55.127 0L57.7637 0L30.6152-70.459L28.125-70.459ZM29.3457-67.1387L29.4434-67.1387L44.873-26.709L13.8672-26.709Z"/>
  </g>
  <line id="Baseline-L" style="fill:none;stroke:#27AAE1;opacity:1;stroke-width:0.5;" x1="263" x2="3036" y1="1556" y2="1556"/>
  <line id="Capline-L" style="fill:none;stroke:#27AAE1;opacity:1;stroke-width:0.5;" x1="263" x2="3036" y1="1485.54" y2="1485.54"/>
  <line id="left-margin" style="fill:none;stroke:#00AEEF;stroke-width:0.5;opacity:1.0;" x1="1377.41" x2="1377.41" y1="1030.79" y2="1150.12"/>
  <line id="right-margin" style="fill:none;stroke:#00AEEF;stroke-width:0.5;opacity:1.0;" x1="1522.28" x2="1522.28" y1="1030.79" y2="1150.12"/>
 </g>
 <g id="Symbols">
  <g id="Black-L" transform="matrix(1 0 0 1 2839.67 1556)">
   <path d="M41.7969-96.875C26.5625-96.875 17.9199-88.2812 17.9199-73.0957L17.9199-65.918C17.9199-59.9121 22.0703-55.6641 28.0273-55.6641C33.9844-55.6641 38.1348-59.9121 38.1348-65.918L38.1348-70.2148C38.1348-74.7559 40.2832-76.6602 44.5312-76.6602L142.92-76.6602C147.119-76.6602 149.316-74.7559 149.316-70.2148L149.316-65.918C149.316-59.9121 153.467-55.6641 159.424-55.6641C165.381-55.6641 169.531-59.9121 169.531-65.918L169.531-73.0957C169.531-88.2812 160.889-96.875 145.654-96.875ZM93.75-6.34766C100.244-6.34766 104.004-10.5957 104.004-17.6758L104.004-48.6328L112.158-48.6328C117.432-48.6328 120.557-51.4648 120.557-56.2988C120.557-61.1328 117.432-64.0137 112.158-64.0137L75.3418-64.0137C70.0684-64.0137 66.9434-61.1328 66.9434-56.2988C66.9434-51.4648 70.0684-48.6328 75.3418-48.6328L83.4961-48.6328L83.4961-17.6758C83.4961-10.5957 87.207-6.34766 93.75-6.34766ZM28.0273-23.8281C34.6191-23.8281 39.9902-29.1992 39.9902-35.791C39.9902-42.334 34.6191-47.7539 28.0273-47.7539C21.4844-47.7539 16.0645-42.334 16.0645-35.791C16.0645-29.1992 21.4844-23.8281 28.0273-23.8281ZM159.424-23.8281C165.967-23.8281 171.387-29.1992 171.387-35.791C171.387-42.334 165.967-47.7539 159.424-47.7539C152.832-47.7539 147.461-42.3828 147.461-35.791C147.461-29.1992 152.832-23.8281 159.424-23.8281ZM41.7969 26.5137L145.654 26.5137C160.889 26.5137 169.531 17.8711 169.531 2.68555L169.531-5.51758C169.531-11.5723 165.381-15.7715 159.424-15.7715C153.418-15.7715 149.316-11.5723 149.316-5.51758L149.316-0.146484C149.316 4.39453 147.119 6.29883 142.92 6.29883L44.5312 6.29883C40.2832 6.29883 38.1348 4.39453 38.1348-0.146484L38.1348-5.51758C38.1348-11.5723 33.9844-15.7715 28.0273-15.7715C22.0703-15.7715 17.9199-11.5723 17.9199-5.51758L17.9199 2.68555C17.9199 17.8711 26.5625 26.5137 41.7969 26.5137Z"/>
  </g>
  <g id="Heavy-L" transform="matrix(1 0 0 1 2543.01 1556)">
   <path d="M41.0156-95.8496C26.416-95.8496 18.3105-87.793 18.3105-73.2422L18.3105-63.7695C18.3105-58.4961 21.8262-54.8828 27.0508-54.8828C32.2266-54.8828 35.791-58.4961 35.791-63.7695L35.791-70.9473C35.791-76.0742 38.3301-78.3691 43.1641-78.3691L144.189-78.3691C148.975-78.3691 151.562-76.0742 151.562-70.9473L151.562-63.7695C151.562-58.4961 155.127-54.8828 160.303-54.8828C165.527-54.8828 169.043-58.4961 169.043-63.7695L169.043-73.2422C169.043-87.793 160.938-95.8496 146.289-95.8496ZM93.6523-6.34766C99.2676-6.34766 102.539-10.0098 102.539-16.1621L102.539-50.5859L112.549-50.5859C117.09-50.5859 119.873-53.0762 119.873-57.2754C119.873-61.4746 117.09-64.0137 112.549-64.0137L74.8047-64.0137C70.3125-64.0137 67.5293-61.4746 67.5293-57.2754C67.5293-53.0762 70.3125-50.5859 74.8047-50.5859L84.8145-50.5859L84.8145-16.1621C84.8145-10.0586 87.9883-6.34766 93.6523-6.34766ZM27.0508-24.9512C33.1055-24.9512 38.0371-29.9316 38.0371-35.9863C38.0371-41.9922 33.1055-46.9238 27.0508-46.9238C21.0449-46.9238 16.0645-41.9922 16.0645-35.9863C16.0645-29.9316 21.0449-24.9512 27.0508-24.9512ZM160.303-24.9512C166.309-24.9512 171.289-29.9316 171.289-35.9863C171.289-41.9922 166.309-46.9238 160.303-46.9238C154.248-46.9238 149.316-41.9922 149.316-35.9863C149.316-29.9316 154.248-24.9512 160.303-24.9512ZM41.0156 25.4883L146.289 25.4883C160.938 25.4883 169.043 17.4316 169.043 2.88086L169.043-8.00781C169.043-13.2812 165.527-16.8457 160.303-16.8457C155.078-16.8457 151.562-13.2812 151.562-8.00781L151.562 0.585938C151.562 5.71289 148.975 8.00781 144.189 8.00781L43.1641 8.00781C38.3301 8.00781 35.791 5.71289 35.791 0.585938L35.791-8.00781C35.791-13.2812 32.2266-16.8457 27.0508-16.8457C21.8262-16.8457 18.3105-13.2812 18.3105-8.00781L18.3105 2.88086C18.3105 17.4316 26.416 25.4883 41.0156 25.4883Z"/>
  </g>
  <g id="Bold-L" transform="matrix(1 0 0 1 2246.37 1556)">
   <path d="M40.1855-94.7266C26.2695-94.7266 18.75-87.2559 18.75-73.3887L18.75-61.3281C18.75-56.9336 21.6309-54.0039 25.9277-54.0039C30.2734-54.0039 33.1543-56.9336 33.1543-61.3281L33.1543-71.7285C33.1543-77.5391 36.1328-80.2734 41.6504-80.2734L145.605-80.2734C151.074-80.2734 154.053-77.5391 154.053-71.7285L154.053-61.3281C154.053-56.9336 156.934-54.0039 161.279-54.0039C165.674-54.0039 168.506-56.9336 168.506-61.3281L168.506-73.3887C168.506-87.207 160.986-94.7266 147.07-94.7266ZM93.5059-6.34766C98.1934-6.34766 100.879-9.42383 100.879-14.4043L100.879-52.7344L113.037-52.7344C116.699-52.7344 119.043-54.8828 119.043-58.3984C119.043-61.9141 116.699-64.0137 113.037-64.0137L74.2188-64.0137C70.5566-64.0137 68.2129-61.9141 68.2129-58.3984C68.2129-54.8828 70.5566-52.7344 74.2188-52.7344L86.2793-52.7344L86.2793-14.4043C86.2793-9.42383 88.8672-6.34766 93.5059-6.34766ZM25.9277-26.2695C31.3965-26.2695 35.8398-30.7129 35.8398-36.1816C35.8398-41.5527 31.3965-46.0449 25.9277-46.0449C20.5566-46.0449 16.0645-41.5527 16.0645-36.1816C16.0645-30.7129 20.5566-26.2695 25.9277-26.2695ZM161.279-26.2695C166.699-26.2695 171.143-30.7129 171.143-36.1816C171.143-41.5527 166.699-46.0449 161.279-46.0449C155.859-46.0449 151.416-41.6016 151.416-36.1816C151.416-30.7129 155.859-26.2695 161.279-26.2695ZM40.1855 24.3652L147.07 24.3652C160.986 24.3652 168.506 16.8945 168.506 3.07617L168.506-10.791C168.506-15.1855 165.625-18.0664 161.279-18.0664C156.934-18.0664 154.053-15.1855 154.053-10.791L154.053 1.41602C154.053 7.17773 151.074 9.91211 145.605 9.91211L41.6504 9.91211C36.1328 9.91211 33.1543 7.17773 33.1543 1.41602L33.1543-10.791C33.1543-15.1855 30.2734-18.0664 25.9277-18.0664C21.6309-18.0664 18.75-15.1855 18.75-10.791L18.75 3.07617C18.75 16.8945 26.2695 24.3652 40.1855 24.3652Z"/>
  </g>
  <g id="Semibold-L" transform="matrix(1 0 0 1 1949.69 1556)">
   <path d="M39.5996-93.9453C26.1719-93.9453 19.043-86.8652 19.043-73.5352L19.043-59.668C19.043-55.8594 21.4355-53.418 25.1953-53.418C28.9551-53.418 31.3477-55.8594 31.3477-59.668L31.3477-72.3145C31.3477-78.5156 34.5703-81.5918 40.5762-81.5918L146.582-81.5918C152.49-81.5918 155.811-78.5156 155.811-72.3145L155.811-59.668C155.811-55.8594 158.203-53.418 161.963-53.418C165.771-53.418 168.164-55.8594 168.164-59.668L168.164-73.5352C168.164-86.8164 161.035-93.9453 147.559-93.9453ZM93.457-6.34766C97.4609-6.34766 99.707-8.98438 99.707-13.2324L99.707-54.248L113.33-54.248C116.455-54.248 118.506-56.1035 118.506-59.1309C118.506-62.207 116.455-64.0137 113.33-64.0137L73.8281-64.0137C70.752-64.0137 68.7012-62.207 68.7012-59.1309C68.7012-56.1035 70.752-54.248 73.8281-54.248L87.3047-54.248L87.3047-13.2324C87.3047-9.0332 89.502-6.34766 93.457-6.34766ZM25.1953-27.1484C30.2246-27.1484 34.3262-31.25 34.3262-36.2793C34.3262-41.3086 30.2246-45.4102 25.1953-45.4102C20.2148-45.4102 16.0645-41.3086 16.0645-36.2793C16.0645-31.25 20.2148-27.1484 25.1953-27.1484ZM161.963-27.1484C166.943-27.1484 171.094-31.25 171.094-36.2793C171.094-41.3086 166.943-45.4102 161.963-45.4102C156.934-45.4102 152.832-41.3086 152.832-36.2793C152.832-31.25 156.934-27.1484 161.963-27.1484ZM39.5996 23.584L147.559 23.584C161.035 23.584 168.164 16.5039 168.164 3.17383L168.164-12.6953C168.164-16.5039 165.723-18.9453 161.963-18.9453C158.203-18.9453 155.811-16.5039 155.811-12.6953L155.811 1.95312C155.811 8.20312 152.49 11.2793 146.582 11.2793L40.5762 11.2793C34.5703 11.2793 31.3477 8.20312 31.3477 1.95312L31.3477-12.6953C31.3477-16.5039 28.9551-18.9453 25.1953-18.9453C21.4355-18.9453 19.043-16.5039 19.043-12.6953L19.043 3.17383C19.043 16.5527 26.1719 23.584 39.5996 23.584Z"/>
  </g>
  <g id="Medium-L" transform="matrix(1 0 0 1 1653 1556)">
   <path d="M39.1602-93.3105C26.0742-93.3105 19.2383-86.5723 19.2383-73.6328L19.2383-58.3984C19.2383-55.0293 21.3379-52.9297 24.6094-52.9297C27.9297-52.9297 29.9805-55.0293 29.9805-58.3984L29.9805-72.7051C29.9805-79.2969 33.4473-82.6172 39.7949-82.6172L147.363-82.6172C153.564-82.6172 157.129-79.2969 157.129-72.7051L157.129-58.3984C157.129-55.0293 159.18-52.9297 162.5-52.9297C165.869-52.9297 167.871-55.0293 167.871-58.3984L167.871-73.6328C167.871-86.5234 161.084-93.3105 147.949-93.3105ZM93.4082-6.34766C96.875-6.34766 98.8281-8.64258 98.8281-12.3535L98.8281-55.3711L113.574-55.3711C116.26-55.3711 118.066-57.0312 118.066-59.7168C118.066-62.4023 116.26-64.0137 113.574-64.0137L73.5352-64.0137C70.8984-64.0137 69.043-62.4023 69.043-59.7168C69.043-57.0312 70.8984-55.3711 73.5352-55.3711L88.0859-55.3711L88.0859-12.3535C88.0859-8.74023 89.9902-6.34766 93.4082-6.34766ZM24.6094-27.7832C29.3457-27.7832 33.1543-31.6406 33.1543-36.377C33.1543-41.0645 29.3457-44.9219 24.6094-44.9219C19.9219-44.9219 16.0645-41.0645 16.0645-36.377C16.0645-31.6406 19.9219-27.7832 24.6094-27.7832ZM162.5-27.7832C167.139-27.7832 171.045-31.6406 171.045-36.377C171.045-41.0645 167.139-44.9219 162.5-44.9219C157.764-44.9219 153.906-41.1133 153.906-36.377C153.906-31.6406 157.764-27.7832 162.5-27.7832ZM39.1602 22.998L147.949 22.998C161.084 22.998 167.871 16.2109 167.871 3.27148L167.871-14.1113C167.871-17.4805 165.82-19.5801 162.5-19.5801C159.131-19.5801 157.129-17.4805 157.129-14.1113L157.129 2.39258C157.129 8.98438 153.564 12.2559 147.363 12.2559L39.7949 12.2559C33.4473 12.2559 29.9805 8.98438 29.9805 2.39258L29.9805-14.1113C29.9805-17.4805 27.9297-19.5801 24.6094-19.5801C21.3379-19.5801 19.2383-17.4805 19.2383-14.1113L19.2383 3.27148C19.2383 16.2598 26.0742 22.998 39.1602 22.998Z"/>
  </g>
  <g id="Regular-L" transform="matrix(1 0 0 1 1356.34 1556)">
   <path d="M38.5742-92.5293C25.9766-92.5293 19.5801-86.2305 19.5801-73.7305L19.5801-56.7383C19.5801-53.9551 21.1914-52.3438 23.877-52.3438C26.6113-52.3438 28.2227-53.9551 28.2227-56.7383L28.2227-73.291C28.2227-80.2734 31.9336-83.8867 38.7207-83.8867L148.291-83.8867C154.98-83.8867 158.838-80.2734 158.838-73.291L158.838-56.7383C158.838-53.9551 160.449-52.3438 163.184-52.3438C165.967-52.3438 167.48-53.9551 167.48-56.7383L167.48-73.7305C167.48-86.1816 161.133-92.5293 148.486-92.5293ZM93.3105-6.34766C96.1426-6.34766 97.7051-8.20312 97.7051-11.1328L97.7051-56.8359L113.916-56.8359C116.016-56.8359 117.529-58.252 117.529-60.4492C117.529-62.6953 116.016-64.0137 113.916-64.0137L73.0957-64.0137C71.0449-64.0137 69.4824-62.6953 69.4824-60.4492C69.4824-58.252 71.0449-56.8359 73.0957-56.8359L89.0625-56.8359L89.0625-11.1328C89.0625-8.30078 90.5762-6.34766 93.3105-6.34766ZM23.877-28.6621C28.1738-28.6621 31.6895-32.1777 31.6895-36.5234C31.6895-40.8203 28.1738-44.2871 23.877-44.2871C19.5801-44.2871 16.0645-40.8203 16.0645-36.5234C16.0645-32.1777 19.5801-28.6621 23.877-28.6621ZM163.184-28.6621C167.432-28.6621 170.947-32.1777 170.947-36.5234C170.947-40.8203 167.432-44.2871 163.184-44.2871C158.838-44.2871 155.322-40.8691 155.322-36.5234C155.322-32.1777 158.838-28.6621 163.184-28.6621ZM38.5742 22.2168L148.486 22.2168C161.133 22.2168 167.48 15.8691 167.48 3.41797L167.48-16.0156C167.48-18.7988 165.918-20.4102 163.184-20.4102C160.4-20.4102 158.838-18.7988 158.838-16.0156L158.838 2.97852C158.838 9.96094 154.98 13.5742 148.291 13.5742L38.7207 13.5742C31.9336 13.5742 28.2227 9.96094 28.2227 2.97852L28.2227-16.0156C28.2227-18.7988 26.6113-20.4102 23.877-20.4102C21.1914-20.4102 19.5801-18.7988 19.5801-16.0156L19.5801 3.41797C19.5801 15.918 25.9766 22.2168 38.5742 22.2168Z"/>
  </g>
  <g id="Light-L" transform="matrix(1 0 0 1 1059.58 1556)">
   <path d="M38.0371-91.6992C26.1719-91.6992 20.0684-85.6445 20.0684-73.8281L20.0684-54.7363C20.0684-52.6855 21.3379-51.416 23.3398-51.416C25.3906-51.416 26.6602-52.6855 26.6602-54.7363L26.6602-73.4863C26.6602-81.1523 30.6641-85.0586 38.1836-85.0586L148.975-85.0586C156.25-85.0586 160.498-81.1523 160.498-73.4863L160.498-54.7363C160.498-52.6855 161.768-51.416 163.77-51.416C165.918-51.416 167.09-52.6855 167.09-54.7363L167.09-73.8281C167.09-85.5469 160.986-91.6992 149.121-91.6992ZM93.3105-6.5918C95.459-6.5918 96.6797-8.05664 96.6797-10.2539L96.6797-57.9102L113.672-57.9102C115.332-57.9102 116.553-59.082 116.553-60.791C116.553-62.5488 115.332-63.623 113.672-63.623L73.4863-63.623C71.8262-63.623 70.6055-62.5488 70.6055-60.791C70.6055-59.082 71.8262-57.9102 73.4863-57.9102L90.0391-57.9102L90.0391-10.2539C90.0391-8.10547 91.2109-6.5918 93.3105-6.5918ZM23.3398-28.8086C27.3438-28.8086 30.6152-32.0801 30.6152-36.1328C30.6152-40.1367 27.3438-43.3594 23.3398-43.3594C19.3848-43.3594 16.0645-40.1367 16.0645-36.1328C16.0645-32.0801 19.3848-28.8086 23.3398-28.8086ZM163.77-28.8086C167.725-28.8086 171.045-32.0801 171.045-36.1328C171.045-40.1367 167.725-43.3594 163.77-43.3594C159.766-43.3594 156.494-40.1367 156.494-36.1328C156.494-32.0801 159.766-28.8086 163.77-28.8086ZM38.0371 21.4355L149.121 21.4355C160.986 21.4355 167.09 15.2344 167.09 3.56445L167.09-17.041C167.09-19.0918 165.869-20.4102 163.77-20.4102C161.719-20.4102 160.498-19.0918 160.498-17.041L160.498 3.22266C160.498 10.8398 156.25 14.7949 148.975 14.7949L38.1836 14.7949C30.6641 14.7949 26.6602 10.8398 26.6602 3.22266L26.6602-17.041C26.6602-19.0918 25.3906-20.4102 23.3398-20.4102C21.3379-20.4102 20.0684-19.0918 20.0684-17.041L20.0684 3.56445C20.0684 15.3809 26.1719 21.4355 38.0371 21.4355Z"/>
  </g>
  <g id="Thin-L" transform="matrix(1 0 0 1 762.819 1556)">
   <path d="M37.3047-90.5762C26.4648-90.5762 20.7031-84.8633 20.7031-73.9746L20.7031-52.1484C20.7031-50.9766 21.5332-50.1465 22.6562-50.1465C23.7793-50.1465 24.6582-50.9766 24.6582-52.1484L24.6582-73.7793C24.6582-82.2754 29.0527-86.6699 37.5-86.6699L149.805-86.6699C157.959-86.6699 162.646-82.2754 162.646-73.7793L162.646-52.1484C162.646-50.9766 163.477-50.1465 164.6-50.1465C165.82-50.1465 166.602-50.9766 166.602-52.1484L166.602-73.9746C166.602-84.7168 160.84-90.5762 150-90.5762ZM93.3105-6.93359C94.5801-6.93359 95.3125-7.8125 95.3125-9.0332L95.3125-59.3262L113.33-59.3262C114.453-59.3262 115.186-60.1562 115.186-61.2305C115.186-62.3535 114.453-63.0859 113.33-63.0859L73.9258-63.0859C72.9004-63.0859 72.0703-62.3535 72.0703-61.2305C72.0703-60.1562 72.9004-59.3262 73.9258-59.3262L91.2598-59.3262L91.2598-9.0332C91.2598-7.86133 92.0898-6.93359 93.3105-6.93359ZM22.6562-29.0039C26.2695-29.0039 29.1992-31.9336 29.1992-35.5957C29.1992-39.209 26.2695-42.0898 22.6562-42.0898C19.043-42.0898 16.0645-39.209 16.0645-35.5957C16.0645-31.9336 19.043-29.0039 22.6562-29.0039ZM164.6-29.0039C168.164-29.0039 171.143-31.9336 171.143-35.5957C171.143-39.209 168.164-42.0898 164.6-42.0898C160.986-42.0898 158.008-39.209 158.008-35.5957C158.008-31.9336 160.986-29.0039 164.6-29.0039ZM37.3047 20.3613L150 20.3613C160.84 20.3613 166.602 14.4531 166.602 3.75977L166.602-18.4082C166.602-19.5312 165.82-20.4102 164.6-20.4102C163.477-20.4102 162.646-19.5312 162.646-18.4082L162.646 3.56445C162.646 12.0117 157.959 16.4062 149.805 16.4062L37.5 16.4062C29.0527 16.4062 24.6582 12.0117 24.6582 3.56445L24.6582-18.4082C24.6582-19.5312 23.7793-20.4102 22.6562-20.4102C21.5332-20.4102 20.7031-19.5312 20.7031-18.4082L20.7031 3.75977C20.7031 14.6484 26.4648 20.3613 37.3047 20.3613Z"/>
  </g>
  <g id="Ultralight-L" transform="matrix(1 0 0 1 466.059 1556)">
   <path d="M36.9629-89.9902C26.5625-89.9902 21.0449-84.4727 21.0449-74.0723L21.0449-50.7812C21.0449-50.1465 21.6797-49.5117 22.3145-49.5117C22.998-49.5117 23.584-50.1465 23.584-50.7812L23.584-73.9258C23.584-82.8125 28.2227-87.4512 37.1094-87.4512L150.244-87.4512C158.838-87.4512 163.77-82.8125 163.77-73.9258L163.77-50.7812C163.77-50.1465 164.404-49.5117 165.039-49.5117C165.771-49.5117 166.309-50.1465 166.309-50.7812L166.309-74.0723C166.309-84.2773 160.791-89.9902 150.439-89.9902ZM93.2617-7.12891C94.0918-7.12891 94.6289-7.71484 94.6289-8.44727L94.6289-60.0586L113.135-60.0586C113.965-60.0586 114.502-60.6934 114.502-61.4258C114.502-62.2559 113.965-62.793 113.135-62.793L74.1699-62.793C73.4375-62.793 72.8027-62.2559 72.8027-61.4258C72.8027-60.6934 73.4375-60.0586 74.1699-60.0586L91.8945-60.0586L91.8945-8.44727C91.8945-7.71484 92.5293-7.12891 93.2617-7.12891ZM22.3145-29.1016C25.6836-29.1016 28.5156-31.8359 28.5156-35.3027C28.5156-38.7695 25.6836-41.4551 22.3145-41.4551C18.8965-41.4551 16.0645-38.7695 16.0645-35.3027C16.0645-31.8359 18.8965-29.1016 22.3145-29.1016ZM165.039-29.1016C168.408-29.1016 171.24-31.8359 171.24-35.3027C171.24-38.7695 168.408-41.4551 165.039-41.4551C161.621-41.4551 158.789-38.7207 158.789-35.3027C158.789-31.8359 161.621-29.1016 165.039-29.1016ZM36.9629 19.7754L150.439 19.7754C160.791 19.7754 166.309 14.0625 166.309 3.85742L166.309-19.1406C166.309-19.7754 165.771-20.4102 165.039-20.4102C164.404-20.4102 163.77-19.7754 163.77-19.1406L163.77 3.75977C163.77 12.6465 158.838 17.2363 150.244 17.2363L37.1094 17.2363C28.2227 17.2363 23.584 12.6465 23.584 3.75977L23.584-19.1406C23.584-19.7754 22.998-20.4102 22.3145-20.4102C21.6797-20.4102 21.0449-19.7754 21.0449-19.1406L21.0449 3.85742C21.0449 14.2578 26.5625 19.7754 36.9629 19.7754Z"/>
  </g>
  <g id="Black-M" transform="matrix(1 0 0 1 2860.67 1126)">
   <path d="M33.1543-83.9355C20.8984-83.9355 13.623-76.6602 13.623-64.4043L13.623-60.8887C13.623-55.5664 17.4805-51.6113 22.7539-51.6113C28.0273-51.6113 31.8848-55.5664 31.8848-60.8887L31.8848-61.4746C31.8848-64.5508 33.252-65.6738 36.084-65.6738L109.375-65.6738C112.207-65.6738 113.574-64.5508 113.574-61.4746L113.574-60.8887C113.574-55.5664 117.383-51.6113 122.705-51.6113C127.979-51.6113 131.836-55.5664 131.836-60.8887L131.836-64.4043C131.836-76.6602 124.561-83.9355 112.305-83.9355ZM72.7539-12.9395C78.6133-12.9395 82.0801-16.7969 82.0801-23.2422L82.0801-43.5547L86.1816-43.5547C91.0645-43.5547 93.8477-46.0938 93.8477-50.4395C93.8477-54.7363 91.0645-57.3242 86.1816-57.3242L59.2773-57.3242C54.4434-57.3242 51.6602-54.7363 51.6602-50.4395C51.6602-46.0938 54.4434-43.5547 59.2773-43.5547L63.4277-43.5547L63.4277-23.2422C63.4277-16.748 66.7969-12.9395 72.7539-12.9395ZM22.7539-24.9023C28.418-24.9023 33.0566-29.5898 33.0566-35.2051C33.0566-40.8691 28.418-45.5078 22.7539-45.5078C17.0898-45.5078 12.4512-40.8691 12.4512-35.2051C12.4512-29.5898 17.0898-24.9023 22.7539-24.9023ZM122.705-24.9023C128.369-24.9023 133.008-29.5898 133.008-35.2051C133.008-40.8691 128.369-45.5078 122.705-45.5078C117.041-45.5078 112.402-40.8691 112.402-35.2051C112.402-29.5898 117.041-24.9023 122.705-24.9023ZM33.1543 13.5742L112.305 13.5742C124.561 13.5742 131.836 6.29883 131.836-5.95703L131.836-9.42383C131.836-14.7461 127.979-18.7012 122.705-18.7012C117.383-18.7012 113.574-14.7461 113.574-9.42383L113.574-8.88672C113.574-5.81055 112.207-4.73633 109.375-4.73633L36.084-4.73633C33.252-4.73633 31.8848-5.81055 31.8848-8.88672L31.8848-9.42383C31.8848-14.7461 28.0273-18.7012 22.7539-18.7012C17.4805-18.7012 13.623-14.7461 13.623-9.42383L13.623-5.95703C13.623 6.29883 20.8984 13.5742 33.1543 13.5742Z"/>
  </g>
  <g id="Heavy-M" transform="matrix(1 0 0 1 2564.03 1126)">
   <path d="M32.4219-83.0566C20.7031-83.0566 13.916-76.3184 13.916-64.5508L13.916-59.0332C13.916-54.3457 17.1875-51.0254 21.8262-51.0254C26.4648-51.0254 29.7363-54.3457 29.7363-59.0332L29.7363-62.207C29.7363-65.7715 31.3965-67.2363 34.7168-67.2363L110.596-67.2363C113.916-67.2363 115.576-65.7715 115.576-62.207L115.576-59.0332C115.576-54.3457 118.848-51.0254 123.486-51.0254C128.125-51.0254 131.396-54.3457 131.396-59.0332L131.396-64.5508C131.396-76.2695 124.658-83.0566 112.891-83.0566ZM72.6562-12.8906C77.7344-12.8906 80.7129-16.2109 80.7129-21.7773L80.7129-45.4102L86.7188-45.4102C90.8691-45.4102 93.3105-47.6074 93.3105-51.416C93.3105-55.1758 90.8691-57.4219 86.7188-57.4219L58.6426-57.4219C54.4922-57.4219 52.0508-55.1758 52.0508-51.416C52.0508-47.6074 54.4922-45.4102 58.6426-45.4102L64.5996-45.4102L64.5996-21.7773C64.5996-16.2109 67.5293-12.8906 72.6562-12.8906ZM21.8262-26.123C26.9531-26.123 31.2012-30.3711 31.2012-35.498C31.2012-40.6738 26.9531-44.873 21.8262-44.873C16.6992-44.873 12.4512-40.6738 12.4512-35.498C12.4512-30.3711 16.6992-26.123 21.8262-26.123ZM123.486-26.123C128.613-26.123 132.861-30.3711 132.861-35.498C132.861-40.6738 128.613-44.873 123.486-44.873C118.359-44.873 114.111-40.6738 114.111-35.498C114.111-30.3711 118.359-26.123 123.486-26.123ZM32.4219 12.6465L112.891 12.6465C124.658 12.6465 131.396 5.9082 131.396-5.81055L131.396-11.8652C131.396-16.5527 128.125-19.873 123.486-19.873C118.848-19.873 115.576-16.5527 115.576-11.8652L115.576-8.1543C115.576-4.63867 113.916-3.17383 110.596-3.17383L34.7168-3.17383C31.3965-3.17383 29.7363-4.63867 29.7363-8.1543L29.7363-11.8652C29.7363-16.5527 26.4648-19.873 21.8262-19.873C17.1875-19.873 13.916-16.5527 13.916-11.8652L13.916-5.81055C13.916 5.9082 20.7031 12.6465 32.4219 12.6465Z"/>
  </g>
  <g id="Bold-M" transform="matrix(1 0 0 1 2267.39 1126)">
   <path d="M31.6895-82.0312C20.459-82.0312 14.2578-75.8789 14.2578-64.6973L14.2578-56.9336C14.2578-53.0273 16.8945-50.3418 20.8008-50.3418C24.6582-50.3418 27.2949-53.0273 27.2949-56.9336L27.2949-63.0371C27.2949-67.1387 29.3457-68.9453 33.2031-68.9453L111.963-68.9453C115.82-68.9453 117.871-67.1387 117.871-63.0371L117.871-56.9336C117.871-53.0273 120.508-50.3418 124.414-50.3418C128.32-50.3418 130.908-53.0273 130.908-56.9336L130.908-64.6973C130.908-75.8789 124.756-82.0312 113.525-82.0312ZM72.5586-12.8418C76.7578-12.8418 79.1992-15.5762 79.1992-20.166L79.1992-47.4609L87.3047-47.4609C90.6738-47.4609 92.7734-49.3652 92.7734-52.4902C92.7734-55.6641 90.6738-57.5195 87.3047-57.5195L57.8613-57.5195C54.541-57.5195 52.4414-55.6641 52.4414-52.4902C52.4414-49.3652 54.541-47.4609 57.8613-47.4609L65.9668-47.4609L65.9668-20.166C65.9668-15.625 68.3105-12.8418 72.5586-12.8418ZM20.8008-27.4902C25.3418-27.4902 29.1016-31.25 29.1016-35.8398C29.1016-40.4297 25.3418-44.1406 20.8008-44.1406C16.2109-44.1406 12.4512-40.4297 12.4512-35.8398C12.4512-31.25 16.2109-27.4902 20.8008-27.4902ZM124.414-27.4902C128.955-27.4902 132.715-31.25 132.715-35.8398C132.715-40.4297 128.955-44.1406 124.414-44.1406C119.824-44.1406 116.064-40.4297 116.064-35.8398C116.064-31.25 119.824-27.4902 124.414-27.4902ZM31.6895 11.6699L113.525 11.6699C124.756 11.6699 130.908 5.46875 130.908-5.66406L130.908-14.5996C130.908-18.5059 128.271-21.1914 124.414-21.1914C120.459-21.1914 117.871-18.5059 117.871-14.5996L117.871-7.32422C117.871-3.27148 115.82-1.41602 111.963-1.41602L33.2031-1.41602C29.3457-1.41602 27.2949-3.27148 27.2949-7.32422L27.2949-14.5996C27.2949-18.5059 24.6582-21.1914 20.8008-21.1914C16.8945-21.1914 14.2578-18.5059 14.2578-14.5996L14.2578-5.66406C14.2578 5.51758 20.459 11.6699 31.6895 11.6699Z"/>
  </g>
  <g id="Semibold-M" transform="matrix(1 0 0 1 1970.73 1126)">
   <path d="M31.1523-81.3477C20.3125-81.3477 14.4531-75.5859 14.4531-64.8438L14.4531-55.5176C14.4531-52.0996 16.6992-49.8535 20.0684-49.8535C23.4375-49.8535 25.6348-52.0996 25.6348-55.5176L25.6348-63.623C25.6348-68.0664 27.9297-70.166 32.1289-70.166L112.939-70.166C117.09-70.166 119.434-68.0664 119.434-63.623L119.434-55.5176C119.434-52.0996 121.631-49.8535 125-49.8535C128.418-49.8535 130.615-52.0996 130.615-55.5176L130.615-64.8438C130.615-75.5859 124.805-81.3477 113.916-81.3477ZM72.4609-12.793C76.0742-12.793 78.125-15.1367 78.125-19.043L78.125-48.877L87.7441-48.877C90.5762-48.877 92.3828-50.5371 92.3828-53.2715C92.3828-56.0059 90.5762-57.6172 87.7441-57.6172L57.373-57.6172C54.541-57.6172 52.7344-56.0059 52.7344-53.2715C52.7344-50.5371 54.541-48.877 57.373-48.877L66.8945-48.877L66.8945-19.043C66.8945-15.1855 68.8965-12.793 72.4609-12.793ZM20.0684-28.418C24.2676-28.418 27.6855-31.8848 27.6855-36.084C27.6855-40.2344 24.2676-43.6523 20.0684-43.6523C15.8691-43.6523 12.4512-40.2344 12.4512-36.084C12.4512-31.8848 15.8691-28.418 20.0684-28.418ZM125-28.418C129.15-28.418 132.617-31.8848 132.617-36.084C132.617-40.2344 129.15-43.6523 125-43.6523C120.801-43.6523 117.383-40.2832 117.383-36.084C117.383-31.8848 120.801-28.418 125-28.418ZM31.1523 10.9863L113.916 10.9863C124.805 10.9863 130.615 5.17578 130.615-5.56641L130.615-16.4551C130.615-19.9219 128.418-22.1191 125-22.1191C121.582-22.1191 119.434-19.9219 119.434-16.4551L119.434-6.78711C119.434-2.34375 117.09-0.195312 112.939-0.195312L32.1289-0.195312C27.9297-0.195312 25.6348-2.34375 25.6348-6.78711L25.6348-16.4551C25.6348-19.9219 23.4375-22.1191 20.0684-22.1191C16.6992-22.1191 14.4531-19.9219 14.4531-16.4551L14.4531-5.56641C14.4531 5.22461 20.3125 10.9863 31.1523 10.9863Z"/>
  </g>
  <g id="Medium-M" transform="matrix(1 0 0 1 1674.07 1126)">
   <path d="M30.7129-80.8105C20.166-80.8105 14.6484-75.3906 14.6484-64.8926L14.6484-54.4434C14.6484-51.3672 16.5039-49.5117 19.5312-49.5117C22.5098-49.5117 24.3652-51.3672 24.3652-54.4434L24.3652-64.0137C24.3652-68.75 26.8555-71.0938 31.3477-71.0938L113.623-71.0938C118.115-71.0938 120.605-68.75 120.605-64.0137L120.605-54.4434C120.605-51.3672 122.51-49.5117 125.488-49.5117C128.516-49.5117 130.371-51.3672 130.371-54.4434L130.371-64.8926C130.371-75.3418 124.854-80.8105 114.258-80.8105ZM72.4121-12.7441C75.5859-12.7441 77.3438-14.8438 77.3438-18.2129L77.3438-49.9512L88.0371-49.9512C90.4297-49.9512 92.0898-51.4648 92.0898-53.8086C92.0898-56.25 90.4297-57.666 88.0371-57.666L56.9824-57.666C54.5898-57.666 52.9297-56.25 52.9297-53.8086C52.9297-51.4648 54.5898-49.9512 56.9824-49.9512L67.5781-49.9512L67.5781-18.2129C67.5781-14.8926 69.2871-12.7441 72.4121-12.7441ZM19.5312-29.1504C23.3887-29.1504 26.5625-32.3242 26.5625-36.2305C26.5625-40.0879 23.3887-43.3105 19.5312-43.3105C15.625-43.3105 12.4512-40.0879 12.4512-36.2305C12.4512-32.3242 15.625-29.1504 19.5312-29.1504ZM125.488-29.1504C129.346-29.1504 132.52-32.3242 132.52-36.2305C132.52-40.0879 129.346-43.3105 125.488-43.3105C121.582-43.3105 118.408-40.1367 118.408-36.2305C118.408-32.3242 121.582-29.1504 125.488-29.1504ZM30.7129 10.4492L114.258 10.4492C124.854 10.4492 130.371 4.98047 130.371-5.46875L130.371-17.8711C130.371-20.9473 128.467-22.8027 125.488-22.8027C122.461-22.8027 120.605-20.9473 120.605-17.8711L120.605-6.34766C120.605-1.61133 118.115 0.732422 113.623 0.732422L31.3477 0.732422C26.8555 0.732422 24.3652-1.61133 24.3652-6.34766L24.3652-17.8711C24.3652-20.9473 22.5098-22.8027 19.5312-22.8027C16.5039-22.8027 14.6484-20.9473 14.6484-17.8711L14.6484-5.46875C14.6484 4.98047 20.166 10.4492 30.7129 10.4492Z"/>
  </g>
  <g id="Regular-M" transform="matrix(1 0 0 1 1377.41 1126)">
   <path d="M30.1758-80.127C20.0195-80.127 14.8926-75.0977 14.8926-64.9902L14.8926-53.0273C14.8926-50.4883 16.3086-49.0234 18.7988-49.0234C21.2891-49.0234 22.7539-50.4883 22.7539-53.0273L22.7539-64.5996C22.7539-69.6777 25.4395-72.2656 30.3223-72.2656L114.6-72.2656C119.385-72.2656 122.168-69.6777 122.168-64.5996L122.168-53.0273C122.168-50.4883 123.584-49.0234 126.074-49.0234C128.662-49.0234 130.029-50.4883 130.029-53.0273L130.029-64.9902C130.029-75.0488 124.951-80.127 114.697-80.127ZM72.3633-12.6953C74.9023-12.6953 76.3184-14.4043 76.3184-17.0898L76.3184-51.3672L88.4277-51.3672C90.332-51.3672 91.6992-52.6367 91.6992-54.5898C91.6992-56.5918 90.332-57.7637 88.4277-57.7637L56.4941-57.7637C54.6387-57.7637 53.2227-56.5918 53.2227-54.5898C53.2227-52.6367 54.6387-51.3672 56.4941-51.3672L68.5059-51.3672L68.5059-17.0898C68.5059-14.502 69.8242-12.6953 72.3633-12.6953ZM18.7988-30.0781C22.3145-30.0781 25.1465-32.959 25.1465-36.4746C25.1465-39.9414 22.3145-42.7734 18.7988-42.7734C15.332-42.7734 12.4512-39.9414 12.4512-36.4746C12.4512-32.959 15.332-30.0781 18.7988-30.0781ZM126.074-30.0781C129.541-30.0781 132.422-32.959 132.422-36.4746C132.422-39.9414 129.541-42.7734 126.074-42.7734C122.559-42.7734 119.727-39.9902 119.727-36.4746C119.727-32.959 122.559-30.0781 126.074-30.0781ZM30.1758 9.76562L114.697 9.76562C124.951 9.76562 130.029 4.6875 130.029-5.37109L130.029-19.7754C130.029-22.3145 128.613-23.7305 126.074-23.7305C123.535-23.7305 122.168-22.3145 122.168-19.7754L122.168-5.76172C122.168-0.683594 119.385 1.9043 114.6 1.9043L30.3223 1.9043C25.4395 1.9043 22.7539-0.683594 22.7539-5.76172L22.7539-19.7754C22.7539-22.3145 21.2891-23.7305 18.7988-23.7305C16.3086-23.7305 14.8926-22.3145 14.8926-19.7754L14.8926-5.37109C14.8926 4.73633 20.0195 9.76562 30.1758 9.76562Z"/>
  </g>
  <g id="Light-M" transform="matrix(1 0 0 1 1080.65 1126)">
   <path d="M29.7363-79.3945C20.2148-79.3945 15.332-74.5605 15.332-65.0879L15.332-51.2207C15.332-49.3164 16.4551-48.1934 18.3594-48.1934C20.2148-48.1934 21.3379-49.3164 21.3379-51.2207L21.3379-64.7949C21.3379-70.4102 24.3164-73.3398 29.834-73.3398L115.137-73.3398C120.557-73.3398 123.633-70.4102 123.633-64.7949L123.633-51.2207C123.633-49.3164 124.756-48.1934 126.66-48.1934C128.613-48.1934 129.688-49.3164 129.688-51.2207L129.688-65.0879C129.688-74.5117 124.805-79.3945 115.283-79.3945ZM72.3145-12.9395C74.3164-12.9395 75.3906-14.2578 75.3906-16.2598L75.3906-52.3438L88.2324-52.3438C89.6973-52.3438 90.7715-53.3691 90.7715-54.8828C90.7715-56.4453 89.6973-57.4219 88.2324-57.4219L56.7871-57.4219C55.3223-57.4219 54.248-56.4453 54.248-54.8828C54.248-53.3691 55.3223-52.3438 56.7871-52.3438L69.3359-52.3438L69.3359-16.2598C69.3359-14.3066 70.4102-12.9395 72.3145-12.9395ZM18.3594-30.2246C21.582-30.2246 24.2188-32.8125 24.2188-36.084C24.2188-39.3066 21.582-41.9434 18.3594-41.9434C15.1367-41.9434 12.4512-39.3066 12.4512-36.084C12.4512-32.8125 15.1367-30.2246 18.3594-30.2246ZM126.66-30.2246C129.834-30.2246 132.52-32.8125 132.52-36.084C132.52-39.3066 129.834-41.9434 126.66-41.9434C123.389-41.9434 120.752-39.3555 120.752-36.084C120.752-32.8125 123.389-30.2246 126.66-30.2246ZM29.7363 9.0332L115.283 9.0332C124.805 9.0332 129.688 4.15039 129.688-5.22461L129.688-20.7031C129.688-22.6074 128.564-23.7305 126.66-23.7305C124.756-23.7305 123.633-22.6074 123.633-20.7031L123.633-5.56641C123.633 0.0976562 120.557 2.97852 115.137 2.97852L29.834 2.97852C24.3164 2.97852 21.3379 0.0976562 21.3379-5.56641L21.3379-20.7031C21.3379-22.6074 20.2148-23.7305 18.3594-23.7305C16.4551-23.7305 15.332-22.6074 15.332-20.7031L15.332-5.22461C15.332 4.19922 20.2148 9.0332 29.7363 9.0332Z"/>
  </g>
  <g id="Thin-M" transform="matrix(1 0 0 1 783.888 1126)">
   <path d="M29.1016-78.3691C20.459-78.3691 15.918-73.877 15.918-65.2344L15.918-48.877C15.918-47.8027 16.6504-47.0703 17.7246-47.0703C18.7988-47.0703 19.5312-47.8027 19.5312-48.877L19.5312-65.0391C19.5312-71.4355 22.8516-74.7559 29.1992-74.7559L115.918-74.7559C122.07-74.7559 125.586-71.4355 125.586-65.0391L125.586-48.877C125.586-47.8027 126.318-47.0703 127.393-47.0703C128.516-47.0703 129.199-47.8027 129.199-48.877L129.199-65.2344C129.199-73.7305 124.707-78.3691 116.064-78.3691ZM72.3145-13.2324C73.4863-13.2324 74.1699-14.0625 74.1699-15.1855L74.1699-53.6133L87.8906-53.6133C88.8672-53.6133 89.5508-54.2969 89.5508-55.2734C89.5508-56.2988 88.8672-56.9336 87.8906-56.9336L57.2266-56.9336C56.2988-56.9336 55.5176-56.2988 55.5176-55.2734C55.5176-54.2969 56.2988-53.6133 57.2266-53.6133L70.459-53.6133L70.459-15.1855C70.459-14.0625 71.1914-13.2324 72.3145-13.2324ZM17.7246-30.3711C20.6055-30.3711 22.9492-32.7148 22.9492-35.5957C22.9492-38.5254 20.6055-40.8203 17.7246-40.8203C14.8438-40.8203 12.4512-38.5254 12.4512-35.5957C12.4512-32.7148 14.8438-30.3711 17.7246-30.3711ZM127.393-30.3711C130.225-30.3711 132.617-32.7148 132.617-35.5957C132.617-38.5254 130.225-40.8203 127.393-40.8203C124.512-40.8203 122.119-38.5254 122.119-35.5957C122.119-32.7148 124.512-30.3711 127.393-30.3711ZM29.1016 8.05664L116.064 8.05664C124.707 8.05664 129.199 3.4668 129.199-5.0293L129.199-21.9238C129.199-22.998 128.516-23.7305 127.393-23.7305C126.318-23.7305 125.586-22.998 125.586-21.9238L125.586-5.22461C125.586 1.12305 122.07 4.44336 115.918 4.44336L29.1992 4.44336C22.8516 4.44336 19.5312 1.12305 19.5312-5.22461L19.5312-21.9238C19.5312-22.998 18.7988-23.7305 17.7246-23.7305C16.6504-23.7305 15.918-22.998 15.918-21.9238L15.918-5.0293C15.918 3.56445 20.459 8.05664 29.1016 8.05664Z"/>
  </g>
  <g id="Ultralight-M" transform="matrix(1 0 0 1 487.153 1126)">
   <path d="M28.7598-77.832C20.5566-77.832 16.2109-73.4863 16.2109-65.2832L16.2109-47.7051C16.2109-47.0215 16.748-46.4844 17.4316-46.4844C18.0664-46.4844 18.6035-47.0215 18.6035-47.7051L18.6035-65.1855C18.6035-71.9727 22.1191-75.4395 28.8574-75.4395L116.309-75.4395C122.852-75.4395 126.562-71.9727 126.562-65.1855L126.562-47.7051C126.562-47.0215 127.148-46.4844 127.783-46.4844C128.516-46.4844 128.955-47.0215 128.955-47.7051L128.955-65.2832C128.955-73.3887 124.609-77.832 116.455-77.832ZM72.3145-13.3789C73.0957-13.3789 73.5352-13.916 73.5352-14.6484L73.5352-54.248L87.7441-54.248C88.4766-54.248 88.9648-54.7852 88.9648-55.4688C88.9648-56.2012 88.4766-56.6895 87.7441-56.6895L57.4219-56.6895C56.7383-56.6895 56.2012-56.2012 56.2012-55.4688C56.2012-54.7852 56.7383-54.248 57.4219-54.248L71.0449-54.248L71.0449-14.6484C71.0449-13.916 71.582-13.3789 72.3145-13.3789ZM17.4316-30.4688C20.0684-30.4688 22.3145-32.6172 22.3145-35.3516C22.3145-38.0859 20.0684-40.2832 17.4316-40.2832C14.6973-40.2832 12.4512-38.0859 12.4512-35.3516C12.4512-32.6172 14.6973-30.4688 17.4316-30.4688ZM127.783-30.4688C130.469-30.4688 132.666-32.6172 132.666-35.3516C132.666-38.0859 130.469-40.2832 127.783-40.2832C125.049-40.2832 122.803-38.0859 122.803-35.3516C122.803-32.6172 125.049-30.4688 127.783-30.4688ZM28.7598 7.56836L116.455 7.56836C124.609 7.56836 128.955 3.125 128.955-4.98047L128.955-22.5586C128.955-23.1934 128.516-23.7305 127.783-23.7305C127.148-23.7305 126.562-23.1934 126.562-22.5586L126.562-5.07812C126.562 1.66016 122.852 5.17578 116.309 5.17578L28.8574 5.17578C22.1191 5.17578 18.6035 1.66016 18.6035-5.07812L18.6035-22.5586C18.6035-23.1934 18.0664-23.7305 17.4316-23.7305C16.748-23.7305 16.2109-23.1934 16.2109-22.5586L16.2109-4.98047C16.2109 3.22266 20.5566 7.56836 28.7598 7.56836Z"/>
  </g>
  <g id="Black-S" transform="matrix(1 0 0 1 2876.42 696)">
   <path d="M25.9277-73.3398C16.3574-73.3398 10.6934-67.6758 10.6934-58.1055L10.6934-55.2246C10.6934-51.0742 13.6719-48.0469 17.7734-48.0469C21.875-48.0469 24.8535-51.0742 24.8535-55.2246L24.8535-55.8594C24.8535-58.3008 25.9277-59.1797 28.1738-59.1797L85.791-59.1797C88.0371-59.1797 89.1113-58.3008 89.1113-55.8594L89.1113-55.2246C89.1113-51.0742 92.0898-48.0469 96.1914-48.0469C100.293-48.0469 103.271-51.0742 103.271-55.2246L103.271-58.1055C103.271-67.6758 97.6074-73.3398 88.0371-73.3398ZM56.9824-17.7734C61.5234-17.7734 64.209-20.752 64.209-25.7324L64.209-41.8945L67.5781-41.8945C71.3379-41.8945 73.4863-43.8477 73.4863-47.2168C73.4863-50.5371 71.3379-52.5391 67.5781-52.5391L46.3867-52.5391C42.627-52.5391 40.4785-50.5371 40.4785-47.2168C40.4785-43.8477 42.627-41.8945 46.3867-41.8945L49.7559-41.8945L49.7559-25.7324C49.7559-20.7031 52.3926-17.7734 56.9824-17.7734ZM17.7734-27.2461C22.168-27.2461 25.7812-30.8594 25.7812-35.2539C25.7812-39.6484 22.168-43.2617 17.7734-43.2617C13.3789-43.2617 9.76562-39.6484 9.76562-35.2539C9.76562-30.8594 13.3789-27.2461 17.7734-27.2461ZM96.1914-27.2461C100.586-27.2461 104.199-30.8594 104.199-35.2539C104.199-39.6484 100.586-43.2617 96.1914-43.2617C91.7969-43.2617 88.1836-39.6484 88.1836-35.2539C88.1836-30.8594 91.7969-27.2461 96.1914-27.2461ZM25.9277 2.92969L88.0371 2.92969C97.6074 2.92969 103.271-2.73438 103.271-12.3047L103.271-15.1855C103.271-19.3359 100.293-22.3633 96.1914-22.3633C92.0898-22.3633 89.1113-19.3359 89.1113-15.1855L89.1113-14.5508C89.1113-12.1094 88.0371-11.2305 85.791-11.2305L28.1738-11.2305C25.9277-11.2305 24.8535-12.1094 24.8535-14.5508L24.8535-15.1855C24.8535-19.3359 21.875-22.3633 17.7734-22.3633C13.6719-22.3633 10.6934-19.3359 10.6934-15.1855L10.6934-12.3047C10.6934-2.73438 16.3574 2.92969 25.9277 2.92969Z"/>
  </g>
  <g id="Heavy-S" transform="matrix(1 0 0 1 2579.76 696)">
   <path d="M25.4395-72.7539C16.1621-72.7539 10.8887-67.4316 10.8887-58.2031L10.8887-54.0039C10.8887-50.293 13.4277-47.6562 17.0898-47.6562C20.752-47.6562 23.3398-50.293 23.3398-54.0039L23.3398-56.3965C23.3398-59.1309 24.6582-60.2539 27.1973-60.2539L86.6699-60.2539C89.209-60.2539 90.4785-59.1309 90.4785-56.3965L90.4785-54.0039C90.4785-50.293 93.0664-47.6562 96.7285-47.6562C100.439-47.6562 102.979-50.293 102.979-54.0039L102.979-58.2031C102.979-67.4316 97.7051-72.7539 88.4277-72.7539ZM56.8848-17.7246C60.9375-17.7246 63.2812-20.3125 63.2812-24.707L63.2812-43.2129L68.0176-43.2129C71.2402-43.2129 73.1934-44.9219 73.1934-47.9492C73.1934-50.8789 71.2402-52.6855 68.0176-52.6855L45.8496-52.6855C42.5781-52.6855 40.625-50.8789 40.625-47.9492C40.625-44.9219 42.5781-43.2129 45.8496-43.2129L50.5859-43.2129L50.5859-24.707C50.5859-20.3125 52.8809-17.7246 56.8848-17.7246ZM17.0898-28.1738C21.1426-28.1738 24.4629-31.4941 24.4629-35.498C24.4629-39.5508 21.1426-42.8711 17.0898-42.8711C13.0859-42.8711 9.76562-39.5508 9.76562-35.498C9.76562-31.4941 13.0859-28.1738 17.0898-28.1738ZM96.7285-28.1738C100.781-28.1738 104.102-31.4941 104.102-35.498C104.102-39.5508 100.781-42.8711 96.7285-42.8711C92.7246-42.8711 89.4043-39.5508 89.4043-35.498C89.4043-31.4941 92.7246-28.1738 96.7285-28.1738ZM25.4395 2.34375L88.4277 2.34375C97.7051 2.34375 102.979-2.97852 102.979-12.207L102.979-16.9434C102.979-20.6543 100.391-23.291 96.7285-23.291C93.0664-23.291 90.4785-20.6543 90.4785-16.9434L90.4785-14.0137C90.4785-11.2793 89.209-10.1562 86.6699-10.1562L27.1973-10.1562C24.6582-10.1562 23.3398-11.2793 23.3398-14.0137L23.3398-16.9434C23.3398-20.6543 20.752-23.291 17.0898-23.291C13.4277-23.291 10.8887-20.6543 10.8887-16.9434L10.8887-12.207C10.8887-2.97852 16.1621 2.34375 25.4395 2.34375Z"/>
  </g>
  <g id="Bold-S" transform="matrix(1 0 0 1 2283.12 696)">
   <path d="M24.9023-72.0703C15.9668-72.0703 11.084-67.1875 11.084-58.3008L11.084-52.6367C11.084-49.4141 13.1836-47.2656 16.3574-47.2656C19.5312-47.2656 21.6797-49.4141 21.6797-52.6367L21.6797-56.9824C21.6797-60.0586 23.1934-61.4746 26.0742-61.4746L87.6465-61.4746C90.5273-61.4746 92.041-60.0586 92.041-56.9824L92.041-52.6367C92.041-49.4141 94.1895-47.2656 97.3633-47.2656C100.537-47.2656 102.637-49.4141 102.637-52.6367L102.637-58.3008C102.637-67.1875 97.7539-72.0703 88.8184-72.0703ZM56.8359-17.627C60.2539-17.627 62.207-19.873 62.207-23.584L62.207-44.6777L68.457-44.6777C71.1914-44.6777 72.8516-46.1914 72.8516-48.7305C72.8516-51.2695 71.1914-52.7832 68.457-52.7832L45.2148-52.7832C42.5293-52.7832 40.8203-51.2695 40.8203-48.7305C40.8203-46.1914 42.5293-44.6777 45.2148-44.6777L51.5137-44.6777L51.5137-23.584C51.5137-19.873 53.418-17.627 56.8359-17.627ZM16.3574-29.1992C20.0195-29.1992 22.998-32.1777 22.998-35.791C22.998-39.4531 20.0195-42.4316 16.3574-42.4316C12.7441-42.4316 9.76562-39.4531 9.76562-35.791C9.76562-32.1777 12.7441-29.1992 16.3574-29.1992ZM97.3633-29.1992C100.977-29.1992 103.955-32.1777 103.955-35.791C103.955-39.4531 100.977-42.4316 97.3633-42.4316C93.7012-42.4316 90.7715-39.4531 90.7715-35.791C90.7715-32.1777 93.7012-29.1992 97.3633-29.1992ZM24.9023 1.66016L88.8184 1.66016C97.7539 1.66016 102.637-3.22266 102.637-12.1094L102.637-18.8965C102.637-22.1191 100.537-24.3164 97.3633-24.3164C94.1406-24.3164 92.041-22.1191 92.041-18.8965L92.041-13.4277C92.041-10.3516 90.5273-8.93555 87.6465-8.93555L26.0742-8.93555C23.1934-8.93555 21.6797-10.3516 21.6797-13.4277L21.6797-18.8965C21.6797-22.1191 19.5312-24.3164 16.3574-24.3164C13.1836-24.3164 11.084-22.1191 11.084-18.8965L11.084-12.1094C11.084-3.22266 15.9668 1.66016 24.9023 1.66016Z"/>
  </g>
  <g id="Semibold-S" transform="matrix(1 0 0 1 1986.46 696)">
   <path d="M24.5605-71.582C15.8203-71.582 11.2305-67.041 11.2305-58.3984L11.2305-51.6602C11.2305-48.7793 13.0371-46.9727 15.8691-46.9727C18.7012-46.9727 20.5078-48.7793 20.5078-51.6602L20.5078-57.4219C20.5078-60.6934 22.2168-62.3047 25.3418-62.3047L88.3301-62.3047C91.4062-62.3047 93.1152-60.6934 93.1152-57.4219L93.1152-51.6602C93.1152-48.7793 94.9219-46.9727 97.8027-46.9727C100.635-46.9727 102.441-48.7793 102.441-51.6602L102.441-58.3984C102.441-67.041 97.8516-71.582 89.1113-71.582ZM56.7871-17.5781C59.7656-17.5781 61.4746-19.5312 61.4746-22.8027L61.4746-45.6543L68.7988-45.6543C71.1426-45.6543 72.6562-47.0215 72.6562-49.2676C72.6562-51.5625 71.1426-52.8809 68.7988-52.8809L44.8242-52.8809C42.4805-52.8809 40.9668-51.5625 40.9668-49.2676C40.9668-47.0215 42.4805-45.6543 44.8242-45.6543L52.1484-45.6543L52.1484-22.8027C52.1484-19.5801 53.7598-17.5781 56.7871-17.5781ZM15.8691-29.8828C19.2383-29.8828 21.9727-32.666 21.9727-36.0352C21.9727-39.3555 19.2383-42.0898 15.8691-42.0898C12.5-42.0898 9.76562-39.3555 9.76562-36.0352C9.76562-32.666 12.5-29.8828 15.8691-29.8828ZM97.8027-29.8828C101.123-29.8828 103.857-32.666 103.857-36.0352C103.857-39.3555 101.123-42.0898 97.8027-42.0898C94.4336-42.0898 91.6992-39.4043 91.6992-36.0352C91.6992-32.666 94.4336-29.8828 97.8027-29.8828ZM24.5605 1.17188L89.1113 1.17188C97.8516 1.17188 102.441-3.36914 102.441-12.0117L102.441-20.2637C102.441-23.1445 100.635-25 97.8027-25C94.9219-25 93.1152-23.1445 93.1152-20.2637L93.1152-12.9883C93.1152-9.7168 91.4062-8.10547 88.3301-8.10547L25.3418-8.10547C22.2168-8.10547 20.5078-9.7168 20.5078-12.9883L20.5078-20.2637C20.5078-23.1445 18.7012-25 15.8691-25C13.0371-25 11.2305-23.1445 11.2305-20.2637L11.2305-12.0117C11.2305-3.36914 15.8203 1.17188 24.5605 1.17188Z"/>
  </g>
  <g id="Medium-S" transform="matrix(1 0 0 1 1689.77 696)">
   <path d="M24.2676-71.2402C15.7227-71.2402 11.3281-66.8945 11.3281-58.4473L11.3281-50.9766C11.3281-48.3398 12.8906-46.7285 15.4785-46.7285C18.0664-46.7285 19.6289-48.3398 19.6289-50.9766L19.6289-57.7148C19.6289-61.1816 21.4844-62.9395 24.7559-62.9395L88.8184-62.9395C92.0898-62.9395 93.9453-61.1816 93.9453-57.7148L93.9453-50.9766C93.9453-48.3398 95.5078-46.7285 98.0957-46.7285C100.732-46.7285 102.246-48.3398 102.246-50.9766L102.246-58.4473C102.246-66.8945 97.8516-71.2402 89.3066-71.2402ZM56.7383-17.5293C59.4238-17.5293 60.8887-19.2871 60.8887-22.168L60.8887-46.4355L69.043-46.4355C71.0938-46.4355 72.4609-47.6562 72.4609-49.707C72.4609-51.7578 71.0938-52.9785 69.043-52.9785L44.4824-52.9785C42.4805-52.9785 41.0645-51.7578 41.0645-49.707C41.0645-47.6562 42.4805-46.4355 44.4824-46.4355L52.5879-46.4355L52.5879-22.168C52.5879-19.3359 54.0527-17.5293 56.7383-17.5293ZM15.4785-30.4199C18.6523-30.4199 21.1914-33.0078 21.1914-36.1816C21.1914-39.3066 18.6523-41.8945 15.4785-41.8945C12.3535-41.8945 9.76562-39.3066 9.76562-36.1816C9.76562-33.0078 12.3535-30.4199 15.4785-30.4199ZM98.0957-30.4199C101.221-30.4199 103.809-33.0078 103.809-36.1816C103.809-39.3066 101.221-41.8945 98.0957-41.8945C94.9219-41.8945 92.3828-39.3066 92.3828-36.1816C92.3828-33.0078 94.9219-30.4199 98.0957-30.4199ZM24.2676 0.830078L89.3066 0.830078C97.8516 0.830078 102.246-3.51562 102.246-11.9629L102.246-21.2891C102.246-23.9258 100.684-25.5371 98.0957-25.5371C95.5078-25.5371 93.9453-23.9258 93.9453-21.2891L93.9453-12.6953C93.9453-9.22852 92.0898-7.4707 88.8184-7.4707L24.7559-7.4707C21.4844-7.4707 19.6289-9.22852 19.6289-12.6953L19.6289-21.2891C19.6289-23.9258 18.0664-25.5371 15.4785-25.5371C12.8906-25.5371 11.3281-23.9258 11.3281-21.2891L11.3281-11.9629C11.3281-3.51562 15.7227 0.830078 24.2676 0.830078Z"/>
  </g>
  <g id="Regular-S" transform="matrix(1 0 0 1 1393.11 696)">
   <path d="M23.877-70.8008C15.625-70.8008 11.4258-66.6992 11.4258-58.4961L11.4258-50C11.4258-47.7051 12.6953-46.4355 14.9902-46.4355C17.2363-46.4355 18.5059-47.7051 18.5059-50L18.5059-58.1543C18.5059-61.8164 20.459-63.7207 23.9746-63.7207L89.502-63.7207C93.0176-63.7207 95.0195-61.8164 95.0195-58.1543L95.0195-50C95.0195-47.7051 96.2891-46.4355 98.5352-46.4355C100.83-46.4355 102.051-47.7051 102.051-50L102.051-58.4961C102.051-66.6992 97.9492-70.8008 89.5996-70.8008ZM56.6406-17.4805C58.9844-17.4805 60.2051-18.9941 60.2051-21.3867L60.2051-47.4121L69.3848-47.4121C71.0449-47.4121 72.2656-48.4863 72.2656-50.2441C72.2656-52.0508 71.0449-53.0762 69.3848-53.0762L44.0918-53.0762C42.4316-53.0762 41.2109-52.0508 41.2109-50.2441C41.2109-48.4863 42.4316-47.4121 44.0918-47.4121L53.2227-47.4121L53.2227-21.3867C53.2227-19.043 54.3945-17.4805 56.6406-17.4805ZM14.9902-31.1035C17.8711-31.1035 20.166-33.4961 20.166-36.377C20.166-39.209 17.8711-41.5527 14.9902-41.5527C12.1094-41.5527 9.76562-39.209 9.76562-36.377C9.76562-33.4961 12.1094-31.1035 14.9902-31.1035ZM98.5352-31.1035C101.367-31.1035 103.711-33.4961 103.711-36.377C103.711-39.209 101.367-41.5527 98.5352-41.5527C95.6543-41.5527 93.3105-39.2578 93.3105-36.377C93.3105-33.4961 95.6543-31.1035 98.5352-31.1035ZM23.877 0.390625L89.5996 0.390625C97.9492 0.390625 102.051-3.71094 102.051-11.9141L102.051-22.6562C102.051-24.9512 100.781-26.2207 98.5352-26.2207C96.2402-26.2207 95.0195-24.9512 95.0195-22.6562L95.0195-12.2559C95.0195-8.54492 93.0176-6.68945 89.502-6.68945L23.9746-6.68945C20.459-6.68945 18.5059-8.54492 18.5059-12.2559L18.5059-22.6562C18.5059-24.9512 17.2363-26.2207 14.9902-26.2207C12.6953-26.2207 11.4258-24.9512 11.4258-22.6562L11.4258-11.9141C11.4258-3.71094 15.625 0.390625 23.877 0.390625Z"/>
  </g>
  <g id="Light-S" transform="matrix(1 0 0 1 1096.35 696)">
   <path d="M23.4863-70.1172C15.7715-70.1172 11.8652-66.2598 11.8652-58.5938L11.8652-48.4375C11.8652-46.7285 12.8418-45.7031 14.5508-45.7031C16.2598-45.7031 17.2852-46.7285 17.2852-48.4375L17.2852-58.3008C17.2852-62.5 19.4824-64.6973 23.584-64.6973L89.9902-64.6973C93.9941-64.6973 96.2891-62.5 96.2891-58.3008L96.2891-48.4375C96.2891-46.7285 97.3145-45.7031 99.0234-45.7031C100.781-45.7031 101.758-46.7285 101.758-48.4375L101.758-58.5938C101.758-66.2109 97.8516-70.1172 90.0879-70.1172ZM56.6406-17.6758C58.4473-17.6758 59.375-18.8477 59.375-20.7031L59.375-48.2422L69.1895-48.2422C70.5078-48.2422 71.4355-49.1699 71.4355-50.4883C71.4355-51.9043 70.5078-52.7344 69.1895-52.7344L44.3359-52.7344C43.0664-52.7344 42.0898-51.9043 42.0898-50.4883C42.0898-49.1699 43.0664-48.2422 44.3359-48.2422L54.0039-48.2422L54.0039-20.7031C54.0039-18.8965 54.9316-17.6758 56.6406-17.6758ZM14.5508-31.25C17.1875-31.25 19.3359-33.3984 19.3359-36.0352C19.3359-38.6719 17.1875-40.8203 14.5508-40.8203C11.9141-40.8203 9.76562-38.6719 9.76562-36.0352C9.76562-33.3984 11.9141-31.25 14.5508-31.25ZM99.0234-31.25C101.611-31.25 103.809-33.3984 103.809-36.0352C103.809-38.6719 101.611-40.8203 99.0234-40.8203C96.3867-40.8203 94.2383-38.7207 94.2383-36.0352C94.2383-33.3984 96.3867-31.25 99.0234-31.25ZM23.4863-0.292969L90.0879-0.292969C97.8516-0.292969 101.758-4.15039 101.758-11.7676L101.758-23.4863C101.758-25.1953 100.732-26.2207 99.0234-26.2207C97.2656-26.2207 96.2891-25.1953 96.2891-23.4863L96.2891-12.0605C96.2891-7.86133 93.9941-5.71289 89.9902-5.71289L23.584-5.71289C19.4824-5.71289 17.2852-7.86133 17.2852-12.0605L17.2852-23.4863C17.2852-25.1953 16.2598-26.2207 14.5508-26.2207C12.8418-26.2207 11.8652-25.1953 11.8652-23.4863L11.8652-11.7676C11.8652-4.15039 15.7715-0.292969 23.4863-0.292969Z"/>
  </g>
  <g id="Thin-S" transform="matrix(1 0 0 1 799.586 696)">
   <path d="M22.9004-69.2383C15.9668-69.2383 12.3535-65.625 12.3535-58.6914L12.3535-46.3867C12.3535-45.3613 13.0371-44.7266 14.0137-44.7266C14.9902-44.7266 15.6738-45.3613 15.6738-46.3867L15.6738-58.5449C15.6738-63.3789 18.2129-65.918 22.998-65.918L90.6738-65.918C95.3613-65.918 98.0469-63.3789 98.0469-58.5449L98.0469-46.3867C98.0469-45.3613 98.6816-44.7266 99.6582-44.7266C100.732-44.7266 101.318-45.3613 101.318-46.3867L101.318-58.6914C101.318-65.5762 97.7539-69.2383 90.7715-69.2383ZM56.6406-17.9199C57.7148-17.9199 58.3496-18.6523 58.3496-19.7266L58.3496-49.3652L68.9453-49.3652C69.7754-49.3652 70.4102-50 70.4102-50.8301C70.4102-51.7578 69.7754-52.3438 68.9453-52.3438L44.7266-52.3438C43.8965-52.3438 43.2617-51.7578 43.2617-50.8301C43.2617-50 43.8965-49.3652 44.7266-49.3652L54.9805-49.3652L54.9805-19.7266C54.9805-18.7012 55.6152-17.9199 56.6406-17.9199ZM14.0137-31.3965C16.3086-31.3965 18.2129-33.3008 18.2129-35.6445C18.2129-37.9395 16.3086-39.8438 14.0137-39.8438C11.6699-39.8438 9.76562-37.9395 9.76562-35.6445C9.76562-33.3008 11.6699-31.3965 14.0137-31.3965ZM99.6582-31.3965C101.953-31.3965 103.906-33.3008 103.906-35.6445C103.906-37.9395 101.953-39.8438 99.6582-39.8438C97.3145-39.8438 95.4102-37.9883 95.4102-35.6445C95.4102-33.3008 97.3145-31.3965 99.6582-31.3965ZM22.9004-1.12305L90.7715-1.12305C97.7539-1.12305 101.318-4.78516 101.318-11.6211L101.318-24.5605C101.318-25.5371 100.732-26.2207 99.6582-26.2207C98.6816-26.2207 98.0469-25.5371 98.0469-24.5605L98.0469-11.8164C98.0469-6.93359 95.3613-4.44336 90.6738-4.44336L22.998-4.44336C18.2129-4.44336 15.6738-6.93359 15.6738-11.8164L15.6738-24.5605C15.6738-25.5371 14.9902-26.2207 14.0137-26.2207C13.0371-26.2207 12.3535-25.5371 12.3535-24.5605L12.3535-11.6211C12.3535-4.6875 15.9668-1.12305 22.9004-1.12305Z"/>
  </g>
  <g id="Ultralight-S" transform="matrix(1 0 0 1 502.851 696)">
   <path d="M22.6074-68.75C16.0645-68.75 12.6465-65.2832 12.6465-58.7891L12.6465-45.3125C12.6465-44.6777 13.1348-44.1895 13.7207-44.1895C14.3555-44.1895 14.8438-44.6777 14.8438-45.3125L14.8438-58.6426C14.8438-63.8672 17.5293-66.5527 22.7051-66.5527L91.0156-66.5527C96.0449-66.5527 98.9258-63.8672 98.9258-58.6426L98.9258-45.3125C98.9258-44.6777 99.4141-44.1895 100-44.1895C100.684-44.1895 101.123-44.6777 101.123-45.3125L101.123-58.7891C101.123-65.2344 97.6562-68.75 91.1133-68.75ZM56.6406-18.0664C57.373-18.0664 57.8125-18.5547 57.8125-19.2383L57.8125-49.9512L68.7988-49.9512C69.4336-49.9512 69.873-50.4395 69.873-51.0254C69.873-51.6602 69.4336-52.0996 68.7988-52.0996L44.9219-52.0996C44.3359-52.0996 43.8477-51.6602 43.8477-51.0254C43.8477-50.4395 44.3359-49.9512 44.9219-49.9512L55.5176-49.9512L55.5176-19.2383C55.5176-18.6035 56.0059-18.0664 56.6406-18.0664ZM13.7207-31.4941C15.8691-31.4941 17.6758-33.2031 17.6758-35.4004C17.6758-37.5977 15.8691-39.3066 13.7207-39.3066C11.5723-39.3066 9.76562-37.5977 9.76562-35.4004C9.76562-33.2031 11.5723-31.4941 13.7207-31.4941ZM100-31.4941C102.148-31.4941 103.955-33.2031 103.955-35.4004C103.955-37.5977 102.148-39.3066 100-39.3066C97.8516-39.3066 96.0449-37.5977 96.0449-35.4004C96.0449-33.2031 97.8516-31.4941 100-31.4941ZM22.6074-1.5625L91.1133-1.5625C97.6562-1.5625 101.123-5.12695 101.123-11.5234L101.123-25.0977C101.123-25.7324 100.684-26.2207 100-26.2207C99.4141-26.2207 98.9258-25.7324 98.9258-25.0977L98.9258-11.6699C98.9258-6.44531 96.0449-3.75977 91.0156-3.75977L22.7051-3.75977C17.5293-3.75977 14.8438-6.44531 14.8438-11.6699L14.8438-25.0977C14.8438-25.7324 14.3555-26.2207 13.7207-26.2207C13.1348-26.2207 12.6465-25.7324 12.6465-25.0977L12.6465-11.5234C12.6465-5.0293 16.0645-1.5625 22.6074-1.5625Z"/>
  </g>
 </g>
</svg>
