<?xml version="1.0" encoding="UTF-8"?>
<!--Generator: Apple Native CoreSVG 149-->
<!DOCTYPE svg
PUBLIC "-//W3C//DTD SVG 1.1//EN"
       "http://www.w3.org/Graphics/SVG/1.1/DTD/svg11.dtd">
<svg version="1.1" xmlns="http://www.w3.org/2000/svg" xmlns:xlink="http://www.w3.org/1999/xlink" width="3300" height="2200">
 <!--glyph: "uni100227.medium", point size: 100.000000, font version: "Version 16.0d18e1", template writer version: "8"-->
 <g id="Notes">
  <rect height="2200" id="artboard" style="fill:white;opacity:1" width="3300" x="0" y="0"/>
  <line id="" style="fill:none;stroke:black;opacity:1;stroke-width:0.5;" x1="263" x2="3036" y1="292" y2="292"/>
  <text style="stroke:none;fill:black;font-family:-apple-system,&quot;SF Pro Display&quot;,&quot;SF Pro Text&quot;,Helvetica,sans-serif;font-weight:bold;" transform="matrix(1 0 0 1 263 322)">Weight/Scale Variations</text>
  <text style="stroke:none;fill:black;font-family:-apple-system,&quot;SF Pro Display&quot;,&quot;SF Pro Text&quot;,Helvetica,sans-serif;text-anchor:middle;" transform="matrix(1 0 0 1 559.711 322)">Ultralight</text>
  <text style="stroke:none;fill:black;font-family:-apple-system,&quot;SF Pro Display&quot;,&quot;SF Pro Text&quot;,Helvetica,sans-serif;text-anchor:middle;" transform="matrix(1 0 0 1 856.422 322)">Thin</text>
  <text style="stroke:none;fill:black;font-family:-apple-system,&quot;SF Pro Display&quot;,&quot;SF Pro Text&quot;,Helvetica,sans-serif;text-anchor:middle;" transform="matrix(1 0 0 1 1153.13 322)">Light</text>
  <text style="stroke:none;fill:black;font-family:-apple-system,&quot;SF Pro Display&quot;,&quot;SF Pro Text&quot;,Helvetica,sans-serif;text-anchor:middle;" transform="matrix(1 0 0 1 1449.84 322)">Regular</text>
  <text style="stroke:none;fill:black;font-family:-apple-system,&quot;SF Pro Display&quot;,&quot;SF Pro Text&quot;,Helvetica,sans-serif;text-anchor:middle;" transform="matrix(1 0 0 1 1746.56 322)">Medium</text>
  <text style="stroke:none;fill:black;font-family:-apple-system,&quot;SF Pro Display&quot;,&quot;SF Pro Text&quot;,Helvetica,sans-serif;text-anchor:middle;" transform="matrix(1 0 0 1 2043.27 322)">Semibold</text>
  <text style="stroke:none;fill:black;font-family:-apple-system,&quot;SF Pro Display&quot;,&quot;SF Pro Text&quot;,Helvetica,sans-serif;text-anchor:middle;" transform="matrix(1 0 0 1 2339.98 322)">Bold</text>
  <text style="stroke:none;fill:black;font-family:-apple-system,&quot;SF Pro Display&quot;,&quot;SF Pro Text&quot;,Helvetica,sans-serif;text-anchor:middle;" transform="matrix(1 0 0 1 2636.69 322)">Heavy</text>
  <text style="stroke:none;fill:black;font-family:-apple-system,&quot;SF Pro Display&quot;,&quot;SF Pro Text&quot;,Helvetica,sans-serif;text-anchor:middle;" transform="matrix(1 0 0 1 2933.4 322)">Black</text>
  <line id="" style="fill:none;stroke:black;opacity:1;stroke-width:0.5;" x1="263" x2="3036" y1="1903" y2="1903"/>
  <g id="" transform="matrix(1 0 0 1 263 1933)">
   <path d="M9.24805 0.830078C13.5547 0.830078 17.1387-2.74414 17.1387-7.05078C17.1387-11.3574 13.5449-14.9316 9.23828-14.9316C4.94141-14.9316 1.36719-11.3574 1.36719-7.05078C1.36719-2.74414 4.95117 0.830078 9.24805 0.830078ZM9.24805-0.654297C5.70312-0.654297 2.87109-3.49609 2.87109-7.05078C2.87109-10.6055 5.69336-13.4473 9.23828-13.4473C12.793-13.4473 15.6348-10.6055 15.6445-7.05078C15.6543-3.49609 12.8027-0.654297 9.24805-0.654297ZM6.39648-6.31836L8.50586-6.31836L8.50586-4.19922C8.50586-3.75977 8.79883-3.45703 9.22852-3.45703C9.67773-3.45703 9.9707-3.75977 9.9707-4.19922L9.9707-6.31836L12.0996-6.31836C12.5391-6.31836 12.8418-6.61133 12.8418-7.04102C12.8418-7.48047 12.5391-7.7832 12.0996-7.7832L9.9707-7.7832L9.9707-9.89258C9.9707-10.3418 9.67773-10.6445 9.22852-10.6445C8.79883-10.6445 8.50586-10.3418 8.50586-9.89258L8.50586-7.7832L6.39648-7.7832C5.94727-7.7832 5.64453-7.48047 5.64453-7.04102C5.64453-6.61133 5.94727-6.31836 6.39648-6.31836Z"/>
  </g>
  <g id="" transform="matrix(1 0 0 1 281.506 1933)">
   <path d="M11.709 2.91016C17.1582 2.91016 21.6699-1.61133 21.6699-7.05078C21.6699-12.5 17.1484-17.0117 11.6992-17.0117C6.25977-17.0117 1.74805-12.5 1.74805-7.05078C1.74805-1.61133 6.26953 2.91016 11.709 2.91016ZM11.709 1.25C7.09961 1.25 3.41797-2.44141 3.41797-7.05078C3.41797-11.6602 7.08984-15.3516 11.6992-15.3516C16.3086-15.3516 20-11.6602 20.0098-7.05078C20.0195-2.44141 16.3184 1.25 11.709 1.25ZM7.98828-6.23047L10.8789-6.23047L10.8789-3.32031C10.8789-2.83203 11.2109-2.5 11.6895-2.5C12.1777-2.5 12.5195-2.83203 12.5195-3.32031L12.5195-6.23047L15.4297-6.23047C15.918-6.23047 16.25-6.5625 16.25-7.04102C16.25-7.5293 15.918-7.87109 15.4297-7.87109L12.5195-7.87109L12.5195-10.7617C12.5195-11.2695 12.1777-11.6016 11.6895-11.6016C11.2109-11.6016 10.8789-11.2598 10.8789-10.7617L10.8789-7.87109L7.98828-7.87109C7.48047-7.87109 7.14844-7.5293 7.14844-7.04102C7.14844-6.5625 7.49023-6.23047 7.98828-6.23047Z"/>
  </g>
  <g id="" transform="matrix(1 0 0 1 304.924 1933)">
   <path d="M14.9707 5.66406C21.9336 5.66406 27.6953-0.0976562 27.6953-7.05078C27.6953-14.0137 21.9238-19.7754 14.9609-19.7754C8.00781-19.7754 2.25586-14.0137 2.25586-7.05078C2.25586-0.0976562 8.01758 5.66406 14.9707 5.66406ZM14.9707 3.84766C8.93555 3.84766 4.08203-1.01562 4.08203-7.05078C4.08203-13.0957 8.92578-17.9492 14.9609-17.9492C21.0059-17.9492 25.8594-13.0957 25.8691-7.05078C25.8789-1.01562 21.0156 3.84766 14.9707 3.84766ZM10.0586-6.14258L14.0625-6.14258L14.0625-2.12891C14.0625-1.5918 14.4336-1.2207 14.9512-1.2207C15.4883-1.2207 15.8594-1.5918 15.8594-2.12891L15.8594-6.14258L19.8828-6.14258C20.4102-6.14258 20.791-6.51367 20.791-7.03125C20.791-7.56836 20.4199-7.94922 19.8828-7.94922L15.8594-7.94922L15.8594-11.9531C15.8594-12.5098 15.4883-12.8809 14.9512-12.8809C14.4336-12.8809 14.0625-12.5 14.0625-11.9531L14.0625-7.94922L10.0586-7.94922C9.50195-7.94922 9.13086-7.56836 9.13086-7.03125C9.13086-6.51367 9.51172-6.14258 10.0586-6.14258Z"/>
  </g>
  <text style="stroke:none;fill:black;font-family:-apple-system,&quot;SF Pro Display&quot;,&quot;SF Pro Text&quot;,Helvetica,sans-serif;font-weight:bold;" transform="matrix(1 0 0 1 263 1953)">Design Variations</text>
  <text style="stroke:none;fill:black;font-family:-apple-system,&quot;SF Pro Display&quot;,&quot;SF Pro Text&quot;,Helvetica,sans-serif;" transform="matrix(1 0 0 1 263 1971)">Symbols are supported in up to nine weights and three scales.</text>
  <text style="stroke:none;fill:black;font-family:-apple-system,&quot;SF Pro Display&quot;,&quot;SF Pro Text&quot;,Helvetica,sans-serif;" transform="matrix(1 0 0 1 263 1989)">For optimal layout with text and other symbols, vertically align</text>
  <text style="stroke:none;fill:black;font-family:-apple-system,&quot;SF Pro Display&quot;,&quot;SF Pro Text&quot;,Helvetica,sans-serif;" transform="matrix(1 0 0 1 263 2007)">symbols with the adjacent text.</text>
  <line id="" style="fill:none;stroke:#00AEEF;stroke-width:0.5;opacity:1.0;" x1="776" x2="776" y1="1919" y2="1933"/>
  <g id="" transform="matrix(1 0 0 1 776 1933)">
   <path d="M3.31055 0.126953C3.82812 0.126953 4.08203-0.0683594 4.26758-0.605469L5.52734-4.0625L11.2891-4.0625L12.5488-0.605469C12.7344-0.0683594 12.9883 0.126953 13.4961 0.126953C14.0137 0.126953 14.3457-0.185547 14.3457-0.673828C14.3457-0.839844 14.3164-0.986328 14.2383-1.20117L9.6582-13.3887C9.43359-13.9941 9.0332-14.2871 8.4082-14.2871C7.80273-14.2871 7.39258-13.9941 7.17773-13.3984L2.59766-1.19141C2.51953-0.976562 2.49023-0.830078 2.49023-0.664062C2.49023-0.175781 2.80273 0.126953 3.31055 0.126953ZM6.00586-5.53711L8.37891-12.1094L8.42773-12.1094L10.8008-5.53711Z"/>
  </g>
  <line id="" style="fill:none;stroke:#00AEEF;stroke-width:0.5;opacity:1.0;" x1="792.836" x2="792.836" y1="1919" y2="1933"/>
  <text style="stroke:none;fill:black;font-family:-apple-system,&quot;SF Pro Display&quot;,&quot;SF Pro Text&quot;,Helvetica,sans-serif;font-weight:bold;" transform="matrix(1 0 0 1 776 1953)">Margins</text>
  <text style="stroke:none;fill:black;font-family:-apple-system,&quot;SF Pro Display&quot;,&quot;SF Pro Text&quot;,Helvetica,sans-serif;" transform="matrix(1 0 0 1 776 1971)">Leading and trailing margins on the left and right side of each symbol</text>
  <text style="stroke:none;fill:black;font-family:-apple-system,&quot;SF Pro Display&quot;,&quot;SF Pro Text&quot;,Helvetica,sans-serif;" transform="matrix(1 0 0 1 776 1989)">can be adjusted by modifying the x-location of the margin guidelines.</text>
  <text style="stroke:none;fill:black;font-family:-apple-system,&quot;SF Pro Display&quot;,&quot;SF Pro Text&quot;,Helvetica,sans-serif;" transform="matrix(1 0 0 1 776 2007)">Modifications are automatically applied proportionally to all</text>
  <text style="stroke:none;fill:black;font-family:-apple-system,&quot;SF Pro Display&quot;,&quot;SF Pro Text&quot;,Helvetica,sans-serif;" transform="matrix(1 0 0 1 776 2025)">scales and weights.</text>
  <g id="" transform="matrix(1 0 0 1 1289 1933)">
   <path d="M2.8418 1.86523L4.54102 3.57422C5.40039 4.44336 6.38672 4.38477 7.31445 3.35938L17.4902-7.85156C17.7539-7.76367 18.0273-7.7832 18.3398-7.8418L19.4043-8.03711L20.0684-7.36328L20.0293-6.80664C19.9902-6.30859 20.1172-5.92773 20.6055-5.44922L21.3672-4.70703C21.8457-4.22852 22.4609-4.19922 22.9297-4.66797L25.8398-7.58789C26.3086-8.05664 26.2891-8.65234 25.8105-9.13086L25.0391-9.89258C24.5605-10.3711 24.1895-10.5273 23.7109-10.4883L23.1348-10.4395L22.4902-11.0742L22.7344-12.1973C22.8613-12.7637 22.7051-13.2031 22.1191-13.7891L19.9219-15.9766C16.582-19.2969 12.1484-19.2188 9.25781-16.3281C8.83789-15.918 8.80859-15.3418 9.04297-14.9512C9.27734-14.5898 9.73633-14.3555 10.3809-14.5215C11.8457-14.8633 13.3691-14.9219 14.7949-13.9844L14.209-12.5293C14.0137-12.0508 13.9844-11.6504 14.1113-11.2891L3.04688-0.898438C2.06055 0.0195312 1.98242 0.996094 2.8418 1.86523ZM10.752-15.957C13.1836-17.7344 16.4746-17.4316 18.7012-15.2051L21.1328-12.793C21.3672-12.5586 21.4062-12.373 21.3379-12.0312L21.0156-10.5469L22.5195-9.0625L23.5059-9.12109C23.7598-9.13086 23.8379-9.11133 24.0332-8.91602L24.6094-8.33984L22.168-5.89844L21.5918-6.47461C21.3965-6.66992 21.3672-6.74805 21.377-7.01172L21.4453-7.98828L19.9512-9.47266L18.4277-9.21875C18.1055-9.15039 17.959-9.17969 17.7148-9.41406L15.7129-11.416C15.459-11.6504 15.4297-11.8164 15.5859-12.1875L16.4648-14.2773C14.9023-15.7324 12.8711-16.3574 10.8398-15.7617C10.6836-15.7227 10.625-15.8496 10.752-15.957ZM5.27344 2.30469L4.10156 1.14258C3.63281 0.683594 3.74023 0.341797 4.14062-0.0195312L14.9512-10.1953L16.416-8.71094L6.42578 2.27539C6.07422 2.67578 5.74219 2.77344 5.27344 2.30469Z"/>
  </g>
  <text style="stroke:none;fill:black;font-family:-apple-system,&quot;SF Pro Display&quot;,&quot;SF Pro Text&quot;,Helvetica,sans-serif;font-weight:bold;" transform="matrix(1 0 0 1 1289 1953)">Exporting</text>
  <text style="stroke:none;fill:black;font-family:-apple-system,&quot;SF Pro Display&quot;,&quot;SF Pro Text&quot;,Helvetica,sans-serif;" transform="matrix(1 0 0 1 1289 1971)">Symbols should be outlined when exporting to ensure the</text>
  <text style="stroke:none;fill:black;font-family:-apple-system,&quot;SF Pro Display&quot;,&quot;SF Pro Text&quot;,Helvetica,sans-serif;" transform="matrix(1 0 0 1 1289 1989)">design is preserved when submitting to Xcode.</text>
  <text id="template-version" style="stroke:none;fill:black;font-family:-apple-system,&quot;SF Pro Display&quot;,&quot;SF Pro Text&quot;,Helvetica,sans-serif;text-anchor:end;" transform="matrix(1 0 0 1 3036 1933)">Template v.2.0</text>
  <text style="stroke:none;fill:black;font-family:-apple-system,&quot;SF Pro Display&quot;,&quot;SF Pro Text&quot;,Helvetica,sans-serif;text-anchor:end;" transform="matrix(1 0 0 1 3036 1951)">Requires Xcode 12 or greater</text>
  <text style="stroke:none;fill:black;font-family:-apple-system,&quot;SF Pro Display&quot;,&quot;SF Pro Text&quot;,Helvetica,sans-serif;text-anchor:end;" transform="matrix(1 0 0 1 3036 1969)">Generated from tray.and.arrow.down</text>
  <text style="stroke:none;fill:black;font-family:-apple-system,&quot;SF Pro Display&quot;,&quot;SF Pro Text&quot;,Helvetica,sans-serif;text-anchor:end;" transform="matrix(1 0 0 1 3036 1987)">Typeset at 100 points</text>
  <text style="stroke:none;fill:black;font-family:-apple-system,&quot;SF Pro Display&quot;,&quot;SF Pro Text&quot;,Helvetica,sans-serif;" transform="matrix(1 0 0 1 263 726)">Small</text>
  <text style="stroke:none;fill:black;font-family:-apple-system,&quot;SF Pro Display&quot;,&quot;SF Pro Text&quot;,Helvetica,sans-serif;" transform="matrix(1 0 0 1 263 1156)">Medium</text>
  <text style="stroke:none;fill:black;font-family:-apple-system,&quot;SF Pro Display&quot;,&quot;SF Pro Text&quot;,Helvetica,sans-serif;" transform="matrix(1 0 0 1 263 1586)">Large</text>
 </g>
 <g id="Guides">
  <g id="H-reference" style="fill:#27AAE1;stroke:none;" transform="matrix(1 0 0 1 339 696)">
   <path d="M0.976562 0L3.66211 0L12.9883-24.4629L45.752-24.4629L55.127 0L57.7637 0L30.6152-70.459L28.125-70.459ZM29.3457-67.1387L29.4434-67.1387L44.873-26.709L13.8672-26.709Z"/>
  </g>
  <line id="Baseline-S" style="fill:none;stroke:#27AAE1;opacity:1;stroke-width:0.5;" x1="263" x2="3036" y1="696" y2="696"/>
  <line id="Capline-S" style="fill:none;stroke:#27AAE1;opacity:1;stroke-width:0.5;" x1="263" x2="3036" y1="625.541" y2="625.541"/>
  <g id="H-reference" style="fill:#27AAE1;stroke:none;" transform="matrix(1 0 0 1 339 1126)">
   <path d="M0.976562 0L3.66211 0L12.9883-24.4629L45.752-24.4629L55.127 0L57.7637 0L30.6152-70.459L28.125-70.459ZM29.3457-67.1387L29.4434-67.1387L44.873-26.709L13.8672-26.709Z"/>
  </g>
  <line id="Baseline-M" style="fill:none;stroke:#27AAE1;opacity:1;stroke-width:0.5;" x1="263" x2="3036" y1="1126" y2="1126"/>
  <line id="Capline-M" style="fill:none;stroke:#27AAE1;opacity:1;stroke-width:0.5;" x1="263" x2="3036" y1="1055.54" y2="1055.54"/>
  <g id="H-reference" style="fill:#27AAE1;stroke:none;" transform="matrix(1 0 0 1 339 1556)">
   <path d="M0.976562 0L3.66211 0L12.9883-24.4629L45.752-24.4629L55.127 0L57.7637 0L30.6152-70.459L28.125-70.459ZM29.3457-67.1387L29.4434-67.1387L44.873-26.709L13.8672-26.709Z"/>
  </g>
  <line id="Baseline-L" style="fill:none;stroke:#27AAE1;opacity:1;stroke-width:0.5;" x1="263" x2="3036" y1="1556" y2="1556"/>
  <line id="Capline-L" style="fill:none;stroke:#27AAE1;opacity:1;stroke-width:0.5;" x1="263" x2="3036" y1="1485.54" y2="1485.54"/>
  <line id="left-margin" style="fill:none;stroke:#00AEEF;stroke-width:0.5;opacity:1.0;" x1="1379.82" x2="1379.82" y1="1030.79" y2="1150.12"/>
  <line id="right-margin" style="fill:none;stroke:#00AEEF;stroke-width:0.5;opacity:1.0;" x1="1519.86" x2="1519.86" y1="1030.79" y2="1150.12"/>
 </g>
 <g id="Symbols">
  <g id="Black-L" transform="matrix(1 0 0 1 2841.51 1556)">
   <path d="M91.8945-37.3047C94.0918-37.3047 96.2402-38.0859 98.4375-40.1367L116.26-57.1777C117.627-58.4961 118.311-59.9121 118.311-61.9141C118.311-65.8203 114.99-68.5059 111.523-68.5059C109.473-68.5059 107.666-67.627 106.348-66.2109L101.514-60.9863L99.2676-56.5918L100.732-66.1621L100.732-104.785C100.732-109.424 96.875-113.477 91.8945-113.477C86.9629-113.477 83.1055-109.424 83.1055-104.785L83.1055-66.1621L84.5703-56.5918L82.3242-60.9863L77.4902-66.2109C76.1719-67.627 74.3164-68.5059 72.3145-68.5059C68.7988-68.5059 65.5273-65.8203 65.5273-61.9141C65.5273-59.9121 66.2109-58.4961 67.5781-57.1777L85.4004-40.1367C87.5977-38.0859 89.7461-37.3047 91.8945-37.3047ZM39.9902 33.1055L143.799 33.1055C159.082 33.1055 167.725 24.5117 167.725 9.32617L167.725-27.002C167.725-36.6699 166.797-42.5293 163.135-47.9492L145.654-73.3398C137.354-85.4492 131.543-89.7461 118.652-89.7461L112.109-89.7461L112.109-74.6094L118.945-74.6094C122.705-74.6094 125.83-72.0215 128.027-68.7988L146.924-40.4785C148.193-38.6719 147.461-37.5488 144.922-37.5488L107.764-37.5488C104.199-37.5488 102.832-35.6445 102.832-33.4473L102.832-33.3008C102.832-28.1738 98.9746-22.2168 91.8945-22.2168C84.8145-22.2168 80.957-28.1738 80.957-33.3008L80.957-33.4473C80.957-35.6445 79.5898-37.5488 75.9766-37.5488L38.8672-37.5488C36.2793-37.5488 35.6934-38.7207 36.9141-40.4785L55.8105-68.7988C58.0078-72.0215 61.1328-74.6094 64.8926-74.6094L71.6797-74.6094L71.6797-89.7461L65.1367-89.7461C52.2461-89.7461 46.582-85.5957 38.1836-73.3398L20.6055-47.9492C16.8945-42.4805 16.0645-36.6699 16.0645-27.002L16.0645 9.32617C16.0645 24.5117 24.7559 33.1055 39.9902 33.1055ZM41.9922 12.8906C37.793 12.8906 35.5957 10.9863 35.5957 6.44531L35.5957-20.5078L66.1621-20.5078C69.7266-10.9375 79.2969-3.75977 91.8945-3.75977C104.443-3.75977 114.014-10.9375 117.578-20.5078L148.145-20.5078L148.145 6.44531C148.145 10.9863 145.996 12.8906 141.748 12.8906Z"/>
  </g>
  <g id="Heavy-L" transform="matrix(1 0 0 1 2545.23 1556)">
   <path d="M91.5039-35.5957C93.4082-35.5957 95.2637-36.2793 97.168-38.0859L115.967-56.1523C117.188-57.3242 117.822-58.6426 117.822-60.4492C117.822-63.916 114.893-66.3574 111.719-66.3574C109.912-66.3574 108.252-65.625 107.031-64.3066L100.977-57.7637L97.998-53.1738L99.2188-62.6465L99.2188-104.59C99.2188-108.691 95.8008-112.256 91.5039-112.256C87.1582-112.256 83.7402-108.691 83.7402-104.59L83.7402-62.6465L84.9609-53.125L81.9824-57.7637L75.8789-64.3066C74.707-65.625 72.998-66.3574 71.1914-66.3574C68.0176-66.3574 65.1367-63.916 65.1367-60.4492C65.1367-58.6426 65.7715-57.3242 66.9922-56.1523L85.791-38.0859C87.6953-36.2793 89.5508-35.5957 91.5039-35.5957ZM38.8184 32.5195L144.092 32.5195C158.74 32.5195 166.846 24.4141 166.846 9.91211L166.846-26.4648C166.846-35.1074 165.967-40.1367 162.598-45.0195L143.799-71.1914C135.84-82.4219 130.42-86.7676 118.115-86.7676L110.986-86.7676L110.986-73.4375L118.457-73.4375C122.461-73.4375 125.928-70.6543 128.32-67.2363L148.34-38.5742C149.805-36.5234 149.072-35.4004 146.436-35.4004L108.203-35.4004C104.785-35.4004 103.418-33.4473 103.418-31.2012L103.418-31.0059C103.418-25.1953 99.0234-18.8477 91.4551-18.8477C83.8867-18.8477 79.4434-25.1953 79.4434-31.0059L79.4434-31.2012C79.4434-33.4473 78.0762-35.4004 74.6582-35.4004L36.5234-35.4004C33.7891-35.4004 33.2031-36.6211 34.6191-38.5742L54.5898-67.2363C57.0312-70.6543 60.4492-73.4375 64.4531-73.4375L71.9238-73.4375L71.9238-86.7676L64.8438-86.7676C52.4902-86.7676 47.168-82.5684 39.1602-71.1914L20.3125-45.0195C16.8457-40.0879 16.0645-35.1074 16.0645-26.4648L16.0645 9.91211C16.0645 24.4629 24.2188 32.5195 38.8184 32.5195ZM40.3809 15.0391C35.5469 15.0391 33.0566 12.7441 33.0566 7.61719L33.0566-20.5078L66.2598-20.5078C69.2383-10.4004 78.8574-2.83203 91.4551-2.83203C104.004-2.83203 113.623-10.4004 116.65-20.5078L149.854-20.5078L149.854 7.61719C149.854 12.7441 147.314 15.0391 142.48 15.0391Z"/>
  </g>
  <g id="Bold-L" transform="matrix(1 0 0 1 2249.01 1556)">
   <path d="M91.0156-33.6914C92.627-33.6914 94.1895-34.2773 95.8008-35.8398L115.625-54.9805C116.699-56.0547 117.285-57.2266 117.285-58.7891C117.285-61.8164 114.795-63.9648 111.914-63.9648C110.4-63.9648 108.936-63.3301 107.861-62.1582L100.342-54.1992L96.6309-49.3164L97.5586-58.7402L97.5586-104.443C97.5586-107.91 94.6289-110.889 91.0156-110.889C87.3535-110.889 84.4238-107.91 84.4238-104.443L84.4238-58.7402L85.3516-49.3164L81.6406-54.1992L74.1211-62.1582C73.0469-63.3301 71.5332-63.9648 70.0195-63.9648C67.1387-63.9648 64.6484-61.8164 64.6484-58.7891C64.6484-57.2266 65.2344-56.0547 66.3574-54.9805L86.1816-35.8398C87.793-34.2773 89.3555-33.6914 91.0156-33.6914ZM37.5 31.8848L144.385 31.8848C158.35 31.8848 165.869 24.3652 165.869 10.5469L165.869-25.8789C165.869-33.3008 165.039-37.5 161.963-41.748L141.699-68.7988C134.18-79.0527 129.15-83.4961 117.48-83.4961L109.766-83.4961L109.766-72.1191L117.969-72.1191C122.266-72.1191 126.025-69.043 128.662-65.4785L149.902-36.4258C151.611-34.1309 150.879-32.959 148.096-32.959L108.691-32.959C105.469-32.959 104.102-30.957 104.102-28.6621L104.102-28.418C104.102-21.875 99.0723-15.0391 90.9668-15.0391C82.8125-15.0391 77.832-21.875 77.832-28.418L77.832-28.6621C77.832-30.957 76.416-32.959 73.1934-32.959L33.8379-32.959C31.0059-32.959 30.4199-34.2285 32.0801-36.4258L53.2715-65.4785C55.9082-69.043 59.7168-72.1191 63.9648-72.1191L72.2168-72.1191L72.2168-83.4961L64.4531-83.4961C52.7832-83.4961 47.8516-79.1504 40.2344-68.7988L19.9707-41.748C16.8457-37.4512 16.0645-33.3008 16.0645-25.8789L16.0645 10.5469C16.0645 24.4141 23.6328 31.8848 37.5 31.8848ZM38.623 17.4316C33.1055 17.4316 30.1758 14.6484 30.1758 8.88672L30.1758-20.5078L66.3086-20.5078C68.7012-9.76562 78.3691-1.80664 90.9668-1.80664C103.516-1.80664 113.184-9.76562 115.576-20.5078L151.758-20.5078L151.758 8.88672C151.758 14.6484 148.73 17.4316 143.311 17.4316Z"/>
  </g>
  <g id="Semibold-L" transform="matrix(1 0 0 1 1952.64 1556)">
   <path d="M90.6738-32.4219C92.0898-32.4219 93.4082-32.9102 94.8242-34.2773L115.381-54.1992C116.406-55.1758 116.943-56.2012 116.943-57.6172C116.943-60.3516 114.697-62.3047 112.061-62.3047C110.742-62.3047 109.375-61.7676 108.447-60.6934L99.9023-51.709L95.7031-46.6797L96.3867-56.0547L96.3867-104.297C96.3867-107.324 93.7988-109.912 90.6738-109.912C87.5-109.912 84.9121-107.324 84.9121-104.297L84.9121-56.0547L85.6445-46.6797L81.3965-51.709L72.8516-60.6934C71.9238-61.7676 70.5078-62.3047 69.1406-62.3047C66.5039-62.3047 64.3555-60.3516 64.3555-57.6172C64.3555-56.2012 64.8926-55.1758 65.8691-54.1992L86.4746-34.2773C87.8906-32.9102 89.209-32.4219 90.6738-32.4219ZM36.6211 31.3965L144.629 31.3965C158.057 31.3965 165.186 24.3164 165.186 10.9863L165.186-25.4883C165.186-32.0801 164.404-35.6445 161.523-39.502L140.283-67.1875C133.008-76.7578 128.271-81.2012 117.041-81.2012L108.887-81.2012L108.887-71.1914L117.627-71.1914C122.07-71.1914 126.123-67.9688 128.906-64.2578L150.977-34.9609C152.832-32.4707 152.1-31.2988 149.268-31.2988L109.033-31.2988C105.957-31.2988 104.541-29.248 104.541-26.9043L104.541-26.6602C104.541-19.5801 99.1211-12.4512 90.625-12.4512C82.1289-12.4512 76.6602-19.5801 76.6602-26.6602L76.6602-26.9043C76.6602-29.248 75.293-31.2988 72.168-31.2988L32.0312-31.2988C29.1016-31.2988 28.4668-32.6172 30.2734-34.9609L52.3438-64.2578C55.127-67.9688 59.1797-71.1914 63.623-71.1914L72.3633-71.1914L72.3633-81.2012L64.209-81.2012C52.9785-81.2012 48.291-76.8066 40.9668-67.1875L19.7266-39.502C16.8457-35.5957 16.0645-32.0801 16.0645-25.4883L16.0645 10.9863C16.0645 24.3652 23.1934 31.3965 36.6211 31.3965ZM37.4023 19.043C31.3965 19.043 28.1738 16.0156 28.1738 9.76562L28.1738-20.5078L66.3574-20.5078C68.3594-9.32617 78.0762-1.12305 90.625-1.12305C103.174-1.12305 112.891-9.375 114.844-20.5078L153.076-20.5078L153.076 9.76562C153.076 16.0156 149.756 19.043 143.848 19.043Z"/>
  </g>
  <g id="Medium-L" transform="matrix(1 0 0 1 1656.2 1556)">
   <path d="M90.3809-31.3965C91.6992-31.3965 92.8711-31.8359 94.0918-33.1055L115.234-53.6133C116.113-54.4922 116.65-55.4688 116.65-56.7871C116.65-59.2773 114.648-61.084 112.207-61.084C110.986-61.084 109.717-60.5469 108.838-59.5703L99.5605-49.8047L94.9707-44.6777L95.5078-54.0039L95.5078-104.199C95.5078-106.934 93.2129-109.229 90.3809-109.229C87.5977-109.229 85.3027-106.934 85.3027-104.199L85.3027-54.0039L85.8398-44.6289L81.2012-49.8047L71.9238-59.5703C71.0449-60.5469 69.7266-61.084 68.5059-61.084C66.0645-61.084 64.1113-59.2773 64.1113-56.7871C64.1113-55.4688 64.6484-54.4922 65.5273-53.6133L86.6699-33.1055C87.9395-31.8359 89.1113-31.3965 90.3809-31.3965ZM35.9375 31.0547L144.775 31.0547C157.861 31.0547 164.648 24.2676 164.648 11.3281L164.648-25.1465C164.648-31.1523 163.916-34.2285 161.182-37.793L139.209-65.918C132.129-75 127.637-79.4434 116.699-79.4434L108.252-79.4434L108.252-70.5078L117.383-70.5078C121.973-70.5078 126.172-67.1387 129.102-63.3301L151.758-33.8379C153.809-31.2012 153.027-30.0293 150.146-30.0293L109.326-30.0293C106.299-30.0293 104.932-27.9297 104.932-25.5859L104.932-25.3418C104.932-17.8711 99.1699-10.4492 90.3809-10.4492C81.5918-10.4492 75.8301-17.8711 75.8301-25.3418L75.8301-25.5859C75.8301-27.9297 74.4141-30.0293 71.4355-30.0293L30.6641-30.0293C27.6367-30.0293 27.0508-31.3477 28.9551-33.8379L51.6113-63.3301C54.5898-67.1387 58.7891-70.5078 63.3789-70.5078L72.5098-70.5078L72.5098-79.4434L64.0137-79.4434C53.125-79.4434 48.6328-75.0488 41.5527-65.918L19.5312-37.793C16.7969-34.2285 16.0645-31.1523 16.0645-25.1465L16.0645 11.3281C16.0645 24.3164 22.9004 31.0547 35.9375 31.0547ZM36.4746 20.3125C30.127 20.3125 26.6602 16.9922 26.6602 10.4492L26.6602-20.5078L66.4062-20.5078C68.0664-8.98438 77.832-0.585938 90.3809-0.585938C102.93-0.585938 112.646-9.0332 114.307-20.5078L154.053-20.5078L154.053 10.4492C154.053 16.9922 150.537 20.3125 144.287 20.3125Z"/>
  </g>
  <g id="Regular-L" transform="matrix(1 0 0 1 1359.81 1556)">
   <path d="M90.0879-30.127C91.1621-30.127 92.0898-30.4688 93.1641-31.543L114.99-52.832C115.82-53.6133 116.26-54.4922 116.26-55.6641C116.26-57.8125 114.551-59.4238 112.354-59.4238C111.328-59.4238 110.156-58.9844 109.424-58.1543L99.1211-47.3633L93.9941-42.041L94.3359-51.3184L94.3359-104.102C94.3359-106.348 92.3828-108.252 90.0879-108.252C87.7441-108.252 85.791-106.348 85.791-104.102L85.791-51.3184L86.1328-42.041L80.957-47.3633L70.7031-58.1543C69.9219-58.9844 68.75-59.4238 67.6758-59.4238C65.4785-59.4238 63.8184-57.8125 63.8184-55.6641C63.8184-54.4922 64.3066-53.6133 65.0879-52.832L86.9629-31.543C88.0371-30.4688 88.9648-30.127 90.0879-30.127ZM35.0586 30.6152L144.971 30.6152C157.617 30.6152 164.014 24.2188 164.014 11.7676L164.014-24.7559C164.014-29.9316 163.281-32.4219 160.742-35.5957L137.793-64.3066C131.006-72.7051 126.758-77.1973 116.309-77.1973L107.422-77.1973L107.422-69.5801L117.041-69.5801C121.777-69.5801 126.27-66.0645 129.346-62.1582L152.832-32.373C155.029-29.5898 154.297-28.418 151.27-28.418L109.668-28.418C106.738-28.418 105.371-26.2695 105.371-23.877L105.371-23.584C105.371-15.5762 99.1699-7.86133 90.0391-7.86133C80.8594-7.86133 74.707-15.5762 74.707-23.584L74.707-23.877C74.707-26.2695 73.291-28.418 70.4102-28.418L28.8574-28.418C25.7324-28.418 25.1465-29.7363 27.1973-32.373L50.7324-62.1582C53.8086-66.0645 58.252-69.5801 63.0371-69.5801L72.7051-69.5801L72.7051-77.1973L63.7695-77.1973C53.2715-77.1973 49.0723-72.7051 42.2852-64.3066L19.2871-35.5957C16.7969-32.4219 16.0645-29.9316 16.0645-24.7559L16.0645 11.7676C16.0645 24.2676 22.4609 30.6152 35.0586 30.6152ZM35.2539 21.9238C28.418 21.9238 24.707 18.3105 24.707 11.3281L24.707-20.5078L66.4551-20.5078C67.6758-8.54492 77.4902 0.146484 90.0391 0.146484C102.588 0.146484 112.354-8.59375 113.574-20.5078L155.322-20.5078L155.322 11.3281C155.322 18.3105 151.514 21.9238 144.824 21.9238Z"/>
  </g>
  <g id="Light-L" transform="matrix(1 0 0 1 1063.56 1556)">
   <path d="M89.5996-30.0293C90.4785-30.0293 91.2109-30.3223 91.9922-31.1035L114.551-53.3691C115.186-54.0039 115.527-54.6387 115.527-55.5176C115.527-57.1777 114.209-58.4473 112.549-58.4473C111.719-58.4473 110.84-58.1055 110.254-57.4219L98.9746-45.8496L92.6758-39.4043L92.9199-48.3887L92.9199-105.176C92.9199-106.934 91.4062-108.398 89.5996-108.398C87.8418-108.398 86.3281-106.934 86.3281-105.176L86.3281-48.3887L86.5723-39.3555L80.2246-45.8496L68.9453-57.4219C68.3594-58.1055 67.4316-58.4473 66.6504-58.4473C64.9414-58.4473 63.6719-57.1777 63.6719-55.5176C63.6719-54.6387 64.0137-54.0039 64.6484-53.3691L87.2559-31.1035C88.0371-30.3223 88.7695-30.0293 89.5996-30.0293ZM34.0332 29.7852L145.117 29.7852C157.031 29.7852 163.086 23.6328 163.086 11.9141L163.086-23.584C163.086-27.9785 162.451-30.0781 160.303-32.7637L135.742-63.9648C129.736-71.4844 125.928-74.8535 116.406-74.8535L108.008-74.8535L108.008-68.9941L117.139-68.9941C122.168-68.9941 126.172-66.1621 129.248-62.2559L154.346-30.2734C156.006-28.0762 155.469-27.002 153.076-27.002L109.473-27.002C107.031-27.002 105.859-25.293 105.859-23.1934L105.859-22.8516C105.859-13.916 99.0723-6.20117 89.5996-6.20117C80.0781-6.20117 73.291-13.916 73.291-22.8516L73.291-23.1934C73.291-25.293 72.1191-27.002 69.7266-27.002L26.123-27.002C23.6816-27.002 23.2422-28.1738 24.8535-30.2734L49.9512-62.2559C53.0273-66.1621 57.0312-68.9941 62.0605-68.9941L71.2402-68.9941L71.2402-74.8535L62.793-74.8535C53.2227-74.8535 49.4141-71.4844 43.4082-63.9648L18.8477-32.7637C16.6992-30.0781 16.0645-27.9785 16.0645-23.584L16.0645 11.9141C16.0645 23.7305 22.168 29.7852 34.0332 29.7852ZM34.1797 23.1445C26.709 23.1445 22.7051 19.2383 22.7051 11.5723L22.7051-20.8984L66.8945-20.8984C67.6758-8.69141 77.3926-0.0488281 89.5996-0.0488281C101.807-0.0488281 111.475-8.78906 112.256-20.8984L156.494-20.8984L156.494 11.5723C156.494 19.2383 152.295 23.1445 144.971 23.1445Z"/>
  </g>
  <g id="Thin-L" transform="matrix(1 0 0 1 767.433 1556)">
   <path d="M89.0137-29.9316C89.5508-29.9316 89.9902-30.0781 90.4297-30.5176L113.965-54.0527C114.355-54.4434 114.551-54.834 114.551-55.3223C114.551-56.3477 113.721-57.1777 112.793-57.1777C112.305-57.1777 111.719-56.8848 111.328-56.4941L98.7305-43.8477L90.8691-35.8887L91.0156-44.5801L91.0156-106.641C91.0156-107.666 90.0879-108.545 89.0137-108.545C87.9395-108.545 87.0605-107.666 87.0605-106.641L87.0605-44.5801L87.207-35.791L79.248-43.8477L66.6504-56.4941C66.2598-56.8848 65.6738-57.1777 65.1855-57.1777C64.209-57.1777 63.4277-56.3477 63.4277-55.3223C63.4277-54.834 63.623-54.4434 64.0137-54.0527L87.6465-30.5176C88.0859-30.0781 88.5254-29.9316 89.0137-29.9316ZM32.666 28.7109L145.312 28.7109C156.201 28.7109 161.914 22.8516 161.914 12.1094L161.914-22.0215C161.914-25.3906 161.426-26.9531 159.766-29.1016L133.057-63.5254C128.125-69.873 124.854-71.7773 116.553-71.7773L108.838-71.7773L108.838-68.1641L117.285-68.1641C122.656-68.1641 126.025-66.2598 129.102-62.4023L156.299-27.4902C157.324-26.0742 157.031-25.1465 155.518-25.1465L109.18-25.1465C107.422-25.1465 106.543-24.0234 106.543-22.3145L106.543-21.875C106.543-11.7188 98.9258-4.00391 89.0137-4.00391C79.0527-4.00391 71.4844-11.7188 71.4844-21.875L71.4844-22.3145C71.4844-24.0234 70.6055-25.1465 68.7988-25.1465L22.5098-25.1465C20.9473-25.1465 20.6543-26.0742 21.7285-27.4902L48.9258-62.4023C51.9531-66.2598 55.3711-68.1641 60.7422-68.1641L69.3359-68.1641L69.3359-71.7773L61.4258-71.7773C53.1738-71.7773 49.9023-69.873 44.9219-63.5254L18.2129-29.1016C16.6016-26.9531 16.0645-25.3906 16.0645-22.0215L16.0645 12.1094C16.0645 22.998 21.7773 28.7109 32.666 28.7109ZM32.8125 24.7559C24.4141 24.7559 19.9707 20.4102 19.9707 11.9141L19.9707-21.4355L67.4805-21.4355C67.6758-8.83789 77.2461-0.292969 89.0137-0.292969C100.781-0.292969 110.303-8.98438 110.547-21.4355L158.008-21.4355L158.008 11.9141C158.008 20.4102 153.32 24.7559 145.166 24.7559Z"/>
  </g>
  <g id="Ultralight-L" transform="matrix(1 0 0 1 471.015 1556)">
   <path d="M88.7207-29.834C89.0625-29.834 89.4043-29.9805 89.5996-30.2246L113.672-54.4434C113.916-54.6875 114.062-54.9316 114.062-55.2734C114.062-55.9082 113.428-56.4941 112.891-56.4941C112.598-56.4941 112.158-56.2988 111.914-56.0059L98.6328-42.8223L89.9414-34.082L90.0391-42.627L90.0391-107.373C90.0391-108.057 89.4531-108.643 88.7207-108.643C88.0371-108.643 87.4512-108.057 87.4512-107.373L87.4512-42.627L87.5-33.9844L78.7598-42.8223L65.4785-56.0059C65.1855-56.2988 64.7949-56.4941 64.502-56.4941C63.8672-56.4941 63.3301-55.9082 63.3301-55.2734C63.3301-54.9316 63.4766-54.6875 63.7207-54.4434L87.8418-30.2246C88.0859-29.9805 88.4277-29.834 88.7207-29.834ZM31.9824 28.1738L145.41 28.1738C155.811 28.1738 161.328 22.4609 161.328 12.207L161.328-21.1914C161.328-24.1211 160.889-25.3418 159.473-27.1973L131.689-63.3301C127.295-69.043 124.268-70.2148 116.602-70.2148L109.229-70.2148L109.229-67.7246L117.334-67.7246C122.9-67.7246 125.977-66.3574 129.004-62.5L157.275-26.0742C158.008-25.0488 157.812-24.2188 156.738-24.2188L109.033-24.2188C107.568-24.2188 106.885-23.3887 106.885-21.875L106.885-21.3379C106.885-10.5957 98.877-2.88086 88.7207-2.88086C78.5156-2.88086 70.5566-10.5957 70.5566-21.3379L70.5566-21.875C70.5566-23.3887 69.8242-24.2188 68.3594-24.2188L20.6543-24.2188C19.5801-24.2188 19.3848-25.0488 20.1172-26.0742L48.3887-62.5C51.416-66.3574 54.4922-67.7246 60.0586-67.7246L68.3594-67.7246L68.3594-70.2148L60.791-70.2148C53.125-70.2148 50.0977-69.043 45.7031-63.3301L17.9199-27.1973C16.5039-25.3418 16.0645-24.1211 16.0645-21.1914L16.0645 12.207C16.0645 22.6074 21.582 28.1738 31.9824 28.1738ZM32.1289 25.5859C23.1934 25.5859 18.6035 20.9961 18.6035 12.1094L18.6035-21.7285L67.7734-21.7285C67.6758-8.93555 77.1484-0.439453 88.7207-0.439453C100.244-0.439453 109.717-9.13086 109.668-21.7285L158.789-21.7285L158.789 12.1094C158.789 20.9961 153.857 25.5859 145.264 25.5859Z"/>
  </g>
  <g id="Black-M" transform="matrix(1 0 0 1 2861.84 1126)">
   <path d="M71.582-39.0625C73.4863-39.0625 75.4395-39.7461 77.3438-41.5039L90.2832-53.9062C91.4062-54.9805 91.9434-56.1523 91.9434-57.8613C91.9434-61.1328 89.0625-63.3789 86.2793-63.3789C84.5215-63.3789 83.0078-62.5977 81.8848-61.4258L79.3457-58.7402L77.8809-54.9805L79.3457-62.4023L79.3457-89.9414C79.3457-93.9941 76.0254-97.6074 71.582-97.6074C67.1875-97.6074 63.8672-93.9941 63.8672-89.9414L63.8672-62.4023L65.332-54.9805L63.8184-58.7402L61.3281-61.4258C60.2051-62.5977 58.6914-63.3789 56.9336-63.3789C54.1016-63.3789 51.2207-61.1328 51.2207-57.8613C51.2207-56.1523 51.8066-54.9805 52.9297-53.9062L65.8691-41.5039C67.7734-39.7461 69.7266-39.0625 71.582-39.0625ZM31.9824 18.1152L111.133 18.1152C123.389 18.1152 130.664 10.8398 130.664-1.41602L130.664-28.9062C130.664-37.4512 129.98-42.8223 127.002-47.5586L114.258-67.4316C107.812-77.5391 103.027-80.2246 92.7734-80.2246L88.7207-80.2246L88.7207-67.041L92.8223-67.041C95.5566-67.041 97.3145-65.7227 98.7305-63.4277L112.744-40.7227C113.232-39.9902 112.744-39.1602 111.279-39.1602L82.8125-39.1602C80.0781-39.1602 79.1504-38.0371 79.1504-36.5234L79.1504-36.4258C79.1504-32.9102 76.5625-28.8086 71.582-28.8086C66.5527-28.8086 63.9648-32.9102 63.9648-36.4258L63.9648-36.5234C63.9648-38.0371 63.0371-39.1602 60.3027-39.1602L31.8359-39.1602C30.4199-39.1602 29.9805-39.9902 30.4199-40.7227L44.4824-63.4277C45.8496-65.7227 47.6074-67.041 50.3418-67.041L54.4434-67.041L54.4434-80.2246L50.3906-80.2246C40.1367-80.2246 35.5469-77.7344 28.9062-67.4316L16.1621-47.5586C13.0859-42.7734 12.4512-37.4512 12.4512-28.9062L12.4512-1.41602C12.4512 10.8398 19.7266 18.1152 31.9824 18.1152ZM34.1309-0.146484C31.2988-0.146484 29.9805-1.26953 29.9805-4.3457L29.9805-24.0723L51.416-24.0723C54.6875-17.2363 61.9629-12.207 71.582-12.207C81.1523-12.207 88.4277-17.2363 91.6992-24.0723L113.135-24.0723L113.135-4.3457C113.135-1.26953 111.816-0.146484 108.984-0.146484Z"/>
  </g>
  <g id="Heavy-M" transform="matrix(1 0 0 1 2565.5 1126)">
   <path d="M71.2402-37.2559C72.9004-37.2559 74.6094-37.8418 76.2695-39.4043L90.0879-52.6367C91.1133-53.6133 91.6504-54.7363 91.6504-56.25C91.6504-59.2285 89.0625-61.2793 86.4258-61.2793C84.8633-61.2793 83.4961-60.6445 82.4707-59.5215L78.7598-55.6152L76.8555-51.9043L78.0762-59.3262L78.0762-89.4531C78.0762-93.0664 75.0977-96.2402 71.2402-96.2402C67.3828-96.2402 64.4043-93.0664 64.4043-89.4531L64.4043-59.3262L65.5762-51.9043L63.6719-55.6152L60.0098-59.5215C58.9844-60.6445 57.5684-61.2793 56.0059-61.2793C53.3691-61.2793 50.8301-59.2285 50.8301-56.25C50.8301-54.7363 51.3672-53.6133 52.3926-52.6367L66.2109-39.4043C67.8711-37.8418 69.5801-37.2559 71.2402-37.2559ZM31.0059 17.6758L111.426 17.6758C123.193 17.6758 129.932 10.9375 129.932-0.830078L129.932-28.6621C129.932-36.2305 129.297-40.8691 126.465-45.0684L112.793-65.2344C106.494-74.5605 102.002-77.5879 92.1387-77.5879L87.3047-77.5879L87.3047-65.8691L92.334-65.8691C95.2637-65.8691 97.4609-64.1602 99.1211-61.6699L113.916-39.209C114.697-38.0371 114.16-37.207 112.451-37.207L83.3496-37.207C80.6641-37.207 79.6875-35.8398 79.6875-34.2285L79.6875-34.082C79.6875-30.0781 76.6602-25.5371 71.1914-25.5371C65.7227-25.5371 62.7441-30.0781 62.7441-34.082L62.7441-34.2285C62.7441-35.8398 61.7188-37.207 59.0332-37.207L29.9805-37.207C28.2227-37.207 27.7344-38.0859 28.5645-39.209L43.3594-61.6699C44.9707-64.1602 47.2168-65.8691 50.1465-65.8691L55.0781-65.8691L55.0781-77.5879L50.293-77.5879C40.4297-77.5879 36.084-74.707 29.6875-65.2344L15.918-45.0684C13.0859-40.8203 12.4512-36.2305 12.4512-28.6621L12.4512-0.830078C12.4512 10.9375 19.2383 17.6758 31.0059 17.6758ZM32.666 1.85547C29.3457 1.85547 27.6855 0.390625 27.6855-3.125L27.6855-23.9258L51.3672-23.9258C54.1504-16.6016 61.5234-11.1328 71.1914-11.1328C80.8594-11.1328 88.2324-16.6016 91.0156-23.9258L114.697-23.9258L114.697-3.125C114.697 0.390625 113.037 1.85547 109.717 1.85547Z"/>
  </g>
  <g id="Bold-M" transform="matrix(1 0 0 1 2269.18 1126)">
   <path d="M70.8496-35.2051C72.2656-35.2051 73.6816-35.6934 75.0977-37.0605L89.8438-51.2207C90.7715-52.1484 91.2598-53.125 91.2598-54.4922C91.2598-57.1289 89.0137-58.9844 86.6211-58.9844C85.2539-58.9844 83.9844-58.3984 83.1055-57.4219L78.125-52.0996L75.7324-48.4863L76.6602-55.8594L76.6602-88.9648C76.6602-92.041 74.0723-94.6777 70.8496-94.6777C67.5781-94.6777 65.0391-92.041 65.0391-88.9648L65.0391-55.8594L65.918-48.4863L63.5254-52.0996L58.5449-57.4219C57.6172-58.3984 56.3477-58.9844 55.0293-58.9844C52.5879-58.9844 50.3906-57.1289 50.3906-54.4922C50.3906-53.125 50.8789-52.1484 51.8066-51.2207L66.5527-37.0605C67.9688-35.6934 69.3848-35.2051 70.8496-35.2051ZM29.8828 17.1875L111.719 17.1875C122.949 17.1875 129.15 10.9863 129.15-0.146484L129.15-28.3691C129.15-34.8633 128.467-38.623 125.928-42.334L111.133-62.6953C105.029-71.2402 100.879-74.6582 91.4062-74.6582L85.791-74.6582L85.791-64.6484L91.748-64.6484C94.873-64.6484 97.6074-62.4023 99.5117-59.7168L115.186-37.5C116.406-35.8398 115.82-34.9609 113.721-34.9609L83.9355-34.9609C81.3477-34.9609 80.2734-33.3984 80.2734-31.6895L80.2734-31.4941C80.2734-26.9043 76.7578-21.9238 70.8008-21.9238C64.8438-21.9238 61.3281-26.9043 61.3281-31.4941L61.3281-31.6895C61.3281-33.3984 60.2539-34.9609 57.6172-34.9609L27.8809-34.9609C25.7324-34.9609 25.293-35.9375 26.416-37.5L42.0898-59.7168C43.9941-62.4023 46.7285-64.6484 49.9023-64.6484L55.8105-64.6484L55.8105-74.6582L50.1953-74.6582C40.7227-74.6582 36.6699-71.3379 30.5176-62.6953L15.6738-42.334C13.0859-38.5742 12.4512-34.8633 12.4512-28.3691L12.4512-0.146484C12.4512 11.0352 18.6523 17.1875 29.8828 17.1875ZM31.0059 4.10156C27.1484 4.10156 25.1465 2.24609 25.1465-1.80664L25.1465-23.8281L51.3672-23.8281C53.5645-15.8691 61.0352-9.96094 70.8008-9.96094C80.5664-9.96094 87.9883-15.8691 90.2344-23.8281L116.455-23.8281L116.455-1.80664C116.455 2.24609 114.404 4.10156 110.547 4.10156Z"/>
  </g>
  <g id="Semibold-M" transform="matrix(1 0 0 1 1972.76 1126)">
   <path d="M70.5566-33.7891C71.8262-33.7891 73.0469-34.2285 74.3164-35.4492L89.6484-50.2441C90.5273-51.0742 90.9668-52.002 90.9668-53.2715C90.9668-55.6641 89.0137-57.373 86.7676-57.373C85.5469-57.373 84.375-56.8359 83.5449-55.957L77.6855-49.707L75-46.1426L75.6348-53.4668L75.6348-88.5742C75.6348-91.3086 73.3887-93.6035 70.5566-93.6035C67.7246-93.6035 65.4297-91.3086 65.4297-88.5742L65.4297-53.4668L66.1133-46.1426L63.3789-49.707L57.5195-55.957C56.6895-56.8359 55.5176-57.373 54.2969-57.373C52.002-57.373 50.0977-55.6641 50.0977-53.2715C50.0977-52.002 50.5371-51.0742 51.416-50.2441L66.7969-35.4492C68.0664-34.2285 69.2871-33.7891 70.5566-33.7891ZM29.1016 16.8457L111.914 16.8457C122.803 16.8457 128.564 11.084 128.564 0.292969L128.564-28.125C128.564-33.8867 127.93-37.0605 125.488-40.4297L109.961-60.9863C104.004-68.9453 100.098-72.6074 90.918-72.6074L84.7168-72.6074L84.7168-63.7695L91.3086-63.7695C94.6289-63.7695 97.7051-61.1816 99.8047-58.3984L116.064-36.2793C117.529-34.3262 116.943-33.4473 114.648-33.4473L84.375-33.4473C81.7871-33.4473 80.6641-31.7383 80.6641-29.8828L80.6641-29.7363C80.6641-24.7559 76.8066-19.3848 70.5078-19.3848C64.209-19.3848 60.3516-24.7559 60.3516-29.7363L60.3516-29.8828C60.3516-31.7383 59.2285-33.4473 56.6406-33.4473L26.416-33.4473C24.0723-33.4473 23.584-34.4238 25-36.2793L41.2598-58.3984C43.3594-61.1816 46.4355-63.7695 49.707-63.7695L56.2988-63.7695L56.2988-72.6074L50.0977-72.6074C40.9668-72.6074 37.1094-69.043 31.1035-60.9863L15.5273-40.4297C13.0859-37.0605 12.4512-33.8867 12.4512-28.125L12.4512 0.292969C12.4512 11.084 18.2617 16.8457 29.1016 16.8457ZM29.8828 5.66406C25.6348 5.66406 23.3887 3.51562 23.3887-0.878906L23.3887-23.7305L51.3184-23.7305C53.1738-15.3809 60.6934-9.13086 70.5078-9.13086C80.3223-9.13086 87.8418-15.3809 89.6973-23.7305L117.627-23.7305L117.627-0.878906C117.627 3.51562 115.332 5.66406 111.133 5.66406Z"/>
  </g>
  <g id="Medium-M" transform="matrix(1 0 0 1 1676.24 1126)">
   <path d="M70.3125-32.7148C71.4844-32.7148 72.5586-33.1055 73.6816-34.2285L89.5508-49.5117C90.332-50.293 90.7715-51.1719 90.7715-52.3438C90.7715-54.541 89.0137-56.1523 86.8652-56.1523C85.7422-56.1523 84.668-55.7129 83.8867-54.834L77.3438-47.9004L74.4141-44.3848L74.9023-51.709L74.9023-88.3301C74.9023-90.7227 72.8516-92.8223 70.3125-92.8223C67.8223-92.8223 65.7715-90.7227 65.7715-88.3301L65.7715-51.709L66.2598-44.3359L63.2812-47.9004L56.7871-54.834C56.0059-55.7129 54.8828-56.1523 53.7598-56.1523C51.6113-56.1523 49.8535-54.541 49.8535-52.3438C49.8535-51.1719 50.293-50.293 51.123-49.5117L66.9922-34.2285C68.1152-33.1055 69.1895-32.7148 70.3125-32.7148ZM28.5156 16.6016L112.061 16.6016C122.656 16.6016 128.174 11.1328 128.174 0.683594L128.174-27.9785C128.174-33.1543 127.539-35.9375 125.195-38.9648L109.082-59.668C103.223-67.2363 99.5117-71.0938 90.5762-71.0938L83.9355-71.0938L83.9355-63.0859L91.0156-63.0859C94.4336-63.0859 97.8027-60.2539 100.049-57.373L116.748-35.4004C118.408-33.2031 117.773-32.2754 115.283-32.2754L84.668-32.2754C82.1289-32.2754 80.957-30.4688 80.957-28.5645L80.957-28.3691C80.957-23.0957 76.8555-17.4805 70.3125-17.4805C63.7207-17.4805 59.6191-23.0957 59.6191-28.3691L59.6191-28.5645C59.6191-30.4688 58.4961-32.2754 55.9082-32.2754L25.3418-32.2754C22.8027-32.2754 22.2656-33.3496 23.877-35.4004L40.5762-57.373C42.8223-60.2539 46.1914-63.0859 49.6094-63.0859L56.6895-63.0859L56.6895-71.0938L50.0488-71.0938C41.1133-71.0938 37.4023-67.2852 31.543-59.668L15.3809-38.9648C13.0859-35.8887 12.4512-33.1543 12.4512-27.9785L12.4512 0.683594C12.4512 11.1328 17.9688 16.6016 28.5156 16.6016ZM29.0039 6.83594C24.5117 6.83594 22.0703 4.49219 22.0703-0.195312L22.0703-23.6816L51.3184-23.6816C52.8809-14.9902 60.4492-8.54492 70.3125-8.54492C80.1758-8.54492 87.7441-14.9902 89.3066-23.6816L118.555-23.6816L118.555-0.195312C118.555 4.49219 116.064 6.83594 111.572 6.83594Z"/>
  </g>
  <g id="Regular-M" transform="matrix(1 0 0 1 1379.82 1126)">
   <path d="M70.0684-31.3477C71.0449-31.3477 71.9238-31.6406 72.9004-32.6172L89.3555-48.5352C90.1367-49.2676 90.5273-50.0977 90.5273-51.123C90.5273-53.125 89.0137-54.541 86.9629-54.541C86.0352-54.541 85.0098-54.1504 84.3262-53.3691L76.9043-45.5078L73.6328-42.041L73.9258-49.3652L73.9258-87.9883C73.9258-90.0391 72.168-91.748 70.0684-91.748C67.9688-91.748 66.1621-90.0391 66.1621-87.9883L66.1621-49.3652L66.5039-42.041L63.1836-45.5078L55.7617-53.3691C55.0781-54.1504 54.0039-54.541 53.0762-54.541C51.0254-54.541 49.5605-53.125 49.5605-51.123C49.5605-50.0977 50-49.2676 50.7324-48.5352L67.2363-32.6172C68.2129-31.6406 69.043-31.3477 70.0684-31.3477ZM27.7832 16.2598L112.256 16.2598C122.51 16.2598 127.588 11.1816 127.588 1.12305L127.588-27.7832C127.588-32.2266 127.002-34.4238 124.805-37.0605L107.959-57.959C102.246-64.9902 98.7305-69.0918 90.0879-69.0918L82.9102-69.0918L82.9102-62.207L90.625-62.207C94.1895-62.207 97.9004-59.082 100.293-56.0547L117.627-34.2285C119.58-31.7383 118.896-30.7617 116.211-30.7617L85.1074-30.7617C82.5684-30.7617 81.3965-28.8086 81.3965-26.8066L81.3965-26.6113C81.3965-20.9473 76.9531-14.9902 70.0195-14.9902C63.1348-14.9902 58.6914-20.9473 58.6914-26.6113L58.6914-26.8066C58.6914-28.8086 57.4707-30.7617 54.9316-30.7617L23.9258-30.7617C21.0938-30.7617 20.5566-31.8848 22.4609-34.2285L39.7461-56.0547C42.1387-59.082 45.8496-62.207 49.4141-62.207L57.1777-62.207L57.1777-69.0918L50-69.0918C41.3086-69.0918 37.8418-64.9902 32.1289-57.959L15.2344-37.0605C13.0859-34.4238 12.4512-32.2266 12.4512-27.7832L12.4512 1.12305C12.4512 11.1816 17.5781 16.2598 27.7832 16.2598ZM27.8809 8.39844C22.998 8.39844 20.3125 5.76172 20.3125 0.683594L20.3125-23.584L51.2695-23.584C52.4414-14.4531 60.1074-7.71484 70.0195-7.71484C79.9316-7.71484 87.5977-14.502 88.7695-23.584L119.727-23.584L119.727 0.683594C119.727 5.76172 116.992 8.39844 112.158 8.39844Z"/>
  </g>
  <g id="Light-M" transform="matrix(1 0 0 1 1083.5 1126)">
   <path d="M69.6777-31.25C70.4102-31.25 71.0938-31.4941 71.8262-32.2266L88.9648-49.0234C89.5508-49.6094 89.8926-50.1953 89.8926-51.0254C89.8926-52.5391 88.6719-53.6621 87.1582-53.6621C86.4258-53.6621 85.5957-53.3691 85.0586-52.7344L76.7578-44.1406L72.4121-39.6484L72.6562-46.7285L72.6562-88.9648C72.6562-90.5273 71.2891-91.8945 69.6777-91.8945C68.0176-91.8945 66.6504-90.5273 66.6504-88.9648L66.6504-46.7285L66.8945-39.5996L62.5-44.1406L54.1992-52.7344C53.6621-53.3691 52.832-53.6621 52.0996-53.6621C50.5859-53.6621 49.4141-52.5391 49.4141-51.0254C49.4141-50.1953 49.7559-49.6094 50.293-49.0234L67.4805-32.2266C68.2129-31.4941 68.8965-31.25 69.6777-31.25ZM26.8555 15.5273L112.402 15.5273C121.973 15.5273 126.807 10.6445 126.807 1.26953L126.807-26.709C126.807-30.4688 126.27-32.2754 124.463-34.5703L106.104-57.666C101.123-63.8672 97.998-66.9922 90.1855-66.9922L83.4473-66.9922L83.4473-61.6699L90.7227-61.6699C94.5312-61.6699 97.8027-59.1797 100.195-56.1523L118.945-32.3242C120.459-30.3711 119.971-29.4922 117.822-29.4922L84.9121-29.4922C82.8125-29.4922 81.8359-27.9785 81.8359-26.2207L81.8359-25.9766C81.8359-19.4824 76.8555-13.4766 69.6289-13.4766C62.4023-13.4766 57.4219-19.4824 57.4219-25.9766L57.4219-26.2207C57.4219-27.9785 56.4453-29.4922 54.3457-29.4922L21.4355-29.4922C19.2871-29.4922 18.8477-30.4688 20.3125-32.3242L39.0625-56.1523C41.4551-59.1797 44.7266-61.6699 48.5352-61.6699L55.8594-61.6699L55.8594-66.9922L49.0723-66.9922C41.2598-66.9922 38.1348-63.8672 33.1543-57.666L14.7949-34.5703C12.9883-32.2754 12.4512-30.4688 12.4512-26.709L12.4512 1.26953C12.4512 10.6934 17.334 15.5273 26.8555 15.5273ZM26.9531 9.47266C21.4844 9.47266 18.5059 6.5918 18.5059 0.927734L18.5059-23.9746L51.6602-23.9746C52.4414-14.5996 60.0098-7.91016 69.6289-7.91016C79.248-7.91016 86.8164-14.6484 87.5977-23.9746L120.752-23.9746L120.752 0.927734C120.752 6.5918 117.676 9.47266 112.305 9.47266Z"/>
  </g>
  <g id="Thin-M" transform="matrix(1 0 0 1 787.33 1126)">
   <path d="M69.1406-31.1523C69.5801-31.1523 70.0195-31.2988 70.4102-31.6895L88.4766-49.6582C88.8184-50 89.0137-50.3906 89.0137-50.8301C89.0137-51.7578 88.2324-52.4902 87.3535-52.4902C86.9141-52.4902 86.4258-52.2949 86.0352-51.9043L76.5625-42.334L70.8008-36.4746L70.9473-43.3105L70.9473-90.2344C70.9473-91.2109 70.1172-92.041 69.1406-92.041C68.1641-92.041 67.334-91.2109 67.334-90.2344L67.334-43.3105L67.4316-36.4258L61.6211-42.334L52.1484-51.9043C51.8066-52.2949 51.3184-52.4902 50.8301-52.4902C49.9023-52.4902 49.2188-51.7578 49.2188-50.8301C49.2188-50.3906 49.4141-50 49.7559-49.6582L67.8711-31.6895C68.2617-31.2988 68.7012-31.1523 69.1406-31.1523ZM25.6348 14.5508L112.598 14.5508C121.24 14.5508 125.732 9.96094 125.732 1.41602L125.732-25.3418C125.732-28.1738 125.342-29.4922 123.926-31.25L103.711-57.2754C99.6582-62.4512 96.9727-64.209 90.2832-64.209L84.1797-64.209L84.1797-60.9375L90.8691-60.9375C94.9707-60.9375 97.7051-59.2773 100.098-56.25L120.703-29.834C121.631-28.5645 121.338-27.832 120.02-27.832L84.668-27.832C83.1543-27.832 82.4219-26.8066 82.4219-25.3906L82.4219-25.0977C82.4219-17.4805 76.709-11.5234 69.0918-11.5234C61.4746-11.5234 55.8105-17.4805 55.8105-25.0977L55.8105-25.3906C55.8105-26.8066 55.0293-27.832 53.5156-27.832L18.2129-27.832C16.8457-27.832 16.6016-28.6133 17.5293-29.834L38.1348-56.25C40.5273-59.2773 43.2617-60.9375 47.3633-60.9375L54.1504-60.9375L54.1504-64.209L47.9004-64.209C41.2109-64.209 38.5742-62.4512 34.5215-57.2754L14.2578-31.25C12.8906-29.4922 12.4512-28.1738 12.4512-25.3418L12.4512 1.41602C12.4512 10.0586 16.9922 14.5508 25.6348 14.5508ZM25.7324 10.9375C19.3848 10.9375 16.0645 7.61719 16.0645 1.2207L16.0645-24.4629L52.1484-24.4629C52.4414-14.7461 59.8633-8.10547 69.0918-8.10547C78.3203-8.10547 85.7422-14.8438 86.0352-24.4629L122.119-24.4629L122.119 1.2207C122.119 7.61719 118.604 10.9375 112.451 10.9375Z"/>
  </g>
  <g id="Ultralight-M" transform="matrix(1 0 0 1 490.888 1126)">
   <path d="M68.8477-31.1035C69.1406-31.1035 69.4824-31.2012 69.6777-31.4453L88.1836-50C88.4277-50.2441 88.5254-50.4883 88.5254-50.7812C88.5254-51.3672 87.9883-51.9043 87.4512-51.9043C87.1582-51.9043 86.8164-51.709 86.5723-51.5137L76.4648-41.4062L70.0195-34.8633L70.0684-41.5527L70.0684-90.918C70.0684-91.5527 69.5312-92.0898 68.8477-92.0898C68.2129-92.0898 67.6758-91.5527 67.6758-90.918L67.6758-41.5527L67.7246-34.8145L61.1816-41.4062L51.123-51.5137C50.8789-51.709 50.4883-51.9043 50.1953-51.9043C49.6094-51.9043 49.1211-51.3672 49.1211-50.7812C49.1211-50.4883 49.2188-50.2441 49.4629-50L68.0176-31.4453C68.2617-31.2012 68.5547-31.1035 68.8477-31.1035ZM25 14.0625L112.695 14.0625C120.85 14.0625 125.195 9.57031 125.195 1.51367L125.195-24.6094C125.195-27.002 124.854-28.0273 123.682-29.5898L102.49-57.0801C98.877-61.6699 96.4844-62.8418 90.3809-62.8418L84.5215-62.8418L84.5215-60.5469L90.918-60.5469C95.166-60.5469 97.6562-59.3262 100-56.3477L121.582-28.5645C122.266-27.6367 122.07-26.9531 121.094-26.9531L84.5703-26.9531C83.3496-26.9531 82.7148-26.2207 82.7148-25L82.7148-24.6094C82.7148-16.5039 76.6602-10.498 68.8477-10.498C61.0352-10.498 54.9316-16.5039 54.9316-24.6094L54.9316-25C54.9316-26.2207 54.3457-26.9531 53.125-26.9531L16.5527-26.9531C15.5762-26.9531 15.4297-27.6367 16.0645-28.5645L37.6465-56.3477C40.0391-59.3262 42.4805-60.5469 46.7285-60.5469L53.2715-60.5469L53.2715-62.8418L47.3145-62.8418C41.1621-62.8418 38.7695-61.6699 35.2051-57.0801L13.9648-29.5898C12.8418-28.0273 12.4512-27.002 12.4512-24.6094L12.4512 1.51367C12.4512 9.7168 16.7969 14.0625 25 14.0625ZM25.0977 11.6699C18.3594 11.6699 14.8438 8.1543 14.8438 1.41602L14.8438-24.707L52.4414-24.707C52.4414-14.8438 59.8145-8.20312 68.8477-8.20312C77.832-8.20312 85.2051-14.9414 85.2539-24.707L122.803-24.707L122.803 1.41602C122.803 8.1543 119.043 11.6699 112.549 11.6699Z"/>
  </g>
  <g id="Black-S" transform="matrix(1 0 0 1 2877.35 696)">
   <path d="M56.0547-38.0859C57.5195-38.0859 59.0332-38.623 60.498-39.9902L70.7031-49.7559C71.582-50.5859 72.0215-51.5137 72.0215-52.832C72.0215-55.3711 69.7754-57.1289 67.5781-57.1289C66.2109-57.1289 65.0391-56.543 64.1602-55.6152L62.1094-53.418L60.9375-50.4883L62.0605-56.2988L62.0605-78.0273C62.0605-81.2012 59.4727-83.9844 56.0547-83.9844C52.6367-83.9844 50.0488-81.2012 50.0488-78.0273L50.0488-56.2988L51.1719-50.4883L50-53.418L47.9492-55.6152C47.0703-56.543 45.8984-57.1289 44.5312-57.1289C42.334-57.1289 40.0879-55.3711 40.0879-52.832C40.0879-51.5137 40.5273-50.5859 41.4062-49.7559L51.6113-39.9902C53.0762-38.623 54.5898-38.0859 56.0547-38.0859ZM25 6.54297L87.1094 6.54297C96.6797 6.54297 102.344 0.878906 102.344-8.69141L102.344-30.2734C102.344-36.9141 101.807-41.0645 99.4629-44.7266L89.4531-60.3027C84.375-68.1641 80.6641-70.3125 72.6562-70.3125L69.3848-70.3125L69.3848-60.0586L72.7051-60.0586C74.8535-60.0586 76.2695-58.9844 77.3926-57.1777L88.4277-39.4531C88.8184-38.8184 88.4277-38.1836 87.2559-38.1836L64.9414-38.1836C62.793-38.1836 62.0605-37.2559 62.0605-36.084L62.0605-35.9863C62.0605-33.2031 60.0098-29.9805 56.0547-29.9805C52.0996-29.9805 50.0488-33.2031 50.0488-35.9863L50.0488-36.084C50.0488-37.2559 49.3164-38.1836 47.168-38.1836L24.8535-38.1836C23.6816-38.1836 23.3398-38.8184 23.7305-39.4531L34.7656-57.1777C35.8887-58.9844 37.3047-60.0586 39.4531-60.0586L42.7246-60.0586L42.7246-70.3125L39.502-70.3125C31.4941-70.3125 27.8809-68.3105 22.7051-60.3027L12.6465-44.7266C10.2539-41.0156 9.76562-36.9141 9.76562-30.2734L9.76562-8.69141C9.76562 0.878906 15.4297 6.54297 25 6.54297ZM26.6602-7.61719C24.4141-7.61719 23.3398-8.49609 23.3398-10.9375L23.3398-26.4648L40.2832-26.4648C42.8223-21.0938 48.5352-17.0898 56.0547-17.0898C63.5742-17.0898 69.2871-21.0938 71.8262-26.4648L88.7695-26.4648L88.7695-10.9375C88.7695-8.49609 87.6953-7.61719 85.4492-7.61719Z"/>
  </g>
  <g id="Heavy-S" transform="matrix(1 0 0 1 2580.88 696)">
   <path d="M55.8105-36.7188C57.1289-36.7188 58.4961-37.1582 59.8145-38.4277L70.6055-48.7305C71.4355-49.5117 71.8262-50.3906 71.8262-51.6113C71.8262-54.0039 69.7754-55.6152 67.6758-55.6152C66.4551-55.6152 65.332-55.127 64.502-54.248L61.6699-51.1719L60.3027-48.4375L61.2305-54.248L61.2305-77.5879C61.2305-80.4199 58.8867-82.9102 55.8105-82.9102C52.7832-82.9102 50.3906-80.4199 50.3906-77.5879L50.3906-54.248L51.3184-48.4375L49.9512-51.1719L47.1191-54.248C46.2891-55.127 45.166-55.6152 43.9453-55.6152C41.8457-55.6152 39.7949-54.0039 39.7949-51.6113C39.7949-50.3906 40.2344-49.5117 41.0645-48.7305L51.8066-38.4277C53.1738-37.1582 54.4922-36.7188 55.8105-36.7188ZM24.3652 6.29883L87.3047 6.29883C96.582 6.29883 101.855 0.976562 101.855-8.25195L101.855-30.1758C101.855-36.1816 101.318-39.7949 99.1211-43.1152L88.5254-58.6426C83.4961-66.0156 79.9805-68.5547 72.168-68.5547L68.2617-68.5547L68.2617-59.2773L72.3145-59.2773C74.5605-59.2773 76.3672-57.7637 77.6855-55.8105L89.1602-38.4766C89.8438-37.5 89.4043-36.8164 87.9395-36.8164L65.3809-36.8164C63.2324-36.8164 62.4023-35.6934 62.4023-34.375L62.4023-34.2773C62.4023-31.2012 60.1074-27.6367 55.8105-27.6367C51.5625-27.6367 49.2188-31.2012 49.2188-34.2773L49.2188-34.375C49.2188-35.6934 48.4375-36.8164 46.2891-36.8164L23.6816-36.8164C22.2168-36.8164 21.8262-37.5 22.5098-38.4766L33.9844-55.8105C35.3027-57.7637 37.1094-59.2773 39.4043-59.2773L43.3594-59.2773L43.3594-68.5547L39.5508-68.5547C31.6895-68.5547 28.2715-66.1133 23.1934-58.6426L12.5488-43.1152C10.2539-39.7461 9.76562-36.1816 9.76562-30.1758L9.76562-8.25195C9.76562 0.976562 15.0879 6.29883 24.3652 6.29883ZM25.6348-6.20117C23.0957-6.20117 21.7773-7.32422 21.7773-10.0586L21.7773-26.3184L40.2344-26.3184C42.4316-20.5566 48.1934-16.2598 55.8105-16.2598C63.4277-16.2598 69.2383-20.5566 71.4355-26.3184L89.8438-26.3184L89.8438-10.0586C89.8438-7.32422 88.5742-6.20117 85.9863-6.20117Z"/>
  </g>
  <g id="Bold-S" transform="matrix(1 0 0 1 2284.41 696)">
   <path d="M55.5664-35.1562C56.7383-35.1562 57.8613-35.5469 59.0332-36.6699L70.459-47.6074C71.2402-48.3398 71.6309-49.1699 71.6309-50.293C71.6309-52.4414 69.8242-53.9551 67.8223-53.9551C66.6992-53.9551 65.6738-53.5156 64.9414-52.6855L61.2305-48.6816L59.6191-46.0938L60.3027-51.9043L60.3027-77.0508C60.3027-79.541 58.2031-81.7383 55.5664-81.7383C52.9297-81.7383 50.8301-79.541 50.8301-77.0508L50.8301-51.9043L51.5137-46.0938L49.9023-48.6816L46.1914-52.6855C45.459-53.5156 44.3848-53.9551 43.2617-53.9551C41.2598-53.9551 39.502-52.4414 39.502-50.293C39.502-49.1699 39.8926-48.3398 40.6738-47.6074L52.0508-36.6699C53.2715-35.5469 54.3945-35.1562 55.5664-35.1562ZM23.6328 6.00586L87.5 6.00586C96.4844 6.00586 101.367 1.12305 101.367-7.76367L101.367-30.0781C101.367-35.3027 100.83-38.3301 98.7305-41.3086L87.4512-56.7383C82.5195-63.623 79.1992-66.5527 71.582-66.5527L67.041-66.5527L67.041-58.3496L71.8262-58.3496C74.2676-58.3496 76.5137-56.4453 78.0273-54.3457L89.9902-37.4023C91.0156-35.9863 90.5273-35.2539 88.7695-35.2539L65.8691-35.2539C63.6719-35.2539 62.793-33.9355 62.793-32.5195L62.793-32.373C62.793-29.0039 60.1562-25.0488 55.5664-25.0488C50.9277-25.0488 48.3398-29.0039 48.3398-32.373L48.3398-32.5195C48.3398-33.9355 47.4121-35.2539 45.2637-35.2539L22.4121-35.2539C20.5566-35.2539 20.166-36.0352 21.1914-37.4023L33.1055-54.3457C34.6191-56.4453 36.9141-58.3496 39.3066-58.3496L44.0918-58.3496L44.0918-66.5527L39.5508-66.5527C31.9336-66.5527 28.7109-63.6719 23.6816-56.7383L12.4023-41.3086C10.2539-38.3301 9.76562-35.3027 9.76562-30.0781L9.76562-7.76367C9.76562 1.12305 14.6973 6.00586 23.6328 6.00586ZM24.5117-4.58984C21.6309-4.58984 20.0684-6.00586 20.0684-9.08203L20.0684-26.2207L40.1367-26.2207C41.9922-20.0195 47.8516-15.332 55.5664-15.332C63.2812-15.332 69.1406-20.0195 70.9961-26.2207L91.0645-26.2207L91.0645-9.08203C91.0645-6.00586 89.502-4.58984 86.6211-4.58984Z"/>
  </g>
  <g id="Semibold-S" transform="matrix(1 0 0 1 1987.9 696)">
   <path d="M55.3711-34.082C56.4453-34.082 57.4707-34.4238 58.5449-35.498L70.3613-46.8262C71.0938-47.5098 71.4844-48.291 71.4844-49.3652C71.4844-51.3672 69.8242-52.7832 67.8711-52.7832C66.8945-52.7832 65.918-52.3926 65.1855-51.6113L60.8887-46.9238L59.1309-44.5312L59.668-50.3418L59.668-76.709C59.668-78.9551 57.7637-80.9082 55.3711-80.9082C53.0273-80.9082 51.123-78.9551 51.123-76.709L51.123-50.3418L51.6602-44.4824L49.8535-46.9238L45.5566-51.6113C44.873-52.3926 43.8477-52.7832 42.8223-52.7832C40.8691-52.7832 39.2578-51.3672 39.2578-49.3652C39.2578-48.291 39.6484-47.5098 40.3809-46.8262L52.2461-35.498C53.3203-34.4238 54.2969-34.082 55.3711-34.082ZM23.0957 5.81055L87.6465 5.81055C96.3867 5.81055 100.977 1.2207 100.977-7.42188L100.977-30.0293C100.977-34.7168 100.488-37.3535 98.4375-40.0879L86.7188-55.4199C81.8359-61.9629 78.6621-65.1855 71.1914-65.1855L66.1621-65.1855L66.1621-57.7148L71.5332-57.7148C74.0234-57.7148 76.6113-55.5176 78.2715-53.2715L90.5273-36.6699C91.8457-34.9609 91.3086-34.1797 89.3066-34.1797L66.2109-34.1797C64.0137-34.1797 63.0859-32.7148 63.0859-31.2012L63.0859-31.1035C63.0859-27.4414 60.2539-23.2422 55.3711-23.2422C50.5371-23.2422 47.7051-27.4414 47.7051-31.1035L47.7051-31.2012C47.7051-32.7148 46.7285-34.1797 44.5801-34.1797L21.4844-34.1797C19.4336-34.1797 18.9941-35.0586 20.2637-36.6699L32.5195-53.2715C34.1797-55.5176 36.7676-57.7148 39.2578-57.7148L44.5801-57.7148L44.5801-65.1855L39.5508-65.1855C32.1289-65.1855 29.0039-62.0117 24.0234-55.4199L12.3047-40.0879C10.3027-37.3047 9.76562-34.7168 9.76562-30.0293L9.76562-7.42188C9.76562 1.2207 14.4043 5.81055 23.0957 5.81055ZM23.6816-3.51562C20.6055-3.51562 18.8965-5.07812 18.8965-8.39844L18.8965-26.123L40.0879-26.123C41.6504-19.6289 47.6074-14.6973 55.3711-14.6973C63.1836-14.6973 69.0918-19.6289 70.6543-26.123L91.8945-26.123L91.8945-8.39844C91.8945-5.07812 90.1855-3.51562 87.0605-3.51562Z"/>
  </g>
  <g id="Medium-S" transform="matrix(1 0 0 1 1691.31 696)">
   <path d="M55.2246-33.252C56.25-33.252 57.1289-33.5938 58.1055-34.5703L70.3125-46.1914C70.9961-46.9238 71.3867-47.6562 71.3867-48.6328C71.3867-50.5859 69.873-51.9531 67.9688-51.9531C67.041-51.9531 66.0645-51.5625 65.4297-50.8301L60.6445-45.6543L58.7402-43.3105L59.1797-49.1211L59.1797-76.416C59.1797-78.5156 57.4219-80.2734 55.2246-80.2734C53.0762-80.2734 51.3184-78.5156 51.3184-76.416L51.3184-49.1211L51.7578-43.3105L49.8535-45.6543L45.0684-50.8301C44.3848-51.5625 43.4082-51.9531 42.4805-51.9531C40.5762-51.9531 39.1113-50.5859 39.1113-48.6328C39.1113-47.6562 39.502-46.9238 40.1855-46.1914L52.3438-34.5703C53.3691-33.5938 54.248-33.252 55.2246-33.252ZM22.7051 5.66406L87.7441 5.66406C96.3379 5.66406 100.732 1.26953 100.732-7.12891L100.732-29.9805C100.732-34.2773 100.195-36.5723 98.2422-39.1113L86.1816-54.4434C81.2988-60.6934 78.2227-64.1113 70.8984-64.1113L65.5273-64.1113L65.5273-57.2754L71.2891-57.2754C73.877-57.2754 76.6602-54.7852 78.418-52.4902L90.9668-36.084C92.4316-34.1797 91.8945-33.3984 89.6973-33.3984L66.4551-33.3984C64.2578-33.3984 63.2812-31.8359 63.2812-30.2246L63.2812-30.0781C63.2812-26.2695 60.2539-21.875 55.2246-21.875C50.1953-21.875 47.2168-26.2695 47.2168-30.0781L47.2168-30.2246C47.2168-31.8359 46.2402-33.3984 44.043-33.3984L20.8008-33.3984C18.5547-33.3984 18.1152-34.2773 19.5312-36.084L32.0801-52.4902C33.8379-54.7852 36.6211-57.2754 39.209-57.2754L44.9707-57.2754L44.9707-64.1113L39.5996-64.1113C32.2266-64.1113 29.1992-60.7422 24.3164-54.4434L12.2559-39.1113C10.3027-36.5723 9.76562-34.2773 9.76562-29.9805L9.76562-7.12891C9.76562 1.31836 14.209 5.66406 22.7051 5.66406ZM23.0957-2.68555C19.8242-2.68555 17.9688-4.39453 17.9688-7.86133L17.9688-26.0254L40.0391-26.0254C41.4062-19.2871 47.4121-14.209 55.2246-14.209C63.0859-14.209 69.043-19.2871 70.459-26.0254L92.4805-26.0254L92.4805-7.86133C92.4805-4.39453 90.6738-2.68555 87.4023-2.68555Z"/>
  </g>
  <g id="Regular-S" transform="matrix(1 0 0 1 1394.79 696)">
   <path d="M55.0781-32.2266C55.957-32.2266 56.6895-32.5195 57.6172-33.3984L70.2148-45.459C70.8496-46.0938 71.2402-46.7773 71.2402-47.7539C71.2402-49.5117 69.873-50.7812 68.0664-50.7812C67.1875-50.7812 66.3086-50.4395 65.6738-49.7559L60.3516-43.9453L58.252-41.6992L58.5449-47.5586L58.5449-76.0742C58.5449-77.9297 56.9336-79.4434 55.0781-79.4434C53.1738-79.4434 51.6113-77.9297 51.6113-76.0742L51.6113-47.5586L51.8555-41.6992L49.8047-43.9453L44.4336-49.7559C43.8477-50.4395 42.8711-50.7812 42.041-50.7812C40.1855-50.7812 38.916-49.5117 38.916-47.7539C38.916-46.7773 39.2578-46.0938 39.9414-45.459L52.5391-33.3984C53.418-32.5195 54.1504-32.2266 55.0781-32.2266ZM22.2168 5.46875L87.8906 5.46875C96.2402 5.46875 100.342 1.36719 100.342-6.83594L100.342-29.9316C100.342-33.6914 99.8535-35.5957 97.998-37.8906L85.4492-53.1738C80.6152-59.082 77.7344-62.7441 70.5078-62.7441L64.6973-62.7441L64.6973-56.6406L70.9473-56.6406C73.6328-56.6406 76.7578-53.8574 78.6621-51.4648L91.5039-35.3516C93.2617-33.1543 92.627-32.3242 90.2344-32.3242L66.748-32.3242C64.5996-32.3242 63.5254-30.6152 63.5254-28.9062L63.5254-28.8086C63.5254-24.7559 60.3516-20.0684 55.0781-20.0684C49.8047-20.0684 46.582-24.7559 46.582-28.8086L46.582-28.9062C46.582-30.6152 45.5566-32.3242 43.3594-32.3242L19.9219-32.3242C17.4316-32.3242 16.9922-33.3008 18.6035-35.3516L31.4941-51.4648C33.3984-53.8574 36.4746-56.6406 39.1602-56.6406L45.459-56.6406L45.459-62.7441L39.5996-62.7441C32.4219-62.7441 29.4922-59.082 24.6582-53.1738L12.1582-37.8906C10.3027-35.5957 9.76562-33.6914 9.76562-29.9316L9.76562-6.83594C9.76562 1.36719 13.916 5.46875 22.2168 5.46875ZM22.3145-1.61133C18.7988-1.61133 16.7969-3.4668 16.7969-7.17773L16.7969-25.9277L39.9902-25.9277C41.1133-18.8965 47.168-13.623 55.0781-13.623C62.9883-13.623 68.9941-18.8965 70.1172-25.9277L93.3105-25.9277L93.3105-7.17773C93.3105-3.4668 91.3086-1.61133 87.793-1.61133Z"/>
  </g>
  <g id="Light-S" transform="matrix(1 0 0 1 1098.42 696)">
   <path d="M54.7363-32.1289C55.4199-32.1289 56.0059-32.373 56.6406-33.0566L69.873-45.8496C70.3613-46.3867 70.6543-46.9238 70.6543-47.6562C70.6543-49.0234 69.5801-50 68.2129-50C67.5293-50 66.8457-49.7559 66.3574-49.2188L60.2051-42.7246L57.1777-39.5996L57.373-45.2637L57.373-76.9531C57.373-78.3691 56.1523-79.541 54.7363-79.541C53.2715-79.541 52.0508-78.3691 52.0508-76.9531L52.0508-45.2637L52.2461-39.5996L49.2188-42.7246L43.0664-49.2188C42.5781-49.7559 41.8457-50 41.2109-50C39.7949-50 38.7695-49.0234 38.7695-47.6562C38.7695-46.9238 39.0625-46.3867 39.5508-45.8496L52.7832-33.0566C53.418-32.373 54.0039-32.1289 54.7363-32.1289ZM21.3867 4.78516L88.0371 4.78516C95.752 4.78516 99.6582 0.927734 99.6582-6.68945L99.6582-28.9551C99.6582-32.1777 99.2188-33.7402 97.6562-35.6934L83.8379-52.9297C79.6387-58.1055 77.0508-60.9375 70.6055-60.9375L65.1855-60.9375L65.1855-56.1523L71.0449-56.1523C73.9258-56.1523 76.6602-53.9551 78.5645-51.5625L92.6758-33.6914C94.043-31.9336 93.6035-31.2012 91.6992-31.2012L66.6016-31.2012C64.7949-31.2012 63.9648-29.8828 63.9648-28.3691L63.9648-28.2227C63.9648-23.4375 60.2539-18.75 54.7363-18.75C49.1699-18.75 45.5078-23.4375 45.5078-28.2227L45.5078-28.3691C45.5078-29.8828 44.6289-31.2012 42.8223-31.2012L17.7734-31.2012C15.8203-31.2012 15.4297-32.0312 16.748-33.6914L30.8594-51.5625C32.7637-53.9551 35.498-56.1523 38.3789-56.1523L44.2871-56.1523L44.2871-60.9375L38.8184-60.9375C32.373-60.9375 29.7852-58.1055 25.5859-52.9297L11.7676-35.6934C10.2051-33.7402 9.76562-32.1777 9.76562-28.9551L9.76562-6.68945C9.76562 0.927734 13.6719 4.78516 21.3867 4.78516ZM21.4844-0.634766C17.4316-0.634766 15.1855-2.7832 15.1855-6.98242L15.1855-26.2695L40.332-26.2695C41.1133-18.9941 47.0703-13.7695 54.7363-13.7695C62.3535-13.7695 68.3105-19.043 69.0918-26.2695L94.2383-26.2695L94.2383-6.98242C94.2383-2.7832 91.9434-0.634766 87.9395-0.634766Z"/>
  </g>
  <g id="Thin-S" transform="matrix(1 0 0 1 802.174 696)">
   <path d="M54.248-32.0312C54.6875-32.0312 55.0293-32.1777 55.4199-32.5684L69.3848-46.4355C69.7266-46.7285 69.873-47.0703 69.873-47.5098C69.873-48.3398 69.1895-48.9746 68.3594-48.9746C67.9688-48.9746 67.5293-48.7793 67.2363-48.4863L60.0098-41.1621L55.7617-36.8164L55.9082-42.1875L55.9082-78.0762C55.9082-78.9551 55.127-79.6875 54.248-79.6875C53.3691-79.6875 52.5879-78.9551 52.5879-78.0762L52.5879-42.1875L52.7344-36.7676L48.4375-41.1621L41.2598-48.4863C40.918-48.7793 40.4785-48.9746 40.0879-48.9746C39.209-48.9746 38.5742-48.3398 38.5742-47.5098C38.5742-47.0703 38.7695-46.7285 39.0625-46.4355L53.0762-32.5684C53.4668-32.1777 53.8574-32.0312 54.248-32.0312ZM20.3125 3.95508L88.1836 3.95508C95.1172 3.95508 98.7305 0.292969 98.7305-6.54297L98.7305-27.7344C98.7305-30.127 98.3887-31.25 97.2168-32.7637L81.7383-52.5879C78.3691-56.8359 76.1719-58.4961 70.7031-58.4961L65.8203-58.4961L65.8203-55.5176L71.1426-55.5176C74.3164-55.5176 76.5625-54.0527 78.4668-51.6602L94.2383-31.4941C95.0684-30.3711 94.8242-29.7363 93.6035-29.7363L66.4062-29.7363C65.0879-29.7363 64.4531-28.8574 64.4531-27.6855L64.4531-27.4414C64.4531-21.7285 60.1562-17.041 54.248-17.041C48.3887-17.041 44.043-21.7285 44.043-27.4414L44.043-27.6855C44.043-28.8574 43.4082-29.7363 42.0898-29.7363L14.8926-29.7363C13.6719-29.7363 13.4277-30.3711 14.2578-31.4941L30.0781-51.6602C31.9336-54.0527 34.1797-55.5176 37.3535-55.5176L42.7734-55.5176L42.7734-58.4961L37.793-58.4961C32.3242-58.4961 30.127-56.8359 26.7578-52.5879L11.2793-32.7637C10.1074-31.25 9.76562-30.127 9.76562-27.7344L9.76562-6.54297C9.76562 0.390625 13.3789 3.95508 20.3125 3.95508ZM20.4102 0.634766C15.625 0.634766 13.0859-1.85547 13.0859-6.73828L13.0859-26.6602L40.7715-26.6602C41.1133-19.1406 46.9727-13.916 54.248-13.916C61.5723-13.916 67.3828-19.2383 67.7246-26.6602L95.4102-26.6602L95.4102-6.73828C95.4102-1.85547 92.7246 0.634766 88.0859 0.634766Z"/>
  </g>
  <g id="Ultralight-S" transform="matrix(1 0 0 1 505.707 696)">
   <path d="M54.0039-31.9824C54.2969-31.9824 54.541-32.0801 54.7852-32.3242L69.1406-46.7285C69.3848-46.9238 69.4824-47.168 69.4824-47.4121C69.4824-47.998 68.9941-48.4375 68.5059-48.4375C68.2129-48.4375 67.8711-48.291 67.6758-48.0957L59.9121-40.332L55.0293-35.4004L55.127-40.625L55.127-78.6621C55.127-79.2969 54.5898-79.7852 54.0039-79.7852C53.418-79.7852 52.9297-79.2969 52.9297-78.6621L52.9297-40.625L52.9785-35.3516L48.0469-40.332L40.2832-48.0957C40.0879-48.291 39.7461-48.4375 39.502-48.4375C38.916-48.4375 38.4766-47.998 38.4766-47.4121C38.4766-47.168 38.623-46.9238 38.8184-46.7285L53.2227-32.3242C53.4668-32.0801 53.7109-31.9824 54.0039-31.9824ZM19.7754 3.51562L88.2812 3.51562C94.8242 3.51562 98.2422-0.0488281 98.2422-6.44531L98.2422-27.0996C98.2422-29.1016 97.9492-29.9805 96.9727-31.25L80.6152-52.3926C77.6855-56.1523 75.7324-57.2266 70.8008-57.2266L66.1133-57.2266L66.1133-55.1758L71.2402-55.1758C74.5117-55.1758 76.5137-54.1016 78.3691-51.7578L95.0195-30.3223C95.6055-29.541 95.459-29.0039 94.5801-29.0039L66.3086-29.0039C65.2344-29.0039 64.7461-28.3203 64.7461-27.3438L64.7461-27.0508C64.7461-20.8008 60.0586-16.1133 54.0039-16.1133C47.9492-16.1133 43.3105-20.8008 43.3105-27.0508L43.3105-27.3438C43.3105-28.3203 42.7734-29.0039 41.748-29.0039L13.4277-29.0039C12.5488-29.0039 12.4023-29.541 12.9883-30.3223L29.6387-51.7578C31.4941-54.1016 33.4961-55.1758 36.8164-55.1758L41.9922-55.1758L41.9922-57.2266L37.2559-57.2266C32.2754-57.2266 30.3223-56.1523 27.3926-52.3926L11.0352-31.25C10.0586-29.9805 9.76562-29.1016 9.76562-27.0996L9.76562-6.44531C9.76562 0.0488281 13.2324 3.51562 19.7754 3.51562ZM19.873 1.31836C14.6484 1.31836 11.9629-1.36719 11.9629-6.5918L11.9629-26.9043L41.0156-26.9043C41.1133-19.2383 46.875-14.0625 54.0039-14.0625C61.1328-14.0625 66.8945-19.3359 66.9922-26.9043L96.0449-26.9043L96.0449-6.5918C96.0449-1.36719 93.1641 1.31836 88.1836 1.31836Z"/>
  </g>
 </g>
</svg>
